<svg width="21" height="21" viewBox="0 0 21 21" fill="none" xmlns="http://www.w3.org/2000/svg">
<path fill-rule="evenodd" clip-rule="evenodd" d="M12.5626 20.519C12.2946 20.519 12.047 20.376 11.913 20.144L9.61271 16.1597C9.47874 15.9276 9.47874 15.6417 9.61271 15.4097L11.913 11.4254C12.047 11.1933 12.2946 11.0504 12.5626 11.0504L17.1632 11.0504C17.4312 11.0504 17.6788 11.1933 17.8128 11.4254L20.1131 15.4097C20.2471 15.6417 20.2471 15.9276 20.1131 16.1597L17.8128 20.144C17.6788 20.376 17.4312 20.519 17.1632 20.519L12.5626 20.519ZM16.7302 19.019L18.5975 15.7847L16.7302 12.5504L12.9956 12.5504L11.1283 15.7847L12.9956 19.019L16.7302 19.019Z" fill="url(#paint0_linear_1004_3957)"/>
<path fill-rule="evenodd" clip-rule="evenodd" d="M3.56254 15.519C3.29459 15.519 3.04699 15.376 2.91302 15.144L0.612684 11.1597C0.478709 10.9276 0.478709 10.6417 0.612684 10.4097L2.91302 6.42538C3.04699 6.19333 3.29459 6.05038 3.56254 6.05038L8.16321 6.05038C8.43116 6.05038 8.67875 6.19333 8.81273 6.42538L11.1131 10.4097C11.247 10.6417 11.247 10.9276 11.1131 11.1597L8.81273 15.144C8.67875 15.376 8.43116 15.519 8.16321 15.519L3.56254 15.519ZM7.7302 14.019L9.59752 10.7847L7.7302 7.55038L3.99555 7.55038L2.12823 10.7847L3.99555 14.019L7.7302 14.019Z" fill="url(#paint1_linear_1004_3957)"/>
<path fill-rule="evenodd" clip-rule="evenodd" d="M12.5626 10.519C12.2946 10.519 12.047 10.376 11.913 10.144L9.61271 6.15968C9.47874 5.92763 9.47874 5.64173 9.61271 5.40968L11.913 1.42538C12.047 1.19333 12.2946 1.05038 12.5626 1.05038L17.1632 1.05038C17.4312 1.05038 17.6788 1.19333 17.8128 1.42538L20.1131 5.40968C20.2471 5.64173 20.2471 5.92763 20.1131 6.15968L17.8128 10.144C17.6788 10.376 17.4312 10.519 17.1632 10.519L12.5626 10.519ZM16.7302 9.01898L18.5975 5.78468L16.7302 2.55038L12.9956 2.55038L11.1283 5.78468L12.9956 9.01898L16.7302 9.01898Z" fill="url(#paint2_linear_1004_3957)"/>
<defs>
<linearGradient id="paint0_linear_1004_3957" x1="12.1876" y1="20.4185" x2="10.8028" y2="10.3264" gradientUnits="userSpaceOnUse">
<stop stop-color="#6310E5"/>
<stop offset="1" stop-color="#8322FE"/>
</linearGradient>
<linearGradient id="paint1_linear_1004_3957" x1="3.18754" y1="15.4185" x2="1.8028" y2="5.32638" gradientUnits="userSpaceOnUse">
<stop stop-color="#6310E5"/>
<stop offset="1" stop-color="#8322FE"/>
</linearGradient>
<linearGradient id="paint2_linear_1004_3957" x1="12.1876" y1="10.4185" x2="10.8028" y2="0.326385" gradientUnits="userSpaceOnUse">
<stop stop-color="#6310E5"/>
<stop offset="1" stop-color="#8322FE"/>
</linearGradient>
</defs>
</svg>
