<svg width="83" height="19" viewBox="0 0 83 19" fill="none" xmlns="http://www.w3.org/2000/svg">
<path fill-rule="evenodd" clip-rule="evenodd" d="M16.5122 18.9998H17.6616C17.9279 18.9998 18.1522 18.7766 18.1662 18.5115V6.05426C18.1662 4.82667 17.171 3.83623 15.9375 3.83623H14.4657C14.1994 3.83623 13.9751 3.61303 13.9751 3.34798V2.21803C13.9751 0.990441 12.9799 0 11.7464 0H2.22873C0.995216 0 0 0.990441 0 2.21803V14.7311C0 15.9447 0.995216 16.9352 2.22873 16.9491H13.2602C13.3583 16.9491 13.4565 16.977 13.5406 17.0328L16.2318 18.9161C16.316 18.9719 16.4141 18.9998 16.5122 18.9998ZM13.8349 15.1775H2.25676C1.97642 15.1775 1.76616 14.9682 1.76616 14.6892V2.24593C1.76616 1.98089 1.99043 1.75769 2.25676 1.75769H11.7183C11.9847 1.75769 12.2089 1.98089 12.2089 2.24593V3.34798C12.2089 3.61303 11.9847 3.83623 11.7183 3.83623H4.66771C4.40139 3.83623 4.17711 4.05941 4.17711 4.32446V12.6246C4.17711 12.8897 4.40139 13.1129 4.66771 13.1129H13.4705C13.7368 13.1129 13.9611 12.8897 13.9611 12.6246V6.08216C13.9611 5.81711 14.1853 5.59391 14.4517 5.59391H15.8954C16.1618 5.59391 16.386 5.81711 16.386 6.08216V16.2656C16.386 16.5167 16.1057 16.6562 15.9094 16.5167L14.1153 15.2612C14.0312 15.2054 13.933 15.1775 13.8349 15.1775ZM11.9566 11.3413H6.18157C6.05541 11.3413 5.94326 11.2436 5.94326 11.1041V5.83105C5.94326 5.7055 6.04138 5.59391 6.18157 5.59391H11.9566C12.0828 5.59391 12.1949 5.69156 12.1949 5.83105V11.1041C12.1949 11.2297 12.0968 11.3413 11.9566 11.3413ZM62.8141 2.65251C63.5502 2.65251 64.1468 2.05872 64.1468 1.32625C64.1468 0.593784 63.5502 0 62.8141 0C62.0781 0 61.4815 0.593784 61.4815 1.32625C61.4815 2.05872 62.0781 2.65251 62.8141 2.65251ZM47.6115 4.59144V3.85462H45.4646V13.0402H47.6115V6.76501L50.1165 5.73348V3.58445H50.0919L47.6115 4.59144ZM39.2931 3.84634C37.8987 3.84634 36.7634 4.30072 35.8996 5.22172C35.5049 5.65153 35.1965 6.14273 34.9743 6.71989C34.7646 7.28479 34.6534 7.88652 34.6534 8.51279C34.6534 9.80221 35.0237 10.8706 35.7765 11.6934C36.6031 12.6021 37.7384 13.0442 39.1821 13.0442C40.5887 13.0442 41.7116 12.5898 42.5631 11.6688C43.365 10.7969 43.7722 9.70396 43.7722 8.37772C43.7722 7.05147 43.3775 5.98309 42.6 5.14804C41.7731 4.27615 40.675 3.84634 39.2931 3.84634ZM40.9712 10.3794C40.564 10.8828 39.9965 11.1407 39.2806 11.1407C38.5156 11.1407 37.8865 10.8828 37.4175 10.3671C37.1953 10.1338 37.0227 9.83906 36.8993 9.5075C36.7759 9.17591 36.714 8.83206 36.714 8.46368C36.714 7.72688 36.9115 7.11287 37.3187 6.5971C37.7631 6.04448 38.3675 5.76206 39.145 5.76206C39.91 5.76206 40.5147 6.01994 40.9465 6.54796C41.3537 7.03919 41.5634 7.67774 41.5634 8.47596C41.5759 9.24961 41.3784 9.88817 40.9712 10.3794ZM61.7266 3.85614H63.8613V13.0539H61.7266V3.85614ZM29.1518 3.84634C27.9302 3.84634 26.9308 4.20247 26.1533 4.91473C25.4253 5.59013 25.0551 6.43746 25.0551 7.45671C25.0551 8.36543 25.3759 9.11452 26.0177 9.71624C25.4623 10.1583 25.1908 10.6864 25.1908 11.3127C25.1908 11.6934 25.2402 12.0249 25.3266 12.3073C25.4129 12.6021 25.5857 12.8477 25.8572 13.0687C24.8947 13.5968 24.4258 14.4564 24.4628 15.6353C24.4875 16.6545 24.9317 17.465 25.7955 18.079C26.6592 18.693 27.8067 19 29.2133 19C30.6202 19 31.669 18.7298 32.3846 18.1895C33.1002 17.6492 33.4581 16.8755 33.4581 15.8563C33.4581 14.8493 33.1743 14.0634 32.6068 13.5108C32.2983 13.2161 31.9033 12.9827 31.4221 12.774C30.9286 12.5775 30.2624 12.4056 29.3986 12.2705C28.5349 12.1354 27.9177 11.9881 27.5477 11.8039C27.3749 11.7302 27.2639 11.6442 27.2145 11.5583C27.1652 11.4723 27.1405 11.3495 27.1405 11.1898C27.1405 11.0302 27.2514 10.8092 27.4611 10.5267C27.9424 10.6864 28.473 10.7723 29.0408 10.7723C30.2005 10.7723 31.1508 10.4285 31.9034 9.72853C32.2365 9.40925 32.4958 9.02855 32.6808 8.59875C32.8659 8.16894 32.9524 7.69003 32.9524 7.16198C32.9524 6.63393 32.829 6.13044 32.5821 5.66381C32.5821 5.66381 32.5821 5.65153 32.5696 5.65153H33.4705V3.84634H29.1518ZM27.6586 13.781L28.103 13.8546C29.3492 14.0388 30.2377 14.2844 30.7436 14.616C31.2002 14.8985 31.4221 15.2791 31.4221 15.7458C31.4221 16.7282 30.7189 17.2071 29.3121 17.2071C28.4855 17.2071 27.8192 17.0352 27.3008 16.7036C27.0664 16.5563 26.8814 16.3721 26.758 16.1633C26.6221 15.9545 26.5605 15.7212 26.5605 15.4388C26.5605 15.1563 26.6468 14.8616 26.8196 14.5546C27.0048 14.2353 27.2886 13.9897 27.6586 13.781ZM30.3486 8.51279C30.003 8.81981 29.5958 8.97945 29.1395 8.97945C28.5224 8.97945 28.0289 8.80752 27.6464 8.46368C27.4736 8.3163 27.3502 8.13212 27.2514 7.94791C27.1652 7.75142 27.1158 7.55496 27.1158 7.34618C27.1158 7.13741 27.1527 6.92866 27.2392 6.71989C27.5105 6.01994 28.1152 5.67609 29.0655 5.67609C29.633 5.67609 30.0896 5.82345 30.4105 6.11818C30.7311 6.41289 30.904 6.80585 30.904 7.28479C30.8915 7.75142 30.7065 8.16894 30.3486 8.51279ZM73.288 5.84802C73.4486 6.26554 73.5349 6.75674 73.5349 7.28479V13.0196H71.4373V12.5898C70.808 12.8722 70.228 13.0196 69.6973 13.0196C69.0311 13.0196 68.4758 12.9582 68.007 12.8354C67.5379 12.7126 67.1432 12.5284 66.8223 12.2951C66.1683 11.8039 65.8351 11.1039 65.8351 10.1952C65.8351 9.38468 66.2301 8.69699 67.0445 8.15666C67.9205 7.56721 69.1173 7.27251 70.6229 7.27251L70.9683 7.28479C71.0039 7.28479 71.0395 7.28761 71.0764 7.29056C71.1164 7.29376 71.158 7.29707 71.2027 7.29707C71.2443 7.30294 71.2827 7.30602 71.3199 7.30897C71.3601 7.31215 71.3986 7.31523 71.4373 7.32161C71.3879 6.41289 70.993 5.87256 70.2526 5.7252C70.0183 5.67609 69.7467 5.65153 69.4752 5.65153C69.1914 5.65153 68.9201 5.67609 68.6608 5.7252C68.3895 5.77434 68.1302 5.84802 67.8836 5.92169C67.3405 6.09362 66.9333 6.30236 66.6989 6.52342L66.6742 6.51114L66.4151 4.63228C67.4145 4.10423 68.5251 3.84634 69.722 3.84634C71.5852 3.84634 72.7699 4.50949 73.288 5.84802ZM71.4373 10.846V9.66713V8.86892C71.2767 8.84435 71.1164 8.83206 70.9561 8.83206H70.6105C69.352 8.83206 68.5498 9.11452 68.2042 9.66713C68.1057 9.82677 68.0564 9.9987 68.0564 10.1829C68.0564 10.3671 68.0933 10.5267 68.1548 10.6618C68.2289 10.7969 68.3401 10.9197 68.4882 11.0057C68.7842 11.1776 69.2286 11.2635 69.8086 11.2635C70.3883 11.2635 70.9314 11.1162 71.4373 10.846ZM81.4212 7.91106C81.779 8.08298 82.0752 8.29176 82.2974 8.53736C82.7046 8.97945 82.9143 9.56889 82.9143 10.3303C82.9143 11.1284 82.5934 11.7793 81.9518 12.2828C81.2855 12.8108 80.3477 13.0687 79.1386 13.0687C77.6824 13.0687 76.5474 12.8231 75.7452 12.3442V10.0847C75.7452 10.0724 75.7946 10.1215 75.8808 10.2197C75.9674 10.318 76.1402 10.4285 76.3746 10.5759C76.6089 10.7232 76.8927 10.846 77.2011 10.9565C77.8799 11.1898 78.5833 11.3004 79.3236 11.3004C80.3108 11.3004 80.8043 10.9688 80.8043 10.318C80.8043 10.1092 80.7055 9.94956 80.5205 9.85131C80.1874 9.67939 79.6937 9.54432 79.0399 9.45836C78.3858 9.36012 77.8552 9.23733 77.4358 9.06541C77.0161 8.89348 76.6705 8.68471 76.4115 8.45139C75.9302 7.99702 75.6836 7.40758 75.6836 6.68306C75.6836 5.79888 76.0289 5.09893 76.7077 4.59545C77.3864 4.09194 78.324 3.84634 79.5211 3.84634C80.7055 3.84634 81.7174 4.1779 82.5565 4.85331C82.5196 5.00069 82.4824 5.14804 82.4331 5.28311C82.2974 5.66381 82.1987 5.93398 82.1371 6.09362L81.9396 6.5971C81.9271 6.64621 81.9149 6.67078 81.9149 6.67078C81.9024 6.67078 81.8531 6.60938 81.779 6.48657C81.4212 6.06905 80.8537 5.79888 80.1009 5.66381C79.8665 5.61467 79.6321 5.59013 79.3852 5.59013C78.3487 5.59013 77.8305 5.89713 77.8305 6.52342C77.8305 6.73217 77.9293 6.90409 78.1514 7.01462C78.5586 7.23565 79.1139 7.39529 79.8171 7.49354C80.5205 7.60407 81.0512 7.73914 81.4212 7.91106ZM55.4456 3.84634C54.2241 3.84634 53.2244 4.20247 52.4472 4.91473C51.7191 5.59013 51.349 6.43746 51.349 7.45671C51.349 8.36543 51.6697 9.11452 52.3115 9.71624C51.7562 10.1583 51.4847 10.6864 51.4847 11.3127C51.4847 11.6934 51.534 12.0249 51.6203 12.3073C51.7068 12.6021 51.8796 12.8477 52.1509 13.0687C51.1884 13.5968 50.7197 14.4564 50.7566 15.6353C50.7812 16.6545 51.2256 17.465 52.0893 18.079C52.9531 18.693 54.1006 19 55.5072 19C56.9141 19 57.9628 18.7298 58.6785 18.1895C59.3941 17.6492 59.7519 16.8755 59.7519 15.8563C59.7519 14.8493 59.4682 14.0634 58.9007 13.5108C58.5922 13.2161 58.1972 12.9827 57.716 12.774C57.2225 12.5775 56.5562 12.4056 55.6925 12.2705C54.8287 12.1354 54.2116 11.9881 53.8415 11.8039C53.6687 11.7302 53.5578 11.6442 53.5084 11.5583C53.459 11.4723 53.4344 11.3495 53.4344 11.1898C53.4344 11.0302 53.5453 10.8092 53.755 10.5267C54.2363 10.6864 54.7669 10.7723 55.3344 10.7723C56.4944 10.7723 57.4444 10.4285 58.1972 9.72853C58.5304 9.40925 58.7894 9.02855 58.9747 8.59875C59.1597 8.16894 59.246 7.69003 59.246 7.16198C59.246 6.63393 59.1228 6.13044 58.876 5.66381C58.876 5.66381 58.876 5.65153 58.8635 5.65153H59.7644V3.84634H55.4456ZM53.9525 13.781L54.3969 13.8546C55.6431 14.0388 56.5316 14.2844 57.0372 14.616C57.4938 14.8985 57.716 15.2791 57.716 15.7458C57.716 16.7282 57.0128 17.2071 55.606 17.2071C54.7794 17.2071 54.1128 17.0352 53.5947 16.7036C53.3603 16.5563 53.1753 16.3721 53.0519 16.1633C52.9159 15.9545 52.8544 15.7212 52.8544 15.4388C52.8544 15.1563 52.9406 14.8616 53.1134 14.5546C53.2985 14.2353 53.5825 13.9897 53.9525 13.781ZM56.6425 8.51279C56.2969 8.81981 55.8897 8.97945 55.4332 8.97945C54.8163 8.97945 54.3228 8.80752 53.9403 8.46368C53.7675 8.3163 53.6441 8.13212 53.5453 7.94791C53.459 7.75142 53.4097 7.55496 53.4097 7.34618C53.4097 7.13741 53.4466 6.92866 53.5331 6.71989C53.8044 6.01994 54.4091 5.67609 55.3591 5.67609C55.9269 5.67609 56.3834 5.82345 56.7041 6.11818C57.025 6.41289 57.1978 6.80585 57.1978 7.28479C57.1854 7.75142 57.0003 8.16894 56.6425 8.51279Z" fill="#454B5E"/>
</svg>
