<svg width="160" height="46" viewBox="0 0 160 46" fill="none" xmlns="http://www.w3.org/2000/svg">
<path d="M67.1316 28.9353C65.1077 28.9067 63.1351 28.2938 61.4514 27.1704L62.481 25.6084C64.1459 26.6703 65.6726 27.1851 67.3905 27.1851C69.3966 27.1851 70.3321 26.4144 70.3321 25.5054C70.3321 22.8962 61.8368 24.4582 61.8368 20.3047C61.8368 18.2809 63.8635 16.6836 67.1316 16.6836C69.329 16.6836 71.2322 17.5072 72.3471 18.625L71.0792 19.9282C69.9685 18.9755 68.5594 18.4416 67.0963 18.4191C65.1931 18.4191 63.9076 19.1045 63.9076 20.0811C63.9076 22.5021 72.4176 21.2166 72.4176 25.2995C72.4176 27.4763 70.2379 28.9353 67.1316 28.9353ZM87.2256 28.5264L85.9195 25.676H80.154L78.8862 28.5264H76.7388L82.1278 17.0984H83.9457L89.4171 28.5264H87.2256ZM82.9868 19.3781L80.8424 24.114H85.1812L82.9868 19.3781ZM94.5325 28.5264V17.0954H96.5916V26.7615H104.366V28.5264H94.5325ZM114.832 28.9353C112.809 28.9063 110.838 28.2934 109.155 27.1704L110.185 25.6084C111.85 26.6703 113.376 27.1851 115.091 27.1851C117.1 27.1851 118.033 26.4144 118.033 25.5054C118.033 22.8962 109.54 24.4582 109.54 20.3047C109.54 18.2809 111.564 16.6836 114.835 16.6836C117.033 16.6836 118.954 17.5072 120.054 18.625L118.783 19.9282C117.673 18.9755 116.265 18.4416 114.803 18.4191C112.897 18.4191 111.611 19.1045 111.611 20.0811C111.611 22.5021 120.121 21.2166 120.121 25.2995C120.118 27.4763 117.95 28.9353 114.832 28.9353ZM125.866 28.5264V17.0954H127.925V28.5264H125.866ZM136.403 18.8457V22.1226H141.721V23.8022H136.403V28.5264H134.344V17.0954H143.507V18.8604L136.403 18.8457ZM154.932 23.9405V28.5264H152.873V23.9228L147.725 17.0954H150.129L153.991 22.3903L157.644 17.0954H159.998L154.932 23.9405ZM24.4639 22.8197L24.4609 22.8227L24.4639 22.8197Z" fill="#38C0F0"/>
<path opacity="0.4" d="M18.3513 12.2362C18.3517 10.09 18.9168 7.98168 19.9897 6.12292C21.0626 4.26416 22.6057 2.72035 24.4639 1.64647C22.6047 0.573084 20.4958 0.00793307 18.349 0.00781252C16.2022 0.00769197 14.0932 0.572606 12.2339 1.64579C10.3747 2.71897 8.83058 4.26261 7.75688 6.12159C6.68318 7.98057 6.11767 10.0894 6.11719 12.2362C7.97661 11.1613 10.0865 10.5953 12.2342 10.5953C14.382 10.5953 16.4918 11.1613 18.3513 12.2362ZM47.2935 16.7045C46.2212 14.8431 44.6756 13.2985 42.8135 12.2274C42.8142 14.3741 42.2493 16.4832 41.1757 18.3423C40.1021 20.2013 38.5577 21.7447 36.6979 22.8171C38.5579 23.8895 40.1025 25.4329 41.1766 27.2918C42.2507 29.1508 42.8163 31.2598 42.8164 33.4068C45.6236 31.7843 47.672 29.1139 48.5114 25.9821C49.3509 22.8504 48.9129 19.5135 47.2935 16.7045Z" fill="#38C0F0"/>
<path opacity="0.4" d="M28.9439 6.11203C30.0217 7.97095 30.589 10.0817 30.5882 12.2305C32.4476 11.157 34.5568 10.5919 36.7038 10.5919C38.8508 10.5919 40.96 11.157 42.8193 12.2305C42.8198 10.0834 42.2548 7.97402 41.1813 6.11451C40.1078 4.25501 38.5637 2.71093 36.7041 1.63758C34.8445 0.564225 32.7351 -0.000567494 30.5879 4.27878e-07C28.4408 0.00056835 26.3317 0.566477 24.4727 1.64081C26.3307 2.71154 27.8731 4.25394 28.9439 6.11203Z" fill="#38C0F0"/>
<path opacity="0.5" d="M18.3516 12.2362C20.21 13.3096 21.7531 14.8533 22.8256 16.7123C23.8981 18.5712 24.4622 20.6798 24.4612 22.8259C24.4613 20.6771 25.0277 18.5663 26.1034 16.7061C27.1791 14.8459 28.7262 13.3022 30.5886 12.2303C30.5899 10.0834 30.0253 7.97412 28.9516 6.11497C27.8779 4.25582 26.3332 2.71252 24.473 1.64062C22.6123 2.71388 21.0669 4.25813 19.9924 6.1181C18.9178 7.97806 18.3519 10.0882 18.3516 12.2362Z" fill="#38C0F0"/>
<path opacity="0.4" d="M18.3516 12.2362C20.21 13.3096 21.7531 14.8533 22.8256 16.7123C23.8981 18.5712 24.4622 20.6798 24.4612 22.8259C24.4613 20.6771 25.0277 18.5663 26.1034 16.7061C27.1791 14.8459 28.7262 13.3022 30.5886 12.2303C30.5899 10.0834 30.0253 7.97412 28.9516 6.11497C27.8779 4.25582 26.3332 2.71252 24.473 1.64062C22.6123 2.71388 21.0669 4.25813 19.9924 6.1181C18.9178 7.97806 18.3519 10.0882 18.3516 12.2362Z" fill="#38C0F0"/>
<path opacity="0.5" d="M30.5892 12.2275C30.5908 14.3741 30.0266 16.4833 28.9535 18.3424C27.8803 20.2015 26.3362 21.745 24.4766 22.8172C26.3354 21.7437 28.4441 21.1785 30.5907 21.1785C32.7372 21.1785 34.8459 21.7437 36.7047 22.8172C38.5645 21.7449 40.1089 20.2015 41.1825 18.3424C42.2561 16.4834 42.821 14.3743 42.8203 12.2275C40.9609 11.154 38.8518 10.5889 36.7047 10.5889C34.5577 10.5889 32.4485 11.154 30.5892 12.2275Z" fill="#38C0F0"/>
<path opacity="0.4" d="M30.5892 12.2275C30.5908 14.3741 30.0266 16.4833 28.9535 18.3424C27.8803 20.2015 26.3362 21.745 24.4766 22.8172C26.3354 21.7437 28.4441 21.1785 30.5907 21.1785C32.7372 21.1785 34.8459 21.7437 36.7047 22.8172C38.5645 21.7449 40.1089 20.2015 41.1825 18.3424C42.2561 16.4834 42.821 14.3743 42.8203 12.2275C40.9609 11.154 38.8518 10.5889 36.7047 10.5889C34.5577 10.5889 32.4485 11.154 30.5892 12.2275Z" fill="#38C0F0"/>
<path opacity="0.5" d="M30.5892 12.2305C28.7304 13.3037 27.1869 14.8473 26.1138 16.7062C25.0408 18.5652 24.4762 20.6738 24.4766 22.8202C26.3362 21.7479 27.8803 20.2045 28.9535 18.3453C30.0266 16.4862 30.5908 14.3771 30.5892 12.2305Z" fill="#38C0F0"/>
<path opacity="0.5" d="M30.5892 12.2305C28.7304 13.3037 27.1869 14.8473 26.1138 16.7062C25.0408 18.5652 24.4762 20.6738 24.4766 22.8202C26.3362 21.7479 27.8803 20.2045 28.9535 18.3453C30.0266 16.4862 30.5908 14.3771 30.5892 12.2305Z" fill="#38C0F0"/>
<path d="M30.5892 12.2305C28.7304 13.3037 27.1869 14.8473 26.1138 16.7062C25.0408 18.5652 24.4762 20.6738 24.4766 22.8202C26.3362 21.7479 27.8803 20.2045 28.9535 18.3453C30.0266 16.4862 30.5908 14.3771 30.5892 12.2305Z" fill="#38C0F0"/>
<path opacity="0.4" d="M30.5862 33.4102C30.5875 35.5564 30.0236 37.6651 28.951 39.5241C27.8785 41.3831 26.3352 42.9268 24.4766 43.9999C26.3356 45.0742 28.4447 45.6401 30.5918 45.6407C32.739 45.6413 34.8484 45.0765 36.708 44.0031C38.5676 42.9298 40.1117 41.3857 41.1852 39.5262C42.2587 37.6667 42.8237 35.5573 42.8232 33.4102C40.9635 34.4856 38.8531 35.0519 36.7047 35.0519C34.5564 35.0519 32.446 34.4856 30.5862 33.4102Z" fill="#38C0F0"/>
<path opacity="0.5" d="M36.6969 22.8232C34.8383 23.8974 32.7295 24.4629 30.5828 24.4629C28.4362 24.4629 26.3274 23.8974 24.4688 22.8232C26.3282 23.8954 27.8721 25.4389 28.9448 27.2981C30.0174 29.1574 30.5809 31.2665 30.5784 33.413C32.4382 34.4884 34.5486 35.0547 36.6969 35.0547C38.8453 35.0547 40.9557 34.4884 42.8154 33.413C42.8153 31.266 42.2497 29.157 41.1756 27.298C40.1015 25.439 38.5568 23.8957 36.6969 22.8232Z" fill="#38C0F0"/>
<path opacity="0.4" d="M36.6969 22.8232C34.8383 23.8974 32.7295 24.4629 30.5828 24.4629C28.4362 24.4629 26.3274 23.8974 24.4688 22.8232C26.3282 23.8954 27.8721 25.4389 28.9448 27.2981C30.0174 29.1574 30.5809 31.2665 30.5784 33.413C32.4382 34.4884 34.5486 35.0547 36.6969 35.0547C38.8453 35.0547 40.9557 34.4884 42.8154 33.413C42.8153 31.266 42.2497 29.157 41.1756 27.298C40.1015 25.439 38.5568 23.8957 36.6969 22.8232Z" fill="#38C0F0"/>
<path opacity="0.5" d="M24.4688 22.8204C26.3274 23.8945 28.4362 24.46 30.5828 24.46C32.7295 24.46 34.8383 23.8945 36.6969 22.8204C34.8381 21.7468 32.7294 21.1816 30.5828 21.1816C28.4363 21.1816 26.3276 21.7468 24.4688 22.8204Z" fill="#38C0F0"/>
<path opacity="0.5" d="M24.4688 22.8204C26.3274 23.8945 28.4362 24.46 30.5828 24.46C32.7295 24.46 34.8383 23.8945 36.6969 22.8204C34.8381 21.7468 32.7294 21.1816 30.5828 21.1816C28.4363 21.1816 26.3276 21.7468 24.4688 22.8204Z" fill="#38C0F0"/>
<path d="M24.4688 22.8204C26.3274 23.8945 28.4362 24.46 30.5828 24.46C32.7295 24.46 34.8383 23.8945 36.6969 22.8204C34.8381 21.7468 32.7294 21.1816 30.5828 21.1816C28.4363 21.1816 26.3276 21.7468 24.4688 22.8204Z" fill="#38C0F0"/>
<path opacity="0.4" d="M19.9995 39.5316C18.9234 37.6734 18.3591 35.5633 18.3639 33.416C16.5048 34.4901 14.3955 35.0556 12.2484 35.0556C10.1012 35.0556 7.99198 34.4901 6.13281 33.416C6.133 35.5632 6.69844 37.6726 7.77229 39.5319C8.84614 41.3913 10.3906 42.9353 12.2503 44.0085C14.11 45.0818 16.2195 45.6466 18.3667 45.6461C20.514 45.6456 22.6232 45.0799 24.4824 44.0057C22.6184 42.9375 21.0713 41.3935 19.9995 39.5316Z" fill="#38C0F0"/>
<path opacity="0.5" d="M30.5865 33.41C28.7281 32.3367 27.185 30.7929 26.1125 28.934C25.04 27.075 24.4759 24.9665 24.4769 22.8203C24.4782 24.9665 23.9142 27.0752 22.8416 28.9342C21.7691 30.7932 20.2259 32.3369 18.3672 33.41C18.3659 35.5569 18.9305 37.6663 20.0042 39.5254C21.0778 41.3846 22.6226 42.9278 24.4828 43.9998C26.3403 42.9259 27.8824 41.3819 28.9539 39.5229C30.0253 37.664 30.5885 35.5557 30.5865 33.41Z" fill="#38C0F0"/>
<path opacity="0.4" d="M30.5865 33.41C28.7281 32.3367 27.185 30.7929 26.1125 28.934C25.04 27.075 24.4759 24.9665 24.4769 22.8203C24.4782 24.9665 23.9142 27.0752 22.8416 28.9342C21.7691 30.7932 20.2259 32.3369 18.3672 33.41C18.3659 35.5569 18.9305 37.6663 20.0042 39.5254C21.0778 41.3846 22.6226 42.9278 24.4828 43.9998C26.3403 42.9259 27.8824 41.3819 28.9539 39.5229C30.0253 37.664 30.5885 35.5557 30.5865 33.41Z" fill="#38C0F0"/>
<path opacity="0.5" d="M30.5862 33.41C30.5887 31.2636 30.0253 29.1544 28.9526 27.2952C27.8799 25.436 26.336 23.8925 24.4766 22.8203C24.4756 24.9665 25.0397 27.075 26.1122 28.934C27.1847 30.7929 28.7278 32.3367 30.5862 33.41Z" fill="#38C0F0"/>
<path opacity="0.5" d="M30.5862 33.41C30.5887 31.2636 30.0253 29.1544 28.9526 27.2952C27.8799 25.436 26.336 23.8925 24.4766 22.8203C24.4756 24.9665 25.0397 27.075 26.1122 28.934C27.1847 30.7929 28.7278 32.3367 30.5862 33.41Z" fill="#38C0F0"/>
<path d="M30.5862 33.41C30.5887 31.2636 30.0253 29.1544 28.9526 27.2952C27.8799 25.436 26.336 23.8925 24.4766 22.8203C24.4756 24.9665 25.0397 27.075 26.1122 28.934C27.1847 30.7929 28.7278 32.3367 30.5862 33.41Z" fill="#38C0F0"/>
<path opacity="0.4" d="M12.2293 22.8231C10.3703 21.7498 8.82657 20.2062 7.75309 18.3474C6.67961 16.4886 6.11423 14.3799 6.11375 12.2334C4.25492 13.3067 2.71135 14.8503 1.63817 16.7092C0.564983 18.5681 0 20.6767 0 22.8231C0 24.9695 0.564983 27.0782 1.63817 28.937C2.71135 30.7959 4.25492 32.3396 6.11375 33.4128C6.11423 31.2663 6.67961 29.1577 7.75309 27.2988C8.82657 25.44 10.3703 23.8964 12.2293 22.8231Z" fill="#38C0F0"/>
<path opacity="0.5" d="M24.4609 22.8234V22.8263V22.8234ZM12.2327 22.8234C14.0914 21.7493 16.2002 21.1837 18.3468 21.1837C20.4935 21.1837 22.6023 21.7493 24.4609 22.8234C22.6031 21.7494 21.0605 20.2054 19.9881 18.3466C18.9156 16.4878 18.3511 14.3796 18.3513 12.2337C16.4918 11.1587 14.382 10.5928 12.2342 10.5928C10.0865 10.5928 7.97661 11.1587 6.11719 12.2337C6.11767 14.3802 6.68305 16.4888 7.75653 18.3477C8.83002 20.2065 10.3738 21.7501 12.2327 22.8234Z" fill="#38C0F0"/>
<path opacity="0.4" d="M12.2327 22.8234C14.0914 21.7493 16.2002 21.1837 18.3468 21.1837C20.4935 21.1837 22.6023 21.7493 24.4609 22.8234C22.6031 21.7494 21.0605 20.2054 19.9881 18.3466C18.9156 16.4878 18.3511 14.3796 18.3513 12.2337C16.4918 11.1587 14.382 10.5928 12.2342 10.5928C10.0865 10.5928 7.97661 11.1587 6.11719 12.2337C6.11767 14.3802 6.68305 16.4888 7.75653 18.3477C8.83002 20.2065 10.3738 21.7501 12.2327 22.8234Z" fill="#38C0F0"/>
<path opacity="0.5" d="M18.3516 12.2363C18.3514 14.3823 18.9159 16.4905 19.9884 18.3493C21.0608 20.2081 22.6034 21.752 24.4612 22.826C24.4622 20.6799 23.8981 18.5713 22.8256 16.7124C21.7531 14.8534 20.21 13.3097 18.3516 12.2363Z" fill="#38C0F0"/>
<path opacity="0.5" d="M18.3516 12.2363C18.3514 14.3823 18.9159 16.4905 19.9884 18.3493C21.0608 20.2081 22.6034 21.752 24.4612 22.826C24.4622 20.6799 23.8981 18.5713 22.8256 16.7124C21.7531 14.8534 20.21 13.3097 18.3516 12.2363Z" fill="#38C0F0"/>
<path d="M18.3516 12.2363C18.3514 14.3823 18.9159 16.4905 19.9884 18.3493C21.0608 20.2081 22.6034 21.752 24.4612 22.826C24.4622 20.6799 23.8981 18.5713 22.8256 16.7124C21.7531 14.8534 20.21 13.3097 18.3516 12.2363Z" fill="#38C0F0"/>
<path opacity="0.5" d="M18.3434 33.4188C18.3418 31.2726 18.9057 29.1637 19.9783 27.3047C21.0508 25.4456 22.5942 23.902 24.4531 22.8291C22.594 23.9018 20.4854 24.4665 18.339 24.4665C16.1927 24.4665 14.0841 23.9018 12.2249 22.8291C10.366 23.9024 8.8222 25.446 7.74872 27.3048C6.67524 29.1637 6.10986 31.2723 6.10938 33.4188C7.9689 34.4934 10.0787 35.0592 12.2264 35.0592C14.3741 35.0592 16.4839 34.4934 18.3434 33.4188Z" fill="#38C0F0"/>
<path opacity="0.4" d="M18.3434 33.4188C18.3418 31.2726 18.9057 29.1637 19.9783 27.3047C21.0508 25.4456 22.5942 23.902 24.4531 22.8291C22.594 23.9018 20.4854 24.4665 18.339 24.4665C16.1927 24.4665 14.0841 23.9018 12.2249 22.8291C10.366 23.9024 8.8222 25.446 7.74872 27.3048C6.67524 29.1637 6.10986 31.2723 6.10938 33.4188C7.9689 34.4934 10.0787 35.0592 12.2264 35.0592C14.3741 35.0592 16.4839 34.4934 18.3434 33.4188Z" fill="#38C0F0"/>
<path opacity="0.5" d="M12.2305 22.8232C14.0896 23.8959 16.1982 24.4606 18.3446 24.4606C20.4909 24.4606 22.5995 23.8959 24.4587 22.8232C22.6 21.7491 20.4912 21.1836 18.3446 21.1836C16.1979 21.1836 14.0891 21.7491 12.2305 22.8232Z" fill="#38C0F0"/>
<path opacity="0.5" d="M12.2305 22.8232C14.0896 23.8959 16.1982 24.4606 18.3446 24.4606C20.4909 24.4606 22.5995 23.8959 24.4587 22.8232C22.6 21.7491 20.4912 21.1836 18.3446 21.1836C16.1979 21.1836 14.0891 21.7491 12.2305 22.8232Z" fill="#38C0F0"/>
<path d="M12.2305 22.8232C14.0896 23.8959 16.1982 24.4606 18.3446 24.4606C20.4909 24.4606 22.5995 23.8959 24.4587 22.8232C22.6 21.7491 20.4912 21.1836 18.3446 21.1836C16.1979 21.1836 14.0891 21.7491 12.2305 22.8232Z" fill="#38C0F0"/>
<path opacity="0.5" d="M18.3516 33.4159C20.2102 32.3428 21.7535 30.7991 22.826 28.9401C23.8986 27.0811 24.4626 24.9724 24.4612 22.8262C22.6024 23.899 21.059 25.4427 19.9864 27.3018C18.9138 29.1608 18.35 31.2696 18.3516 33.4159Z" fill="#38C0F0"/>
<path opacity="0.5" d="M18.3516 33.4159C20.2102 32.3428 21.7535 30.7991 22.826 28.9401C23.8986 27.0811 24.4626 24.9724 24.4612 22.8262C22.6024 23.899 21.059 25.4427 19.9864 27.3018C18.9138 29.1608 18.35 31.2696 18.3516 33.4159Z" fill="#38C0F0"/>
<path d="M18.3516 33.4159C20.2102 32.3428 21.7535 30.7991 22.826 28.9401C23.8986 27.0811 24.4626 24.9724 24.4612 22.8262C22.6024 23.899 21.059 25.4427 19.9864 27.3018C18.9138 29.1608 18.35 31.2696 18.3516 33.4159Z" fill="#38C0F0"/>
</svg>
