<svg width="194" height="36" viewBox="0 0 194 36" fill="none" xmlns="http://www.w3.org/2000/svg">
<g clip-path="url(#clip0_1332_10473)">
<path d="M47.5359 18.1918C46.8676 17.9377 46.7136 18.2018 46.898 18.803C46.9471 18.969 47.0012 19.1185 47.052 19.2779C47.2922 20.0236 47.5376 20.6547 46.4446 21.1048C45.7679 21.3804 45.328 22.161 44.7646 22.6991C44.363 23.1099 43.8662 23.4193 43.3164 23.6009C43.5144 22.8186 43.8476 22.1593 43.9424 21.4419C44.0236 20.834 43.8561 20.5584 43.1811 20.6397C38.7823 21.1695 36.8993 24.3847 37.9059 28.5449C38.0277 29.0547 38.3915 29.0597 38.7383 28.8189C39.1163 28.5269 39.4767 28.2136 39.8177 27.8806C40.0072 28.4785 39.8177 28.9817 39.6485 29.4616C39.4556 30.003 39.0851 30.4929 39.4793 31.0941C39.5758 31.237 39.4675 31.4263 39.3287 31.5326C38.4456 32.1969 37.664 33.0173 36.5254 33.3129C35.94 33.464 35.5103 33.3611 35.1042 32.901C33.7507 31.3781 32.1198 30.2438 30.0575 29.7954C27.2372 29.1743 24.6436 29.8967 22.1464 31.0858C21.3699 31.4545 20.6238 31.893 19.7423 32.3663C19.9183 31.4817 20.2947 30.6474 20.8437 29.925C20.9706 29.7589 21.2024 29.5762 21.0856 29.3504C20.9689 29.1245 20.6796 29.2258 20.4715 29.2358C19.1205 29.3227 17.8059 29.7027 16.6225 30.3485C16.1032 30.6175 15.9796 30.4647 15.983 29.9582C16.0045 27.2225 16.2307 24.4921 16.6598 21.789C16.8684 20.4803 17.1228 19.1833 17.4228 17.8979C17.4752 17.677 17.6241 17.3548 17.2841 17.2668C16.9914 17.192 16.9778 17.5408 16.8966 17.7185C15.5432 20.6464 14.6228 23.7221 13.8259 26.8343C13.0984 29.6764 12.4708 32.5401 11.9429 35.4254C11.8934 35.619 11.833 35.8097 11.7619 35.9967C11.2154 34.6083 11.0513 33.2415 10.7586 31.9096C9.75875 27.3541 9.12093 22.7605 9.34087 18.0855C9.40177 16.7901 9.54727 15.4981 9.67923 14.2044C9.73507 13.6497 9.69446 13.3856 8.97374 13.5699C6.83017 14.1163 4.91332 15.1211 3.02184 16.2089C2.27236 16.6407 1.54994 17.1206 0.795379 17.5458C0.582207 17.667 0.303053 17.9825 0.0628117 17.6936C-0.124983 17.4661 0.169398 17.2385 0.325047 17.0592C1.87477 15.2722 3.51078 13.5616 5.40057 12.1102C7.76915 10.2833 10.1733 8.51464 12.8751 7.1794C13.1526 7.04321 13.425 6.89707 13.7075 6.77417C13.9071 6.68781 14.1474 6.5234 14.3386 6.68781C14.5906 6.90371 14.3538 7.14618 14.2523 7.35211C12.9174 10.0691 12.1392 12.9405 11.7281 15.9199C11.6435 16.5311 11.7399 16.8217 12.4539 16.6589C13.0934 16.5128 13.1678 16.825 12.9919 17.3598C12.5621 18.6535 12.3591 19.9937 12.2052 21.3456C12.1849 21.5216 12.0833 21.7176 12.354 21.9534C12.5537 21.4137 12.7601 20.9188 12.9191 20.4106C13.4588 18.7221 14.1197 17.0733 14.8969 15.4765C14.9882 15.2872 15.2352 15.1095 15.0661 14.8819C14.8969 14.6544 14.6566 14.7972 14.4384 14.8288C13.4436 14.9733 13.3404 14.8703 13.6584 13.9652C14.7412 10.8779 16.1776 8.00312 18.7475 5.79765C19.7322 4.95233 20.8961 4.92742 22.0855 4.93406C22.6167 4.93406 22.4442 5.33264 22.412 5.59836C22.209 7.35543 21.9823 9.11084 21.7776 10.8679C21.4917 13.3258 21.2548 15.787 21.5627 18.3629C21.8317 15.8933 22.0703 13.5118 22.4577 11.1519C23.0482 7.63444 23.6183 4.11033 24.7975 0.720751C25.1088 -0.177713 25.2729 -0.205947 25.9446 0.464994C27.1999 1.7172 28.2387 3.12219 28.9121 4.75637C28.9737 4.95193 29.0967 5.12338 29.2635 5.24625C29.4303 5.36913 29.6324 5.43714 29.8409 5.44059C34.282 5.86242 37.9076 8.01641 41.2845 10.6802C41.6009 10.9294 42.0086 11.1419 41.6432 11.6767C41.4165 12.0088 41.8665 12.0869 42.0323 12.1666C44.4702 13.3391 46.4565 15.0746 48.326 16.9595C48.6559 17.2917 49.2379 17.6737 49.1279 18.0556C48.9384 18.7199 48.4511 19.3062 48.0654 19.914C48.0267 19.9507 47.9797 19.9779 47.9282 19.9932C47.8767 20.0085 47.8223 20.0115 47.7693 20.002C47.3768 19.9007 47.206 18.5073 47.5359 18.1918ZM34.7269 11.8677C35.4477 13.7809 37.4525 13.2544 38.696 14.1446C38.0057 12.2845 36.1735 12.4871 34.7269 11.8677Z" fill="#68718D"/>
<path d="M100.945 27.2945C99.3753 27.2596 97.0304 27.419 94.7008 27.1483C91.6385 26.7913 90.0702 25.3215 89.6726 22.3538C89.3296 19.6609 89.2729 16.9404 89.5034 14.236C89.7471 11.1902 91.7028 9.39329 94.9732 9.008C98.1995 8.62769 101.444 8.75557 104.683 8.78546C106.06 8.79875 107.442 8.73896 108.816 8.9615C112.721 9.59425 113.357 12.2465 113.215 14.9402C113.199 15.2441 113.061 15.2989 112.792 15.2989C111.184 15.2989 109.577 15.2873 107.972 15.2989C107.618 15.2989 107.574 15.1162 107.52 14.8488C107.339 13.952 106.715 13.5203 105.828 13.5203C103.179 13.4987 100.527 13.4472 97.8764 13.5385C95.9223 13.6066 95.3267 14.2759 95.1542 16.214C95.0112 17.6472 95.0316 19.0916 95.2151 20.5203C95.3961 21.819 95.9324 22.4434 97.2588 22.5265C100.101 22.6854 102.951 22.6914 105.794 22.5447C107.038 22.4899 107.616 21.9236 107.728 21.0501C107.787 20.5934 107.672 20.4157 107.161 20.424C105.244 20.4505 103.327 20.4123 101.409 20.4472C100.839 20.4588 100.673 20.2812 100.698 19.7464C100.737 18.9459 100.725 18.1404 100.698 17.34C100.681 16.8683 100.786 16.6591 101.345 16.6624C105.15 16.6856 108.956 16.6856 112.761 16.6624C113.245 16.6624 113.385 16.8002 113.374 17.2686C113.333 18.9011 113.36 20.5336 113.306 22.1644C113.206 25.1986 111.57 26.7946 108.296 27.0902C106.111 27.2895 103.913 27.3144 100.945 27.2945Z" fill="#68718D"/>
<path d="M160.796 20.0352C160.98 20.1249 161.097 20.193 161.222 20.2395C163.393 21.0566 163.828 21.6428 163.899 23.9197C163.926 24.8049 163.899 25.6901 163.929 26.5769C163.948 27.0286 163.777 27.1299 163.347 27.1216C161.853 27.0984 160.359 27.0918 158.867 27.1216C158.373 27.1333 158.246 26.9556 158.243 26.5105C158.243 25.7665 158.212 25.0158 158.141 24.2768C158.031 23.1525 157.634 22.6692 156.51 22.6476C153.413 22.5878 150.313 22.6177 147.214 22.5978C146.776 22.5978 146.799 22.8436 146.799 23.1325C146.799 24.2386 146.781 25.3446 146.811 26.454C146.826 26.9356 146.723 27.1416 146.17 27.1183C144.707 27.0801 143.24 27.0868 141.771 27.1183C141.292 27.1183 141.15 26.9821 141.15 26.5138C141.164 20.8462 141.164 15.1776 141.15 9.50777C141.15 9.11417 141.264 8.99128 141.673 8.99294C147.425 9.0112 153.169 9.00954 158.916 9.02947C159.423 9.04435 159.928 9.10326 160.424 9.20551C162.337 9.54929 163.378 10.5673 163.767 12.4639C164.056 13.8748 164.099 15.3235 163.895 16.7486C163.706 18.1171 163.036 19.1235 161.696 19.6466C161.413 19.7579 161.138 19.8874 160.796 20.0352ZM151.931 17.9028V17.8397C153.506 17.8397 155.079 17.8514 156.654 17.8397C157.233 17.8397 157.762 17.6836 158.074 17.1173C158.989 15.4566 158.163 13.7958 156.274 13.7477C153.294 13.663 150.312 13.7111 147.331 13.6879C146.928 13.6879 146.787 13.8141 146.796 14.211C146.816 15.2324 146.83 16.2554 146.796 17.2751C146.776 17.7932 146.95 17.9394 147.463 17.9211C148.948 17.8829 150.44 17.9028 151.931 17.9028Z" fill="#68718D"/>
<path d="M126.966 27.1017C123.838 27.1017 120.706 27.0818 117.578 27.1183C116.935 27.1183 116.788 26.9523 116.789 26.3361C116.813 20.8003 116.813 15.2645 116.789 9.72866C116.789 9.08429 116.981 8.97136 117.59 8.97468C123.82 8.99793 130.051 8.99793 136.283 8.97468C136.885 8.97468 137.129 9.07599 137.092 9.72866C137.038 10.669 137.038 11.6116 137.092 12.5519C137.119 13.1398 136.922 13.2843 136.332 13.281C132.019 13.2561 127.704 13.281 123.393 13.2461C122.616 13.2461 122.401 13.4454 122.433 14.1977C122.496 15.6492 122.452 15.6509 123.956 15.6509C127.819 15.6509 131.681 15.6642 135.543 15.6393C136.127 15.6393 136.339 15.7721 136.301 16.3683C136.249 17.1979 136.249 18.0299 136.301 18.8594C136.342 19.4723 136.163 19.6566 135.515 19.6516C131.541 19.6217 127.563 19.635 123.589 19.6367C122.19 19.6367 122.464 19.542 122.452 20.7079C122.432 22.8236 122.444 22.8236 124.562 22.8236C128.538 22.8236 132.513 22.8336 136.488 22.812C137.059 22.812 137.286 22.9283 137.251 23.5361C137.194 24.4764 137.194 25.4191 137.251 26.3594C137.293 27.012 137.044 27.125 136.437 27.1183C133.285 27.0918 130.125 27.1017 126.966 27.1017Z" fill="#68718D"/>
<path d="M194 27.1018C191.951 27.1018 190.036 27.0885 188.123 27.1118C187.715 27.1118 187.524 26.9623 187.353 26.6285C186.972 25.8895 186.536 25.1786 186.153 24.4396C185.984 24.0958 185.747 23.9796 185.358 23.9813C181.95 23.9945 178.54 23.9945 175.131 23.9813C174.965 23.9647 174.799 24.0016 174.656 24.0864C174.514 24.1713 174.404 24.2993 174.342 24.4512C173.967 25.1936 173.561 25.921 173.177 26.6584C173.043 26.9175 172.913 27.1134 172.559 27.1118C170.592 27.0968 168.626 27.1118 166.518 27.1118C167.364 25.5972 168.157 24.1772 168.952 22.7606C171.414 18.3845 173.886 14.0135 176.324 9.6241C176.593 9.13916 176.877 8.97973 177.427 8.98969C179.369 9.02623 181.318 9.01294 183.258 8.998C183.654 8.998 183.918 9.06111 184.137 9.44806C187.344 15.1876 190.564 20.9205 193.795 26.6467C193.853 26.7597 193.904 26.8876 194 27.1018ZM180.296 13.6614L176.912 19.6401H183.533L180.296 13.6614Z" fill="#68718D"/>
<path d="M68.7715 20.4106C68.7715 22.43 68.7563 24.4478 68.7834 26.4656C68.7834 26.9755 68.6413 27.1299 68.1185 27.1183C66.7109 27.0851 65.2999 27.0768 63.8889 27.1183C63.2544 27.1399 63.0869 26.9522 63.092 26.3344C63.1225 22.4084 63.0836 18.4808 63.1275 14.5548C63.136 13.7942 62.9008 13.6497 62.1852 13.6646C60.045 13.7111 57.9031 13.6646 55.7562 13.6945C55.2114 13.7028 55.0202 13.5683 55.0439 13.0086C55.0896 11.876 55.0744 10.74 55.0439 9.60741C55.0355 9.17562 55.1065 8.98297 55.6276 8.98463C62.5021 9.00345 69.3761 9.00345 76.2495 8.98463C76.757 8.98463 76.8551 9.1507 76.8433 9.60077C76.8145 10.7334 76.8027 11.8693 76.8433 13.002C76.8636 13.5484 76.7012 13.7012 76.1412 13.6928C73.9722 13.6596 71.8016 13.7061 69.6344 13.6646C68.9576 13.6513 68.714 13.8008 68.7326 14.5149C68.8037 16.4829 68.7698 18.4476 68.7715 20.4106Z" fill="#68718D"/>
<path d="M85.6004 18.1338C85.6004 20.8973 85.5886 23.6591 85.6123 26.4226C85.6123 26.9607 85.4651 27.135 84.9051 27.1201C83.4433 27.0836 81.9782 27.0919 80.5063 27.1201C80.0749 27.1201 79.9192 27.0221 79.9209 26.5737C79.9333 20.8829 79.9333 15.1915 79.9209 9.49958C79.9209 9.09104 80.0393 8.98974 80.4403 9.00136C81.9325 9.02295 83.4247 9.03624 84.9152 9.00136C85.4786 8.98641 85.614 9.16743 85.6089 9.69555C85.5869 12.4989 85.6004 15.3105 85.6004 18.1338Z" fill="#68718D"/>
</g>
<defs>
<clipPath id="clip0_1332_10473">
<rect width="194" height="36" fill="white"/>
</clipPath>
</defs>
</svg>
