<svg width="31" height="27" viewBox="0 0 31 27" fill="none" xmlns="http://www.w3.org/2000/svg">
<path fill-rule="evenodd" clip-rule="evenodd" d="M25.3508 1.08213C24.755 0.516491 23.8151 0.535295 23.2425 1.12431L19.1471 5.3367C18.5696 5.93068 18.583 6.88033 19.177 7.45781C19.7709 8.03529 20.7206 8.02191 21.2981 7.42794L22.818 5.86462V23.028H19.1533L19.1533 11.2712C19.1533 10.4427 18.4818 9.77116 17.6533 9.77116C16.8249 9.77116 16.1533 10.4427 16.1533 11.2712L16.1533 23.028H13.1993L13.1993 14.3475C13.1993 13.5191 12.5277 12.8475 11.6993 12.8475C10.8708 12.8475 10.1993 13.5191 10.1993 14.3475L10.1993 23.028H7.70326V17.9371C7.70326 17.1086 7.03169 16.4371 6.20326 16.4371C5.37484 16.4371 4.70326 17.1086 4.70326 17.9371V23.028H2.17285C1.34442 23.028 0.672852 23.6996 0.672852 24.528C0.672852 25.3564 1.34442 26.028 2.17285 26.028H24.318H27.5644C28.3928 26.028 29.0644 25.3564 29.0644 24.528C29.0644 23.6996 28.3928 23.028 27.5644 23.028H25.818V5.6625L27.7218 7.47012C28.3226 8.04052 29.272 8.0159 29.8424 7.41513C30.4128 6.81436 30.3882 5.86493 29.7874 5.29452L25.3508 1.08213Z" fill="url(#paint0_linear_1163_3522)"/>
<defs>
<linearGradient id="paint0_linear_1163_3522" x1="14.2854" y1="0.669922" x2="14.2533" y2="30.4578" gradientUnits="userSpaceOnUse">
<stop stop-color="#9D5FFF"/>
<stop offset="1" stop-color="#E9D8FF"/>
</linearGradient>
</defs>
</svg>
