<svg width="151" height="28" viewBox="0 0 151 28" fill="none" xmlns="http://www.w3.org/2000/svg">
<g clip-path="url(#clip0_1311_6020)">
<path fill-rule="evenodd" clip-rule="evenodd" d="M51.293 22.542V19.9131H44.3V14.6246H51.1065V11.9957H44.3V7.08491H51.293V4.45605H41.293V22.542H51.293ZM65.6365 22.542L60.7724 15.8195L65.3334 9.44394H62.1089L58.9698 13.8613L55.854 9.44394H52.6295L57.1905 15.8195L52.3264 22.542H55.551L58.9931 17.716L62.4119 22.542H65.6365ZM74.4632 22.8657C77.882 22.8657 80.314 20.2909 80.314 15.9814C80.314 11.6719 77.882 9.12015 74.4632 9.12015C72.7382 9.12015 71.2076 9.93733 70.2285 11.2325V9.44394H67.3614V27.5298H70.2285V20.7226C71.3241 22.1102 72.8004 22.8657 74.4632 22.8657ZM73.6163 20.3448C72.2798 20.3448 70.8579 19.5276 70.2285 18.5563V13.3757C70.8812 12.3966 72.2798 11.6411 73.6163 11.6411C75.8851 11.6411 77.3614 13.4296 77.3614 15.9814C77.3614 18.5331 75.8851 20.3448 73.6163 20.3448ZM89.032 22.8657C91.1065 22.8657 93.049 22.1873 94.3855 20.9384L93.0724 19.0651C92.1166 20.0133 90.6093 20.5298 89.3039 20.5298C86.8175 20.5298 85.3412 18.8724 85.1236 16.9219H95.2868V16.2204C95.2868 12.0959 92.7693 9.11244 88.8066 9.11244C84.8983 9.11244 82.1089 12.173 82.1089 15.9737C82.1166 20.129 85.0459 22.8657 89.032 22.8657ZM92.5285 14.8944H85.1003C85.2091 13.3217 86.3591 11.4483 88.7911 11.4483C91.3863 11.4483 92.4508 13.3448 92.5285 14.8944ZM109.669 22.542V13.3217C109.669 10.6389 108.247 9.12015 105.403 9.12015C103.329 9.12015 101.604 10.1763 100.734 11.2094V9.44394H97.8665V22.542H100.734V13.3757C101.417 12.5045 102.676 11.6411 104.121 11.6411C105.737 11.6411 106.802 12.2887 106.802 14.3547V22.542H109.669ZM117.649 22.8657C121.2 22.8657 123.142 21.1003 123.142 18.7721C123.142 13.5684 115.162 15.303 115.162 12.9979C115.162 12.0728 116.095 11.3713 117.594 11.3713C119.265 11.3713 120.71 12.0728 121.503 12.9439L122.707 10.9395C121.534 9.90649 119.84 9.12015 117.594 9.12015C114.261 9.12015 112.404 10.9395 112.404 13.0827C112.404 18.1246 120.384 16.282 120.384 18.8569C120.384 19.89 119.483 20.5915 117.758 20.5915C116.064 20.5915 114.23 19.7204 113.305 18.7721L111.992 20.8074C113.352 22.1334 115.38 22.8657 117.649 22.8657ZM125.186 27.6686C125.567 27.7765 126.39 27.8613 126.802 27.8613C128.853 27.8305 130.407 27.129 131.309 24.9087L137.68 9.45165H134.619L130.765 19.2655L126.911 9.45165H123.826L129.265 22.7116L128.612 24.1994C128.232 25.0706 127.626 25.3404 126.701 25.3404C126.375 25.3404 125.908 25.2556 125.605 25.1246L125.186 27.6686ZM150.166 22.542V13.8382C150.166 10.3382 147.594 9.12015 144.65 9.12015C142.544 9.12015 140.633 9.76773 139.102 11.2325L140.306 13.2138C141.425 12.0728 142.738 11.5331 144.215 11.5331C146.017 11.5331 147.299 12.4583 147.299 13.977V15.9274C146.312 14.8173 144.813 14.2468 143.01 14.2468C140.85 14.2468 138.449 15.4957 138.449 18.5331C138.449 21.4087 140.881 22.8735 143.01 22.8735C144.758 22.8735 146.32 22.249 147.299 21.108V22.542H150.166ZM144.152 20.9153C142.536 20.9153 141.309 19.9902 141.309 18.5563C141.309 17.1455 142.536 16.1972 144.152 16.1972C145.38 16.1972 146.615 16.6598 147.299 17.5541V19.5585C146.615 20.4527 145.388 20.9153 144.152 20.9153Z" fill="#68718D"/>
<path d="M26.3591 12.3734H28.7833C30.1664 12.3734 31.2853 11.2632 31.2853 9.89098V0.146484H14.0514C12.6916 0.146484 11.5883 1.2412 11.5883 2.59032C11.5883 3.93944 12.6916 5.03415 14.0514 5.03415H25.1314C25.8152 5.03415 26.3668 5.58151 26.3668 6.25992C26.3668 6.93833 26.3591 12.3734 26.3591 12.3734Z" fill="#68718D"/>
<path d="M21.4407 19.7127H23.8649C25.248 19.7127 26.3668 18.6025 26.3668 17.2303V12.3734V6.26001C26.3668 6.93842 25.8152 7.48578 25.1314 7.48578H9.13297C7.77322 7.48578 6.66211 8.58049 6.66211 9.93732C6.66211 11.2864 7.76545 12.3812 9.1252 12.3812H20.2052C20.889 12.3812 21.4407 12.9285 21.4407 13.6069C21.4407 14.2853 20.889 14.8327 20.2052 14.8327H6.66211V19.7281H21.4407V19.7127Z" fill="#68718D"/>
<path d="M21.4407 13.5991V24.5925C21.4407 25.9493 20.3296 27.0518 18.962 27.0518H1.73593V17.2687C1.73593 15.9196 2.83927 14.8172 4.20679 14.8172H20.2052C20.889 14.8249 21.4407 14.2775 21.4407 13.5991Z" fill="#68718D"/>
</g>
<defs>
<clipPath id="clip0_1311_6020">
<rect width="150" height="28" fill="white" transform="translate(0.951172)"/>
</clipPath>
</defs>
</svg>
