<svg width="32" height="32" viewBox="0 0 32 32" fill="none" xmlns="http://www.w3.org/2000/svg">
<path fill-rule="evenodd" clip-rule="evenodd" d="M12 9.5H20C21.3807 9.5 22.5 10.6193 22.5 12V20C22.5 21.3807 21.3807 22.5 20 22.5H12C10.6193 22.5 9.5 21.3807 9.5 20V12C9.5 10.6193 10.6193 9.5 12 9.5ZM8 12C8 9.79086 9.79086 8 12 8H20C22.2091 8 24 9.79086 24 12V20C24 22.2091 22.2091 24 20 24H12C9.79086 24 8 22.2091 8 20V12ZM19.3646 12.9041C19.1143 12.7223 18.7688 12.7848 18.5931 13.0439L15.3698 17.7954L13.3025 16.0645C13.0647 15.8654 12.716 15.9034 12.5236 16.1495C12.3312 16.3956 12.368 16.7565 12.6058 16.9556L15.134 19.0724C15.3834 19.2812 15.7514 19.2278 15.9357 18.9562L19.4997 13.7025C19.6754 13.4434 19.615 13.086 19.3646 12.9041Z" fill="url(#paint0_linear_1311_6663)"/>
<defs>
<linearGradient id="paint0_linear_1311_6663" x1="16" y1="8" x2="24.9961" y2="21.1016" gradientUnits="userSpaceOnUse">
<stop stop-color="#6310E5"/>
<stop offset="1" stop-color="#8322FE"/>
</linearGradient>
</defs>
</svg>
