<svg width="139" height="41" viewBox="0 0 139 41" fill="none" xmlns="http://www.w3.org/2000/svg">
<g clip-path="url(#clip0_1332_10451)">
<path d="M69.262 18.0721L77.4541 9.81177H73.4463H72.7036H72.4161L64.4489 17.8638V9.81177H60.5796V31.3149H64.4489V22.9285L66.5423 20.8154L73.8884 31.3149H78.6824L69.1916 18.1433L69.262 18.0721Z" fill="#68718D"/>
<path d="M85.7177 14.6919C83.4943 14.6919 81.3628 15.5826 79.7902 17.1694C78.2177 18.7563 77.3306 20.9077 77.3252 23.155C77.3252 25.4571 78.1658 27.5839 79.6977 29.1433C81.2625 30.7383 83.4454 31.6154 85.8483 31.6154C89.1318 31.6154 91.7812 30.1162 93.3162 27.3893L89.9587 25.3694C89.1915 26.9508 87.6732 27.8935 85.8835 27.8935C83.6112 27.8935 81.9838 26.7672 81.4147 24.8048L81.3711 24.6514H93.831C93.831 24.6514 93.9288 23.9032 93.9288 23.1194C93.9288 20.6802 93.2237 18.696 91.7353 17.1475C90.214 15.5634 88.0771 14.6919 85.7231 14.6919H85.7177ZM81.5417 21.2612L81.6151 21.0913C82.3584 19.414 83.9035 18.4137 85.7505 18.4137C87.7407 18.4137 89.1617 19.3674 89.7582 21.1022L89.8125 21.2612H81.5417Z" fill="#68718D"/>
<path d="M136.618 17.0307C135.289 15.6959 133.494 14.9477 131.62 14.9477C130.563 14.9477 129.516 15.1889 128.564 15.6548L128.394 15.7371V9.81177H124.524V31.3149H128.394V22.1009C128.394 21.2403 128.732 20.4153 129.334 19.8069C129.936 19.1985 130.752 18.8559 131.604 18.8559C132.456 18.8559 133.272 19.1985 133.874 19.8069C134.476 20.4153 134.814 21.2403 134.814 22.1009V31.3149H138.72V22.0652C138.706 20.1742 137.952 18.3626 136.623 17.0307H136.618Z" fill="#68718D"/>
<path d="M99.6583 9.81177H95.805V24.1727C95.7997 25.1265 95.9894 26.0693 96.3581 26.9436C97.0823 28.6592 98.4383 30.0268 100.139 30.7558C101.009 31.1312 101.944 31.3204 102.888 31.3149H105.882V27.4286H102.888C102.454 27.4314 102.023 27.3437 101.624 27.171C101.239 27.0066 100.892 26.7682 100.594 26.4722C100.295 26.1707 100.06 25.8117 99.8969 25.417C99.737 25.0223 99.6553 24.6003 99.6553 24.1727V19.2286H105.882V15.3424H99.6553V9.81177H99.6583Z" fill="#68718D"/>
<path d="M115.36 18.6631C116.146 18.6631 116.916 18.8796 117.592 19.288C118.267 19.6964 118.82 20.2801 119.192 20.979L122.722 19.1016C121.83 17.4517 120.422 16.1472 118.717 15.3963C117.011 14.6454 115.108 14.4891 113.305 14.955C111.501 15.421 109.904 16.4788 108.762 17.9615C107.621 19.4469 107 21.2722 107 23.155C107 25.0379 107.621 26.8631 108.762 28.3486C109.904 29.834 111.501 30.8919 113.305 31.355C115.108 31.821 117.011 31.6648 118.717 30.9138C120.422 30.1629 121.833 28.8583 122.722 27.2085L119.192 25.3311C118.817 26.03 118.264 26.6137 117.592 27.0221C116.916 27.4304 116.146 27.6469 115.36 27.6469C112.944 27.6469 110.975 25.6326 110.975 23.155C110.975 20.6775 112.944 18.6631 115.36 18.6631Z" fill="#68718D"/>
<path d="M26.449 6.51144L32.9159 -0.0566406H17.0722L0 17.2825L16.9377 34.485L10.4708 41.053H26.3144L43.3867 23.7139L26.449 6.51144ZM17.0722 34.3472V16.036L26.3144 6.64927V24.9604L17.0722 34.3484V34.3472Z" fill="#68718D"/>
</g>
<defs>
<clipPath id="clip0_1332_10451">
<rect width="139" height="41" fill="white"/>
</clipPath>
</defs>
</svg>
