<svg width="166" height="44" viewBox="0 0 166 44" fill="none" xmlns="http://www.w3.org/2000/svg">
<path d="M49.2109 27.9656L50.3367 25.9829C50.5286 25.6725 50.9836 25.7198 51.1513 25.8397C51.2474 25.887 52.9726 27.1536 54.5534 27.1536C55.5121 27.1536 56.207 26.5559 56.207 25.7198C56.207 24.7165 55.3686 23.952 53.7389 23.307C51.6783 22.4946 49.0907 20.894 49.0907 18.027C49.0907 15.6619 50.9361 13.2727 54.6256 13.2727C57.1171 13.2727 59.0339 14.5389 59.7529 15.0646C60.0402 15.2318 59.9922 15.6619 59.8965 15.8291L58.6746 17.6685C58.5069 17.9313 58.076 18.1463 57.86 17.9789C57.6443 17.8596 55.8958 16.5455 54.4338 16.5455C53.5712 16.5455 52.9245 17.1187 52.9245 17.7639C52.9245 18.6477 53.6434 19.317 55.5363 20.0815C57.405 20.822 60.3756 22.2794 60.3756 25.5283C60.3756 27.9895 58.2437 30.4739 54.7213 30.4739C51.6071 30.4739 49.8819 29.1841 49.3308 28.6345C49.0909 28.3959 49.0195 28.3001 49.2112 27.9656H49.2109Z" fill="#68718D"/>
<path d="M86.3508 13.9656C86.3508 13.7264 86.5427 13.5115 86.8059 13.5115H89.6568C89.9074 13.5115 90.1125 13.7159 90.1125 13.9658V26.7229H95.8142C96.078 26.7229 96.2693 26.938 96.2693 27.1772V29.7809C96.2693 30.0201 96.0783 30.2353 95.8142 30.2353H86.8059C86.5427 30.2353 86.3508 30.0201 86.3508 29.7809V13.9656Z" fill="#68718D"/>
<path d="M101.231 27.9656L102.357 25.9829C102.549 25.6725 103.004 25.7198 103.172 25.8397C103.267 25.887 104.992 27.1536 106.574 27.1536C107.532 27.1536 108.227 26.5559 108.227 25.7198C108.227 24.7165 107.388 23.952 105.759 23.307C103.699 22.4946 101.111 20.894 101.111 18.027C101.111 15.6619 102.956 13.2727 106.645 13.2727C109.137 13.2727 111.054 14.5389 111.773 15.0646C112.061 15.2318 112.013 15.6619 111.917 15.8291L110.695 17.6685C110.528 17.9313 110.096 18.1463 109.881 17.9789C109.665 17.8596 107.916 16.5455 106.454 16.5455C105.592 16.5455 104.944 17.1187 104.944 17.7639C104.944 18.6477 105.663 19.317 107.556 20.0815C109.425 20.822 112.396 22.2794 112.396 25.5283C112.396 27.9895 110.263 30.4739 106.742 30.4739C103.627 30.4739 101.902 29.1841 101.351 28.6345C101.111 28.3959 101.039 28.3001 101.231 27.9656H101.231Z" fill="#68718D"/>
<path d="M118.914 13.9656C118.914 13.7264 119.13 13.5115 119.369 13.5115H122.245C122.484 13.5115 122.7 13.7264 122.7 13.9656V29.7811C122.7 30.0203 122.484 30.2355 122.245 30.2355H119.369C119.13 30.2355 118.914 30.0203 118.914 29.7811V13.9656Z" fill="#68718D"/>
<path d="M130.416 13.9656C130.416 13.7264 130.607 13.5115 130.871 13.5115H140.79C141.053 13.5115 141.245 13.7264 141.245 13.9656V16.5695C141.245 16.8083 141.053 17.0237 140.79 17.0237H134.153V20.4639H138.084C138.324 20.4639 138.539 20.679 138.539 20.918V23.5219C138.539 23.7607 138.324 23.976 138.084 23.976H134.153V29.7813C134.153 30.0205 133.937 30.2357 133.698 30.2357H130.871C130.607 30.2357 130.416 30.0205 130.416 29.7813V13.9656Z" fill="#68718D"/>
<path d="M151.117 23.7115L144.797 14.2044C144.605 13.8936 144.797 13.5115 145.18 13.5115H148.294C148.486 13.5115 148.606 13.6308 148.678 13.7264L153.034 20.1518L157.024 13.7264C157.096 13.6308 157.192 13.5115 157.407 13.5115H160.521C160.905 13.5115 161.097 13.8936 160.905 14.2044L154.879 23.6875V29.7809C154.879 30.0201 154.663 30.2353 154.423 30.2353H151.572C151.309 30.2353 151.117 30.0201 151.117 29.7809V23.7113L151.117 23.7115Z" fill="#68718D"/>
<path d="M80.7902 29.6137L73.2911 13.5354C73.2195 13.392 73.0518 13.2727 72.8835 13.2727H72.6442C72.4765 13.2727 72.3088 13.392 72.2366 13.5354L64.7375 29.6137C64.5939 29.9249 64.7855 30.2353 65.1451 30.2353H67.7801C68.0402 30.2353 68.232 30.1479 68.3766 30.0249L72.7397 20.5591H72.7638L74.5852 24.501H74.5711L77.1305 30.0101C77.2781 30.1664 77.4514 30.2351 77.7235 30.2351H80.3826C80.7421 30.2351 80.9338 29.9249 80.7902 29.6137Z" fill="#68718D"/>
<path d="M71.0314 28.6385C71.0314 27.6851 71.8063 26.9126 72.7621 26.9126C74.18 26.9126 74.9964 28.5194 74.1579 29.6592C73.1687 31.0042 71.0314 30.3065 71.0314 28.6385Z" fill="#68718D"/>
<path d="M37.7224 13.6496C37.7064 13.4984 37.7216 13.3489 37.6989 13.1975C37.287 10.462 35.8314 8.0504 33.6003 6.40682C31.8002 5.08059 29.6686 4.37964 27.4358 4.37964C25.9672 4.37964 24.5376 4.70914 23.2237 5.29142C21.9364 4.71983 20.52 4.38807 19.0223 4.38807C13.6793 4.38807 9.31738 8.44736 8.75036 13.6274C8.30669 13.9485 7.86838 14.2802 7.47317 14.6743C5.51181 16.6303 4.4314 19.2309 4.4314 21.9971C4.4314 24.7633 5.5116 27.3637 7.47317 29.3197C7.86363 29.7091 8.2972 30.0357 8.73489 30.3539C8.84978 31.4205 9.08554 32.4784 9.53685 33.4862C11.2061 37.2127 14.9298 39.6206 19.0238 39.6206C20.4866 39.6206 21.91 39.317 23.2545 38.7183C23.2557 38.7176 23.2567 38.717 23.2578 38.7164C23.3646 38.7631 23.4543 38.8322 23.5634 38.8758C24.801 39.3703 26.0995 39.6208 27.4233 39.6208C31.6929 39.6208 35.4781 37.0669 37.0661 33.1143C37.43 32.2087 37.6086 31.2827 37.7066 30.3574C40.3059 28.4734 42.0167 25.4394 42.0167 21.9971C42.0167 18.5549 40.3125 15.5347 37.7224 13.6496ZM27.4396 23.2514C27.3837 23.2526 27.3278 23.2571 27.2719 23.2571C27.2516 23.2571 27.231 23.2559 27.2108 23.2532C26.7073 23.2472 26.1844 23.1837 25.6296 23.0667L25.3654 23.0156C25.0337 22.9406 24.9586 23.0539 25.1803 23.3242L25.4068 23.6115C25.7358 23.9891 26.0285 24.391 26.2779 24.8121C26.3179 24.8799 26.3563 24.9482 26.3957 25.0163C26.5143 25.2207 26.6298 25.4266 26.7281 25.6453C27.1939 26.6854 27.4336 27.8035 27.4404 28.9678L27.4435 29.2253L27.4441 29.2714L27.4158 29.2549L27.1801 29.118C25.987 28.4223 24.9881 27.4326 24.2715 26.251C24.2303 26.1829 24.1864 26.1169 24.147 26.0476C23.872 25.5653 23.6486 25.0459 23.4754 24.5035L23.4054 24.3063C23.2891 23.9875 23.1365 23.9865 23.0286 24.3188L22.9026 24.6835C22.9026 24.6835 22.9017 24.6821 22.9015 24.6812C22.7376 25.158 22.5331 25.6177 22.2879 26.0498C22.2502 26.1169 22.2122 26.1809 22.1742 26.245C21.7927 26.8921 21.4034 27.4061 20.96 27.8475C20.4986 28.3096 19.9575 28.7138 19.2568 29.1192L19.0359 29.2494L18.9957 29.2732V29.2335L18.9978 28.9688C19.0031 27.9038 19.1983 26.8857 19.5774 25.9433C19.7075 25.6183 19.8633 25.3051 20.0322 25.0021C20.0704 24.9336 20.1048 24.8622 20.1448 24.7952C20.3734 24.4091 20.657 24.027 21.0025 23.6362L21.2399 23.3351C21.4616 23.0646 21.3865 22.9513 21.0549 23.0266L20.811 23.0734C20.2517 23.1909 19.7284 23.2536 19.2247 23.2571C19.1974 23.2616 19.1774 23.2637 19.1585 23.2637C19.1032 23.2637 19.0483 23.2594 18.993 23.2581C17.6451 23.2302 16.3312 22.863 15.086 22.1584L14.8574 22.0288L14.823 22.0068L14.8614 21.9846L15.0874 21.8575C15.1635 21.8147 15.6023 21.5438 15.7724 21.4671C16.8095 21.0051 17.9064 20.7655 19.0339 20.7499C19.0729 20.7493 19.2344 20.7503 19.2723 20.755C19.7346 20.76 20.2226 20.8149 20.7238 20.9146L21.0658 20.9804C21.3975 21.0555 21.4725 20.9422 21.2508 20.6719L21.0249 20.3854C20.6665 19.9827 20.3707 19.5866 20.1322 19.184C20.0912 19.1147 20.0553 19.0421 20.0165 18.9714C19.3724 17.7965 19.0238 16.4442 19.0143 15.0396L19.0112 14.7677L19.0108 14.7342L19.052 14.7584L19.275 14.8895C19.9654 15.293 20.5008 15.6941 20.96 16.1517C21.403 16.5939 21.7916 17.1073 22.1724 17.7521C22.211 17.8175 22.2495 17.8827 22.2879 17.9508C22.5406 18.3957 22.7493 18.8687 22.9151 19.3591L23.0472 19.6869C23.1635 20.0057 23.2998 20.0072 23.4075 19.675L23.5335 19.3103C23.5335 19.3103 23.5344 19.312 23.5346 19.3128C23.6981 18.8397 23.9021 18.3829 24.1468 17.952C24.1866 17.8819 24.2311 17.8148 24.2728 17.7461C24.9914 16.5614 25.9924 15.5717 27.1873 14.8786L27.4286 14.7368L27.4497 14.7245V14.7648L27.448 15.0275C27.4437 16.4045 27.0837 17.7313 26.3866 18.9765C26.3472 19.0466 26.3113 19.1176 26.2698 19.1873C26.0042 19.6349 25.7304 20.024 25.4404 20.3688C25.4404 20.3688 25.4406 20.3688 25.4409 20.3688L25.2018 20.6721C24.9801 20.9426 25.0551 21.0559 25.3868 20.9807L25.6498 20.9299C26.184 20.8184 26.6916 20.7579 27.1885 20.7521L27.2125 20.7499C27.2347 20.7476 27.2568 20.7449 27.2807 20.7468C27.3315 20.7468 27.3816 20.7495 27.4321 20.7503C28.4393 20.7684 29.4218 20.9656 30.3598 21.3414C30.6573 21.4601 30.926 21.6144 31.1859 21.7635L31.5723 21.9827L31.6075 22.0027L31.5797 22.0183L31.3404 22.1528C30.1078 22.8458 28.7629 23.2213 27.4396 23.2509V23.2514ZM31.2882 19.6497C30.3768 19.2854 29.4261 19.1001 28.4628 19.0033C29.0567 17.7003 29.4071 16.2655 29.4071 14.7436C29.4071 14.4795 29.3485 14.2315 29.3289 13.9723C30.0653 13.7621 30.8274 13.6138 31.6315 13.6138C33.1607 13.6138 34.5751 14.0517 35.8108 14.7634C35.8067 16.4874 35.2966 18.2241 34.1904 19.717C33.9132 20.0911 33.5788 20.3914 33.2552 20.7057C32.6481 20.2945 31.997 19.9327 31.2882 19.6495V19.6497ZM27.4356 6.35211C29.1711 6.35211 30.9217 6.88605 32.4245 7.99322C33.9637 9.12713 34.9713 10.6928 35.4678 12.3935C34.2782 11.9192 32.9889 11.6412 31.6315 11.6412C30.7156 11.6412 29.8434 11.7977 28.9966 12.0208C28.3979 9.84742 27.1182 7.97348 25.3845 6.6199C26.0559 6.45207 26.7424 6.35211 27.4354 6.35211H27.4356ZM21.8201 8.51976C22 8.36468 22.1864 8.21947 22.377 8.08084C22.5012 7.99055 22.6268 7.90355 22.7547 7.81984C22.911 7.71761 23.0688 7.61827 23.2297 7.5253C23.4681 7.66373 23.6965 7.81634 23.919 7.97636C24.1181 8.11951 24.3128 8.26781 24.498 8.427C24.6288 8.53951 24.7561 8.65572 24.8794 8.77583C24.9895 8.88299 25.096 8.99365 25.2001 9.10657C25.4435 9.37045 25.669 9.65059 25.8767 9.9443C25.9786 10.0883 26.0776 10.2343 26.1702 10.3849C26.6054 11.0916 26.9379 11.8686 27.1475 12.6977C25.5817 13.4524 24.234 14.5717 23.2252 15.9662C22.8995 15.5168 22.5612 15.0742 22.1602 14.6743C21.3145 13.831 20.3313 13.1866 19.2839 12.686C19.5438 11.6576 19.9967 10.6599 20.6679 9.75405C20.8443 9.51587 21.0322 9.2925 21.23 9.0825C21.4181 8.88279 21.6157 8.69603 21.8201 8.51976ZM19.0223 6.36054C19.3658 6.36054 19.7018 6.38666 20.032 6.43232C20.3622 6.47798 20.6863 6.54277 21.0058 6.62031C20.2861 7.1847 19.63 7.83485 19.0766 8.58188C18.3012 9.62838 17.76 10.7929 17.4258 12.0114C16.5799 11.7929 15.7136 11.6412 14.817 11.6412C13.4862 11.6412 12.1987 11.903 10.9974 12.3769C12.0269 8.90767 15.2095 6.36054 19.0223 6.36054ZM14.8166 13.6138C15.5858 13.6138 16.3462 13.756 17.0919 13.9651C17.036 14.728 17.0424 15.4989 17.1591 16.2737C17.3046 17.24 17.6232 18.1435 18.0174 19.0094C16.9077 19.117 15.8176 19.3467 14.7836 19.8073C14.2044 20.0654 13.6656 20.3836 13.1527 20.7328C11.597 19.2167 10.6257 17.1091 10.6181 14.7708C11.9163 14.0207 13.3602 13.6138 14.8166 13.6138ZM9.31924 25.563C9.04058 26.289 8.86835 27.0344 8.7582 27.7854C5.63722 24.5369 5.6434 19.4158 8.78254 16.1782C9.09957 18.428 10.1053 20.4566 11.6321 22.0019C10.6373 23.0076 9.84047 24.2039 9.31924 25.5628V25.563ZM13.1657 23.2834C14.5633 24.2394 16.2171 24.8172 17.9902 24.9951C17.926 25.1366 17.8441 25.2658 17.7858 25.411C17.1769 26.9262 16.9935 28.4956 17.1096 30.0232C16.3582 30.2358 15.5917 30.3798 14.8164 30.3798C13.3635 30.3798 11.9233 29.9744 10.6276 29.228C10.6387 26.9951 11.5537 24.8538 13.1654 23.2836L13.1657 23.2834ZM19.024 37.6475C15.8085 37.6475 12.7395 35.7982 11.3433 32.6814C11.1866 32.3317 11.0946 31.972 10.9892 31.6143C12.1927 32.0902 13.4831 32.3525 14.8168 32.3525C15.7215 32.3525 16.5952 32.198 17.4479 31.9757C18.0294 34.0907 19.274 35.9833 21.0447 37.3719C20.3729 37.5393 19.6968 37.6475 19.024 37.6475ZM23.214 36.4786C21.2149 35.32 19.836 33.4399 19.2946 31.3019C20.3379 30.8016 21.3174 30.1597 22.1602 29.3193C22.5612 28.9195 22.8997 28.4769 23.2252 28.0274C24.2324 29.4193 25.5772 30.5367 27.1392 31.2912C26.6003 33.429 25.2305 35.3138 23.214 36.4786ZM35.2297 32.3802C33.9138 35.6555 30.7577 37.6477 27.4235 37.6477C26.7578 37.6477 26.0883 37.5368 25.4219 37.3727C27.1933 35.9803 28.4113 34.0769 28.989 31.9705C29.838 32.1949 30.713 32.3527 31.6317 32.3527C32.9839 32.3527 34.2681 32.0754 35.4539 31.6046C35.378 31.8634 35.3323 32.125 35.2297 32.3804V32.3802ZM31.6319 30.3798C30.8266 30.3798 30.0636 30.2311 29.3263 30.0203C29.4521 28.3633 29.2275 26.6599 28.5016 25.0391C28.5 25.0352 28.4973 25.0319 28.4956 25.028C30.2258 24.847 31.8744 24.2337 33.2946 23.2653C34.9012 24.8299 35.8129 26.9824 35.8244 29.2231C34.586 29.9392 33.1667 30.3798 31.6319 30.3798ZM37.6622 27.8207C37.3485 25.6358 36.3755 23.5848 34.8127 21.9996C35.1578 21.652 35.4872 21.2873 35.7819 20.8893C36.8242 19.4827 37.4308 17.8646 37.6676 16.1797C39.1296 17.6879 40.0386 19.7334 40.0386 21.9969C40.0386 24.2604 39.1277 26.3119 37.662 27.8207H37.6622Z" fill="#68718D"/>
</svg>
