<svg version="1.1" id="Capa_1" xmlns="http://www.w3.org/2000/svg" x="0" y="0" viewBox="0 0 1442 600" xml:space="preserve"><style>.st0{fill:#6310e5}.st2{fill:#fafafa}.st4{fill:#fe8a3a}.st5{fill:#ee4266}.st7{fill:#ffc857}</style><path class="st0" d="M1441 130.6c-10.5 4.7 0 0-11.4 5.7-156.3 78.5-243.7 6.4-366.7 14.7-123.1 8.3-267.8 114-413.2 151.2-145.4 37.3-233.3-72-446.2 16.4C102.6 360.7 39 371 0 370.2v230.3h1442l-1-469.9z"/><path d="M1442 110.9c-116.9 30.6-197-19.6-302.4-12.1-126.2 9-274.2 117.8-423.2 156.5S477 182.2 258.9 273.6C86.2 346 20 327.4 0 316.6v53.6c39 .8 102.6-9.5 203.6-51.4 212.9-88.5 300.7 20.8 446.2-16.4 145.4-37.3 290.1-142.9 413.2-151.2 123.1-8.3 210.4 63.7 366.7-14.7 4.2-2.1 8.3-4.1 12.3-6.1v-19.5z" fill="#4392f1"/><path class="st2" d="M0 484.3l496.3-12.1L420 600.4H0V484.3z"/><path d="M301.9 600.4l192.9-128.6L0 484.3v116.1h301.9z" fill="#d4d8e4"/><path class="st0" d="M379.2 525.2h-33.3v-12.7h8.5c21.4-.1 24.8 12.7 24.8 12.7zm-305.8 5H35.9l4.3-10H53s15.3-1.1 20.4 10zM209.8 33.5c-12.3-8.8-31.6-3.3-32.3-3.1l11.4-6.3c1.7-.7 3.8-1.3 6-1.8 4.6-1.1 10-1.6 14.8-1.3 3.9.3 7.5 1.2 10.2 3 7.5 5.1-7.4 10.8-7.4 10.8-.7-.6-1.6-1.1-2.7-1.3z"/><path class="st4" d="M291.2 92.9l-37.9-7.4c1.4-4 4.6-13.2 5.3-15.2.7-2.2-2.3-13.1-5.8-13.1v-.5h38.3c-2.3 5.2-7.5 19.8.1 36.2z"/><path class="st0" d="M397.1 49.7s20.7 23.8 3.4 62.3c-20.5-26.5-3.4-62.3-3.4-62.3z"/><path class="st5" d="M291.1 56.7c.6-1.3 1-2 1-2h53.5c-2.2 7.3-5.9 24.9.3 47.7L311 97.5l-8.8-1.2-10.1-1.4c-.3-.7-.7-1.4-1-2-7.5-16.4-2.3-31 0-36.2zm-76.8 13.8l-14.5-6.9 3-6 12 .4 21 .6c-1.7 3.5-5 11.4-3.7 20.1l-.4.1-17.4-8.3z"/><path d="M209.8 20.6v.4c-4.9-.4-10.2.2-14.8 1.3l-17.5 2.5c0-1.8.2-3.8.5-5.2.8-3.9 11.5-9.1 20.1-9.1 8.4-.1 11.7 10.1 11.7 10.1z" fill="#4d17b2"/><path class="st4" d="M176.3 55.5c-.5 3.4 13.4 24.8 19.7 24.5 6.3-.4 6.6 2.9 6.6 2.9 3.6-4.7 11-2.3 11-2.3l-.3 5c-3.4 25.6-13.6 27.3-13.6 27.3s-15.7 4.7-22.2-15.8c0 0 1.8-11.8 2-21.1.1-5.4-.3-10-2-11-1.5-.9-3.2-1.3-4.8-1.2l4.8-33.5c.7-.2 19.9-5.6 32.3 3.1-10.7 2.1-22.7-2.6-22.7-2.6s-.9 4.5-4.5 5.2c-3.6.8-5.8 16.1-6.3 19.5z"/><path class="st7" d="M179.1 76.1s-3.9 1.5-7.7-2.6c-.6-.7-1.2-1.5-1.8-2.4-2.8-4.7-.3-7.1 3-7.2 1.6-.1 3.3.3 4.8 1.2 1.7 1 2.1 5.6 2 11h-.3zM191.9 216c-10.1 6.8-19.3 10.4-25.2 12.2-4.4 1.4-7.1 1.8-7.1 1.8-4.9-1.1-9.4-2.7-13.4-4.7-3.5-1.8-6.7-3.9-9.6-6.4 6.7-82.8 50.5-87.3 52.3-87.5 13.1.6 23.2-2.8 31-8.1 19-12.8 24.2-36.4 24.9-39.8.1-.3.1-.4.1-.4s1.7-19.7 6-24.8c.6-.8 1.3-1.1 1.9-1.1 3.5 0 6.5 10.9 5.8 13.1-.7 2-3.9 11.2-5.3 15.2-.4 1.2-.7 1.9-.7 1.9-1.2 19.8-4.2 36.9-8.4 51.7l-1.2 4.2c-2.7 8.7-5.8 16.6-9.3 23.6-2.6 5.4-5.4 10.3-8.3 14.8-2.9 4.4-5.8 8.4-8.9 12.1-8.1 9.7-16.7 16.9-24.6 22.2zM311 97.5l-.3 2.3s2.7 52.8-42.7 77.1c-10.1-19.4-4.5-33.3-4.3-33.8 13.3-.8 30.1-9.8 38.4-45.9l.1-.9 8.8 1.2zm-98.4-62.7c.8.7 1.4 1.7 1.9 2.6 1.1 2.1 1.5 4.5 1.3 6.8l-1.1 13.6-12-.4-3 6 14.5 6.9-.6 10.1s-7.4-2.4-11 2.3c0 0-.3-3.3-6.6-2.9-6.3.4-20.2-21.1-19.7-24.5.5-3.4 2.7-18.7 6.3-19.4 3.6-.7 4.5-5.2 4.5-5.2s12.1 4.7 22.7 2.6c1.1.4 2 .9 2.8 1.5z"/><path class="st7" d="M179.6 76.1c-.2 9.3-2 21.1-2 21.1 6.5 20.5 22.2 15.8 22.2 15.8l10.1 5.2s-13.3 17.1-47.1-1.6c-2.4-1.3-4.9-2.8-7.4-4.5 6.4-1.8 11.1-1.7 11.1-1.7L171 74l.5-.6c3.7 4 7.7 2.6 7.7 2.6h.4v.1z"/><path class="st2" d="M246.7 160l-13 6.8c3.5-7.1 6.6-14.9 9.3-23.6 1.3 5 2.6 11 3.7 16.8zm4.2 23.9c-12.8 11.1-34.4 9.9-34.4 9.9 3-3.7 6-7.7 8.9-12.1 0 0 14.2 1 24.1-6.5.9 5.1 1.4 8.7 1.4 8.7zm2.6 9.8c.5 2.6 1.1 5.8 1.7 9.6-19.8 30.7-88.6 24.9-88.6 24.9 5.9-1.9 15.1-5.5 25.2-12.2.1 0 47.5-5.6 61.7-22.3z"/><path class="st2" d="M258 230c-37.1 39-107.3 20.7-108.3 20.5-.4-4.4-.9-8.5-1.4-12 0 0 65.5 17.1 108.8-19.6.3 3.4.6 7.1.9 11.1z"/><path class="st2" d="M258.9 258.2h-.1c-33.2 41-108 21.4-108 21.4.3-5 .2-10.3 0-15.6 1.1.4 65.6 23.7 107.9-19.5.1 4.3.1 8.8.2 13.7zm-70-126.9c-4.6-.2-9.5-.9-14.8-2.2 0 0-8.6-3.5-19.3-3.9l7.9-8.7c33.7 18.6 47.1 1.6 47.1 1.6l10.1 5.2c-7.7 5.2-17.9 8.7-31 8z"/><path class="st2" d="M154.8 125.2c10.7.4 19.3 3.9 19.3 3.9S123.7 143 125 203.3c-5.9-12.7-7.5-29.6-3.8-50.3 1.3-7.3 3.4-13.3 6-18.3 8.3-7.9 18.7-9.8 27.6-9.5zm102.3 56.6c-2 .8-4 1.4-6.2 2.1 0 0-.5-3.5-1.4-8.8-.7-4.2-1.7-9.6-2.8-15.1-1.1-5.8-2.4-11.8-3.7-16.8l1.2-4.2s3.7 2 9.3 3.3c0-.1-3 13.5 3.6 39.5z"/><path class="st0" d="M162.8 116.5l-7.9 8.7c-8.9-.3-19.4 1.6-27.6 9.5 7.6-14.4 19.4-20.3 28.1-22.7 2.5 1.8 5 3.2 7.4 4.5zm11.3 12.7c5.3 1.3 10.2 2 14.8 2.2-1.8.2-45.6 4.7-52.3 87.5-4.8-4.2-8.7-9.3-11.6-15.5-1.3-60.3 49.1-74.2 49.1-74.2zm93.9 47.7c-3.4 1.8-7 3.5-10.9 4.9-6.6-26-3.6-39.5-3.6-39.5 2.9.7 6.4 1.1 10.2.8-.2.4-5.8 14.3 4.3 33.8zM246.7 160c1.1 5.5 2 10.9 2.8 15.1-10 7.5-24.1 6.5-24.1 6.5 2.9-4.5 5.7-9.4 8.3-14.8l13-6.8zm4.2 23.9s1.2 3 2.6 9.9c-14.2 16.7-61.6 22.3-61.6 22.3 7.9-5.3 16.5-12.5 24.6-22.3 0-.1 21.6 1.2 34.4-9.9z"/><path class="st0" d="M257.1 218.8c-43.3 36.7-108.9 19.6-108.9 19.6-1-7.7-2-12.9-2.1-13.2 4.1 2.1 8.6 3.6 13.4 4.7 0 0 2.7-.4 7.1-1.8 0 0 68.8 5.9 88.6-24.9.7 4.5 1.4 9.6 1.9 15.6z"/><path class="st0" d="M258.6 244.5c-42.3 43.2-106.9 19.9-107.9 19.5-.2-4.6-.6-9.2-1-13.5 1 .3 71.2 18.5 108.3-20.5.2 4.4.5 9.3.6 14.5z"/><path class="st0" d="M150.7 279.6s74.9 19.6 108-21.4h.1c0 5.1 0 10.5-.1 16.2 0 0-29.4 37.6-109.9 18.8 1-4 1.6-8.7 1.9-13.6z"/><path d="M258.7 274.4s121.6 55 105.1 197.7l-9.4 40.4h-8.5s-4.7-164.2-140.5-161.3c0 0-103 99.8-152.5 169H40.2s89.9-152.4 108.7-227c80.4 18.9 109.8-18.8 109.8-18.8z" fill="#fff"/><path d="M191.9 49.7s6.9 7.7 10.8 7.8c0 0 5.3-3.4 1.2-6.8m-1.2 6.8s8.3.3 7.9-4" fill="none" stroke="#fe8a3a" stroke-linecap="round" stroke-linejoin="round" stroke-miterlimit="10"/><path class="st5" d="M202.7 86.9s-2.5.7-2.9 2.1c-.3 1.4 4.9 2.4 2.9-2.1z"/><path class="st4" d="M204.1 65.6l.3.9 2.3 8.2h-4m194.2-25.2c9 9.5 20.1 30 3.5 62.6 5.3-12.6 12.1-43-3.5-62.6z"/><ellipse class="st2" cx="399.4" cy="69.5" rx="3" ry="6"/><ellipse class="st2" cx="399.4" cy="80.5" rx="1" ry="2"/></svg>