<svg width="110" height="37" viewBox="0 0 110 37" fill="none" xmlns="http://www.w3.org/2000/svg">
<g clip-path="url(#clip0_1332_10407)">
<path d="M109.694 15.6316H0V37.0011H109.694V15.6316Z" fill="#68718D" fill-opacity="0.5"/>
<path d="M7.34098 32.8827L3.84998 0H10.2252L12.0467 20.7479L13.8682 0H19.9394L21.6849 20.7479L23.4305 0H29.8817L26.3147 32.8827H18.4979L16.8658 17.0352L15.3097 32.8827H7.34098Z" fill="#68718D"/>
<path d="M31.7323 0H41.7529C43.3468 0 44.5736 0.369937 45.4333 1.10981C46.3195 1.82452 46.9141 2.84667 47.2173 4.17624C47.519 5.47515 47.6698 7.14399 47.6698 9.18277C47.6698 11.0446 47.4293 12.4992 46.9484 13.5465C46.4675 14.5938 45.632 15.3227 44.4418 15.7331C45.4301 15.9368 46.1394 16.4345 46.5696 17.2263C47.0217 18.0172 47.2477 19.0889 47.2477 20.4413L47.1764 32.8886H40.8012V20.0332C40.8012 19.1133 40.6243 18.5259 40.2704 18.2712C39.9166 18.0164 39.2716 17.8891 38.3355 17.8891V32.8886H31.7323V0ZM39.929 12.1737C40.8402 12.1737 41.2953 11.1783 41.2946 9.18749C41.3075 8.53475 41.2684 7.88201 41.1776 7.23559C41.1044 6.80393 40.9664 6.50948 40.7638 6.35222C40.5619 6.17374 40.2708 6.0845 39.8904 6.0845H38.3706V12.1737H39.929Z" fill="#68718D"/>
<path d="M55.8128 0H49.5135V32.8827H55.8128V0Z" fill="#68718D"/>
<path d="M61.2223 32.8827V6.31566H57.3525V0H71.6193V6.31566H67.7495V32.8827H61.2223Z" fill="#68718D"/>
<path d="M73.4595 32.8827V0H86.5127V6.35458H80.1001V12.7469H86.2473V18.9493H80.1001V26.4904H86.9301V32.8827H73.4595Z" fill="#68718D"/>
<path d="M88.5283 0H98.5465C100.14 0 101.367 0.369937 102.227 1.10981C103.113 1.82452 103.707 2.84667 104.01 4.17624C104.314 5.47751 104.466 7.1491 104.466 9.19103C104.466 11.0529 104.225 12.5075 103.744 13.5548C103.264 14.6021 102.429 15.3294 101.241 15.7367C102.227 15.938 102.935 16.4345 103.366 17.2263C103.821 18.0172 104.048 19.0889 104.048 20.4413L103.972 32.8886H97.5972V20.0332C97.5972 19.1133 97.4203 18.5259 97.0664 18.2712C96.7126 18.0164 96.0672 17.8891 95.1304 17.8891V32.8886H88.5283V0ZM96.725 12.1737C97.6362 12.1737 98.0914 11.1783 98.0906 9.18749C98.1036 8.53475 98.0645 7.88201 97.9737 7.23559C97.8996 6.80393 97.7617 6.50948 97.5598 6.35222C97.3564 6.17414 97.0664 6.0845 96.6876 6.0845H95.1678V12.1737H96.725Z" fill="#68718D"/>
</g>
<defs>
<clipPath id="clip0_1332_10407">
<rect width="109.694" height="37" fill="white"/>
</clipPath>
</defs>
</svg>
