<svg width="118" height="28" viewBox="0 0 118 28" fill="none" xmlns="http://www.w3.org/2000/svg">
<path fill-rule="evenodd" clip-rule="evenodd" d="M23.4647 27.4997H25.0981C25.4765 27.4997 25.7952 27.1825 25.8152 26.8058V9.10342C25.8152 7.35896 24.4009 5.95149 22.648 5.95149H20.5565C20.1781 5.95149 19.8594 5.6343 19.8594 5.25765V3.65194C19.8594 1.90747 18.4451 0.5 16.6922 0.5H3.16714C1.41425 0.5 0 1.90747 0 3.65194V21.4337C0 23.1583 1.41425 24.5658 3.16714 24.5856H18.8435C18.9829 24.5856 19.1223 24.6252 19.2419 24.7045L23.0663 27.3807C23.1859 27.46 23.3253 27.4997 23.4647 27.4997ZM19.6602 22.068H3.20697C2.80859 22.068 2.50981 21.7706 2.50981 21.3742V3.69159C2.50981 3.31494 2.82851 2.99777 3.20697 2.99777H16.6524C17.0308 2.99777 17.3496 3.31494 17.3496 3.69159V5.25765C17.3496 5.6343 17.0308 5.95149 16.6524 5.95149H6.63306C6.2546 5.95149 5.93589 6.26863 5.93589 6.64528V18.4403C5.93589 18.8169 6.2546 19.1341 6.63306 19.1341H19.1423C19.5207 19.1341 19.8394 18.8169 19.8394 18.4403V9.14307C19.8394 8.76642 20.1581 8.44924 20.5366 8.44924H22.5883C22.9667 8.44924 23.2854 8.76642 23.2854 9.14307V23.6143C23.2854 23.9711 22.887 24.1693 22.6082 23.9711L20.0585 22.1869C19.939 22.1077 19.7996 22.068 19.6602 22.068ZM16.991 16.6165H8.78434C8.60506 16.6165 8.44569 16.4778 8.44569 16.2795V8.78623C8.44569 8.60781 8.58512 8.44924 8.78434 8.44924H16.991C17.1703 8.44924 17.3296 8.58801 17.3296 8.78623V16.2795C17.3296 16.458 17.1902 16.6165 16.991 16.6165ZM89.2621 4.26935C90.3083 4.26935 91.1561 3.42555 91.1561 2.38467C91.1561 1.3438 90.3083 0.5 89.2621 0.5C88.2164 0.5 87.3685 1.3438 87.3685 2.38467C87.3685 3.42555 88.2164 4.26935 89.2621 4.26935ZM67.6585 7.02468V5.97761H64.6077V19.0307H67.6585V10.1134L71.2183 8.64758V5.59369H71.1832L67.6585 7.02468ZM55.8376 5.96585C53.8561 5.96585 52.2428 6.61154 51.0153 7.92034C50.4544 8.53112 50.0161 9.22914 49.7004 10.0493C49.4024 10.8521 49.2443 11.7072 49.2443 12.5971C49.2443 14.4295 49.7705 15.9476 50.8403 17.1169C52.0149 18.4082 53.6282 19.0364 55.6799 19.0364C57.6787 19.0364 59.2743 18.3908 60.4844 17.082C61.624 15.8429 62.2026 14.2898 62.2026 12.4052C62.2026 10.5205 61.6417 9.00228 60.5369 7.81564C59.3619 6.57663 57.8013 5.96585 55.8376 5.96585ZM58.2223 15.2496C57.6437 15.9651 56.8372 16.3316 55.8198 16.3316C54.7327 16.3316 53.8387 15.9651 53.1722 15.2322C52.8565 14.9006 52.6113 14.4818 52.4359 14.0107C52.2605 13.5395 52.1726 13.0508 52.1726 12.5273C52.1726 11.4803 52.4532 10.6078 53.0319 9.87483C53.6633 9.08953 54.5222 8.68819 55.6271 8.68819C56.7142 8.68819 57.5735 9.05465 58.1872 9.805C58.7659 10.5031 59.0639 11.4105 59.0639 12.5448C59.0816 13.6442 58.8009 14.5516 58.2223 15.2496ZM87.7167 5.97978H90.7503V19.0503H87.7167V5.97978ZM41.4262 5.96585C39.6903 5.96585 38.2701 6.47193 37.1652 7.48409C36.1307 8.44387 35.6046 9.64797 35.6046 11.0964C35.6046 12.3877 36.0605 13.4522 36.9725 14.3073C36.1833 14.9355 35.7975 15.6859 35.7975 16.5759C35.7975 17.1169 35.8677 17.588 35.9904 17.9894C36.1131 18.4082 36.3586 18.7572 36.7444 19.0713C35.3767 19.8217 34.7104 21.0433 34.763 22.7185C34.798 24.1669 35.4293 25.3187 36.6567 26.1912C37.8842 27.0638 39.5149 27.5 41.5137 27.5C43.5129 27.5 45.0033 27.1161 46.0202 26.3483C47.0372 25.5804 47.5457 24.481 47.5457 23.0326C47.5457 21.6017 47.1424 20.4848 46.336 19.6996C45.8976 19.2808 45.3364 18.9492 44.6525 18.6525C43.9512 18.3733 43.0044 18.129 41.777 17.937C40.5496 17.7451 39.6725 17.5357 39.1467 17.2739C38.9011 17.1692 38.7435 17.047 38.6733 16.9249C38.6032 16.8027 38.5681 16.6282 38.5681 16.4014C38.5681 16.1745 38.7257 15.8604 39.0237 15.459C39.7076 15.6859 40.4617 15.808 41.2685 15.808C42.9166 15.808 44.267 15.3194 45.3364 14.3248C45.8098 13.871 46.1783 13.3301 46.4412 12.7193C46.7041 12.1085 46.8271 11.4279 46.8271 10.6775C46.8271 9.92716 46.6517 9.21168 46.3009 8.54857C46.3009 8.54857 46.3009 8.53112 46.2832 8.53112H47.5634V5.96585H41.4262ZM39.3044 20.0835L39.9358 20.1882C41.7068 20.4499 42.9694 20.799 43.6883 21.2701C44.3371 21.6715 44.6525 22.2124 44.6525 22.8756C44.6525 24.2716 43.6532 24.9522 41.654 24.9522C40.4794 24.9522 39.5326 24.7079 38.7959 24.2367C38.4628 24.0273 38.1999 23.7656 38.0245 23.4689C37.8314 23.1722 37.7439 22.8407 37.7439 22.4393C37.7439 22.038 37.8665 21.6191 38.112 21.1829C38.3753 20.7291 38.7786 20.3801 39.3044 20.0835ZM43.127 12.5971C42.6359 13.0334 42.0573 13.2603 41.4088 13.2603C40.5318 13.2603 39.8306 13.016 39.287 12.5273C39.0415 12.3179 38.8661 12.0562 38.7257 11.7944C38.6031 11.5152 38.533 11.236 38.533 10.9393C38.533 10.6426 38.5854 10.346 38.7084 10.0493C39.0939 9.05465 39.9532 8.56603 41.3036 8.56603C42.1101 8.56603 42.7589 8.77543 43.2149 9.19426C43.6706 9.61306 43.9162 10.1715 43.9162 10.8521C43.8984 11.5152 43.6355 12.1085 43.127 12.5971ZM104.146 8.81034C104.374 9.40366 104.497 10.1017 104.497 10.8521V19.0015H101.516V18.3908C100.622 18.7921 99.7977 19.0015 99.0436 19.0015C98.0968 19.0015 97.3077 18.9143 96.6415 18.7398C95.975 18.5653 95.4141 18.3035 94.9581 17.9719C94.0286 17.2739 93.5552 16.2792 93.5552 14.9879C93.5552 13.8361 94.1165 12.8589 95.2738 12.091C96.5186 11.2534 98.2194 10.8346 100.359 10.8346L100.85 10.8521C100.9 10.8521 100.951 10.8561 101.003 10.8603C101.06 10.8648 101.119 10.8695 101.183 10.8695C101.242 10.8779 101.297 10.8822 101.349 10.8864C101.407 10.891 101.461 10.8953 101.516 10.9044C101.446 9.61306 100.885 8.84522 99.8328 8.63582C99.4997 8.56603 99.1138 8.53112 98.7279 8.53112C98.3247 8.53112 97.9391 8.56603 97.5706 8.63582C97.1851 8.70564 96.8166 8.81034 96.4661 8.91504C95.6944 9.15935 95.1157 9.45599 94.7827 9.77013L94.7476 9.75267L94.3794 7.08271C95.7996 6.33232 97.3779 5.96585 99.0787 5.96585C101.726 5.96585 103.41 6.90822 104.146 8.81034ZM101.516 15.9128V14.2375V13.1032C101.288 13.0683 101.06 13.0508 100.832 13.0508H100.341C98.5529 13.0508 97.4129 13.4522 96.9218 14.2375C96.7819 14.4644 96.7117 14.7087 96.7117 14.9704C96.7117 15.2322 96.7641 15.459 96.8517 15.651C96.9569 15.8429 97.1149 16.0175 97.3254 16.1396C97.746 16.3839 98.3775 16.5061 99.2017 16.5061C100.026 16.5061 100.797 16.2967 101.516 15.9128ZM115.704 11.742C116.212 11.9863 116.633 12.283 116.949 12.632C117.528 13.2603 117.826 14.0979 117.826 15.1798C117.826 16.3141 117.37 17.239 116.458 17.9545C115.511 18.7049 114.178 19.0713 112.46 19.0713C110.391 19.0713 108.778 18.7223 107.638 18.0417V14.8308C107.638 14.8134 107.708 14.8832 107.831 15.0228C107.954 15.1624 108.199 15.3194 108.532 15.5289C108.865 15.7382 109.269 15.9128 109.707 16.0698C110.671 16.4014 111.671 16.5584 112.723 16.5584C114.126 16.5584 114.827 16.0873 114.827 15.1624C114.827 14.8657 114.687 14.6389 114.424 14.4992C113.951 14.2549 113.249 14.063 112.32 13.9408C111.39 13.8012 110.636 13.6267 110.04 13.3824C109.444 13.1381 108.953 12.8414 108.585 12.5099C107.901 11.8642 107.55 11.0266 107.55 9.99698C107.55 8.74052 108.041 7.74585 109.006 7.03038C109.97 6.31486 111.303 5.96585 113.004 5.96585C114.687 5.96585 116.125 6.43702 117.317 7.39681C117.265 7.60624 117.212 7.81564 117.142 8.00758C116.949 8.54857 116.809 8.9325 116.721 9.15935L116.441 9.87483C116.423 9.94461 116.405 9.97953 116.405 9.97953C116.388 9.97953 116.318 9.89228 116.212 9.71776C115.704 9.12444 114.897 8.74052 113.828 8.54857C113.495 8.47875 113.161 8.44387 112.811 8.44387C111.338 8.44387 110.601 8.88013 110.601 9.77013C110.601 10.0668 110.742 10.3111 111.057 10.4681C111.636 10.7822 112.425 11.0091 113.424 11.1487C114.424 11.3058 115.178 11.4977 115.704 11.742ZM78.7912 5.96585C77.0553 5.96585 75.6347 6.47193 74.5302 7.48409C73.4955 8.44387 72.9697 9.64797 72.9697 11.0964C72.9697 12.3877 73.4254 13.4522 74.3375 14.3073C73.5483 14.9355 73.1625 15.6859 73.1625 16.5759C73.1625 17.1169 73.2326 17.588 73.3552 17.9894C73.4782 18.4082 73.7237 18.7572 74.1093 19.0713C72.7415 19.8217 72.0753 21.0433 72.1278 22.7185C72.1629 24.1669 72.7943 25.3187 74.0217 26.1912C75.2492 27.0638 76.8799 27.5 78.8787 27.5C80.8779 27.5 82.3683 27.1161 83.3852 26.3483C84.4022 25.5804 84.9107 24.481 84.9107 23.0326C84.9107 21.6017 84.5074 20.4848 83.701 19.6996C83.2626 19.2808 82.7014 18.9492 82.0175 18.6525C81.3162 18.3733 80.3694 18.129 79.142 17.937C77.9146 17.7451 77.0375 17.5357 76.5117 17.2739C76.2661 17.1692 76.1085 17.047 76.0383 16.9249C75.9681 16.8027 75.9331 16.6282 75.9331 16.4014C75.9331 16.1745 76.0907 15.8604 76.3887 15.459C77.0726 15.6859 77.8267 15.808 78.6331 15.808C80.2816 15.808 81.6316 15.3194 82.7014 14.3248C83.1748 13.871 83.5429 13.3301 83.8062 12.7193C84.0691 12.1085 84.1917 11.4279 84.1917 10.6775C84.1917 9.92716 84.0167 9.21168 83.6659 8.54857C83.6659 8.54857 83.6659 8.53112 83.6482 8.53112H84.9284V5.96585H78.7912ZM76.6694 20.0835L77.3008 20.1882C79.0718 20.4499 80.3344 20.799 81.0529 21.2701C81.7017 21.6715 82.0175 22.2124 82.0175 22.8756C82.0175 24.2716 81.0182 24.9522 79.019 24.9522C77.8444 24.9522 76.8972 24.7079 76.1609 24.2367C75.8278 24.0273 75.5649 23.7656 75.3895 23.4689C75.1964 23.1722 75.1089 22.8407 75.1089 22.4393C75.1089 22.038 75.2315 21.6191 75.477 21.1829C75.7399 20.7291 76.1436 20.3801 76.6694 20.0835ZM80.492 12.5971C80.0009 13.0334 79.4223 13.2603 78.7735 13.2603C77.8968 13.2603 77.1956 13.016 76.652 12.5273C76.4065 12.3179 76.2311 12.0562 76.0907 11.7944C75.9681 11.5152 75.898 11.236 75.898 10.9393C75.898 10.6426 75.9504 10.346 76.0734 10.0493C76.4589 9.05465 77.3182 8.56603 78.6682 8.56603C79.4751 8.56603 80.1239 8.77543 80.5795 9.19426C81.0356 9.61306 81.2812 10.1715 81.2812 10.8521C81.2634 11.5152 81.0005 12.1085 80.492 12.5971Z" fill="#68718D"/>
</svg>
