<svg width="121" height="34" viewBox="0 0 121 34" fill="none" xmlns="http://www.w3.org/2000/svg">
<path d="M118.627 8.21533C118.019 8.21533 117.544 8.70919 117.544 9.29801V14.2935C116.405 13.2869 114.923 12.679 113.271 12.679C109.718 12.679 106.831 15.5662 106.831 19.1181C106.831 22.6702 109.718 25.5573 113.271 25.5573C116.822 25.5573 119.71 22.6702 119.71 19.1181V9.29801C119.71 8.70919 119.216 8.21533 118.627 8.21533ZM117.525 19.1181C117.525 21.4735 115.607 23.3919 113.251 23.3919C110.896 23.3919 108.978 21.4735 108.978 19.1181C108.978 16.7629 110.896 14.8444 113.251 14.8444C115.626 14.8634 117.525 16.7818 117.525 19.1181Z" fill="#68718D"/>
<path d="M97.0358 19.1183C97.0358 15.5664 94.1487 12.6792 90.5968 12.6792C87.0447 12.6792 84.1576 15.5664 84.1576 19.1183C84.1576 22.6703 87.0447 25.5575 90.5968 25.5575C92.2303 25.5575 93.7309 24.9496 94.8704 23.9429V24.4748C94.8704 25.0826 95.3644 25.5575 95.9531 25.5575C96.5611 25.5575 97.0358 25.0635 97.0358 24.4748V19.1183ZM90.5968 23.3921C88.2414 23.3921 86.323 21.4737 86.323 19.1183C86.323 16.763 88.2414 14.8446 90.5968 14.8446C92.952 14.8446 94.8704 16.763 94.8704 19.1183C94.8515 21.4737 92.952 23.3921 90.5968 23.3921Z" fill="#68718D"/>
<path d="M80.8284 12.6792C80.2207 12.6792 79.7459 13.1731 79.7459 13.7619V18.9664V19.1183C79.7459 21.4737 77.8273 23.3921 75.4721 23.3921C73.1167 23.3921 71.1983 21.4737 71.1983 19.1183V18.9664V13.7619C71.1983 13.1541 70.7045 12.6792 70.1156 12.6792C69.5078 12.6792 69.0329 13.1731 69.0329 13.7619V18.9664V19.1183C69.0329 22.2903 71.3503 24.9496 74.3894 25.4624V28.9384C74.3894 29.5462 74.8832 30.0211 75.4721 30.0211C76.0799 30.0211 76.5548 29.5273 76.5548 28.9384V25.4624C79.5938 24.9496 81.9111 22.2903 81.9111 19.1183V18.9664V13.7619C81.9111 13.1731 81.4173 12.6792 80.8284 12.6792Z" fill="#68718D"/>
<path d="M106.777 13.5907C106.777 13.5528 106.758 13.4958 106.739 13.4388C106.682 13.2868 106.606 13.1349 106.492 13.0209C106.397 12.9259 106.283 12.85 106.15 12.793C106.017 12.736 105.865 12.698 105.732 12.698C103.985 12.698 102.351 13.3818 101.135 14.6355C99.9387 15.851 99.2929 17.4466 99.2929 19.1561V24.5126C99.2929 25.1204 99.7868 25.5953 100.376 25.5953C100.964 25.5953 101.458 25.1013 101.458 24.5126V19.1561C101.458 16.8009 103.377 14.8823 105.732 14.8823C106.321 14.8823 106.815 14.3885 106.815 13.7997C106.796 13.7047 106.777 13.6477 106.777 13.5907Z" fill="#68718D"/>
<path d="M50.6028 12.6792C49.9949 12.6792 49.5201 13.1731 49.5201 13.7619V24.4748C49.5201 25.0826 50.0139 25.5575 50.6028 25.5575C51.2106 25.5575 51.6855 25.0635 51.6855 24.4748V13.7619C51.6855 13.1541 51.1915 12.6792 50.6028 12.6792Z" fill="#68718D"/>
<path d="M46.6588 12.793C46.1269 12.5271 45.4622 12.736 45.1961 13.2869L40.8085 22.0433L36.4207 13.2869C36.1549 12.755 35.4901 12.5271 34.9582 12.793C34.4263 13.0589 34.1984 13.7238 34.4644 14.2555L39.8207 24.9684C40.0107 25.3293 40.3717 25.5763 40.7895 25.5763C41.2074 25.5763 41.5682 25.3484 41.7582 24.9684L47.1147 14.2555C47.4185 13.7047 47.2096 13.0589 46.6588 12.793Z" fill="#68718D"/>
<path d="M65.7144 8.21533C65.1065 8.21533 64.6317 8.70919 64.6317 9.29801V14.2935C63.492 13.2869 62.0104 12.679 60.3579 12.679C56.806 12.679 53.9188 15.5662 53.9188 19.1181C53.9188 22.6702 56.806 25.5573 60.3579 25.5573C63.9098 25.5573 66.7971 22.6702 66.7971 19.1181V9.29801C66.7971 8.70919 66.3031 8.21533 65.7144 8.21533ZM64.6126 19.1181C64.6126 21.4735 62.6942 23.3919 60.3388 23.3919C57.9836 23.3919 56.0652 21.4735 56.0652 19.1181C56.0652 16.7629 57.9836 14.8444 60.3388 14.8444C62.7133 14.8634 64.6126 16.7818 64.6126 19.1181Z" fill="#68718D"/>
<path d="M16.0271 5.40411C17.1477 5.40411 18.2304 5.53708 19.2751 5.803C19.5411 5.87899 19.826 5.70802 19.94 5.4611C20.0728 5.13819 19.883 4.77729 19.5411 4.70132C18.4203 4.4164 17.2427 4.28345 16.0271 4.28345C14.8304 4.28345 13.6907 4.4354 12.5701 4.70132C12.2282 4.77729 12.0572 5.13819 12.1712 5.4611C12.2661 5.72702 12.5511 5.87899 12.836 5.803C13.8617 5.53708 14.9254 5.40411 16.0271 5.40411Z" fill="#68718D"/>
<path d="M23.0325 6.94261C22.9945 7.17054 23.1085 7.39846 23.2983 7.51243C27.2112 9.98172 29.7755 14.4074 29.6425 19.403C29.4526 26.6588 23.4883 32.5471 16.2325 32.6611C8.61564 32.775 2.40446 26.6209 2.40446 19.042C2.40446 14.1795 4.9687 9.90573 8.80559 7.49345C8.99554 7.37948 9.1095 7.15154 9.07151 6.92361C9.01453 6.52472 8.55867 6.31578 8.21676 6.52472C3.86704 9.25992 1.01786 14.1795 1.28379 19.7449C1.62569 27.3047 7.76089 33.4399 15.3207 33.8007C23.7732 34.1996 30.8012 27.4187 30.8012 19.042C30.8012 13.7996 28.0469 9.18395 23.9061 6.56272C23.5642 6.31578 23.1085 6.54372 23.0325 6.94261Z" fill="#68718D"/>
<path d="M19.0766 10.8176C18.3549 10.6656 17.6141 10.5707 16.8923 10.5327C16.6074 10.5137 16.3034 10.5137 16.0185 10.5137C15.1258 10.5137 14.2331 10.5897 13.3783 10.7416C11.5548 11.0645 9.75036 11.7103 8.15482 12.6601C7.11012 13.2679 6.12241 14.0086 5.24868 14.8633C5.02074 15.0724 4.90677 15.3762 4.94476 15.6802L6.35035 26.9629C8.64868 29.7551 12.1247 31.5405 15.9995 31.5405C19.8934 31.5405 23.3693 29.7551 25.6487 26.9629L25.8577 25.2533C27.1872 24.5506 28.0041 23.126 28.0041 21.5114C28.0041 20.2959 27.5292 19.1562 26.7125 18.3773L27.0544 15.6802C27.0923 15.3762 26.9974 15.0913 26.7695 14.8824C25.5158 13.6668 24.0342 12.6791 22.4577 11.9383C21.432 11.4254 20.2542 11.0455 19.0766 10.8176ZM14.6699 24.5125C14.252 24.7405 13.7772 24.8545 13.2453 24.8545C11.4599 24.8545 10.1112 23.4109 10.1112 21.4925C10.1112 19.574 11.4599 18.1305 13.2453 18.1305C14.0431 18.1305 14.746 18.4154 15.2777 18.8902C15.9615 19.4981 16.3795 20.4287 16.3795 21.4925C16.3795 22.8411 15.6957 23.9617 14.6699 24.5125ZM25.4968 24.5125C25.0788 24.7405 24.6041 24.8545 24.0722 24.8545C22.2868 24.8545 20.938 23.4109 20.938 21.4925C20.938 19.574 22.2868 18.1305 24.0722 18.1305C24.8699 18.1305 25.5728 18.4154 26.1046 18.8902C26.7884 19.4981 27.2063 20.4287 27.2063 21.4925C27.2252 22.8411 26.5415 23.9617 25.4968 24.5125Z" fill="#68718D"/>
<path d="M10.9135 11.3684C10.5716 9.14602 10.2108 6.82871 9.90684 4.98623C9.03309 5.02423 8.21633 4.45439 7.96941 3.58064C7.68449 2.55495 8.3303 1.49126 9.37499 1.22534C10.3627 0.997405 11.4074 1.60523 11.6543 2.59294C11.8823 3.46669 11.4644 4.35942 10.6856 4.75831L13.0029 10.7795C12.3191 10.9315 11.6163 11.1214 10.9135 11.3684Z" fill="#68718D"/>
<path d="M19.0794 10.7985L21.3967 4.77722C20.618 4.37835 20.2001 3.4666 20.428 2.59286C20.7129 1.56716 21.7766 0.959338 22.8213 1.26325C23.7331 1.52917 24.3218 2.49789 24.1509 3.42862C23.961 4.39733 23.1063 5.02416 22.1755 4.98616C21.8906 6.84762 21.5297 9.14595 21.1688 11.3873C20.504 11.1594 19.8012 10.9504 19.0794 10.7985Z" fill="#68718D"/>
<path d="M14.6813 24.5124C14.2634 24.7404 13.7885 24.8543 13.2567 24.8543C11.4712 24.8543 10.1226 23.4108 10.1226 21.4924C10.1226 19.5739 11.4712 18.1304 13.2567 18.1304C14.0544 18.1304 14.7573 18.4153 15.289 18.8901C15.9728 19.498 16.3908 20.4286 16.3908 21.4924C16.3908 22.841 15.707 23.9616 14.6813 24.5124Z" fill="white"/>
<path d="M25.508 24.5124C25.0903 24.7404 24.6153 24.8543 24.0834 24.8543C22.298 24.8543 20.9495 23.4108 20.9495 21.4924C20.9495 19.5739 22.298 18.1304 24.0834 18.1304C24.8812 18.1304 25.5841 18.4153 26.116 18.8901C26.7998 19.498 27.2176 20.4286 27.2176 21.4924C27.2366 22.841 26.5528 23.9616 25.508 24.5124Z" fill="white"/>
<path d="M24.3451 20.239C24.1362 19.935 23.8513 19.764 23.5283 19.764C23.2054 19.745 22.9395 19.8971 22.7116 20.2009C22.7116 20.2009 22.7116 20.2009 22.7116 20.2199C22.5026 20.5428 22.3697 20.9228 22.3697 21.3785C22.3507 21.8344 22.4837 22.2333 22.6926 22.5563C22.9205 22.8791 23.1675 23.031 23.4903 23.0501C23.8132 23.0501 24.0981 22.8982 24.3261 22.5752C24.554 22.2713 24.687 21.8914 24.687 21.4166C24.6489 20.9417 24.573 20.5809 24.3451 20.239ZM23.7183 21.2645C23.5094 21.2645 23.3194 21.0936 23.3194 20.8658C23.3194 20.6567 23.4903 20.4669 23.7183 20.4669C23.9272 20.4669 24.1172 20.6378 24.1172 20.8658C24.1172 21.0936 23.9462 21.2645 23.7183 21.2645Z" fill="#68718D"/>
<path d="M13.5076 20.239C13.2987 19.935 13.0138 19.764 12.6909 19.764C12.3679 19.745 12.102 19.8971 11.8741 20.2009C11.8741 20.2009 11.8741 20.2009 11.8741 20.2199C11.6651 20.5428 11.5322 20.9228 11.5322 21.3785C11.5132 21.8344 11.6462 22.2333 11.8551 22.5563C12.083 22.8791 12.33 23.031 12.6529 23.0501C12.9758 23.0501 13.2607 22.8982 13.4886 22.5752C13.7166 22.2713 13.8495 21.8914 13.8495 21.4166C13.8115 20.9417 13.7355 20.5809 13.5076 20.239ZM12.8808 21.2645C12.6719 21.2645 12.4819 21.0936 12.4819 20.8658C12.4819 20.6567 12.6529 20.4669 12.8808 20.4669C13.0897 20.4669 13.2797 20.6378 13.2797 20.8658C13.2797 21.0936 13.1087 21.2645 12.8808 21.2645Z" fill="#68718D"/>
</svg>
