<svg width="212" height="24" viewBox="0 0 212 24" fill="none" xmlns="http://www.w3.org/2000/svg">
<g clip-path="url(#clip0_1311_5960)">
<path d="M159.214 1.44287H157.779V2.90332C157.779 3.27887 157.943 3.73786 158.681 3.73786H160.115V2.27741C160.115 1.9436 159.992 1.44287 159.214 1.44287Z" fill="#68718D"/>
<path d="M159.09 6.1582H157.943V18.2173C157.943 18.7181 158.27 19.0519 158.721 19.0936V19.1353H160.033V7.03447C159.992 6.49202 159.705 6.1582 159.09 6.1582Z" fill="#68718D"/>
<path d="M89.6736 15.5885C89.1819 15.0878 88.5672 15.213 88.1984 15.5468C86.6822 16.8403 85.289 17.341 83.4859 17.341C79.8799 17.341 77.0114 14.2532 77.0114 10.2892C77.0114 6.32508 79.7979 3.279 83.4859 3.279C85.248 3.279 86.7232 3.82146 88.1164 5.03154C88.4443 5.32363 89.0179 5.44882 89.4277 4.98982C89.7965 4.61427 90.1653 4.197 90.1653 4.197L90.2473 4.11355L90.1653 4.03009C88.6901 2.56964 86.8461 1.23438 83.4859 1.23438C78.6096 1.23438 74.8396 5.24018 74.8396 10.3309C74.8396 15.4633 78.5276 19.344 83.445 19.344C86.1905 19.344 88.1984 18.426 90.2473 16.2561L90.2883 16.1727L90.2473 16.0892C90.2473 16.1727 90.1243 16.0058 89.6736 15.5885Z" fill="#68718D"/>
<path d="M120.817 5.86617C119.013 5.86617 117.579 6.65898 116.473 8.24462C115.981 7.24316 114.834 5.78271 112.457 5.78271C110.408 5.78271 109.302 6.86762 108.482 7.95253V7.03453C108.482 6.40862 108.113 6.03308 107.54 6.03308H106.392V19.0102H107.54C108.113 19.0102 108.441 18.8433 108.441 18.1339V11.6662C108.441 9.41298 109.875 7.74389 111.801 7.74389C113.768 7.74389 114.916 9.12089 114.916 11.4576V18.1339C114.916 18.7599 115.244 19.0519 115.817 19.0519H116.965V11.6245C116.965 8.95398 118.645 7.78562 120.325 7.78562C122.333 7.78562 123.48 9.16261 123.48 11.4993V18.0088C123.48 18.5512 123.603 19.0519 124.423 19.0519H125.529V11.0821C125.57 7.86907 123.767 5.86617 120.817 5.86617Z" fill="#68718D"/>
<path d="M135.61 5.90771C133.725 5.90771 132.168 6.74226 130.897 8.53652V7.20126C130.897 6.53362 130.528 6.19981 129.873 6.19981H128.848V22.1396C128.848 22.7655 129.135 23.0576 129.75 23.0576H130.897V16.882C132.168 18.551 133.684 19.3856 135.61 19.3856C138.56 19.3856 141.674 17.0071 141.674 12.6258C141.674 8.24443 138.56 5.90771 135.61 5.90771ZM139.544 12.6258C139.544 15.4632 137.782 17.4244 135.241 17.4244C133.069 17.4244 130.815 15.5884 130.815 12.5841C130.815 9.5797 133.069 7.74371 135.241 7.74371C137.372 7.78544 139.544 9.45452 139.544 12.6258Z" fill="#68718D"/>
<path d="M173.514 7.07626V8.16116C172.653 7.03453 171.137 5.78271 168.719 5.78271C167.203 5.78271 165.687 6.36689 164.581 7.41007C163.392 8.53671 162.737 10.1641 162.737 11.9166C162.737 15.8807 165.81 18.0088 168.719 18.0088C170.604 18.0088 172.203 17.216 173.555 15.5469V16.7987C173.555 19.6361 171.916 21.2635 169.129 21.2635C167.777 21.2635 166.466 20.9297 165.236 20.2203C164.909 20.0117 164.663 19.9282 164.458 19.9282C164.212 19.9282 163.966 20.0534 163.802 20.3455C163.474 20.8879 163.351 21.1383 163.351 21.1383L163.31 21.2218L163.392 21.2635C165.072 22.4736 166.998 23.0578 169.129 23.0578C173.227 23.0578 175.604 20.7628 175.604 16.757V6.11653H174.456C174.088 6.11653 173.514 6.45035 173.514 7.07626ZM173.637 12.0418C173.637 14.7123 171.342 16.298 169.129 16.298C166.712 16.298 164.909 14.462 164.909 12.0418C164.909 9.57989 166.712 7.82734 169.129 7.82734C171.301 7.78562 173.637 9.24607 173.637 12.0418Z" fill="#68718D"/>
<path d="M185.274 5.90771C183.471 5.90771 182.078 6.6588 181.095 8.16098V7.07607C181.095 6.45017 180.603 6.19981 180.111 6.19981H178.964V19.1769H181.054L181.013 11.7495C181.013 9.45452 182.529 7.86889 184.701 7.86889C186.832 7.86889 188.061 9.24589 188.061 11.6243V18.3007C188.061 18.9266 188.348 19.1769 188.881 19.1769H190.11V11.0819C190.151 7.91062 188.266 5.90771 185.274 5.90771Z" fill="#68718D"/>
<path d="M149.378 5.94946C147.78 5.94946 146.345 6.28328 144.788 6.99264L144.706 7.03437L144.747 7.11782C144.747 7.11782 144.952 7.702 145.116 8.11927C145.28 8.53655 145.772 8.57827 146.141 8.41136C147.206 7.99409 148.148 7.78546 149.214 7.78546C151.55 7.78546 152.82 8.99554 152.82 11.1654V14.2949C152.82 16.2561 151.099 17.6331 148.722 17.6331C147.247 17.6331 145.649 16.882 145.649 15.2129C145.649 13.6273 146.919 12.751 149.214 12.751H150.238C150.853 12.751 151.14 12.4589 151.14 11.8747V11.1654H149.009C145.526 11.1654 143.559 12.6675 143.559 15.2546C143.559 17.2158 145.034 19.3856 148.353 19.3856C150.156 19.3856 151.673 18.6762 152.779 17.341V18.2172C152.779 18.8014 153.066 19.0518 153.68 19.0518H154.828V11.1236C154.787 7.82718 152.861 5.94946 149.378 5.94946Z" fill="#68718D"/>
<path d="M97.7877 5.94946C95.8207 5.94946 94.4275 6.45019 93.1982 6.99264L93.1162 7.0761L93.1572 7.15955C93.1572 7.15955 93.3621 7.74373 93.526 8.161C93.6899 8.57827 94.1816 8.62 94.5504 8.45309C95.6159 8.03582 96.5583 7.82718 97.6238 7.82718C99.9595 7.82718 101.271 9.03727 101.271 11.2071V14.2949C101.271 16.2561 99.5497 17.6331 97.173 17.6331C95.6978 17.6331 94.1407 16.882 94.1407 15.2129C94.1407 13.6273 95.411 12.751 97.6648 12.751H98.6892C99.3039 12.751 99.5907 12.4589 99.5907 11.8747V11.1654H97.5008C94.0177 11.1654 92.0098 12.6675 92.0098 15.2546C92.0098 17.2158 93.485 19.3856 96.7632 19.3856C98.5663 19.3856 100.082 18.6762 101.23 17.341V18.2172C101.23 18.8014 101.517 19.0518 102.09 19.0518H103.238V11.1236C103.197 7.82718 101.271 5.94946 97.7877 5.94946Z" fill="#68718D"/>
<path d="M211.214 10.7899C210.927 10.5396 199.249 2.23585 198.716 1.90204L198.552 1.77686V3.82148C198.552 4.48912 198.88 4.69775 199.29 5.03157L199.372 5.0733C199.945 5.49057 208.264 11.3741 209.37 12.1669C208.264 12.9597 199.822 18.9267 199.29 19.2605C198.634 19.6778 198.593 19.9699 198.593 20.5541V22.5152C198.593 22.5152 211.009 13.7108 211.255 13.5022C211.829 13.0849 211.952 12.5425 211.952 12.2086V11.9583C211.952 11.541 211.706 11.1237 211.214 10.7899Z" fill="#68718D"/>
<path d="M203.919 13.0848C204.247 13.0848 204.575 12.9596 204.902 12.7092C205.312 12.4171 205.681 12.1668 205.681 12.1668L205.804 12.0833L205.681 11.9999C205.64 11.9581 200.19 8.11924 199.616 7.74369C199.37 7.53506 199.043 7.49333 198.838 7.61851C198.633 7.74369 198.469 7.95233 198.469 8.28614V9.57969L198.51 9.62141C198.551 9.66314 202.28 12.2919 203.017 12.7927C203.345 13.0013 203.632 13.0848 203.919 13.0848Z" fill="#68718D"/>
<path d="M30.1329 16.1311C29.6822 15.6721 29.1085 15.9642 28.8626 16.1728C27.9201 17.0491 26.8547 17.4663 25.7073 17.4663C23.2077 17.4663 21.2407 15.3383 21.2407 12.5843C21.2407 9.872 23.1667 7.74391 25.5844 7.74391C26.9776 7.74391 27.8791 8.36982 28.6167 8.954C29.1494 9.413 29.6002 9.45472 29.969 9.03745C30.2968 8.70364 30.6656 8.28636 30.6656 8.28636L30.7476 8.20291L30.6656 8.11946C29.2314 6.53382 27.6333 5.82446 25.5844 5.82446C21.9373 5.82446 19.0279 8.78709 19.0279 12.5843C19.0279 16.298 21.9783 19.3441 25.5844 19.3441C28.2479 19.3441 29.7641 17.9671 30.7476 16.7987H30.8295L30.7476 16.7152C30.7476 16.7152 30.5427 16.5483 30.1329 16.1311Z" fill="#68718D"/>
<path d="M43.7369 1.44287H42.3026V2.90332C42.3026 3.27887 42.4666 3.73786 43.2042 3.73786H44.6384V2.44432C44.6794 1.86014 44.3106 1.44287 43.7369 1.44287Z" fill="#68718D"/>
<path d="M43.5738 6.1582H42.3855V18.2173C42.3855 18.7181 42.7133 19.0519 43.164 19.0936V19.1353H44.4753V7.03447C44.5163 6.49202 44.1885 6.1582 43.5738 6.1582Z" fill="#68718D"/>
<path d="M57.0549 6.86752C56.891 7.32652 53.7767 15.0043 53.1621 16.423C52.5884 14.9626 49.4741 7.28479 49.3101 6.86752C49.1053 6.3668 48.6955 6.07471 48.1628 6.07471H46.6876L46.7695 6.19989C46.8105 6.3668 51.7688 18.0087 51.9737 18.4677C52.1786 19.0101 52.5064 19.1353 53.0391 19.1353H53.285C53.7767 19.1353 54.1045 18.9267 54.3094 18.4677C54.5143 18.0087 59.4726 6.45025 59.5136 6.32507L59.5956 6.15816H58.1613C57.6286 6.15816 57.2598 6.3668 57.0549 6.86752Z" fill="#68718D"/>
<path d="M69.8821 11.8747H65.0057C64.473 11.8747 64.1452 12.2085 64.1452 12.7509V13.5855H64.2681C66.6039 13.5438 69.3084 13.5438 70.4148 13.5438C71.0704 13.5438 71.5622 13.3769 71.931 13.0013C72.2588 12.6258 72.4227 12.0416 72.3817 11.374C72.0129 8.03578 69.6772 5.86597 66.4809 5.86597C62.9978 5.86597 60.3343 8.78687 60.3343 12.6258C60.3343 16.5064 63.0798 19.3856 66.7268 19.3856C68.8576 19.3856 70.4558 18.6345 71.972 16.9654L72.0539 16.8819L71.972 16.7985C71.972 16.7985 71.6851 16.5481 71.3573 16.256C70.8656 15.8388 70.4148 16.0057 70.1689 16.256C69.2674 17.0906 68.161 17.5078 66.8088 17.5078C64.473 17.5078 62.7519 15.797 62.4651 13.2517C62.4651 13.2517 62.4241 12.9596 62.4241 12.584C62.4241 12.1668 62.4651 11.8747 62.4651 11.8747C62.711 9.37105 64.3501 7.61851 66.44 7.61851C68.5298 7.61851 70.046 9.03723 70.2509 11.207C70.2919 11.4157 70.2509 11.5826 70.2099 11.666C70.087 11.8329 70.005 11.8747 69.8821 11.8747Z" fill="#68718D"/>
<path d="M10.9552 2.11051C10.7094 1.60978 10.4225 1.44287 9.88981 1.44287H9.39808C8.9883 1.44287 8.6195 1.69323 8.41461 2.06878C8.2507 2.44432 1.03861 18.8014 0.95665 18.9683L0.874695 19.1352H2.22696C2.80065 19.1352 3.16945 18.8848 3.4563 18.3006C3.70216 17.7999 4.89052 15.0459 5.09541 14.5869H10.3815C11.0372 14.5869 11.447 14.1697 11.447 13.5437V12.6257H5.91497L9.64395 4.11341C10.4225 5.86595 15.6267 17.9668 15.8726 18.4675C16.2004 19.1352 16.979 19.1352 17.2248 19.1352H18.4542L18.3722 18.9683C18.3722 18.8014 11.2011 2.65296 10.9552 2.11051Z" fill="#68718D"/>
<path d="M39.3523 17.2577C39.1474 17.1325 38.8606 17.0908 38.5737 17.1743C38.123 17.2995 37.7951 17.3829 37.3854 17.3829C36.0741 17.3829 35.3775 16.7153 35.3775 15.3383V8.03603H39.3523V7.15976C39.3523 6.49212 38.7786 6.1583 38.2869 6.1583H35.3365V2.48632C35.3365 1.90213 34.9267 1.48486 34.312 1.48486H33.2876V15.6304C33.2876 18.0088 34.5579 19.3441 36.9346 19.3441C37.8361 19.3441 38.8606 19.1355 39.5162 18.8016L39.5572 18.7599V18.7182C39.5572 18.7182 39.5982 18.3426 39.5982 17.8836C39.6391 17.5498 39.4752 17.3829 39.3523 17.2577Z" fill="#68718D"/>
</g>
<defs>
<clipPath id="clip0_1311_5960">
<rect width="211.446" height="22.1154" fill="white" transform="translate(0.505615 0.942383)"/>
</clipPath>
</defs>
</svg>
