<svg width="113" height="24" viewBox="0 0 113 24" fill="none" xmlns="http://www.w3.org/2000/svg">
<g clip-path="url(#clip0_1311_5981)">
<path d="M39.3084 12.4943V22.5338C39.3084 22.8596 39.0419 23.1248 38.7145 23.1248H34.3557C34.027 23.1248 33.7618 22.8596 33.7618 22.5338V6.68018C33.7618 6.35437 34.0283 6.08917 34.3557 6.08917H38.7145C39.0419 6.08917 39.3084 6.35437 39.3084 6.68018V7.92912C40.4035 6.56652 41.944 5.71411 44.1012 5.71411C46.1214 5.71411 47.8675 6.53243 48.9283 8.06551C50.229 6.53243 52.0778 5.71411 54.3378 5.71411C58.1726 5.71411 60.8082 7.96322 60.8082 12.2556V22.5338C60.8082 22.8596 60.5417 23.1248 60.2143 23.1248H55.8555C55.5268 23.1248 55.2616 22.8596 55.2616 22.5338V13.4149C55.2616 11.5408 54.2008 10.6215 52.7618 10.6215C51.5639 10.6215 50.6046 11.3716 50.0564 12.4955V22.5351C50.0564 22.8609 49.7899 23.1261 49.4625 23.1261H45.1037C44.775 23.1261 44.5098 22.8609 44.5098 22.5351V13.4161C44.5098 11.5421 43.449 10.6227 42.01 10.6227C40.7778 10.6227 39.8528 11.3729 39.3046 12.4968" fill="#68718D"/>
<path d="M68.0979 23.466C64.8798 23.466 62.1744 21.3532 62.1744 18.0825C62.1744 15.0845 64.1603 13.6866 67.858 12.7331L72.5836 11.5069C72.4466 10.383 71.5558 9.83746 70.118 9.83746C68.844 9.83746 67.9278 10.3224 67.5053 11.2922C67.3872 11.5625 67.1043 11.7216 66.815 11.6534L63.0703 10.7669C62.7251 10.6848 62.5234 10.3186 62.6465 9.98774C63.7213 7.09332 66.7084 5.57666 70.3223 5.57666C75.1837 5.57666 77.9919 7.85986 77.9919 11.8795V22.5327C77.9919 22.8598 77.7254 23.1237 77.398 23.1237H73.265C72.9427 23.1237 72.6788 22.8674 72.6712 22.5466L72.6508 21.6589L72.6166 21.693C71.2131 22.8851 69.8439 23.4647 68.0966 23.4647M69.5001 19.2052C70.2195 19.2052 70.7665 19.0006 71.5887 18.5232L72.5468 17.9436L72.5811 15.183L70.1155 15.865C68.4379 16.3423 67.6842 16.7515 67.6842 17.7049C67.6842 18.7607 68.608 19.2039 69.4988 19.2039" fill="#68718D"/>
<path d="M86.848 15.0845L85.1704 16.6176V22.5339C85.1704 22.861 84.9039 23.1249 84.5765 23.1249H80.3205C79.9918 23.1249 79.7266 22.8597 79.7266 22.5339V1.09101C79.7266 0.765195 79.9931 0.5 80.3205 0.5H84.5765C84.9039 0.5 85.1704 0.765195 85.1704 1.09101V10.7908L90.1358 6.24463C90.2449 6.14487 90.3896 6.08804 90.5381 6.08804H95.7928C96.3359 6.08804 96.5935 6.75229 96.1938 7.11599L91.0951 11.7443L96.9095 22.2485C97.1277 22.6425 96.8409 23.1249 96.3892 23.1249H91.4213C91.2005 23.1249 90.9962 23.0024 90.8946 22.8067L86.8492 15.0832L86.848 15.0845Z" fill="#68718D"/>
<path d="M104.909 23.5001C100.15 23.5001 95.8018 20.5362 95.8018 14.539C95.8018 8.8828 99.9792 5.61206 104.566 5.61206C109.154 5.61206 112.784 8.9169 112.92 14.1299C112.935 14.6805 112.944 15.0644 112.949 15.3371C112.954 15.668 112.686 15.9357 112.355 15.9357H101.28C101.451 17.9803 103.094 19.2747 105.183 19.2747C106.669 19.2747 107.887 18.6597 108.741 17.5484C108.93 17.3021 109.279 17.2453 109.538 17.4183L112.304 19.262C112.581 19.4464 112.65 19.8202 112.463 20.0942C110.981 22.2651 108.537 23.5001 104.91 23.5001M101.384 12.5968H107.376C107.342 10.6546 105.904 9.80341 104.398 9.80341C102.994 9.80341 101.556 10.6217 101.385 12.5968" fill="#68718D"/>
<mask id="mask0_1311_5981" style="mask-type:luminance" maskUnits="userSpaceOnUse" x="20" y="6" width="6" height="18">
<path d="M20.7512 6.09937H25.0504C25.3778 6.09937 25.6442 6.36456 25.6442 6.69037V22.4846C25.6442 22.8104 25.3778 23.0756 25.0504 23.0756H20.7512C20.4238 23.0756 20.1573 22.8104 20.1573 22.4846V6.69037C20.1573 6.36456 20.4238 6.09937 20.7512 6.09937Z" fill="white"/>
</mask>
<g mask="url(#mask0_1311_5981)">
<path d="M24.9898 4.32625L14.6221 8.13062L20.8159 24.8478L31.1836 21.0434L24.9898 4.32625Z" fill="#68718D"/>
</g>
<mask id="mask1_1311_5981" style="mask-type:luminance" maskUnits="userSpaceOnUse" x="0" y="5" width="14" height="19">
<path d="M8.14007 6.30775L1.01365 20.4199C0.866456 20.7116 0.984468 21.0665 1.2776 21.213L5.1187 23.1337C5.41183 23.2802 5.76841 23.1628 5.91561 22.8711L13.042 8.75891C13.1892 8.46719 13.0712 8.11233 12.7781 7.96585L8.93697 6.04508C8.85068 6.00214 8.76059 5.98193 8.67049 5.98193C8.4535 5.98193 8.24413 6.10064 8.14007 6.30775Z" fill="white"/>
</mask>
<g mask="url(#mask1_1311_5981)">
<path d="M11.2494 1.51584L-5.46612 8.70752L2.80626 27.75L19.5217 20.5583L11.2494 1.51584Z" fill="#68718D"/>
</g>
<mask id="mask2_1311_5981" style="mask-type:luminance" maskUnits="userSpaceOnUse" x="11" y="5" width="9" height="19">
<path d="M14.1342 6.35841L11.0849 21.741C11.0214 22.0605 11.2295 22.3699 11.5506 22.4343L15.7648 23.2804C16.0871 23.3448 16.4018 23.1364 16.4652 22.8157L19.5145 7.43308C19.578 7.11359 19.3698 6.80419 19.0488 6.73979L14.8346 5.89369C14.7953 5.88611 14.7559 5.88232 14.7166 5.88232C14.4387 5.88232 14.19 6.0768 14.1342 6.35841Z" fill="white"/>
</mask>
<g mask="url(#mask2_1311_5981)">
<path d="M18.5574 3.12212L5.33327 7.9668L12.0439 26.1081L25.268 21.2634L18.5574 3.12212Z" fill="#68718D"/>
</g>
</g>
<defs>
<clipPath id="clip0_1311_5981">
<rect width="112" height="23" fill="white" transform="translate(0.951111 0.5)"/>
</clipPath>
</defs>
</svg>
