<svg width="212" height="24" viewBox="0 0 212 24" fill="none" xmlns="http://www.w3.org/2000/svg">
<g clip-path="url(#clip0_1004_3671)">
<path d="M158.702 1.44299H157.268V2.90344C157.268 3.27899 157.432 3.73799 158.169 3.73799H159.603V2.27754C159.603 1.94372 159.481 1.44299 158.702 1.44299Z" fill="#B6A2D7"/>
<path d="M158.578 6.1582H157.431V18.2173C157.431 18.7181 157.759 19.0519 158.21 19.0936V19.1353H159.521V7.03447C159.48 6.49202 159.193 6.1582 158.578 6.1582Z" fill="#B6A2D7"/>
<path d="M89.162 15.5885C88.6703 15.0878 88.0556 15.213 87.6868 15.5468C86.1706 16.8403 84.7774 17.341 82.9744 17.341C79.3683 17.341 76.4999 14.2532 76.4999 10.2892C76.4999 6.32509 79.2864 3.279 82.9744 3.279C84.7364 3.279 86.2116 3.82146 87.6048 5.03154C87.9327 5.32363 88.5064 5.44882 88.9161 4.98982C89.2849 4.61427 89.6537 4.197 89.6537 4.197L89.7357 4.11355L89.6537 4.03009C88.1785 2.56964 86.3345 1.23438 82.9744 1.23438C78.098 1.23438 74.328 5.24018 74.328 10.3309C74.328 15.4633 78.016 19.344 82.9334 19.344C85.6789 19.344 87.6868 18.426 89.7357 16.2561L89.7767 16.1727L89.7357 16.0892C89.7357 16.1727 89.6128 16.0058 89.162 15.5885Z" fill="#B6A2D7"/>
<path d="M120.305 5.86605C118.502 5.86605 117.068 6.65886 115.961 8.24449C115.47 7.24304 114.322 5.78259 111.945 5.78259C109.897 5.78259 108.79 6.8675 107.971 7.9524V7.03441C107.971 6.4085 107.602 6.03296 107.028 6.03296H105.881V19.0101H107.028C107.602 19.0101 107.93 18.8432 107.93 18.1338V11.6661C107.93 9.41285 109.364 7.74377 111.29 7.74377C113.257 7.74377 114.404 9.12076 114.404 11.4575V18.1338C114.404 18.7597 114.732 19.0518 115.306 19.0518H116.453V11.6244C116.453 8.95385 118.133 7.78549 119.813 7.78549C121.821 7.78549 122.968 9.16249 122.968 11.4992V18.0086C122.968 18.5511 123.091 19.0518 123.911 19.0518H125.017V11.0819C125.058 7.86895 123.255 5.86605 120.305 5.86605Z" fill="#B6A2D7"/>
<path d="M135.098 5.90784C133.213 5.90784 131.656 6.74238 130.386 8.53665V7.20138C130.386 6.53374 130.017 6.19993 129.361 6.19993H128.337V22.1397C128.337 22.7656 128.624 23.0577 129.238 23.0577H130.386V16.8821C131.656 18.5512 133.172 19.3857 135.098 19.3857C138.049 19.3857 141.163 17.0073 141.163 12.6259C141.163 8.24456 138.049 5.90784 135.098 5.90784ZM139.032 12.6259C139.032 15.4634 137.27 17.4245 134.729 17.4245C132.558 17.4245 130.304 15.5885 130.304 12.5842C130.304 9.57983 132.558 7.74383 134.729 7.74383C136.86 7.78556 139.032 9.45464 139.032 12.6259Z" fill="#B6A2D7"/>
<path d="M173.002 7.07613V8.16104C172.142 7.03441 170.626 5.78259 168.208 5.78259C166.692 5.78259 165.176 6.36677 164.069 7.40995C162.881 8.53658 162.225 10.1639 162.225 11.9165C162.225 15.8806 165.298 18.0086 168.208 18.0086C170.093 18.0086 171.691 17.2158 173.043 15.5467V16.7986C173.043 19.636 171.404 21.2634 168.618 21.2634C167.265 21.2634 165.954 20.9295 164.725 20.2202C164.397 20.0115 164.151 19.9281 163.946 19.9281C163.7 19.9281 163.454 20.0533 163.291 20.3454C162.963 20.8878 162.84 21.1382 162.84 21.1382L162.799 21.2216L162.881 21.2634C164.561 22.4735 166.487 23.0576 168.618 23.0576C172.715 23.0576 175.092 20.7626 175.092 16.7568V6.11641H173.945C173.576 6.11641 173.002 6.45023 173.002 7.07613ZM173.125 12.0417C173.125 14.7122 170.83 16.2978 168.618 16.2978C166.2 16.2978 164.397 14.4618 164.397 12.0417C164.397 9.57976 166.2 7.82722 168.618 7.82722C170.789 7.7855 173.125 9.24595 173.125 12.0417Z" fill="#B6A2D7"/>
<path d="M184.763 5.90784C182.96 5.90784 181.567 6.65893 180.583 8.1611V7.0762C180.583 6.45029 180.091 6.19993 179.6 6.19993H178.452V19.1771H180.542L180.501 11.7496C180.501 9.45464 182.017 7.86901 184.189 7.86901C186.32 7.86901 187.549 9.24601 187.549 11.6245V18.3008C187.549 18.9267 187.836 19.1771 188.369 19.1771H189.598V11.082C189.639 7.91074 187.754 5.90784 184.763 5.90784Z" fill="#B6A2D7"/>
<path d="M148.866 5.94958C147.268 5.94958 145.834 6.2834 144.277 6.99276L144.195 7.03449L144.236 7.11794C144.236 7.11794 144.441 7.70213 144.604 8.1194C144.768 8.53667 145.26 8.57839 145.629 8.41149C146.694 7.99421 147.637 7.78558 148.702 7.78558C151.038 7.78558 152.308 8.99567 152.308 11.1655V14.295C152.308 16.2562 150.587 17.6332 148.211 17.6332C146.735 17.6332 145.137 16.8821 145.137 15.213C145.137 13.6274 146.408 12.7511 148.702 12.7511H149.727C150.341 12.7511 150.628 12.459 150.628 11.8748V11.1655H148.497C145.014 11.1655 143.047 12.6677 143.047 15.2547C143.047 17.2159 144.523 19.3857 147.842 19.3857C149.645 19.3857 151.161 18.6764 152.267 17.3411V18.2174C152.267 18.8015 152.554 19.0519 153.169 19.0519H154.316V11.1238C154.275 7.82731 152.349 5.94958 148.866 5.94958Z" fill="#B6A2D7"/>
<path d="M97.2761 5.94958C95.3092 5.94958 93.9159 6.45031 92.6866 6.99276L92.6046 7.07622L92.6456 7.15967C92.6456 7.15967 92.8505 7.74385 93.0144 8.16112C93.1783 8.57839 93.6701 8.62012 94.0389 8.45321C95.1043 8.03594 96.0468 7.82731 97.1122 7.82731C99.4479 7.82731 100.759 9.03739 100.759 11.2072V14.295C100.759 16.2562 99.0381 17.6332 96.6614 17.6332C95.1862 17.6332 93.6291 16.8821 93.6291 15.213C93.6291 13.6274 94.8994 12.7511 97.1532 12.7511H98.1776C98.7923 12.7511 99.0791 12.459 99.0791 11.8748V11.1655H96.9893C93.5061 11.1655 91.4982 12.6677 91.4982 15.2547C91.4982 17.2159 92.9734 19.3857 96.2517 19.3857C98.0547 19.3857 99.5709 18.6764 100.718 17.3411V18.2174C100.718 18.8015 101.005 19.0519 101.579 19.0519H102.726V11.1238C102.685 7.82731 100.759 5.94958 97.2761 5.94958Z" fill="#B6A2D7"/>
<path d="M210.703 10.7899C210.416 10.5396 198.737 2.23585 198.204 1.90204L198.04 1.77686V3.82148C198.04 4.48912 198.368 4.69775 198.778 5.03157L198.86 5.0733C199.434 5.49057 207.752 11.3741 208.859 12.1669C207.752 12.9597 199.311 18.9267 198.778 19.2605C198.122 19.6778 198.081 19.9699 198.081 20.5541V22.5152C198.081 22.5152 210.498 13.7108 210.744 13.5022C211.317 13.0849 211.44 12.5425 211.44 12.2086V11.9583C211.44 11.541 211.194 11.1237 210.703 10.7899Z" fill="#B6A2D7"/>
<path d="M203.407 13.0849C203.735 13.0849 204.063 12.9597 204.391 12.7093C204.801 12.4173 205.169 12.1669 205.169 12.1669L205.292 12.0834L205.169 12C205.128 11.9583 199.678 8.11936 199.105 7.74381C198.859 7.53518 198.531 7.49345 198.326 7.61863C198.121 7.74381 197.957 7.95245 197.957 8.28627V9.57981L197.998 9.62153C198.039 9.66326 201.768 12.2921 202.506 12.7928C202.834 13.0014 203.121 13.0849 203.407 13.0849Z" fill="#B6A2D7"/>
<path d="M29.6213 16.1309C29.1706 15.6719 28.5969 15.964 28.351 16.1727C27.4085 17.0489 26.3431 17.4662 25.1957 17.4662C22.6961 17.4662 20.7292 15.3381 20.7292 12.5841C20.7292 9.87187 22.6551 7.74379 25.0728 7.74379C26.4661 7.74379 27.3676 8.3697 28.1052 8.95388C28.6379 9.41288 29.0886 9.4546 29.4574 9.03733C29.7853 8.70351 30.1541 8.28624 30.1541 8.28624L30.236 8.20279L30.1541 8.11933C28.7198 6.5337 27.1217 5.82434 25.0728 5.82434C21.4258 5.82434 18.5164 8.78697 18.5164 12.5841C18.5164 16.2979 21.4668 19.3439 25.0728 19.3439C27.7364 19.3439 29.2525 17.9669 30.236 16.7986H30.318L30.236 16.7151C30.236 16.7151 30.0311 16.5482 29.6213 16.1309Z" fill="#B6A2D7"/>
<path d="M43.2253 1.44299H41.791V2.90344C41.791 3.27899 41.955 3.73799 42.6926 3.73799H44.1268V2.44444C44.1678 1.86026 43.799 1.44299 43.2253 1.44299Z" fill="#B6A2D7"/>
<path d="M43.0622 6.1582H41.8739V18.2173C41.8739 18.7181 42.2017 19.0519 42.6525 19.0936V19.1353H43.9637V7.03447C44.0047 6.49202 43.6769 6.1582 43.0622 6.1582Z" fill="#B6A2D7"/>
<path d="M56.5434 6.86752C56.3795 7.32652 53.2652 15.0043 52.6505 16.423C52.0768 14.9626 48.9625 7.28479 48.7986 6.86752C48.5937 6.3668 48.1839 6.07471 47.6512 6.07471H46.176L46.258 6.19989C46.2989 6.3668 51.2572 18.0087 51.4621 18.4677C51.667 19.0101 51.9948 19.1353 52.5276 19.1353H52.7734C53.2652 19.1353 53.593 18.9267 53.7979 18.4677C54.0028 18.0087 58.9611 6.45025 59.0021 6.32507L59.084 6.15816H57.6498C57.1171 6.15816 56.7483 6.3668 56.5434 6.86752Z" fill="#B6A2D7"/>
<path d="M69.3705 11.8748H64.4942C63.9614 11.8748 63.6336 12.2086 63.6336 12.7511V13.5856H63.7566C66.0923 13.5439 68.7968 13.5439 69.9032 13.5439C70.5589 13.5439 71.0506 13.377 71.4194 13.0014C71.7472 12.6259 71.9111 12.0417 71.8702 11.3741C71.5014 8.0359 69.1656 5.86609 65.9694 5.86609C62.4863 5.86609 59.8227 8.78699 59.8227 12.6259C59.8227 16.5065 62.5682 19.3857 66.2152 19.3857C68.3461 19.3857 69.9442 18.6346 71.4604 16.9655L71.5424 16.8821L71.4604 16.7986C71.4604 16.7986 71.1735 16.5482 70.8457 16.2561C70.354 15.8389 69.9032 16.0058 69.6574 16.2561C68.7559 17.0907 67.6495 17.508 66.2972 17.508C63.9615 17.508 62.2404 15.7972 61.9535 13.2518C61.9535 13.2518 61.9126 12.9597 61.9126 12.5842C61.9126 12.1669 61.9535 11.8748 61.9535 11.8748C62.1994 9.37117 63.8385 7.61863 65.9284 7.61863C68.0183 7.61863 69.5344 9.03735 69.7393 11.2072C69.7803 11.4158 69.7393 11.5827 69.6983 11.6662C69.5754 11.8331 69.4935 11.8748 69.3705 11.8748Z" fill="#B6A2D7"/>
<path d="M10.4437 2.11063C10.1978 1.6099 9.91096 1.44299 9.37825 1.44299H8.88652C8.47674 1.44299 8.10794 1.69336 7.90305 2.0689C7.73914 2.44444 0.52704 18.8015 0.445084 18.9684L0.363129 19.1353H1.7154C2.28909 19.1353 2.65789 18.8849 2.94473 18.3008C3.1906 17.8 4.37895 15.046 4.58384 14.587H9.86998C10.5256 14.587 10.9354 14.1698 10.9354 13.5439V12.6259H5.4034L9.13238 4.11353C9.91096 5.86607 15.1151 17.9669 15.361 18.4677C15.6888 19.1353 16.4674 19.1353 16.7133 19.1353H17.9426L17.8607 18.9684C17.8607 18.8015 10.6895 2.65308 10.4437 2.11063Z" fill="#B6A2D7"/>
<path d="M38.8407 17.2576C38.6358 17.1324 38.349 17.0907 38.0621 17.1742C37.6114 17.2993 37.2836 17.3828 36.8738 17.3828C35.5625 17.3828 34.8659 16.7152 34.8659 15.3382V8.0359H38.8407V7.15963C38.8407 6.492 38.267 6.15818 37.7753 6.15818H34.8249V2.48619C34.8249 1.90201 34.4151 1.48474 33.8004 1.48474H32.776V15.6302C32.776 18.0087 34.0463 19.344 36.423 19.344C37.3245 19.344 38.349 19.1353 39.0046 18.8015L39.0456 18.7598V18.7181C39.0456 18.7181 39.0866 18.3425 39.0866 17.8835C39.1276 17.5497 38.9637 17.3828 38.8407 17.2576Z" fill="#B6A2D7"/>
</g>
<defs>
<clipPath id="clip0_1004_3671">
<rect width="211.446" height="22.1154" fill="white" transform="translate(-0.00598145 0.942261)"/>
</clipPath>
</defs>
</svg>
