<svg id="Layer_1" data-name="Layer 1" xmlns="http://www.w3.org/2000/svg" viewBox="0 0 508.01 126.24"><defs><style>.cls-1{fill:#1476b2;}</style></defs><path class="cls-1" d="M492.07,0H498V1.31h-2.15V8.09h-1.62V1.31h-2.16Z"/><path class="cls-1" d="M499.19,0H501l2.58,6,2.57-6H508V8.09h-1.62V2.83l-2.17,5.26H503l-2.18-5.26V8.09h-1.62Z"/><path class="cls-1" d="M127.56,107.9A13.89,13.89,0,0,0,120,99.8l-.16-.07a13.69,13.69,0,0,0-7.93-.84l-38-68.53a13.72,13.72,0,0,0,4-8.91v-.17a13.62,13.62,0,0,0-13-14.35A13.6,13.6,0,0,0,50.36,19.68v.17a13.74,13.74,0,0,0,4,10.51l-38,68.54a13.89,13.89,0,0,0-2.6-.25h-.17A13.6,13.6,0,0,0,0,112.44a13.59,13.59,0,0,0,13.57,13.79h.17a13.81,13.81,0,0,0,13.8-13.8c0-.4,0-.79-.06-1.19l26.83-15.8A13.5,13.5,0,0,0,57,97.57h0a13.81,13.81,0,0,0,16.9-2.13l26.82,15.81a13.8,13.8,0,0,0,8.41,13.91l.16.07a15.35,15.35,0,0,0,5.38,1,13.6,13.6,0,0,0,12.47-8.48A13.83,13.83,0,0,0,127.56,107.9ZM59.05,20.44c.53-4.83,4.55-4.85,5.36-4.8A4.91,4.91,0,0,1,69.18,21a5.07,5.07,0,0,1-10.13-.59ZM13.82,117.51c-4.85-.24-5.1-4.26-5.1-5.07s.25-4.82,5.1-5.07a5.07,5.07,0,0,1,0,10.14Zm10.12-14.34L62.13,34.3c.39.05.79.1,1.19.12l.81,0a13.13,13.13,0,0,0,2-.15l38.17,68.86,0,0L77.79,87.6A13.59,13.59,0,0,0,71.19,74a13.59,13.59,0,0,0-18.81,4.55l-.09.14a13.73,13.73,0,0,0-1.84,8.94L24,103.2ZM68.43,88.42a5.08,5.08,0,0,1-6.92,1.67h0a5.07,5.07,0,0,1-1.78-6.88c2.7-4,6.28-2.19,7-1.77S70.72,84.13,68.43,88.42Zm50.7,26a4.92,4.92,0,0,1-6.67,2.7,5.07,5.07,0,0,1-2.64-6.61h0a5.07,5.07,0,0,1,6.56-2.74C120.77,109.84,119.44,113.64,119.13,114.39Z"/><path class="cls-1" d="M190.63,30.1v6.15a.79.79,0,0,1-1.43.45c-3.12-4.42-10-9.38-22.43-9.38-19.49,0-32.41,13.32-32.41,35.79,0,22.28,12.52,35.39,32.41,35.39,11.1,0,19.07-5,22.47-9.16a.79.79,0,0,1,1.39.51v5.87a.79.79,0,0,0,.79.79h14.72a.79.79,0,0,0,.79-.79V30.1a.79.79,0,0,0-.79-.79H191.42A.79.79,0,0,0,190.63,30.1ZM171.34,85.39c-11.13,0-19.69-7.37-19.69-22.47,0-14.92,8.95-22.47,19.89-22.47,11.34,0,20.09,8.34,20.09,22.66C191.63,78,182.48,85.39,171.34,85.39Z"/><path class="cls-1" d="M323.52,29.9V41.24a.79.79,0,0,1-.79.79h-8a.79.79,0,0,0-.78.79V96.87a.79.79,0,0,1-.79.79h0a15.72,15.72,0,0,1-15.72-15.72V42.82a.79.79,0,0,0-.79-.79h-8a.79.79,0,0,1-.79-.79V29.9a.79.79,0,0,1,.79-.79h8a.79.79,0,0,0,.79-.79V11a.79.79,0,0,1,.79-.79h14.93A.79.79,0,0,1,314,11V28.32a.78.78,0,0,0,.78.79h8A.8.8,0,0,1,323.52,29.9Z"/><path class="cls-1" d="M282.9,58.94V95.72a.79.79,0,0,1-.79.79H267.18a.79.79,0,0,1-.79-.79V59.93c0-13.13-5-19.48-15.51-19.48-10.33,0-16.5,6.35-16.5,19.48V95.72a.79.79,0,0,1-.79.79H218.67a.79.79,0,0,1-.79-.79V30.1a.79.79,0,0,1,.79-.79h14.92a.79.79,0,0,1,.79.79v5.66a.79.79,0,0,0,1.43.46c3.66-5.15,10.83-8.9,20.84-8.9C273.35,27.32,282.9,38.06,282.9,58.94Z"/><path class="cls-1" d="M370.9,27.32c-9.93,0-16.38,3.48-20.48,8.6a.78.78,0,0,1-1.39-.5V10.81a.79.79,0,0,0-.79-.79H333.51a.79.79,0,0,0-.79.79V95.72a.79.79,0,0,0,.79.79h14.73a.79.79,0,0,0,.79-.79V58.34c0-12.33,6.75-18.09,16.5-18.09,10.53,0,15.51,6.55,15.51,18.09V95.72a.79.79,0,0,0,.79.79h14.92a.79.79,0,0,0,.79-.79V57.94C397.54,39.85,389.59,27.32,370.9,27.32Z"/><path class="cls-1" d="M427,10a9.94,9.94,0,1,0-19.87,0,1.41,1.41,0,0,0,0,.2c0,6,4.38,9.75,9.95,9.75S427,16.18,427,10.22A1.41,1.41,0,0,0,427,10Z"/><path class="cls-1" d="M485,.87V97.63a.79.79,0,0,1-.82.8,16.32,16.32,0,0,1-15.49-16.29V.87a.79.79,0,0,1,.79-.79h14.73A.79.79,0,0,1,485,.87Z"/><path class="cls-1" d="M409.51,29.31h14.72a.79.79,0,0,1,.79.79V97.63a.79.79,0,0,1-.81.8,16.31,16.31,0,0,1-15.49-16.29v-52A.79.79,0,0,1,409.51,29.31Z"/><path class="cls-1" d="M454.66.08H439.94a.79.79,0,0,0-.79.79V97.63a.79.79,0,0,0,.81.8,16.32,16.32,0,0,0,15.49-16.29V.87A.79.79,0,0,0,454.66.08Z"/></svg>