<?xml version="1.0" encoding="UTF-8"?><svg xmlns="http://www.w3.org/2000/svg" viewBox="0 0 1114.16 689.42"><defs><style>.d,.e{fill:#fff;}.f{fill:#333745;}.e,.g,.h{stroke:#333745;}.g{stroke-width:3px;}.g,.h{fill:none;}</style></defs><g id="a"/><g id="b"><g id="c"><g><path class="f" d="M53.99,29.31c-.69,.64-1.4,1.11-2.12,1.39-.71,.3-1.4,.48-1.94,.67-1.83,.68-4.43,1.9-5.83,2.52-3,.62-6.69,2.85-10.07,4.74-.81,.47-1.44,.66-2.25,1.14-.85,.54-1.74,1.22-2.61,1.81-.71,.46-1.48,1.06-2.33,1.67-.42,.31-.85,.62-1.29,.93-.42,.33-.85,.65-1.26,.97-1.52,1.11-2.9,2.16-3.8,2.63-.1,.06-.2,.11-.29,.15-.68,.29-1.44,.22-1.44-.57,1.22-1.05,2.1-1.44,3.19-2.14,.24-.15,.48-.31,.71-.47t.01-.01c.67-.45,1.31-.92,1.96-1.4,.9-.62,1.79-1.28,2.71-1.97,1-.71,1.96-1.28,2.91-1.85,.95-.57,1.96-1.07,2.97-1.69,4.25-2.51,8.33-4.39,12.33-5.84,1.02-.33,2.04-.67,3.08-1.01,1.01-.35,2.08-.62,3.11-.99,.38-.12,.93-.43,1.39-.64,.47-.19,.85-.28,.86-.04Z"/><path class="f" d="M43.67,36.48c-.61,.7-1.39,1.47-2.59,2.43-.95,.39-2.3,1.42-3.43,1.99-.51,.27-.77,.15-1.35,.48-.8,.45-1.93,1.44-2.72,1.93-.64,.38-1.05,.29-1.7,.69-.2,.12-.41,.27-.64,.45-.21,.19-.44,.38-.67,.58-.45,.4-.92,.81-1.32,1.1-.61,.42-1.22,.86-1.83,1.32-.63,.45-1.26,.9-1.9,1.37-1.24,.97-2.6,1.94-3.84,3.09-.54,.48-1.17,1.04-1.82,1.61-.64,.59-1.31,1.19-1.97,1.77-1.28,1.16-2.46,2.21-3.17,2.66-.17,.12-.36,.24-.54,.32-.52,.26-.93,.22-.39-1.21,.76-1.13,.66-.56,1.31-.92,.15-.14,.3-.27,.46-.41,3.6-3.23,7.58-6.7,11.84-9.8,4.44-3.22,9.16-6.03,13.71-7.97,.91-.56,2.07-1.51,2.56-1.48Z"/><path class="f" d="M13.63,181.35c-1.06,3.26-2.17,6.93-3.33,10.16-1.1,3.04-2.21,6.09-3.27,9.13-1.47,4.22-2.85,8.98-4.21,13.41-.13,.42-.25,.83-.38,1.24-.48,1.59-.95,3.92-1.65,4.09-.29-1.68,.22-2.52,.42-3.39,.48-1.98,1.05-3.47,1.63-4.93,.29-.77,.59-1.54,.87-2.35,.54-1.57,1-3.51,1.54-5.24,2.36-7.61,4.92-15.14,7.42-21.74,.18-.5,.58-2.68,.94-1.07l.02,.69Z"/><path class="f" d="M13.26,165.44c-.28,.96-.55,1.89-.64,3.47-.57,.24-.63,2.46-.98,3.83-.5,1.96-1.24,3.24-1.73,5.24-.19,.79-.27,2.01-.46,2.79-.54,2.23-1.29,3.87-1.87,5.95-.62,2.21-1.08,4.9-1.85,6.31-.16,2.37-.77,2.8-1.12,4.2-.31,1.27-.56,1.76-.89,2.81-.2,.62-.27,1.81-.46,2.44-.09,.31-.25,.47-.38,.67-.08,.11-.16,.23-.21,.39-.52,1.57-.85,4.16-1.56,4.54-.1-.47-.25-.68-.38-1.03-.13-2.63,.26-3.46,.68-4.17,.1,1.08-.45,1.51-.1,2.43,.54-1.72,1.06-3.49,1.58-5.29,.97-3.4,1.9-6.87,2.83-10.11,.5-1.75,.94-3.79,1.43-5.6,.48-1.75,1.06-3.11,1.55-4.9,1-3.66,2.02-7.07,2.93-10.82,.47-1.94,.88-4.1,1.49-5.56,.13,.44,.12,1.5,.14,2.41Z"/><path class="f" d="M13.54,112.07c-.88,2.64-1.59,5.32-2.34,8.16-1.14,4.35-2.3,8.91-3.44,12.73-.4,1.32-.82,2.4-1.19,3.8-.36,1.39-.72,2.79-1.08,4.16-.75,2.79-1.44,5.99-2.19,8.35-.05,.18-.11,.36-.17,.54-.53,1.61-1.26,3.33-2.1,2.97-.07-1.21-.29-1.86-.11-3.14,.29-.14,.15,1.54,.53,1.04,.59-1.58,1.16-3.31,1.71-5.12,1.46-4.78,2.82-10.18,4.18-15.04,.48-1.67,1.01-3.5,1.53-5.33,.52-1.83,1.04-3.65,1.45-5.33,.87-3.42,1.78-6.4,2.76-9.18,.2-.85,.29-2.24,.57-2.71,.27,.88-.02,2.61-.11,4.1Z"/><path class="f" d="M12.08,134.73c-.58,2-.91,4.76-1.27,6.55-1.32,1.77-1.71,7.12-2.89,9.35-1.45,6.52-3.37,13.31-4.84,19.18-.02,.07-.03,.13-.05,.19,0,0-.01,0,0,.01-.26,.88-.46,.8-.71,1.56-.1,.29-.08,1.25-.15,1.4-.21,.47-.54,.43-.78,.71-.29-.6-.6-2.73-.26-3.83,.34-.56,.06,1.51,.29,1.39,.57-1.63,1.11-3.43,1.63-5.33,1.36-4.93,2.6-10.55,3.98-15.62,1.45-5.32,2.93-10.71,4.35-15.91,.23-.84,.47-1.85,.73-2.76,.18-.63,.52-2.01,.82-1.71,.31,3.11-.5,3.57-.85,4.82Z"/><path class="f" d="M13.28,118.58c0,4.46-.84,4.97-1.43,7.19-.44,1.66-.66,3.16-.97,4.81-1.74,4.58-2.92,11.31-4.67,15.56-.89,4.33-2.05,7.49-3.12,10.99-.25,.85-.5,1.71-.74,2.61-.5,.22-.75,1.41-1.21,1.76-.29-.74-.73-1.67-.49-3.48,.33-.52,.03,1.56,.37,1.04,.41-.36,.55-1.7,1.04-1.76,.35-1.21,.7-2.43,1.05-3.65,2.61-9.08,5.32-18.48,7.95-27.9,.47-1.7,.99-2.87,1.44-4.45,.25-.91,.31-2.72,.78-2.72Z"/><path class="f" d="M12.08,158.55c-2.51,10.6-5.36,19.81-7.73,30.01-.62,.74-.76,3.17-1.43,3.82,0,.02-.02,.03-.04,.05-.37,1.93-.98,4.55-1.77,3.18-.16-2.54,.1-3.59,.5-4.19,.1,1.06-.28,2.99,.06,2.08,.44-1.26,.86-2.59,1.26-3.98,1.44-4.88,2.72-10.38,4.05-15.28,1.57-5.78,3.18-11.83,4.63-17.76,.27-1.15,.61-3.1,1.11-3.12,.35,2.39-.35,3.95-.64,5.19Z"/><path class="f" d="M13.97,101.83c-.75,1.64-1.37,3.81-2.12,5.35-.49,2.98-1.3,4.61-1.92,6.45-1.39,4.26-2.61,8.78-3.84,13.05-.48,1.64-.95,3.34-1.41,4.84-.37,1.2-.88,3.2-1.38,4.52-.03,.08-.06,.17-.1,.26-.45,1.17-1.14,2.78-1.59,.43,.11-1.25,.65-.73,.9-1.39,.24-.77,.48-1.55,.71-2.35,3.13-10.46,6.07-22.56,9.93-32.24,.16-1.52,.37-2.79,.89-2.32,.3,.2-.04,2.23-.07,3.4Z"/><path class="f" d="M21.95,62.1c-.33,.97-.61,1.27-1.15,2.31l-1.32,1.65-.33,.42-.29,.39-.58,.78c-.81,1.01-1.5,2.18-2.24,3.32-.38,.56-.7,1.17-1.04,1.76-.34,.61-.68,1.2-1.02,1.8-.65,1.22-1.27,2.46-1.9,3.69-2.46,4.99-4.62,10.15-6.61,15.64-.65,.52-1.46,2.71-1.99,2.6-.23-.04-.39-.52-.48-1.77,.24-.05,.46-.23,.66-.5,.29-.38,.56-.93,.86-1.48,.9-1.67,1.47-2.93,2.34-5.04,.55-1.3,1.14-2.7,1.7-4.01l.54-1.28,.58-1.28c.38-.84,.77-1.69,1.15-2.54,.4-.84,.83-1.67,1.24-2.5,.41-.83,.82-1.66,1.28-2.47l1.33-2.4,1.42-2.28c.12-.19,.23-.38,.36-.56l.38-.52,.76-1.04c.46-.67,1.05-1.38,1.6-2.07,.22-.29,.47-.6,.72-.92,.26-.31,.53-.62,.78-.89,.52-.53,.98-.9,1.25-.81Z"/><path class="f" d="M34.74,43.5c-.99,1.34-2.02,2.28-2.92,3.12-.91,.82-1.8,1.44-2.51,2.11-1.11,.46-2.04,1.07-3.31,2.05-1.68,1.24-3.08,2.48-4.57,3.81-.37,.34-.85,.98-1.18,1.27-.39,.34-.62,.26-.99,.61-.57,.58-1.35,1.83-1.96,2.45-.33,.35-.56,.28-.94,.68-.41,.43-.91,1.06-1.43,1.72-.5,.66-1.02,1.36-1.49,1.91-.17,.2-.35,.4-.51,.59-.16,.21-.31,.4-.46,.59-.31,.38-.6,.74-.87,1.08-.29,.34-.56,.66-.82,.97-.24,.31-.47,.61-.7,.89-.03,.04-.07,.08-.1,.13-.44,.56-.94,1.37-1.39,1.97-.45,.64-.81,1.04-.97,.62,0-.24,0-.52,.06-.82,.05-.3,.12-.62,.2-.95,.18-.65,.41-1.3,.71-1.82,.37-.23-.24,1.21,.02,1.17,.32-.46,.64-.94,.97-1.42,.35-.47,.74-.96,1.1-1.44,.32-.42,.64-.85,.97-1.27,.05-.07,.1-.13,.15-.2,.39-.45,.79-.92,1.19-1.38,1.59-1.86,3.33-3.7,5.1-5.46,3.54-3.51,7.35-6.61,10.86-8.87,.52-.36,1.03-.55,1.54-.89,.66-.42,1.39-1.07,2.17-1.66,.77-.6,1.51-1.19,2.08-1.56Z"/><path class="f" d="M74.58,18.66c-.57,.34-1.93,.71-2.76,1.11-2.05,.43-3.57,.52-5.03,.68-.74,.05-1.47,.12-2.26,.18-.4,.04-.82,.07-1.26,.13-.43,.06-.89,.13-1.38,.22-1.06,.19-2.09,.39-3.11,.6-1.01,.25-1.99,.49-2.95,.73-.49,.12-.97,.23-1.45,.35-.47,.13-.94,.25-1.4,.38-.93,.25-1.86,.48-2.79,.69-2.91,.72-5.72,1.89-5.33,.16,1.63-.8,2.27-.7,3.35-.7,.98-.36,1.97-.63,2.94-.91,.96-.27,1.9-.55,2.86-.78,.95-.2,1.89-.42,2.84-.62l1.4-.3,1.41-.23c.94-.16,1.87-.31,2.81-.47s1.9-.25,2.84-.38c.96-.12,1.9-.26,2.87-.37,.97-.1,1.95-.21,2.95-.31,1.17-.16,3.17-.64,3.45-.16Z"/><path class="f" d="M12.05,146.11c-3.05,10.01-5.46,21.8-8.54,31-.1,1.17-.3,2.01-.53,2.79-.17,.58-.34,1.13-.5,1.76-.51,2.08-.72,2.86-1.29,4.56-.35,1.04-.54,2.02-.81,1.51-.1-.17-.21-.53-.33-1.13-.15-1.54,.03-3.25,.31-4.5,.23-1.04,.52-1.76,.76-1.8-.22,1.76-.55,3.12-.66,5.24,.88-2.93,1.71-6.03,2.54-9.19,1.01-3.91,2.02-7.92,3.07-11.81,1.65-6.19,3.32-12.9,5.01-18.77,.25-.9,.5-2.33,.87-2.42,.14,.5,.09,1.76,.1,2.76Z"/><path class="f" d="M14.42,89.27l-.27,2.36c-.66,1.45-1.34,2.47-1.87,4.6-1.45,2.64-2.75,6-3.84,10.07-.19,.27-.37,.56-.58,.66-.41,1.8-.83,3.37-1.45,4.09-.17,1.25-.51,2.25-.76,3.1-.77,2.59-1.5,4.95-2.28,7.25-.03,.08-.05,.16-.09,.24h0c-.46,1.4-.99,3.13-1.67,2.86-.18-.76-.3-1.71-.18-3.51,.35-.26,0,1.86,.41,1.41,.51-1.18,.99-2.48,1.46-3.86,.86-2.5,1.68-5.25,2.53-7.99,.64-2.13,1.32-4.25,2.03-6.26,.69-2,1.45-3.87,2.25-5.49,.43-1.52,.95-2.8,1.46-3.98,.53-1.17,1.04-2.24,1.61-3.3,.31-1.49,.69-2.46,1.24-2.25Z"/><path class="f" d="M97.86,13.23c-1.78,.87-4.34,.57-5.67,.52-.5-.02-1.1-.2-1.74-.21-.16,0-.59,.17-.99,.19-.92,.05-1.74,0-2.47-.02-.73-.01-1.38-.04-2.01-.03-.65,0-1.33,0-2.01,.01-.68-.01-1.37-.01-2.01,.01-1.3,.03-2.5,.02-3.35-.05-1.24,.11-2.35,.25-3.4,.32-1.04,.07-2.03,.11-3.01,.13-.97,.06-1.92,.11-2.92,.19-.49,.05-1,.09-1.52,.15-.27,.02-.53,.05-.8,.09-.27,.04-.54,.09-.81,.14-.32-.2-.68-.35-1.28-.33,.36-.29,.52-.54,.84-.83,.16-.14,.37-.29,.66-.45,.3-.16,.69-.31,1.23-.49-.01,.34-.36,.59,.25,.66,1.18-.05,2.38-.13,3.61-.23,1.25-.06,2.51-.14,3.8-.21,.64-.03,1.29-.08,1.94-.12,.65-.02,1.31-.04,1.98-.06,1.33-.04,2.65-.13,3.99-.13,1.34,0,2.68,0,4.02-.02,.66-.02,1.34,.02,2,.04,.67,.03,1.33,.06,1.99,.08,2.63,.07,5.23,.38,7.68,.65Z"/><path class="f" d="M15.85,78.65c-.62,2.46-2.25,4.61-2.75,7.03-2.28,3.8-3.97,10.64-5.95,14.62-.74,3.02-1.66,4.69-2.49,6.82-.41,1.07-.83,2.45-1.31,3.46-.45,.98-.97,1.61-1.58,1.3-.12-.53-.2-2.68-.03-3.17,.16,1.33,.66,.63,.87,.4,.18-.2,.46-.91,.76-1.72,.22-.56,.45-1.18,.67-1.71,1.89-4.74,3.86-10.28,5.79-15.22,1.51-3.93,3.41-7.94,4.99-11.66,.43-.93,.94-2.56,1.36-3.09,.4,.43-.13,2.21-.33,2.94Z"/><path class="f" d="M26.65,53.24c-1.12,2.1-2.26,2.91-3.07,3.43-.29,.5-.54,.86-.75,1.08-1.68,1.25-3.37,2.83-5.05,4.66-.43,.46-.82,.94-1.24,1.43-.4,.49-.86,.99-1.21,1.51-.75,1.04-1.57,2.12-2.23,3.32-.42,.47-.85,1.03-1.29,1.72-.4,.71-.79,1.57-1.19,2.63-.32,0-.64,1.13-.93,1.23-.44,1.08-.87,2.06-1.31,2.98-.45,.92-.84,1.78-1.26,2.61-.41,.84-.84,1.65-1.24,2.48-.23,.49-.46,.98-.69,1.49-.16,.35-.32,.71-.48,1.08-.29-.9-.68-.15-.63-1.89,.27-.51,.05-.88,.35-1.76,.43-1.02,0,.91,.33,.77,.46-.64,.9-1.85,1.38-2.42h.01c.07-.09,.14-.16,.21-.21,.5-1.67,1.12-2.75,1.72-3.82,.3-.53,.6-1.07,.9-1.68s.64-1.29,.96-2.11c.23-.45,.48-.91,.72-1.35,.24-.45,.53-.89,.79-1.32,.26-.43,.53-.85,.79-1.28l.4-.64c.14-.2,.3-.4,.44-.6,.6-.81,1.14-1.59,1.76-2.34,.64-.74,1.25-1.47,1.88-2.18,2.53-2.82,5.2-5.29,7.86-7.46,.67-.55,1.79-1.74,2.07-1.36Z"/><path class="f" d="M85.07,15.55c-1.04,.32-1.86,.49-2.58,.55-.69,.1-1.27,.11-1.84,.09-1.13-.02-2.21-.15-3.97,.29-.77-.11-1.79-.06-2.86,.01-.54,.04-1.08,.07-1.61,.11-.53,.04-1.03,.09-1.49,.1-1.31,.47-1.25-.03-2.71,.53-.95,.07-1.82,.13-2.74,.19s-1.88,.13-3.01,.28c-1.37,.22-3.12,.72-4.58,1.01-1.43,.33-2.56,.5-2.7-.01-1.36,.52-1.92,.34-2.66,.3,.84-.59,.38-.86,1.96-1.63,.08,.32-.28,.52,.29,.55,2.19-.32,4.75-.7,7.36-1.18,1.33-.2,2.67-.4,4.02-.61,1.35-.21,2.72-.33,4.03-.47,1.83-.22,3.25-.09,4.98-.19,.69-.04,1.4-.12,2.12-.17,.72-.05,1.46-.1,2.18-.15,1.43-.09,2.8-.2,3.98-.09,.78,.07,2.16,.01,1.83,.49Z"/><path class="f" d="M106.15,11.93c-.29,.18-1.03,.27-2,.35-1.8-.33-5.11-.43-5.53-1.01-1.04,.22-1.06,.24-1.04-.13-.48,.09-.55,.23-.98,.32-.36-.31-2.1-.04-2.13-.49-1.24,.28-1-.07-2.05,.13-2.63-.4-6.06-.48-9.42-.35-.85,.03-1.69,.01-2.51,.06-.82,.04-1.63,.08-2.41,.09-.77,.02-1.53,.02-2.24,0-.71-.02-1.37-.03-1.99-.09,.7-.58,.53-1.18,3.16-1.77,.25,.22-.99,.48-.53,.7,1.56-.07,2.52,.22,4.05,.16,.43-.02,1.3-.22,1.74-.24,.88-.03,1.57,.16,2.54,.14,1-.03,1.86-.01,2.71,.06,.85,.05,1.68,.11,2.62,.12,.75,.02,1.32,.06,1.85,.1,.53,.06,1.05,.14,1.67,.19,.92,.09,2.21-.01,3.13,.08,.42,.04,.82,.08,1.23,.12,.41,.06,.8,.13,1.19,.19,.78,.14,1.54,.28,2.3,.42,1.51,.27,3.02,.55,4.64,.85Z"/><path class="f" d="M128.43,11.38c-1.22,.01-1.91-.1-2.02-.34l-2.04-.08c-.37-.13-.78-.26-1.2-.4-.43-.12-.88-.24-1.34-.38-.92-.25-1.92-.52-2.92-.79-2.01-.57-4.08-1.01-5.82-1.39-.77-.17-1.43-.43-2.09-.55-.19-.03-.85,.07-1.03,.04-2.34-.41-4.19-1.05-4.64-1.72,1.09-.23,1.73-.72,3.47-.59,.27,.25-1.2,.19-.68,.49,6.59,1.66,14.13,3.31,20.31,5.71Z"/><path class="f" d="M134.29,10.33c-2.04,.14-3.05,.07-3.89-.16-.85-.21-1.53-.55-2.89-.95-1.48-.43-3.75-.88-3.4-1.28-2.72-.28-3.85-.86-5.16-1.46,.86-.04,1.23-.21,1.73-.35,1.2,.31,2.34,.58,3.45,.95,1.1,.36,2.17,.71,3.27,1.07,1.08,.35,2.18,.7,3.31,1.07,1.14,.38,2.32,.75,3.58,1.11Z"/><path class="f" d="M144.85,11.33c-1.09,.13-2.73-.08-3.74-.31-1.08-.23-1.45-.78-2.3-1.13-.42-.17-.95-.36-1.49-.53-.53-.16-1.09-.33-1.56-.5-.96-.32-1.62-.64-1.28-.92-1.29,0-.66-.34-1.36-.45,.38-.26,1.1-.42,2.12-.47,.66,.37,1.37,.73,2.12,1.08,.75,.36,1.53,.74,2.34,1.1,1.63,.73,3.37,1.43,5.15,2.13Z"/><path class="f" d="M61.79,23.89c-1.4,.7-1.23,.62-2.63,1.31-.86,.25-1.71,.48-2.55,.72-.85,.22-1.65,.49-2.43,.69-.77,.22-1.52,.39-2.22,.52-.69,.14-1.32,.24-1.89,.25-1.06,.75-1.28,.56-2.12,1.06-3.44,1.27-6.82,2.55-10.05,4.07-3.08,1.38-6.03,2.94-8.97,4.65-.19,.1-.39,.22-.58,.33-.07-.65-1.08,.41-1.38,.2,.22-.41,.19-.79,.26-1.19s.23-.82,.84-1.27c-.28,.35,.4,.06,.12,.63,1.08-.37,2.3-1.02,3.54-1.66,.01,0,.02,0,.03-.01,1.28-.62,2.56-1.25,3.68-1.63,7.58-4.04,14.53-6.13,22.51-8.23,.56,0,1.46-.36,2.26-.56,.81-.2,1.5-.29,1.58,.12Z"/><path class="f" d="M117.6,11.35c-1.07,.11-2.06,.2-2.96,.17-.91-.02-1.73-.12-2.47-.25-.74-.14-1.4-.33-1.97-.51-.57-.17-1.05-.35-1.45-.52-.43,.03-.46,.15-1.01,.16-1.83-.38-3.62-1.25-6.64-1.56-.7-.07-1.78,0-2.44-.09-.77-.11-1.03-.32-1.79-.39-.2-.01-.81,.17-1.02,.16-.52-.04-1.09-.21-1.79-.28-.64-.06-1.32-.14-1.94-.24-.63-.1-1.18-.19-1.54-.32-.73-.25-.71-.62,1.07-1.14,.46,.71,3.01,.55,4.05,1.01,.65-.01,1.25-.01,1.84,.01,.58,.03,1.13,.08,1.66,.14,1.07,.11,2.05,.26,3.02,.4,1.92,.27,3.79,.72,6.12,.93,1.34,.71,4.22,1.07,5.87,1.77,1.34,.11,2.81,.18,3.39,.55Z"/><path class="f" d="M1090.98,646.22c-1.21,1.06-2.1,1.45-3.19,2.14-.93,.61-1.8,1.23-2.67,1.88-.9,.63-1.79,1.28-2.72,1.97l-.3,.21c-.89,.62-1.76,1.13-2.61,1.64-.94,.58-1.95,1.07-2.97,1.7-4.25,2.51-8.32,4.39-12.32,5.83-1.02,.34-2.05,.67-3.08,1.01-1.02,.35-2.09,.63-3.12,.99-.38,.13-.92,.43-1.38,.64-.47,.19-.85,.28-.87,.04,.7-.64,1.41-1.1,2.13-1.39,.7-.3,1.39-.48,1.93-.66,1.84-.69,4.44-1.91,5.84-2.52,3-.63,6.69-2.86,10.07-4.75,.81-.47,1.44-.66,2.25-1.14,.85-.53,1.74-1.22,2.61-1.81,.71-.46,1.48-1.06,2.32-1.67,.43-.3,.86-.62,1.29-.93,.42-.32,.85-.65,1.27-.96,.16-.12,.32-.23,.47-.35,1.5-1.1,2.82-2.1,3.61-2.44,.69-.29,1.45-.21,1.44,.57Z"/><path class="f" d="M1095.96,636.52c-.76,1.13-.67,.56-1.32,.93-.73,.65-1.47,1.32-2.23,1.99-3.11,2.76-6.49,5.61-10.06,8.21-4.44,3.23-9.17,6.03-13.72,7.97-.9,.57-2.06,1.51-2.55,1.48,.61-.69,1.39-1.47,2.58-2.43,.96-.39,2.31-1.43,3.44-1.99,.5-.27,.76-.15,1.35-.48,.79-.46,1.92-1.44,2.71-1.93,.65-.38,1.05-.29,1.71-.69,.19-.12,.41-.28,.63-.45,.22-.18,.45-.38,.68-.58,.45-.4,.91-.8,1.32-1.09,.61-.43,1.21-.87,1.82-1.32,.63-.45,1.26-.91,1.91-1.37,1.24-.97,2.59-1.95,3.83-3.1,.55-.48,1.18-1.03,1.83-1.61,.63-.58,1.31-1.19,1.96-1.76,1.07-.97,2.07-1.87,2.79-2.4,.14-.1,.27-.2,.39-.27,.66-.44,1.66-1.03,.93,.89Z"/><path class="f" d="M1109.03,474.93c0,.23,0,.45-.01,.68-.07,.83-.34,1.4-.48,1.98-.74,3.03-1.7,4.91-2.5,7.28-.54,1.57-1.01,3.52-1.54,5.24-2.36,7.61-4.92,15.15-7.42,21.75-.19,.49-.59,2.67-.95,1.06l-.02-.69c1.06-3.26,2.18-6.92,3.34-10.15,1.09-3.05,2.21-6.1,3.27-9.13,1.61-4.62,3.11-9.89,4.59-14.65,.48-1.6,.94-3.92,1.64-4.09,.04,.26,.07,.5,.08,.72Z"/><path class="f" d="M1108.95,488.96h0c-.13,.87-.37,1.33-.62,1.75-.09-1.08,.45-1.51,.11-2.43-1.57,4.96-2.99,10.44-4.42,15.4-.5,1.74-.93,3.79-1.43,5.6-.47,1.75-1.05,3.11-1.55,4.9-.99,3.66-2.01,7.07-2.93,10.82-.47,1.94-.88,4.1-1.49,5.56-.13-.44-.11-1.5-.13-2.41,.27-.96,.54-1.89,.64-3.47,.57-.24,.62-2.46,.97-3.83,.5-1.96,1.25-3.24,1.74-5.24,.19-.79,.26-2.01,.45-2.79,.55-2.23,1.29-3.87,1.87-5.95,.62-2.21,1.09-4.9,1.86-6.31,.16-2.38,.77-2.8,1.11-4.2,.31-1.28,.57-1.76,.89-2.81,.2-.62,.28-1.81,.46-2.44,.15-.48,.44-.6,.6-1.06,.51-1.57,.85-4.17,1.55-4.54,.09,.4,.22,.62,.33,.9h0s.04,.08,.05,.12c.05,1.07,.02,1.84-.06,2.43Z"/><path class="f" d="M1108.83,543.95c-.19,.09-.2-.55-.28-.9-.05-.21-.12-.33-.26-.14-2.13,5.73-4.01,13.45-5.89,20.16-.47,1.67-1,3.5-1.52,5.33-.53,1.82-1.04,3.65-1.46,5.33-.86,3.42-1.78,6.4-2.75,9.18-.21,.84-.29,2.24-.58,2.71-.26-.88,.02-2.62,.11-4.1,.89-2.65,1.59-5.32,2.35-8.16,1.13-4.36,2.3-8.91,3.43-12.73,.4-1.32,.82-2.4,1.19-3.8,.36-1.39,.73-2.79,1.08-4.16,.75-2.79,1.45-5.99,2.19-8.36,.51-1.63,1.26-3.68,2.13-3.54,.04,.01,.09,.02,.14,.04,.08,1.21,.29,1.86,.12,3.14Z"/><path class="f" d="M1108.71,523.33c-.02,.15-.05,.28-.09,.4-.34,.57-.07-1.5-.3-1.38-2.05,5.86-3.69,13.93-5.61,20.95-1.45,5.32-2.92,10.71-4.34,15.91-.24,.84-.48,1.85-.74,2.75-.17,.64-.52,2.02-.82,1.72-.3-3.11,.5-3.58,.85-4.82,.58-2,.92-4.76,1.28-6.55,1.32-1.77,1.71-7.12,2.89-9.35,1.44-6.52,3.36-13.32,4.84-19.18,.27-1.1,.48-.95,.76-1.76,.09-.29,.07-1.25,.14-1.4,.21-.47,.54-.43,.78-.71,.15,.3,.31,.98,.37,1.73,.06,.58,.07,1.19-.01,1.69Z"/><path class="f" d="M1109.1,535.57c-.33,.52-.04-1.56-.37-1.04-.04,.04-.08,.08-.11,.14-.33,.48-.5,1.57-.93,1.62-2.94,10.2-6.02,20.86-9,31.55-.47,1.7-1,2.86-1.44,4.44-.26,.92-.32,2.73-.79,2.73,.01-4.46,.84-4.98,1.43-7.19,.44-1.66,.66-3.16,.97-4.82,1.74-4.57,2.93-11.3,4.68-15.55,1.09-5.37,2.62-8.94,3.85-13.6,.51-.22,.75-1.41,1.22-1.76,.01,.03,.02,.05,.03,.08,.28,.73,.68,1.65,.46,3.4Z"/><path class="f" d="M1108.14,502.17c-.1-1.07,.27-2.99-.06-2.08-1.98,5.68-3.6,12.97-5.31,19.26-1.58,5.78-3.18,11.83-4.63,17.76-.27,1.15-.61,3.1-1.11,3.12-.36-2.39,.34-3.95,.64-5.19,2.51-10.6,5.35-19.81,7.72-30.01,.65-.76,.78-3.31,1.48-3.87,.36-1.93,.98-4.56,1.76-3.18,.17,2.54-.1,3.59-.49,4.19Z"/><path class="f" d="M1108.13,556.86c-.1,1.24-.65,.72-.9,1.39-3.39,10.95-6.49,24.17-10.64,34.58-.16,1.52-.37,2.79-.88,2.33-.3-.2,.04-2.23,.07-3.41,.75-1.64,1.36-3.81,2.12-5.34,.48-2.98,1.3-4.62,1.91-6.46,1.4-4.25,2.61-8.78,3.85-13.05,.47-1.63,.95-3.34,1.41-4.84,.37-1.19,.88-3.2,1.37-4.52,.44-1.16,1.22-3.22,1.69-.68Z"/><path class="f" d="M1106.75,598.9c-.6,.11-1.02,1.05-1.52,1.98-.91,1.67-1.47,2.93-2.34,5.04-.55,1.3-1.15,2.7-1.7,4.01l-.54,1.28-.58,1.27c-.39,.85-.77,1.69-1.16,2.54-.4,.85-.82,1.68-1.23,2.51-.41,.83-.82,1.66-1.28,2.46l-1.33,2.41-1.43,2.28c-.12,.19-.23,.38-.35,.56l-.39,.52-.75,1.04c-.47,.67-1.06,1.37-1.6,2.07-.23,.29-.47,.6-.72,.92-.27,.31-.54,.62-.79,.89-.51,.53-.97,.9-1.25,.81,.34-.98,.62-1.27,1.15-2.31,.44-.55,.88-1.11,1.32-1.66l.33-.41,.29-.39,.58-.78c.81-1.01,1.51-2.18,2.24-3.32,.38-.56,.71-1.17,1.04-1.77,.35-.6,.69-1.19,1.02-1.79,.66-1.22,1.27-2.46,1.91-3.69,2.45-4.99,4.62-10.15,6.6-15.65,.94-.73,2.21-4.94,2.48-.82Z"/><path class="f" d="M1102.13,623.52c-.01,.24-.02,.52-.06,.82-.05,.3-.12,.62-.21,.95-.17,.65-.41,1.3-.71,1.82-.37,.22,.24-1.21-.01-1.17-.32,.46-.64,.94-.98,1.42-.35,.47-.73,.96-1.1,1.44-.36,.48-.74,.97-1.11,1.47-.13,.15-.26,.29-.39,.44-.27,.31-.54,.62-.81,.94-1.59,1.86-3.33,3.7-5.09,5.45-3.54,3.52-7.35,6.62-10.87,8.88-.51,.36-1.02,.55-1.53,.88-.66,.43-1.4,1.08-2.17,1.67-.77,.6-1.51,1.19-2.08,1.56,.99-1.34,2.01-2.29,2.91-3.12,.92-.82,1.8-1.44,2.51-2.11,1.11-.46,2.05-1.07,3.31-2.05,1.68-1.24,3.09-2.48,4.58-3.81,.36-.34,.85-.98,1.17-1.27,.39-.34,.63-.26,.99-.61,.57-.59,1.36-1.83,1.96-2.45,.33-.35,.57-.28,.95-.68,.4-.43,.91-1.06,1.43-1.72,.5-.66,1.01-1.37,1.48-1.91,.18-.21,.35-.41,.51-.6,.16-.2,.32-.39,.46-.58,.31-.38,.6-.74,.88-1.08,.28-.34,.55-.66,.81-.97,.25-.31,.48-.61,.71-.89,.08-.1,.16-.2,.23-.32,.4-.55,.85-1.25,1.25-1.78,.45-.64,.81-1.05,.98-.62Z"/><path class="f" d="M1064.88,669.69c-1.63,.8-2.26,.71-3.35,.7-.97,.37-1.96,.64-2.93,.92-.56,.15-1.1,.31-1.65,.45-.4,.11-.81,.22-1.21,.32-.95,.21-1.9,.42-2.84,.62l-1.4,.3-1.42,.24c-.93,.15-1.87,.3-2.81,.46-.93,.16-1.89,.25-2.84,.38-.96,.12-1.9,.27-2.87,.37-.97,.1-1.95,.21-2.94,.31-1.17,.17-3.17,.64-3.46,.17,.58-.34,1.94-.72,2.76-1.12,2.06-.42,3.57-.51,5.03-.67,.74-.06,1.47-.12,2.27-.19,.4-.03,.82-.07,1.25-.12,.44-.07,.9-.14,1.39-.23,1.05-.19,2.09-.39,3.11-.6,1-.25,1.98-.49,2.95-.73,.48-.11,.97-.23,1.44-.34l1.41-.39c.93-.25,1.86-.48,2.79-.68,.47-.12,.93-.24,1.38-.37,2.35-.66,4.27-1.24,3.94,.2Z"/><path class="f" d="M1108.78,513.17c-.05,.07-.1,.11-.15,.12,.05-.4,.1-.77,.16-1.14,.19-1.27,.4-2.45,.49-4.1-.16,.53-.32,1.07-.47,1.61-1.77,6.15-3.39,12.93-5.13,19.39-1.66,6.19-3.32,12.9-5.01,18.77-.26,.89-.51,2.33-.88,2.42-.14-.5-.08-1.77-.1-2.76,3.05-10.01,5.46-21.8,8.55-31,.17-2.03,.66-3.05,1.03-4.55,.51-2.08,.71-2.86,1.28-4.56,.11-.31,.2-.62,.28-.88,.29-.92,.49-1.31,.87,.5,.23,2.55-.41,5.55-.92,6.18Z"/><path class="f" d="M1108.31,572.6s-.01,0-.01,.01c-.32,.19,0-1.86-.4-1.42-1.43,3.31-2.67,7.58-3.98,11.85-.65,2.13-1.32,4.25-2.03,6.25-.69,2.01-1.46,3.88-2.25,5.5-.43,1.52-.95,2.8-1.47,3.98-.53,1.17-1.04,2.24-1.61,3.3-.31,1.49-.69,2.46-1.23,2.24l.26-2.35c.67-1.45,1.35-2.47,1.88-4.6,1.44-2.64,2.74-6,3.84-10.07,.18-.27,.36-.56,.57-.66,.41-1.8,.83-3.37,1.45-4.1,.17-1.24,.51-2.24,.76-3.1,.78-2.58,1.51-4.94,2.28-7.24,.49-1.42,1.04-3.39,1.77-3.1,.07,.33,.14,.7,.18,1.16v.04c.05,.58,.06,1.32-.01,2.31Z"/><path class="f" d="M1045.88,679.24c-.37,.29-.52,.55-.84,.83-.17,.14-.37,.29-.67,.46-.29,.15-.69,.31-1.22,.48,0-.34,.35-.58-.26-.66-1.17,.05-2.38,.13-3.61,.23-1.24,.07-2.51,.14-3.8,.21-.64,.04-1.28,.08-1.93,.12-.47,0-.93,.03-1.4,.05-.19,0-.39,.01-.58,.02-1.33,.03-2.65,.13-4,.13s-2.67,.01-4.02,.01c-.66,.02-1.33-.01-2-.04-.66-.03-1.33-.05-1.99-.08-2.62-.07-5.23-.37-7.67-.64,1.78-.88,4.33-.57,5.66-.53,.5,.02,1.11,.21,1.75,.21,.15,.01,.59-.16,.98-.18,.93-.05,1.75-.01,2.48,.01,.72,.01,1.38,.04,2,.04,.65,0,1.33-.01,2.02-.01s1.36,.01,2.01-.02c1.3-.03,2.5-.02,3.35,.05,1.24-.11,2.34-.25,3.39-.32,.85-.06,1.66-.09,2.46-.11,.19-.01,.37-.01,.56-.02,.96-.06,1.92-.11,2.91-.19,.5-.04,1.01-.08,1.53-.14,.26-.03,.53-.06,.8-.09,.27-.05,.53-.1,.81-.14,.31,.19,.68,.34,1.28,.32Z"/><path class="f" d="M1108.01,584.87c-.16-1.32-.67-.62-.87-.39-.31,.34-.9,2.14-1.43,3.43-1.89,4.74-3.86,10.28-5.8,15.22-1.5,3.92-3.41,7.94-4.99,11.66-.42,.93-.93,2.56-1.35,3.09-.4-.43,.13-2.22,.33-2.94,.62-2.46,2.25-4.61,2.75-7.03,2.27-3.8,3.96-10.64,5.95-14.61,.74-3.02,1.65-4.7,2.48-6.83,.8-2.1,1.64-5.39,2.9-4.76,.11,.53,.19,2.68,.03,3.16Z"/><path class="f" d="M1105.67,610.59c-.27,.5-.05,.87-.35,1.76-.4,.93-.06-.63-.27-.77-.01-.02-.03-.02-.06-.01-.53,.74-1.04,2.22-1.61,2.64-.5,1.66-1.11,2.74-1.71,3.81-.3,.54-.6,1.08-.9,1.68-.31,.61-.64,1.29-.96,2.12-.24,.44-.48,.9-.72,1.35-.24,.44-.53,.88-.79,1.31-.27,.43-.53,.86-.8,1.29l-.4,.63c-.13,.21-.29,.41-.43,.61-.6,.8-1.15,1.59-1.77,2.33-.63,.74-1.24,1.47-1.87,2.18-2.54,2.82-5.21,5.29-7.87,7.46-.66,.55-1.78,1.74-2.07,1.37,1.12-2.1,2.27-2.92,3.08-3.44,.28-.49,.54-.86,.75-1.08,1.67-1.25,3.37-2.82,5.05-4.66,.42-.46,.81-.94,1.23-1.43,.4-.49,.86-.99,1.22-1.51,.74-1.04,1.57-2.12,2.23-3.32,.42-.47,.85-1.02,1.28-1.72,.41-.71,.8-1.57,1.2-2.63,.31,0,.63-1.13,.93-1.23,.43-1.08,.87-2.06,1.31-2.98,.45-.91,.83-1.77,1.25-2.61,.42-.83,.85-1.65,1.24-2.48,.4-.83,.79-1.66,1.18-2.56,.2,.61,.43,.45,.55,.84,.06,.18,.09,.49,.08,1.05Z"/><path class="f" d="M1057.43,674.58c-.84,.59-.39,.86-1.96,1.64-.09-.33,.27-.53-.29-.55-2.19,.31-4.75,.69-7.37,1.17-1.04,.16-2.1,.32-3.17,.48-.28,.05-.57,.09-.85,.13-1.35,.21-2.71,.33-4.03,.48-1.82,.21-3.25,.09-4.97,.19-.7,.03-1.4,.11-2.13,.16-.72,.05-1.45,.1-2.17,.15-1.44,.09-2.81,.21-3.98,.09-.79-.06-2.16-.01-1.83-.49,1.04-.32,1.86-.48,2.57-.55,.7-.1,1.28-.11,1.84-.09,1.13,.02,2.21,.16,3.97-.29,.77,.12,1.8,.07,2.86,0,.54-.03,1.08-.07,1.61-.11,.53-.03,1.03-.09,1.5-.1,1.31-.47,1.24,.03,2.7-.53,.95-.06,1.83-.12,2.75-.19,.91-.05,1.87-.12,3-.28,.49-.08,1.03-.19,1.59-.32,1-.23,2.05-.49,2.99-.68,1.44-.33,2.56-.51,2.71,.01,1.35-.53,1.92-.34,2.66-.31Z"/><path class="f" d="M1035.9,682.77c-.71,.58-.53,1.18-3.17,1.78-.24-.23,1-.49,.54-.7-1.56,.07-2.53-.22-4.05-.17-.43,.03-1.3,.23-1.75,.24-.88,.03-1.56-.16-2.53-.14-1.01,.03-1.86,0-2.71-.06-.85-.05-1.68-.1-2.62-.12-.75-.02-1.32-.05-1.86-.1-.53-.05-1.04-.13-1.67-.19-.91-.08-2.21,.01-3.12-.07-.04-.01-.09-.01-.13-.01-.38-.05-.74-.08-1.11-.12-.4-.06-.8-.13-1.19-.19-.78-.14-1.54-.28-2.3-.41-1.51-.28-3.01-.56-4.64-.86,.3-.17,1.04-.26,2-.34,1.81,.32,5.11,.43,5.54,1,1.04-.21,1.05-.24,1.04,.13,.47-.09,.55-.22,.98-.32,.36,.31,2.09,.04,2.13,.49,1.24-.28,.99,.08,2.05-.12,.94,.14,1.99,.24,3.1,.3,1.98,.12,4.17,.13,6.32,.04,.84-.02,1.69-.01,2.51-.06,.82-.04,1.62-.07,2.4-.09,.78-.01,1.53-.01,2.24,.01,.72,.02,1.38,.02,2,.08Z"/><path class="f" d="M1004.41,687.81c-1.09,.24-1.72,.72-3.46,.6-.27-.26,1.2-.19,.67-.5-5.57-1.39-11.8-2.79-17.33-4.64-1.02-.34-2.02-.7-2.98-1.07,1.22,0,1.91,.11,2.02,.34l2.04,.08c.37,.13,.78,.27,1.2,.4,.28,.08,.57,.16,.87,.25,.15,.04,.31,.09,.47,.13,.93,.25,1.92,.52,2.92,.8,2.01,.56,4.09,1,5.82,1.38,.77,.17,1.44,.43,2.09,.55,.2,.04,.85-.06,1.04-.04,2.33,.41,4.19,1.05,4.63,1.72Z"/><path class="f" d="M990.8,687.1c-.86,.04-1.24,.21-1.74,.35-1.2-.31-2.34-.58-3.44-.95-1.1-.35-2.18-.71-3.27-1.07-1.09-.35-2.18-.7-3.32-1.06-1.11-.37-2.28-.75-3.52-1.09-.02-.01-.04-.01-.06-.02,1.52-.11,2.47-.1,3.21,.02,.01-.01,.02-.01,.03,0,.24,.04,.45,.08,.66,.14,.84,.2,1.52,.54,2.89,.94,1.47,.43,3.74,.89,3.39,1.28,2.72,.28,3.86,.86,5.17,1.46Z"/><path class="f" d="M976.63,686.09c-.38,.27-1.11,.42-2.12,.47-.66-.37-1.37-.73-2.12-1.07-.75-.36-1.53-.74-2.34-1.1-.84-.37-1.7-.74-2.59-1.11-.84-.35-1.69-.69-2.56-1.03,1.08-.12,2.72,.08,3.75,.31,.71,.15,1.11,.44,1.54,.72,.23,.14,.46,.29,.76,.41,.42,.17,.94,.36,1.48,.53,.54,.17,1.09,.34,1.57,.5,.95,.33,1.61,.64,1.28,.92,1.28,0,.64,.35,1.35,.45Z"/><path class="f" d="M1082.78,655.9c-.22,.4-.2,.78-.27,1.18-.06,.4-.22,.82-.83,1.28,.27-.35-.41-.07-.13-.63-1.09,.37-2.31,1.03-3.57,1.67-1.28,.61-2.55,1.24-3.68,1.63-1.24,.66-2.46,1.27-3.67,1.83-6.2,2.89-12.16,4.63-18.84,6.39-.56,.01-1.46,.36-2.26,.57-.81,.19-1.49,.29-1.58-.13,1.41-.69,1.24-.61,2.64-1.31,.85-.24,1.71-.48,2.55-.71,.85-.23,1.64-.5,2.42-.7,.78-.21,1.53-.39,2.23-.51,.68-.15,1.31-.25,1.88-.26,1.07-.75,1.28-.56,2.12-1.06,3.44-1.27,6.82-2.55,10.05-4.07,.77-.34,1.53-.7,2.29-1.07,2.46-1.19,4.87-2.5,7.27-3.91,.07,.66,1.07-.41,1.38-.19Z"/><path class="f" d="M1018.09,687.04c-.45-.71-3-.55-4.05-1.01-.64,.02-1.25,0-1.83-.01-.58-.02-1.14-.08-1.67-.13-1.07-.12-2.05-.26-3.01-.41-1.92-.26-3.79-.71-6.12-.92-1-.54-2.85-.87-4.42-1.3-.54-.14-1.04-.3-1.46-.48-1.34-.1-2.81-.17-3.39-.54,1.08-.11,2.06-.2,2.97-.18,.9,.02,1.72,.12,2.46,.26,.74,.13,1.4,.32,1.97,.5,.48,.14,.89,.29,1.23,.44,.08,.02,.15,.05,.22,.08,.21-.01,.32-.05,.44-.08,.14-.04,.28-.07,.57-.08,.11,.02,.21,.05,.32,.07,1.73,.41,3.48,1.2,6.33,1.49,.7,.07,1.77,0,2.43,.09,.77,.11,1.03,.33,1.79,.39,.2,.02,.82-.16,1.03-.15,.51,.03,1.08,.2,1.79,.27,.63,.06,1.31,.15,1.94,.25,.62,.1,1.17,.18,1.53,.31,.73,.26,.71,.63-1.07,1.14Z"/><path class="f" d="M1000.77,683.26c.08,.02,.15,.05,.22,.08,.21-.01,.32-.05,.44-.08-.22-.01-.44-.01-.66,0Zm108.04-173.6c-.01,.83-.01,1.66-.02,2.49,.19-1.27,.4-2.45,.49-4.1-.16,.53-.32,1.07-.47,1.61Zm4.98-30.85c-.53-100.46-1.28-280.93-2.09-381.8-.41-6.1-1.31-12.25-2.82-18.19-10.93-44.6-52.16-76.67-98-76.41-300.67,.04-613.31-3.85-913.71-1.82-11.33,.61-22.61,3-33.12,7.29C29.97,21.44,5.12,53.57,.81,89.99,.24,94.43-.02,99.01,0,103.5c.15,25.96,.27,52.19,.36,78.6,0,1.88,.01,3.75,.02,5.63,.44,133.65,.22,271.68,.24,402.63,0,.98,.13,2.37,.2,3.37l.12,1.67c.04,.57,.09,1.13,.17,1.68,.81,7.79,2.63,15.58,5.2,22.98,4.48,12.71,11.63,24.53,20.69,34.51,6.84,7.45,14.77,14.02,23.49,19.13,15.48,9.29,33.53,14.1,51.58,14.21l213.4,.74c211.33,.44,482.49,.92,693.55,.73,13.7,.14,27.51-2.24,40.22-7.41,30.97-12.16,55.05-40.19,62.29-72.67l.38-1.67,.19-.84,.15-.84,.6-3.38,.15-.85,.11-.85,.21-1.7,.21-1.7c.07-.57,.14-1.14,.17-1.71l.26-3.41c.11-1.14,.1-2.28,.14-3.43,.02-1.13,.06-2.29,.06-3.41l-.37-106.7Zm-4.76-3.88c.01,.25,.01,.47-.01,.68-.01,3.61-.04,7.21-.06,10.8h0c0,.86-.01,1.7-.01,2.55h0c-.04,5.89-.08,11.73-.12,17.53-.01,1.06-.01,2.12-.02,3.17-.01,.83-.01,1.66-.02,2.49,0,.34,0,.68-.01,1.02-.02,2.84-.04,5.66-.06,8.47,0,.57-.01,1.13-.01,1.69-.02,2.96-.04,5.91-.07,8.84,0,.83-.01,1.67-.02,2.5-.01,2.04-.03,4.07-.05,6.1,0,.76-.01,1.52-.02,2.28-.07,9.21-.15,18.29-.23,27.2v.04c-.01,.77-.02,1.55-.02,2.32-.08,7.67-.16,15.22-.24,22.63-.16,1.79-.47,3.82-.7,5.62l-.14,.8-.58,3.19c-.14,.87-.49,2.31-.69,3.16l-.36,1.53v.05l-.2,.79-.22,.77c-.04,.14-.08,.29-.12,.43-1.32,4.94-3.05,9.73-5.15,14.34-.73,1.62-1.51,3.22-2.34,4.79-.91,1.77-1.89,3.5-2.92,5.19-.72,1.2-1.46,2.38-2.23,3.54-2,3-4.16,5.89-6.48,8.65-1.23,1.48-2.51,2.92-3.83,4.33-2.52,2.67-5.18,5.21-7.97,7.58-1.15,.98-2.31,1.93-3.5,2.86-3.09,2.4-6.33,4.61-9.69,6.63-1.31,.79-2.64,1.55-3.99,2.27-2.57,1.39-5.19,2.66-7.88,3.8-1.46,.63-2.94,1.21-4.43,1.76-2.18,.81-4.4,1.53-6.65,2.18-1.92,.54-3.87,1.03-5.84,1.46-1.25,.27-2.51,.51-3.77,.73-2.54,.49-5.24,.85-7.95,1.1-2.57,.25-5.15,.39-7.6,.44-.18,0-.35,.01-.52,.01-3.28,0-6.61,.01-9.99,.01-.3,0-.59,0-.89,.01-.22-.01-.44-.01-.66,0-1.25-.01-2.51,0-3.78,0-3.14,0-6.33,0-9.55,.01h-3.15c-1.85,0-3.72,0-5.6,.01,0-.01-.02-.01-.03,0-1.05-.01-2.1-.01-3.15,0-1.76-.01-3.54,0-5.32,0h-2.73c-133.11,.07-319.44-.18-438.59,.3-106.45,.26-320.29,.55-426.8,1.16-17.5,.02-35.05-4.52-50.17-13.44-24.27-14.01-42.02-38.77-47.32-66.31-.93-4.55-1.42-9.26-1.75-13.89-.56-122.81-.51-251.35-.01-377.05,.01-1,.01-1.99,.02-2.99,.01-2.64,.02-5.27,.04-7.91,0-1.04,0-2.09,.01-3.13,.01-2.55,.02-5.09,.03-7.64,0-.95,.01-1.91,.01-2.86,.02-3.21,.03-6.42,.05-9.62,0-1.19,.01-2.37,.02-3.55,0-2.12,.01-4.23,.03-6.34h0c0-1.38,.01-2.74,.02-4.1,0-2.93,.03-5.86,.04-8.78,.01-1.16,.01-2.32,.02-3.48,.01-1.28,.01-2.56,.02-3.84,.01-1.42,.01-2.84,.03-4.25,.01-3.09,.03-6.18,.04-9.26,.01-1.1,.02-2.21,.02-3.31,.02-3.78,.05-7.57,.06-11.34h0c.01-1.05,.02-2.08,.02-3.11,.02-2.66,.04-5.31,.05-7.96,.01-1.06,.02-2.13,.02-3.19,.03-3.49,.05-6.97,.07-10.44l.04-.49,.18-2.27,.04-.51c.03-.55,.11-1.09,.18-1.63,.08-.79,.36-2.49,.43-3.26l.11-.81,.15-.81,.59-3.22s.02-.09,.03-.14c.25-1.34,.62-2.83,.95-4.22h.01c.1-.43,.2-.84,.29-1.23,.96-3.7,2.14-7.33,3.54-10.88,.53-1.33,1.08-2.65,1.67-3.96,.79-1.77,1.63-3.52,2.53-5.25,.45-.85,.9-1.7,1.38-2.54,1.52-2.73,3.17-5.38,4.93-7.95,.71-1.02,1.43-2.03,2.17-3.03t.01-.01c1.96-2.62,4.05-5.16,6.26-7.58,.91-1.01,1.84-1.99,2.8-2.96,9.58-9.71,21.12-17.46,33.89-22.39,10.09-4.04,20.91-6.25,31.75-6.77,300.41,1.28,612.84-1.81,913.51-2.05,50.88-.04,93.96,38.53,99.32,89.13,.08,.54,.13,1.09,.16,1.64l.12,1.66,.12,1.65,.06,.83c.05,2.49,.15,4.96,.11,7.47-.76,108.86-1,246.35-1.74,369.56Z"/><path class="d" d="M1102.72,492.95c1.61-4.62,3.11-9.89,4.59-14.65,.48-1.6,.94-3.92,1.64-4.09,.04,.26,.07,.5,.08,.72,.74-123.21,.98-260.7,1.74-369.56,.04-2.51-.06-4.98-.11-7.47l-.06-.83-.12-1.65-.12-1.66c-.03-.55-.08-1.1-.16-1.64-5.36-50.6-48.44-89.17-99.32-89.13-300.67,.24-613.1,3.33-913.51,2.05-10.84,.52-21.66,2.73-31.75,6.77-12.77,4.93-24.31,12.68-33.89,22.39,.01,0,.02,0,.03-.01,1.28-.62,2.56-1.25,3.68-1.63,7.58-4.04,14.53-6.13,22.51-8.23,.56,0,1.46-.36,2.26-.56,.81-.2,1.5-.29,1.58,.12-1.4,.7-1.23,.62-2.63,1.31-.86,.25-1.71,.48-2.55,.72-.85,.22-1.65,.49-2.43,.69-.77,.22-1.52,.39-2.22,.52-.69,.14-1.32,.24-1.89,.25-1.06,.75-1.28,.56-2.12,1.06-3.44,1.27-6.82,2.55-10.05,4.07-3.08,1.38-6.03,2.94-8.97,4.65-2.21,2.42-4.3,4.96-6.26,7.58,.67-.45,1.31-.92,1.96-1.4,.9-.62,1.79-1.28,2.71-1.97,1-.71,1.96-1.28,2.91-1.85,.95-.57,1.96-1.07,2.97-1.69,4.25-2.51,8.33-4.39,12.33-5.84,1.02-.33,2.04-.67,3.08-1.01,1.01-.35,2.08-.62,3.11-.99,.38-.12,.93-.43,1.39-.64,.47-.19,.85-.28,.86-.04-.69,.64-1.4,1.11-2.12,1.39-.71,.3-1.4,.48-1.94,.67-1.83,.68-4.43,1.9-5.83,2.52-3,.62-6.69,2.85-10.07,4.74-.81,.47-1.44,.66-2.25,1.14-.85,.54-1.74,1.22-2.61,1.81-.71,.46-1.48,1.06-2.33,1.67-.42,.31-.85,.62-1.29,.93-.42,.33-.85,.65-1.26,.97-1.52,1.11-2.9,2.16-3.8,2.63-1.76,2.57-3.41,5.22-4.93,7.95,3.6-3.23,7.58-6.7,11.84-9.8,4.44-3.22,9.16-6.03,13.71-7.97,.91-.56,2.07-1.51,2.56-1.48-.61,.7-1.39,1.47-2.59,2.43-.95,.39-2.3,1.42-3.43,1.99-.51,.27-.77,.15-1.35,.48-.8,.45-1.93,1.44-2.72,1.93-.64,.38-1.05,.29-1.7,.69-.2,.12-.41,.27-.64,.45-.21,.19-.44,.38-.67,.58-.45,.4-.92,.81-1.32,1.1-.61,.42-1.22,.86-1.83,1.32-.63,.45-1.26,.9-1.9,1.37-1.24,.97-2.6,1.94-3.84,3.09-.54,.48-1.17,1.04-1.82,1.61-.64,.59-1.31,1.19-1.97,1.77-1.28,1.16-2.46,2.21-3.17,2.66-.17,.12-.36,.24-.54,.32-.9,1.73-1.74,3.48-2.53,5.25,.05-.07,.1-.13,.15-.2,.39-.45,.79-.92,1.19-1.38,1.59-1.86,3.33-3.7,5.1-5.46,3.54-3.51,7.35-6.61,10.86-8.87,.52-.36,1.03-.55,1.54-.89,.66-.42,1.39-1.07,2.17-1.66,.77-.6,1.51-1.19,2.08-1.56-.99,1.34-2.02,2.28-2.92,3.12-.91,.82-1.8,1.44-2.51,2.11-1.11,.46-2.04,1.07-3.31,2.05-1.68,1.24-3.08,2.48-4.57,3.81-.37,.34-.85,.98-1.18,1.27-.39,.34-.62,.26-.99,.61-.57,.58-1.35,1.83-1.96,2.45-.33,.35-.56,.28-.94,.68-.41,.43-.91,1.06-1.43,1.72-.5,.66-1.02,1.36-1.49,1.91-.17,.2-.35,.4-.51,.59-.16,.21-.31,.4-.46,.59-.31,.38-.6,.74-.87,1.08-.29,.34-.56,.66-.82,.97-.24,.31-.47,.61-.7,.89-.03,.04-.07,.08-.1,.13-1.4,3.55-2.58,7.18-3.54,10.88-.09,.39-.19,.8-.29,1.22,.07-.08,.14-.15,.21-.2,.5-1.67,1.12-2.75,1.72-3.82,.3-.53,.6-1.07,.9-1.68s.64-1.29,.96-2.11c.23-.45,.48-.91,.72-1.35,.24-.45,.53-.89,.79-1.32,.26-.43,.53-.85,.79-1.28l.4-.64c.14-.2,.3-.4,.44-.6,.6-.81,1.14-1.59,1.76-2.34,.64-.74,1.25-1.47,1.88-2.18,2.53-2.82,5.2-5.29,7.86-7.46,.67-.55,1.79-1.74,2.07-1.36-1.12,2.1-2.26,2.91-3.07,3.43-.29,.5-.54,.86-.75,1.08-1.68,1.25-3.37,2.83-5.05,4.66-.43,.46-.82,.94-1.24,1.43-.4,.49-.86,.99-1.21,1.51-.75,1.04-1.57,2.12-2.23,3.32-.42,.47-.85,1.03-1.29,1.72-.4,.71-.79,1.57-1.19,2.63-.32,0-.64,1.13-.93,1.23-.44,1.08-.87,2.06-1.31,2.98-.45,.92-.84,1.78-1.26,2.61-.41,.84-.84,1.65-1.24,2.48-.23,.49-.46,.98-.69,1.49,0,.05-.02,.09-.03,.14l-.59,3.22-.15,.81-.11,.81c-.07,.77-.35,2.47-.43,3.26-.07,.54-.15,1.08-.18,1.63l-.04,.51c.29-.38,.56-.93,.86-1.48,.9-1.67,1.47-2.93,2.34-5.04,.55-1.3,1.14-2.7,1.7-4.01l.54-1.28,.58-1.28c.38-.84,.77-1.69,1.15-2.54,.4-.84,.83-1.67,1.24-2.5,.41-.83,.82-1.66,1.28-2.47l1.33-2.4,1.42-2.28c.12-.19,.23-.38,.36-.56l.38-.52,.76-1.04c.46-.67,1.05-1.38,1.6-2.07,.22-.29,.47-.6,.72-.92,.26-.31,.53-.62,.78-.89,.52-.53,.98-.9,1.25-.81-.33,.97-.61,1.27-1.15,2.31l-1.32,1.65-.33,.42-.29,.39-.58,.78c-.81,1.01-1.5,2.18-2.24,3.32-.38,.56-.7,1.17-1.04,1.76-.34,.61-.68,1.2-1.02,1.8-.65,1.22-1.27,2.46-1.9,3.69-2.46,4.99-4.62,10.15-6.61,15.64-.65,.52-1.46,2.71-1.99,2.6l-.04,.49c-.02,3.47-.04,6.95-.07,10.44,.22-.56,.45-1.18,.67-1.71,1.89-4.74,3.86-10.28,5.79-15.22,1.51-3.93,3.41-7.94,4.99-11.66,.43-.93,.94-2.56,1.36-3.09,.4,.43-.13,2.21-.33,2.94-.62,2.46-2.25,4.61-2.75,7.03-2.28,3.8-3.97,10.64-5.95,14.62-.74,3.02-1.66,4.69-2.49,6.82-.41,1.07-.83,2.45-1.31,3.46-.01,2.65-.03,5.3-.05,7.96,.86-2.5,1.68-5.25,2.53-7.99,.64-2.13,1.32-4.25,2.03-6.26,.69-2,1.45-3.87,2.25-5.49,.43-1.52,.95-2.8,1.46-3.98,.53-1.17,1.04-2.24,1.61-3.3,.31-1.49,.69-2.46,1.24-2.25l-.27,2.36c-.66,1.45-1.34,2.47-1.87,4.6-1.45,2.64-2.75,6-3.84,10.07-.19,.27-.37,.56-.58,.66-.41,1.8-.83,3.37-1.45,4.09-.17,1.25-.51,2.25-.76,3.1-.77,2.59-1.5,4.95-2.28,7.25-.03,.08-.05,.16-.09,.24h0c-.01,3.78-.04,7.57-.06,11.35,3.13-10.46,6.07-22.56,9.93-32.24,.16-1.52,.37-2.79,.89-2.32,.3,.2-.04,2.23-.07,3.4-.75,1.64-1.37,3.81-2.12,5.35-.49,2.98-1.3,4.61-1.92,6.45-1.39,4.26-2.61,8.78-3.84,13.05-.48,1.64-.95,3.34-1.41,4.84-.37,1.2-.88,3.2-1.38,4.52-.03,.08-.06,.17-.1,.26-.01,3.08-.03,6.17-.04,9.26,1.46-4.78,2.82-10.18,4.18-15.04,.48-1.67,1.01-3.5,1.53-5.33,.52-1.83,1.04-3.65,1.45-5.33,.87-3.42,1.78-6.4,2.76-9.18,.2-.85,.29-2.24,.57-2.71,.27,.88-.02,2.61-.11,4.1-.88,2.64-1.59,5.32-2.34,8.16-1.14,4.35-2.3,8.91-3.44,12.73-.4,1.32-.82,2.4-1.19,3.8-.36,1.39-.72,2.79-1.08,4.16-.75,2.79-1.44,5.99-2.19,8.35-.05,.18-.11,.36-.17,.54,0,1.28,0,2.56-.02,3.84,2.61-9.08,5.32-18.48,7.95-27.9,.47-1.7,.99-2.87,1.44-4.45,.25-.91,.31-2.72,.78-2.72,0,4.46-.84,4.97-1.43,7.19-.44,1.66-.66,3.16-.97,4.81-1.74,4.58-2.92,11.31-4.67,15.56-.89,4.33-2.05,7.49-3.12,10.99-.01,2.92-.03,5.85-.04,8.78,1.36-4.93,2.6-10.55,3.98-15.62,1.45-5.32,2.93-10.71,4.35-15.91,.23-.84,.47-1.85,.73-2.76,.18-.63,.52-2.01,.82-1.71,.31,3.11-.5,3.57-.85,4.82-.58,2-.91,4.76-1.27,6.55-1.32,1.77-1.71,7.12-2.89,9.35-1.45,6.52-3.37,13.31-4.84,19.18-.02,.07-.03,.13-.05,.19h0c-.02,2.12-.03,4.23-.03,6.35,1.01-3.91,2.02-7.92,3.07-11.81,1.65-6.19,3.32-12.9,5.01-18.77,.25-.9,.5-2.33,.87-2.42,.14,.5,.09,1.76,.1,2.76-3.05,10.01-5.46,21.8-8.54,31-.1,1.17-.3,2.01-.53,2.79-.02,3.2-.03,6.41-.05,9.62,1.44-4.88,2.72-10.38,4.05-15.28,1.57-5.78,3.18-11.83,4.63-17.76,.27-1.15,.61-3.1,1.11-3.12,.35,2.39-.35,3.95-.64,5.19-2.51,10.6-5.36,19.81-7.73,30.01-.62,.74-.76,3.17-1.43,3.82-.01,2.55-.02,5.09-.03,7.64,.97-3.4,1.9-6.87,2.83-10.11,.5-1.75,.94-3.79,1.43-5.6,.48-1.75,1.06-3.11,1.55-4.9,1-3.66,2.02-7.07,2.93-10.82,.47-1.94,.88-4.1,1.49-5.56,.13,.44,.12,1.5,.14,2.41-.28,.96-.55,1.89-.64,3.47-.57,.24-.63,2.46-.98,3.83-.5,1.96-1.24,3.24-1.73,5.24-.19,.79-.27,2.01-.46,2.79-.54,2.23-1.29,3.87-1.87,5.95-.62,2.21-1.08,4.9-1.85,6.31-.16,2.37-.77,2.8-1.12,4.2-.31,1.27-.56,1.76-.89,2.81-.2,.62-.27,1.81-.46,2.44-.09,.31-.25,.47-.38,.67-.02,2.64-.03,5.27-.04,7.91,.29-.77,.59-1.54,.87-2.35,.54-1.57,1-3.51,1.54-5.24,2.36-7.61,4.92-15.14,7.42-21.74,.18-.5,.58-2.68,.94-1.07l.02,.69c-1.06,3.26-2.17,6.93-3.33,10.16-1.1,3.04-2.21,6.09-3.27,9.13-1.47,4.22-2.85,8.98-4.21,13.41-.5,125.7-.55,254.24,.01,377.05,.33,4.63,.82,9.34,1.75,13.89,5.3,27.54,23.05,52.3,47.32,66.31,15.12,8.92,32.67,13.46,50.17,13.44,106.51-.61,320.35-.9,426.8-1.16,119.15-.48,305.48-.23,438.59-.3-.84-.35-1.69-.69-2.56-1.03,1.08-.12,2.72,.08,3.75,.31,.71,.15,1.11,.44,1.54,.72,1.78,0,3.56-.01,5.32,0-.02-.01-.04-.01-.06-.02,1.52-.11,2.47-.1,3.21,.02,.01-.01,.02-.01,.03,0,1.88-.01,3.75-.01,5.6-.01-1.02-.34-2.02-.7-2.98-1.07,1.22,0,1.91,.11,2.02,.34l2.04,.08c.37,.13,.78,.27,1.2,.4,.28,.08,.57,.16,.87,.25,3.22-.01,6.41-.01,9.55-.01-.54-.14-1.04-.3-1.46-.48-1.34-.1-2.81-.17-3.39-.54,1.08-.11,2.06-.2,2.97-.18,.9,.02,1.72,.12,2.46,.26,.74,.13,1.4,.32,1.97,.5,.48,.14,.89,.29,1.23,.44,.22-.01,.44-.01,.66,0,.14-.04,.28-.07,.57-.08,.11,.02,.21,.05,.32,.07,3.38,0,6.71-.01,9.99-.01,.17,0,.34-.01,.52-.01-.38-.05-.74-.08-1.11-.12-.4-.06-.8-.13-1.19-.19-.78-.14-1.54-.28-2.3-.41-1.51-.28-3.01-.56-4.64-.86,.3-.17,1.04-.26,2-.34,1.81,.32,5.11,.43,5.54,1,1.04-.21,1.05-.24,1.04,.13,.47-.09,.55-.22,.98-.32,.36,.31,2.09,.04,2.13,.49,1.24-.28,.99,.08,2.05-.12,.94,.14,1.99,.24,3.1,.3,2.71-.25,5.41-.61,7.95-1.1,1.26-.22,2.52-.46,3.77-.73-.19,0-.39,.01-.58,.02-1.33,.03-2.65,.13-4,.13s-2.67,.01-4.02,.01c-.66,.02-1.33-.01-2-.04-.66-.03-1.33-.05-1.99-.08-2.62-.07-5.23-.37-7.67-.64,1.78-.88,4.33-.57,5.66-.53,.5,.02,1.11,.21,1.75,.21,.15,.01,.59-.16,.98-.18,.93-.05,1.75-.01,2.48,.01,.72,.01,1.38,.04,2,.04,.65,0,1.33-.01,2.02-.01s1.36,.01,2.01-.02c1.3-.03,2.5-.02,3.35,.05,1.24-.11,2.34-.25,3.39-.32,.85-.06,1.66-.09,2.46-.11,2.25-.65,4.47-1.37,6.65-2.18-.28,.05-.57,.09-.85,.13-1.35,.21-2.71,.33-4.03,.48-1.82,.21-3.25,.09-4.97,.19-.7,.03-1.4,.11-2.13,.16-.72,.05-1.45,.1-2.17,.15-1.44,.09-2.81,.21-3.98,.09-.79-.06-2.16-.01-1.83-.49,1.04-.32,1.86-.48,2.57-.55,.7-.1,1.28-.11,1.84-.09,1.13,.02,2.21,.16,3.97-.29,.77,.12,1.8,.07,2.86,0,.54-.03,1.08-.07,1.61-.11,.53-.03,1.03-.09,1.5-.1,1.31-.47,1.24,.03,2.7-.53,.95-.06,1.83-.12,2.75-.19,.91-.05,1.87-.12,3-.28,.49-.08,1.03-.19,1.59-.32,2.69-1.14,5.31-2.41,7.88-3.8-.4,.11-.81,.22-1.21,.32-.95,.21-1.9,.42-2.84,.62l-1.4,.3-1.42,.24c-.93,.15-1.87,.3-2.81,.46-.93,.16-1.89,.25-2.84,.38-.96,.12-1.9,.27-2.87,.37-.97,.1-1.95,.21-2.94,.31-1.17,.17-3.17,.64-3.46,.17,.58-.34,1.94-.72,2.76-1.12,2.06-.42,3.57-.51,5.03-.67,.74-.06,1.47-.12,2.27-.19,.4-.03,.82-.07,1.25-.12,.44-.07,.9-.14,1.39-.23,1.05-.19,2.09-.39,3.11-.6,1-.25,1.98-.49,2.95-.73,.48-.11,.97-.23,1.44-.34l1.41-.39c.93-.25,1.86-.48,2.79-.68,.47-.12,.93-.24,1.38-.37,3.36-2.02,6.6-4.23,9.69-6.63-6.2,2.89-12.16,4.63-18.84,6.39-.56,.01-1.46,.36-2.26,.57-.81,.19-1.49,.29-1.58-.13,1.41-.69,1.24-.61,2.64-1.31,.85-.24,1.71-.48,2.55-.71,.85-.23,1.64-.5,2.42-.7,.78-.21,1.53-.39,2.23-.51,.68-.15,1.31-.25,1.88-.26,1.07-.75,1.28-.56,2.12-1.06,3.44-1.27,6.82-2.55,10.05-4.07,.77-.34,1.53-.7,2.29-1.07,2.79-2.37,5.45-4.91,7.97-7.58-.89,.62-1.76,1.13-2.61,1.64-.94,.58-1.95,1.07-2.97,1.7-4.25,2.51-8.32,4.39-12.32,5.83-1.02,.34-2.05,.67-3.08,1.01-1.02,.35-2.09,.63-3.12,.99-.38,.13-.92,.43-1.38,.64-.47,.19-.85,.28-.87,.04,.7-.64,1.41-1.1,2.13-1.39,.7-.3,1.39-.48,1.93-.66,1.84-.69,4.44-1.91,5.84-2.52,3-.63,6.69-2.86,10.07-4.75,.81-.47,1.44-.66,2.25-1.14,.85-.53,1.74-1.22,2.61-1.81,.71-.46,1.48-1.06,2.32-1.67,.43-.3,.86-.62,1.29-.93,.42-.32,.85-.65,1.27-.96,.16-.12,.32-.23,.47-.35,2.32-2.76,4.48-5.65,6.48-8.65-3.11,2.76-6.49,5.61-10.06,8.21-4.44,3.23-9.17,6.03-13.72,7.97-.9,.57-2.06,1.51-2.55,1.48,.61-.69,1.39-1.47,2.58-2.43,.96-.39,2.31-1.43,3.44-1.99,.5-.27,.76-.15,1.35-.48,.79-.46,1.92-1.44,2.71-1.93,.65-.38,1.05-.29,1.71-.69,.19-.12,.41-.28,.63-.45,.22-.18,.45-.38,.68-.58,.45-.4,.91-.8,1.32-1.09,.61-.43,1.21-.87,1.82-1.32,.63-.45,1.26-.91,1.91-1.37,1.24-.97,2.59-1.95,3.83-3.1,.55-.48,1.18-1.03,1.83-1.61,.63-.58,1.31-1.19,1.96-1.76,1.07-.97,2.07-1.87,2.79-2.4,1.03-1.69,2.01-3.42,2.92-5.19-.27,.31-.54,.62-.81,.94-1.59,1.86-3.33,3.7-5.09,5.45-3.54,3.52-7.35,6.62-10.87,8.88-.51,.36-1.02,.55-1.53,.88-.66,.43-1.4,1.08-2.17,1.67-.77,.6-1.51,1.19-2.08,1.56,.99-1.34,2.01-2.29,2.91-3.12,.92-.82,1.8-1.44,2.51-2.11,1.11-.46,2.05-1.07,3.31-2.05,1.68-1.24,3.09-2.48,4.58-3.81,.36-.34,.85-.98,1.17-1.27,.39-.34,.63-.26,.99-.61,.57-.59,1.36-1.83,1.96-2.45,.33-.35,.57-.28,.95-.68,.4-.43,.91-1.06,1.43-1.72,.5-.66,1.01-1.37,1.48-1.91,.18-.21,.35-.41,.51-.6,.16-.2,.32-.39,.46-.58,.31-.38,.6-.74,.88-1.08,.28-.34,.55-.66,.81-.97,.25-.31,.48-.61,.71-.89,.08-.1,.16-.2,.23-.32,2.1-4.61,3.83-9.4,5.15-14.34-.01-.02-.03-.02-.06-.01-.53,.74-1.04,2.22-1.61,2.64-.5,1.66-1.11,2.74-1.71,3.81-.3,.54-.6,1.08-.9,1.68-.31,.61-.64,1.29-.96,2.12-.24,.44-.48,.9-.72,1.35-.24,.44-.53,.88-.79,1.31-.27,.43-.53,.86-.8,1.29l-.4,.63c-.13,.21-.29,.41-.43,.61-.6,.8-1.15,1.59-1.77,2.33-.63,.74-1.24,1.47-1.87,2.18-2.54,2.82-5.21,5.29-7.87,7.46-.66,.55-1.78,1.74-2.07,1.37,1.12-2.1,2.27-2.92,3.08-3.44,.28-.49,.54-.86,.75-1.08,1.67-1.25,3.37-2.82,5.05-4.66,.42-.46,.81-.94,1.23-1.43,.4-.49,.86-.99,1.22-1.51,.74-1.04,1.57-2.12,2.23-3.32,.42-.47,.85-1.02,1.28-1.72,.41-.71,.8-1.57,1.2-2.63,.31,0,.63-1.13,.93-1.23,.43-1.08,.87-2.06,1.31-2.98,.45-.91,.83-1.77,1.25-2.61,.42-.83,.85-1.65,1.24-2.48,.4-.83,.79-1.66,1.18-2.56,.2,.61,.43,.45,.55,.84l.36-1.53c.2-.85,.55-2.29,.69-3.16l.58-3.19,.14-.8c.23-1.8,.54-3.83,.7-5.62,.08-7.41,.16-14.96,.24-22.63-.32,.19,0-1.86-.4-1.42-1.43,3.31-2.67,7.58-3.98,11.85-.65,2.13-1.32,4.25-2.03,6.25-.69,2.01-1.46,3.88-2.25,5.5-.43,1.52-.95,2.8-1.47,3.98-.53,1.17-1.04,2.24-1.61,3.3-.31,1.49-.69,2.46-1.23,2.24l.26-2.35c.67-1.45,1.35-2.47,1.88-4.6,1.44-2.64,2.74-6,3.84-10.07,.18-.27,.36-.56,.57-.66,.41-1.8,.83-3.37,1.45-4.1,.17-1.24,.51-2.24,.76-3.1,.78-2.58,1.51-4.94,2.28-7.24,.49-1.42,1.04-3.39,1.77-3.1,.07,.33,.14,.7,.18,1.16,.08-8.91,.16-17.99,.23-27.2-.05-.21-.12-.33-.26-.14-2.13,5.73-4.01,13.45-5.89,20.16-.47,1.67-1,3.5-1.52,5.33-.53,1.82-1.04,3.65-1.46,5.33-.86,3.42-1.78,6.4-2.75,9.18-.21,.84-.29,2.24-.58,2.71-.26-.88,.02-2.62,.11-4.1,.89-2.65,1.59-5.32,2.35-8.16,1.13-4.36,2.3-8.91,3.43-12.73,.4-1.32,.82-2.4,1.19-3.8,.36-1.39,.73-2.79,1.08-4.16,.75-2.79,1.45-5.99,2.19-8.36,.51-1.63,1.26-3.68,2.13-3.54,.02-2.03,.04-4.06,.05-6.1-.33,.48-.5,1.57-.93,1.62-2.94,10.2-6.02,20.86-9,31.55-.47,1.7-1,2.86-1.44,4.44-.26,.92-.32,2.73-.79,2.73,.01-4.46,.84-4.98,1.43-7.19,.44-1.66,.66-3.16,.97-4.82,1.74-4.57,2.93-11.3,4.68-15.55,1.09-5.37,2.62-8.94,3.85-13.6,.51-.22,.75-1.41,1.22-1.76,.01,.03,.02,.05,.03,.08,.03-2.93,.05-5.88,.07-8.84-.02,.15-.05,.28-.09,.4-.34,.57-.07-1.5-.3-1.38-2.05,5.86-3.69,13.93-5.61,20.95-1.45,5.32-2.92,10.71-4.34,15.91-.24,.84-.48,1.85-.74,2.75-.17,.64-.52,2.02-.82,1.72-.3-3.11,.5-3.58,.85-4.82,.58-2,.92-4.76,1.28-6.55,1.32-1.77,1.71-7.12,2.89-9.35,1.44-6.52,3.36-13.32,4.84-19.18,.27-1.1,.48-.95,.76-1.76,.09-.29,.07-1.25,.14-1.4,.21-.47,.54-.43,.78-.71,.15,.3,.31,.98,.37,1.73,.02-2.81,.04-5.63,.06-8.47-.05,.07-.1,.11-.15,.12,.05-.4,.1-.77,.16-1.14,.01-.83,.01-1.66,.02-2.49-1.77,6.15-3.39,12.93-5.13,19.39-1.66,6.19-3.32,12.9-5.01,18.77-.26,.89-.51,2.33-.88,2.42-.14-.5-.08-1.77-.1-2.76,3.05-10.01,5.46-21.8,8.55-31,.17-2.03,.66-3.05,1.03-4.55,.51-2.08,.71-2.86,1.28-4.56,.11-.31,.2-.62,.28-.88,.04-5.8,.08-11.64,.12-17.52-.13,.86-.37,1.32-.62,1.74-.09-1.08,.45-1.51,.11-2.43-1.57,4.96-2.99,10.44-4.42,15.4-.5,1.74-.93,3.79-1.43,5.6-.47,1.75-1.05,3.11-1.55,4.9-.99,3.66-2.01,7.07-2.93,10.82-.47,1.94-.88,4.1-1.49,5.56-.13-.44-.11-1.5-.13-2.41,.27-.96,.54-1.89,.64-3.47,.57-.24,.62-2.46,.97-3.83,.5-1.96,1.25-3.24,1.74-5.24,.19-.79,.26-2.01,.45-2.79,.55-2.23,1.29-3.87,1.87-5.95,.62-2.21,1.09-4.9,1.86-6.31,.16-2.38,.77-2.8,1.11-4.2,.31-1.28,.57-1.76,.89-2.81,.2-.62,.28-1.81,.46-2.44,.15-.48,.44-.6,.6-1.06,.51-1.57,.85-4.17,1.55-4.54,.09,.4,.22,.62,.33,.9,.02-3.59,.05-7.19,.06-10.8-.07,.83-.34,1.4-.48,1.98-.74,3.03-1.7,4.91-2.5,7.28-.54,1.57-1.01,3.52-1.54,5.24-2.36,7.61-4.92,15.15-7.42,21.75-.19,.49-.59,2.67-.95,1.06l-.02-.69c1.06-3.26,2.18-6.92,3.34-10.15,1.09-3.05,2.21-6.1,3.27-9.13ZM1001.72,32.81c2.33-4.51,7.78-5.81,12.38-5.74,2.95,.06,6.2,.48,8.81,2.08,2.92,1.76,4.65,5.4,4.21,8.8-.34,3.3-2.5,6.1-4.86,8.15-6.86,6.05-16.34,5.87-20.75-2.93-1.55-3.23-1.46-7.2,.21-10.36Zm-204.57-11.67c2.33-4.52,7.79-5.82,12.39-5.74,2.95,.05,6.2,.47,8.81,2.08,2.92,1.76,4.65,5.4,4.22,8.8-.35,3.3-2.51,6.1-4.87,8.14-6.87,6.06-16.35,5.88-20.76-2.93-1.54-3.23-1.45-7.19,.21-10.35Zm-264.17,.01c2.33-4.52,7.79-5.83,12.39-5.75,2.95,.05,6.2,.47,8.79,2.07,2.93,1.76,4.66,5.4,4.22,8.8-.34,3.31-2.49,6.1-4.86,8.15-6.86,6.06-16.35,5.88-20.74-2.92-1.55-3.23-1.46-7.2,.2-10.35Zm-281.71,0c2.33-4.52,7.78-5.83,12.39-5.75,2.95,.05,6.2,.47,8.8,2.07,2.92,1.76,4.65,5.4,4.22,8.8-.35,3.31-2.5,6.1-4.87,8.15-6.86,6.06-16.34,5.88-20.74-2.92-1.55-3.23-1.46-7.2,.2-10.35ZM135.24,7.02c.66,.37,1.37,.73,2.12,1.08,.75,.36,1.53,.74,2.34,1.1,1.63,.73,3.37,1.43,5.15,2.13-1.09,.13-2.73-.08-3.74-.31-1.08-.23-1.45-.78-2.3-1.13-.42-.17-.95-.36-1.49-.53-.53-.16-1.09-.33-1.56-.5-.96-.32-1.62-.64-1.28-.92-1.29,0-.66-.34-1.36-.45,.38-.26,1.1-.42,2.12-.47Zm-14.56-.89c1.2,.31,2.34,.58,3.45,.95,1.1,.36,2.17,.71,3.27,1.07,1.08,.35,2.18,.7,3.31,1.07,1.14,.38,2.32,.75,3.58,1.11-2.04,.14-3.05,.07-3.89-.16-.85-.21-1.53-.55-2.89-.95-1.48-.43-3.75-.88-3.4-1.28-2.72-.28-3.85-.86-5.16-1.46,.86-.04,1.23-.21,1.73-.35Zm-11.88-.95c.27,.25-1.2,.19-.68,.49,6.59,1.66,14.13,3.31,20.31,5.71-1.22,.01-1.91-.1-2.02-.34l-2.04-.08c-.37-.13-.78-.26-1.2-.4-.43-.12-.88-.24-1.34-.38-.92-.25-1.92-.52-2.92-.79-2.01-.57-4.08-1.01-5.82-1.39-.77-.17-1.43-.43-2.09-.55-.19-.03-.85,.07-1.03,.04-2.34-.41-4.19-1.05-4.64-1.72,1.09-.23,1.73-.72,3.47-.59Zm-17.15,1.36c.46,.71,3.01,.55,4.05,1.01,.65-.01,1.25-.01,1.84,.01,.58,.03,1.13,.08,1.66,.14,1.07,.11,2.05,.26,3.02,.4,1.92,.27,3.79,.72,6.12,.93,1.34,.71,4.22,1.07,5.87,1.77,1.34,.11,2.81,.18,3.39,.55-1.07,.11-2.06,.2-2.96,.17-.91-.02-1.73-.12-2.47-.25-.74-.14-1.4-.33-1.97-.51-.57-.17-1.05-.35-1.45-.52-.43,.03-.46,.15-1.01,.16-1.83-.38-3.62-1.25-6.64-1.56-.7-.07-1.78,0-2.44-.09-.77-.11-1.03-.32-1.79-.39-.2-.01-.81,.17-1.02,.16-.52-.04-1.09-.21-1.79-.28-.64-.06-1.32-.14-1.94-.24-.63-.1-1.18-.19-1.54-.32-.73-.25-.71-.62,1.07-1.14Zm-14.64,2.5c.25,.22-.99,.48-.53,.7,1.56-.07,2.52,.22,4.05,.16,.43-.02,1.3-.22,1.74-.24,.88-.03,1.57,.16,2.54,.14,1-.03,1.86-.01,2.71,.06,.85,.05,1.68,.11,2.62,.12,.75,.02,1.32,.06,1.85,.1,.53,.06,1.05,.14,1.67,.19,.92,.09,2.21-.01,3.13,.08,.42,.04,.82,.08,1.23,.12,.41,.06,.8,.13,1.19,.19,.78,.14,1.54,.28,2.3,.42,1.51,.27,3.02,.55,4.64,.85-.29,.18-1.03,.27-2,.35-1.8-.33-5.11-.43-5.53-1.01-1.04,.22-1.06,.24-1.04-.13-.48,.09-.55,.23-.98,.32-.36-.31-2.1-.04-2.13-.49-1.24,.28-1-.07-2.05,.13-2.63-.4-6.06-.48-9.42-.35-.85,.03-1.69,.01-2.51,.06-.82,.04-1.63,.08-2.41,.09-.77,.02-1.53,.02-2.24,0-.71-.02-1.37-.03-1.99-.09,.7-.58,.53-1.18,3.16-1.77Zm27.84,28.91c-.34,3.3-2.5,6.1-4.86,8.15-6.87,6.05-16.35,5.87-20.76-2.93-1.54-3.23-1.46-7.2,.21-10.36,2.33-4.51,7.79-5.81,12.39-5.74,2.95,.06,6.2,.48,8.8,2.08,2.92,1.76,4.65,5.4,4.22,8.8ZM64.71,13.51c.16-.14,.37-.29,.66-.45,.3-.16,.69-.31,1.23-.49-.01,.34-.36,.59,.25,.66,1.18-.05,2.38-.13,3.61-.23,1.25-.06,2.51-.14,3.8-.21,.64-.03,1.29-.08,1.94-.12,.65-.02,1.31-.04,1.98-.06,1.33-.04,2.65-.13,3.99-.13,1.34,0,2.68,0,4.02-.02,.66-.02,1.34,.02,2,.04,.67,.03,1.33,.06,1.99,.08,2.63,.07,5.23,.38,7.68,.65-1.78,.87-4.34,.57-5.67,.52-.5-.02-1.1-.2-1.74-.21-.16,0-.59,.17-.99,.19-.92,.05-1.74,0-2.47-.02-.73-.01-1.38-.04-2.01-.03-.65,0-1.33,0-2.01,.01-.68-.01-1.37-.01-2.01,.01-1.3,.03-2.5,.02-3.35-.05-1.24,.11-2.35,.25-3.4,.32-1.04,.07-2.03,.11-3.01,.13-.97,.06-1.92,.11-2.92,.19-.49,.05-1,.09-1.52,.15-.27,.02-.53,.05-.8,.09-.27,.04-.54,.09-.81,.14-.32-.2-.68-.35-1.28-.33,.36-.29,.52-.54,.84-.83Zm-10.43,3.86c.08,.32-.28,.52,.29,.55,2.19-.32,4.75-.7,7.36-1.18,1.33-.2,2.67-.4,4.02-.61,1.35-.21,2.72-.33,4.03-.47,1.83-.22,3.25-.09,4.98-.19,.69-.04,1.4-.12,2.12-.17,.72-.05,1.46-.1,2.18-.15,1.43-.09,2.8-.2,3.98-.09,.78,.07,2.16,.01,1.83,.49-1.04,.32-1.86,.49-2.58,.55-.69,.1-1.27,.11-1.84,.09-1.13-.02-2.21-.15-3.97,.29-.77-.11-1.79-.06-2.86,.01-.54,.04-1.08,.07-1.61,.11-.53,.04-1.03,.09-1.49,.1-1.31,.47-1.25-.03-2.71,.53-.95,.07-1.82,.13-2.74,.19s-1.88,.13-3.01,.28c-1.37,.22-3.12,.72-4.58,1.01-1.43,.33-2.56,.5-2.7-.01-1.36,.52-1.92,.34-2.66,.3,.84-.59,.38-.86,1.96-1.63Zm4.5,4.21c-1.01,.25-1.99,.49-2.95,.73-.49,.12-.97,.23-1.45,.35-.47,.13-.94,.25-1.4,.38-.93,.25-1.86,.48-2.79,.69-2.91,.72-5.72,1.89-5.33,.16,1.63-.8,2.27-.7,3.35-.7,.98-.36,1.97-.63,2.94-.91,.96-.27,1.9-.55,2.86-.78,.95-.2,1.89-.42,2.84-.62l1.4-.3,1.41-.23c.94-.16,1.87-.31,2.81-.47s1.9-.25,2.84-.38c.96-.12,1.9-.26,2.87-.37,.97-.1,1.95-.21,2.95-.31,1.17-.16,3.17-.64,3.45-.16-.57,.34-1.93,.71-2.76,1.11-2.05,.43-3.57,.52-5.03,.68-.74,.05-1.47,.12-2.26,.18-.4,.04-.82,.07-1.26,.13-.43,.06-.89,.13-1.38,.22-1.06,.19-2.09,.39-3.11,.6ZM19.2,90.51c.34-3.31,2.5-6.1,4.86-8.15,6.87-6.06,16.35-5.88,20.75,2.92,1.54,3.23,1.45,7.2-.21,10.35-2.33,4.52-7.78,5.83-12.38,5.75-2.95-.05-6.2-.47-8.8-2.07-2.92-1.76-4.65-5.4-4.22-8.8Zm-7.56,151.36c2.34-4.52,7.79-5.83,12.39-5.75,2.95,.06,6.19,.48,8.8,2.08,2.92,1.75,4.65,5.4,4.22,8.79-.35,3.31-2.5,6.1-4.87,8.15-6.86,6.05-16.34,5.88-20.74-2.92-1.54-3.23-1.46-7.2,.2-10.35Zm1.51,202.49c.06-2.95,.48-6.2,2.08-8.8,1.77-2.92,5.41-4.65,8.8-4.21,3.3,.34,6.1,2.5,8.15,4.86,6.06,6.87,5.88,16.35-2.93,20.74-3.23,1.54-7.19,1.45-10.35-.21-4.52-2.33-5.83-7.78-5.75-12.38Zm30.29,160.46c-2.33,4.52-7.79,5.82-12.39,5.74-2.96-.05-6.2-.47-8.81-2.08-2.92-1.76-4.65-5.4-4.22-8.8,.35-3.3,2.51-6.1,4.87-8.15,6.87-6.05,16.35-5.87,20.76,2.93,1.54,3.24,1.45,7.2-.21,10.36Zm59.61,52.54c-2.33,4.52-7.78,5.83-12.38,5.75-2.96-.05-6.2-.47-8.8-2.07-2.92-1.76-4.66-5.4-4.22-8.8,.34-3.31,2.5-6.1,4.86-8.15,6.87-6.06,16.35-5.88,20.75,2.92,1.54,3.23,1.45,7.2-.21,10.35Zm181.18,11.68c-2.33,4.52-7.78,5.83-12.38,5.75-2.95-.05-6.2-.47-8.8-2.07-2.92-1.76-4.65-5.41-4.22-8.8,.34-3.31,2.5-6.1,4.86-8.15,6.87-6.06,16.35-5.88,20.75,2.92,1.54,3.23,1.45,7.2-.21,10.35Zm281.71,0c-2.33,4.52-7.78,5.83-12.38,5.75-2.96-.05-6.2-.47-8.8-2.07-2.92-1.76-4.65-5.41-4.22-8.8,.34-3.31,2.5-6.1,4.86-8.15,6.87-6.06,16.35-5.88,20.75,2.92,1.54,3.23,1.45,7.2-.21,10.35Zm251.78,5.75c-4.53,0-10.04-1.22-12.16-5.84-3.11-6.42,2.22-12.93,7.74-15.73,2.81-1.43,6.2-2.17,9.38-1.25,5.06,1.47,8.92,6.63,8.74,11.95-.27,7.9-6.62,11.02-13.7,10.87Zm208.77-17.42c-2.33,4.52-7.78,5.82-12.39,5.74-2.95-.05-6.2-.48-8.8-2.08-2.92-1.75-4.65-5.4-4.22-8.79,.35-3.31,2.51-6.1,4.87-8.15,6.87-6.06,16.35-5.88,20.75,2.93,1.54,3.23,1.45,7.2-.21,10.35Zm30.85-517.42c-1.27,124.18-1.5,288.77-1.81,411.81,.08,36.84-22.67,70.46-56.91,84.14-11.11,4.51-23.16,6.67-35.15,6.58-269.41,1.75-557.11,2.91-826.57,.99-45.28,.91-85.58-32.98-92.05-77.9l-.19-1.5-.37-3-.23-3.01-.11-1.5c-.02-.5-.02-1.01-.04-1.51l-.07-3.02c.4-139.25-.15-278.56-.52-417.81,.39-15.19,4.68-30.29,12.35-43.4,15.41-26.74,44.03-44.26,74.87-45.79,258.98-1.11,558.57-1.23,817.73-.78l11.93,.03,2.99,.02c.99,0,1.98,0,3.02,.04l3.07,.09c33.95,1.35,65.88,23,79.74,53.99,.97,1.99,2.12,5.01,2.92,7.07l.48,1.45,.96,2.91,.82,2.94c.13,.49,.28,.98,.4,1.48l.34,1.49,.66,2.98,.52,3.02,.26,1.5,.18,1.52,.37,3.03,.22,3.05c.19,2.73,.22,6.33,.19,9.09Zm40.33,395.09c2.51-10.6,5.35-19.81,7.72-30.01,.65-.76,.78-3.31,1.48-3.87,.36-1.93,.98-4.56,1.76-3.18,.17,2.54-.1,3.59-.49,4.19-.1-1.07,.27-2.99-.06-2.08-1.98,5.68-3.6,12.97-5.31,19.26-1.58,5.78-3.18,11.83-4.63,17.76-.27,1.15-.61,3.1-1.11,3.12-.36-2.39,.34-3.95,.64-5.19Zm-36.34-449.67c2.33-4.52,7.79-5.82,12.39-5.74,2.95,.05,6.2,.47,8.8,2.08,2.92,1.76,4.66,5.4,4.22,8.8-.34,3.3-2.5,6.09-4.87,8.14-6.86,6.06-16.35,5.88-20.75-2.93-1.54-3.23-1.45-7.2,.21-10.35Zm24.78,519.45c-2.33,4.52-7.78,5.82-12.39,5.74-2.95-.05-6.2-.47-8.8-2.08-2.92-1.76-4.66-5.4-4.22-8.8,.34-3.3,2.5-6.1,4.87-8.15,6.86-6.05,16.35-5.87,20.75,2.93,1.54,3.24,1.45,7.2-.21,10.36Zm19.12-3.94c-.91,1.67-1.47,2.93-2.34,5.04-.55,1.3-1.15,2.7-1.7,4.01l-.54,1.28-.58,1.27c-.39,.85-.77,1.69-1.16,2.54-.4,.85-.82,1.68-1.23,2.51-.41,.83-.82,1.66-1.28,2.46l-1.33,2.41-1.43,2.28c-.12,.19-.23,.38-.35,.56l-.39,.52-.75,1.04c-.47,.67-1.06,1.37-1.6,2.07-.23,.29-.47,.6-.72,.92-.27,.31-.54,.62-.79,.89-.51,.53-.97,.9-1.25,.81,.34-.98,.62-1.27,1.15-2.31,.44-.55,.88-1.11,1.32-1.66l.33-.41,.29-.39,.58-.78c.81-1.01,1.51-2.18,2.24-3.32,.38-.56,.71-1.17,1.04-1.77,.35-.6,.69-1.19,1.02-1.79,.66-1.22,1.27-2.46,1.91-3.69,2.45-4.99,4.62-10.15,6.6-15.65,.94-.73,2.21-4.94,2.48-.82-.6,.11-1.02,1.05-1.52,1.98Zm-8.58,7.03c2.27-3.8,3.96-10.64,5.95-14.61,.74-3.02,1.65-4.7,2.48-6.83,.8-2.1,1.64-5.39,2.9-4.76,.11,.53,.19,2.68,.03,3.16-.16-1.32-.67-.62-.87-.39-.31,.34-.9,2.14-1.43,3.43-1.89,4.74-3.86,10.28-5.8,15.22-1.5,3.92-3.41,7.94-4.99,11.66-.42,.93-.93,2.56-1.35,3.09-.4-.43,.13-2.22,.33-2.94,.62-2.46,2.25-4.61,2.75-7.03Zm1.25-21.5c.48-2.98,1.3-4.62,1.91-6.46,1.4-4.25,2.61-8.78,3.85-13.05,.47-1.63,.95-3.34,1.41-4.84,.37-1.19,.88-3.2,1.37-4.52,.44-1.16,1.22-3.22,1.69-.68-.1,1.24-.65,.72-.9,1.39-3.39,10.95-6.49,24.17-10.64,34.58-.16,1.52-.37,2.79-.88,2.33-.3-.2,.04-2.23,.07-3.41,.75-1.64,1.36-3.81,2.12-5.34Zm-1.27-136.92c-2.33,4.52-7.79,5.82-12.39,5.75-2.96-.06-6.2-.48-8.81-2.08-2.92-1.76-4.65-5.41-4.22-8.8,.35-3.31,2.51-6.1,4.87-8.15,6.87-6.05,16.35-5.88,20.76,2.93,1.54,3.23,1.45,7.2-.21,10.35Zm0-197.37c-2.33,4.53-7.79,5.82-12.39,5.75-2.96-.05-6.2-.48-8.8-2.08-2.93-1.75-4.66-5.4-4.22-8.79,.34-3.31,2.5-6.1,4.87-8.15,6.86-6.05,16.34-5.88,20.75,2.92,1.54,3.23,1.45,7.2-.21,10.35Z"/><path class="f" d="M1082.52,81.71c-2.6-1.61-5.85-2.03-8.8-2.08-4.6-.08-10.06,1.22-12.39,5.74-1.66,3.15-1.75,7.12-.21,10.35,4.4,8.81,13.89,8.99,20.75,2.93,2.37-2.05,4.53-4.84,4.87-8.14,.44-3.4-1.3-7.04-4.22-8.8Zm-.49,12.24c-.26,2.5-2.2,4.74-4.63,5.44-4.3,1.29-9.36-1.91-10.66-6-1.63-4.93,.8-13.12,6.98-13.18,4.22-.09,6.43,3.74,7.42,7.23,.62,2.11,1.18,4.21,.89,6.51Z"/><path class="f" d="M1022.91,29.15c-2.61-1.6-5.86-2.02-8.81-2.08-4.6-.07-10.05,1.23-12.38,5.74-1.67,3.16-1.76,7.13-.21,10.36,4.41,8.8,13.89,8.98,20.75,2.93,2.36-2.05,4.52-4.85,4.86-8.15,.44-3.4-1.29-7.04-4.21-8.8Zm-.5,12.24c-.26,2.5-2.19,4.74-4.62,5.44-4.3,1.29-9.36-1.91-10.66-5.99-1.64-4.93,.79-13.13,6.97-13.19,4.22-.07,6.43,3.74,7.42,7.23,.62,2.11,1.18,4.21,.89,6.51Z"/><path class="f" d="M818.35,17.48c-2.61-1.61-5.86-2.03-8.81-2.08-4.6-.08-10.06,1.22-12.39,5.74-1.66,3.16-1.75,7.12-.21,10.35,4.41,8.81,13.89,8.99,20.76,2.93,2.36-2.04,4.52-4.84,4.87-8.14,.43-3.4-1.3-7.04-4.22-8.8Zm-.5,12.24c-.26,2.5-2.2,4.74-4.63,5.44-4.3,1.29-9.36-1.91-10.66-6-1.63-4.93,.8-13.12,6.98-13.18,4.22-.09,6.43,3.74,7.42,7.23,.62,2.11,1.18,4.21,.89,6.51Z"/><path class="f" d="M554.16,17.47c-2.59-1.6-5.84-2.02-8.79-2.07-4.6-.08-10.06,1.23-12.39,5.75-1.66,3.15-1.75,7.12-.2,10.35,4.39,8.8,13.88,8.98,20.74,2.92,2.37-2.05,4.52-4.84,4.86-8.15,.44-3.4-1.29-7.04-4.22-8.8Zm-.48,12.24c-.26,2.5-2.2,4.74-4.63,5.44-4.29,1.29-9.36-1.9-10.65-5.99-1.63-4.93,.78-13.12,6.97-13.18,4.21-.09,6.42,3.74,7.41,7.23,.62,2.11,1.18,4.21,.9,6.5Z"/><path class="f" d="M272.46,17.47c-2.6-1.6-5.85-2.02-8.8-2.07-4.61-.08-10.06,1.23-12.39,5.75-1.66,3.15-1.75,7.12-.2,10.35,4.4,8.8,13.88,8.98,20.74,2.92,2.37-2.05,4.52-4.84,4.87-8.15,.43-3.4-1.3-7.04-4.22-8.8Zm-.49,12.24c-.26,2.5-2.2,4.74-4.63,5.44-4.29,1.29-9.35-1.9-10.65-5.99-1.63-4.93,.78-13.12,6.97-13.18,4.21-.09,6.42,3.74,7.41,7.23,.63,2.11,1.18,4.21,.9,6.5Z"/><path class="f" d="M100.63,29.15c-2.6-1.6-5.85-2.02-8.8-2.08-4.6-.07-10.06,1.23-12.39,5.74-1.67,3.16-1.75,7.13-.21,10.36,4.41,8.8,13.89,8.98,20.76,2.93,2.36-2.05,4.52-4.85,4.86-8.15,.43-3.4-1.3-7.04-4.22-8.8Zm-.49,12.24c-.27,2.5-2.2,4.74-4.63,5.44-4.3,1.29-9.36-1.91-10.66-5.99-1.63-4.93,.8-13.13,6.98-13.19,4.22-.07,6.42,3.74,7.41,7.23,.62,2.11,1.18,4.21,.9,6.51Z"/><path class="f" d="M32.83,238.2c-2.61-1.6-5.85-2.02-8.8-2.08-4.6-.08-10.05,1.23-12.39,5.75-1.66,3.15-1.74,7.12-.2,10.35,4.4,8.8,13.88,8.97,20.74,2.92,2.37-2.05,4.52-4.84,4.87-8.15,.43-3.39-1.3-7.04-4.22-8.79Zm-.49,12.23c-.26,2.5-2.2,4.74-4.63,5.44-4.29,1.29-9.35-1.9-10.65-5.98-1.64-4.92,.79-13.14,6.97-13.19,4.21-.08,6.42,3.74,7.41,7.23,.62,2.11,1.18,4.2,.9,6.5Z"/><path class="f" d="M32.18,436.21c-2.05-2.36-4.85-4.52-8.15-4.86-3.39-.44-7.03,1.29-8.8,4.21-1.6,2.6-2.02,5.85-2.08,8.8-.08,4.6,1.23,10.05,5.75,12.38,3.16,1.66,7.12,1.75,10.35,.21,8.81-4.39,8.99-13.87,2.93-20.74Zm-5.26,15.12c-4.93,1.63-13.13-.78-13.19-6.97-.08-4.22,3.74-6.42,7.23-7.4,2.11-.62,4.21-1.18,6.51-.9,2.5,.26,4.74,2.19,5.45,4.62,1.29,4.3-1.91,9.36-6,10.65Z"/><path class="f" d="M43.65,594.46c-4.41-8.8-13.89-8.98-20.76-2.93-2.36,2.05-4.52,4.85-4.87,8.15-.43,3.4,1.3,7.04,4.22,8.8,2.61,1.61,5.85,2.03,8.81,2.08,4.6,.08,10.06-1.22,12.39-5.74,1.66-3.16,1.75-7.12,.21-10.36Zm-12.6,15.52c-4.22,.08-6.43-3.74-7.42-7.23-.62-2.11-1.18-4.21-.9-6.51,.27-2.5,2.21-4.74,4.64-5.44,4.29-1.29,9.36,1.91,10.66,5.99,1.62,4.94-.8,13.13-6.98,13.19Z"/><path class="f" d="M44.81,85.28c-4.4-8.8-13.88-8.98-20.75-2.92-2.36,2.05-4.52,4.84-4.86,8.15-.43,3.4,1.3,7.04,4.22,8.8,2.6,1.6,5.85,2.02,8.8,2.07,4.6,.08,10.05-1.23,12.38-5.75,1.66-3.15,1.75-7.12,.21-10.35Zm-12.59,15.52c-4.22,.09-6.43-3.74-7.41-7.23-.63-2.11-1.18-4.21-.9-6.5,.26-2.5,2.19-4.74,4.62-5.44,4.3-1.29,9.36,1.9,10.66,5.99,1.63,4.93-.79,13.13-6.97,13.18Z"/><path class="f" d="M103.26,647.01c-4.4-8.8-13.88-8.98-20.75-2.92-2.36,2.05-4.52,4.84-4.86,8.15-.44,3.4,1.3,7.04,4.22,8.8,2.6,1.6,5.84,2.02,8.8,2.07,4.6,.08,10.05-1.23,12.38-5.75,1.66-3.15,1.75-7.12,.21-10.35Zm-12.59,15.52c-4.22,.08-6.43-3.74-7.41-7.23-.63-2.11-1.19-4.21-.91-6.5,.27-2.5,2.2-4.74,4.63-5.44,4.29-1.29,9.36,1.9,10.66,5.99,1.62,4.93-.79,13.13-6.97,13.18Z"/><path class="f" d="M284.44,658.69c-4.4-8.8-13.88-8.98-20.75-2.92-2.36,2.05-4.52,4.84-4.86,8.15-.43,3.39,1.3,7.04,4.22,8.8,2.6,1.6,5.85,2.02,8.8,2.07,4.6,.08,10.05-1.23,12.38-5.75,1.66-3.15,1.75-7.12,.21-10.35Zm-12.59,15.52c-4.22,.08-6.43-3.74-7.41-7.23-.63-2.11-1.18-4.21-.9-6.51,.26-2.49,2.19-4.73,4.62-5.44,4.3-1.28,9.36,1.91,10.66,5.99,1.63,4.94-.79,13.13-6.97,13.19Z"/><path class="f" d="M566.15,658.69c-4.4-8.8-13.88-8.98-20.75-2.92-2.36,2.05-4.52,4.84-4.86,8.15-.43,3.39,1.3,7.04,4.22,8.8,2.6,1.6,5.84,2.02,8.8,2.07,4.6,.08,10.05-1.23,12.38-5.75,1.66-3.15,1.75-7.12,.21-10.35Zm-12.59,15.52c-4.22,.08-6.43-3.74-7.41-7.23-.63-2.11-1.18-4.21-.9-6.51,.26-2.49,2.19-4.73,4.62-5.44,4.3-1.28,9.36,1.91,10.66,5.99,1.63,4.94-.79,13.13-6.97,13.19Z"/><path class="f" d="M822.68,651.97c-3.18-.92-6.57-.18-9.38,1.25-5.52,2.8-10.85,9.31-7.74,15.73,2.12,4.62,7.63,5.83,12.16,5.84,7.08,.15,13.43-2.97,13.7-10.87,.18-5.32-3.68-10.48-8.74-11.95Zm-4.96,22.24c-4.22,.08-6.42-3.74-7.4-7.23-.62-2.12-1.18-4.21-.89-6.51,.26-2.5,2.19-4.74,4.62-5.44,4.3-1.28,9.36,1.91,10.65,6,1.63,4.94-.79,13.12-6.98,13.18Z"/><path class="f" d="M1026.7,647.02c-4.4-8.81-13.88-8.99-20.75-2.93-2.36,2.05-4.52,4.84-4.87,8.15-.43,3.39,1.3,7.04,4.22,8.79,2.6,1.6,5.85,2.03,8.8,2.08,4.61,.08,10.06-1.22,12.39-5.74,1.66-3.15,1.75-7.12,.21-10.35Zm-12.6,15.51c-4.21,.08-6.42-3.74-7.41-7.23-.62-2.11-1.18-4.21-.9-6.5,.27-2.5,2.21-4.75,4.64-5.44,4.29-1.29,9.35,1.9,10.65,5.99,1.63,4.93-.79,13.13-6.98,13.18Z"/><path class="f" d="M1057.15,130.86l-.22-3.05-.37-3.03-.18-1.52-.26-1.5-.52-3.02-.66-2.98-.34-1.49c-.12-.5-.27-.99-.4-1.48l-.82-2.94-.96-2.91-.48-1.45c-.8-2.06-1.95-5.08-2.92-7.07-13.86-30.99-45.79-52.64-79.74-53.99l-3.07-.09c-1.04-.04-2.03-.04-3.02-.04l-2.99-.02-11.93-.03c-259.16-.45-558.75-.33-817.73,.78-30.84,1.53-59.46,19.05-74.87,45.79-7.67,13.11-11.96,28.21-12.35,43.4,.37,139.25,.92,278.56,.52,417.81l.07,3.02c.02,.5,.02,1.01,.04,1.51l.11,1.5,.23,3.01,.37,3,.19,1.5c6.47,44.92,46.77,78.81,92.05,77.9,269.46,1.92,557.16,.76,826.57-.99,11.99,.09,24.04-2.07,35.15-6.58,34.24-13.68,56.99-47.3,56.91-84.14,.31-123.04,.54-287.63,1.81-411.81,.03-2.76,0-6.36-.19-9.09Zm-49.41,499.9c-6.55,3.49-13.52,6.19-20.72,8-7.7,1.88-15.61,2.8-23.54,2.65l-47.74-.21c-251.91-1.86-523.95-2.49-775.85-.8-2.79,.04-6.09,0-8.88-.06-28.51-1-55.88-16.75-71.12-40.88-3.46-5.31-6.29-11.18-8.54-17.1l-.47-1.4-.95-2.79-.82-2.83c-.13-.48-.27-.95-.4-1.42l-.34-1.44-.66-2.87-.53-2.9-.26-1.46-.19-1.46-.38-2.92-.23-2.95-.12-1.46c-.64-140.69-.16-281.45,.53-422.13,.49-14.62,4.75-29.13,12.23-41.7,14.29-24.46,40.83-41.13,69.1-43.1,259.99-.17,560.2,1.28,820.42,.35l11.94-.03h2.98c1.94-.05,3.81,.06,5.84,.08,32.06,1.08,62.36,21.28,75.75,50.45l1.2,2.64,1.09,2.7,.54,1.35,.47,1.38,.95,2.75,.81,2.79c.13,.47,.27,.93,.4,1.4l.33,1.42,.67,2.83,.53,2.86,.26,1.43,.19,1.44,.38,2.89,.24,2.91c1.4,127.19,1.96,294.4,2.1,420.59,.03,32.96-18.23,63.38-47.21,79Z"/><path class="d" d="M1052.85,131.17l-.24-2.91-.38-2.89-.19-1.44-.26-1.43-.53-2.86-.67-2.83-.33-1.42c-.13-.47-.27-.93-.4-1.4l-.81-2.79-.95-2.75-.47-1.38-.54-1.35-1.09-2.7-1.2-2.64c-13.39-29.17-43.69-49.37-75.75-50.45-2.03-.02-3.9-.13-5.84-.09h-2.98l-11.94,.04c-260.22,.93-560.43-.52-820.42-.35-28.27,1.97-54.81,18.64-69.1,43.1-7.48,12.57-11.74,27.08-12.23,41.7-.69,140.68-1.17,281.44-.53,422.13l.12,1.46,.23,2.95,.38,2.92,.19,1.46,.26,1.46,.53,2.9,.66,2.87,.34,1.44c.13,.47,.27,.94,.4,1.42l.82,2.83,.95,2.79,.47,1.4c2.25,5.92,5.08,11.79,8.54,17.1,15.24,24.13,42.61,39.88,71.12,40.88,2.79,.06,6.09,.1,8.88,.06,251.9-1.69,523.94-1.06,775.85,.8l47.74,.21c7.93,.15,15.84-.77,23.54-2.65,7.2-1.81,14.17-4.51,20.72-8,28.98-15.62,47.24-46.04,47.21-79-.14-126.19-.7-293.4-2.1-420.59Zm-12.66,21.49c-.72,128.86-.44,263.45-.35,392.12-.24,8.68-1.92,17.36-4.9,25.52-8.65,23.7-28.89,42.79-53.16,49.84-6.46,1.96-13.3,3.04-20.05,3.31-260.08,1.2-555.88,1.6-815.71,1.35h-5.72l-2.95-.07-1.48-.05c-5.42-.27-10.8-1.14-16.07-2.43-25.91-6.43-47.97-26.18-57.09-51.29-3.43-9.22-5.12-19.07-5.13-28.9,.27-90.75,1.27-245.52,1.75-337.7-.06-7.83,.27-50.14,.22-57.24,.07-7.63,1.08-15.4,3.29-22.71,.5-1.77,1.18-3.73,1.81-5.46l1.07-2.67,.27-.67,.3-.65,.59-1.31c13.05-28.56,41.82-47.05,73.23-46.99,266.59-.16,546.32-3.31,812.8-1.66l5.72,.03,2.93,.08,1.46,.04c5.36,.29,10.68,1.17,15.89,2.46,33.6,8.4,59.15,38.87,61.1,73.52,.24,3.05,.2,8.38,.18,11.53Z"/><path class="f" d="M1086.32,594.46c-4.4-8.8-13.89-8.98-20.75-2.93-2.37,2.05-4.53,4.85-4.87,8.15-.44,3.4,1.3,7.04,4.22,8.8,2.6,1.61,5.85,2.03,8.8,2.08,4.61,.08,10.06-1.22,12.39-5.74,1.66-3.16,1.75-7.12,.21-10.36Zm-12.6,15.52c-4.21,.08-6.43-3.74-7.41-7.23-.63-2.11-1.19-4.21-.9-6.51,.26-2.5,2.2-4.74,4.63-5.44,4.3-1.29,9.36,1.91,10.66,5.99,1.63,4.94-.79,13.13-6.98,13.19Z"/><path class="f" d="M1096.84,439.14c-4.41-8.81-13.89-8.98-20.76-2.93-2.36,2.05-4.52,4.84-4.87,8.15-.43,3.39,1.3,7.04,4.22,8.8,2.61,1.6,5.85,2.02,8.81,2.08,4.6,.07,10.06-1.23,12.39-5.75,1.66-3.15,1.75-7.12,.21-10.35Zm-12.6,15.52c-4.22,.08-6.43-3.74-7.42-7.24-.62-2.11-1.18-4.21-.9-6.5,.27-2.5,2.21-4.75,4.63-5.44,4.3-1.29,9.37,1.9,10.67,5.99,1.62,4.94-.8,13.13-6.98,13.19Z"/><path class="f" d="M1096.84,241.77c-4.41-8.8-13.89-8.97-20.75-2.92-2.37,2.05-4.53,4.84-4.87,8.15-.44,3.39,1.29,7.04,4.22,8.79,2.6,1.6,5.84,2.03,8.8,2.08,4.6,.07,10.06-1.22,12.39-5.75,1.66-3.15,1.75-7.12,.21-10.35Zm-12.6,15.52c-4.22,.08-6.43-3.74-7.41-7.23-.63-2.1-1.19-4.2-.9-6.5,.26-2.5,2.2-4.74,4.63-5.44,4.29-1.28,9.36,1.91,10.66,5.99,1.62,4.94-.8,13.12-6.98,13.18Z"/><path class="g" d="M24.03,433.77c-5.85,0-10.59,4.74-10.59,10.59s4.74,10.59,10.59,10.59,10.6-4.74,10.6-10.59-4.75-10.59-10.6-10.59Zm2.89,17.56c-4.93,1.63-13.13-.78-13.19-6.97-.08-4.22,3.74-6.42,7.23-7.4,2.11-.62,4.21-1.18,6.51-.9,2.5,.26,4.74,2.19,5.45,4.62,1.29,4.3-1.91,9.36-6,10.65Z"/><path class="g" d="M34.51,245.39c-.05-.36-.13-.7-.21-1.04-.09-.34-.19-.67-.31-.99-.18-.49-.39-.96-.64-1.41-.16-.3-.34-.59-.53-.87-.38-.57-.82-1.1-1.3-1.57-1.91-1.92-4.57-3.1-7.49-3.1s-5.56,1.18-7.48,3.1c-.48,.48-.91,1-1.3,1.57-.19,.28-.36,.57-.53,.87-.82,1.5-1.28,3.22-1.28,5.05s.46,3.54,1.28,5.04c.17,.3,.34,.59,.53,.88,.39,.56,.82,1.08,1.3,1.56,1.92,1.92,4.56,3.1,7.48,3.1s5.58-1.19,7.49-3.1c.48-.47,.92-1,1.3-1.56,.19-.29,.37-.58,.53-.88,.25-.45,.46-.92,.64-1.4,.12-.33,.22-.66,.31-1,.08-.33,.16-.68,.21-1.03,.08-.52,.12-1.06,.12-1.61s-.04-1.09-.12-1.61Zm-6.8,10.48c-4.29,1.29-9.35-1.9-10.65-5.98-1.64-4.92,.79-13.14,6.97-13.19,4.21-.08,6.42,3.74,7.41,7.23,.62,2.11,1.18,4.2,.9,6.5-.26,2.5-2.2,4.74-4.63,5.44Z"/><path class="g" d="M31.05,589.09c-5.86,0-10.6,4.74-10.6,10.59s4.74,10.59,10.6,10.59,10.6-4.74,10.6-10.59-4.75-10.59-10.6-10.59Zm0,20.89c-4.22,.08-6.43-3.74-7.42-7.23-.62-2.11-1.18-4.21-.9-6.51,.27-2.5,2.21-4.74,4.64-5.44,4.29-1.29,9.36,1.91,10.66,5.99,1.62,4.94-.8,13.13-6.98,13.19Z"/><path class="g" d="M32.22,79.92c-5.86,0-10.6,4.73-10.6,10.59s4.74,10.58,10.6,10.58,10.59-4.73,10.59-10.58-4.74-10.59-10.59-10.59Zm0,20.88c-4.22,.09-6.43-3.74-7.41-7.23-.63-2.11-1.18-4.21-.9-6.5,.26-2.5,2.19-4.74,4.62-5.44,4.3-1.29,9.36,1.9,10.66,5.99,1.63,4.93-.79,13.13-6.97,13.18Z"/><path class="g" d="M90.67,641.65c-5.86,0-10.6,4.73-10.6,10.59s4.74,10.58,10.6,10.58,10.58-4.73,10.58-10.58-4.74-10.59-10.58-10.59Zm0,20.88c-4.22,.08-6.43-3.74-7.41-7.23-.63-2.11-1.19-4.21-.91-6.5,.27-2.5,2.2-4.74,4.63-5.44,4.29-1.29,9.36,1.9,10.66,5.99,1.62,4.93-.79,13.13-6.97,13.18Z"/><path class="g" d="M91.83,27.36c-5.86,0-10.6,4.74-10.6,10.59s4.74,10.59,10.6,10.59,10.6-4.74,10.6-10.59-4.75-10.59-10.6-10.59Zm3.68,19.47c-4.3,1.29-9.36-1.91-10.66-5.99-1.63-4.93,.8-13.13,6.98-13.19,4.22-.07,6.42,3.74,7.41,7.23,.62,2.11,1.18,4.21,.9,6.51-.27,2.5-2.2,4.74-4.63,5.44Z"/><path class="g" d="M274.04,24.14c-.07-.34-.15-.68-.26-1.01-.15-.5-.34-.98-.57-1.45-.15-.31-.31-.61-.49-.9-.18-.29-.37-.57-.57-.84-1.94-2.58-5.02-4.25-8.5-4.25s-6.55,1.67-8.48,4.25c-.2,.27-.39,.55-.57,.84-.18,.29-.34,.59-.49,.9-.22,.47-.41,.95-.57,1.45-.1,.33-.19,.67-.26,1.01-.14,.69-.21,1.41-.21,2.14s.07,1.44,.21,2.13h0c.08,.35,.16,.69,.26,1.02,.16,.49,.35,.97,.57,1.44,.15,.31,.31,.61,.49,.9,.18,.29,.37,.57,.57,.84,.91,1.22,2.09,2.24,3.44,2.97,.3,.16,.6,.31,.92,.45,.16,.07,.33,.13,.49,.19,.32,.11,.65,.22,.99,.31,.34,.08,.68,.15,1.03,.21,.52,.08,1.06,.12,1.61,.12,3.48,0,6.56-1.67,8.5-4.25,.2-.27,.39-.55,.57-.84,.18-.29,.34-.59,.49-.9,.23-.46,.42-.94,.57-1.44,.11-.33,.19-.67,.26-1.01,.15-.69,.22-1.41,.22-2.14s-.07-1.45-.22-2.14Zm-2.07,5.57c-.26,2.5-2.2,4.74-4.63,5.44-4.29,1.29-9.35-1.9-10.65-5.99-1.63-4.93,.78-13.12,6.97-13.18,4.21-.09,6.42,3.74,7.41,7.23,.63,2.11,1.18,4.21,.9,6.5Z"/><path class="g" d="M271.84,653.32c-5.85,0-10.6,4.74-10.6,10.59s4.75,10.59,10.6,10.59,10.59-4.74,10.59-10.59-4.74-10.59-10.59-10.59Zm.01,20.89c-4.22,.08-6.43-3.74-7.41-7.23-.63-2.11-1.18-4.21-.9-6.51,.26-2.49,2.19-4.73,4.62-5.44,4.3-1.28,9.36,1.91,10.66,5.99,1.63,4.94-.79,13.13-6.97,13.19Z"/><path class="g" d="M545.37,15.69c-5.85,0-10.59,4.73-10.59,10.59,0,4.02,2.24,7.51,5.54,9.3,.3,.16,.61,.31,.93,.45,.16,.07,.32,.13,.48,.19,.33,.11,.66,.22,1,.31,.33,.08,.68,.15,1.03,.21,.52,.08,1.06,.12,1.61,.12,5.85,0,10.6-4.73,10.6-10.58s-4.75-10.59-10.6-10.59Zm3.68,19.46c-4.29,1.29-9.36-1.9-10.65-5.99-1.63-4.93,.78-13.12,6.97-13.18,4.21-.09,6.42,3.74,7.41,7.23,.62,2.11,1.18,4.21,.9,6.5-.26,2.5-2.2,4.74-4.63,5.44Z"/><path class="g" d="M553.55,653.32c-5.85,0-10.6,4.74-10.6,10.59s4.75,10.59,10.6,10.59,10.59-4.74,10.59-10.59-4.74-10.59-10.59-10.59Zm0,20.89c-4.22,.08-6.43-3.74-7.41-7.23-.63-2.11-1.18-4.21-.9-6.51,.26-2.49,2.19-4.73,4.62-5.44,4.3-1.28,9.36,1.91,10.66,5.99,1.63,4.94-.79,13.13-6.97,13.19Z"/><path class="g" d="M809.54,15.69c-5.85,0-10.6,4.74-10.6,10.59s4.75,10.58,10.6,10.58,10.6-4.74,10.6-10.58-4.74-10.59-10.6-10.59Zm3.68,19.47c-4.3,1.29-9.36-1.91-10.66-6-1.63-4.93,.8-13.12,6.98-13.18,4.22-.09,6.43,3.74,7.42,7.23,.62,2.11,1.18,4.21,.89,6.51-.26,2.5-2.2,4.74-4.63,5.44Z"/><path class="g" d="M817.72,653.32c-5.84,0-10.59,4.74-10.59,10.59s4.75,10.59,10.59,10.59,10.6-4.74,10.6-10.59-4.74-10.59-10.6-10.59Zm0,20.89c-4.22,.08-6.42-3.74-7.4-7.23-.62-2.12-1.18-4.21-.89-6.51,.26-2.5,2.19-4.74,4.62-5.44,4.3-1.28,9.36,1.91,10.65,6,1.63,4.94-.79,13.12-6.98,13.18Z"/><path class="g" d="M1014.1,641.65c-5.85,0-10.6,4.74-10.6,10.59s4.75,10.58,10.6,10.58,10.6-4.74,10.6-10.58-4.74-10.59-10.6-10.59Zm0,20.88c-4.21,.08-6.42-3.74-7.41-7.23-.62-2.11-1.18-4.21-.9-6.5,.27-2.5,2.21-4.75,4.64-5.44,4.29-1.29,9.35,1.9,10.65,5.99,1.63,4.93-.79,13.13-6.98,13.18Z"/><path class="g" d="M1014.1,27.36c-5.85,0-10.6,4.74-10.6,10.59s4.75,10.59,10.6,10.59,10.6-4.74,10.6-10.59-4.74-10.59-10.6-10.59Zm3.69,19.47c-4.3,1.29-9.36-1.91-10.66-5.99-1.64-4.93,.79-13.13,6.97-13.19,4.22-.07,6.43,3.74,7.42,7.23,.62,2.11,1.18,4.21,.89,6.51-.26,2.5-2.19,4.74-4.62,5.44Z"/><path class="g" d="M1073.72,589.09c-5.85,0-10.6,4.74-10.6,10.59s4.75,10.59,10.6,10.59,10.6-4.74,10.6-10.59-4.75-10.59-10.6-10.59Zm0,20.89c-4.21,.08-6.43-3.74-7.41-7.23-.63-2.11-1.19-4.21-.9-6.51,.26-2.5,2.2-4.74,4.63-5.44,4.3-1.29,9.36,1.91,10.66,5.99,1.63,4.94-.79,13.13-6.98,13.19Z"/><path class="g" d="M1073.72,79.92c-5.85,0-10.6,4.74-10.6,10.59s4.75,10.58,10.6,10.58,10.6-4.74,10.6-10.58-4.75-10.59-10.6-10.59Zm3.68,19.47c-4.3,1.29-9.36-1.91-10.66-6-1.63-4.93,.8-13.12,6.98-13.18,4.22-.09,6.43,3.74,7.42,7.23,.62,2.11,1.18,4.21,.89,6.51-.26,2.5-2.2,4.74-4.63,5.44Z"/><path class="g" d="M1084.24,433.77c-5.86,0-10.6,4.74-10.6,10.59s4.74,10.59,10.6,10.59,10.59-4.74,10.59-10.59-4.74-10.59-10.59-10.59Zm0,20.89c-4.22,.08-6.43-3.74-7.42-7.24-.62-2.11-1.18-4.21-.9-6.5,.27-2.5,2.21-4.75,4.63-5.44,4.3-1.29,9.37,1.9,10.67,5.99,1.62,4.94-.8,13.13-6.98,13.19Z"/><path class="g" d="M1084.24,236.41c-5.86,0-10.6,4.74-10.6,10.59s4.74,10.58,10.6,10.58,10.59-4.74,10.59-10.58-4.74-10.59-10.59-10.59Zm0,20.88c-4.22,.08-6.43-3.74-7.41-7.23-.63-2.1-1.19-4.2-.9-6.5,.26-2.5,2.2-4.74,4.63-5.44,4.29-1.28,9.36,1.91,10.66,5.99,1.62,4.94-.8,13.12-6.98,13.18Z"/><path class="f" d="M1040.01,141.13c-1.95-34.65-27.5-65.12-61.1-73.52-5.21-1.29-10.53-2.17-15.89-2.46l-1.46-.04-2.93-.08-5.72-.03c-266.48-1.65-546.21,1.5-812.8,1.66-31.41-.06-60.18,18.43-73.23,46.99l-.59,1.31-.3,.65-.27,.67-1.07,2.67c-.63,1.73-1.31,3.69-1.81,5.46-2.21,7.31-3.22,15.08-3.29,22.71,.05,7.1-.28,49.41-.22,57.24-.48,92.18-1.48,246.95-1.75,337.7,.01,9.83,1.7,19.68,5.13,28.9,9.12,25.11,31.18,44.86,57.09,51.29,5.27,1.29,10.65,2.16,16.07,2.43l1.48,.05,2.95,.07h5.72c259.83,.25,555.63-.15,815.71-1.35,6.75-.27,13.59-1.35,20.05-3.31,24.27-7.05,44.51-26.14,53.16-49.84,2.98-8.16,4.66-16.84,4.9-25.52-.09-128.67-.37-263.26,.35-392.12,.02-3.15,.06-8.48-.18-11.53Zm-2.26,405c-.65,11.74-3.94,23.34-9.6,33.65-7.92,14.43-20.44,26.22-35.31,33.29-7.21,3.4-14.93,5.71-22.82,6.81l-2.79,.34c-.94,.11-1.87,.15-2.81,.22l-1.4,.1c-.46,.03-.93,.02-1.4,.04-92.69-.11-276.46-1.06-369.14-.99-131.68-.39-323.96-.16-454.96-.28-8.28-.21-16.55-1.88-24.32-4.71-13.87-5.12-26.13-14.3-35.06-26.07-8.9-11.8-14.37-26.15-15.39-40.92l-.11-1.38c-.03-.46-.03-.92-.05-1.39l-.08-2.77c-.1-11.46-.07-51.06-.24-62.96-.33-90.29-1.65-245.77-1.64-336.25,.4-7.08,1.6-14.2,3.86-20.93,10.67-32.63,41.36-54.76,75.62-54.74,269.97,.3,552.87,3.13,822.72,1.72,15.39,.7,30.49,6.07,42.88,15.24,18.92,13.83,30.99,36.52,31.76,59.99,.22,4.75,.02,15.3,.15,19.98,.37,125.37,.84,256.85,.13,382.01Z"/><path class="e" d="M100.14,41.39c-.27,2.5-2.2,4.74-4.63,5.44-4.3,1.29-9.36-1.91-10.66-5.99-1.63-4.93,.8-13.13,6.98-13.19,4.22-.07,6.42,3.74,7.41,7.23,.62,2.11,1.18,4.21,.9,6.51Z"/><path class="h" d="M91.83,27.36c-5.86,0-10.6,4.74-10.6,10.59s4.74,10.59,10.6,10.59,10.6-4.74,10.6-10.59-4.75-10.59-10.6-10.59Zm3.68,19.47c-4.3,1.29-9.36-1.91-10.66-5.99-1.63-4.93,.8-13.13,6.98-13.19,4.22-.07,6.42,3.74,7.41,7.23,.62,2.11,1.18,4.21,.9,6.51-.27,2.5-2.2,4.74-4.63,5.44Z"/><path class="e" d="M32.22,100.8c-4.22,.09-6.43-3.74-7.41-7.23-.63-2.11-1.18-4.21-.9-6.5,.26-2.5,2.19-4.74,4.62-5.44,4.3-1.29,9.36,1.9,10.66,5.99,1.63,4.93-.79,13.13-6.97,13.18Z"/><path class="h" d="M32.22,79.92c-5.86,0-10.6,4.73-10.6,10.59s4.74,10.58,10.6,10.58,10.59-4.73,10.59-10.58-4.74-10.59-10.59-10.59Zm0,20.88c-4.22,.09-6.43-3.74-7.41-7.23-.63-2.11-1.18-4.21-.9-6.5,.26-2.5,2.19-4.74,4.62-5.44,4.3-1.29,9.36,1.9,10.66,5.99,1.63,4.93-.79,13.13-6.97,13.18Z"/><path class="e" d="M1073.72,609.98c-4.21,.08-6.43-3.74-7.41-7.23-.63-2.11-1.19-4.21-.9-6.51,.26-2.5,2.2-4.74,4.63-5.44,4.3-1.29,9.36,1.91,10.66,5.99,1.63,4.94-.79,13.13-6.98,13.19Z"/><path class="h" d="M1073.72,589.09c-5.85,0-10.6,4.74-10.6,10.59s4.75,10.59,10.6,10.59,10.6-4.74,10.6-10.59-4.75-10.59-10.6-10.59Zm0,20.89c-4.21,.08-6.43-3.74-7.41-7.23-.63-2.11-1.19-4.21-.9-6.51,.26-2.5,2.2-4.74,4.63-5.44,4.3-1.29,9.36,1.91,10.66,5.99,1.63,4.94-.79,13.13-6.98,13.19Z"/><path class="e" d="M1014.1,662.53c-4.21,.08-6.42-3.74-7.41-7.23-.62-2.11-1.18-4.21-.9-6.5,.27-2.5,2.21-4.75,4.64-5.44,4.29-1.29,9.35,1.9,10.65,5.99,1.63,4.93-.79,13.13-6.98,13.18Z"/><path class="h" d="M1014.1,641.65c-5.85,0-10.6,4.74-10.6,10.59s4.75,10.58,10.6,10.58,10.6-4.74,10.6-10.58-4.74-10.59-10.6-10.59Zm0,20.88c-4.21,.08-6.42-3.74-7.41-7.23-.62-2.11-1.18-4.21-.9-6.5,.27-2.5,2.21-4.75,4.64-5.44,4.29-1.29,9.35,1.9,10.65,5.99,1.63,4.93-.79,13.13-6.98,13.18Z"/><path class="e" d="M1082.03,93.95c-.26,2.5-2.2,4.74-4.63,5.44-4.3,1.29-9.36-1.91-10.66-6-1.63-4.93,.8-13.12,6.98-13.18,4.22-.09,6.43,3.74,7.42,7.23,.62,2.11,1.18,4.21,.89,6.51Z"/><path class="h" d="M1073.72,79.92c-5.85,0-10.6,4.74-10.6,10.59s4.75,10.58,10.6,10.58,10.6-4.74,10.6-10.58-4.75-10.59-10.6-10.59Zm3.68,19.47c-4.3,1.29-9.36-1.91-10.66-6-1.63-4.93,.8-13.12,6.98-13.18,4.22-.09,6.43,3.74,7.42,7.23,.62,2.11,1.18,4.21,.89,6.51-.26,2.5-2.2,4.74-4.63,5.44Z"/><path class="e" d="M1022.41,41.39c-.26,2.5-2.19,4.74-4.62,5.44-4.3,1.29-9.36-1.91-10.66-5.99-1.64-4.93,.79-13.13,6.97-13.19,4.22-.07,6.43,3.74,7.42,7.23,.62,2.11,1.18,4.21,.89,6.51Z"/><path class="h" d="M1014.1,27.36c-5.85,0-10.6,4.74-10.6,10.59s4.75,10.59,10.6,10.59,10.6-4.74,10.6-10.59-4.74-10.59-10.6-10.59Zm3.69,19.47c-4.3,1.29-9.36-1.91-10.66-5.99-1.64-4.93,.79-13.13,6.97-13.19,4.22-.07,6.43,3.74,7.42,7.23,.62,2.11,1.18,4.21,.89,6.51-.26,2.5-2.19,4.74-4.62,5.44Z"/><path class="e" d="M553.68,29.71c-.26,2.5-2.2,4.74-4.63,5.44-4.29,1.29-9.36-1.9-10.65-5.99-1.63-4.93,.78-13.12,6.97-13.18,4.21-.09,6.42,3.74,7.41,7.23,.62,2.11,1.18,4.21,.9,6.5Z"/><path class="h" d="M545.37,15.69c-5.85,0-10.59,4.73-10.59,10.59,0,4.02,2.24,7.51,5.54,9.3,.3,.16,.61,.31,.93,.45,.16,.07,.32,.13,.48,.19,.33,.11,.66,.22,1,.31,.33,.08,.68,.15,1.03,.21,.52,.08,1.06,.12,1.61,.12,5.85,0,10.6-4.73,10.6-10.58s-4.75-10.59-10.6-10.59Zm3.68,19.46c-4.29,1.29-9.36-1.9-10.65-5.99-1.63-4.93,.78-13.12,6.97-13.18,4.21-.09,6.42,3.74,7.41,7.23,.62,2.11,1.18,4.21,.9,6.5-.26,2.5-2.2,4.74-4.63,5.44Z"/><path class="e" d="M271.97,29.71c-.26,2.5-2.2,4.74-4.63,5.44-4.29,1.29-9.35-1.9-10.65-5.99-1.63-4.93,.78-13.12,6.97-13.18,4.21-.09,6.42,3.74,7.41,7.23,.63,2.11,1.18,4.21,.9,6.5Z"/><path class="h" d="M274.04,24.14c-.07-.34-.16-.68-.26-1.01-.16-.5-.35-.98-.57-1.45-.15-.31-.31-.61-.49-.9-.18-.29-.37-.57-.57-.84-1.94-2.58-5.02-4.25-8.5-4.25s-6.55,1.67-8.48,4.25c-.2,.27-.39,.55-.57,.84-.18,.29-.34,.59-.49,.9-.23,.47-.42,.95-.57,1.45-.1,.33-.19,.67-.26,1.01-.15,.69-.22,1.41-.22,2.14s.07,1.44,.22,2.13h0c.08,.35,.16,.69,.26,1.02,.15,.5,.34,.98,.57,1.44,.15,.31,.31,.61,.49,.9,.18,.29,.37,.57,.57,.84,.91,1.22,2.09,2.24,3.44,2.97,.3,.16,.6,.31,.92,.45,.16,.07,.33,.13,.49,.19,.32,.11,.65,.22,.99,.31,.34,.08,.68,.15,1.03,.21,.52,.08,1.06,.12,1.61,.12,3.48,0,6.56-1.67,8.5-4.25,.2-.27,.39-.55,.57-.84,.18-.29,.34-.59,.49-.9,.22-.46,.41-.94,.57-1.44,.1-.33,.19-.67,.26-1.01,.14-.69,.21-1.41,.21-2.14s-.07-1.45-.21-2.14Zm-2.07,5.57c-.26,2.5-2.2,4.74-4.63,5.44-4.29,1.29-9.35-1.9-10.65-5.99-1.63-4.93,.78-13.12,6.97-13.18,4.21-.09,6.42,3.74,7.41,7.23,.63,2.11,1.18,4.21,.9,6.5Z"/><path class="e" d="M32.34,250.43c-.26,2.5-2.2,4.74-4.63,5.44-4.29,1.29-9.35-1.9-10.65-5.98-1.64-4.92,.79-13.14,6.97-13.19,4.21-.08,6.42,3.74,7.41,7.23,.62,2.11,1.18,4.2,.9,6.5Z"/><path class="h" d="M34.51,245.39c-.06-.36-.13-.7-.21-1.04-.09-.34-.2-.67-.31-.99-.18-.49-.4-.96-.64-1.41-.17-.3-.34-.59-.53-.87-.39-.57-.82-1.09-1.3-1.57-1.91-1.92-4.57-3.1-7.49-3.1s-5.56,1.18-7.48,3.1c-.48,.47-.92,1-1.3,1.57-.19,.28-.36,.57-.53,.87-.82,1.5-1.28,3.22-1.28,5.05s.46,3.54,1.28,5.04c.17,.3,.34,.59,.53,.88,.38,.56,.82,1.09,1.3,1.56,1.92,1.92,4.56,3.1,7.48,3.1s5.58-1.19,7.49-3.1c.48-.48,.91-1,1.3-1.56,.19-.29,.36-.58,.53-.88,.24-.45,.46-.92,.64-1.4,.11-.33,.22-.66,.31-1,.08-.33,.15-.68,.21-1.03,.08-.52,.12-1.06,.12-1.61s-.04-1.09-.12-1.61Zm-2.17,5.04c-.26,2.5-2.2,4.74-4.63,5.44-4.29,1.29-9.35-1.9-10.65-5.98-1.64-4.92,.79-13.14,6.97-13.19,4.21-.08,6.42,3.74,7.41,7.23,.62,2.11,1.18,4.2,.9,6.5Z"/><path class="e" d="M26.92,451.33c-4.93,1.63-13.13-.78-13.19-6.97-.08-4.22,3.74-6.42,7.23-7.4,2.11-.62,4.21-1.18,6.51-.9,2.5,.26,4.74,2.19,5.45,4.62,1.29,4.3-1.91,9.36-6,10.65Z"/><path class="h" d="M24.03,433.77c-5.85,0-10.59,4.74-10.59,10.59s4.74,10.59,10.59,10.59,10.6-4.74,10.6-10.59-4.75-10.59-10.6-10.59Zm2.89,17.56c-4.93,1.63-13.13-.78-13.19-6.97-.08-4.22,3.74-6.42,7.23-7.4,2.11-.62,4.21-1.18,6.51-.9,2.5,.26,4.74,2.19,5.45,4.62,1.29,4.3-1.91,9.36-6,10.65Z"/><path class="e" d="M1084.24,257.29c-4.22,.08-6.43-3.74-7.41-7.23-.63-2.1-1.19-4.2-.9-6.5,.26-2.5,2.2-4.74,4.63-5.44,4.29-1.28,9.36,1.91,10.66,5.99,1.62,4.94-.8,13.12-6.98,13.18Z"/><path class="h" d="M1084.24,236.41c-5.86,0-10.6,4.74-10.6,10.59s4.74,10.58,10.6,10.58,10.59-4.74,10.59-10.58-4.74-10.59-10.59-10.59Zm0,20.88c-4.22,.08-6.43-3.74-7.41-7.23-.63-2.1-1.19-4.2-.9-6.5,.26-2.5,2.2-4.74,4.63-5.44,4.29-1.28,9.36,1.91,10.66,5.99,1.62,4.94-.8,13.12-6.98,13.18Z"/><path class="e" d="M1084.24,454.66c-4.22,.08-6.43-3.74-7.42-7.24-.62-2.11-1.18-4.21-.9-6.5,.27-2.5,2.21-4.75,4.63-5.44,4.3-1.29,9.37,1.9,10.67,5.99,1.62,4.94-.8,13.13-6.98,13.19Z"/><path class="h" d="M1084.24,433.77c-5.86,0-10.6,4.74-10.6,10.59s4.74,10.59,10.6,10.59,10.59-4.74,10.59-10.59-4.74-10.59-10.59-10.59Zm0,20.89c-4.22,.08-6.43-3.74-7.42-7.24-.62-2.11-1.18-4.21-.9-6.5,.27-2.5,2.21-4.75,4.63-5.44,4.3-1.29,9.37,1.9,10.67,5.99,1.62,4.94-.8,13.13-6.98,13.19Z"/><path class="e" d="M817.85,29.72c-.26,2.5-2.2,4.74-4.63,5.44-4.3,1.29-9.36-1.91-10.66-6-1.63-4.93,.8-13.12,6.98-13.18,4.22-.09,6.43,3.74,7.42,7.23,.62,2.11,1.18,4.21,.89,6.51Z"/><path class="h" d="M809.54,15.69c-5.85,0-10.6,4.74-10.6,10.59s4.75,10.58,10.6,10.58,10.6-4.74,10.6-10.58-4.74-10.59-10.6-10.59Zm3.68,19.47c-4.3,1.29-9.36-1.91-10.66-6-1.63-4.93,.8-13.12,6.98-13.18,4.22-.09,6.43,3.74,7.42,7.23,.62,2.11,1.18,4.21,.89,6.51-.26,2.5-2.2,4.74-4.63,5.44Z"/><path class="e" d="M553.56,674.21c-4.22,.08-6.43-3.74-7.41-7.23-.63-2.11-1.18-4.21-.9-6.51,.26-2.49,2.19-4.73,4.62-5.44,4.3-1.28,9.36,1.91,10.66,5.99,1.63,4.94-.79,13.13-6.97,13.19Z"/><path class="h" d="M553.55,653.32c-5.85,0-10.6,4.74-10.6,10.59s4.75,10.59,10.6,10.59,10.59-4.74,10.59-10.59-4.74-10.59-10.59-10.59Zm0,20.89c-4.22,.08-6.43-3.74-7.41-7.23-.63-2.11-1.18-4.21-.9-6.51,.26-2.49,2.19-4.73,4.62-5.44,4.3-1.28,9.36,1.91,10.66,5.99,1.63,4.94-.79,13.13-6.97,13.19Z"/><path class="e" d="M271.85,674.21c-4.22,.08-6.43-3.74-7.41-7.23-.63-2.11-1.18-4.21-.9-6.51,.26-2.49,2.19-4.73,4.62-5.44,4.3-1.28,9.36,1.91,10.66,5.99,1.63,4.94-.79,13.13-6.97,13.19Z"/><path class="h" d="M271.84,653.32c-5.85,0-10.6,4.74-10.6,10.59s4.75,10.59,10.6,10.59,10.59-4.74,10.59-10.59-4.74-10.59-10.59-10.59Zm.01,20.89c-4.22,.08-6.43-3.74-7.41-7.23-.63-2.11-1.18-4.21-.9-6.51,.26-2.49,2.19-4.73,4.62-5.44,4.3-1.28,9.36,1.91,10.66,5.99,1.63,4.94-.79,13.13-6.97,13.19Z"/><path class="e" d="M817.72,674.21c-4.22,.08-6.42-3.74-7.4-7.23-.62-2.12-1.18-4.21-.89-6.51,.26-2.5,2.19-4.74,4.62-5.44,4.3-1.28,9.36,1.91,10.65,6,1.63,4.94-.79,13.12-6.98,13.18Z"/><path class="h" d="M817.72,653.32c-5.84,0-10.59,4.74-10.59,10.59s4.75,10.59,10.59,10.59,10.6-4.74,10.6-10.59-4.74-10.59-10.6-10.59Zm0,20.89c-4.22,.08-6.42-3.74-7.4-7.23-.62-2.12-1.18-4.21-.89-6.51,.26-2.5,2.19-4.74,4.62-5.44,4.3-1.28,9.36,1.91,10.65,6,1.63,4.94-.79,13.12-6.98,13.18Z"/><path class="e" d="M90.67,662.53c-4.22,.08-6.43-3.74-7.41-7.23-.63-2.11-1.19-4.21-.91-6.5,.27-2.5,2.2-4.74,4.63-5.44,4.29-1.29,9.36,1.9,10.66,5.99,1.62,4.93-.79,13.13-6.97,13.18Z"/><path class="h" d="M90.67,641.65c-5.86,0-10.6,4.73-10.6,10.59s4.74,10.58,10.6,10.58,10.58-4.73,10.58-10.58-4.74-10.59-10.58-10.59Zm0,20.88c-4.22,.08-6.43-3.74-7.41-7.23-.63-2.11-1.19-4.21-.91-6.5,.27-2.5,2.2-4.74,4.63-5.44,4.29-1.29,9.36,1.9,10.66,5.99,1.62,4.93-.79,13.13-6.97,13.18Z"/><path class="e" d="M31.05,609.98c-4.22,.08-6.43-3.74-7.42-7.23-.62-2.11-1.18-4.21-.9-6.51,.27-2.5,2.21-4.74,4.64-5.44,4.29-1.29,9.36,1.91,10.66,5.99,1.62,4.94-.8,13.13-6.98,13.19Z"/><path class="h" d="M31.05,589.09c-5.86,0-10.6,4.74-10.6,10.59s4.74,10.59,10.6,10.59,10.6-4.74,10.6-10.59-4.75-10.59-10.6-10.59Zm0,20.89c-4.22,.08-6.43-3.74-7.42-7.23-.62-2.11-1.18-4.21-.9-6.51,.27-2.5,2.21-4.74,4.64-5.44,4.29-1.29,9.36,1.91,10.66,5.99,1.62,4.94-.8,13.13-6.98,13.19Z"/></g></g></g></svg>