<svg width="864" height="789" viewBox="0 0 864 789" fill="none" xmlns="http://www.w3.org/2000/svg">
<path d="M358.642 28.2953L380.975 70.5748L358.642 115.575L425.887 110.868V21.7656L358.642 28.2953Z" fill="#FE8A3A"/>
<path d="M518.971 237.625C518.971 237.625 387.224 314.049 352.352 554.531L523.209 543.716L518.971 237.625Z" fill="#FE8A3A"/>
<path d="M398.038 12.7056L519.989 0.340086L523.019 0V66.1672V543.771L517.272 544.138L518.631 88.5993H515.656L398.038 99.9854V12.7056Z" fill="#EE4266"/>
<path d="M398.038 99.9853L425.873 110.555L425.887 97.2646L398.038 99.9853Z" fill="#4D17B2"/>
<path d="M291.247 553.347H294.969C294.969 553.347 302.047 553.266 300.009 554.463C298.786 555.17 292.646 555.388 292.646 555.388L288.598 555.374C288.598 555.374 284.291 555.388 291.247 553.347Z" fill="white"/>
<path d="M274.578 431.923C273.858 431.923 273.029 430.59 273.029 428.685C273.029 426.781 273.845 425.434 274.578 425.434C275.298 425.434 276.113 426.767 276.113 428.685C276.113 430.59 275.312 431.923 274.578 431.923Z" fill="#FFC857"/>
<path d="M755.851 579.97C744.928 579.97 736.071 588.866 736.071 599.831C736.071 610.795 744.928 619.705 755.851 619.705C766.773 619.705 775.63 610.809 775.63 599.831C775.63 588.866 766.773 579.97 755.851 579.97ZM755.851 615.162C747.428 615.162 740.608 608.306 740.608 599.844C740.608 591.383 747.441 584.513 755.851 584.513C764.273 584.513 771.106 591.369 771.106 599.844C771.106 608.292 764.273 615.162 755.851 615.162Z" fill="#D4D8E4"/>
<path d="M626.346 580.894L629.171 573.1H624.675C623.52 576.568 624.321 579.112 625.082 580.527C623.574 580.16 622.012 579.969 620.395 579.969C609.473 579.969 600.616 588.866 600.616 599.83C600.616 610.795 609.473 619.705 620.395 619.705C631.318 619.705 640.175 610.808 640.175 599.83C640.175 590.947 634.361 583.425 626.346 580.894ZM620.382 615.161C611.959 615.161 605.14 608.305 605.14 599.844C605.14 591.383 611.973 584.513 620.382 584.513C628.805 584.513 635.638 591.369 635.638 599.844C635.638 608.292 628.818 615.161 620.382 615.161Z" fill="#D4D8E4"/>
<path d="M484.927 579.97C474.005 579.97 465.147 588.866 465.147 599.831C465.147 610.795 474.005 619.705 484.927 619.705C495.849 619.705 504.706 610.809 504.706 599.831C504.706 588.866 495.849 579.97 484.927 579.97ZM484.927 615.162C476.504 615.162 469.685 608.306 469.685 599.844C469.685 591.383 476.518 584.513 484.927 584.513C493.349 584.513 500.183 591.369 500.183 599.844C500.183 608.292 493.349 615.162 484.927 615.162Z" fill="#D4D8E4"/>
<path d="M349.472 579.97C338.549 579.97 329.692 588.866 329.692 599.831C329.692 610.795 338.549 619.705 349.472 619.705C360.394 619.705 369.251 610.809 369.251 599.831C369.251 588.866 360.394 579.97 349.472 579.97ZM349.472 615.162C341.049 615.162 334.229 608.306 334.229 599.844C334.229 591.383 341.063 584.513 349.472 584.513C357.894 584.513 364.728 591.369 364.728 599.844C364.728 608.292 357.894 615.162 349.472 615.162Z" fill="#D4D8E4"/>
<path d="M274.578 432.848C275.95 432.848 277.037 431.025 277.037 428.686C277.037 426.346 275.964 424.509 274.578 424.509C273.206 424.509 272.119 426.346 272.119 428.686C272.119 431.012 273.206 432.848 274.578 432.848ZM274.578 425.434C275.312 425.434 276.113 426.767 276.113 428.686C276.113 430.604 275.298 431.923 274.578 431.923C273.858 431.923 273.029 430.59 273.029 428.686C273.029 426.781 273.858 425.434 274.578 425.434Z" fill="#EE4266"/>
<path d="M268.193 604.619C267.514 606.033 250.995 639.362 208.134 639.362C191.955 639.362 178.832 637.525 166.143 635.743C148.239 633.24 131.42 631.649 112.863 635.567C113.285 636.437 113.624 637.308 113.896 638.151C128.554 634.084 153.672 639.362 162.272 641.402C164.513 641.933 166.755 642.355 169.037 642.668C180.408 644.232 193.191 645.824 208.134 645.824C208.814 645.824 209.493 645.81 210.159 645.796C232.642 645.266 253.522 633.948 266.875 615.76L271.44 609.543L268.968 604.238L268.193 604.619Z" fill="#9498A7"/>
<path d="M269.457 432.848C269.823 432.848 270.177 432.712 270.476 432.481C270.571 432.413 270.666 432.331 270.747 432.236C271.467 431.474 271.902 430.155 271.902 428.686C271.902 427.638 271.698 426.659 271.291 425.91C271.209 425.747 271.114 425.611 271.019 425.489C270.598 424.877 270.054 424.523 269.443 424.523C268.071 424.523 266.984 426.359 266.984 428.699C266.984 431.012 268.071 432.848 269.457 432.848ZM269.457 425.434C269.823 425.434 270.204 425.761 270.489 426.332C270.815 426.958 270.992 427.788 270.992 428.686C270.992 429.91 270.652 431.025 270.095 431.597C269.891 431.814 269.688 431.923 269.457 431.923C268.737 431.923 267.908 430.59 267.908 428.686C267.908 426.781 268.723 425.434 269.457 425.434Z" fill="#EE4266"/>
<path d="M789.174 447.349C794.934 449.948 792.625 446.043 792.312 444.03C792 442.017 789.609 444.03 789.609 444.03C789.609 444.03 788.916 444.098 787.571 443.159C787.571 443.159 786.58 444.588 786.688 446.452C787.476 446.778 788.291 447.077 789.106 447.322C789.12 447.336 789.147 447.336 789.174 447.349Z" fill="#FFC857"/>
<path d="M859.15 522.454L839.71 523.678C839.805 523.815 839.887 523.964 839.955 524.114L828.598 524.821C828.598 524.685 828.598 524.549 828.598 524.386L766.189 528.331C766.189 528.372 766.202 528.426 766.202 528.467L762.575 528.576L762.168 528.603L758.948 528.807L723.505 531.052L712.053 532.33C712.053 532.33 711.265 532.276 711.346 531.827L694.107 532.915C686.106 539.839 675.061 540.166 671.937 540.737C661.911 542.56 654.032 550.368 652.075 560.408L647.769 576.895L643.558 584.309C639.727 580.065 643.558 576.351 643.558 576.351C643.558 576.351 643.109 573.821 642.607 569.876C642.417 568.488 642.24 566.91 642.077 565.21C641.072 555.184 640.46 546.233 643.925 537.472C644.115 536.983 644.319 536.507 644.536 536.058C634.374 551.021 629.158 573.127 629.158 573.127L626.332 580.922C634.361 583.452 640.162 590.975 640.162 599.871C640.162 610.836 631.304 619.746 620.382 619.746C609.46 619.746 600.602 610.849 600.602 599.871C600.602 588.893 609.46 580.01 620.382 580.01C621.999 580.01 623.561 580.201 625.069 580.568C624.308 579.14 623.52 576.596 624.661 573.141C623.561 564.992 625.109 553.266 626.848 543.907C627.283 541.567 627.881 539.282 628.682 537.078L533.683 543.091C534.091 543.553 534.457 544.124 534.756 544.805L524.635 545.09C524.649 544.709 524.663 544.193 524.731 543.662L523.209 543.757L518.984 544.029L476.83 546.655C477.414 547.199 477.944 547.906 478.365 548.845L468.245 549.117C468.245 548.614 468.285 547.893 468.394 547.172L352.338 554.518L248.821 561.061L268.981 604.252L271.454 609.557L286.859 642.6H816.385L863.633 528.793C864.951 525.665 862.519 522.237 859.15 522.454ZM349.458 619.705C338.536 619.705 329.678 610.809 329.678 599.831C329.678 588.853 338.536 579.97 349.458 579.97C360.38 579.97 369.238 588.866 369.238 599.831C369.251 610.809 360.394 619.705 349.458 619.705ZM484.927 619.705C474.005 619.705 465.147 610.809 465.147 599.831C465.147 588.853 474.005 579.97 484.927 579.97C495.849 579.97 504.706 588.866 504.706 599.831C504.706 610.809 495.849 619.705 484.927 619.705ZM755.851 619.705C744.928 619.705 736.071 610.809 736.071 599.831C736.071 588.853 744.928 579.97 755.851 579.97C766.773 579.97 775.63 588.866 775.63 599.831C775.63 610.809 766.773 619.705 755.851 619.705Z" fill="#FAFAFA"/>
<path d="M755.851 584.513C747.428 584.513 740.608 591.369 740.608 599.844C740.608 608.306 747.442 615.162 755.851 615.162C764.273 615.162 771.106 608.306 771.106 599.844C771.106 591.369 764.273 584.513 755.851 584.513Z" fill="#6310E5"/>
<path d="M724.293 530.942L754.737 529.065L754.832 528.766C740.31 251.609 523.209 87.334 523.209 87.334V357.757V484.337L523.073 484.391C534.906 513.829 526.7 535.2 526.7 535.2L529.526 540.819C528.86 540.723 528.426 540.737 528.398 540.737L526.442 540.805C526.32 539.839 525.654 535.16 523.195 528.018V543.716L524.717 543.621C524.649 544.151 524.635 544.668 524.622 545.049L534.743 544.764C534.444 544.097 534.077 543.512 533.669 543.05L628.669 537.037L724.293 530.942Z" fill="#FCAD0D"/>
<path d="M713.004 528.589C713.031 528.399 713.411 526.304 716.794 526.481C717.134 528.059 717.324 528.943 717.324 528.943C717.324 528.943 725.176 528.997 724.293 530.956L723.505 531.051L712.053 532.33C712.053 532.33 711.265 532.276 711.346 531.827C711.387 531.5 711.903 530.97 713.52 530.086L713.004 528.589Z" fill="white"/>
<path d="M673.214 453.825L673.458 457.715L671.461 457.879L673.214 453.825Z" fill="#D4D8E4"/>
<path d="M673.431 459.919C673.214 459.919 672.983 459.878 672.752 459.797C672.521 459.715 672.385 459.456 672.466 459.212C672.548 458.967 672.82 458.844 673.051 458.926C674.205 459.334 675.482 457.62 675.509 457.593C675.659 457.375 675.944 457.334 676.148 457.484C676.365 457.647 676.406 457.933 676.257 458.137C676.189 458.219 674.952 459.919 673.431 459.919Z" fill="#EE4266"/>
<path d="M620.382 584.513C611.959 584.513 605.14 591.369 605.14 599.844C605.14 608.306 611.973 615.162 620.382 615.162C628.804 615.162 635.638 608.306 635.638 599.844C635.638 591.369 628.818 584.513 620.382 584.513Z" fill="#6310E5"/>
<path d="M484.927 584.513C476.504 584.513 469.684 591.369 469.684 599.844C469.684 608.306 476.518 615.162 484.927 615.162C493.349 615.162 500.183 608.306 500.183 599.844C500.183 591.369 493.349 584.513 484.927 584.513Z" fill="#6310E5"/>
<path d="M349.458 584.513C341.035 584.513 334.216 591.369 334.216 599.844C334.216 608.306 341.049 615.162 349.458 615.162C357.881 615.162 364.714 608.306 364.714 599.844C364.714 591.369 357.894 584.513 349.458 584.513Z" fill="#6310E5"/>
<path d="M354.933 539.567L322.805 540.9C320.943 544.791 316.066 549.811 294.983 551.321C294.983 551.117 294.983 550.885 294.983 550.668L294.969 553.361C294.969 553.361 302.047 553.28 300.009 554.477C298.786 555.184 292.646 555.402 292.646 555.402L288.598 555.388C288.598 555.388 284.291 555.402 291.247 553.361L290.486 549.702C290.486 549.702 257.244 559.347 248.835 561.088L352.352 554.545C353.248 549.484 354.158 544.505 355.096 539.608L354.933 539.567Z" fill="#D4D8E4"/>
<path d="M766.189 528.331C766.148 527.746 766.039 526.902 765.822 526.1C765.672 525.542 765.469 524.998 765.183 524.617C765.048 524.426 764.885 524.263 764.708 524.154H764.694L761.719 524.236C761.706 524.236 761.312 524.25 760.714 524.331C760.497 524.372 760.252 524.413 759.994 524.481C758.35 524.902 755.986 525.977 754.832 528.766C754.832 528.752 754.832 528.752 754.832 528.752L754.737 529.052L758.948 528.78L759.002 528.643L762.168 528.548L762.562 528.535L766.189 528.439C766.202 528.426 766.189 528.385 766.189 528.331Z" fill="#FE8A3A"/>
<path d="M488.69 382.203C490.904 384.189 491.869 382.393 491.869 382.393L488.69 382.203Z" fill="#FAFAFA"/>
<path d="M489.573 374.163L488.568 377.155L491.04 377.305L489.573 374.163Z" fill="#D4D8E4"/>
<path d="M533.289 542.587C532.216 541.567 530.98 541.104 530.015 540.9C529.961 540.887 529.92 540.887 529.866 540.873C529.051 540.71 528.48 540.737 528.466 540.737L526.008 540.805L525.804 540.819H525.79C525.342 541.159 525.07 541.934 524.921 542.764C524.894 542.886 524.88 542.995 524.853 543.118C524.731 543.839 524.703 544.56 524.703 545.063L534.824 544.791C534.417 543.839 533.873 543.131 533.289 542.587Z" fill="#643AD6"/>
<path d="M496.555 396.391L499.245 399.683C498.335 398.676 497.398 397.547 496.555 396.391Z" fill="#643AD6"/>
<path d="M427.517 361.416L427.707 360.967C427.626 361.09 427.558 361.253 427.517 361.416Z" fill="white"/>
<path d="M431.688 366.776C431.688 366.776 431.728 360.015 428.685 360.355C428.223 360.41 427.924 360.614 427.734 360.899C427.775 361.131 428.577 366.681 431.688 366.776Z" fill="white"/>
<path d="M465.256 398.39C465.989 396.853 466.696 395.126 467.253 393.289L465.256 398.39Z" fill="#643AD6"/>
<path d="M491.244 393.303C491.217 393.33 491.176 393.344 491.135 393.371C491.108 393.384 491.081 393.412 491.04 393.425C490.986 393.452 490.945 393.48 490.891 393.52C490.85 393.548 490.795 393.575 490.741 393.602C490.687 393.629 490.619 393.67 490.551 393.697C490.483 393.725 490.415 393.765 490.347 393.793C490.279 393.82 490.198 393.861 490.13 393.888C490.048 393.929 489.967 393.956 489.872 393.997C489.79 394.024 489.709 394.051 489.627 394.092C489.532 394.133 489.423 394.16 489.315 394.201C489.233 394.228 489.152 394.241 489.07 394.269C488.608 394.405 488.092 394.514 487.522 394.582C487.454 394.595 487.399 394.595 487.345 394.609C487.168 394.622 486.992 394.636 486.815 394.636C486.734 394.636 486.652 394.65 486.571 394.65C486.394 394.65 486.204 394.636 486.014 394.622C485.932 394.622 485.837 394.609 485.755 394.609C485.565 394.595 485.362 394.568 485.171 394.527C485.09 394.514 484.995 394.5 484.913 394.473C484.709 394.432 484.492 394.377 484.288 394.323C484.207 394.296 484.125 394.269 484.057 394.255C483.826 394.187 483.595 394.105 483.365 394.01C483.31 393.983 483.256 393.969 483.215 393.942C482.957 393.833 482.699 393.711 482.427 393.575C482.427 393.575 481.232 393.235 480.159 392.283L467.28 393.303C466.723 395.126 466.017 396.867 465.283 398.404L496.338 396.092L496.555 396.35C495.319 394.609 494.341 392.799 494.097 391.181C494.083 391.181 494.083 391.181 494.083 391.181C492.412 392.636 491.38 393.262 491.38 393.262C491.38 393.262 491.366 393.276 491.325 393.303C491.285 393.289 491.257 393.303 491.244 393.303Z" fill="#FFC857"/>
<path d="M462.715 403.084C463.435 401.914 464.93 399.955 465.826 398.05L467.253 393.303C467.484 392.541 467.701 391.765 467.864 390.963C466.519 390.813 465.215 390.609 463.938 390.364C463.069 393.207 461.601 397.588 459.917 401.179C460.827 401.805 461.751 402.444 462.715 403.084Z" fill="#FFC857"/>
<path d="M454.986 397.588C456.249 394.69 457.648 391.453 458.681 388.991C457.023 388.433 455.434 387.807 453.926 387.127C453.41 389.113 452.568 392.038 451.535 394.881C452.622 395.752 453.763 396.663 454.986 397.588Z" fill="#FFC857"/>
<path d="M447.786 391.684C449.049 389.752 450.231 387.657 450.978 385.63C449.226 384.665 447.582 383.631 446.074 382.542C445.463 384.039 444.648 385.916 443.683 387.78C444.933 389.045 446.278 390.337 447.786 391.684Z" fill="#FFC857"/>
<path d="M436.51 379.182C437.515 380.665 438.725 382.27 440.178 383.971C441.36 382.801 442.488 381.604 443.411 380.475C441.727 379.087 440.232 377.672 438.928 376.312C438.684 376.611 438.439 376.938 438.168 377.251C437.665 377.89 437.094 378.543 436.51 379.182Z" fill="#FFC857"/>
<path d="M433.617 374.122C434.255 373.564 434.907 372.993 435.546 372.421C434.54 371.17 433.739 370.041 433.141 369.129L432.027 369.633C432.285 370.803 432.774 372.313 433.617 374.122Z" fill="#FFC857"/>
<path d="M465.256 398.39C464.359 400.295 463.435 401.914 462.715 403.083L499.259 399.71L499.245 399.696C498.335 398.676 497.398 397.547 496.555 396.404L496.515 396.35L496.297 396.091L465.256 398.39Z" fill="#FE8A3A"/>
<path d="M480.145 392.269C479.737 391.902 479.343 391.453 479.058 390.881C475.064 391.344 471.342 391.33 467.878 390.949C467.715 391.738 467.497 392.514 467.266 393.289L480.145 392.269Z" fill="#FE8A3A"/>
<path d="M459.917 401.179C461.601 397.588 463.069 393.194 463.938 390.364C462.104 390.01 460.338 389.534 458.667 388.99C457.635 391.452 456.249 394.69 454.972 397.588C456.534 398.757 458.164 399.955 459.917 401.179Z" fill="#FE8A3A"/>
<path d="M459.917 401.179C461.601 397.588 463.069 393.194 463.938 390.364C463.069 393.194 461.615 397.574 459.917 401.179Z" fill="#FE8A3A"/>
<path d="M453.926 387.113C452.907 386.637 451.929 386.147 450.992 385.63C450.245 387.671 449.063 389.752 447.799 391.684C448.954 392.718 450.204 393.779 451.535 394.853C452.568 392.024 453.396 389.099 453.926 387.113Z" fill="#FE8A3A"/>
<path d="M451.521 394.867C452.554 392.024 453.396 389.113 453.926 387.127C453.396 389.099 452.568 392.024 451.521 394.867Z" fill="#FE8A3A"/>
<path d="M440.178 383.984C441.211 385.195 442.379 386.474 443.683 387.793C444.648 385.916 445.463 384.052 446.074 382.556C445.137 381.876 444.24 381.182 443.411 380.502C442.501 381.617 441.374 382.815 440.178 383.984Z" fill="#FE8A3A"/>
<path d="M443.683 387.794C444.648 385.93 445.463 384.053 446.074 382.556C445.476 384.039 444.648 385.916 443.683 387.794Z" fill="#FE8A3A"/>
<path d="M436.51 379.182C437.094 378.529 437.665 377.89 438.168 377.264C438.439 376.938 438.684 376.625 438.928 376.326C437.611 374.965 436.483 373.632 435.532 372.435C434.894 373.006 434.255 373.564 433.603 374.135C434.309 375.618 435.247 377.305 436.51 379.182Z" fill="#FE8A3A"/>
<path d="M438.168 377.264C437.651 377.89 437.094 378.529 436.51 379.182C437.094 378.543 437.665 377.89 438.168 377.264Z" fill="#FE8A3A"/>
<path d="M432.027 369.633L433.141 369.129C432.177 367.674 431.701 366.776 431.701 366.776C431.701 366.776 431.592 367.783 432.027 369.633Z" fill="#FE8A3A"/>
<path d="M432.027 369.633L433.141 369.129L432.027 369.633Z" fill="#FE8A3A"/>
<path d="M491.339 478.134C491.339 478.134 489.369 514.101 473.407 544.94C473.448 544.954 473.502 544.954 473.556 544.968C473.733 545.008 473.909 545.063 474.1 545.117C489.845 514.591 491.814 479.181 491.814 479.181C505.44 493.152 513.808 506.551 518.943 517.312V516.944C513.876 505.858 505.617 492.866 491.339 478.134Z" fill="white"/>
<path d="M490.279 458.422C492.847 458.559 495.17 458.708 497.262 458.831C495.156 458.681 492.792 458.518 490.198 458.354C490.225 458.382 490.252 458.395 490.279 458.422Z" fill="white"/>
<path d="M474.1 545.117C474.032 545.24 473.977 545.376 473.909 545.498C473.094 545.348 472.537 545.376 472.51 545.376L471.043 545.416C471.206 546.763 471.423 547.987 471.681 548.98L471.532 549.035L478.352 548.844C477.944 547.906 477.401 547.198 476.817 546.654C475.947 545.811 474.955 545.362 474.1 545.117Z" fill="#FE8A3A"/>
<path d="M474.1 545.117C474.955 545.362 475.947 545.811 476.83 546.654C475.947 545.811 474.955 545.362 474.1 545.117Z" fill="#FE8A3A"/>
<path d="M472.524 545.376C472.537 545.376 473.108 545.349 473.923 545.498C473.991 545.376 474.045 545.24 474.113 545.117C473.923 545.063 473.733 545.008 473.57 544.968C473.515 544.954 473.461 544.954 473.42 544.94C472.605 544.777 472.048 544.818 472.021 544.818L470.989 544.845C471.016 545.036 471.029 545.226 471.057 545.417L472.524 545.376Z" fill="#FE8A3A"/>
<path d="M473.556 544.968C473.733 545.008 473.909 545.063 474.1 545.117C473.923 545.063 473.733 545.008 473.556 544.968C473.502 544.954 473.461 544.954 473.407 544.94C473.461 544.954 473.502 544.968 473.556 544.968Z" fill="#FE8A3A"/>
<path d="M491.882 364.558L483.188 364.042L482.006 367.361C482.02 367.374 482.02 367.402 482.033 367.415C482.033 367.415 480.308 371.333 482.4 373.414C484.492 375.496 484.818 382.284 484.818 382.284C485.429 382.039 486.177 381.604 487.073 380.883C491.461 377.332 494.559 381.332 494.559 381.332L494.817 377.033C494.857 376.203 494.776 375.387 494.572 374.584L494.287 373.51C494.287 373.51 494.273 373.496 494.273 373.469C494.273 373.455 494.26 373.428 494.26 373.387V373.374V373.387L491.882 364.558ZM488.568 377.155L489.573 374.162L491.04 377.305L488.568 377.155Z" fill="white"/>
<path d="M487.209 389.847C485.755 390.16 483.256 391.058 482.414 393.575C482.672 393.711 482.93 393.833 483.188 393.942C483.242 393.969 483.297 393.983 483.337 394.01C483.568 394.105 483.799 394.187 484.03 394.255C484.112 394.282 484.193 394.309 484.261 394.323C484.478 394.377 484.682 394.432 484.886 394.473C484.968 394.486 485.063 394.513 485.144 394.527C485.348 394.554 485.538 394.581 485.728 394.609C485.81 394.622 485.905 394.622 485.986 394.622C486.177 394.636 486.367 394.649 486.543 394.649C486.625 394.649 486.706 394.649 486.788 394.636C486.964 394.636 487.141 394.622 487.318 394.609C487.386 394.609 487.44 394.595 487.494 394.581C488.065 394.513 488.581 394.404 489.043 394.268C489.124 394.241 489.206 394.228 489.288 394.2C489.396 394.16 489.491 394.132 489.6 394.092C489.681 394.064 489.763 394.037 489.844 393.996C489.94 393.956 490.021 393.928 490.103 393.888C490.184 393.86 490.252 393.82 490.32 393.792C490.388 393.765 490.456 393.724 490.524 393.697C490.592 393.67 490.66 393.629 490.714 393.602C490.768 393.575 490.823 393.547 490.863 393.52C490.918 393.493 490.972 393.466 491.013 393.425C491.04 393.411 491.081 393.384 491.108 393.371C491.149 393.343 491.189 393.316 491.217 393.303C491.23 393.289 491.244 393.289 491.257 393.275C491.285 393.262 491.312 393.235 491.312 393.235L491.801 388.5L488.269 389.67C487.943 389.806 487.576 389.847 487.209 389.847Z" fill="white"/>
<path d="M489.07 394.269C489.152 394.242 489.234 394.228 489.316 394.201C489.234 394.228 489.152 394.242 489.07 394.269Z" fill="white"/>
<path d="M484.03 394.241C484.112 394.269 484.194 394.296 484.262 394.309C484.194 394.296 484.112 394.269 484.03 394.241Z" fill="white"/>
<path d="M487.345 394.609C487.413 394.609 487.467 394.595 487.521 394.582C487.467 394.595 487.399 394.595 487.345 394.609Z" fill="white"/>
<path d="M483.188 393.942C483.242 393.969 483.296 393.982 483.337 394.01C483.283 393.982 483.242 393.955 483.188 393.942Z" fill="white"/>
<path d="M489.614 394.092C489.695 394.065 489.777 394.038 489.859 393.997C489.791 394.038 489.695 394.065 489.614 394.092Z" fill="white"/>
<path d="M484.9 394.473C484.981 394.486 485.077 394.514 485.159 394.527C485.077 394.5 484.981 394.486 484.9 394.473Z" fill="white"/>
<path d="M485.755 394.595C485.851 394.608 485.933 394.608 486.014 394.608C485.919 394.608 485.837 394.608 485.755 394.595Z" fill="white"/>
<path d="M491.135 393.385C491.19 393.357 491.217 393.33 491.244 393.316C491.217 393.33 491.176 393.357 491.135 393.385Z" fill="white"/>
<path d="M490.116 393.902C490.198 393.874 490.266 393.833 490.334 393.806C490.266 393.833 490.198 393.861 490.116 393.902Z" fill="white"/>
<path d="M486.816 394.636C486.734 394.636 486.652 394.649 486.571 394.649C486.652 394.636 486.734 394.636 486.816 394.636Z" fill="white"/>
<path d="M491.339 393.248C491.339 393.248 491.312 393.262 491.285 393.289C491.325 393.262 491.339 393.248 491.339 393.248Z" fill="white"/>
<path d="M490.537 393.697C490.605 393.67 490.673 393.629 490.727 393.602C490.673 393.643 490.605 393.67 490.537 393.697Z" fill="white"/>
<path d="M490.877 393.52C490.931 393.493 490.985 393.466 491.026 393.425C490.985 393.466 490.945 393.493 490.877 393.52Z" fill="white"/>
<path d="M487.209 389.847C487.576 389.847 487.943 389.807 488.296 389.684C488.296 389.684 487.861 389.711 487.209 389.847Z" fill="#EE4266"/>
<path d="M487.073 380.896C486.177 381.617 485.429 382.052 484.818 382.297C484.818 382.297 484.872 389.67 488.296 389.684L491.828 388.514C491.923 388.487 492.004 388.446 492.1 388.405C493.363 387.875 494.232 386.664 494.314 385.263L494.545 381.331C494.558 381.345 491.475 377.346 487.073 380.896ZM488.69 382.202L491.869 382.393C491.869 382.393 490.904 384.202 488.69 382.202Z" fill="#EE4266"/>
<path d="M482.006 367.361L483.188 364.042L491.882 364.559L494.246 373.387C494.11 372.544 493.363 367.851 494.151 363.606C495.02 358.94 489.885 358.628 485.755 359.403C485.755 359.403 482.699 358.832 480.444 360.056C480.457 360.056 480.498 364.409 482.006 367.361Z" fill="#EE4266"/>
<path d="M483.188 364.042L491.882 364.558L494.26 373.401L494.246 373.387L491.882 364.558L483.188 364.042Z" fill="#EE4266"/>
<path d="M480.226 372.367L482.006 367.375L480.226 372.367C479.982 373.088 479.955 373.863 480.158 374.598L481.422 379.155L480.158 374.598C479.941 373.863 479.968 373.088 480.226 372.367Z" fill="#ED8037"/>
<path d="M479.887 391.738C479.601 391.48 479.33 391.194 479.045 390.881C479.33 391.194 479.601 391.466 479.887 391.738Z" fill="#ED8037"/>
<path d="M482.4 393.575C481.925 393.316 481.435 393.003 480.946 392.623C481.435 392.99 481.925 393.316 482.4 393.575Z" fill="#ED8037"/>
<path d="M479.914 391.752C480.091 391.929 480.281 392.092 480.457 392.242C480.539 392.31 480.607 392.351 480.688 392.419C480.43 392.214 480.172 391.997 479.914 391.752Z" fill="#ED8037"/>
<path d="M482.4 393.575C481.925 393.316 481.435 393.004 480.946 392.623C480.865 392.555 480.77 392.5 480.688 392.419C480.607 392.351 480.539 392.31 480.457 392.242L480.145 392.269C481.205 393.235 482.4 393.575 482.4 393.575Z" fill="#ED8037"/>
<path d="M480.145 392.269L480.457 392.242C480.281 392.092 480.091 391.915 479.914 391.752L479.9 391.738C479.615 391.466 479.343 391.194 479.058 390.881C479.343 391.453 479.737 391.902 480.145 392.269Z" fill="#ED8037"/>
<path d="M484.818 382.297C484.818 382.297 484.492 375.509 482.4 373.428C480.308 371.347 482.033 367.429 482.033 367.429C482.02 367.415 482.02 367.388 482.006 367.375L480.226 372.367C479.982 373.088 479.955 373.863 480.158 374.598L481.422 379.155H481.435L482.006 381.182C482.006 381.182 482.02 381.236 482.047 381.318C482.183 381.767 482.821 383.086 484.818 382.297Z" fill="#EDEAE8"/>
<path d="M479.914 391.752C480.172 391.997 480.43 392.214 480.688 392.418C480.783 392.486 480.865 392.554 480.946 392.622C481.436 392.99 481.925 393.316 482.4 393.575C483.242 391.058 485.742 390.16 487.195 389.847C487.073 389.847 486.937 389.861 486.815 389.847C486.136 389.779 485.511 389.521 484.981 389.113C484.75 388.936 484.533 388.745 484.356 388.528C484.057 388.147 483.813 387.711 483.677 387.208L483.528 386.678L482.536 383.154C482.02 389.861 479.031 390.895 479.031 390.895C479.316 391.208 479.588 391.493 479.873 391.752C479.9 391.738 479.9 391.752 479.914 391.752Z" fill="#EDEAE8"/>
<path d="M480.688 392.418C480.784 392.487 480.865 392.555 480.947 392.623C480.865 392.555 480.77 392.5 480.688 392.418Z" fill="#EDEAE8"/>
<path d="M479.913 391.751L479.9 391.738C479.9 391.738 479.9 391.751 479.913 391.751Z" fill="#EDEAE8"/>
<path d="M483.691 387.208C483.826 387.712 484.057 388.147 484.37 388.528C484.56 388.759 484.764 388.949 484.995 389.113C485.525 389.521 486.163 389.779 486.829 389.847C486.951 389.861 487.073 389.847 487.209 389.847C487.861 389.711 488.296 389.684 488.296 389.684C484.886 389.67 484.818 382.297 484.818 382.297C482.808 383.086 482.169 381.767 482.02 381.318L482.536 383.141L483.528 386.664L483.691 387.208Z" fill="#E03D63"/>
<path d="M486.829 389.847C486.149 389.779 485.525 389.521 484.995 389.113C485.525 389.521 486.163 389.779 486.829 389.847Z" fill="#ED8037"/>
<path d="M484.37 388.528C484.56 388.759 484.764 388.95 484.995 389.113C484.764 388.95 484.546 388.759 484.37 388.528Z" fill="#ED8037"/>
<path d="M483.691 387.209L483.541 386.678L482.549 383.141L483.541 386.678L483.691 387.209Z" fill="#ED8037"/>
<path d="M480.226 372.367L482.006 367.374C480.498 364.422 480.457 360.069 480.457 360.069C479.289 360.709 478.338 361.811 478.162 363.742C477.618 369.415 477.469 375.373 481.422 379.155L480.158 374.598C479.941 373.863 479.968 373.088 480.226 372.367Z" fill="#E03D63"/>
<path d="M440.178 383.984C438.276 385.862 436.211 387.671 434.595 389.018C436.225 387.657 438.276 385.848 440.178 383.984Z" fill="#EDEAE8"/>
<path d="M427.734 360.886L427.707 360.968C427.721 360.954 427.734 360.927 427.748 360.913C427.734 360.899 427.734 360.886 427.734 360.886Z" fill="#EDEAE8"/>
<path d="M433.617 374.122C432.082 375.455 430.587 376.748 429.446 377.713C430.587 376.748 432.082 375.469 433.617 374.122Z" fill="#EDEAE8"/>
<path d="M465.12 414.538L464.02 414.592L465.12 414.538Z" fill="#EDEAE8"/>
<path d="M462.715 403.083C461.928 404.376 461.371 405.138 461.371 405.138C461.371 405.138 461.928 404.376 462.715 403.083Z" fill="#EDEAE8"/>
<path d="M476.178 442.166L462.607 441.269L476.178 442.166Z" fill="#EDEAE8"/>
<path d="M429.039 367.429L431.701 366.776C428.59 366.681 427.775 361.131 427.748 360.913C427.734 360.927 427.721 360.954 427.707 360.968L427.517 361.416C427.014 363.389 429.039 367.429 429.039 367.429Z" fill="#EDEAE8"/>
<path d="M485.185 454.001C483.65 452.464 482.21 450.832 480.865 449.104L461.561 448.818C461.411 449.988 461.248 451.226 461.072 452.573L485.185 454.001Z" fill="#F4BA51"/>
<path d="M463.3 436.793C463.109 437.99 462.878 439.459 462.607 441.269L476.178 442.18C475.254 440.616 474.385 439.024 473.57 437.419L463.3 436.793Z" fill="#F4BA51"/>
<path d="M469.263 427.611L464.577 427.488C464.577 427.543 464.577 427.597 464.577 427.652C464.522 429.583 464.414 430.535 464.169 431.964L471.084 432.1C470.418 430.59 469.82 429.093 469.263 427.611Z" fill="#F4BA51"/>
<path d="M466.275 418.714L464.4 418.755C464.468 419.748 464.522 420.809 464.549 421.884H467.239C466.9 420.809 466.574 419.748 466.275 418.714Z" fill="#F4BA51"/>
<path d="M463.449 410.348C463.639 411.572 463.843 413.001 464.02 414.579L465.106 414.524C464.712 412.987 464.373 411.586 464.088 410.293L463.449 410.348Z" fill="#F4BA51"/>
<path d="M462.715 403.083C461.928 404.376 461.371 405.124 461.371 405.124C462.091 405.301 462.498 405.382 462.498 405.382C462.498 405.382 462.648 405.954 462.865 407.015L463.408 406.974C462.919 404.539 462.715 403.083 462.715 403.083Z" fill="#F4BA51"/>
<path d="M459.917 401.179C459.659 401.723 459.401 402.254 459.143 402.744C458.857 403.288 458.558 403.805 458.26 404.267C459.55 404.662 460.623 404.947 461.357 405.124C461.357 405.124 461.914 404.362 462.702 403.07C461.751 402.444 460.827 401.805 459.917 401.179Z" fill="#F4BA51"/>
<path d="M448.995 400.526C448.981 400.526 448.981 400.526 448.995 400.526C448.981 400.526 448.981 400.526 448.995 400.526C450.34 401.206 451.671 401.805 452.921 402.322C453.478 401.043 454.211 399.37 454.999 397.588C453.79 396.663 452.635 395.765 451.535 394.867C450.774 396.921 449.918 398.935 448.995 400.526Z" fill="#F4BA51"/>
<path d="M443.683 387.793C442.447 390.188 440.993 392.582 439.417 394.173C440.735 395.343 442.134 396.391 443.547 397.357C444.756 395.915 446.332 393.901 447.772 391.698C446.278 390.337 444.933 389.045 443.683 387.793Z" fill="#F4BA51"/>
<path d="M436.51 379.182C434.934 380.91 433.141 382.61 431.402 383.685C432.299 385.63 433.386 387.399 434.608 389.017C436.225 387.657 438.276 385.848 440.192 383.984C438.725 382.27 437.515 380.665 436.51 379.182Z" fill="#F4BA51"/>
<path d="M432.027 369.633L428.821 371.075C428.78 373.455 429.011 375.659 429.46 377.713C430.601 376.747 432.095 375.455 433.63 374.122C432.774 372.313 432.285 370.803 432.027 369.633Z" fill="#F4BA51"/>
<path d="M490.198 458.354C488.418 457.035 486.761 455.565 485.185 454.001L461.072 452.559C460.895 454.015 460.691 455.565 460.488 457.239C460.515 457.13 460.528 457.075 460.528 457.075C472.021 457.347 482.196 457.851 490.198 458.354Z" fill="#ED8037"/>
<path d="M461.561 448.818L480.865 449.104C479.153 446.9 477.591 444.574 476.178 442.166L462.607 441.255C462.308 443.295 461.955 445.771 461.561 448.818Z" fill="#ED8037"/>
<path d="M471.07 432.1L464.156 431.964C463.965 433.066 463.694 434.453 463.3 436.793L473.556 437.405C472.673 435.65 471.845 433.868 471.07 432.1Z" fill="#ED8037"/>
<path d="M467.253 421.883H464.563C464.631 423.665 464.631 425.543 464.577 427.488L469.263 427.61C468.516 425.651 467.851 423.733 467.253 421.883Z" fill="#ED8037"/>
<path d="M464.4 418.755L466.275 418.714C465.84 417.258 465.46 415.843 465.12 414.524L464.033 414.578C464.169 415.871 464.291 417.272 464.4 418.755Z" fill="#ED8037"/>
<path d="M463.395 406.974L462.851 407.015C463.014 407.845 463.232 408.974 463.449 410.348L464.088 410.307C463.816 409.069 463.585 407.94 463.395 406.974Z" fill="#ED8037"/>
<path d="M459.917 401.179C458.164 399.955 456.521 398.758 454.972 397.588C454.198 399.384 453.464 401.043 452.894 402.322C454.891 403.165 456.738 403.805 458.246 404.267C458.545 403.791 458.83 403.288 459.129 402.744C459.414 402.24 459.672 401.723 459.917 401.179Z" fill="#ED8037"/>
<path d="M448.981 400.526C449.905 398.948 450.761 396.921 451.522 394.867C450.19 393.779 448.94 392.718 447.786 391.698C446.332 393.901 444.77 395.915 443.561 397.357C445.354 398.567 447.201 399.615 448.981 400.526Z" fill="#ED8037"/>
<path d="M440.178 383.984C438.276 385.862 436.211 387.657 434.595 389.018C436.035 390.936 437.678 392.65 439.404 394.173C440.98 392.582 442.447 390.188 443.669 387.793C442.379 386.46 441.224 385.195 440.178 383.984Z" fill="#ED8037"/>
<path d="M436.51 379.183C435.247 377.305 434.309 375.618 433.617 374.122C432.082 375.455 430.587 376.748 429.446 377.713C429.881 379.849 430.56 381.835 431.402 383.672C433.141 382.624 434.934 380.91 436.51 379.183Z" fill="#ED8037"/>
<path d="M428.821 371.075L432.027 369.633C431.606 367.783 431.701 366.776 431.701 366.776L429.052 367.429C428.903 368.68 428.821 369.891 428.821 371.075Z" fill="#ED8037"/>
<path d="M470.989 544.845C470.568 541.186 470.445 536.873 470.405 534.193C470.405 539.24 470.214 543.076 470.106 544.872L470.989 544.845Z" fill="#EDEAE8"/>
<path d="M460.488 457.239C460.148 458.912 457.608 473.25 465.011 492.064C469.195 505.109 470.255 520.59 470.391 531.609V531.595C474.915 474.161 490.279 458.409 490.279 458.409C482.278 457.987 472.075 457.524 460.488 457.239Z" fill="white"/>
<path d="M490.198 458.354C482.196 457.851 472.035 457.348 460.528 457.076C460.528 457.076 460.515 457.13 460.488 457.239C472.062 457.511 482.264 457.974 490.266 458.422C490.252 458.395 490.225 458.382 490.198 458.354Z" fill="#EDEAE8"/>
<path d="M471.043 545.403C471.016 545.212 471.002 545.022 470.975 544.832L470.092 544.859L469.549 544.872L469.345 544.886H469.331C468.883 545.226 468.611 546.001 468.462 546.818C468.435 546.94 468.421 547.049 468.394 547.171C468.272 547.892 468.244 548.613 468.244 549.117L471.532 549.021L471.681 548.967C471.423 547.987 471.22 546.75 471.043 545.403Z" fill="#ED8037"/>
<path d="M520.872 334.005C520.207 333.597 519.65 333.72 519.188 334.155C517.748 335.488 517.245 339.746 517.245 339.746H520.859C520.872 339.733 523.63 335.679 520.872 334.005Z" fill="white"/>
<path d="M520.818 359.199C518.169 358.233 515.792 356.859 514.066 355.703C513.577 357.499 513.061 359.226 512.518 360.886C514.841 362.478 517.789 363.661 520.275 364.45C520.506 362.655 520.682 360.9 520.818 359.199Z" fill="#FFC857"/>
<path d="M521.226 350.098C519.229 349.704 517.272 349.133 515.765 348.602C515.506 349.894 515.221 351.146 514.936 352.384C516.851 353.01 519.079 353.336 521.158 353.499C521.199 352.316 521.212 351.187 521.226 350.098Z" fill="#FFC857"/>
<path d="M521.09 343.147C519.623 342.997 518.142 342.739 516.851 342.467C516.661 343.691 516.471 344.888 516.254 346.058C517.816 346.099 519.541 345.936 521.185 345.718C521.158 344.752 521.131 343.895 521.09 343.147Z" fill="#FFC857"/>
<path d="M517.191 379.142C517.653 377.645 518.06 376.149 518.427 374.639C515.574 371.809 512.789 368.232 510.86 365.565C509.991 367.796 509.094 369.864 508.171 371.782C509.013 372.626 509.95 373.496 510.955 374.34C512.966 376.04 515.194 377.713 517.191 379.142Z" fill="#FFC857"/>
<path d="M515.262 384.515C512.667 382.053 509.909 378.992 507.709 376.421C507.288 375.931 506.88 375.455 506.513 375.006C505.521 376.829 504.53 378.502 503.538 380.012C506.35 382.856 510.412 385.712 513.768 387.848C514.311 386.773 514.8 385.658 515.262 384.515Z" fill="#FFC857"/>
<path d="M508.673 395.901C509.624 394.731 510.507 393.507 511.322 392.228C507.682 389.045 504.204 384.801 502.139 382.094C501.147 383.495 500.183 384.733 499.259 385.848C499.585 386.352 499.965 386.882 500.373 387.413C502.614 390.283 505.97 393.48 508.673 395.901Z" fill="#FFC857"/>
<path d="M501.799 402.322C502.709 401.696 503.565 401.016 504.394 400.309C501.365 396.241 498.512 390.895 497.14 388.202C495.971 389.426 494.925 390.405 494.056 391.167C494.3 392.786 495.292 394.595 496.515 396.337L496.555 396.391L499.245 399.683L499.259 399.697C500.183 400.73 501.079 401.615 501.799 402.322Z" fill="#FFC857"/>
<path d="M521.158 353.499C519.079 353.336 516.851 353.01 514.936 352.384C514.664 353.526 514.379 354.628 514.08 355.703C515.805 356.859 518.183 358.233 520.832 359.199C520.981 357.213 521.09 355.295 521.158 353.499Z" fill="#FE8A3A"/>
<path d="M521.226 350.098C521.239 348.479 521.226 346.997 521.185 345.704C519.541 345.922 517.816 346.072 516.254 346.044C516.104 346.915 515.928 347.758 515.751 348.602C517.272 349.132 519.229 349.717 521.226 350.098Z" fill="#FE8A3A"/>
<path d="M521.226 350.098C519.229 349.704 517.272 349.133 515.765 348.602C517.272 349.133 519.229 349.718 521.226 350.098Z" fill="#FE8A3A"/>
<path d="M518.427 374.625C519.256 371.197 519.854 367.769 520.275 364.45C517.789 363.647 514.841 362.477 512.518 360.886C511.988 362.518 511.431 364.069 510.86 365.552C512.789 368.218 515.574 371.796 518.427 374.625Z" fill="#FE8A3A"/>
<path d="M518.427 374.625C515.574 371.796 512.789 368.218 510.86 365.552C512.789 368.218 515.574 371.796 518.427 374.625Z" fill="#FE8A3A"/>
<path d="M520.872 339.733H517.259C517.137 340.658 517.014 341.556 516.865 342.453C518.155 342.725 519.636 342.984 521.103 343.134C520.995 340.998 520.872 339.733 520.872 339.733Z" fill="#FE8A3A"/>
<path d="M515.262 384.515C515.982 382.76 516.62 380.951 517.191 379.128C515.194 377.713 512.966 376.04 510.942 374.326C509.95 373.483 508.999 372.612 508.157 371.769C507.614 372.911 507.057 373.986 506.5 375.006C506.88 375.455 507.274 375.931 507.695 376.421C509.909 378.992 512.681 382.066 515.262 384.515Z" fill="#FE8A3A"/>
<path d="M507.709 376.421C509.909 378.992 512.667 382.053 515.262 384.515C512.681 382.066 509.909 378.992 507.709 376.421Z" fill="#FE8A3A"/>
<path d="M511.322 392.228C512.205 390.827 513.034 389.372 513.768 387.875C510.412 385.739 506.35 382.883 503.538 380.04C503.063 380.761 502.601 381.441 502.139 382.094C504.204 384.801 507.682 389.031 511.322 392.228Z" fill="#FE8A3A"/>
<path d="M508.673 395.901C505.956 393.48 502.601 390.283 500.373 387.399C499.952 386.868 499.585 386.338 499.259 385.834C498.539 386.705 497.819 387.494 497.153 388.201V388.215C498.525 390.909 501.378 396.255 504.394 400.322C505.97 398.975 507.383 397.493 508.673 395.901Z" fill="#FE8A3A"/>
<path d="M500.373 387.399C502.614 390.283 505.97 393.48 508.673 395.901C505.97 393.48 502.614 390.283 500.373 387.399Z" fill="#FE8A3A"/>
<path d="M506.35 449.472L480.865 449.091C482.21 450.818 483.65 452.451 485.185 453.988L506.241 455.24C506.323 453.417 506.364 451.485 506.35 449.472Z" fill="#FFC857"/>
<path d="M506.011 439.351L473.556 437.405C474.371 439.01 475.241 440.602 476.165 442.166L506.228 444.18C506.187 442.588 506.106 440.969 506.011 439.351Z" fill="#FFC857"/>
<path d="M505.168 428.577L469.263 427.611C469.82 429.094 470.432 430.59 471.084 432.1L505.549 432.767C505.426 431.365 505.304 429.964 505.168 428.577Z" fill="#FFC857"/>
<path d="M504.014 418.007L466.275 418.714C466.574 419.734 466.9 420.796 467.253 421.884H504.462C504.312 420.551 504.163 419.258 504.014 418.007Z" fill="#FFC857"/>
<path d="M502.601 407.546L464.088 410.307C464.373 411.6 464.712 413.001 465.106 414.538L503.294 412.525C503.049 410.647 502.805 408.974 502.601 407.546Z" fill="#FFC857"/>
<path d="M501.799 402.322C501.079 401.614 500.183 400.73 499.259 399.696L462.729 403.07C462.729 403.084 462.933 404.526 463.408 406.974L502.071 403.954C501.894 402.907 501.799 402.322 501.799 402.322Z" fill="#FFC857"/>
<path d="M501.799 402.322C501.079 401.614 500.183 400.73 499.259 399.696C500.183 400.73 501.079 401.614 501.799 402.322Z" fill="#FFC857"/>
<path d="M506.242 455.253L485.185 454.001C486.761 455.579 488.418 457.049 490.198 458.355C492.792 458.518 495.156 458.681 497.262 458.831C501.052 459.076 503.986 459.28 505.943 459.429C506.065 458.123 506.174 456.722 506.242 455.253Z" fill="#FE8A3A"/>
<path d="M506.242 455.253L485.185 454.001L506.242 455.253Z" fill="#FE8A3A"/>
<path d="M506.241 444.18L476.178 442.167C477.605 444.561 479.153 446.901 480.865 449.104L506.35 449.485C506.35 447.758 506.309 445.975 506.241 444.18Z" fill="#FE8A3A"/>
<path d="M505.549 432.78L471.084 432.113C471.844 433.882 472.673 435.65 473.57 437.419L506.024 439.364C505.875 437.16 505.725 434.956 505.549 432.78Z" fill="#FE8A3A"/>
<path d="M504.462 421.884H467.253C467.851 423.734 468.516 425.652 469.263 427.611L505.168 428.577C504.951 426.278 504.706 424.033 504.462 421.884Z" fill="#FE8A3A"/>
<path d="M503.307 412.524L465.12 414.538C465.46 415.857 465.854 417.258 466.275 418.728L504.014 418.02C503.769 416.048 503.524 414.211 503.307 412.524Z" fill="#FE8A3A"/>
<path d="M502.057 403.955L463.395 406.975C463.585 407.94 463.816 409.056 464.101 410.307L502.614 407.546C502.383 406.063 502.193 404.839 502.057 403.955Z" fill="#FE8A3A"/>
<path d="M502.601 407.546L464.101 410.307L502.601 407.546Z" fill="#FE8A3A"/>
<path d="M502.057 403.955L463.395 406.975L502.057 403.955Z" fill="#FE8A3A"/>
<path d="M506.445 421.462C506.418 421.245 506.391 421.04 506.364 420.836C506.391 421.054 506.418 421.258 506.445 421.462Z" fill="#ED8037"/>
<path d="M505.426 414.306C505.426 414.293 505.426 414.279 505.413 414.266C505.413 414.279 505.426 414.293 505.426 414.306Z" fill="#ED8037"/>
<path d="M505.698 401.968C505.263 401.451 504.829 400.894 504.394 400.309C504.829 400.894 505.263 401.451 505.698 401.968Z" fill="#ED8037"/>
<path d="M504.951 411.423C505.005 411.749 505.06 412.076 505.128 412.43L503.307 412.525L505.128 412.43C505.06 412.089 505.005 411.749 504.951 411.423Z" fill="#ED8037"/>
<path d="M508.66 455.593C508.673 456.926 508.673 458.286 508.646 459.66C508.66 458.273 508.66 456.926 508.66 455.593Z" fill="#ED8037"/>
<path d="M508.551 448.751C508.51 447.241 508.456 445.771 508.388 444.316C508.456 445.771 508.497 447.254 508.551 448.751Z" fill="#ED8037"/>
<path d="M508.646 455.008C508.632 453.335 508.619 451.689 508.578 450.083C508.619 451.702 508.646 453.335 508.646 455.008Z" fill="#ED8037"/>
<path d="M505.223 413.096C505.195 412.933 505.168 412.756 505.141 412.593C505.168 412.756 505.195 412.919 505.223 413.096Z" fill="#ED8037"/>
<path d="M504.15 407.18C504.122 407.071 504.109 406.961 504.082 406.866C504.109 406.961 504.136 407.071 504.15 407.18Z" fill="#ED8037"/>
<path d="M508.374 444.044C508.32 442.683 508.239 441.337 508.171 440.031C508.239 441.337 508.32 442.67 508.374 444.044Z" fill="#ED8037"/>
<path d="M508.388 444.316L506.242 444.18L508.388 444.316Z" fill="#ED8037"/>
<path d="M507.831 435.106C507.79 434.535 507.736 433.963 507.695 433.406C507.749 433.963 507.79 434.535 507.831 435.106Z" fill="#ED8037"/>
<path d="M507.22 428.182C507.138 427.352 507.043 426.536 506.961 425.747C507.043 426.55 507.138 427.352 507.22 428.182Z" fill="#ED8037"/>
<path d="M507.627 432.617C507.519 431.365 507.41 430.155 507.288 428.971C507.41 430.155 507.532 431.365 507.627 432.617Z" fill="#ED8037"/>
<path d="M508.646 459.661C508.646 459.661 507.695 459.579 505.929 459.443C505.929 459.47 505.929 459.511 505.915 459.538C507.736 459.701 508.728 459.797 508.741 459.797C508.714 459.756 508.687 459.701 508.646 459.661Z" fill="#ED8037"/>
<path d="M508.021 437.637C508.008 437.378 507.98 437.12 507.967 436.861C507.98 437.106 507.994 437.378 508.021 437.637Z" fill="#ED8037"/>
<path d="M506.785 424.237C506.717 423.679 506.649 423.135 506.595 422.604C506.663 423.135 506.717 423.679 506.785 424.237Z" fill="#ED8037"/>
<path d="M520.818 359.199C520.682 360.9 520.506 362.655 520.275 364.45C521.049 364.695 521.796 364.913 522.448 365.09C522.543 363.267 522.598 361.485 522.611 359.771C522 359.607 521.416 359.417 520.818 359.199Z" fill="#F4BA51"/>
<path d="M521.158 353.499C521.592 353.54 522.041 353.567 522.462 353.595C522.408 352.438 522.34 351.336 522.244 350.303C521.905 350.248 521.565 350.18 521.226 350.112C521.212 351.187 521.199 352.316 521.158 353.499Z" fill="#F4BA51"/>
<path d="M521.783 345.636C521.66 344.725 521.552 343.895 521.457 343.188C521.334 343.174 521.226 343.161 521.103 343.147C521.144 343.895 521.171 344.752 521.199 345.718C521.389 345.691 521.579 345.664 521.783 345.636Z" fill="#F4BA51"/>
<path d="M517.191 379.142C518.155 379.822 519.066 380.448 519.867 380.992C520.261 379.618 520.601 378.244 520.9 376.87C520.085 376.217 519.256 375.455 518.427 374.639C518.06 376.136 517.653 377.646 517.191 379.142Z" fill="#F4BA51"/>
<path d="M517.829 386.787C517.612 386.61 517.368 386.406 517.137 386.202C516.525 385.685 515.9 385.127 515.262 384.515C514.8 385.644 514.297 386.773 513.768 387.862C514.474 388.31 515.126 388.719 515.737 389.086C516.009 389.249 516.281 389.426 516.539 389.576C517.014 388.664 517.435 387.739 517.829 386.787Z" fill="#F4BA51"/>
<path d="M511.322 392.228C510.507 393.507 509.624 394.731 508.673 395.901C509.244 396.404 509.774 396.867 510.263 397.289C510.466 397.465 510.697 397.669 510.888 397.833C511.947 396.69 512.912 395.466 513.781 394.201C513.537 394.024 513.292 393.82 513.034 393.629C512.477 393.194 511.893 392.718 511.322 392.228Z" fill="#F4BA51"/>
<path d="M504.394 400.309C503.565 401.016 502.709 401.696 501.799 402.322C502.777 403.261 503.443 403.846 503.443 403.846C504.312 403.342 505.128 402.812 505.929 402.227C505.861 402.145 505.78 402.05 505.712 401.968C505.263 401.451 504.829 400.894 504.394 400.309Z" fill="#F4BA51"/>
<path d="M522.462 353.595C522.041 353.567 521.592 353.54 521.158 353.499C521.09 355.295 520.995 357.199 520.832 359.199C521.416 359.417 522.014 359.607 522.625 359.784C522.625 357.608 522.557 355.526 522.462 353.595Z" fill="#ED8037"/>
<path d="M521.783 345.636C521.592 345.664 521.389 345.691 521.198 345.718C521.226 347.01 521.253 348.493 521.239 350.112C521.579 350.18 521.918 350.248 522.258 350.302C522.109 348.575 521.946 346.997 521.783 345.636Z" fill="#ED8037"/>
<path d="M521.226 350.098C521.565 350.166 521.905 350.234 522.245 350.289C521.905 350.248 521.565 350.166 521.226 350.098Z" fill="#ED8037"/>
<path d="M522.448 365.103C521.796 364.926 521.063 364.708 520.275 364.463C519.854 367.769 519.256 371.211 518.427 374.639C519.256 375.455 520.085 376.217 520.9 376.87C521.755 372.911 522.217 368.925 522.448 365.103Z" fill="#ED8037"/>
<path d="M518.427 374.625C519.256 375.442 520.085 376.203 520.9 376.856C520.085 376.203 519.256 375.442 518.427 374.625Z" fill="#ED8037"/>
<path d="M520.872 339.733C520.872 339.733 520.995 340.984 521.103 343.133C521.226 343.147 521.334 343.161 521.457 343.174C521.131 340.998 520.872 339.733 520.872 339.733Z" fill="#ED8037"/>
<path d="M518.712 382.366L518.984 382.461V383.794C519.31 382.856 519.609 381.917 519.881 380.965C519.079 380.421 518.169 379.795 517.205 379.115C516.648 380.938 516.009 382.733 515.275 384.502C515.914 385.114 516.552 385.672 517.15 386.189C517.707 384.937 518.251 383.658 518.712 382.366Z" fill="#ED8037"/>
<path d="M518.712 382.366C518.251 383.658 517.721 384.937 517.15 386.202C517.381 386.392 517.612 386.61 517.843 386.787C518.264 385.807 518.631 384.814 518.984 383.821V382.488L518.712 382.366Z" fill="#ED8037"/>
<path d="M517.15 386.202C516.539 385.685 515.914 385.127 515.275 384.515C515.914 385.127 516.539 385.685 517.15 386.202Z" fill="#ED8037"/>
<path d="M517.15 386.202C517.381 386.393 517.612 386.61 517.843 386.787C517.612 386.61 517.381 386.393 517.15 386.202Z" fill="#ED8037"/>
<path d="M515.737 389.099C515.113 388.718 514.46 388.31 513.768 387.875C513.034 389.385 512.205 390.827 511.322 392.228C511.893 392.731 512.477 393.194 513.048 393.629C514.039 392.16 514.936 390.636 515.737 389.099Z" fill="#ED8037"/>
<path d="M513.048 393.63C513.292 393.82 513.537 394.024 513.795 394.201C514.827 392.732 515.737 391.181 516.539 389.589C516.294 389.44 516.009 389.263 515.737 389.1C514.936 390.637 514.039 392.16 513.048 393.63Z" fill="#ED8037"/>
<path d="M510.263 397.289C509.774 396.867 509.244 396.405 508.673 395.901C507.383 397.493 505.956 398.976 504.394 400.309C504.829 400.894 505.263 401.438 505.698 401.969C507.383 400.486 508.891 398.921 510.263 397.289Z" fill="#ED8037"/>
<path d="M510.901 397.833C510.711 397.67 510.48 397.465 510.263 397.289C508.891 398.921 507.383 400.485 505.698 401.968C505.766 402.05 505.848 402.145 505.916 402.24C507.777 400.921 509.42 399.438 510.901 397.833Z" fill="#ED8037"/>
<path d="M508.673 395.901C509.244 396.405 509.774 396.867 510.263 397.289C509.774 396.867 509.244 396.405 508.673 395.901Z" fill="#ED8037"/>
<path d="M510.901 397.833C510.711 397.67 510.48 397.465 510.276 397.289C510.48 397.465 510.697 397.67 510.901 397.833Z" fill="#ED8037"/>
<path d="M508.646 455.008C508.633 453.335 508.605 451.703 508.578 450.084C508.578 449.893 508.565 449.703 508.565 449.513L506.35 449.485C506.364 451.485 506.323 453.43 506.242 455.267L508.66 455.416C508.646 455.267 508.646 455.144 508.646 455.008Z" fill="#F4BA51"/>
<path d="M508.564 449.512C508.564 449.703 508.578 449.893 508.578 450.083C508.578 449.893 508.578 449.703 508.564 449.512Z" fill="#ED8037"/>
<path d="M508.374 444.044C508.32 442.684 508.239 441.337 508.171 440.031C508.157 439.854 508.157 439.664 508.143 439.487L506.011 439.364C506.106 440.983 506.187 442.602 506.241 444.18L508.388 444.33C508.388 444.221 508.374 444.125 508.374 444.044Z" fill="#F4BA51"/>
<path d="M508.374 444.044C508.374 444.139 508.388 444.235 508.388 444.331C508.388 444.221 508.374 444.139 508.374 444.044Z" fill="#ED8037"/>
<path d="M508.13 439.487C508.143 439.664 508.157 439.854 508.157 440.031C508.157 439.854 508.143 439.664 508.13 439.487Z" fill="#ED8037"/>
<path d="M507.627 432.617C507.519 431.365 507.41 430.155 507.288 428.971C507.274 428.862 507.26 428.754 507.26 428.631L505.168 428.577C505.304 429.964 505.426 431.365 505.549 432.78L507.654 432.821C507.641 432.753 507.641 432.685 507.627 432.617Z" fill="#F4BA51"/>
<path d="M507.627 432.617C507.627 432.685 507.641 432.753 507.641 432.821C507.641 432.753 507.641 432.685 507.627 432.617Z" fill="#ED8037"/>
<path d="M507.26 428.631C507.274 428.74 507.288 428.849 507.288 428.972C507.288 428.863 507.274 428.74 507.26 428.631Z" fill="#ED8037"/>
<path d="M506.445 421.462C506.418 421.244 506.391 421.04 506.364 420.836C506.228 419.843 506.106 418.891 505.97 417.966L504 418.007C504.149 419.258 504.312 420.55 504.462 421.884H506.5C506.486 421.748 506.459 421.598 506.445 421.462Z" fill="#F4BA51"/>
<path d="M506.445 421.462C506.459 421.598 506.486 421.748 506.5 421.884C506.486 421.748 506.472 421.612 506.445 421.462Z" fill="#ED8037"/>
<path d="M505.97 417.966C506.106 418.877 506.228 419.843 506.364 420.836C506.242 419.857 506.106 418.891 505.97 417.966Z" fill="#ED8037"/>
<path d="M504.951 411.423C504.679 409.858 504.435 408.525 504.217 407.423L502.614 407.532C502.818 408.961 503.063 410.647 503.321 412.511L505.141 412.416C505.06 412.076 505.005 411.749 504.951 411.423Z" fill="#F4BA51"/>
<path d="M504.204 407.423C504.421 408.525 504.666 409.858 504.937 411.423C504.679 409.858 504.421 408.512 504.204 407.423Z" fill="#ED8037"/>
<path d="M501.799 402.322C501.799 402.322 501.894 402.907 502.057 403.954L503.443 403.845C503.443 403.845 502.777 403.26 501.799 402.322Z" fill="#ED8037"/>
<path d="M503.443 403.845C503.443 403.845 502.777 403.26 501.799 402.322C502.777 403.26 503.443 403.845 503.443 403.845Z" fill="#ED8037"/>
<path d="M508.66 455.593C508.66 455.525 508.66 455.471 508.66 455.403L506.241 455.253C506.174 456.708 506.078 458.11 505.943 459.429C507.709 459.565 508.66 459.647 508.66 459.647C508.66 458.273 508.66 456.926 508.66 455.593Z" fill="#ED8037"/>
<path d="M508.646 455.402C508.646 455.47 508.646 455.524 508.646 455.592C508.66 455.524 508.66 455.456 508.646 455.402Z" fill="#ED8037"/>
<path d="M508.646 455.403L506.242 455.253L508.646 455.403Z" fill="#ED8037"/>
<path d="M508.551 448.75C508.51 447.254 508.469 445.758 508.388 444.316C508.388 444.316 508.388 444.316 508.388 444.302L506.242 444.152C506.309 445.948 506.35 447.73 506.35 449.458L508.565 449.485C508.565 449.254 508.551 449.009 508.551 448.75Z" fill="#ED8037"/>
<path d="M508.551 448.75C508.565 448.995 508.565 449.254 508.565 449.499H508.578C508.565 449.254 508.551 449.009 508.551 448.75Z" fill="#ED8037"/>
<path d="M508.021 437.637C508.008 437.378 507.994 437.12 507.967 436.861C507.926 436.263 507.885 435.691 507.831 435.106C507.79 434.535 507.736 433.964 507.695 433.406C507.682 433.216 507.668 433.012 507.641 432.821L505.535 432.78C505.712 434.957 505.875 437.174 505.997 439.364L508.13 439.487C508.103 438.861 508.062 438.249 508.021 437.637Z" fill="#ED8037"/>
<path d="M507.967 436.848C507.926 436.263 507.885 435.678 507.831 435.093C507.872 435.678 507.926 436.263 507.967 436.848Z" fill="#ED8037"/>
<path d="M508.021 437.637C508.062 438.249 508.103 438.861 508.143 439.487C508.103 438.847 508.062 438.249 508.021 437.637Z" fill="#ED8037"/>
<path d="M507.654 432.821C507.668 433.011 507.682 433.215 507.709 433.406C507.682 433.215 507.668 433.011 507.654 432.821Z" fill="#ED8037"/>
<path d="M507.22 428.182C507.138 427.352 507.043 426.536 506.961 425.747C506.907 425.23 506.853 424.727 506.785 424.237C506.717 423.679 506.649 423.135 506.595 422.605C506.568 422.36 506.54 422.129 506.5 421.884H504.462C504.706 424.033 504.937 426.278 505.168 428.577L507.26 428.631C507.247 428.481 507.233 428.332 507.22 428.182Z" fill="#ED8037"/>
<path d="M506.5 421.884C506.527 422.129 506.554 422.36 506.581 422.605C506.568 422.374 506.527 422.115 506.5 421.884Z" fill="#ED8037"/>
<path d="M506.961 425.747C506.907 425.23 506.853 424.727 506.785 424.237C506.839 424.741 506.907 425.23 506.961 425.747Z" fill="#ED8037"/>
<path d="M507.22 428.182C507.233 428.332 507.247 428.481 507.26 428.631C507.247 428.481 507.233 428.345 507.22 428.182Z" fill="#ED8037"/>
<path d="M505.426 414.306C505.426 414.293 505.426 414.279 505.413 414.266C505.345 413.858 505.291 413.477 505.223 413.096C505.195 412.933 505.168 412.756 505.141 412.592C505.128 412.538 505.128 412.484 505.114 412.429L503.294 412.524C503.525 414.211 503.756 416.048 504 418.007L505.97 417.966C505.793 416.673 505.603 415.449 505.426 414.306Z" fill="#ED8037"/>
<path d="M505.114 412.429C505.128 412.483 505.127 412.537 505.141 412.592C505.127 412.537 505.128 412.483 505.114 412.429Z" fill="#ED8037"/>
<path d="M505.983 417.966C505.793 416.66 505.603 415.449 505.426 414.307C505.603 415.449 505.793 416.674 505.983 417.966Z" fill="#ED8037"/>
<path d="M505.413 414.266C505.345 413.871 505.291 413.477 505.223 413.096C505.291 413.477 505.358 413.858 505.413 414.266Z" fill="#ED8037"/>
<path d="M504.149 407.179C504.122 407.07 504.109 406.961 504.082 406.866C504.027 406.621 503.986 406.39 503.946 406.172C503.688 404.92 503.511 404.159 503.457 403.927V403.914C503.457 403.887 503.457 403.887 503.443 403.873C503.443 403.859 503.443 403.846 503.443 403.846L502.057 403.955C502.193 404.839 502.383 406.063 502.601 407.546L504.204 407.437C504.19 407.342 504.177 407.26 504.149 407.179Z" fill="#ED8037"/>
<path d="M503.946 406.172C503.687 404.92 503.511 404.145 503.457 403.927C503.511 404.145 503.687 404.907 503.946 406.172Z" fill="#ED8037"/>
<path d="M504.095 406.852C504.041 406.607 504 406.376 503.959 406.158C504 406.376 504.041 406.621 504.095 406.852Z" fill="#ED8037"/>
<path d="M503.457 403.913C503.457 403.886 503.456 403.886 503.443 403.873C503.456 403.886 503.457 403.886 503.457 403.913Z" fill="#ED8037"/>
<path d="M504.149 407.178C504.163 407.26 504.177 407.342 504.204 407.438C504.19 407.342 504.177 407.26 504.149 407.178Z" fill="#ED8037"/>
<path d="M504.204 407.423L502.601 407.546L504.204 407.423Z" fill="#ED8037"/>
<path d="M503.443 403.846L502.057 403.955L503.443 403.846Z" fill="#ED8037"/>
<path d="M510.874 462.585C510.181 461.647 509.488 460.722 508.755 459.797C508.741 459.797 507.749 459.701 505.929 459.538C505.929 459.538 516.661 473.223 521.755 481.344C521.022 479.753 520.248 478.148 519.419 476.556C517.123 472.189 514.175 467.129 510.874 462.585Z" fill="#EDEAE8"/>
<path d="M508.755 459.796C509.488 460.721 510.181 461.66 510.874 462.585C510.181 461.633 509.475 460.694 508.755 459.796Z" fill="#ED8037"/>
<path d="M244.651 558.122C253.644 552.844 289.345 544.247 289.345 544.247L284.685 521.992C284.685 521.992 247.979 536.058 237.057 545.254C227.384 553.402 232.886 606.129 233.62 612.672C234.285 612.21 234.774 611.992 234.788 611.978C234.801 611.992 235.657 563.401 244.651 558.122Z" fill="#FFC857"/>
<path d="M233.62 612.686C233.511 612.754 233.416 612.836 233.307 612.917C231.976 613.965 230.237 615.896 230.305 618.93L237.532 615.502L234.801 612.006C234.788 612.006 234.285 612.224 233.62 612.686Z" fill="#FAFAFA"/>
<path d="M239.298 612.033C238.741 611.353 238.116 610.781 237.505 610.7L237.491 610.713L237.057 610.931L234.801 612.006L237.532 615.502L240.589 614.046C240.317 613.502 239.855 612.713 239.298 612.033Z" fill="#EFEDED"/>
<path d="M248.835 561.075C257.244 559.333 290.486 549.688 290.486 549.688L289.345 544.247C289.345 544.247 253.644 552.844 244.651 558.123C235.657 563.401 234.801 611.992 234.801 611.992L237.057 610.917C238.66 601.463 245.574 561.755 248.835 561.075Z" fill="#F4BA51"/>
<path d="M306.204 549.933C303.011 550.518 299.316 550.994 294.983 551.321C299.316 551.008 303.011 550.532 306.204 549.933Z" fill="#FFC857"/>
<path d="M299.384 523.093C301.435 531.554 303.5 538.057 305.226 539.553C311.149 544.709 324.924 536.261 324.924 536.261C324.652 532.588 323.769 527.174 322.805 521.978C321.731 522.209 320.685 522.413 319.666 522.59C310.646 524.181 303.691 523.746 299.384 523.093Z" fill="#FFC857"/>
<path d="M307.929 549.593C307.44 549.702 306.937 549.797 306.421 549.892C306.937 549.797 307.44 549.688 307.929 549.593Z" fill="#FFC857"/>
<path d="M291.831 506.252C292.266 497.029 285.106 460.327 289.345 469.999C289.345 469.999 294.358 502.416 299.371 523.093C303.677 523.746 310.632 524.168 319.653 522.604C320.672 522.427 321.718 522.223 322.791 521.991C321.324 514.006 319.653 506.511 319.653 506.511C316.936 508.075 313.811 508.769 310.537 508.769C310.537 508.769 310.537 508.755 310.524 508.742C310.13 507.572 297.564 469.958 290.486 458.3C288.598 455.185 287.239 452.206 286.248 449.499C283.449 451.92 281.343 450.886 280.732 450.492C280.61 450.424 280.542 450.369 280.542 450.369C279.102 449.363 277.771 449.322 276.602 449.798C275.76 450.138 275.013 450.736 274.347 451.471C272.024 453.988 271.195 457.525 271.902 460.871L284.685 521.991L290.486 549.688L291.247 553.347H294.969L294.983 551.307C294.955 551.116 291.396 515.462 291.831 506.252Z" fill="#EE4266"/>
<path d="M319.666 522.603C320.685 522.427 321.731 522.222 322.805 521.991C321.731 522.222 320.685 522.427 319.666 522.603Z" fill="#EE4266"/>
<path d="M306.204 549.933C306.286 549.919 306.354 549.906 306.422 549.892C306.354 549.906 306.272 549.919 306.204 549.933Z" fill="#F4BA51"/>
<path d="M294.439 522.005C294.684 522.087 296.395 522.644 299.384 523.093C296.395 522.644 294.67 522.087 294.439 522.005Z" fill="#F4BA51"/>
<path d="M307.929 549.593C318.919 547.253 322.546 544.179 323.946 541.24C325.087 538.846 324.897 536.289 324.897 536.289C324.897 536.289 311.135 544.736 305.198 539.581C303.473 538.084 301.422 531.582 299.357 523.12C296.382 522.672 294.657 522.114 294.412 522.032C294.697 529.623 294.833 536.533 294.888 541.907C294.888 541.92 294.888 541.934 294.888 541.948C294.888 542.478 294.901 542.982 294.901 543.471C294.901 543.621 294.901 543.757 294.901 543.907C294.901 544.287 294.915 544.655 294.915 545.022C294.915 545.199 294.915 545.362 294.915 545.525C294.915 545.906 294.915 546.26 294.928 546.614C294.928 546.709 294.928 546.79 294.928 546.886C294.942 548.382 294.942 549.661 294.942 550.681C294.942 550.695 294.942 550.695 294.942 550.695V551.13C294.942 551.198 294.942 551.28 294.942 551.348C299.262 551.021 302.971 550.545 306.163 549.96C306.231 549.946 306.312 549.933 306.38 549.919C306.937 549.797 307.44 549.688 307.929 549.593Z" fill="#F4BA51"/>
<path d="M294.969 546.845C294.969 546.763 294.969 546.668 294.969 546.573C294.969 546.219 294.969 545.852 294.955 545.484C294.955 545.321 294.955 545.144 294.955 544.981C294.955 544.614 294.955 544.246 294.942 543.865C294.942 543.729 294.942 543.58 294.942 543.43C294.942 542.94 294.928 542.423 294.928 541.907C294.928 541.893 294.928 541.879 294.928 541.866C294.86 536.479 294.725 529.568 294.453 521.978C294.684 522.059 296.409 522.617 299.398 523.066C292.51 482.5 289.372 469.972 289.372 469.972C285.134 460.3 292.293 497.002 291.858 506.225C291.423 515.434 294.983 551.075 295.01 551.266V551.062C294.983 550.028 294.983 548.599 294.969 546.845Z" fill="#E03D63"/>
<path d="M294.955 545.498C294.955 545.879 294.955 546.233 294.969 546.586C294.955 546.233 294.955 545.865 294.955 545.498Z" fill="#F4BA51"/>
<path d="M294.942 543.879C294.942 544.26 294.955 544.628 294.955 544.995C294.955 544.628 294.942 544.26 294.942 543.879Z" fill="#F4BA51"/>
<path d="M294.915 541.88C294.847 536.493 294.711 529.596 294.439 522.005C294.711 529.582 294.86 536.493 294.915 541.88Z" fill="#F4BA51"/>
<path d="M294.983 550.654C294.983 550.64 294.983 550.64 294.983 550.64C294.983 549.633 294.983 548.341 294.969 546.845C294.983 548.586 294.983 550.014 294.983 551.103V550.654Z" fill="#F4BA51"/>
<path d="M294.915 541.92C294.915 542.451 294.928 542.954 294.928 543.444C294.928 542.954 294.928 542.437 294.915 541.92Z" fill="#F4BA51"/>
<path d="M318.186 464.857C318.186 442.112 298.04 440.058 298.04 440.058C298.502 415.708 280.597 414.116 280.597 414.116C280.597 414.116 271.78 408.43 270.639 416.85C270.53 417.68 270.517 418.374 270.571 418.959C271.209 419.068 275.543 419.721 279.197 417.299C279.197 417.299 285.84 421.19 286.262 429.433C286.683 437.677 295.948 457.878 299.385 460.504C302.822 463.129 320.102 491.846 317.493 507.531C318.24 507.245 318.96 506.905 319.667 506.497C320.889 505.803 322.031 504.933 323.063 503.858C342.802 483.426 318.186 464.857 318.186 464.857Z" fill="#FE8A3A"/>
<path d="M275.04 421.326C274.116 421.557 273.043 421.652 271.902 421.38C272.785 421.815 273.967 421.666 275.04 421.326Z" fill="#FE8A3A"/>
<path d="M280.46 434.072C280.46 434.072 280.42 428.971 279.143 424.509L277.866 420.047C277.866 420.047 276.697 420.918 275.026 421.339C273.953 421.679 272.771 421.829 271.888 421.394L271.005 425.488C271.1 425.611 271.195 425.76 271.277 425.91C271.671 426.672 271.888 427.651 271.888 428.685C271.888 430.168 271.454 431.487 270.734 432.236C270.652 432.331 270.557 432.412 270.462 432.48L271.073 438.697L272.16 443.771C272.174 443.771 278.898 443.513 280.46 434.072ZM274.578 432.848C273.206 432.848 272.119 431.025 272.119 428.685C272.119 426.345 273.206 424.509 274.578 424.509C275.95 424.509 277.037 426.345 277.037 428.685C277.037 431.025 275.964 432.848 274.578 432.848Z" fill="#FFC857"/>
<path d="M275.04 421.326C273.953 421.666 272.785 421.815 271.902 421.38C272.785 421.815 273.967 421.666 275.04 421.326Z" fill="#FFC857"/>
<path d="M283.789 436.603L277.214 443.772L283.789 436.603Z" fill="#D4D8E4"/>
<path d="M274.687 443.772C276.181 447.839 276.534 449.335 276.616 449.812C277.798 449.335 279.115 449.376 280.555 450.383C280.555 450.383 280.623 450.437 280.746 450.505C281.357 450.9 283.463 451.934 286.261 449.512C283.612 442.18 283.789 436.915 283.802 436.603L277.227 443.758H274.687V443.772Z" fill="#F4BA51"/>
<path d="M299.384 460.504C295.947 457.878 286.669 437.664 286.261 429.434C285.84 421.203 279.197 417.299 279.197 417.299C275.543 419.721 271.195 419.068 270.571 418.959C270.666 419.843 270.924 420.469 271.304 420.904C271.494 421.108 271.685 421.258 271.915 421.38C273.043 421.652 274.13 421.72 275.054 421.489C276.575 421.027 277.893 420.047 277.893 420.047L281.058 431.202C281.167 430.998 281.289 430.835 281.425 430.712C282.308 429.828 283.449 430.672 283.666 432.181C283.884 433.623 281.425 433.188 281.425 433.188C281.425 433.188 282.308 434.317 283.789 436.603V436.616C283.775 436.915 283.599 442.18 286.248 449.526C287.226 452.233 288.584 455.199 290.486 458.327C297.564 469.985 310.13 507.599 310.524 508.769C310.537 508.783 310.537 508.796 310.537 508.796C313.621 509.653 317.887 507.409 317.887 507.409C317.887 507.381 317.887 507.436 317.887 507.409C320.495 491.683 302.821 463.129 299.384 460.504Z" fill="#ED8037"/>
<path d="M277.214 443.772L283.789 436.603V436.589C282.308 434.304 281.425 433.175 281.425 433.175C281.425 433.175 283.884 433.61 283.666 432.168C283.435 430.672 282.308 429.815 281.425 430.699C281.303 430.821 281.18 430.984 281.058 431.189L277.893 420.034L279.17 424.496C280.447 428.971 280.488 434.059 280.488 434.059C278.925 443.5 272.187 443.745 272.187 443.745H274.7H277.214V443.772Z" fill="#F4BA51"/>
<path d="M493.716 473.876C517.884 485.575 527.733 540.179 527.733 540.179C527.719 540.193 527.706 540.206 527.692 540.22L528.738 540.193C528.752 540.193 529.309 540.166 530.11 540.329C530.925 535.255 533.968 511.326 523.481 485.398C522.937 484.051 522.353 482.705 521.728 481.358C516.634 473.237 505.902 459.552 505.902 459.552C503.932 459.375 500.998 459.13 497.235 458.858C495.156 458.722 492.82 458.586 490.252 458.45C490.252 458.45 474.888 474.202 470.364 531.636V531.65C470.377 532.534 470.377 533.391 470.377 534.221C470.418 536.914 470.54 541.227 470.961 544.872L471.994 544.845C472.008 544.845 472.578 544.818 473.393 544.968C489.342 514.129 491.325 478.161 491.325 478.161C491.461 478.311 491.597 478.447 491.733 478.596C491.121 472.556 493.716 473.876 493.716 473.876Z" fill="white"/>
<path d="M529.947 541.404C529.282 541.309 528.847 541.322 528.833 541.322L527.217 541.377C526.972 542.723 527.081 544.737 527.149 545.539L535.585 545.267C535.137 544.084 534.552 543.186 533.941 542.506C532.786 541.213 531.455 540.642 530.423 540.383C530.368 540.37 530.314 540.356 530.26 540.356C530.219 540.343 530.178 540.343 530.137 540.329C530.029 540.968 529.961 541.336 529.961 541.336L529.947 541.404Z" fill="#FE8A3A"/>
<path d="M528.752 540.179L527.706 540.206C527.461 540.397 527.312 540.818 527.217 541.376L528.833 541.322C528.847 541.322 529.295 541.308 529.947 541.403L529.961 541.322C529.961 541.322 530.029 540.968 530.137 540.315C529.322 540.152 528.779 540.179 528.752 540.179Z" fill="#FE8A3A"/>
<path d="M518.943 517.298C519.174 517.788 519.419 518.291 519.636 518.781C521.321 522.454 522.625 525.773 523.63 528.684C525.546 534.235 526.374 538.275 526.7 540.234L527.706 540.206C527.719 540.193 527.733 540.179 527.746 540.166C527.746 540.166 517.897 485.561 493.73 473.863C493.73 473.863 491.135 472.543 491.76 478.556C505.78 493.098 513.931 505.953 518.943 516.917V517.298Z" fill="#EDEAE8"/>
<path d="M527.217 541.376L526.877 541.39C526.85 541.186 526.795 540.791 526.7 540.247L526.116 540.261L525.899 540.274H525.885C525.396 540.71 525.111 541.689 524.948 542.723C524.921 542.873 524.894 543.009 524.88 543.172C524.758 544.083 524.717 544.995 524.717 545.62L527.149 545.539C527.081 544.736 526.972 542.723 527.217 541.376Z" fill="#ED8037"/>
<path d="M527.217 541.376C527.312 540.832 527.475 540.411 527.706 540.207L526.7 540.234C526.795 540.778 526.85 541.172 526.877 541.376H527.217Z" fill="#ED8037"/>
<path d="M713.357 527.746C713.167 527.828 712.977 527.896 712.8 527.977L713.004 528.59C713.004 528.508 713.085 528.154 713.357 527.746Z" fill="#FAFAFA"/>
<path d="M713.357 527.746C715.055 527.066 716.794 526.467 716.794 526.467C714.715 526.372 713.778 527.12 713.357 527.746Z" fill="#EDEAE8"/>
<path d="M716.78 526.467C716.78 526.467 705.79 505.096 700.506 486.596C700.506 486.596 694.094 470.979 694.474 481.345C694.854 491.697 695.439 511.748 688.551 513.163C692.912 512.891 697.707 512.129 702.856 510.633C703.1 506.13 702.829 500.988 701.606 495.479L712.773 527.991C712.963 527.909 713.14 527.841 713.33 527.76C713.778 527.12 714.716 526.372 716.78 526.467Z" fill="#EDEAE8"/>
<path d="M710.192 491.915C706.293 468.081 693.088 458.668 689.203 456.382C689.203 456.382 685.617 470.163 677.873 475.264C672.725 478.651 667.521 478.801 664.587 478.529C664.37 485.834 663.663 496.431 661.612 507.98C661.612 507.98 671.937 514.183 688.551 513.163C695.439 511.748 694.841 491.697 694.474 481.345C694.094 470.992 700.506 486.596 700.506 486.596C705.79 505.11 716.78 526.467 716.78 526.467C715.571 520.781 712.515 506.144 710.192 491.915Z" fill="#FAFAFA"/>
<path d="M677.873 475.264C685.603 470.163 689.203 456.382 689.203 456.382C688.51 455.974 688.116 455.784 688.116 455.784C686.106 461.007 683.035 469.863 678.62 470.557C675.061 471.115 667.63 470.884 664.614 468.476C664.614 468.476 664.777 472.312 664.601 478.515C667.521 478.801 672.738 478.651 677.873 475.264Z" fill="#EDEAE8"/>
<path d="M674.898 448.791L673.73 451.485C673.73 451.485 677.031 451.58 678.58 448.887C679.585 441.745 676.406 435.895 676.352 435.8C674.232 435.487 671.937 435.582 669.953 435.868C668.554 436.059 667.535 436.807 666.801 437.813C666.394 438.371 666.082 439.01 665.837 439.704L665.823 439.718C665.09 441.718 664.94 444.044 664.94 445.594C664.94 446.615 665.008 447.281 665.008 447.281L665.484 448.832L665.525 448.818C665.511 448.818 669.926 452.559 674.898 448.791Z" fill="#FE8A3A"/>
<path d="M678.308 450.383C678.417 449.879 678.512 449.39 678.58 448.9C677.031 451.593 673.73 451.498 673.73 451.498L674.898 448.805C669.926 452.573 665.511 448.818 665.511 448.818L665.47 448.832L666.625 452.627L669.464 461.932L673.784 461.946C676.895 461.02 676.569 458.232 678.308 450.383ZM673.214 453.824L673.458 457.715L671.461 457.878L673.214 453.824ZM673.431 459.919C673.214 459.919 672.983 459.878 672.752 459.796C672.507 459.715 672.385 459.456 672.466 459.211C672.548 458.966 672.82 458.844 673.051 458.926C673.92 459.238 676.392 457.933 676.243 458.137C676.189 458.218 674.952 459.919 673.431 459.919Z" fill="white"/>
<path d="M678.525 464.367C681.894 463.306 682.112 458.654 682.112 458.654C682.112 458.654 678.919 463.415 678.417 462.912C677.914 462.408 673.757 461.946 673.757 461.946C673.771 461.946 673.771 461.946 673.784 461.932L669.464 461.919L666.625 452.614L666.435 452.668C665.511 453.484 664.777 454.886 664.261 456.559C663.31 459.579 663.025 463.469 663.324 466.326C663.419 467.197 663.881 467.904 664.614 468.489C667.63 470.897 675.061 471.128 678.62 470.57C682.288 469.985 685.032 463.755 687.016 458.667C681.093 469.727 675.156 465.442 678.525 464.367Z" fill="#EE4266"/>
<path d="M680.319 453.403L680.93 451.662L680.319 453.403Z" fill="#4D17B2"/>
<path d="M678.566 448.9C678.566 448.9 678.58 448.9 678.566 448.9L680.318 453.403L680.93 451.661L682.56 447.036L683.484 444.438C684.109 438.657 680.536 436.426 676.325 435.8C676.392 435.909 679.571 441.758 678.566 448.9Z" fill="#ED5D0C"/>
<path d="M680.318 453.403L678.58 448.887C678.58 448.887 678.58 448.887 678.58 448.9C678.512 449.39 678.417 449.88 678.308 450.383C676.569 458.232 676.909 461.021 673.784 461.932L676.909 461.946L680.318 453.403Z" fill="#EDEAE8"/>
<path d="M688.116 455.783C688.469 454.831 688.592 454.042 688.537 453.362C688.293 450.287 684.571 449.743 684.571 449.743C684.136 447.689 682.587 447.036 682.574 447.036L680.943 451.661L680.332 453.403L676.909 461.945L673.784 461.932C673.771 461.932 673.771 461.932 673.757 461.945C673.757 461.945 677.914 462.408 678.417 462.911C678.919 463.415 682.112 458.653 682.112 458.653C682.112 458.653 681.881 463.306 678.525 464.367C675.156 465.428 681.079 469.727 687.016 458.653C687.41 457.647 687.777 456.667 688.116 455.783Z" fill="#E03D63"/>
<path d="M644.807 576.487L643.558 576.324C643.558 576.324 640.759 579.058 642.362 582.513L644.807 576.487Z" fill="#643AD6"/>
<path d="M647.769 576.868L644.808 576.487L642.362 582.514C642.634 583.085 643.001 583.683 643.558 584.282L647.769 576.868Z" fill="#4D17B2"/>
<path d="M650.989 545.049C643.666 568.42 644.808 576.487 644.808 576.487L647.769 576.868L652.076 560.38C654.032 550.341 661.911 542.533 671.937 540.71C675.075 540.139 686.106 539.812 694.107 532.888C699.093 528.589 702.897 521.706 702.869 510.605C699.256 511.667 695.819 512.347 692.586 512.755L692.423 512.85C692.423 512.85 658.325 521.679 650.989 545.049Z" fill="#E03D63"/>
<path d="M627.066 573.099H624.661C624.661 573.086 624.661 573.072 624.661 573.072C623.928 574.269 621.89 578.214 624.593 581.506L627.052 573.208C627.066 573.167 627.066 573.14 627.066 573.099Z" fill="#643AD6"/>
<path d="M627.066 573.1C627.079 572.964 627.093 572.841 627.093 572.705H624.906C624.906 572.705 624.811 572.841 624.661 573.072C624.661 573.086 624.661 573.1 624.661 573.1H627.066Z" fill="#EE4266"/>
<path d="M625.857 582.731L628.859 573.1H627.079C627.079 573.14 627.079 573.168 627.066 573.208L624.607 581.506C624.946 581.928 625.34 582.336 625.857 582.731Z" fill="#4D17B2"/>
<path d="M628.859 573.1H629.171C629.171 573.1 634.388 550.994 644.549 536.03C644.549 536.03 650.404 526.345 656.246 522.44C656.246 522.44 629.552 530.766 627.12 572.705H628.981L628.859 573.1Z" fill="#E03D63"/>
<path d="M661.626 507.98C661.626 507.98 650.907 510.633 643.422 516.496C636.616 521.828 631.535 528.97 628.696 537.051C627.908 539.254 627.297 541.553 626.862 543.879C625.123 553.225 623.574 564.924 624.675 573.072C624.811 572.841 624.919 572.705 624.919 572.705H627.12C629.552 530.766 656.246 522.44 656.246 522.44C650.418 526.345 644.549 536.03 644.549 536.03C644.332 536.479 644.128 536.955 643.938 537.445C642.62 540.791 641.887 544.165 641.547 547.62C641.004 553.211 641.466 558.993 642.091 565.182C642.254 566.883 642.444 568.447 642.62 569.848C643.109 573.793 643.571 576.324 643.571 576.324L644.821 576.487C644.821 576.487 643.68 568.42 651.002 545.049C658.325 521.679 692.423 512.85 692.423 512.85L692.599 512.768C673.635 515.19 661.626 507.98 661.626 507.98Z" fill="#EE4266"/>
<path d="M628.859 573.1L628.981 572.705H627.106C627.093 572.841 627.079 572.964 627.079 573.1H628.859Z" fill="#4D17B2"/>
<path d="M813.546 382.665C813.097 382.583 812.459 382.379 812.011 382.107C811.331 381.822 810.72 381.563 810.747 381.672C811.032 382.896 813.179 383.332 813.41 383.386C813.437 383.386 813.451 383.386 813.478 383.386C813.641 383.386 813.79 383.264 813.831 383.1C813.872 382.896 813.749 382.706 813.546 382.665Z" fill="#FAFAFA"/>
<path d="M798.385 392.405C812.296 403.369 814.361 395.887 814.361 395.887L814.578 395.615C814.089 395.289 812.405 394.037 811.399 391.752L811.1 391.765C807.949 389.97 798.385 392.405 798.385 392.405Z" fill="#FFC857"/>
<path d="M806.835 372.667C804.335 380.121 810.734 389.562 810.734 389.562C810.937 389.603 811.141 389.657 811.358 389.712C812.676 389.984 813.953 389.045 814.103 387.698L815.869 371.742L816.521 365.878C810.448 367.688 806.835 372.667 806.835 372.667ZM813.491 383.372C813.464 383.372 813.451 383.372 813.423 383.372C813.179 383.332 811.046 382.896 810.761 381.658C810.734 381.55 811.345 381.808 812.024 382.094C812.595 382.339 813.22 382.583 813.559 382.652C813.749 382.692 813.885 382.883 813.845 383.073C813.804 383.25 813.654 383.372 813.491 383.372ZM814.863 371.619C814.863 371.782 814.741 371.946 814.565 371.973L808.954 373.428L807.935 373.932C807.867 374 807.772 374.04 807.663 374.04C807.582 374.04 807.5 374.013 807.419 373.945C807.351 373.877 807.297 373.782 807.297 373.687C807.297 373.592 807.337 373.51 807.405 373.442L808.248 372.367C808.451 372.122 808.737 371.959 809.049 371.905C810.475 371.714 814.429 371.265 814.429 371.265C814.619 371.225 814.809 371.361 814.836 371.551C814.863 371.592 814.863 371.605 814.863 371.619Z" fill="#FFC857"/>
<path d="M812.894 363.865C824.482 360.641 823.449 352.384 823.381 351.962C822.783 351.363 821.982 350.955 820.895 350.874C819.509 350.765 818.137 351.268 817.037 352.125L815.04 353.703C815.04 353.703 812.758 346.507 806.237 349.391C799.743 352.248 802.841 358.22 802.841 358.22C802.841 358.22 790.166 359.43 795.926 370.558C797.746 374.081 799.472 376.353 800.599 377.659C800.613 377.659 801.007 367.171 812.894 363.865Z" fill="#EE4266"/>
<path d="M805.721 373.469C806.155 371.646 806.984 369.783 808.601 368.518C806.984 369.783 806.155 371.646 805.721 373.469Z" fill="#FFC857"/>
<path d="M815.678 365.715C813.192 366.368 810.611 366.939 808.614 368.517C810.598 366.939 813.192 366.368 815.678 365.715Z" fill="#FFC857"/>
<path d="M815.679 365.715C813.192 366.368 810.611 366.939 808.614 368.517C806.998 369.783 806.155 371.66 805.734 373.469C805.055 376.312 805.395 379.019 805.395 379.019L804.24 377.319C803.941 377.224 803.669 377.169 803.438 377.169C802.746 377.142 801.863 377.482 801.944 379.019C801.944 379.019 801.672 382.869 804.471 385.753C804.471 389.385 801.537 391.453 798.385 392.405C798.385 392.405 807.949 389.97 811.1 391.766L811.399 391.752C811.114 391.099 810.883 390.392 810.747 389.562C810.747 389.562 804.349 380.121 806.848 372.667C806.848 372.667 810.462 367.688 816.521 365.865L816.562 365.484C816.263 365.566 815.964 365.647 815.679 365.715Z" fill="#F4BA51"/>
<path d="M801.931 379.019C801.917 378.638 801.971 378.257 802.107 377.958C802.324 377.468 802.732 377.142 803.425 377.169C803.656 377.183 803.928 377.224 804.226 377.319L805.381 379.019C805.381 379.019 805.041 376.312 805.721 373.469C806.155 371.646 806.984 369.783 808.601 368.517C810.598 366.953 813.192 366.368 815.665 365.715C815.964 365.647 816.249 365.565 816.548 365.484C818.898 364.872 821.085 364.083 822.525 362.273C824.685 359.539 825.663 354.261 823.381 351.976C823.435 352.397 824.468 360.655 812.894 363.879C801.007 367.184 800.626 377.673 800.626 377.673C801.428 378.598 801.931 379.019 801.931 379.019Z" fill="#E03D63"/>
<path d="M814.457 371.279C814.457 371.279 810.504 371.728 809.078 371.918C808.752 371.959 808.466 372.136 808.276 372.381L807.733 373.075C809.064 373.238 814.457 371.279 814.457 371.279Z" fill="#EE4266"/>
<path d="M807.324 373.714C807.324 373.809 807.365 373.904 807.446 373.972C807.514 374.04 807.595 374.068 807.691 374.068C807.799 374.068 807.881 374.027 807.962 373.959L808.981 373.455L814.592 372C814.768 371.959 814.891 371.809 814.891 371.646C814.891 371.633 814.891 371.605 814.891 371.592C814.85 371.401 814.673 371.265 814.483 371.306C814.483 371.306 809.09 373.265 807.758 373.088L807.46 373.483C807.351 373.537 807.324 373.619 807.324 373.714Z" fill="#E03D63"/>
<path d="M823.734 437.46C823.055 438.113 822.525 438.371 822.158 438.439L822.118 440.902L823.517 440.017L823.734 437.46Z" fill="#FFC857"/>
<path d="M822.145 438.439L822.104 440.861L822.145 438.439Z" fill="#FFC857"/>
<path d="M823.734 436.671V437.46C824.794 436.44 826.22 434.44 828.041 430.522C832.347 421.204 816.562 404.907 816.562 404.907C818.097 408.049 821.724 424.659 821.724 424.659C822.023 424.863 828.462 429.23 823.734 436.671Z" fill="#E03D63"/>
<path d="M821.724 424.659L821.534 438.385C821.534 438.385 821.737 438.521 822.159 438.439L822.199 435.909C822.199 431.842 822.009 428.101 821.724 424.659Z" fill="#EE4266"/>
<path d="M822.199 435.909L822.159 438.439C822.525 438.371 823.055 438.113 823.734 437.46V436.671L822.199 435.909Z" fill="#F4BA51"/>
<path d="M822.199 435.909L822.145 438.439L822.199 435.909Z" fill="#E03D63"/>
<path d="M787.938 455.811C788.794 456.083 789.623 456.328 790.438 456.559L787.952 455.688C787.938 455.756 787.938 455.811 787.938 455.811Z" fill="#EE4266"/>
<path d="M814.714 395.711C814.714 395.711 814.66 395.684 814.565 395.616L814.347 395.888C814.347 395.888 812.282 403.383 798.371 392.405C769.843 401.03 765.523 425.897 765.523 425.897C765.523 425.897 773.375 439.201 784.216 445.228L785.045 440.834C785.031 440.806 785.004 440.793 784.99 440.779C783.061 438.603 780.928 433.12 779.638 429.448C779.638 429.448 779.067 428.454 778.714 426.727C778.551 426.21 778.442 425.883 778.442 425.883C778.442 425.883 778.483 425.829 778.551 425.72C778.103 422.115 778.836 416.266 785.506 409.736C796.497 398.949 799.295 409.736 799.295 409.736C804.444 425.611 790.438 456.546 790.438 456.559C813.749 463.17 821.167 453.498 821.167 453.498C821.669 449.023 821.968 444.806 822.091 440.874L822.131 438.453C821.724 438.535 821.506 438.399 821.506 438.399L821.697 424.673C821.697 424.673 818.07 408.063 816.534 404.92C816.534 404.92 832.32 421.217 828.014 430.536C826.207 434.454 824.767 436.453 823.707 437.474L823.463 440.004L822.077 440.874C822.077 440.874 833.448 434.848 833.054 422.768C832.768 413.695 820.732 401.329 814.714 395.711Z" fill="#EE4266"/>
<path d="M799.309 409.736C799.309 409.736 796.51 398.948 785.52 409.736C778.85 416.279 778.116 422.129 778.564 425.72C779.583 424.047 787.884 410.579 790.764 412.334C794.69 414.701 789.609 444.017 789.609 444.017C789.609 444.017 792 442.003 792.312 444.017C792.611 446.03 794.934 449.934 789.174 447.336C789.161 447.322 789.134 447.322 789.106 447.322V447.336C788.522 451.811 788.047 455.063 787.952 455.688L790.438 456.559C790.438 456.559 790.438 456.559 790.451 456.559C790.451 456.545 804.457 425.611 799.309 409.736Z" fill="#E03D63"/>
<path d="M779.651 429.461C779.257 428.332 778.931 427.38 778.728 426.74C779.081 428.454 779.651 429.461 779.651 429.461Z" fill="#FFC857"/>
<path d="M787.571 443.16C786.892 442.697 786.05 441.963 785.058 440.847L784.229 445.241C785.031 445.69 785.86 446.098 786.688 446.465C786.58 444.588 787.571 443.16 787.571 443.16Z" fill="#EE4266"/>
<path d="M790.438 456.559C789.623 456.328 788.794 456.083 787.938 455.811L760.714 524.359C761.312 524.264 761.706 524.264 761.719 524.264L763.309 524.223L790.438 456.559Z" fill="#EDEAE8"/>
<path d="M839.697 523.678C838.487 521.679 836.667 520.835 835.186 520.468C834.915 520.4 834.657 520.345 834.426 520.305C833.42 520.141 832.7 520.209 832.687 520.209L833.094 524.345L833.515 524.508L839.955 524.114C839.873 523.964 839.792 523.828 839.697 523.678Z" fill="#FE8A3A"/>
<path d="M807.473 468.598C807.473 468.598 826.804 471.972 836.45 480.052C846.095 488.132 832.687 520.209 832.687 520.209C832.714 520.209 833.434 520.155 834.426 520.305C834.67 520.345 834.915 520.386 835.186 520.468C843.12 506.592 849.885 474.27 844.628 467.319C838.773 459.592 821.18 453.484 821.18 453.484C821.18 453.484 813.763 463.156 790.438 456.545L763.309 524.195L764.694 524.154H764.708C764.884 524.263 765.034 524.426 765.183 524.617C770.454 517.706 781.132 503.749 784.99 498.716C788.468 494.213 797.176 485.752 802.623 480.582C801.577 471.006 807.473 468.598 807.473 468.598Z" fill="#FAFAFA"/>
<path d="M832.687 520.209L830.269 520.359L829.712 520.4H829.698C829.196 520.781 828.924 521.583 828.774 522.44C828.639 523.121 828.611 523.828 828.598 524.386C828.598 524.535 828.598 524.685 828.598 524.821L833.515 524.522L833.094 524.359L832.687 520.209Z" fill="#ED8037"/>
<path d="M831.709 484.365C836.26 494.349 831.097 516.958 830.269 520.359L832.687 520.21C832.687 520.21 846.095 488.146 836.45 480.052C826.805 471.958 807.473 468.598 807.473 468.598C807.473 468.598 801.591 471.006 802.651 480.583C805.408 477.971 807.337 476.189 807.337 476.189C819.17 477.44 831.709 484.365 831.709 484.365Z" fill="#EDEAE8"/>
<path d="M90.7743 640.192C91.1683 639.974 91.5758 639.756 92.0241 639.552C92.4724 639.348 92.9207 639.131 93.3962 638.926C94.3607 638.518 95.4068 638.137 96.5207 637.797C97.6483 637.471 98.8573 637.185 100.134 636.981C101.411 636.777 102.77 636.655 104.196 636.641C106.411 636.614 108.788 636.845 111.328 637.444C112.171 637.634 113.026 637.879 113.909 638.151C113.638 637.308 113.298 636.437 112.877 635.566C110.391 630.261 105.066 624.344 94.1434 619.746C84.7562 615.787 72.6792 613.502 59.9366 613.243C62.3139 621.351 61.5804 628.316 60.5207 632.791C71.8234 633.159 82.0528 634.709 86.1147 636.627C88.8453 637.933 90.2173 639.131 90.7743 640.192Z" fill="#FAFAFA"/>
<path d="M111.6 644.586C111.192 644.355 110.771 644.151 110.337 643.974C109.399 643.593 108.394 643.307 107.348 643.103C105.935 642.831 104.454 642.695 102.946 642.668C102.566 642.654 102.199 642.654 101.819 642.668C101.072 642.682 100.311 642.709 99.5774 642.763C99.0475 642.804 98.5313 642.845 98.0151 642.899C92.7577 643.416 88.397 644.668 88.397 644.668C84.0634 647.334 73.8068 651.17 57.5049 651.17C57.5049 651.17 60.7109 658.121 59.3253 668.392C84.96 668.297 104.183 652 111.6 644.586Z" fill="#FAFAFA"/>
<path d="M20.6219 640.655C18.8559 640.002 16.6143 639.43 13.7751 639.09C12.634 638.954 11.4113 638.859 10.08 638.818C9.41434 638.791 8.72151 638.777 8.00151 638.777C5.82793 638.777 3.40981 638.9 0.720001 639.185C16.5328 655.537 31.6528 663.713 45.4143 666.841C45.1019 660.897 46.5826 657.142 48.3351 654.802C50.5359 651.864 53.1713 651.17 53.1713 651.17V651.075C39.3419 650.49 30.4981 647.103 26.5585 644.668C17.4566 645.878 20.6219 640.655 20.6219 640.655Z" fill="#FAFAFA"/>
<path d="M10.2566 631.703C17.6468 631.363 22.5645 634.329 25.6075 637.322C32.1691 634.302 42.3306 632.982 52.5872 632.764C51.5275 628.289 50.8075 621.365 53.1713 613.312C41.1079 613.733 29.7509 615.991 20.8121 619.76C11.7645 623.568 6.56151 628.275 3.61359 632.792C5.42038 632.302 7.11849 631.989 8.70793 631.812C9.23774 631.758 9.75396 631.731 10.2566 631.703Z" fill="#FAFAFA"/>
<path d="M104.196 636.641C102.77 636.655 101.411 636.777 100.134 636.981C98.8574 637.185 97.6483 637.457 96.5208 637.798C95.3932 638.124 94.3472 638.519 93.3962 638.927C92.9208 639.131 92.4589 639.348 92.0242 639.552C91.5894 639.756 91.1683 639.988 90.7743 640.192C92.2008 642.885 88.3562 644.667 88.3562 644.667C88.3562 644.667 92.7306 643.416 97.9743 642.899C98.4906 642.844 99.0068 642.804 99.5366 642.763C100.284 642.708 101.031 642.681 101.778 642.668C102.158 642.668 102.525 642.668 102.906 642.668C104.414 642.695 105.908 642.831 107.307 643.103C108.367 643.307 109.372 643.593 110.296 643.973C110.744 644.15 111.165 644.368 111.559 644.586C113.122 643.021 114.168 641.865 114.629 641.321C114.466 640.314 114.235 639.267 113.869 638.151C112.999 637.866 112.13 637.634 111.288 637.444C108.788 636.845 106.411 636.614 104.196 636.641Z" fill="#FE8A3A"/>
<path d="M93.3962 638.927C94.3608 638.519 95.4068 638.138 96.5208 637.798C95.4068 638.124 94.3608 638.519 93.3962 638.927Z" fill="#FE8A3A"/>
<path d="M96.5343 637.798C97.6619 637.471 98.8709 637.185 100.148 636.981C98.8574 637.185 97.6619 637.458 96.5343 637.798Z" fill="#FE8A3A"/>
<path d="M104.196 636.641C106.411 636.614 108.788 636.845 111.328 637.444C108.788 636.845 106.411 636.614 104.196 636.641Z" fill="#FE8A3A"/>
<path d="M88.3698 644.667C88.3698 644.667 92.7306 643.416 97.9879 642.899C92.7306 643.416 88.3698 644.667 88.3698 644.667Z" fill="#FE8A3A"/>
<path d="M99.5638 642.763C99.034 642.804 98.5177 642.844 98.0015 642.899C98.5041 642.844 99.0204 642.79 99.5638 642.763Z" fill="#FE8A3A"/>
<path d="M52.5871 632.764C55.2498 632.71 57.9124 632.724 60.5071 632.805C61.5804 628.316 62.3139 621.365 59.923 613.257C59.1079 613.244 58.2928 613.23 57.4641 613.23C56.0241 613.23 54.5841 613.257 53.1577 613.312C50.8075 621.365 51.5275 628.289 52.5871 632.764Z" fill="#FE8A3A"/>
<path d="M52.5872 632.764C51.5275 628.289 50.8075 621.365 53.1713 613.312C50.8075 621.365 51.5275 628.289 52.5872 632.764Z" fill="#FE8A3A"/>
<path d="M53.1985 651.17C53.1985 651.17 50.563 651.877 48.3623 654.802C46.6098 657.142 45.1155 660.896 45.4415 666.841C50.237 667.929 54.8694 668.406 59.3117 668.392C60.6973 658.121 57.4913 651.17 57.4913 651.17C56.0106 651.17 54.5841 651.143 53.2121 651.075L53.1985 651.17Z" fill="#FE8A3A"/>
<path d="M48.3623 654.802C46.6098 657.142 45.1155 660.896 45.4415 666.841C45.1155 660.896 46.5962 657.142 48.3623 654.802Z" fill="#FE8A3A"/>
<path d="M10.0936 638.818C11.4249 638.872 12.6612 638.968 13.7887 639.09C16.6279 639.43 18.8695 640.002 20.6355 640.654C21.8717 639.362 23.5698 638.26 25.6076 637.322C22.5646 634.342 17.6468 631.363 10.2566 631.703C9.75398 631.731 9.23776 631.758 8.72153 631.812C7.1321 631.975 5.43398 632.288 3.62719 632.792C2.18719 635.023 1.29059 637.186 0.747192 639.185C3.437 638.9 5.85512 638.777 8.0287 638.777C8.73512 638.777 9.42795 638.791 10.0936 638.818Z" fill="#FE8A3A"/>
<path d="M10.2566 631.703C9.75395 631.73 9.23772 631.758 8.7215 631.812C9.23772 631.758 9.75395 631.73 10.2566 631.703Z" fill="#FE8A3A"/>
<path d="M20.6219 640.654C18.8558 640.001 16.6143 639.43 13.7751 639.09C16.6279 639.43 18.8694 640.001 20.6219 640.654Z" fill="#FE8A3A"/>
<path d="M10.0936 638.818C11.4249 638.872 12.6611 638.968 13.7887 639.09C12.6475 638.954 11.4249 638.859 10.0936 638.818Z" fill="#FE8A3A"/>
<path d="M25.6075 637.321C28.4196 640.083 29.6423 642.844 29.7238 643.035C29.6423 642.844 28.4196 640.069 25.6075 637.321Z" fill="#ED8037"/>
<path d="M86.1011 636.641C82.0528 634.737 71.8234 633.172 60.5072 632.805C59.7057 636.165 58.714 638.151 58.714 638.151V638.165C71.9592 638.315 81.0747 641.035 86.0875 643.443C86.3728 643.185 87.3509 642.314 88.954 641.266C89.4838 640.926 90.0951 640.559 90.7608 640.192C90.2174 639.131 88.8453 637.934 86.1011 636.641Z" fill="#EDEAE8"/>
<path d="M26.5857 644.667C26.5857 644.667 25.2815 642.382 20.6219 640.654C20.6219 640.654 17.4566 645.878 26.5857 644.667Z" fill="#EDEAE8"/>
<path d="M54.394 638.152C54.394 638.152 53.4023 636.152 52.5872 632.765C42.3306 632.982 32.1555 634.302 25.6075 637.322C28.4196 640.083 29.6423 642.845 29.7238 643.035C34.6415 640.859 42.8468 638.56 54.394 638.206V638.152Z" fill="#EDEAE8"/>
<path d="M90.7743 640.192C90.1087 640.559 89.4974 640.926 88.9675 641.267C87.3645 642.3 86.3728 643.185 86.1011 643.443C86.9842 643.851 87.7313 644.273 88.3562 644.667C88.3698 644.667 92.2008 642.885 90.7743 640.192Z" fill="#ED8037"/>
<path d="M52.5872 632.765C53.3887 636.165 54.394 638.151 54.394 638.151V638.192C55.3992 638.165 56.4181 638.151 57.4777 638.151C57.8989 638.151 58.32 638.151 58.7275 638.165V638.151C58.7275 638.151 59.7192 636.179 60.5207 632.805C57.9124 632.724 55.2498 632.71 52.5872 632.765Z" fill="#ED8037"/>
<path d="M52.5872 632.765C53.3887 636.165 54.394 638.152 54.394 638.152V638.192V638.152C54.394 638.152 53.3887 636.165 52.5872 632.765Z" fill="#ED8037"/>
<path d="M20.6219 640.654C25.2679 642.382 26.5857 644.667 26.5857 644.667C27.4143 644.15 28.4604 643.593 29.7238 643.035C29.6423 642.844 28.4196 640.083 25.6075 637.321C23.5698 638.26 21.8581 639.362 20.6219 640.654Z" fill="#ED8037"/>
<path d="M20.6219 640.654C25.2679 642.382 26.5857 644.667 26.5857 644.667C26.5857 644.667 25.2815 642.382 20.6219 640.654Z" fill="#ED8037"/>
<path d="M94.1298 669.575C109.644 663.046 113.855 653.85 114.738 647.565C113.977 646.286 112.891 645.321 111.6 644.586C104.183 652 84.96 668.297 59.2981 668.378C58.9721 670.786 58.4015 673.371 57.4777 676.091C71.1306 676.091 84.1449 673.779 94.1298 669.575Z" fill="#EDEAE8"/>
<path d="M0.733585 639.185C0.176604 641.253 0 643.13 0 644.667C0 650.694 2.7034 661.944 20.8121 669.575C28.1887 672.677 37.2091 674.744 46.9223 675.629C46.0257 672.269 45.5638 669.371 45.4415 666.841C31.6664 663.726 16.5464 655.536 0.733585 639.185Z" fill="#EDEAE8"/>
<path d="M111.6 644.586C112.891 645.307 113.977 646.286 114.738 647.565C114.888 646.504 114.955 645.538 114.955 644.667C114.955 643.688 114.874 642.545 114.67 641.334C114.208 641.865 113.162 643.021 111.6 644.586Z" fill="#ED8037"/>
<path d="M46.9223 675.615C50.3728 675.928 53.8913 676.092 57.4777 676.092C58.4015 673.371 58.9721 670.786 59.2981 668.378C54.8558 668.392 50.2234 667.916 45.4279 666.828C45.5638 669.358 46.0257 672.255 46.9223 675.615Z" fill="#ED8037"/>
<path d="M45.4415 666.841C45.4279 666.841 45.4279 666.841 45.4415 666.841C45.5774 669.357 46.0257 672.255 46.9223 675.629C46.0257 672.255 45.5638 669.357 45.4415 666.841Z" fill="#EDEAE8"/>
</svg>
