<svg width="48" height="48" viewBox="0 0 48 48" fill="none" xmlns="http://www.w3.org/2000/svg">
<rect width="48" height="48" rx="24" fill="#F4BBD0"/>
<g clip-path="url(#clip0_451_1707)">
<path d="M19.0002 24.0003C19.9206 24.0003 20.6668 23.2541 20.6668 22.3337C20.6668 21.4132 19.9206 20.667 19.0002 20.667C18.0797 20.667 17.3335 21.4132 17.3335 22.3337C17.3335 23.2541 18.0797 24.0003 19.0002 24.0003Z" stroke="#111215" stroke-width="2" stroke-linecap="round" stroke-linejoin="round"/>
<path d="M19 17.333V20.6663" stroke="#111215" stroke-width="2" stroke-linecap="round" stroke-linejoin="round"/>
<path d="M19 24V30.6667" stroke="#111215" stroke-width="2" stroke-linecap="round" stroke-linejoin="round"/>
<path d="M24.0002 29.0003C24.9206 29.0003 25.6668 28.2541 25.6668 27.3337C25.6668 26.4132 24.9206 25.667 24.0002 25.667C23.0797 25.667 22.3335 26.4132 22.3335 27.3337C22.3335 28.2541 23.0797 29.0003 24.0002 29.0003Z" stroke="#111215" stroke-width="2" stroke-linecap="round" stroke-linejoin="round"/>
<path d="M24 17.333V25.6663" stroke="#111215" stroke-width="2" stroke-linecap="round" stroke-linejoin="round"/>
<path d="M24 29V30.6667" stroke="#111215" stroke-width="2" stroke-linecap="round" stroke-linejoin="round"/>
<path d="M29.0002 21.5003C29.9206 21.5003 30.6668 20.7541 30.6668 19.8337C30.6668 18.9132 29.9206 18.167 29.0002 18.167C28.0797 18.167 27.3335 18.9132 27.3335 19.8337C27.3335 20.7541 28.0797 21.5003 29.0002 21.5003Z" stroke="#111215" stroke-width="2" stroke-linecap="round" stroke-linejoin="round"/>
<path d="M29 17.333V18.1663" stroke="#111215" stroke-width="2" stroke-linecap="round" stroke-linejoin="round"/>
<path d="M29 21.5V30.6667" stroke="#111215" stroke-width="2" stroke-linecap="round" stroke-linejoin="round"/>
</g>
<defs>
<clipPath id="clip0_451_1707">
<rect width="20" height="20" fill="white" transform="translate(14 14)"/>
</clipPath>
</defs>
</svg>
