<?xml version="1.0" encoding="utf-8"?>
<!-- Generator: Adobe Illustrator 23.0.6, SVG Export Plug-In . SVG Version: 6.00 Build 0)  -->
<svg version="1.1" id="Layer_1" xmlns="http://www.w3.org/2000/svg" xmlns:xlink="http://www.w3.org/1999/xlink" x="0px" y="0px"
	 width="613.95px" height="405.68px" viewBox="0 0 613.95 405.68" style="enable-background:new 0 0 613.95 405.68;"
	 xml:space="preserve">
<style type="text/css">
	.st0{fill:#FAFAFA;}
	.st1{fill:#FFFFFF;}
	.st2{fill:#333745;}
	.st3{fill:#EE4266;}
	.st4{fill:#FFC857;}
	.st5{fill:#59C3C3;}
	.st6{fill:none;stroke:#E4E8EE;}
	.st7{fill:#EDEFF3;}
	.st8{fill:#D4D8E4;}
	.st9{fill-rule:evenodd;clip-rule:evenodd;fill:#D4D8E4;}
</style>
<path class="st0" d="M0,8c0-4.42,3.58-8,8-8h597.78c4.42,0,8,3.58,8,8v389.68c0,4.42-3.58,8-8,8H8c-4.42,0-8-3.58-8-8V8z"/>
<path class="st1" d="M0,8c0-4.42,3.58-8,8-8h597.78c4.42,0,8,3.58,8,8v389.68c0,4.42-3.58,8-8,8H8c-4.42,0-8-3.58-8-8V8z"/>
<path class="st2" d="M0,2.79C0,1.25,1.49,0,3.33,0h607.29c1.84,0,3.33,1.25,3.33,2.79v16.07H0V2.79z"/>
<path class="st3" d="M13.02,9.27c0,2.09-1.69,3.78-3.77,3.78c-2.08,0-3.77-1.69-3.77-3.78c0-2.09,1.69-3.78,3.77-3.78
	C11.33,5.49,13.02,7.18,13.02,9.27z"/>
<path class="st4" d="M26.03,9.27c0,2.09-1.69,3.78-3.77,3.78s-3.77-1.69-3.77-3.78c0-2.09,1.69-3.78,3.77-3.78
	S26.03,7.18,26.03,9.27z"/>
<path class="st5" d="M39.05,9.27c0,2.09-1.69,3.78-3.77,3.78c-2.08,0-3.77-1.69-3.77-3.78c0-2.09,1.69-3.78,3.77-3.78
	C37.37,5.49,39.05,7.18,39.05,9.27z"/>
<path class="st1" d="M0,18.9h613.78v27.63H0V18.9z"/>
<path class="st6" d="M0,46.53h613.78"/>
<path class="st7" d="M47.96,26.81c0-1.52,1.23-2.75,2.74-2.75h156.89c1.51,0,2.74,1.23,2.74,2.75v11.67c0,1.52-1.23,2.75-2.74,2.75
	H50.7c-1.51,0-2.74-1.23-2.74-2.75V26.81z"/>
<path class="st8" d="M53.87,32.52c0-1.44,1.16-2.6,2.6-2.6h71.38c1.44,0,2.6,1.16,2.6,2.6c0,1.44-1.16,2.6-2.6,2.6H56.47
	C55.03,35.12,53.87,33.95,53.87,32.52z"/>
<path class="st8" d="M7.76,32.61l2.31-2.03c0.27-0.24,0.28-0.63,0.01-0.87c-0.26-0.24-0.7-0.25-0.97-0.01l-2.69,2.36l0,0
	c-0.35,0.31-0.35,0.81,0,1.12l2.69,2.35c0.27,0.24,0.71,0.23,0.97-0.01c0.26-0.24,0.26-0.64-0.01-0.87L7.76,32.61z"/>
<path class="st8" d="M22.4,32.61l-2.31,2.03c-0.27,0.24-0.28,0.63-0.01,0.87c0.26,0.24,0.7,0.25,0.97,0.01l2.69-2.36l0,0
	c0.35-0.31,0.35-0.81,0-1.12l-2.68-2.35c-0.27-0.24-0.71-0.23-0.97,0.01c-0.26,0.24-0.26,0.64,0.01,0.87L22.4,32.61z"/>
<path class="st9" d="M35.46,29.52c0-0.38,0.31-0.69,0.69-0.69c1.99,0,3.6,1.61,3.6,3.6s-1.61,3.6-3.6,3.6
	c-0.38,0-0.69-0.31-0.69-0.69s0.31-0.69,0.69-0.69c1.23,0,2.23-1,2.23-2.23s-1-2.23-2.23-2.23C35.76,30.21,35.46,29.9,35.46,29.52z"
	/>
<path class="st9" d="M33.23,33.13c-0.38,0-0.69-0.31-0.69-0.69c0-1.99,1.61-3.6,3.6-3.6c1.99,0,3.6,1.61,3.6,3.6
	c0,0.38-0.31,0.69-0.69,0.69s-0.69-0.31-0.69-0.69c0-1.23-1-2.23-2.23-2.23c-1.23,0-2.23,1-2.23,2.23
	C33.91,32.82,33.61,33.13,33.23,33.13z"/>
<path class="st8" d="M32.79,32.56l-0.8-1.89c-0.09-0.22-0.34-0.31-0.55-0.19c-0.21,0.12-0.3,0.39-0.21,0.61l0.93,2.19l0,0
	c0.12,0.29,0.44,0.39,0.71,0.23l2.05-1.22c0.21-0.12,0.29-0.4,0.19-0.62c-0.1-0.22-0.35-0.3-0.56-0.17L32.79,32.56z"/>
</svg>
