<svg width="20" height="20" viewBox="0 0 20 20" fill="none" xmlns="http://www.w3.org/2000/svg">
<path fill-rule="evenodd" clip-rule="evenodd" d="M4.5 1.75V3H2C0.895431 3 0 3.89543 0 5V7V8V18C0 19.1046 0.895431 20 2 20H17C18.1046 20 19 19.1046 19 18V8V7V5C19 3.89543 18.1046 3 17 3H15V1.75C15 1.33579 14.6642 1 14.25 1C13.8358 1 13.5 1.33579 13.5 1.75V3H6V1.75C6 1.33579 5.66421 1 5.25 1C4.83579 1 4.5 1.33579 4.5 1.75ZM2 4.5H17C17.2761 4.5 17.5 4.72386 17.5 5V7H1.5V5C1.5 4.72386 1.72386 4.5 2 4.5ZM17.5 18C17.5 18.2761 17.2761 18.5 17 18.5H2C1.72386 18.5 1.5 18.2761 1.5 18V8H17.5V18ZM4 11C4 10.4477 4.44772 10 5 10H6C6.55228 10 7 10.4477 7 11V12C7 12.5523 6.55228 13 6 13H5C4.44772 13 4 12.5523 4 12V11ZM5 14C4.44772 14 4 14.4477 4 15V16C4 16.5523 4.44772 17 5 17H6C6.55228 17 7 16.5523 7 16V15C7 14.4477 6.55228 14 6 14H5ZM8 11C8 10.4477 8.44772 10 9 10H10C10.5523 10 11 10.4477 11 11V12C11 12.5523 10.5523 13 10 13H9C8.44771 13 8 12.5523 8 12V11ZM9 14C8.44772 14 8 14.4477 8 15V16C8 16.5523 8.44771 17 9 17H10C10.5523 17 11 16.5523 11 16V15C11 14.4477 10.5523 14 10 14H9ZM12 11C12 10.4477 12.4477 10 13 10H14C14.5523 10 15 10.4477 15 11V12C15 12.5523 14.5523 13 14 13H13C12.4477 13 12 12.5523 12 12V11ZM13 14C12.4477 14 12 14.4477 12 15V16C12 16.5523 12.4477 17 13 17H14C14.5523 17 15 16.5523 15 16V15C15 14.4477 14.5523 14 14 14H13Z" fill="#333745"/>
</svg>
