<svg width="365" height="88" viewBox="0 0 365 88" fill="none" xmlns="http://www.w3.org/2000/svg">
<path d="M49.1282 36.4552V47.3622C49.1282 48.2679 49.8623 49.0021 50.7677 49.0021H54.985C55.9488 49.0021 56.714 48.1724 56.6186 47.2122C56.0656 41.7315 53.0165 37.3706 49.1282 36.4552Z" fill="white"/>
<path d="M35.2262 49.0021H43.8576C44.763 49.0021 45.497 48.2678 45.497 47.3621V29.2059C39.1067 30.7115 34.1475 38.1126 33.5887 47.2726C33.5322 48.2113 34.2877 49.0021 35.2262 49.0021Z" fill="white"/>
<path d="M67.2576 46.0669C64.814 44.9236 61.8798 46.1078 60.7252 48.5443C60.3065 49.4285 59.8217 50.2641 59.2765 51.049C58.5542 52.0891 57.3626 52.7026 56.097 52.7026H33.8418C32.584 52.7026 31.3963 52.0988 30.6759 51.0685C29.0676 48.7722 28.0337 46.1039 27.6793 43.2427C27.1049 38.6229 28.3647 34.0556 31.2249 30.3823C34.0852 26.709 38.2033 24.3717 42.8237 23.7972C46.603 23.3278 50.3414 24.0776 53.632 25.9688C56.7843 27.7782 59.3369 30.579 60.8323 33.8647C61.9479 36.3149 64.8608 37.5419 67.318 36.4434C69.7694 35.3469 70.8714 32.4682 69.7752 30.0141C67.4543 24.81 63.4413 20.3732 58.4782 17.5237C53.3418 14.573 47.5123 13.4025 41.6224 14.1328C34.4221 15.0268 28.0025 18.6729 23.5437 24.3971C19.0849 30.1213 17.1222 37.24 18.0159 44.4425C18.9097 51.645 22.5546 58.0665 28.2771 62.5266C33.0961 66.2817 38.9023 68.2664 44.9129 68.2664C46.0403 68.2664 47.1774 68.1963 48.3164 68.0541C57.6702 66.8914 65.6318 61.0873 69.6097 52.5292C70.741 50.0946 69.6876 47.2043 67.2576 46.0669Z" fill="white"/>
<path d="M100.763 32.8453C96.7327 32.8453 93.3448 34.1308 90.541 36.7601C87.7372 39.3895 86.3353 42.7785 86.3353 46.9854C86.3353 51.1924 87.7372 54.6398 90.541 57.3276C93.3448 59.9569 96.7327 61.3008 100.763 61.3008C105.086 61.3008 108.59 59.84 111.336 56.8601L107.247 53.4712C105.553 55.2825 103.392 56.159 100.763 56.159C98.2514 56.159 96.0902 55.2825 94.2794 53.588C92.4686 51.8936 91.5924 49.6732 91.5924 46.9854C91.5924 44.3561 92.4686 42.1942 94.2794 40.5581C96.0902 38.8636 98.2514 38.0456 100.763 38.0456C103.392 38.0456 105.553 38.9221 107.247 40.6165L111.277 37.2276C108.59 34.3061 105.086 32.8453 100.763 32.8453Z" fill="white"/>
<path d="M144.222 60.7165V33.4296H138.965V37.5197C137.271 34.5398 133.357 32.8453 129.385 32.8453C125.53 32.8453 122.259 34.1308 119.572 36.7601C116.885 39.3895 115.542 42.7785 115.542 47.0439C115.542 51.2508 116.885 54.6982 119.572 57.3276C122.259 59.9569 125.53 61.3008 129.385 61.3008C133.357 61.3008 137.154 59.5479 138.965 56.5095V60.7165H144.222ZM138.906 46.9854C138.906 49.7901 138.03 52.0104 136.278 53.6465C134.526 55.2825 132.364 56.1005 129.853 56.1005C127.341 56.1005 125.238 55.2241 123.544 53.5296C121.85 51.8351 120.974 49.6148 120.974 46.9854C120.974 44.3561 121.792 42.1942 123.486 40.5581C125.18 38.8636 127.341 38.0456 129.853 38.0456C132.247 38.0456 134.35 38.8636 136.161 40.4412C137.972 42.0189 138.906 44.2392 138.906 46.9854Z" fill="white"/>
<path d="M158.434 45.9921C158.434 40.6165 161.88 38.0456 166.144 38.0456C169.883 38.0456 172.161 40.7918 172.161 45.291V60.7165H177.476V44.9404C177.476 37.2276 173.738 32.8453 166.962 32.8453C163.633 32.8453 160.011 34.4814 158.434 37.5197V33.4296H153.119V60.7165H158.434V45.9921Z" fill="white"/>
<path d="M212.902 60.7165V18.5884H207.587V37.5197C205.776 34.4814 202.096 32.8453 197.949 32.8453C194.093 32.8453 190.822 34.1308 188.194 36.7601C185.565 39.3895 184.222 42.7785 184.222 47.0439C184.222 51.2508 185.565 54.6982 188.194 57.3276C190.881 59.9569 194.152 61.3008 198.007 61.3008C201.979 61.3008 205.776 59.5479 207.587 56.5095V60.7165H212.902ZM198.474 38.0456C200.869 38.0456 202.972 38.8636 204.783 40.4412C206.594 42.0189 207.528 44.2392 207.528 46.9854C207.528 49.7316 206.652 51.952 204.841 53.6465C203.089 55.2825 200.986 56.1005 198.474 56.1005C195.963 56.1005 193.86 55.2241 192.166 53.5296C190.472 51.8351 189.654 49.6148 189.654 46.9854C189.654 44.3561 190.472 42.1942 192.166 40.5581C193.86 38.8636 195.963 38.0456 198.474 38.0456Z" fill="white"/>
<path d="M240.491 48.154C240.491 53.588 237.161 56.1005 232.78 56.1005C229.042 56.1005 226.822 53.3543 226.822 48.8552V33.4296H221.507V49.2058C221.448 56.9185 225.245 61.3008 232.021 61.3008C235.35 61.3008 238.914 59.6648 240.491 56.6264V60.7165H245.806V33.4296H240.491V48.154Z" fill="white"/>
<path d="M271.172 42.6361C273.571 42.6361 275.579 43.4721 277.193 45.1441C278.851 46.7721 279.68 48.8401 279.68 51.3041C279.68 53.7681 278.851 55.8361 277.193 57.5081C275.535 59.1801 273.528 60.0161 271.172 60.0161C268.772 60.0161 266.764 59.2241 265.063 57.6401C263.405 56.0121 262.576 53.9881 262.532 51.5241C262.532 48.9281 263.361 46.8161 265.019 45.1441C266.721 43.4721 268.772 42.6361 271.172 42.6361ZM262.532 57.1561C264.146 60.1481 267.55 62.0401 271.172 62.0401C274.095 62.0401 276.582 61.0281 278.633 58.9601C280.684 56.8921 281.688 54.3401 281.688 51.3041C281.688 48.2681 280.684 45.7161 278.633 43.6921C276.582 41.6241 274.095 40.6121 271.172 40.6121C267.506 40.6121 264.146 42.4601 262.532 45.4521V29.3481H260.525V61.6001H262.532V57.1561Z" fill="white"/>
<path d="M289.547 29.3481H287.583V61.6001H289.547V29.3481Z" fill="white"/>
<path d="M314.763 51.2601C314.763 53.8561 313.934 56.0121 312.232 57.6401C310.574 59.2681 308.523 60.0601 306.08 60.0601C303.636 60.0601 301.585 59.2681 299.884 57.6401C298.226 56.0121 297.396 53.8561 297.396 51.2601C297.396 48.6641 298.226 46.5961 299.884 45.0121C301.585 43.3841 303.636 42.5921 306.08 42.5921C308.523 42.5921 310.574 43.3841 312.232 45.0121C313.934 46.5961 314.763 48.6641 314.763 51.2601ZM295.433 51.2601C295.433 54.4721 296.436 57.0681 298.487 59.0481C300.538 61.0281 303.069 62.0401 306.08 62.0401C309.091 62.0401 311.578 61.0281 313.629 59.0481C315.679 57.0681 316.727 54.4721 316.727 51.2601C316.727 48.0921 315.679 45.5401 313.629 43.5601C311.578 41.5801 309.091 40.6121 306.08 40.6121C303.069 40.6121 300.538 41.5801 298.487 43.5601C296.436 45.5401 295.433 48.0921 295.433 51.2601Z" fill="white"/>
<path d="M331.687 60.0161C329.287 60.0161 327.279 59.1801 325.621 57.5521C324.007 55.8801 323.178 53.8121 323.178 51.3481C323.178 48.8841 324.007 46.8161 325.665 45.1441C327.323 43.4721 329.33 42.6361 331.687 42.6361C334.087 42.6361 336.137 43.4721 337.795 45.1001C339.497 46.7281 340.326 48.8401 340.326 51.3481C340.326 53.8561 339.454 55.9681 337.752 57.5961C336.05 59.2241 334.043 60.0161 331.687 60.0161ZM322.872 67.1881C324.923 70.3121 327.759 71.8521 331.381 71.8521C334.872 71.8521 337.577 70.8401 339.454 68.8161C341.374 66.7921 342.333 63.3601 342.333 58.5201V41.0521H340.326V45.4961C338.712 42.5041 335.308 40.6121 331.687 40.6121C328.763 40.6121 326.276 41.6241 324.225 43.6921C322.174 45.7601 321.171 48.3121 321.171 51.3481C321.171 54.3841 322.174 56.9361 324.225 59.0041C326.276 61.0281 328.763 62.0401 331.687 62.0401C335.352 62.0401 338.755 60.0601 340.326 57.0681V58.5641C340.326 62.6561 339.541 65.5602 337.97 67.2761C336.443 68.9921 334.217 69.8281 331.381 69.8281C328.458 69.8281 326.189 68.5961 324.53 66.0881L322.872 67.1881Z" fill="white"/>
</svg>
