<svg width="462" height="341" viewBox="0 0 462 341" fill="none" xmlns="http://www.w3.org/2000/svg">
<rect x="0.0045166" width="461.77" height="188.26" rx="4" fill="#DDE0E4"/>
<path d="M0.0045166 4C0.0045166 1.79086 1.79538 0 4.00452 0H457.774C459.983 0 461.774 1.79086 461.774 4V63.9373H0.0045166V4Z" fill="#F3F4F6"/>
<rect y="198.918" width="461.77" height="63.9373" rx="4" fill="#F3F4F6"/>
<path fill-rule="evenodd" clip-rule="evenodd" d="M38.4214 244.129C45.9864 244.129 52.119 237.996 52.119 230.431C52.119 222.866 45.9864 216.734 38.4214 216.734C30.8565 216.734 24.7239 222.866 24.7239 230.431C24.7239 237.996 30.8565 244.129 38.4214 244.129Z" fill="#DDE0E4"/>
<rect y="273.511" width="461.77" height="67.4894" rx="4" fill="#F3F4F6"/>
<path fill-rule="evenodd" clip-rule="evenodd" d="M38.4214 47.1432C45.9864 47.1432 52.119 41.0106 52.119 33.4456C52.119 25.8807 45.9864 19.748 38.4214 19.748C30.8565 19.748 24.7239 25.8807 24.7239 33.4456C24.7239 41.0106 30.8565 47.1432 38.4214 47.1432Z" fill="#DDE0E4"/>
<rect x="88.8047" y="24.865" width="337.447" height="10.6562" rx="5.32811" fill="#DDE0E4"/>
<rect x="88.8047" y="227.333" width="337.447" height="10.6562" rx="5.32811" fill="#DDE0E4"/>
<rect x="88.8047" y="301.927" width="337.447" height="10.6562" rx="5.32811" fill="#DDE0E4"/>
<path fill-rule="evenodd" clip-rule="evenodd" d="M37.5322 318.809C44.6052 318.809 50.3391 313.075 50.3391 306.002C50.3391 298.929 44.6052 293.195 37.5322 293.195C30.4592 293.195 24.7253 298.929 24.7253 306.002C24.7253 313.075 30.4592 318.809 37.5322 318.809Z" fill="#DDE0E4"/>
<rect x="28.4175" y="103.012" width="369.416" height="10.6562" rx="5.32811" fill="#F3F4F6"/>
<rect x="27.3179" y="124.718" width="403.044" height="10.3677" rx="5.18385" fill="#F3F4F6"/>
</svg>
