<svg width="32" height="32" viewBox="0 0 32 32" fill="none" xmlns="http://www.w3.org/2000/svg">
<g clip-path="url(#clip0_1311_6605)">
<path d="M12 28C7.589 28 4 24.411 4 20C4 15.589 7.589 12 12 12C12.689 12 13.375 12.089 14.042 12.265L17.985 8.321C17.714 8.04 17.564 7.671 17.564 7.279C17.564 6.878 17.72 6.501 18.003 6.218C18.587 5.635 19.539 5.633 20.124 6.218L25.781 11.875C26.366 12.46 26.366 13.411 25.781 13.996C25.216 14.561 24.226 14.562 23.66 13.996L19.728 17.928C19.909 18.603 20 19.298 20 20C20 24.411 16.411 28 12 28ZM12 13C8.14 13 5 16.14 5 20C5 23.859 8.14 27 12 27C15.86 27 19 23.859 19 20C19 19.296 18.896 18.601 18.688 17.931C18.634 17.754 18.682 17.561 18.813 17.43L23.307 12.936C23.502 12.741 23.819 12.741 24.014 12.936L24.368 13.29C24.557 13.478 24.887 13.479 25.075 13.29C25.27 13.095 25.27 12.778 25.075 12.583L19.418 6.926C19.223 6.731 18.906 6.731 18.711 6.926C18.616 7.021 18.565 7.146 18.565 7.28C18.565 7.413 18.617 7.539 18.711 7.634L19.046 7.969C19.241 8.164 19.241 8.481 19.046 8.676L14.541 13.18C14.41 13.311 14.217 13.356 14.042 13.305C13.378 13.103 12.692 13 12 13Z" fill="url(#paint0_linear_1311_6605)"/>
<path d="M19 22.5C16.295 22.5 14.959 21.633 13.781 20.868C12.698 20.165 11.674 19.5 9.591 19.5C6.23699 19.5 4.99199 21.265 4.97999 21.282C4.82399 21.51 4.51299 21.567 4.28499 21.413C4.05699 21.257 3.99899 20.945 4.15499 20.718C4.21699 20.627 5.71599 18.5 9.591 18.5C11.969 18.5 13.167 19.277 14.325 20.029C15.491 20.786 16.591 21.5 19 21.5C19.276 21.5 19.5 21.724 19.5 22C19.5 22.276 19.276 22.5 19 22.5Z" fill="url(#paint1_linear_1311_6605)"/>
<path d="M16 18C14.897 18 14 17.103 14 16C14 14.897 14.897 14 16 14C17.103 14 18 14.897 18 16C18 17.103 17.103 18 16 18ZM16 15C15.449 15 15 15.449 15 16C15 16.551 15.449 17 16 17C16.551 17 17 16.551 17 16C17 15.449 16.551 15 16 15Z" fill="url(#paint2_linear_1311_6605)"/>
<path d="M25.971 8C24.868 8 23.971 7.103 23.971 6C23.971 4.897 24.868 4 25.971 4C27.074 4 27.971 4.897 27.971 6C27.971 7.103 27.074 8 25.971 8ZM25.971 5C25.42 5 24.971 5.449 24.971 6C24.971 6.551 25.42 7 25.971 7C26.522 7 26.971 6.551 26.971 6C26.971 5.449 26.522 5 25.971 5Z" fill="url(#paint3_linear_1311_6605)"/>
</g>
<defs>
<linearGradient id="paint0_linear_1311_6605" x1="15.1099" y1="5.78" x2="27.6032" y2="23.9747" gradientUnits="userSpaceOnUse">
<stop stop-color="#6310E5"/>
<stop offset="1" stop-color="#8322FE"/>
</linearGradient>
<linearGradient id="paint1_linear_1311_6605" x1="11.7837" y1="18.5" x2="12.6152" y2="23.1717" gradientUnits="userSpaceOnUse">
<stop stop-color="#6310E5"/>
<stop offset="1" stop-color="#8322FE"/>
</linearGradient>
<linearGradient id="paint2_linear_1311_6605" x1="16" y1="14" x2="18.249" y2="17.2754" gradientUnits="userSpaceOnUse">
<stop stop-color="#6310E5"/>
<stop offset="1" stop-color="#8322FE"/>
</linearGradient>
<linearGradient id="paint3_linear_1311_6605" x1="25.971" y1="4" x2="28.22" y2="7.2754" gradientUnits="userSpaceOnUse">
<stop stop-color="#6310E5"/>
<stop offset="1" stop-color="#8322FE"/>
</linearGradient>
<clipPath id="clip0_1311_6605">
<rect width="24" height="24" fill="white" transform="translate(4 4)"/>
</clipPath>
</defs>
</svg>
