<svg width="32" height="32" viewBox="0 0 32 32" fill="none" xmlns="http://www.w3.org/2000/svg">
<path fill-rule="evenodd" clip-rule="evenodd" d="M9.5 22C9.5 21.7239 9.72386 21.5 10 21.5L22 21.5C22.2761 21.5 22.5 21.7239 22.5 22C22.5 22.2761 22.2761 22.5 22 22.5L10 22.5C9.72386 22.5 9.5 22.2761 9.5 22Z" fill="url(#paint0_linear_1311_6682)"/>
<path fill-rule="evenodd" clip-rule="evenodd" d="M6.25 7C6.25 6.58579 6.58579 6.25 7 6.25H25C25.4142 6.25 25.75 6.58579 25.75 7V25C25.75 25.4142 25.4142 25.75 25 25.75H7C6.58579 25.75 6.25 25.4142 6.25 25V7ZM7.75 7.75V24.25H24.25V7.75H7.75Z" fill="url(#paint1_linear_1311_6682)"/>
<path fill-rule="evenodd" clip-rule="evenodd" d="M14.25 11C14.25 10.5858 14.5858 10.25 15 10.25H22C22.4142 10.25 22.75 10.5858 22.75 11V19C22.75 19.4142 22.4142 19.75 22 19.75H15C14.5858 19.75 14.25 19.4142 14.25 19V11ZM15.75 11.75V18.25H21.25V11.75H15.75Z" fill="url(#paint2_linear_1311_6682)"/>
<path fill-rule="evenodd" clip-rule="evenodd" d="M9.5 11C9.5 10.7239 9.72386 10.5 10 10.5H13C13.2761 10.5 13.5 10.7239 13.5 11V14C13.5 14.2761 13.2761 14.5 13 14.5H10C9.72386 14.5 9.5 14.2761 9.5 14V11ZM10.5 11.5V13.5H12.5V11.5H10.5Z" fill="url(#paint3_linear_1311_6682)"/>
<path fill-rule="evenodd" clip-rule="evenodd" d="M9.5 16C9.5 15.7239 9.72386 15.5 10 15.5H13C13.2761 15.5 13.5 15.7239 13.5 16V19C13.5 19.2761 13.2761 19.5 13 19.5H10C9.72386 19.5 9.5 19.2761 9.5 19V16ZM10.5 16.5V18.5H12.5V16.5H10.5Z" fill="url(#paint4_linear_1311_6682)"/>
<defs>
<linearGradient id="paint0_linear_1311_6682" x1="16" y1="21.5" x2="16.0635" y2="22.7016" gradientUnits="userSpaceOnUse">
<stop stop-color="#6310E5"/>
<stop offset="1" stop-color="#8322FE"/>
</linearGradient>
<linearGradient id="paint1_linear_1311_6682" x1="16" y1="6.25" x2="26.964" y2="22.2176" gradientUnits="userSpaceOnUse">
<stop stop-color="#6310E5"/>
<stop offset="1" stop-color="#8322FE"/>
</linearGradient>
<linearGradient id="paint2_linear_1311_6682" x1="18.5" y1="10.25" x2="24.0285" y2="17.454" gradientUnits="userSpaceOnUse">
<stop stop-color="#6310E5"/>
<stop offset="1" stop-color="#8322FE"/>
</linearGradient>
<linearGradient id="paint3_linear_1311_6682" x1="11.5" y1="10.5" x2="13.749" y2="13.7754" gradientUnits="userSpaceOnUse">
<stop stop-color="#6310E5"/>
<stop offset="1" stop-color="#8322FE"/>
</linearGradient>
<linearGradient id="paint4_linear_1311_6682" x1="11.5" y1="15.5" x2="13.749" y2="18.7754" gradientUnits="userSpaceOnUse">
<stop stop-color="#6310E5"/>
<stop offset="1" stop-color="#8322FE"/>
</linearGradient>
</defs>
</svg>
