<svg width="32" height="32" viewBox="0 0 32 32" fill="none" xmlns="http://www.w3.org/2000/svg">
<path d="M23.8516 8.38281H8.14844C7.57883 8.38343 7.03272 8.60998 6.62995 9.01276C6.22717 9.41554 6.00062 9.96164 6 10.5312V21.4688C6.00062 22.0384 6.22717 22.5845 6.62995 22.9872C7.03272 23.39 7.57883 23.6166 8.14844 23.6172H23.8516C24.4212 23.6166 24.9673 23.39 25.3701 22.9872C25.7728 22.5845 25.9994 22.0384 26 21.4688V10.5312C25.9994 9.96164 25.7728 9.41554 25.3701 9.01276C24.9673 8.60998 24.4212 8.38343 23.8516 8.38281ZM24.8281 10.5312V21.4688C24.8282 21.5162 24.8246 21.5636 24.8176 21.6105L19.184 16L24.8176 10.3895C24.8246 10.4364 24.8282 10.4838 24.8281 10.5312ZM23.8516 9.55469C23.8965 9.55484 23.9414 9.55797 23.9859 9.56406L16 17.5168L8.01406 9.56406C8.0586 9.55797 8.10349 9.55484 8.14844 9.55469H23.8516ZM7.18242 21.6105C7.17536 21.5636 7.17183 21.5162 7.17188 21.4688V10.5312C7.17183 10.4838 7.17536 10.4364 7.18242 10.3895L12.816 16L7.18242 21.6105ZM8.14844 22.4453C8.10349 22.4452 8.0586 22.442 8.01406 22.4359L13.6465 16.827L15.5867 18.759C15.6965 18.8682 15.8451 18.9296 16 18.9296C16.1549 18.9296 16.3035 18.8682 16.4133 18.759L18.3535 16.827L23.9859 22.4359C23.9414 22.442 23.8965 22.4452 23.8516 22.4453H8.14844Z" fill="url(#paint0_linear_1311_6421)"/>
<defs>
<linearGradient id="paint0_linear_1311_6421" x1="16" y1="8.38281" x2="23.5385" y2="22.7961" gradientUnits="userSpaceOnUse">
<stop stop-color="#6310E5"/>
<stop offset="1" stop-color="#8322FE"/>
</linearGradient>
</defs>
</svg>
