<svg width="32" height="32" viewBox="0 0 32 32" fill="none" xmlns="http://www.w3.org/2000/svg">
<path fill-rule="evenodd" clip-rule="evenodd" d="M17.9843 26.0189C17.7163 26.0189 17.4687 25.876 17.3347 25.6439L15.0344 21.6596C14.9004 21.4276 14.9004 21.1417 15.0344 20.9096L17.3347 16.9253C17.4687 16.6933 17.7163 16.5503 17.9843 16.5503L22.5849 16.5503C22.8529 16.5503 23.1005 16.6933 23.2345 16.9253L25.5348 20.9096C25.6688 21.1417 25.6688 21.4276 25.5348 21.6596L23.2345 25.6439C23.1005 25.876 22.8529 26.0189 22.5849 26.0189L17.9843 26.0189ZM22.1519 24.5189L24.0192 21.2846L22.1519 18.0503L18.4173 18.0503L16.55 21.2846L18.4173 24.5189L22.1519 24.5189Z" fill="url(#paint0_linear_1311_6407)"/>
<path fill-rule="evenodd" clip-rule="evenodd" d="M8.98427 21.0189C8.71632 21.0189 8.46872 20.876 8.33475 20.6439L6.03441 16.6596C5.90044 16.4276 5.90044 16.1417 6.03441 15.9096L8.33475 11.9253C8.46872 11.6933 8.71632 11.5503 8.98427 11.5503L13.5849 11.5503C13.8529 11.5503 14.1005 11.6933 14.2345 11.9253L16.5348 15.9096C16.6688 16.1417 16.6688 16.4276 16.5348 16.6596L14.2345 20.6439C14.1005 20.876 13.8529 21.0189 13.5849 21.0189L8.98427 21.0189ZM13.1519 19.5189L15.0192 16.2846L13.1519 13.0503L9.41728 13.0503L7.54996 16.2846L9.41728 19.5189L13.1519 19.5189Z" fill="url(#paint1_linear_1311_6407)"/>
<path fill-rule="evenodd" clip-rule="evenodd" d="M17.9843 16.0189C17.7163 16.0189 17.4687 15.876 17.3347 15.6439L15.0344 11.6596C14.9004 11.4276 14.9004 11.1417 15.0344 10.9096L17.3347 6.92534C17.4687 6.69329 17.7163 6.55034 17.9843 6.55034L22.5849 6.55034C22.8529 6.55034 23.1005 6.69329 23.2345 6.92534L25.5348 10.9096C25.6688 11.1417 25.6688 11.4276 25.5348 11.6596L23.2345 15.6439C23.1005 15.876 22.8529 16.0189 22.5849 16.0189L17.9843 16.0189ZM22.1519 14.5189L24.0192 11.2846L22.1519 8.05034L18.4173 8.05034L16.55 11.2846L18.4173 14.5189L22.1519 14.5189Z" fill="url(#paint2_linear_1311_6407)"/>
<defs>
<linearGradient id="paint0_linear_1311_6407" x1="17.6093" y1="25.9185" x2="16.2245" y2="15.8263" gradientUnits="userSpaceOnUse">
<stop stop-color="#6310E5"/>
<stop offset="1" stop-color="#8322FE"/>
</linearGradient>
<linearGradient id="paint1_linear_1311_6407" x1="8.60927" y1="20.9185" x2="7.22453" y2="10.8263" gradientUnits="userSpaceOnUse">
<stop stop-color="#6310E5"/>
<stop offset="1" stop-color="#8322FE"/>
</linearGradient>
<linearGradient id="paint2_linear_1311_6407" x1="17.6093" y1="15.9185" x2="16.2245" y2="5.82634" gradientUnits="userSpaceOnUse">
<stop stop-color="#6310E5"/>
<stop offset="1" stop-color="#8322FE"/>
</linearGradient>
</defs>
</svg>
