<svg width="32" height="32" viewBox="0 0 32 32" fill="none" xmlns="http://www.w3.org/2000/svg">
<path fill-rule="evenodd" clip-rule="evenodd" d="M7.5 18.5V9.5H24.5V18.5L7.5 18.5ZM7.5 19.5V20.5H16H24.5V19.5L7.5 19.5ZM16.5 22H25C25.5523 22 26 21.5523 26 21V9C26 8.44772 25.5523 8 25 8H7C6.44772 8 6 8.44772 6 9V21C6 21.5523 6.44772 22 7 22H15.5V23.5H13C12.7239 23.5 12.5 23.7239 12.5 24C12.5 24.2761 12.7239 24.5 13 24.5H16H19C19.2761 24.5 19.5 24.2761 19.5 24C19.5 23.7239 19.2761 23.5 19 23.5H16.5V22Z" fill="url(#paint0_linear_1311_6656)"/>
<defs>
<linearGradient id="paint0_linear_1311_6656" x1="16" y1="8" x2="24.5262" y2="23.0512" gradientUnits="userSpaceOnUse">
<stop stop-color="#6310E5"/>
<stop offset="1" stop-color="#8322FE"/>
</linearGradient>
</defs>
</svg>
