<svg width="32" height="32" viewBox="0 0 32 32" fill="none" xmlns="http://www.w3.org/2000/svg">
<mask id="path-1-inside-1_1311_6731" fill="white">
<path fill-rule="evenodd" clip-rule="evenodd" d="M24 10C24 11.6569 22.6569 13 21 13C20.1029 13 19.2977 12.6062 18.748 11.9821L13.7093 15.1013C13.8963 15.5296 14 16.0027 14 16.5C14 16.9084 13.93 17.3005 13.8015 17.6649L18.6115 20.1845C19.1595 19.4646 20.0255 19 21 19C22.6569 19 24 20.3431 24 22C24 23.6569 22.6569 25 21 25C19.3431 25 18 23.6569 18 22C18 21.6754 18.0516 21.3628 18.1469 21.07L13.3368 18.5504C12.7009 19.4287 11.6672 20 10.5 20C8.567 20 7 18.433 7 16.5C7 14.567 8.567 13 10.5 13C11.5769 13 12.5402 13.4864 13.1823 14.2514L18.221 11.1322C18.0785 10.7828 18 10.4006 18 10C18 8.34315 19.3431 7 21 7C22.6569 7 24 8.34315 24 10Z"/>
</mask>
<path fill-rule="evenodd" clip-rule="evenodd" d="M24 10C24 11.6569 22.6569 13 21 13C20.1029 13 19.2977 12.6062 18.748 11.9821L13.7093 15.1013C13.8963 15.5296 14 16.0027 14 16.5C14 16.9084 13.93 17.3005 13.8015 17.6649L18.6115 20.1845C19.1595 19.4646 20.0255 19 21 19C22.6569 19 24 20.3431 24 22C24 23.6569 22.6569 25 21 25C19.3431 25 18 23.6569 18 22C18 21.6754 18.0516 21.3628 18.1469 21.07L13.3368 18.5504C12.7009 19.4287 11.6672 20 10.5 20C8.567 20 7 18.433 7 16.5C7 14.567 8.567 13 10.5 13C11.5769 13 12.5402 13.4864 13.1823 14.2514L18.221 11.1322C18.0785 10.7828 18 10.4006 18 10C18 8.34315 19.3431 7 21 7C22.6569 7 24 8.34315 24 10Z" fill="white"/>
<path d="M18.748 11.9821L19.8736 10.9906L19.036 10.0397L17.9585 10.7067L18.748 11.9821ZM13.7093 15.1013L12.9198 13.8259L11.8146 14.51L12.3346 15.7013L13.7093 15.1013ZM13.8015 17.6649L12.3869 17.1658L11.9547 18.3909L13.1054 18.9937L13.8015 17.6649ZM18.6115 20.1845L17.9155 21.5132L19.0377 22.101L19.805 21.0931L18.6115 20.1845ZM18.1469 21.07L19.5732 21.5346L19.9658 20.3294L18.8429 19.7412L18.1469 21.07ZM13.3368 18.5504L14.0328 17.2217L12.8831 16.6194L12.1219 17.6707L13.3368 18.5504ZM13.1823 14.2514L12.0332 15.2157L12.8679 16.2102L13.9718 15.5268L13.1823 14.2514ZM18.221 11.1322L19.0105 12.4076L20.0889 11.7401L19.6099 10.5658L18.221 11.1322ZM21 14.5C23.4853 14.5 25.5 12.4853 25.5 10H22.5C22.5 10.8284 21.8284 11.5 21 11.5V14.5ZM17.6224 12.9735C18.4448 13.9073 19.6541 14.5 21 14.5V11.5C20.5517 11.5 20.1507 11.3052 19.8736 10.9906L17.6224 12.9735ZM14.4989 16.3767L19.5375 13.2575L17.9585 10.7067L12.9198 13.8259L14.4989 16.3767ZM15.5 16.5C15.5 15.7924 15.3521 15.1153 15.0841 14.5012L12.3346 15.7013C12.4405 15.944 12.5 16.2131 12.5 16.5H15.5ZM15.216 18.1641C15.4004 17.6415 15.5 17.0808 15.5 16.5H12.5C12.5 16.7361 12.4597 16.9595 12.3869 17.1658L15.216 18.1641ZM19.3075 18.8557L14.4975 16.3362L13.1054 18.9937L17.9155 21.5132L19.3075 18.8557ZM19.805 21.0931C20.0816 20.7298 20.5137 20.5 21 20.5V17.5C19.5373 17.5 18.2375 18.1994 17.418 19.2759L19.805 21.0931ZM21 20.5C21.8284 20.5 22.5 21.1716 22.5 22H25.5C25.5 19.5147 23.4853 17.5 21 17.5V20.5ZM22.5 22C22.5 22.8284 21.8284 23.5 21 23.5V26.5C23.4853 26.5 25.5 24.4853 25.5 22H22.5ZM21 23.5C20.1716 23.5 19.5 22.8284 19.5 22H16.5C16.5 24.4853 18.5147 26.5 21 26.5V23.5ZM19.5 22C19.5 21.8351 19.5261 21.6792 19.5732 21.5346L16.7207 20.6054C16.5771 21.0464 16.5 21.5157 16.5 22H19.5ZM12.6408 19.8792L17.4509 22.3987L18.8429 19.7412L14.0328 17.2217L12.6408 19.8792ZM10.5 21.5C12.1685 21.5 13.6459 20.6812 14.5518 19.4301L12.1219 17.6707C11.7559 18.1761 11.1658 18.5 10.5 18.5V21.5ZM5.5 16.5C5.5 19.2614 7.73858 21.5 10.5 21.5V18.5C9.39543 18.5 8.5 17.6046 8.5 16.5H5.5ZM10.5 11.5C7.73858 11.5 5.5 13.7386 5.5 16.5H8.5C8.5 15.3954 9.39543 14.5 10.5 14.5V11.5ZM14.3313 13.2872C13.4164 12.197 12.0389 11.5 10.5 11.5V14.5C11.1149 14.5 11.664 14.7757 12.0332 15.2157L14.3313 13.2872ZM17.4315 9.85681L12.3927 12.976L13.9718 15.5268L19.0105 12.4076L17.4315 9.85681ZM16.5 10C16.5 10.5981 16.6175 11.1725 16.8321 11.6987L19.6099 10.5658C19.5395 10.3931 19.5 10.2031 19.5 10H16.5ZM21 5.5C18.5147 5.5 16.5 7.51472 16.5 10H19.5C19.5 9.17157 20.1716 8.5 21 8.5V5.5ZM25.5 10C25.5 7.51472 23.4853 5.5 21 5.5V8.5C21.8284 8.5 22.5 9.17157 22.5 10H25.5Z" fill="url(#paint0_linear_1311_6731)" mask="url(#path-1-inside-1_1311_6731)"/>
<defs>
<linearGradient id="paint0_linear_1311_6731" x1="15.5" y1="7" x2="25.8156" y2="21.1887" gradientUnits="userSpaceOnUse">
<stop stop-color="#6310E5"/>
<stop offset="1" stop-color="#8322FE"/>
</linearGradient>
</defs>
</svg>
