<svg width="32" height="32" viewBox="0 0 32 32" fill="none" xmlns="http://www.w3.org/2000/svg">
<path d="M24.5 8.75C24.5 8.33579 24.1642 8 23.75 8H13.25V8C13.0511 8.00004 12.8604 8.07909 12.7198 8.21975L8.21975 12.7198L8.21975 12.7197C8.07909 12.8604 8.00004 13.0511 8 13.25V23.75V23.75C8 24.1642 8.33579 24.5 8.75 24.5H19.25V24.5C19.4489 24.5 19.6396 24.4209 19.7803 24.2803L24.2803 19.7803V19.7803C24.4209 19.6396 24.5 19.4489 24.5 19.25V8.75ZM12.3672 10.6933V10.6933C12.4404 10.6199 12.5591 10.6198 12.6324 10.6929C12.6678 10.7282 12.6876 10.7761 12.6875 10.826V11.1875V11.1875C12.6871 11.2906 12.7704 11.3746 12.8735 11.375C12.874 11.375 12.8745 11.375 12.875 11.375H13.625V11.375C13.7281 11.3754 13.8121 11.2921 13.8125 11.189C13.8125 11.1885 13.8125 11.188 13.8125 11.1875V9.6875V9.6875C13.8125 9.58395 13.8964 9.5 14 9.5C14 9.5 14 9.5 14 9.5H21.4872V9.5C21.5908 9.49982 21.6749 9.58361 21.6751 9.68716C21.6752 9.73709 21.6553 9.78499 21.62 9.82025L18.995 12.4453V12.4453C18.9596 12.4806 18.9115 12.5004 18.8615 12.5H11.0135V12.5C10.9099 12.5002 10.8258 12.4164 10.8257 12.3128C10.8256 12.2629 10.8454 12.215 10.8807 12.1798L12.3672 10.6933ZM18.5 22.8125C18.5 22.9161 18.4161 23 18.3125 23H10.748V23C10.6444 23.0002 10.5603 22.9164 10.5602 22.8128C10.5601 22.7629 10.5799 22.715 10.6152 22.6797L13.4277 19.8672V19.8672C13.463 19.8322 13.5108 19.8125 13.5605 19.8125H17.1875V19.8125C17.2911 19.8125 17.375 19.7286 17.375 19.625V18.875C17.375 18.7714 17.2911 18.6875 17.1875 18.6875H14V18.6875C13.8964 18.6875 13.8125 18.6036 13.8125 18.5C13.8125 18.5 13.8125 18.5 13.8125 18.5V15.3125C13.8125 15.2089 13.7286 15.125 13.625 15.125H12.875V15.125C12.7714 15.125 12.6875 15.2089 12.6875 15.3125V18.9395V18.9395C12.6875 18.9893 12.6678 19.037 12.6327 19.0723L9.82023 21.8848V21.8848C9.74709 21.9581 9.62837 21.9582 9.55507 21.8851C9.51973 21.8498 9.49991 21.8019 9.5 21.752V14.1875V14.1875C9.5 14.0839 9.58395 14 9.6875 14H18.3125V14C18.4161 14 18.5 14.0839 18.5 14.1875V22.8125ZM20.3203 21.6193V21.6193C20.2471 21.6926 20.1284 21.6927 20.0551 21.6196C20.0197 21.5843 19.9999 21.5364 20 21.4865V13.6385V13.6385C19.9998 13.5887 20.0195 13.5409 20.0547 13.5057L22.6797 10.8808V10.8808C22.7529 10.8074 22.8716 10.8073 22.9449 10.8804C22.9803 10.9157 23.0001 10.9636 23 11.0135V18.5C23 18.6036 22.9161 18.6875 22.8125 18.6875H21.3125V18.6875C21.2089 18.6875 21.125 18.7714 21.125 18.875V19.625V19.625C21.125 19.7286 21.2089 19.8125 21.3125 19.8125H21.674V19.8125C21.7776 19.8123 21.8616 19.8961 21.8618 19.9997C21.8619 20.0496 21.8421 20.0975 21.8068 20.1328L20.3203 21.6193Z" fill="url(#paint0_linear_1311_6598)"/>
<defs>
<linearGradient id="paint0_linear_1311_6598" x1="16.25" y1="8" x2="25.5272" y2="21.511" gradientUnits="userSpaceOnUse">
<stop stop-color="#6310E5"/>
<stop offset="1" stop-color="#8322FE"/>
</linearGradient>
</defs>
</svg>
