<svg width="32" height="32" viewBox="0 0 32 32" fill="none" xmlns="http://www.w3.org/2000/svg">
<path d="M16.0031 8.00012C12.148 8.00012 8 8.82955 8 10.6533V21.4462C7.99986 21.519 8.01402 21.5912 8.04179 21.659C8.48968 23.2644 12.3746 24 16.0029 24C19.8023 24 23.8824 23.1936 24 21.4234V21.3698V10.6532C24.006 8.82946 19.8582 8.00012 16.0031 8.00012ZM22.8117 17.7815C22.8117 18.2183 20.4233 19.2853 16.0031 19.2853C11.5828 19.2853 9.19453 18.2183 9.19453 17.7815V15.7011C10.7031 16.498 13.4157 16.8716 16.0031 16.8716C18.5905 16.8716 21.3033 16.4885 22.8117 15.7011V17.7815ZM22.8117 14.2166C22.8117 14.6534 20.4233 15.7204 16.0031 15.7204C11.5828 15.7204 9.19453 14.6591 9.19453 14.2186V12.1381C10.7031 12.935 13.4157 13.3067 16.0031 13.3067C18.5905 13.3067 21.3033 12.9236 22.8117 12.1362V14.2166ZM16.0031 9.14954C20.4254 9.14954 22.8117 10.2165 22.8117 10.6534C22.8117 11.0902 20.4233 12.1572 16.0031 12.1572C11.5828 12.1572 9.19453 11.0902 9.19453 10.6534C9.19453 10.2167 11.5808 9.14954 16.0031 9.14954ZM16.0031 22.8505C11.5807 22.8505 9.19453 21.7835 9.19453 21.3467V19.2567C10.7031 20.0613 13.4157 20.4368 16.0031 20.4368C18.5905 20.4368 21.3033 20.0537 22.8117 19.2663V21.3468C22.8117 21.7835 20.4254 22.8505 16.0031 22.8505Z" fill="url(#paint0_linear_1311_6801)"/>
<defs>
<linearGradient id="paint0_linear_1311_6801" x1="16" y1="8" x2="24.9961" y2="21.1016" gradientUnits="userSpaceOnUse">
<stop stop-color="#6310E5"/>
<stop offset="1" stop-color="#8322FE"/>
</linearGradient>
</defs>
</svg>
