<svg width="32" height="32" viewBox="0 0 32 32" fill="none" xmlns="http://www.w3.org/2000/svg">
<g clip-path="url(#clip0_1311_6565)">
<path d="M24.7904 15.3493C24.5171 14.908 24.0337 14.6446 23.4973 14.6446H22.1584V12.1884C22.1584 11.5956 21.6582 11.1134 21.0435 11.1134H14.489C14.4794 11.1134 14.4729 11.1107 14.4703 11.109L13.2972 9.46835C13.0892 9.17749 12.7461 9.00391 12.3795 9.00391H8.11484C7.50002 9.00391 7 9.48621 7 10.0789V21.8615C7 22.4682 7.51224 22.9619 8.14203 22.9619H21.4087C21.6154 22.9619 21.7939 22.8426 21.8803 22.6694L21.8807 22.6695L24.8536 16.6986C25.0692 16.2659 25.0455 15.7615 24.7904 15.3493ZM8.11484 10.0586H12.3795C12.411 10.0586 12.4325 10.0725 12.4392 10.0819L13.614 11.7249C13.8123 12.0023 14.1395 12.1681 14.489 12.1681H21.0435C21.0803 12.1681 21.099 12.1854 21.1037 12.1916V14.6446H11.5597C10.9678 14.6446 10.4295 14.9781 10.1882 15.4945L8.05469 20.0603V10.0821C8.05936 10.0759 8.07803 10.0586 8.11484 10.0586ZM23.9095 16.2285L21.0821 21.9071H8.35585L11.1438 15.9411C11.2113 15.7965 11.3786 15.6992 11.5597 15.6992H23.4973C23.6658 15.6992 23.814 15.776 23.8937 15.9046C23.9384 15.9769 23.9774 16.0919 23.9095 16.2285Z" fill="url(#paint0_linear_1311_6565)"/>
</g>
<defs>
<linearGradient id="paint0_linear_1311_6565" x1="16" y1="9.00391" x2="22.9769" y2="22.1073" gradientUnits="userSpaceOnUse">
<stop stop-color="#6310E5"/>
<stop offset="1" stop-color="#8322FE"/>
</linearGradient>
<clipPath id="clip0_1311_6565">
<rect width="18" height="18" fill="white" transform="translate(7 7)"/>
</clipPath>
</defs>
</svg>
