<svg width="32" height="32" viewBox="0 0 32 32" fill="none" xmlns="http://www.w3.org/2000/svg">
<g clip-path="url(#clip0_1311_6429)">
<path d="M18.7139 19.6451H6.05642C5.47275 19.6451 5 19.1828 5 18.6121C5 18.0413 5.47275 17.579 6.05642 17.579H18.7139C19.2976 17.579 19.7704 18.0413 19.7704 18.6121C19.7704 19.1828 19.2976 19.6451 18.7139 19.6451ZM25.9436 14.3968H13.2866C12.7029 14.3968 12.2302 13.9346 12.2302 13.3638C12.2302 12.7931 12.7029 12.3308 13.2866 12.3308H25.9436C26.5273 12.3308 27 12.7931 27 13.3638C27 13.9346 26.5273 14.3968 25.9436 14.3968ZM23.3268 9.42724C23.3268 9.99776 22.8538 10.4603 22.2704 10.4603C21.687 10.4603 21.214 9.99776 21.214 9.42724C21.214 8.85672 21.687 8.39423 22.2704 8.39423C22.8538 8.39423 23.3268 8.85672 23.3268 9.42724ZM10.7858 22.5502C10.7858 23.1207 10.3128 23.5832 9.72934 23.5832C9.14589 23.5832 8.67292 23.1207 8.67292 22.5502C8.67292 21.9797 9.14589 21.5172 9.72934 21.5172C10.3128 21.5172 10.7858 21.9797 10.7858 22.5502Z" fill="url(#paint0_linear_1311_6429)"/>
<path d="M15.9942 25.9598C14.9637 25.9598 13.9458 25.8101 12.9691 25.5141C12.4122 25.3453 12.1006 24.7671 12.2731 24.2224C12.4457 23.6752 13.0386 23.3706 13.5942 23.541C14.3682 23.7759 15.1754 23.8946 15.9942 23.8946C19.577 23.8946 22.6879 21.6464 23.7356 18.2986C23.8175 18.0368 24.0025 17.8176 24.2498 17.6893C24.4971 17.5609 24.7865 17.5341 25.0541 17.6146C25.6116 17.7798 25.9252 18.358 25.7547 18.9026C24.4338 23.1231 20.5112 25.9598 15.9942 25.9598ZM7.2437 14.3899C6.90882 14.3899 6.59376 14.2346 6.39463 13.9713C6.1955 13.7081 6.13591 13.368 6.23403 13.0549C7.55519 8.83466 11.4777 6 15.9942 6C17.0255 6 18.0434 6.14971 19.0193 6.44603C19.2868 6.52707 19.5104 6.70871 19.641 6.95099C19.7715 7.19327 19.7983 7.47634 19.7154 7.73792C19.6327 7.99965 19.447 8.21849 19.1991 8.34614C18.9513 8.47379 18.6617 8.49976 18.3942 8.41832C17.6208 8.18601 16.813 8.06728 15.9942 8.06728C12.4122 8.06728 9.3008 10.3155 8.25311 13.6633C8.11718 14.097 7.70786 14.3933 7.24397 14.3938L7.2437 14.3899Z" fill="url(#paint1_linear_1311_6429)"/>
</g>
<defs>
<linearGradient id="paint0_linear_1311_6429" x1="16" y1="8.39423" x2="23.084" y2="23.3374" gradientUnits="userSpaceOnUse">
<stop stop-color="#6310E5"/>
<stop offset="1" stop-color="#8322FE"/>
</linearGradient>
<linearGradient id="paint1_linear_1311_6429" x1="15.9944" y1="6" x2="27.2862" y2="22.1596" gradientUnits="userSpaceOnUse">
<stop stop-color="#6310E5"/>
<stop offset="1" stop-color="#8322FE"/>
</linearGradient>
<clipPath id="clip0_1311_6429">
<rect width="22" height="20" fill="white" transform="translate(5 6)"/>
</clipPath>
</defs>
</svg>
