<svg width="32" height="32" viewBox="0 0 32 32" fill="none" xmlns="http://www.w3.org/2000/svg">
<path fill-rule="evenodd" clip-rule="evenodd" d="M16 24C20.4183 24 24 20.4183 24 16C24 11.5817 20.4183 8 16 8C11.5817 8 8 11.5817 8 16C8 20.4183 11.5817 24 16 24ZM16 25C20.9706 25 25 20.9706 25 16C25 11.0294 20.9706 7 16 7C11.0294 7 7 11.0294 7 16C7 20.9706 11.0294 25 16 25Z" fill="url(#paint0_linear_1311_6785)"/>
<path fill-rule="evenodd" clip-rule="evenodd" d="M16 20C18.2091 20 20 18.2091 20 16C20 13.7909 18.2091 12 16 12C13.7909 12 12 13.7909 12 16C12 18.2091 13.7909 20 16 20ZM16 21C18.7614 21 21 18.7614 21 16C21 13.2386 18.7614 11 16 11C13.2386 11 11 13.2386 11 16C11 18.7614 13.2386 21 16 21Z" fill="url(#paint1_linear_1311_6785)"/>
<path fill-rule="evenodd" clip-rule="evenodd" d="M16 7C15.4477 7 15 7.44772 15 8V11C15 11.5523 15.4477 12 16 12C16.5523 12 17 11.5523 17 11V8C17 7.44772 16.5523 7 16 7Z" fill="url(#paint2_linear_1311_6785)"/>
<path fill-rule="evenodd" clip-rule="evenodd" d="M16 20C15.4477 20 15 20.4477 15 21V24C15 24.5523 15.4477 25 16 25C16.5523 25 17 24.5523 17 24V21C17 20.4477 16.5523 20 16 20Z" fill="url(#paint3_linear_1311_6785)"/>
<path fill-rule="evenodd" clip-rule="evenodd" d="M25 16C25 15.4477 24.5523 15 24 15L21 15C20.4477 15 20 15.4477 20 16C20 16.5523 20.4477 17 21 17L24 17C24.5523 17 25 16.5523 25 16Z" fill="url(#paint4_linear_1311_6785)"/>
<path fill-rule="evenodd" clip-rule="evenodd" d="M12 16C12 15.4477 11.5523 15 11 15L8 15C7.44772 15 7 15.4477 7 16C7 16.5523 7.44772 17 8 17L11 17C11.5523 17 12 16.5523 12 16Z" fill="url(#paint5_linear_1311_6785)"/>
<defs>
<linearGradient id="paint0_linear_1311_6785" x1="16" y1="7" x2="26.1206" y2="21.7393" gradientUnits="userSpaceOnUse">
<stop stop-color="#6310E5"/>
<stop offset="1" stop-color="#8322FE"/>
</linearGradient>
<linearGradient id="paint1_linear_1311_6785" x1="16" y1="11" x2="21.6226" y2="19.1885" gradientUnits="userSpaceOnUse">
<stop stop-color="#6310E5"/>
<stop offset="1" stop-color="#8322FE"/>
</linearGradient>
<linearGradient id="paint2_linear_1311_6785" x1="16" y1="7" x2="18.6204" y2="8.52648" gradientUnits="userSpaceOnUse">
<stop stop-color="#6310E5"/>
<stop offset="1" stop-color="#8322FE"/>
</linearGradient>
<linearGradient id="paint3_linear_1311_6785" x1="16" y1="20" x2="18.6204" y2="21.5265" gradientUnits="userSpaceOnUse">
<stop stop-color="#6310E5"/>
<stop offset="1" stop-color="#8322FE"/>
</linearGradient>
<linearGradient id="paint4_linear_1311_6785" x1="25" y1="16" x2="23.4735" y2="18.6204" gradientUnits="userSpaceOnUse">
<stop stop-color="#6310E5"/>
<stop offset="1" stop-color="#8322FE"/>
</linearGradient>
<linearGradient id="paint5_linear_1311_6785" x1="12" y1="16" x2="10.4735" y2="18.6204" gradientUnits="userSpaceOnUse">
<stop stop-color="#6310E5"/>
<stop offset="1" stop-color="#8322FE"/>
</linearGradient>
</defs>
</svg>
