<svg width="32" height="32" viewBox="0 0 32 32" fill="none" xmlns="http://www.w3.org/2000/svg">
<g clip-path="url(#clip0_1311_6689)">
<path d="M20.0711 2.67667H8.84287C6.91537 2.67667 5.34711 4.24556 5.34711 6.17444V25.8256C5.34711 27.7542 6.91509 29.3233 8.84287 29.3233H23.1568C25.0843 29.3233 26.6526 27.7544 26.6526 25.8256V10.0369L20.0711 2.67667ZM20.5314 5.69139L23.9572 9.52194H20.5314V5.69139ZM23.1568 27.6567H8.84287C7.83373 27.6567 7.01281 26.8353 7.01281 25.8256V6.17444C7.01281 5.16472 7.83373 4.34333 8.84287 4.34333H18.8657V11.1886H24.9869V25.8256C24.9869 26.8353 24.166 27.6567 23.1568 27.6567Z" fill="url(#paint0_linear_1311_6689)"/>
<path d="M21.0111 12.7656C20.623 12.3769 20.1067 12.1631 19.5575 12.1631C19.0084 12.1631 18.492 12.3769 18.1039 12.7656L15.6034 15.2675C15.2148 15.6556 15.0004 16.1719 15.0004 16.7217C15.0004 17.2714 15.2145 17.7883 15.6029 18.1767L15.6514 18.2253L15.1709 18.7064L15.122 18.6575C14.7339 18.2689 14.2181 18.0547 13.669 18.0547C13.1198 18.0547 12.6038 18.2689 12.2154 18.6572L9.71237 21.1611C8.91172 21.9633 8.91255 23.2681 9.71376 24.0692L10.99 25.3458C11.3781 25.7344 11.8942 25.9483 12.443 25.9483C12.9921 25.9483 13.5082 25.7342 13.8963 25.3456L16.398 22.8431C16.7866 22.4547 17.0004 21.9381 17.0004 21.3886C17.0004 20.8392 16.7866 20.3225 16.3985 19.9347L16.3491 19.8853L16.8294 19.4042L16.8788 19.4533C17.2663 19.8419 17.7833 20.0564 18.3324 20.0564C18.8812 20.0564 19.3973 19.8425 19.7855 19.4542L22.2862 16.9503C22.6749 16.5619 22.8887 16.0453 22.8887 15.4964C22.8892 14.9469 22.6749 14.4303 22.2862 14.0419L21.0111 12.7656ZM15.22 21.1131C15.3191 21.2122 15.3341 21.3281 15.3341 21.3883C15.3341 21.4486 15.3194 21.5647 15.22 21.6642L12.7179 24.1669C12.6185 24.2667 12.5027 24.2814 12.4425 24.2814C12.3825 24.2814 12.2667 24.2667 12.1671 24.1672L10.8909 22.8903C10.739 22.7383 10.7387 22.4908 10.8903 22.3392L13.3927 19.8358C13.4924 19.7364 13.6085 19.7214 13.6687 19.7214C13.7289 19.7214 13.8444 19.7364 13.9438 19.8356L13.9932 19.885L12.4672 21.4122L13.6451 22.5906L15.1709 21.0636L15.22 21.1131ZM21.1083 15.7717L18.607 18.2756C18.5079 18.3744 18.3924 18.3894 18.3321 18.3894C18.2719 18.3894 18.1558 18.3744 18.0562 18.275L18.0068 18.2253L19.5325 16.6983L18.3543 15.52L16.8285 17.0467L16.7802 16.9981C16.6806 16.8986 16.6659 16.7825 16.6659 16.7222C16.6659 16.6619 16.6806 16.5464 16.7802 16.4467L19.2816 13.9439C19.3812 13.8444 19.4973 13.8297 19.5575 13.8297C19.6178 13.8297 19.7338 13.8444 19.8329 13.9439L21.1083 15.2203C21.208 15.3197 21.2227 15.4356 21.2227 15.4958C21.2227 15.5558 21.208 15.6719 21.1083 15.7717Z" fill="url(#paint1_linear_1311_6689)"/>
</g>
<defs>
<linearGradient id="paint0_linear_1311_6689" x1="15.9999" y1="2.67667" x2="31.8691" y2="21.1555" gradientUnits="userSpaceOnUse">
<stop stop-color="#6310E5"/>
<stop offset="1" stop-color="#8322FE"/>
</linearGradient>
<linearGradient id="paint1_linear_1311_6689" x1="16.0005" y1="12.1631" x2="23.7532" y2="23.4464" gradientUnits="userSpaceOnUse">
<stop stop-color="#6310E5"/>
<stop offset="1" stop-color="#8322FE"/>
</linearGradient>
<clipPath id="clip0_1311_6689">
<rect width="32" height="32" fill="white"/>
</clipPath>
</defs>
</svg>
