<svg width="32" height="32" viewBox="0 0 32 32" fill="none" xmlns="http://www.w3.org/2000/svg">
<path d="M11.6172 23.2961H13.8086V24.7592H11.6172V23.2961Z" fill="url(#paint0_linear_1311_6760)"/>
<path d="M11.6172 7.24084H13.8086V8.70389H11.6172V7.24084Z" fill="url(#paint1_linear_1311_6760)"/>
<path d="M18.1914 7.24084H20.3828V8.70389H18.1914V7.24084Z" fill="url(#paint2_linear_1311_6760)"/>
<path d="M23.3025 11.6172H24.7655V13.8086H23.3025V11.6172Z" fill="url(#paint3_linear_1311_6760)"/>
<path d="M7.24084 18.1914H8.7039V20.3828H7.24084V18.1914Z" fill="url(#paint4_linear_1311_6760)"/>
<path d="M7.24084 11.6172H8.7039V13.8086H7.24084V11.6172Z" fill="url(#paint5_linear_1311_6760)"/>
<path fill-rule="evenodd" clip-rule="evenodd" d="M18.0892 16.5303C17.9631 16.4787 17.8251 16.4636 17.6908 16.4865C17.5565 16.5094 17.4314 16.5696 17.3296 16.6601C17.2278 16.7506 17.1534 16.8678 17.1149 16.9984C17.0764 17.1291 17.0752 17.2679 17.1117 17.3992L19.3733 25.7047C19.4135 25.8523 19.4991 25.9834 19.618 26.0796C19.7369 26.1758 19.883 26.2321 20.0357 26.2406C20.1884 26.2491 20.3399 26.2093 20.4687 26.1269C20.5975 26.0445 20.6971 25.9236 20.7533 25.7814L22.0886 22.44L25.7558 20.9706C25.8916 20.9168 26.0081 20.8235 26.0902 20.7028C26.1722 20.582 26.2161 20.4394 26.2161 20.2933C26.2161 20.1473 26.1722 20.0047 26.0902 19.8839C26.0081 19.7632 25.8916 19.6698 25.7558 19.6161L18.0892 16.5494V16.5303Z" fill="url(#paint6_linear_1311_6760)"/>
<path fill-rule="evenodd" clip-rule="evenodd" d="M10.1606 7.24083V8.6975C10.1614 8.88987 10.1241 9.0805 10.0509 9.25839C9.97769 9.43627 9.86996 9.5979 9.73393 9.73392C9.5979 9.86995 9.43628 9.97768 9.25839 10.0509C9.08051 10.1241 8.88988 10.1614 8.69751 10.1606H7.24084C7.04847 10.1614 6.85784 10.1241 6.67995 10.0509C6.50207 9.97768 6.34044 9.86995 6.20442 9.73392C6.06839 9.5979 5.96066 9.43627 5.88743 9.25839C5.81421 9.0805 5.77694 8.88987 5.77779 8.6975V7.24083C5.77779 6.85281 5.93193 6.48067 6.2063 6.2063C6.48068 5.93192 6.85281 5.77778 7.24084 5.77778H8.69751C8.88988 5.77693 9.08051 5.8142 9.25839 5.88742C9.43628 5.96065 9.5979 6.06839 9.73393 6.20441C9.86996 6.34044 9.97769 6.50206 10.0509 6.67995C10.1241 6.85783 10.1614 7.04847 10.1606 7.24083Z" fill="url(#paint7_linear_1311_6760)"/>
<path fill-rule="evenodd" clip-rule="evenodd" d="M26.2222 7.24083V8.6975C26.2231 8.88987 26.1858 9.0805 26.1126 9.25839C26.0393 9.43628 25.9316 9.5979 25.7956 9.73392C25.6595 9.86995 25.4979 9.97768 25.32 10.0509C25.1422 10.1241 24.9515 10.1614 24.7592 10.1606H23.3025C23.1101 10.1614 22.9195 10.1241 22.7416 10.0509C22.5637 9.97768 22.4021 9.86995 22.2661 9.73392C22.13 9.5979 22.0223 9.43628 21.9491 9.25839C21.8759 9.0805 21.8386 8.88987 21.8394 8.6975V7.24083C21.8394 6.85281 21.9936 6.48067 22.268 6.2063C22.5423 5.93192 22.9145 5.77778 23.3025 5.77778H24.7655C24.9574 5.77778 25.1473 5.81567 25.3245 5.88927C25.5016 5.96287 25.6625 6.07074 25.7978 6.20668C25.9332 6.34262 26.0403 6.50396 26.1132 6.68143C26.186 6.8589 26.223 7.04901 26.2222 7.24083Z" fill="url(#paint8_linear_1311_6760)"/>
<path fill-rule="evenodd" clip-rule="evenodd" d="M10.1606 23.2961V24.7592C10.1614 24.9515 10.1241 25.1422 10.0509 25.3201C9.97769 25.4979 9.86996 25.6596 9.73393 25.7956C9.5979 25.9316 9.43628 26.0393 9.25839 26.1126C9.08051 26.1858 8.88988 26.2231 8.69751 26.2222H7.24084C7.04847 26.2231 6.85784 26.1858 6.67995 26.1126C6.50207 26.0393 6.34044 25.9316 6.20442 25.7956C6.06839 25.6596 5.96066 25.4979 5.88743 25.3201C5.81421 25.1422 5.77694 24.9515 5.77779 24.7592V23.2961C5.77779 22.9081 5.93193 22.5359 6.2063 22.2616C6.48068 21.9872 6.85281 21.8331 7.24084 21.8331H8.69751C8.88988 21.8322 9.08051 21.8695 9.25839 21.9427C9.43628 22.0159 9.5979 22.1237 9.73393 22.2597C9.86996 22.3957 9.97769 22.5573 10.0509 22.7352C10.1241 22.9131 10.1614 23.1037 10.1606 23.2961Z" fill="url(#paint9_linear_1311_6760)"/>
<defs>
<linearGradient id="paint0_linear_1311_6760" x1="12.7129" y1="23.2961" x2="13.3807" y2="24.7528" gradientUnits="userSpaceOnUse">
<stop stop-color="#6310E5"/>
<stop offset="1" stop-color="#8322FE"/>
</linearGradient>
<linearGradient id="paint1_linear_1311_6760" x1="12.7129" y1="7.24084" x2="13.3807" y2="8.69756" gradientUnits="userSpaceOnUse">
<stop stop-color="#6310E5"/>
<stop offset="1" stop-color="#8322FE"/>
</linearGradient>
<linearGradient id="paint2_linear_1311_6760" x1="19.2871" y1="7.24084" x2="19.9549" y2="8.69756" gradientUnits="userSpaceOnUse">
<stop stop-color="#6310E5"/>
<stop offset="1" stop-color="#8322FE"/>
</linearGradient>
<linearGradient id="paint3_linear_1311_6760" x1="24.034" y1="11.6172" x2="25.3537" y2="12.9004" gradientUnits="userSpaceOnUse">
<stop stop-color="#6310E5"/>
<stop offset="1" stop-color="#8322FE"/>
</linearGradient>
<linearGradient id="paint4_linear_1311_6760" x1="7.97237" y1="18.1914" x2="9.29207" y2="19.4746" gradientUnits="userSpaceOnUse">
<stop stop-color="#6310E5"/>
<stop offset="1" stop-color="#8322FE"/>
</linearGradient>
<linearGradient id="paint5_linear_1311_6760" x1="7.97237" y1="11.6172" x2="9.29207" y2="12.9004" gradientUnits="userSpaceOnUse">
<stop stop-color="#6310E5"/>
<stop offset="1" stop-color="#8322FE"/>
</linearGradient>
<linearGradient id="paint6_linear_1311_6760" x1="21.6506" y1="16.4761" x2="27.2643" y2="24.1204" gradientUnits="userSpaceOnUse">
<stop stop-color="#6310E5"/>
<stop offset="1" stop-color="#8322FE"/>
</linearGradient>
<linearGradient id="paint7_linear_1311_6760" x1="7.96917" y1="5.77776" x2="10.4334" y2="9.36662" gradientUnits="userSpaceOnUse">
<stop stop-color="#6310E5"/>
<stop offset="1" stop-color="#8322FE"/>
</linearGradient>
<linearGradient id="paint8_linear_1311_6760" x1="24.0308" y1="5.77778" x2="26.4951" y2="9.36663" gradientUnits="userSpaceOnUse">
<stop stop-color="#6310E5"/>
<stop offset="1" stop-color="#8322FE"/>
</linearGradient>
<linearGradient id="paint9_linear_1311_6760" x1="7.96917" y1="21.833" x2="10.4383" y2="25.4238" gradientUnits="userSpaceOnUse">
<stop stop-color="#6310E5"/>
<stop offset="1" stop-color="#8322FE"/>
</linearGradient>
</defs>
</svg>
