<svg width="32" height="32" viewBox="0 0 32 32" fill="none" xmlns="http://www.w3.org/2000/svg">
<g clip-path="url(#clip0_1311_6646)">
<path d="M13.5041 20.7975C13.2855 20.7979 13.0756 20.7117 12.9204 20.5578L7.74637 15.4412C7.66832 15.364 7.60636 15.2721 7.56407 15.1708C7.52178 15.0695 7.5 14.9608 7.5 14.851C7.5 14.7412 7.52178 14.6325 7.56407 14.5312C7.60636 14.4299 7.66832 14.338 7.74637 14.2608L12.9204 9.14456C13.0769 8.98975 13.2886 8.90346 13.5087 8.90468C13.7289 8.90589 13.9395 8.99451 14.0943 9.15103C14.2491 9.30756 14.3354 9.51918 14.3342 9.73932C14.333 9.95947 14.2444 10.1701 14.0878 10.3249L9.51046 14.8512L14.0878 19.3774C14.2048 19.4932 14.2847 19.641 14.3174 19.8023C14.3502 19.9635 14.3343 20.1308 14.2717 20.283C14.2092 20.4352 14.1028 20.5654 13.9661 20.657C13.8295 20.7486 13.6687 20.7975 13.5041 20.7975Z" fill="url(#paint0_linear_1311_6646)"/>
<path d="M19.9336 23.0955H18.6895C18.4693 23.0955 18.2582 23.008 18.1025 22.8524C17.9468 22.6967 17.8594 22.4856 17.8594 22.2654C17.8594 22.0453 17.9468 21.8341 18.1025 21.6785C18.2582 21.5228 18.4693 21.4353 18.6895 21.4353H19.9336C21.536 21.4353 22.8398 20.1447 22.8398 18.5583C22.8398 16.9718 21.536 15.6812 19.9336 15.6812H8.5957C8.37555 15.6812 8.16442 15.5938 8.00875 15.4381C7.85308 15.2825 7.76562 15.0713 7.76562 14.8512C7.76562 14.631 7.85308 14.4199 8.00875 14.2642C8.16442 14.1085 8.37555 14.0211 8.5957 14.0211H19.9336C22.4514 14.0211 24.5 16.0564 24.5 18.5583C24.5 21.0602 22.4514 23.0955 19.9336 23.0955Z" fill="url(#paint1_linear_1311_6646)"/>
</g>
<defs>
<linearGradient id="paint0_linear_1311_6646" x1="10.9171" y1="8.90466" x2="17.97" y2="14.8072" gradientUnits="userSpaceOnUse">
<stop stop-color="#6310E5"/>
<stop offset="1" stop-color="#8322FE"/>
</linearGradient>
<linearGradient id="paint1_linear_1311_6646" x1="16.1328" y1="14.0211" x2="19.7082" y2="23.6237" gradientUnits="userSpaceOnUse">
<stop stop-color="#6310E5"/>
<stop offset="1" stop-color="#8322FE"/>
</linearGradient>
<clipPath id="clip0_1311_6646">
<rect width="17" height="17" fill="white" transform="translate(7.5 7.5)"/>
</clipPath>
</defs>
</svg>
