<svg width="32" height="32" viewBox="0 0 32 32" fill="none" xmlns="http://www.w3.org/2000/svg">
<path d="M23.071 18.242C23.0035 18.3121 22.9228 18.3682 22.8334 18.4068C22.744 18.4454 22.6478 18.4657 22.5505 18.4667C22.4531 18.4677 22.3566 18.4492 22.2664 18.4124C22.1763 18.3756 22.0944 18.3212 22.0256 18.2523C21.9568 18.1835 21.9024 18.1016 21.8655 18.0115C21.8287 17.9214 21.8103 17.8248 21.8112 17.7275C21.8122 17.6301 21.8326 17.5339 21.8712 17.4446C21.9098 17.3552 21.9658 17.2744 22.036 17.207C22.7524 16.4907 23.2403 15.578 23.438 14.5844C23.6357 13.5908 23.5343 12.5609 23.1467 11.6249C22.759 10.689 22.1025 9.88897 21.2602 9.32612C20.4179 8.76327 19.4276 8.46285 18.4145 8.46285C17.4014 8.46285 16.4111 8.76327 15.5688 9.32612C14.7264 9.88897 14.0699 10.689 13.6823 11.6249C13.2947 12.5609 13.1933 13.5908 13.391 14.5844C13.5887 15.578 14.0766 16.4907 14.793 17.207C14.9258 17.3451 14.9991 17.5298 14.9972 17.7214C14.9953 17.913 14.9183 18.0963 14.7828 18.2318C14.6473 18.3673 14.4641 18.4442 14.2725 18.4461C14.0809 18.448 13.8962 18.3747 13.758 18.242C12.8371 17.321 12.21 16.1477 11.956 14.8703C11.7019 13.593 11.8324 12.269 12.3308 11.0658C12.8292 9.86253 13.6732 8.83413 14.7561 8.11059C15.839 7.38704 17.1121 7.00085 18.4145 7.00085C19.7169 7.00085 20.99 7.38704 22.0729 8.11059C23.1557 8.83413 23.9998 9.86253 24.4982 11.0658C24.9966 12.269 25.127 13.593 24.873 14.8703C24.619 16.1477 23.9919 17.321 23.071 18.242ZM17.207 13.758C17.07 13.8953 16.9931 14.0814 16.9931 14.2755C16.9931 14.4695 17.07 14.6556 17.207 14.793C17.9234 15.5092 18.4113 16.4219 18.609 17.4155C18.8067 18.4091 18.7053 19.439 18.3177 20.375C17.93 21.3109 17.2735 22.1109 16.4312 22.6738C15.5889 23.2366 14.5986 23.5371 13.5855 23.5371C12.5724 23.5371 11.5821 23.2366 10.7398 22.6738C9.89745 22.1109 9.24095 21.3109 8.8533 20.375C8.46565 19.439 8.36427 18.4091 8.56197 17.4155C8.75967 16.4219 9.24758 15.5092 9.96399 14.793C10.0968 14.6548 10.1701 14.4701 10.1682 14.2785C10.1663 14.0869 10.0893 13.9036 9.95381 13.7681C9.81831 13.6326 9.63509 13.5557 9.44348 13.5538C9.25187 13.5519 9.06715 13.6252 8.92899 13.758C8.00812 14.6789 7.38102 15.8522 7.12698 17.1296C6.87294 18.4069 7.00338 19.7309 7.5018 20.9341C8.00022 22.1374 8.84424 23.1658 9.92712 23.8893C11.01 24.6129 12.2831 24.999 13.5855 24.999C14.8879 24.999 16.161 24.6129 17.2439 23.8893C18.3267 23.1658 19.1708 22.1374 19.6692 20.9341C20.1676 19.7309 20.298 18.4069 20.044 17.1296C19.79 15.8522 19.1629 14.6789 18.242 13.758C18.1047 13.6207 17.9186 13.5437 17.7245 13.5437C17.5304 13.5437 17.3443 13.6207 17.207 13.758Z" fill="url(#paint0_linear_1311_6792)"/>
<defs>
<linearGradient id="paint0_linear_1311_6792" x1="16" y1="7.00085" x2="26.1194" y2="21.7391" gradientUnits="userSpaceOnUse">
<stop stop-color="#6310E5"/>
<stop offset="1" stop-color="#8322FE"/>
</linearGradient>
</defs>
</svg>
