<svg width="32" height="32" viewBox="0 0 32 32" fill="none" xmlns="http://www.w3.org/2000/svg">
<path d="M11.3 8.75H24C25.2426 8.75 26.25 9.75736 26.25 11V21C26.25 22.2426 25.2426 23.25 24 23.25H21.6222H14.7778H11.3C10.0574 23.25 9.05 22.2426 9.05 21V20.1312C9.05 19.0098 8.54818 17.9473 7.68214 17.235L6.18066 16L7.68214 14.765C8.54818 14.0527 9.05 12.9902 9.05 11.8688V11C9.05 9.75736 10.0574 8.75 11.3 8.75Z" stroke="url(#paint0_linear_1311_6384)" stroke-width="1.5"/>
<path d="M11.5097 13.969L13.6067 13.042V19H12.4997V14.563L11.5097 14.959V13.969ZM17.6954 12.799H18.6584L15.6524 19H14.6894L17.6954 12.799ZM21.2502 16.381H20.6202V15.4H21.2502C21.8082 15.409 21.9162 14.905 21.9162 14.752C21.9162 14.536 21.8172 14.167 21.3942 14.086C21.0522 14.041 20.7192 14.149 20.4852 14.446L19.6212 13.879C19.9542 13.321 20.6382 12.961 21.4032 13.006C22.4112 13.06 23.1042 13.78 23.1042 14.653C23.1042 15.139 22.7982 15.562 22.3752 15.805C22.9962 16.039 23.4192 16.777 23.3562 17.407C23.2482 18.478 22.2312 19.162 21.0882 19.081C20.2782 19.027 19.5762 18.523 19.2612 17.839C19.3422 17.794 20.1432 17.398 20.2242 17.353C20.3952 17.704 20.7732 18.01 21.1782 18.01C21.7362 18.01 22.1682 17.65 22.1682 17.137C22.1682 16.984 22.0512 16.354 21.2502 16.381Z" fill="url(#paint1_linear_1311_6384)"/>
<defs>
<linearGradient id="paint0_linear_1311_6384" x1="16" y1="8" x2="23.7057" y2="23.4306" gradientUnits="userSpaceOnUse">
<stop stop-color="#6310E5"/>
<stop offset="1" stop-color="#8322FE"/>
</linearGradient>
<linearGradient id="paint1_linear_1311_6384" x1="17.5" y1="11" x2="22.824" y2="21.5732" gradientUnits="userSpaceOnUse">
<stop stop-color="#6310E5"/>
<stop offset="1" stop-color="#8322FE"/>
</linearGradient>
</defs>
</svg>
