<svg width="32" height="32" viewBox="0 0 32 32" fill="none" xmlns="http://www.w3.org/2000/svg">
<path d="M21.2451 17.6608L20.4861 6.42139C20.3943 5.06366 19.2565 4 17.8957 4H14.1045C12.7435 4 11.6057 5.06366 11.5139 6.42139L10.7549 17.6608C10.1729 18.0367 9.7865 18.6906 9.7865 19.4336V20.7507C9.7865 21.7918 10.5449 22.6586 11.5383 22.8291L11.1461 27.2346C11.1116 27.6213 11.3973 27.9628 11.7842 27.9973C11.8054 27.9991 11.8263 28 11.8474 28C12.2075 28 12.5142 27.7248 12.5468 27.3591L12.6777 25.889H19.3225L19.4532 27.3591C19.4858 27.7248 19.7927 28 20.1528 28C20.1737 28 20.1948 27.9991 20.216 27.9973C20.6027 27.9628 20.8884 27.6213 20.8539 27.2346L20.4619 22.8291C21.4551 22.6586 22.2135 21.7918 22.2135 20.7507V19.4336C22.2135 18.6906 21.8272 18.0367 21.2451 17.6608ZM20.8073 19.4336V20.7507C20.8073 21.1383 20.4919 21.4538 20.1041 21.4538H11.8959C11.5082 21.4538 11.1927 21.1383 11.1927 20.7507V19.4336C11.1927 19.0458 11.5082 18.7305 11.8959 18.7305H20.1041C20.4919 18.7305 20.8073 19.0458 20.8073 19.4336ZM12.9473 22.86H19.0527L19.1972 24.4827H12.8028L12.9473 22.86ZM14.1045 5.40625H17.8957C18.5195 5.40625 19.041 5.89368 19.0831 6.51605L19.813 17.3242H12.1872L12.9171 6.51605C12.9592 5.89368 13.4807 5.40625 14.1045 5.40625Z" fill="url(#paint0_linear_1311_6377)"/>
<defs>
<linearGradient id="paint0_linear_1311_6377" x1="16" y1="4" x2="29.9016" y2="14.4831" gradientUnits="userSpaceOnUse">
<stop stop-color="#6310E5"/>
<stop offset="1" stop-color="#8322FE"/>
</linearGradient>
</defs>
</svg>
