<svg width="32" height="32" viewBox="0 0 32 32" fill="none" xmlns="http://www.w3.org/2000/svg">
<path fill-rule="evenodd" clip-rule="evenodd" d="M19.1106 18.3726C20.2206 17.3138 21 15.9331 21 14.5C21 11.3856 18.6876 9 16 9C13.3124 9 11 11.3856 11 14.5C11 15.9331 11.7794 17.3138 12.8894 18.3726C14.0275 19.4584 15.2923 20 16 20C16.7077 20 17.9725 19.4584 19.1106 18.3726ZM16 21C18.1357 21 22 18.0899 22 14.5C22 10.9101 19.3137 8 16 8C12.6863 8 10 10.9101 10 14.5C10 18.0899 13.8643 21 16 21Z" fill="url(#paint0_linear_1311_6706)"/>
<path fill-rule="evenodd" clip-rule="evenodd" d="M13.6683 10.5014C13.8667 10.516 14.0375 10.6468 14.1034 10.8345C14.295 11.3805 14.846 11.8053 15.5749 12.0987C16.0652 12.2961 16.5822 12.4114 17 12.4645V12C17 11.773 17.1529 11.5745 17.3724 11.5166C17.8959 11.3784 18.6419 11.5048 19.43 11.982C20.2313 12.4672 21.1105 13.3318 21.9325 14.7491C22.0711 14.988 21.9897 15.294 21.7509 15.4325C21.512 15.5711 21.206 15.4897 21.0675 15.2509C20.3106 13.9459 19.5406 13.218 18.9121 12.8374C18.5422 12.6135 18.2313 12.5145 18 12.4798V13C18 13.2761 17.7761 13.5 17.5 13.5C16.9379 13.5 16.0388 13.3634 15.2015 13.0263C14.6621 12.8092 14.0973 12.4877 13.6776 12.0237C13.5177 12.3351 13.3338 12.6666 13.1181 12.9702C12.6792 13.5879 12.0666 14.1637 11.1355 14.4257C10.8697 14.5006 10.5935 14.3457 10.5187 14.0799C10.4439 13.8141 10.5987 13.538 10.8645 13.4632C11.5124 13.2808 11.9524 12.8844 12.3029 12.391C12.5659 12.0208 12.7566 11.634 12.9494 11.2427C13.0273 11.0846 13.1056 10.9258 13.1891 10.7671C13.2818 10.5911 13.4699 10.4867 13.6683 10.5014Z" fill="url(#paint1_linear_1311_6706)"/>
<path d="M14 14.5C14 14.7761 13.7761 15 13.5 15C13.2239 15 13 14.7761 13 14.5C13 14.2239 13.2239 14 13.5 14C13.7761 14 14 14.2239 14 14.5Z" fill="url(#paint2_linear_1311_6706)"/>
<path d="M19 14.5C19 14.7761 18.7761 15 18.5 15C18.2239 15 18 14.7761 18 14.5C18 14.2239 18.2239 14 18.5 14C18.7761 14 19 14.2239 19 14.5Z" fill="url(#paint3_linear_1311_6706)"/>
<path d="M9 13C9 12.4477 9.44772 12 10 12V12C10.5523 12 11 12.4477 11 13V16C11 16.5523 10.5523 17 10 17V17C9.44772 17 9 16.5523 9 16V13Z" fill="url(#paint4_linear_1311_6706)"/>
<path d="M16 17C16.5523 17 17 17.4477 17 18V18C17 18.5523 16.5523 19 16 19L15 19C14.4477 19 14 18.5523 14 18V18C14 17.4477 14.4477 17 15 17L16 17Z" fill="url(#paint5_linear_1311_6706)"/>
<path d="M21 13C21 12.4477 21.4477 12 22 12V12C22.5523 12 23 12.4477 23 13V16C23 16.5523 22.5523 17 22 17V17C21.4477 17 21 16.5523 21 16V13Z" fill="url(#paint6_linear_1311_6706)"/>
<path fill-rule="evenodd" clip-rule="evenodd" d="M9.5 12C9.5 8.96243 11.9624 6.5 15 6.5H17C20.0376 6.5 22.5 8.96243 22.5 12V13H21.5V12C21.5 9.51472 19.4853 7.5 17 7.5H15C12.5147 7.5 10.5 9.51472 10.5 12V13H9.5V12Z" fill="url(#paint7_linear_1311_6706)"/>
<path fill-rule="evenodd" clip-rule="evenodd" d="M10.25 13C10.25 15.6234 12.3766 17.75 15 17.75L15 18.25C12.1005 18.25 9.75 15.8995 9.75 13L9.75 11L10.25 11L10.25 13Z" fill="url(#paint8_linear_1311_6706)"/>
<path fill-rule="evenodd" clip-rule="evenodd" d="M13 20.5C11.067 20.5 9.5 22.067 9.5 24V25C9.5 25.2761 9.27614 25.5 9 25.5C8.72386 25.5 8.5 25.2761 8.5 25V24C8.5 21.5147 10.5147 19.5 13 19.5H14C14.2761 19.5 14.5 19.7239 14.5 20C14.5 20.2761 14.2761 20.5 14 20.5H13ZM17.5 20C17.5 19.7239 17.7239 19.5 18 19.5H19C21.4853 19.5 23.5 21.5147 23.5 24V25C23.5 25.2761 23.2761 25.5 23 25.5C22.7239 25.5 22.5 25.2761 22.5 25V24C22.5 22.067 20.933 20.5 19 20.5H18C17.7239 20.5 17.5 20.2761 17.5 20Z" fill="url(#paint9_linear_1311_6706)"/>
<defs>
<linearGradient id="paint0_linear_1311_6706" x1="16" y1="8" x2="23.5012" y2="18.0841" gradientUnits="userSpaceOnUse">
<stop stop-color="#6310E5"/>
<stop offset="1" stop-color="#8322FE"/>
</linearGradient>
<linearGradient id="paint1_linear_1311_6706" x1="16.25" y1="10.5" x2="17.9014" y2="16.0317" gradientUnits="userSpaceOnUse">
<stop stop-color="#6310E5"/>
<stop offset="1" stop-color="#8322FE"/>
</linearGradient>
<linearGradient id="paint2_linear_1311_6706" x1="13.5" y1="14" x2="14.0623" y2="14.8188" gradientUnits="userSpaceOnUse">
<stop stop-color="#6310E5"/>
<stop offset="1" stop-color="#8322FE"/>
</linearGradient>
<linearGradient id="paint3_linear_1311_6706" x1="18.5" y1="14" x2="19.0623" y2="14.8188" gradientUnits="userSpaceOnUse">
<stop stop-color="#6310E5"/>
<stop offset="1" stop-color="#8322FE"/>
</linearGradient>
<linearGradient id="paint4_linear_1311_6706" x1="10" y1="12" x2="12.6204" y2="13.5265" gradientUnits="userSpaceOnUse">
<stop stop-color="#6310E5"/>
<stop offset="1" stop-color="#8322FE"/>
</linearGradient>
<linearGradient id="paint5_linear_1311_6706" x1="17" y1="18" x2="15.246" y2="19.8066" gradientUnits="userSpaceOnUse">
<stop stop-color="#6310E5"/>
<stop offset="1" stop-color="#8322FE"/>
</linearGradient>
<linearGradient id="paint6_linear_1311_6706" x1="22" y1="12" x2="24.6204" y2="13.5265" gradientUnits="userSpaceOnUse">
<stop stop-color="#6310E5"/>
<stop offset="1" stop-color="#8322FE"/>
</linearGradient>
<linearGradient id="paint7_linear_1311_6706" x1="16" y1="6.5" x2="18.4054" y2="13.5061" gradientUnits="userSpaceOnUse">
<stop stop-color="#6310E5"/>
<stop offset="1" stop-color="#8322FE"/>
</linearGradient>
<linearGradient id="paint8_linear_1311_6706" x1="12.375" y1="18.25" x2="8.01335" y2="13.6502" gradientUnits="userSpaceOnUse">
<stop stop-color="#6310E5"/>
<stop offset="1" stop-color="#8322FE"/>
</linearGradient>
<linearGradient id="paint9_linear_1311_6706" x1="16" y1="19.5" x2="17.8463" y2="26.2224" gradientUnits="userSpaceOnUse">
<stop stop-color="#6310E5"/>
<stop offset="1" stop-color="#8322FE"/>
</linearGradient>
</defs>
</svg>
