<svg width="32" height="32" viewBox="0 0 32 32" fill="none" xmlns="http://www.w3.org/2000/svg">
<g clip-path="url(#clip0_1311_6438)">
<path d="M17.8837 17.1551C18.0788 17.1551 18.2659 17.0776 18.4039 16.9396C18.5419 16.8016 18.6194 16.6145 18.6194 16.4194V14.5357H20.2969V16.4194C20.3145 16.6014 20.3993 16.7702 20.5346 16.8931C20.67 17.016 20.8462 17.084 21.029 17.084C21.2118 17.084 21.3881 17.016 21.5235 16.8931C21.6588 16.7702 21.7436 16.6014 21.7612 16.4194V14.5357H22.6C22.7021 14.5456 22.8052 14.534 22.9025 14.5017C22.9999 14.4694 23.0895 14.4171 23.1654 14.3482C23.2414 14.2792 23.3021 14.1952 23.3436 14.1014C23.3852 14.0075 23.4066 13.9061 23.4066 13.8035C23.4066 13.7009 23.3852 13.5994 23.3436 13.5056C23.3021 13.4118 23.2414 13.3277 23.1654 13.2588C23.0895 13.1898 22.9999 13.1375 22.9025 13.1053C22.8052 13.073 22.7021 13.0614 22.6 13.0713H15.3125C15.1322 12.2652 14.6609 11.5539 13.9888 11.0737C13.3167 10.5935 12.4911 10.3781 11.67 10.4688C10.849 10.5595 10.0903 10.9498 9.53918 11.5652C8.98808 12.1805 8.68335 12.9775 8.68335 13.8035C8.68335 14.6295 8.98808 15.4265 9.53918 16.0418C10.0903 16.6571 10.849 17.0475 11.67 17.1382C12.4911 17.2289 13.3167 17.0135 13.9888 16.5333C14.6609 16.0531 15.1322 15.3418 15.3125 14.5357H17.1825V16.4194C17.1823 16.6087 17.255 16.7908 17.3856 16.9278C17.5163 17.0648 17.6946 17.1462 17.8837 17.1551ZM12.0194 15.6907C11.6486 15.6839 11.2881 15.5679 10.983 15.3571C10.678 15.1464 10.4419 14.8503 10.3043 14.5059C10.1668 14.1615 10.134 13.7843 10.2099 13.4213C10.2859 13.0584 10.4673 12.7259 10.7314 12.4657C10.9955 12.2054 11.3305 12.0288 11.6945 11.9581C12.0585 11.8874 12.4353 11.9256 12.7776 12.0681C13.1199 12.2106 13.4126 12.4509 13.6189 12.759C13.8252 13.0671 13.9361 13.4293 13.9375 13.8001C13.9366 14.0501 13.8861 14.2975 13.789 14.5279C13.6919 14.7583 13.55 14.9671 13.3716 15.1423C13.1932 15.3175 12.9818 15.4556 12.7497 15.5485C12.5176 15.6415 12.2694 15.6874 12.0194 15.6838V15.6907Z" fill="url(#paint0_linear_1311_6438)"/>
<path d="M25.9275 6.07252C25.588 5.73108 25.184 5.46045 24.7391 5.27634C24.2942 5.09223 23.8171 4.99831 23.3356 5.00002H8.66437C7.69252 5.00002 6.76047 5.38609 6.07327 6.07329C5.38607 6.7605 5 7.69254 5 8.6644V18.9356C5.00182 19.9069 5.38847 20.8379 6.07528 21.5247C6.76209 22.2116 7.69308 22.5982 8.66437 22.6H15.2644V25.5356H12.3356C12.2335 25.5257 12.1305 25.5373 12.0331 25.5696C11.9357 25.6019 11.8461 25.6542 11.7702 25.7231C11.6942 25.7921 11.6335 25.8762 11.592 25.97C11.5504 26.0638 11.529 26.1652 11.529 26.2678C11.529 26.3704 11.5504 26.4719 11.592 26.5657C11.6335 26.6595 11.6942 26.7436 11.7702 26.8125C11.8461 26.8815 11.9357 26.9338 12.0331 26.9661C12.1305 26.9984 12.2335 27.0099 12.3356 27H19.6644C19.7665 27.0099 19.8695 26.9984 19.9669 26.9661C20.0643 26.9338 20.1539 26.8815 20.2298 26.8125C20.3058 26.7436 20.3665 26.6595 20.408 26.5657C20.4496 26.4719 20.471 26.3704 20.471 26.2678C20.471 26.1652 20.4496 26.0638 20.408 25.97C20.3665 25.8762 20.3058 25.7921 20.2298 25.7231C20.1539 25.6542 20.0643 25.6019 19.9669 25.5696C19.8695 25.5373 19.7665 25.5257 19.6644 25.5356H16.7356V21.8644C16.7338 21.6705 16.6555 21.4851 16.5177 21.3487C16.38 21.2122 16.1939 21.1356 16 21.1356H8.66437C8.0809 21.1356 7.52132 20.9039 7.10874 20.4913C6.69616 20.0787 6.46437 19.5191 6.46437 18.9356V8.6644C6.46437 8.08092 6.69616 7.52134 7.10874 7.10876C7.52132 6.69618 8.0809 6.4644 8.66437 6.4644H23.3356C23.9191 6.4644 24.4787 6.69618 24.8913 7.10876C25.3038 7.52134 25.5356 8.08092 25.5356 8.6644V18.9356C25.5356 19.5191 25.3038 20.0787 24.8913 20.4913C24.4787 20.9039 23.9191 21.1356 23.3356 21.1356H18.9356C18.8335 21.1257 18.7305 21.1373 18.6331 21.1696C18.5357 21.2019 18.4461 21.2542 18.3702 21.3231C18.2942 21.3921 18.2335 21.4762 18.192 21.57C18.1504 21.6638 18.129 21.7652 18.129 21.8678C18.129 21.9704 18.1504 22.0719 18.192 22.1657C18.2335 22.2595 18.2942 22.3436 18.3702 22.4125C18.4461 22.4815 18.5357 22.5338 18.6331 22.5661C18.7305 22.5984 18.8335 22.6099 18.9356 22.6H23.3356C24.3075 22.6 25.2395 22.214 25.9267 21.5268C26.6139 20.8395 27 19.9075 27 18.9356V8.6644C27.0017 8.18289 26.9078 7.70583 26.7237 7.2609C26.5396 6.81598 26.2689 6.41204 25.9275 6.07252Z" fill="url(#paint1_linear_1311_6438)"/>
</g>
<defs>
<linearGradient id="paint0_linear_1311_6438" x1="16.045" y1="10.4485" x2="18.3494" y2="17.8124" gradientUnits="userSpaceOnUse">
<stop stop-color="#6310E5"/>
<stop offset="1" stop-color="#8322FE"/>
</linearGradient>
<linearGradient id="paint1_linear_1311_6438" x1="16" y1="5" x2="28.3723" y2="23.0157" gradientUnits="userSpaceOnUse">
<stop stop-color="#6310E5"/>
<stop offset="1" stop-color="#8322FE"/>
</linearGradient>
<clipPath id="clip0_1311_6438">
<rect width="22" height="22" fill="white" transform="translate(5 5)"/>
</clipPath>
</defs>
</svg>
