<svg width="32" height="32" viewBox="0 0 32 32" fill="none" xmlns="http://www.w3.org/2000/svg">
<path d="M26.0625 20.3125H23.1875V7.73435C23.1875 7.06716 22.9225 6.4273 22.4507 5.95553C21.9789 5.48376 21.3391 5.21872 20.6719 5.21872C20.6719 5.21872 8.71763 5.21082 7.73438 5.21872C7.06719 5.21872 6.42733 5.48376 5.95556 5.95553C5.48379 6.4273 5.21875 7.06716 5.21875 7.73435V10.9687C5.21875 11.1593 5.29448 11.3422 5.42927 11.477C5.56406 11.6117 5.74688 11.6875 5.9375 11.6875H8.8125V24.2656C8.8125 24.9328 9.07754 25.5726 9.54931 26.0444C10.0211 26.5162 10.6609 26.7812 11.3281 26.7812H24.2656C24.9328 26.7812 25.5727 26.5162 26.0444 26.0444C26.5162 25.5726 26.7812 24.9328 26.7812 24.2656V21.0312C26.7812 20.8406 26.7055 20.6578 26.5707 20.523C26.4359 20.3882 26.2531 20.3125 26.0625 20.3125ZM8.8125 10.25H6.65625V7.73435C6.65625 7.44841 6.76984 7.17419 6.97203 6.972C7.17421 6.76981 7.44844 6.65622 7.73438 6.65622C7.87617 6.65546 8.01671 6.68283 8.14786 6.73674C8.279 6.79065 8.39816 6.87003 8.49842 6.9703C8.59869 7.07057 8.67807 7.18972 8.73199 7.32087C8.7859 7.45202 8.81326 7.59255 8.8125 7.73435V10.25ZM10.25 24.2656V7.73435C10.251 7.36161 10.169 6.99332 10.0099 6.65622H20.6719C20.9578 6.65622 21.232 6.76981 21.4342 6.972C21.6364 7.17419 21.75 7.44841 21.75 7.73435V20.3125H13.125C12.9344 20.3125 12.7516 20.3882 12.6168 20.523C12.482 20.6578 12.4062 20.8406 12.4062 21.0312V24.2656C12.4062 24.5515 12.2927 24.8258 12.0905 25.0279C11.8883 25.2301 11.6141 25.3437 11.3281 25.3437C11.0422 25.3437 10.768 25.2301 10.5658 25.0279C10.3636 24.8258 10.25 24.5515 10.25 24.2656ZM25.3438 24.2656C25.3438 24.5515 25.2302 24.8258 25.028 25.0279C24.8258 25.2301 24.5516 25.3437 24.2656 25.3437H13.5915C13.7554 25.0078 13.8416 24.6394 13.8438 24.2656V21.75H25.3438V24.2656Z" fill="url(#paint0_linear_1311_6698)"/>
<defs>
<linearGradient id="paint0_linear_1311_6698" x1="16" y1="5.21521" x2="28.1263" y2="22.8727" gradientUnits="userSpaceOnUse">
<stop stop-color="#6310E5"/>
<stop offset="1" stop-color="#8322FE"/>
</linearGradient>
</defs>
</svg>
