<svg width="32" height="32" viewBox="0 0 32 32" fill="none" xmlns="http://www.w3.org/2000/svg">
<rect x="6.75" y="8.75" width="18.5" height="14.5" rx="2.25" stroke="url(#paint0_linear_1311_6582)" stroke-width="1.5"/>
<path d="M14.9156 19L14.2856 17.33H11.7156L11.0856 19H9.72559L12.3056 12.11H13.6856L16.2656 19H14.9156ZM12.9956 13.58L12.1456 16.21H13.8656L12.9956 13.58ZM20.37 19V18.37C20.11 18.84 19.51 19.1 18.9 19.1C17.68 19.1 16.61 18.15 16.61 16.67C16.61 15.18 17.67 14.23 18.9 14.23C19.52 14.23 20.11 14.48 20.37 14.95V11.79H21.58V19H20.37ZM20.35 16.65C20.35 15.85 19.73 15.39 19.1 15.39C18.42 15.39 17.87 15.89 17.87 16.65C17.87 17.42 18.42 17.93 19.1 17.93C19.77 17.93 20.35 17.43 20.35 16.65Z" fill="url(#paint1_linear_1311_6582)"/>
<defs>
<linearGradient id="paint0_linear_1311_6582" x1="16" y1="8" x2="24.1352" y2="22.8099" gradientUnits="userSpaceOnUse">
<stop stop-color="#6310E5"/>
<stop offset="1" stop-color="#8322FE"/>
</linearGradient>
<linearGradient id="paint1_linear_1311_6582" x1="16" y1="12" x2="19.2776" y2="20.3533" gradientUnits="userSpaceOnUse">
<stop stop-color="#6310E5"/>
<stop offset="1" stop-color="#8322FE"/>
</linearGradient>
</defs>
</svg>
