<svg width="32" height="32" viewBox="0 0 32 32" fill="none" xmlns="http://www.w3.org/2000/svg">
<path fill-rule="evenodd" clip-rule="evenodd" d="M23 24.5C23.2761 24.5 23.5 24.2761 23.5 24L23.5 8C23.5 7.72386 23.2761 7.5 23 7.5L8 7.5C7.72386 7.5 7.5 7.72386 7.5 8L7.5 24C7.5 24.2761 7.72386 24.5 8 24.5H23ZM25 8C25 6.89543 24.1046 6 23 6H8C6.89543 6 6 6.89543 6 8V24C6 25.1046 6.89543 26 8 26H23C24.1046 26 25 25.1046 25 24L25 8ZM14 11.5C14 11.2239 14.2239 11 14.5 11H21.5C21.7761 11 22 11.2239 22 11.5C22 11.7761 21.7761 12 21.5 12H14.5C14.2239 12 14 11.7761 14 11.5ZM14.5 16C14.2239 16 14 16.2239 14 16.5C14 16.7761 14.2239 17 14.5 17H21.5C21.7761 17 22 16.7761 22 16.5C22 16.2239 21.7761 16 21.5 16H14.5ZM14 21.5C14 21.2239 14.2239 21 14.5 21H21.5C21.7761 21 22 21.2239 22 21.5C22 21.7761 21.7761 22 21.5 22H14.5C14.2239 22 14 21.7761 14 21.5ZM11.6204 9.6746C11.8001 9.46494 12.1157 9.44066 12.3254 9.62037C12.5351 9.80008 12.5593 10.1157 12.3796 10.3254L10.6653 12.3254L10.3807 12.6574L10.0138 12.4196L8.72805 11.5862C8.49633 11.4361 8.43023 11.1264 8.58042 10.8947C8.73062 10.663 9.04022 10.5969 9.27195 10.7471L10.1907 11.3426L11.6204 9.6746ZM12.3254 14.6204C12.1157 14.4407 11.8001 14.4649 11.6204 14.6746L10.1907 16.3426L9.27195 15.7471C9.04022 15.5969 8.73062 15.663 8.58042 15.8947C8.43023 16.1264 8.49633 16.4361 8.72805 16.5862L10.0138 17.4196L10.3807 17.6574L10.6653 17.3254L12.3796 15.3254C12.5593 15.1157 12.5351 14.8001 12.3254 14.6204ZM11.6204 19.6746C11.8001 19.4649 12.1157 19.4407 12.3254 19.6204C12.5351 19.8001 12.5593 20.1157 12.3796 20.3254L10.6653 22.3254L10.3807 22.6574L10.0138 22.4196L8.72805 21.5862C8.49633 21.4361 8.43023 21.1264 8.58042 20.8947C8.73062 20.663 9.04022 20.5969 9.27195 20.7471L10.1907 21.3426L11.6204 19.6746Z" fill="#6310E5"/>
</svg>
