<svg width="32" height="32" viewBox="0 0 32 32" fill="none" xmlns="http://www.w3.org/2000/svg">
<path fill-rule="evenodd" clip-rule="evenodd" d="M15.25 7.78363C11.0451 8.16255 7.75 11.6965 7.75 16C7.75 20.5563 11.4437 24.25 16 24.25C20.3035 24.25 23.8374 20.9549 24.2164 16.75H16C15.5858 16.75 15.25 16.4142 15.25 16V7.78363ZM6.25 16C6.25 10.6152 10.6152 6.25 16 6.25C16.4142 6.25 16.75 6.58579 16.75 7V15.25H25C25.4142 15.25 25.75 15.5858 25.75 16C25.75 21.3848 21.3848 25.75 16 25.75C10.6152 25.75 6.25 21.3848 6.25 16Z" fill="url(#paint0_linear_1311_6414)"/>
<path fill-rule="evenodd" clip-rule="evenodd" d="M24.9291 13C24.4906 9.93431 22.0657 7.5094 19 7.07089V13H24.9291ZM25.9381 13C25.4869 9.38128 22.6187 6.51314 19 6.06189C18.6724 6.02104 18.3387 6 18 6V14H26C26 13.6613 25.979 13.3276 25.9381 13Z" fill="url(#paint1_linear_1311_6414)"/>
<defs>
<linearGradient id="paint0_linear_1311_6414" x1="16" y1="6.25" x2="26.964" y2="22.2176" gradientUnits="userSpaceOnUse">
<stop stop-color="#6310E5"/>
<stop offset="1" stop-color="#8322FE"/>
</linearGradient>
<linearGradient id="paint1_linear_1311_6414" x1="22" y1="6" x2="26.498" y2="12.5508" gradientUnits="userSpaceOnUse">
<stop stop-color="#6310E5"/>
<stop offset="1" stop-color="#8322FE"/>
</linearGradient>
</defs>
</svg>
