<svg width="32" height="32" viewBox="0 0 32 32" fill="none" xmlns="http://www.w3.org/2000/svg">
<path d="M23.2917 20.3625V19.125C23.2917 18.5489 22.826 18.0833 22.25 18.0833H17.0417V17.0416H20.1667C20.7427 17.0416 21.2083 16.576 21.2083 16V14.4375C21.2083 12.9354 20.5094 11.6614 19.2969 10.8406C19.5344 10.3562 19.6781 9.81977 19.6781 9.24581C19.6781 7.22602 18.0354 5.58331 16.0167 5.58331C13.9979 5.58331 12.3542 7.22602 12.3542 9.24581C12.3542 9.81352 12.4958 10.3458 12.726 10.826C11.5 11.6416 10.7917 12.9208 10.7917 14.4375V16C10.7917 16.576 11.2573 17.0416 11.8333 17.0416H14.9583V18.0833H9.75C9.17396 18.0833 8.70834 18.5489 8.70834 19.125V20.3198C7.48125 20.7469 6.59271 21.9041 6.59271 23.275C6.59271 25.0073 8.00105 26.4166 9.73334 26.4166C11.4656 26.4166 12.875 25.0073 12.875 23.275C12.875 21.9156 12.0021 20.7666 10.7917 20.3302V20.1666H16H21.2083V20.3531C19.9813 20.7802 19.0927 21.9375 19.0927 23.3083C19.0927 25.0406 20.5021 26.45 22.2344 26.45C23.9667 26.45 25.375 25.0406 25.375 23.3083C25.375 21.9489 24.5021 20.7989 23.2917 20.3625ZM16.0167 7.66665C16.8875 7.66665 17.5958 8.37498 17.5958 9.24581C17.5958 10.1166 16.8875 10.825 16.0167 10.825C15.1458 10.825 14.4375 10.1166 14.4375 9.24581C14.4375 8.37498 15.1458 7.66665 16.0167 7.66665ZM12.875 14.4375C12.875 13.3 13.5594 12.701 14.1677 12.3885C14.7115 12.7104 15.3385 12.9073 16.0156 12.9073C16.6885 12.9073 17.3094 12.7114 17.8521 12.3948C18.5063 12.7344 19.125 13.3406 19.125 14.4375V14.9583H12.875V14.4375ZM9.73334 24.3333C9.15 24.3333 8.675 23.8583 8.675 23.275C8.675 22.7177 9.11355 22.2708 9.66042 22.2312C9.69167 22.2344 9.71875 22.25 9.75 22.25C9.775 22.25 9.79688 22.2375 9.82188 22.2354C10.3625 22.2823 10.7917 22.7239 10.7917 23.275C10.7917 23.8583 10.3167 24.3333 9.73334 24.3333ZM22.2333 24.3656C21.65 24.3656 21.175 23.8906 21.175 23.3073C21.175 22.7239 21.651 22.25 22.2333 22.25C22.8156 22.25 23.2917 22.725 23.2917 23.3083C23.2917 23.8916 22.8167 24.3656 22.2333 24.3656Z" fill="url(#paint0_linear_1311_6713)"/>
<defs>
<linearGradient id="paint0_linear_1311_6713" x1="15.9839" y1="5.58331" x2="28.1082" y2="21.477" gradientUnits="userSpaceOnUse">
<stop stop-color="#6310E5"/>
<stop offset="1" stop-color="#8322FE"/>
</linearGradient>
</defs>
</svg>
