<svg width="32" height="32" viewBox="0 0 32 32" fill="none" xmlns="http://www.w3.org/2000/svg">
<path fill-rule="evenodd" clip-rule="evenodd" d="M13.1727 8.17266C14.0035 7.34185 15.23 7.04169 16.75 7.04169H20.25C21.77 7.04169 22.9966 7.34185 23.8274 8.17266C24.6582 9.00347 24.9584 10.23 24.9584 11.75C24.9584 12.0952 24.6785 12.375 24.3334 12.375C23.9882 12.375 23.7084 12.0952 23.7084 11.75C23.7084 10.3533 23.4252 9.53824 22.9435 9.05655C22.4618 8.57485 21.6467 8.29169 20.25 8.29169H16.75C15.3534 8.29169 14.5383 8.57485 14.0565 9.05655C13.5749 9.53824 13.2917 10.3533 13.2917 11.75V12.0417H15.25C16.77 12.0417 17.9966 12.3419 18.8274 13.1727C19.6582 14.0035 19.9584 15.23 19.9584 16.75V18.7084H20.25C21.6467 18.7084 22.4618 18.4252 22.9435 17.9435C23.4252 17.4618 23.7084 16.6467 23.7084 15.25C23.7084 14.9049 23.9882 14.625 24.3334 14.625C24.6785 14.625 24.9584 14.9049 24.9584 15.25C24.9584 16.77 24.6582 17.9966 23.8274 18.8274C22.9966 19.6582 21.77 19.9584 20.25 19.9584H19.3334C18.9882 19.9584 18.7084 19.6785 18.7084 19.3334V16.75C18.7084 15.3534 18.4252 14.5383 17.9435 14.0565C17.4618 13.5749 16.6467 13.2917 15.25 13.2917H12.6667C12.3215 13.2917 12.0417 13.0119 12.0417 12.6667V11.75C12.0417 10.23 12.3419 9.00347 13.1727 8.17266Z" fill="url(#paint0_linear_1311_6749)"/>
<path fill-rule="evenodd" clip-rule="evenodd" d="M8.17266 13.1727C9.00347 12.3419 10.23 12.0417 11.75 12.0417H15.25C16.77 12.0417 17.9966 12.3419 18.8274 13.1727C19.6582 14.0035 19.9584 15.23 19.9584 16.75V20.25C19.9584 21.77 19.6582 22.9966 18.8274 23.8274C17.9966 24.6582 16.77 24.9584 15.25 24.9584H11.75C10.23 24.9584 9.00347 24.6582 8.17266 23.8274C7.34185 22.9966 7.04169 21.77 7.04169 20.25C7.04169 19.9049 7.32151 19.625 7.66669 19.625C8.01186 19.625 8.29169 19.9049 8.29169 20.25C8.29169 21.6467 8.57485 22.4618 9.05655 22.9435C9.53824 23.4252 10.3533 23.7084 11.75 23.7084H15.25C16.6467 23.7084 17.4618 23.4252 17.9435 22.9435C18.4252 22.4618 18.7084 21.6467 18.7084 20.25V16.75C18.7084 15.3534 18.4252 14.5383 17.9435 14.0565C17.4618 13.5749 16.6467 13.2917 15.25 13.2917H11.75C10.3533 13.2917 9.53824 13.5749 9.05655 14.0565C8.57485 14.5383 8.29169 15.3534 8.29169 16.75C8.29169 17.0952 8.01186 17.375 7.66669 17.375C7.32151 17.375 7.04169 17.0952 7.04169 16.75C7.04169 15.23 7.34185 14.0035 8.17266 13.1727Z" fill="url(#paint1_linear_1311_6749)"/>
<path fill-rule="evenodd" clip-rule="evenodd" d="M16.3747 16.4325C16.6191 16.6763 16.6196 17.072 16.3759 17.3164L13.1342 20.5664C13.0171 20.6839 12.858 20.75 12.6921 20.75C12.5262 20.7501 12.3671 20.6843 12.2498 20.567L10.6248 18.942C10.3807 18.6979 10.3807 18.3022 10.6248 18.0581C10.8688 17.814 11.2646 17.814 11.5087 18.0581L12.6911 19.2406L15.4909 16.4337C15.7346 16.1893 16.1304 16.1888 16.3747 16.4325Z" fill="url(#paint2_linear_1311_6749)"/>
<defs>
<linearGradient id="paint0_linear_1311_6749" x1="18.5" y1="7.04169" x2="25.7625" y2="17.6185" gradientUnits="userSpaceOnUse">
<stop stop-color="#6310E5"/>
<stop offset="1" stop-color="#8322FE"/>
</linearGradient>
<linearGradient id="paint1_linear_1311_6749" x1="13.5" y1="12.0417" x2="20.7625" y2="22.6185" gradientUnits="userSpaceOnUse">
<stop stop-color="#6310E5"/>
<stop offset="1" stop-color="#8322FE"/>
</linearGradient>
<linearGradient id="paint2_linear_1311_6749" x1="13.5" y1="16.2501" x2="15.6822" y2="20.5698" gradientUnits="userSpaceOnUse">
<stop stop-color="#6310E5"/>
<stop offset="1" stop-color="#8322FE"/>
</linearGradient>
</defs>
</svg>
