<svg width="32" height="32" viewBox="0 0 32 32" fill="none" xmlns="http://www.w3.org/2000/svg">
<path fill-rule="evenodd" clip-rule="evenodd" d="M22.6623 6.43077C23.7703 6.27496 24.7378 7.1846 24.6507 8.30006L24.1253 15.0233C23.782 19.4161 21.1478 23.3023 17.1945 25.248C16.4413 25.6188 15.5587 25.6188 14.8055 25.248C10.8522 23.3023 8.21793 19.4161 7.87466 15.0233L7.34928 8.30006C7.26211 7.1846 8.2297 6.27496 9.33766 6.43077L14.0156 7.08861C15.332 7.27373 16.6679 7.27373 17.9844 7.08861L22.6623 6.43077ZM23.1552 8.1832C23.1677 8.02384 23.0295 7.8939 22.8712 7.91616L18.1932 8.57399C16.7382 8.7786 15.2617 8.7786 13.8067 8.57399L9.12878 7.91616C8.9705 7.8939 8.83227 8.02384 8.84472 8.1832L9.3701 14.9064C9.67211 18.7712 11.9897 22.1903 15.4679 23.9022C15.8034 24.0674 16.1966 24.0674 16.5321 23.9022C20.0102 22.1903 22.3278 18.7712 22.6299 14.9064L23.1552 8.1832Z" fill="url(#paint0_linear_1311_6723)"/>
<path fill-rule="evenodd" clip-rule="evenodd" d="M19.4202 13.5371C19.6291 13.7177 19.6521 14.0335 19.4715 14.2424L15.7077 18.5959L13.0011 15.7005C12.8126 15.4988 12.8232 15.1824 13.025 14.9938C13.2267 14.8053 13.5431 14.8159 13.7317 15.0176L15.6787 17.1005L18.715 13.5884C18.8956 13.3795 19.2113 13.3565 19.4202 13.5371Z" fill="url(#paint1_linear_1311_6723)"/>
<defs>
<linearGradient id="paint0_linear_1311_6723" x1="16" y1="6.41333" x2="27.0865" y2="21.0384" gradientUnits="userSpaceOnUse">
<stop stop-color="#6310E5"/>
<stop offset="1" stop-color="#8322FE"/>
</linearGradient>
<linearGradient id="paint1_linear_1311_6723" x1="18.6907" y1="12.7525" x2="18.3684" y2="18.1348" gradientUnits="userSpaceOnUse">
<stop stop-color="#6310E5"/>
<stop offset="1" stop-color="#8322FE"/>
</linearGradient>
</defs>
</svg>
