<svg width="32" height="32" viewBox="0 0 32 32" fill="none" xmlns="http://www.w3.org/2000/svg">
<g clip-path="url(#clip0_1311_6635)">
<path d="M21.3125 26H18.8125C18.6053 26 18.4066 25.9177 18.2601 25.7712C18.1136 25.6247 18.0312 25.426 18.0312 25.2188C18.0312 25.0115 18.1136 24.8128 18.2601 24.6663C18.4066 24.5198 18.6053 24.4375 18.8125 24.4375H21.3125C22.141 24.4366 22.9353 24.107 23.5212 23.5212C24.107 22.9353 24.4366 22.141 24.4375 21.3125V10.6875C24.4366 9.85899 24.107 9.06468 23.5212 8.47883C22.9353 7.89298 22.141 7.56344 21.3125 7.5625H18.8125C18.6053 7.5625 18.4066 7.48019 18.2601 7.33368C18.1136 7.18716 18.0312 6.98845 18.0312 6.78125C18.0312 6.57405 18.1136 6.37534 18.2601 6.22882C18.4066 6.08231 18.6053 6 18.8125 6H21.3125C22.5553 6.00141 23.7467 6.49572 24.6255 7.37449C25.5043 8.25326 25.9986 9.44473 26 10.6875V21.3125C25.9986 22.5553 25.5043 23.7467 24.6255 24.6255C23.7467 25.5043 22.5553 25.9986 21.3125 26Z" fill="url(#paint0_linear_1311_6635)"/>
<path d="M18.5 16.7812H6.78125C6.57405 16.7812 6.37534 16.6989 6.22882 16.5524C6.08231 16.4059 6 16.2072 6 16C6 15.7928 6.08231 15.5941 6.22882 15.4476C6.37534 15.3011 6.57405 15.2188 6.78125 15.2188H18.5C18.7072 15.2188 18.9059 15.3011 19.0524 15.4476C19.1989 15.5941 19.2812 15.7928 19.2812 16C19.2812 16.2072 19.1989 16.4059 19.0524 16.5524C18.9059 16.6989 18.7072 16.7812 18.5 16.7812Z" fill="url(#paint1_linear_1311_6635)"/>
<path d="M13.5391 23.3828C13.3846 23.3828 13.2335 23.337 13.105 23.2512C12.9765 23.1653 12.8764 23.0433 12.8173 22.9005C12.7581 22.7578 12.7427 22.6007 12.7728 22.4491C12.803 22.2976 12.8774 22.1584 12.9867 22.0491L19.0358 16L12.9867 9.95088C12.8412 9.80415 12.7598 9.60578 12.7603 9.39917C12.7607 9.19256 12.843 8.99455 12.9891 8.84845C13.1352 8.70236 13.3332 8.62008 13.5398 8.61963C13.7464 8.61918 13.9448 8.70059 14.0915 8.84604L20.6931 15.4476C20.7656 15.5201 20.8232 15.6063 20.8624 15.7011C20.9017 15.7958 20.9219 15.8974 20.9219 16C20.9219 16.1026 20.9017 16.2042 20.8624 16.299C20.8232 16.3938 20.7656 16.4799 20.6931 16.5525L14.0915 23.154C14.019 23.2267 13.9329 23.2843 13.8381 23.3236C13.7433 23.3628 13.6417 23.383 13.5391 23.3828Z" fill="url(#paint2_linear_1311_6635)"/>
</g>
<defs>
<linearGradient id="paint0_linear_1311_6635" x1="22.0156" y1="6" x2="32.4768" y2="12.0703" gradientUnits="userSpaceOnUse">
<stop stop-color="#6310E5"/>
<stop offset="1" stop-color="#8322FE"/>
</linearGradient>
<linearGradient id="paint1_linear_1311_6635" x1="12.6406" y1="15.2188" x2="12.7917" y2="17.0892" gradientUnits="userSpaceOnUse">
<stop stop-color="#6310E5"/>
<stop offset="1" stop-color="#8322FE"/>
</linearGradient>
<linearGradient id="paint2_linear_1311_6635" x1="16.8399" y1="8.61963" x2="25.5297" y2="15.6182" gradientUnits="userSpaceOnUse">
<stop stop-color="#6310E5"/>
<stop offset="1" stop-color="#8322FE"/>
</linearGradient>
<clipPath id="clip0_1311_6635">
<rect width="20" height="20" fill="white" transform="translate(6 6)"/>
</clipPath>
</defs>
</svg>
