<svg width="32" height="32" viewBox="0 0 32 32" fill="none" xmlns="http://www.w3.org/2000/svg">
<path fill-rule="evenodd" clip-rule="evenodd" d="M13.8927 7.29119C14.1182 6.67089 14.7032 6.25 15.37 6.25H16.6375C17.3099 6.25 17.8949 6.67711 18.1175 7.31352L18.5624 8.56638C18.8675 8.67169 19.1674 8.79515 19.4578 8.93715L20.665 8.36285C21.2618 8.07867 21.972 8.19135 22.4478 8.66717L23.356 9.57533C23.8065 10.0399 23.9415 10.7424 23.6521 11.35L23.0785 12.55C23.2203 12.839 23.344 13.1376 23.4498 13.4455L24.7088 13.8926C25.3291 14.1182 25.75 14.7032 25.75 15.37V16.6375C25.75 17.3099 25.3229 17.8949 24.6865 18.1175C24.6856 18.1178 24.6848 18.1181 24.6839 18.1184L23.4336 18.5624C23.3283 18.8675 23.2048 19.1674 23.0628 19.4578L23.6371 20.665C23.6372 20.6651 23.6371 20.665 23.6371 20.665C23.9212 21.2618 23.8086 21.9721 23.3328 22.4478L22.4247 23.356C21.9601 23.8065 21.2576 23.9415 20.65 23.6521L19.45 23.0785C19.161 23.2203 18.8624 23.344 18.5545 23.4498L18.1074 24.7088C17.8818 25.3291 17.2968 25.75 16.63 25.75H15.3625C14.7083 25.75 14.1027 25.3399 13.8819 24.6997L13.4381 23.4502C13.129 23.3445 12.8272 23.2207 12.5355 23.0782L11.3349 23.6521C10.7382 23.9363 10.028 23.8237 9.55217 23.3478L8.64401 22.4397C8.19375 21.9753 8.05867 21.2734 8.34739 20.666C8.34755 20.6657 8.3477 20.6654 8.34785 20.665L8.92233 19.4516C8.78016 19.1621 8.65615 18.863 8.5502 18.5545L7.29119 18.1074C6.67088 17.8818 6.25 17.2968 6.25 16.63V15.3625C6.25 14.6957 6.67089 14.1107 7.29119 13.8852L7.2965 13.8832L8.55138 13.4376C8.65669 13.1325 8.78015 12.8326 8.92215 12.5422L8.34905 11.3375C8.05797 10.7365 8.19196 10.0199 8.65217 9.55967L9.55217 8.65967C10.0156 8.19619 10.731 8.05565 11.3367 8.3487L12.5484 8.92234C12.8379 8.78016 13.137 8.65615 13.4455 8.5502L13.8927 7.29119ZM15.3029 7.80241L14.7343 9.4035C14.6535 9.63097 14.4681 9.80565 14.2363 9.87285C13.7716 10.0075 13.3368 10.1885 12.9301 10.4151C12.7185 10.533 12.463 10.5415 12.2441 10.4379L10.6837 9.69912C10.6793 9.69699 10.6707 9.6943 10.6565 9.69681C10.6422 9.69938 10.6264 9.70677 10.6128 9.72033L9.71283 10.6203C9.70615 10.627 9.69915 10.6386 9.69647 10.6541C9.69387 10.6691 9.69674 10.6789 9.69908 10.6837L9.7023 10.6903L10.4373 12.2353C10.5415 12.4545 10.5333 12.7106 10.4151 12.9226C10.1896 13.3273 10.0077 13.7702 9.87202 14.2316C9.80421 14.4622 9.62999 14.6463 9.4035 14.7268L7.80237 15.2954C7.76377 15.31 7.75 15.3396 7.75 15.3625V16.63C7.75 16.6529 7.76378 16.6825 7.80241 16.6971L9.4035 17.2657C9.63097 17.3465 9.80565 17.5319 9.87285 17.7637C10.0075 18.2284 10.1885 18.6632 10.4151 19.0699C10.533 19.2815 10.5415 19.537 10.4379 19.7559L9.70287 21.3084L9.70215 21.3099C9.6956 21.3237 9.69419 21.3365 9.69647 21.3497C9.69878 21.363 9.70537 21.3785 9.71885 21.3932L10.6128 22.2872C10.6252 22.2995 10.6365 22.304 10.6462 22.3056C10.6562 22.3073 10.6709 22.3069 10.6897 22.298C10.6898 22.298 10.6896 22.2981 10.6897 22.298L12.2265 21.5633C12.446 21.4584 12.7027 21.4665 12.9151 21.5849C13.3194 21.8102 13.7615 21.9917 14.2288 22.1271C14.4606 22.1944 14.646 22.369 14.7268 22.5965L15.2999 24.2105C15.3028 24.219 15.3087 24.2282 15.3206 24.2366C15.333 24.2453 15.3479 24.25 15.3625 24.25H16.63C16.6529 24.25 16.6825 24.2362 16.6971 24.1976C16.6973 24.1971 16.6975 24.1967 16.6977 24.1962L17.2657 22.5965C17.3465 22.369 17.5319 22.1944 17.7637 22.1271C18.2284 21.9925 18.6632 21.8115 19.0699 21.5849C19.2823 21.4665 19.539 21.4584 19.7585 21.5633L21.2949 22.2979C21.2951 22.2979 21.2948 22.2978 21.2949 22.2979C21.3086 22.3043 21.3216 22.3058 21.3347 22.3035C21.348 22.3012 21.3635 22.2946 21.3782 22.2811L22.2722 21.3872C22.2845 21.3748 22.289 21.3635 22.2906 21.3538C22.2923 21.3437 22.2919 21.3289 22.2829 21.3099L21.5477 19.7647C21.4435 19.5455 21.4517 19.2894 21.5699 19.0774C21.7954 18.6727 21.9773 18.2298 22.113 17.7684C22.1808 17.5378 22.355 17.3537 22.5815 17.2732L24.1911 16.7016C24.2203 16.6915 24.2339 16.6776 24.2401 16.669C24.2465 16.6602 24.25 16.6504 24.25 16.6375V15.37C24.25 15.3471 24.2362 15.3175 24.1976 15.3029C24.1971 15.3027 24.1967 15.3025 24.1962 15.3023L22.5965 14.7343C22.369 14.6535 22.1944 14.4681 22.1271 14.2363C21.9925 13.7716 21.8115 13.3368 21.5849 12.9301C21.4665 12.7177 21.4584 12.461 21.5633 12.2415L22.2979 10.705C22.2979 10.7049 22.2978 10.7052 22.2979 10.705C22.3043 10.6914 22.3058 10.6784 22.3035 10.6653C22.3012 10.652 22.2946 10.6365 22.2811 10.6218L21.3872 9.72783C21.3748 9.71549 21.3635 9.711 21.3538 9.70937C21.3437 9.70767 21.3289 9.70812 21.3099 9.71715L19.7647 10.4523C19.5455 10.5565 19.2894 10.5483 19.0774 10.4301C18.6727 10.2046 18.2298 10.0227 17.7684 9.88702C17.5378 9.81921 17.3537 9.64499 17.2732 9.4185L16.7016 7.8089C16.6915 7.77972 16.6776 7.7661 16.669 7.75988C16.6602 7.75353 16.6504 7.75 16.6375 7.75H15.37C15.3471 7.75 15.3175 7.76378 15.3029 7.80241ZM16 13.75C14.7567 13.75 13.75 14.7567 13.75 16C13.75 17.2433 14.7567 18.25 16 18.25C17.2433 18.25 18.25 17.2433 18.25 16C18.25 14.7567 17.2433 13.75 16 13.75ZM12.25 16C12.25 13.9283 13.9283 12.25 16 12.25C18.0717 12.25 19.75 13.9283 19.75 16C19.75 18.0717 18.0717 19.75 16 19.75C13.9283 19.75 12.25 18.0717 12.25 16Z" fill="url(#paint0_linear_1311_6620)"/>
<defs>
<linearGradient id="paint0_linear_1311_6620" x1="16" y1="6.25" x2="26.964" y2="22.2176" gradientUnits="userSpaceOnUse">
<stop stop-color="#6310E5"/>
<stop offset="1" stop-color="#8322FE"/>
</linearGradient>
</defs>
</svg>
