<svg width="17" height="17" viewBox="0 0 17 17" fill="none" xmlns="http://www.w3.org/2000/svg">
<path fill-rule="evenodd" clip-rule="evenodd" d="M4.35944 2H12.3594C13.7401 2 14.8594 3.11929 14.8594 4.5V12.5C14.8594 13.8807 13.7401 15 12.3594 15H4.35944C2.97872 15 1.85944 13.8807 1.85944 12.5V4.5C1.85944 3.11929 2.97872 2 4.35944 2ZM0.359436 4.5C0.359436 2.29086 2.1503 0.5 4.35944 0.5H12.3594C14.5686 0.5 16.3594 2.29086 16.3594 4.5V12.5C16.3594 14.7091 14.5686 16.5 12.3594 16.5H4.35944C2.1503 16.5 0.359436 14.7091 0.359436 12.5V4.5ZM11.7236 5.40409C11.4733 5.22223 11.1279 5.28481 10.9521 5.54388L7.72881 10.2953L5.66153 8.56442C5.42374 8.36533 5.07501 8.4034 4.88261 8.64947C4.69021 8.89554 4.72701 9.25642 4.9648 9.45552L7.49304 11.5724C7.74238 11.7812 8.11042 11.7278 8.29471 11.4561L11.8587 6.20247C12.0345 5.94341 11.974 5.58596 11.7236 5.40409Z" fill="#7E86A0"/>
</svg>
