<svg width="86" height="80" viewBox="0 0 86 80" fill="none" xmlns="http://www.w3.org/2000/svg">
<path d="M22.1756 59.3517C19.1478 64.7457 14.2277 66.3723 9.36631 63.6435C4.50488 60.9146 1.87313 55.049 4.9009 49.655C7.92867 44.261 14.8026 42.5692 19.6641 45.298C24.5255 48.0269 25.2034 53.9578 22.1756 59.3517Z" fill="#4D17B2"/>
<path d="M73.1213 34.7606C67.6713 44.4699 58.815 47.3979 50.0643 42.4859C41.3136 37.5739 36.5764 27.0156 42.0265 17.3063C47.4765 7.59706 59.8498 4.55171 68.6005 9.46368C77.3512 14.3757 78.5714 25.0514 73.1213 34.7606Z" fill="#4D17B2"/>
<path opacity="0.5" d="M62.5723 25.7862C62.5723 40.6186 47.7206 52.6427 31.8095 52.6427C15.8983 52.6427 7.88281 40.6186 7.88281 25.7862C7.88281 10.9538 13.9451 0.882935 29.8563 0.882935C45.7674 0.882935 62.5723 10.9538 62.5723 25.7862Z" fill="#4D17B2"/>
<path opacity="0.5" d="M82.4935 54.8024C81.0768 70.09 69.0515 78.5146 51.2635 76.8662C33.4756 75.2178 17.8687 64.2326 19.2854 48.945C20.7021 33.6573 38.2939 23.2229 56.0818 24.8713C73.8698 26.5197 83.9102 39.5147 82.4935 54.8024Z" fill="#4D17B2"/>
<path d="M22.2024 71.8629C21.2359 73.5848 19.5816 74.057 17.8962 73.1109C16.2108 72.1649 15.2469 70.223 16.2134 68.5011C17.1799 66.7793 19.498 66.3087 21.1834 67.2548C22.8688 68.2009 23.1689 70.1411 22.2024 71.8629Z" fill="#4D17B2"/>
<path d="M31.0636 28.1006L36.5353 31.7485L31.0636 32.6604" stroke="#ED5D0C" stroke-width="3"/>
<path d="M75.7492 40.4121C75.7492 57.2848 61.9624 70.0508 43.8306 70.0508C25.6988 70.0508 11 57.2848 11 40.4121C11 23.5394 23.8748 13.5093 42.0067 13.5093L75.7492 40.4121Z" fill="#D89307"/>
<path fill-rule="evenodd" clip-rule="evenodd" d="M52.7683 12.2932C50.977 13.866 48.9151 16.907 53.8578 17.6131C53.8579 19.589 54.8613 23.0849 58.874 21.2609C60.3939 23.2369 63.8897 26.0031 65.7137 21.2609C66.7339 22.4269 68.9001 24.0401 69.7197 21.5978C73.5903 26.24 75.7474 32.3354 75.7474 39.5002C75.7474 56.3728 63.7845 67.315 45.6527 67.315C27.5208 67.315 12.8221 54.5489 12.8221 37.6762C12.8221 20.8036 27.5208 11.6854 45.6527 11.6854C48.1462 11.6854 50.5232 11.8923 52.7683 12.2932Z" fill="#FCAD0D"/>
<ellipse cx="31.9764" cy="38.1322" rx="1.82392" ry="2.73588" fill="#996A0A"/>
<ellipse cx="54.7752" cy="38.1322" rx="1.82392" ry="2.73588" fill="#996A0A"/>
<path d="M49.3025 44.5159H37.4471C38.3145 45.8905 39.6447 48.7223 42.6519 49.0522C45.6591 49.3821 48.7242 46.1655 49.3025 44.5159Z" fill="#996A0A"/>
<path d="M53.8615 13.0533L52.4935 12.1414C48.3899 14.8772 51.1257 17.6131 53.4055 17.6131C53.0407 22.7201 56.9013 22.4769 58.8772 21.7169C61.7955 25.7296 64.8051 23.5409 65.261 22.1729C68.4529 24.4528 69.8208 23.0849 69.8208 21.7169C68.629 23.0849 66.0209 21.7169 65.261 20.805C63.0723 22.9937 61.0051 21.109 60.2452 19.893C56.9621 20.2578 55.8374 18.2211 55.6854 17.1571C53.1319 16.7924 53.4055 14.2693 53.8615 13.0533Z" fill="#D89307"/>
<circle cx="21.9417" cy="36.3083" r="0.911961" fill="#FFC857"/>
<circle cx="20.1196" cy="29.0126" r="0.911961" fill="#FFC857"/>
<circle cx="17.3844" cy="40.8681" r="0.911961" fill="#FFC857"/>
<circle cx="25.592" cy="42.692" r="0.911961" fill="#FFC857"/>
<circle cx="58.4226" cy="43.604" r="0.911961" fill="#FFC857"/>
<circle cx="62.0688" cy="34.4844" r="0.911961" fill="#FFC857"/>
<circle cx="64.8061" cy="45.4279" r="0.911961" fill="#FFC857"/>
<circle cx="68.4544" cy="37.2202" r="0.911961" fill="#FFC857"/>
<circle cx="62.9799" cy="39.9561" r="0.911961" fill="#FFC857"/>
<circle cx="64.8061" cy="28.1007" r="0.911961" fill="#FFC857"/>
<path d="M73.0121 17.1571C73.0121 18.1644 73.1074 18.981 72.1001 18.981C71.0927 18.981 70.2759 18.1644 70.2759 17.1571C70.2759 16.1498 70.1809 16.2452 71.1882 16.2452C72.1955 16.2452 73.0121 16.1498 73.0121 17.1571Z" fill="#FCAD0D"/>
<path d="M59.4815 13.9523C59.9043 13.2045 60.1732 12.5565 60.955 12.9986C61.7367 13.4407 62.0279 14.4053 61.6051 15.1531C61.1822 15.9008 61.296 15.8717 60.5142 15.4296C59.7325 14.9876 59.0587 14.7 59.4815 13.9523Z" fill="#FCAD0D"/>
<path d="M65.7559 11.6587C65.3739 10.3118 64.9455 9.25357 66.2001 8.89772C67.4547 8.54188 68.7818 9.34517 69.1638 10.692C69.5459 12.0389 69.628 11.8779 68.3734 12.2337C67.1188 12.5895 66.1379 13.0055 65.7559 11.6587Z" fill="#FCAD0D"/>
<path d="M23.3468 7.05613C17.0661 10.1963 19.335 14.9066 19.6838 17C25.6143 15.2555 37.1612 11.4524 35.9053 10.1963L35.9052 10.1962C34.3352 8.62599 29.6264 3.91646 23.3468 7.05613Z" fill="#EDEFF3"/>
<path d="M41 5V12.6364C27.8679 15.2545 20.2075 20.6364 18.0189 23L12 19.1818C20.317 8.70909 34.7987 5.36364 41 5Z" fill="white"/>
</svg>
