<svg width="1110" height="752" viewBox="0 0 1110 752" fill="none" xmlns="http://www.w3.org/2000/svg">
<g filter="url(#filter0_d)">
<path d="M9.00024 7.99999C9.00024 3.58172 12.582 0 17.0002 0H1095C1099.42 0 1103 3.58172 1103 8V727C1103 731.418 1099.42 735 1095 735H17.0002C12.5819 735 9.00024 731.418 9.00024 727V7.99999Z" fill="#FAFAFA"/>
<path d="M9.00024 7.99999C9.00024 3.58172 12.582 0 17.0002 0H1095C1099.42 0 1103 3.58172 1103 8V727C1103 731.418 1099.42 735 1095 735H17.0002C12.5819 735 9.00024 731.418 9.00024 727V7.99999Z" fill="white"/>
<path d="M9.00024 5.18518C9.00024 2.32149 11.6586 0 14.9378 0H1097.06C1100.34 0 1103 2.32149 1103 5.18518V35H9.00024V5.18518Z" fill="#333745"/>
<path d="M33.1861 17.1784C33.1861 21.0436 30.0527 24.1771 26.1874 24.1771C22.3221 24.1771 19.1887 21.0436 19.1887 17.1784C19.1887 13.3131 22.3221 10.1797 26.1874 10.1797C30.0527 10.1797 33.1861 13.3131 33.1861 17.1784Z" fill="#EE4266"/>
<path d="M57.3548 17.1784C57.3548 21.0436 54.2214 24.1771 50.3561 24.1771C46.4908 24.1771 43.3574 21.0436 43.3574 17.1784C43.3574 13.3131 46.4908 10.1797 50.3561 10.1797C54.2214 10.1797 57.3548 13.3131 57.3548 17.1784Z" fill="#FFC857"/>
<path d="M81.5372 17.1784C81.5372 21.0436 78.4038 24.1771 74.5385 24.1771C70.6732 24.1771 67.5398 21.0436 67.5398 17.1784C67.5398 13.3131 70.6732 10.1797 74.5385 10.1797C78.4038 10.1797 81.5372 13.3131 81.5372 17.1784Z" fill="#59C3C3"/>
<path d="M9 35.2825H1102.76V87.1036H9V35.2825Z" fill="white"/>
<path d="M9 87.1038H1102.76" stroke="#E4E8EE"/>
<path d="M98.082 49.6903C98.082 46.8792 100.361 44.6003 103.172 44.6003H394.572C397.383 44.6003 399.662 46.8792 399.662 49.6903V71.3226C399.662 74.1337 397.383 76.4126 394.572 76.4126H103.172C100.361 76.4126 98.082 74.1337 98.082 71.3226V49.6903Z" fill="#EDEFF3"/>
<rect x="109.05" y="55.4492" width="142.239" height="9.6433" rx="4.82165" fill="#D4D8E4"/>
<path d="M23.4103 60.4423L27.7064 56.6824C28.2103 56.2414 28.2215 55.5164 27.7316 55.0629C27.2416 54.6094 26.436 54.5993 25.9322 55.0403L20.9445 59.4054L20.9435 59.4062C20.294 59.9755 20.2947 60.9114 20.9452 61.4797L25.9322 65.8443C26.436 66.2852 27.2416 66.2751 27.7316 65.8216C28.2215 65.3682 28.2103 64.6431 27.7064 64.2022L23.4103 60.4423Z" fill="#D4D8E4"/>
<path d="M50.5978 60.4425L46.3016 64.2024C45.7978 64.6434 45.7865 65.3684 46.2765 65.8219C46.7664 66.2753 47.572 66.2855 48.0759 65.8445L53.0636 61.4794L53.0645 61.4785C53.7141 60.9093 53.7133 59.9734 53.0629 59.405L48.0759 55.0405C47.572 54.5995 46.7664 54.6097 46.2765 55.0631C45.7865 55.5166 45.7978 56.2416 46.3016 56.6826L50.5978 60.4425Z" fill="#D4D8E4"/>
<path fill-rule="evenodd" clip-rule="evenodd" d="M74.8557 54.7171C74.8557 54.0143 75.4254 53.4446 76.1282 53.4446C79.8178 53.4446 82.8088 56.4356 82.8088 60.1251C82.8088 63.8147 79.8178 66.8057 76.1282 66.8057C75.4254 66.8057 74.8557 66.236 74.8557 65.5332C74.8557 64.8305 75.4254 64.2607 76.1282 64.2607C78.4122 64.2607 80.2638 62.4092 80.2638 60.1251C80.2638 57.8411 78.4122 55.9896 76.1282 55.9896C75.4254 55.9896 74.8557 55.4198 74.8557 54.7171Z" fill="#D4D8E4"/>
<path fill-rule="evenodd" clip-rule="evenodd" d="M70.7161 61.397C70.0133 61.397 69.4436 60.8273 69.4436 60.1245C69.4436 56.4349 72.4346 53.4439 76.1242 53.4439C79.8137 53.4439 82.8047 56.4349 82.8047 60.1245C82.8047 60.8273 82.235 61.397 81.5323 61.397C80.8295 61.397 80.2598 60.8273 80.2598 60.1245C80.2598 57.8405 78.4082 55.9889 76.1242 55.9889C73.8401 55.9889 71.9886 57.8405 71.9886 60.1245C71.9886 60.8273 71.4189 61.397 70.7161 61.397Z" fill="#D4D8E4"/>
<path d="M69.9067 60.3539L68.4171 56.8515C68.2424 56.4407 67.7854 56.283 67.3964 56.4992C67.0074 56.7154 66.8336 57.2236 67.0083 57.6344L68.7378 61.7006L68.7381 61.7014C68.9638 62.2311 69.5568 62.425 70.052 62.131L73.8526 59.8782C74.2366 59.6506 74.3975 59.1381 74.212 58.7336C74.0264 58.329 73.5648 58.1856 73.1808 58.4132L69.9067 60.3539Z" fill="#D4D8E4"/>
</g>
<path d="M743.357 196.951C743.357 194.742 745.148 192.951 747.357 192.951H1072.34C1074.54 192.951 1076.34 194.742 1076.34 196.951V433.469C1076.34 435.678 1074.54 437.469 1072.34 437.469H747.357C745.148 437.469 743.357 435.678 743.357 433.469V196.951Z" fill="#6DD8D8"/>
<path opacity="0.4" d="M743.357 379.608C743.357 377.902 744.438 376.385 746.05 375.827L1076.34 261.617V433.469C1076.34 435.678 1074.54 437.469 1072.34 437.469H747.357C745.148 437.469 743.357 435.678 743.357 433.469V379.608Z" fill="#CFF5F5"/>
<rect x="779.242" y="250.534" width="262.043" height="129.353" rx="4" fill="white"/>
<rect x="788.087" y="291.926" width="75.7768" height="72.4389" rx="3.5" stroke="#D4D8E4"/>
<rect x="809.377" y="342.332" width="33.1734" height="9.39869" rx="4" fill="#59C3C3"/>
<rect x="799.178" y="329.097" width="53.3148" height="3.25637" rx="1.62818" fill="#D4D8E4"/>
<ellipse cx="826.204" cy="312.574" rx="9.87327" ry="9.90708" fill="#D4D8E4"/>
<rect x="870.706" y="291.926" width="76.6115" height="72.4389" rx="3.5" stroke="#D4D8E4"/>
<rect x="892.322" y="342.332" width="33.1734" height="9.39869" rx="4" fill="#59C3C3"/>
<rect x="882.123" y="329.097" width="53.3148" height="3.25637" rx="1.62818" fill="#D4D8E4"/>
<rect x="787.587" y="278.073" width="53.3148" height="3.25637" rx="1.62818" fill="#D4D8E4"/>
<rect x="787.588" y="265.555" width="121.842" height="6.67626" rx="3.33813" fill="#D4D8E4"/>
<ellipse cx="909.15" cy="312.575" rx="9.87327" ry="9.90708" fill="#D4D8E4"/>
<rect x="954.159" y="291.926" width="75.777" height="72.4389" rx="3.5" stroke="#D4D8E4"/>
<rect x="975.267" y="342.332" width="33.1734" height="9.39869" rx="4" fill="#59C3C3"/>
<rect x="965.068" y="329.097" width="53.3148" height="3.25637" rx="1.62818" fill="#D4D8E4"/>
<ellipse cx="992.095" cy="312.574" rx="9.87327" ry="9.90708" fill="#D4D8E4"/>
<path d="M390.532 461.57C390.532 459.361 392.323 457.57 394.532 457.57H719.893C722.102 457.57 723.893 459.361 723.893 461.57V697.533C723.893 699.742 722.102 701.533 719.893 701.533H394.532C392.323 701.533 390.532 699.742 390.532 697.533V461.57Z" fill="#FADA99"/>
<path opacity="0.5" d="M390.533 650.15L723.893 541.119V698.368C723.893 700.577 722.102 702.368 719.893 702.368H394.533C392.324 702.368 390.533 700.577 390.533 698.368V650.15Z" fill="#FCE9C3"/>
<rect x="419.775" y="483.47" width="275.711" height="190.706" rx="4" fill="white"/>
<rect x="463.22" y="521.067" width="144.54" height="4.17745" rx="2.08872" fill="#D4D8E4"/>
<rect x="463.22" y="506.028" width="86.0554" height="6.68392" rx="3.34196" fill="#D4D8E4"/>
<rect x="463.22" y="541.119" width="58.4843" height="55.1423" rx="4" fill="#EDEFF3"/>
<rect x="464.056" y="602.945" width="58.4843" height="55.9778" rx="4" fill="#EDEFF3"/>
<rect x="528.388" y="541.119" width="58.4843" height="55.1423" rx="4" fill="#EDEFF3"/>
<rect x="592.721" y="541.119" width="58.4843" height="55.1423" rx="4" fill="#EDEFF3"/>
<rect x="528.388" y="602.945" width="58.4843" height="55.9778" rx="4" fill="#EDEFF3"/>
<rect x="592.721" y="602.945" width="58.4843" height="55.9778" rx="4" fill="#EDEFF3"/>
<path d="M38.8105 461.57C38.8105 459.361 40.6014 457.57 42.8105 457.57H368.171C370.38 457.57 372.171 459.361 372.171 461.57V698.368C372.171 700.577 370.38 702.368 368.171 702.368H42.8105C40.6014 702.368 38.8105 700.577 38.8105 698.368V461.57Z" fill="#EE9EAE"/>
<path opacity="0.4" d="M38.8103 633.204L372.171 553.98V698.368C372.171 700.577 370.38 702.368 368.171 702.368H42.8103C40.6012 702.368 38.8103 700.577 38.8103 698.368V633.204Z" fill="#F5D5DC"/>
<rect x="67.2168" y="495.296" width="276.547" height="169.347" rx="4" fill="white"/>
<rect x="81.0845" y="532.683" width="248.811" height="118.046" rx="3.5" stroke="#EDEFF3"/>
<rect x="87.2686" y="564.879" width="74.3586" height="79.6433" rx="4" fill="#EDEFF3"/>
<rect x="168.311" y="564.879" width="74.3586" height="79.6433" rx="4" fill="#EDEFF3"/>
<rect x="249.354" y="564.879" width="74.3586" height="79.6433" rx="4" fill="#EDEFF3"/>
<rect x="97.2942" y="623.563" width="54.4739" height="13.6064" rx="4" fill="#59C3C3"/>
<rect x="178.337" y="623.563" width="54.4739" height="13.6064" rx="4" fill="#59C3C3"/>
<rect x="259.38" y="623.563" width="54.4739" height="13.6064" rx="4" fill="#59C3C3"/>
<rect x="124.865" y="508.709" width="160.297" height="4.45248" rx="2.22624" fill="#EDEFF3"/>
<rect x="87.2686" y="543.92" width="160.414" height="4.19175" rx="2.09588" fill="#EDEFF3"/>
<rect x="103.978" y="604.281" width="40.939" height="4.19175" rx="2.09588" fill="#D4D8E4"/>
<rect x="185.021" y="604.281" width="40.939" height="4.19175" rx="2.09588" fill="#D4D8E4"/>
<rect x="266.063" y="604.281" width="40.939" height="4.19175" rx="2.09588" fill="#D4D8E4"/>
<rect x="100.636" y="612.665" width="47.6229" height="4.19175" rx="2.09588" fill="#D4D8E4"/>
<rect x="181.679" y="612.665" width="47.6229" height="4.19175" rx="2.09588" fill="#D4D8E4"/>
<rect x="262.721" y="612.665" width="47.6229" height="4.19175" rx="2.09588" fill="#D4D8E4"/>
<rect x="289.457" y="543.92" width="34.2551" height="4.19175" rx="2.09588" fill="#FAFAFA"/>
<ellipse cx="124.12" cy="584.251" rx="12.6221" ry="12.6653" fill="#D4D8E4"/>
<ellipse cx="205.162" cy="584.251" rx="12.6221" ry="12.6653" fill="#D4D8E4"/>
<ellipse cx="286.205" cy="584.251" rx="12.6221" ry="12.6653" fill="#D4D8E4"/>
<path d="M742.982 461.57C742.982 459.361 744.773 457.57 746.982 457.57H1072.34C1074.55 457.57 1076.34 459.361 1076.34 461.57V697.533C1076.34 699.742 1074.55 701.533 1072.34 701.533H746.982C744.773 701.533 742.982 699.742 742.982 697.533V461.57Z" fill="#BFA6F4"/>
<path opacity="0.3" d="M742.981 650.15L1076.34 541.119V698.368C1076.34 700.577 1074.55 702.368 1072.34 702.368H746.981C744.772 702.368 742.981 700.577 742.981 698.368V650.15Z" fill="#D7D0F1"/>
<rect x="826.928" y="483.918" width="164.374" height="190.674" rx="4" fill="white"/>
<circle cx="909.661" cy="545.714" r="25.4824" fill="#E4E8EE"/>
<rect x="877.495" y="597.932" width="62.8296" height="13.3678" rx="6.68392" fill="#EDEFF3"/>
<rect x="851.595" y="624.722" width="115.298" height="6.68392" rx="3.34196" fill="#EDEFF3"/>
<rect x="868.304" y="638.871" width="82.7136" height="6.68389" rx="3.34195" fill="#EDEFF3"/>
<path d="M391.635 195.849C391.635 193.64 393.426 191.849 395.635 191.849H720.995C723.204 191.849 724.995 193.64 724.995 195.849V432.647C724.995 434.856 723.204 436.647 720.995 436.647H395.635C393.426 436.647 391.635 434.856 391.635 432.647V195.849Z" fill="#FBAD77"/>
<path opacity="0.3" d="M391.635 378.716C391.635 377.01 392.716 375.493 394.328 374.935L724.995 260.593V432.647C724.995 434.856 723.204 436.647 720.995 436.647H395.635C393.426 436.647 391.635 434.856 391.635 432.647V378.716Z" fill="#FFEFE3"/>
<rect x="426.725" y="231.952" width="262.344" height="160.963" rx="4" fill="white"/>
<rect x="485.209" y="253.531" width="145.375" height="13.3678" rx="6.68392" fill="#EDEFF3"/>
<rect x="435.581" y="287.105" width="76.0471" height="87.0227" rx="3.5" fill="white" stroke="#D4D8E4"/>
<rect x="456.896" y="351.722" width="33.2114" height="9.40946" rx="4" fill="#59C3C3"/>
<rect x="446.684" y="328.986" width="53.376" height="3.2601" rx="1.63005" fill="#D4D8E4"/>
<rect x="449.933" y="335.972" width="46.878" height="3.2601" rx="1.63005" fill="#D4D8E4"/>
<rect x="450.397" y="342.027" width="45.9498" height="3.2601" rx="1.63005" fill="#D4D8E4"/>
<ellipse cx="473.742" cy="312.445" rx="9.88459" ry="9.91844" fill="#CFF5F5"/>
<rect x="518.62" y="287.105" width="76.0471" height="87.0227" rx="3.5" fill="white" stroke="#D4D8E4"/>
<rect x="539.935" y="351.722" width="33.2114" height="9.40946" rx="4" fill="#59C3C3"/>
<rect x="529.724" y="328.986" width="53.376" height="3.2601" rx="1.63005" fill="#D4D8E4"/>
<rect x="532.973" y="335.972" width="46.878" height="3.2601" rx="1.63005" fill="#D4D8E4"/>
<rect x="533.437" y="342.027" width="45.9498" height="3.2601" rx="1.63005" fill="#D4D8E4"/>
<ellipse cx="555.946" cy="312.445" rx="9.88459" ry="9.91844" fill="#CFF5F5"/>
<rect x="601.661" y="287.105" width="76.0471" height="87.0227" rx="3.5" fill="white" stroke="#D4D8E4"/>
<rect x="622.975" y="351.722" width="33.2114" height="9.40946" rx="4" fill="#59C3C3"/>
<rect x="612.764" y="328.986" width="53.376" height="3.2601" rx="1.63005" fill="#D4D8E4"/>
<rect x="616.013" y="335.972" width="46.878" height="3.2601" rx="1.63005" fill="#D4D8E4"/>
<rect x="616.477" y="342.027" width="45.9498" height="3.2601" rx="1.63005" fill="#D4D8E4"/>
<ellipse cx="638.986" cy="312.445" rx="9.88459" ry="9.91844" fill="#CFF5F5"/>
<path d="M473.098 308.135C472.378 308.207 471.79 308.471 471.322 308.915C470.854 309.359 470.626 309.923 470.626 310.583C470.626 311.723 471.334 312.515 472.762 312.959L473.758 313.235C474.538 313.463 474.766 313.751 474.754 314.171C474.742 314.699 474.262 315.047 473.542 315.047C472.786 315.047 472.342 314.615 472.306 314.051H470.542C470.542 314.735 470.77 315.311 471.238 315.779C471.706 316.235 472.318 316.499 473.098 316.583V317.963H473.974V316.583C474.682 316.511 475.282 316.271 475.774 315.863C476.266 315.443 476.506 314.891 476.518 314.183C476.554 312.971 475.798 312.131 474.25 311.687L473.266 311.375C472.678 311.207 472.378 310.931 472.378 310.535C472.378 310.055 472.822 309.707 473.446 309.707C474.13 309.707 474.514 310.079 474.514 310.643H476.266C476.266 309.263 475.33 308.339 473.974 308.147V306.851H473.098V308.135Z" fill="#59C3C3"/>
<path d="M555.812 308.135C555.092 308.207 554.504 308.471 554.036 308.915C553.568 309.359 553.34 309.923 553.34 310.583C553.34 311.723 554.048 312.515 555.476 312.959L556.472 313.235C557.252 313.463 557.48 313.751 557.468 314.171C557.456 314.699 556.976 315.047 556.256 315.047C555.5 315.047 555.056 314.615 555.02 314.051H553.256C553.256 314.735 553.484 315.311 553.952 315.779C554.42 316.235 555.032 316.499 555.812 316.583V317.963H556.688V316.583C557.396 316.511 557.996 316.271 558.488 315.863C558.98 315.443 559.22 314.891 559.232 314.183C559.268 312.971 558.512 312.131 556.964 311.687L555.98 311.375C555.392 311.207 555.092 310.931 555.092 310.535C555.092 310.055 555.536 309.707 556.16 309.707C556.844 309.707 557.228 310.079 557.228 310.643H558.98C558.98 309.263 558.044 308.339 556.688 308.147V306.851H555.812V308.135Z" fill="#59C3C3"/>
<path d="M638.524 308.135C637.804 308.207 637.216 308.471 636.748 308.915C636.28 309.359 636.052 309.923 636.052 310.583C636.052 311.723 636.76 312.515 638.188 312.959L639.184 313.235C639.964 313.463 640.192 313.751 640.18 314.171C640.168 314.699 639.688 315.047 638.968 315.047C638.212 315.047 637.768 314.615 637.732 314.051H635.968C635.968 314.735 636.196 315.311 636.664 315.779C637.132 316.235 637.744 316.499 638.524 316.583V317.963H639.4V316.583C640.108 316.511 640.708 316.271 641.2 315.863C641.692 315.443 641.932 314.891 641.944 314.183C641.98 312.971 641.224 312.131 639.676 311.687L638.692 311.375C638.104 311.207 637.804 310.931 637.804 310.535C637.804 310.055 638.248 309.707 638.872 309.707C639.556 309.707 639.94 310.079 639.94 310.643H641.692C641.692 309.263 640.756 308.339 639.4 308.147V306.851H638.524V308.135Z" fill="#59C3C3"/>
<path d="M37.7078 196.951C37.7078 194.742 39.4986 192.951 41.7078 192.951H366.154C368.363 192.951 370.154 194.742 370.154 196.951V432.245C370.154 434.454 368.363 436.245 366.154 436.245H41.7078C39.4986 436.245 37.7078 434.454 37.7078 432.245V196.951Z" fill="#86BCFC"/>
<path opacity="0.4" d="M37.708 367.506L370.154 288.769V432.245C370.154 434.454 368.363 436.245 366.154 436.245H41.708C39.4989 436.245 37.708 434.454 37.708 432.245V367.506Z" fill="#C5DFFF"/>
<rect x="66.8696" y="262.107" width="274.122" height="104.983" rx="4" fill="white"/>
<rect x="142.69" y="296.268" width="49.1587" height="7.49878" rx="3.74939" fill="#E4E8EE"/>
<circle cx="110.283" cy="312.186" r="16.7514" fill="#D7D0F1"/>
<path d="M114.081 321.083L113.866 320.698H113.426H112.925H112.175V321.448V321.962C112.175 322.1 112.063 322.212 111.925 322.212H107.778C107.639 322.212 107.528 322.1 107.528 321.962V321.448V320.698H106.778H106.277H105.836L105.622 321.083L104.985 322.225C104.963 322.265 104.921 322.289 104.876 322.289C104.807 322.289 104.751 322.233 104.751 322.164V319.802C104.751 319.697 104.816 319.604 104.914 319.568L105.765 319.255L106.291 319.061L106.255 318.502L105.763 311.039C105.77 308.221 106.959 305.406 109.149 303.133L109.149 303.133L109.153 303.129C109.314 302.96 109.56 302.85 109.864 302.85C110.174 302.85 110.419 302.964 110.56 303.111L110.56 303.111L110.562 303.113C112.776 305.406 113.958 308.22 113.965 311.06L113.473 318.501L113.436 319.061L113.962 319.255L114.813 319.568C114.911 319.604 114.977 319.697 114.977 319.802V322.148C114.977 322.226 114.914 322.289 114.836 322.289C114.785 322.289 114.737 322.262 114.713 322.217L114.081 321.083Z" stroke="#6310E5" stroke-width="1.5"/>
<path d="M114.102 307.963C113.189 308.307 111.74 308.533 110.098 308.533C108.465 308.533 107.016 308.307 106.095 307.963" stroke="#6310E5" stroke-width="1.5" stroke-miterlimit="10"/>
<path d="M109.864 314.164C109.217 314.164 108.688 313.636 108.688 312.989C108.688 312.342 109.217 311.813 109.864 311.813C110.511 311.813 111.039 312.342 111.039 312.989C111.039 313.636 110.511 314.164 109.864 314.164Z" stroke="#6310E5"/>
<path d="M109.753 315.365L104.753 315.365" stroke="#6310E5"/>
<rect x="266.837" y="305.433" width="41.6599" height="13.3312" rx="6.66559" fill="#BFA6F4"/>
<rect x="142.69" y="314.598" width="108.316" height="4.16599" rx="2.083" fill="#E4E8EE"/>
<rect x="142.69" y="323.763" width="87.4858" height="4.16599" rx="2.083" fill="#E4E8EE"/>
<rect x="44.2827" y="119.078" width="235.952" height="26.4619" rx="13.2309" fill="#EDEFF3"/>
<rect x="44.2827" y="154.361" width="154.361" height="8.82062" rx="4.41031" fill="#EDEFF3"/>
<defs>
<filter id="filter0_d" x="0" y="0" width="1110" height="752" filterUnits="userSpaceOnUse" color-interpolation-filters="sRGB">
<feFlood flood-opacity="0" result="BackgroundImageFix"/>
<feColorMatrix in="SourceAlpha" type="matrix" values="0 0 0 0 0 0 0 0 0 0 0 0 0 0 0 0 0 0 127 0"/>
<feOffset dx="-1" dy="9"/>
<feGaussianBlur stdDeviation="4"/>
<feColorMatrix type="matrix" values="0 0 0 0 0.174688 0 0 0 0 0.210969 0 0 0 0 0.5375 0 0 0 0.3 0"/>
<feBlend mode="normal" in2="BackgroundImageFix" result="effect1_dropShadow"/>
<feBlend mode="normal" in="SourceGraphic" in2="effect1_dropShadow" result="shape"/>
</filter>
</defs>
</svg>
