<svg width="151" height="28" viewBox="0 0 151 28" fill="none" xmlns="http://www.w3.org/2000/svg">
<path fill-rule="evenodd" clip-rule="evenodd" d="M50.7815 22.5418V19.913H43.7885V14.6244H50.595V11.9956H43.7885V7.08479H50.7815V4.45593H40.7815V22.5418H50.7815ZM65.1249 22.5418L60.2609 15.8194L64.8219 9.44382H61.5973L58.4583 13.8612L55.3425 9.44382H52.1179L56.6789 15.8194L51.8149 22.5418H55.0395L58.4816 17.7158L61.9004 22.5418H65.1249ZM73.9517 22.8656C77.3705 22.8656 79.8025 20.2907 79.8025 15.9813C79.8025 11.6718 77.3705 9.12003 73.9517 9.12003C72.2267 9.12003 70.696 9.93721 69.717 11.2324V9.44382H66.8499V27.5297H69.717V20.7225C70.8126 22.1101 72.2889 22.8656 73.9517 22.8656ZM73.1047 20.3447C71.7683 20.3447 70.3464 19.5275 69.717 18.5562V13.3755C70.3697 12.3965 71.7683 11.641 73.1047 11.641C75.3736 11.641 76.8499 13.4295 76.8499 15.9813C76.8499 18.533 75.3736 20.3447 73.1047 20.3447ZM88.5204 22.8656C90.595 22.8656 92.5375 22.1872 93.874 20.9383L92.5608 19.065C91.6051 20.0132 90.0977 20.5297 88.7924 20.5297C86.306 20.5297 84.8297 18.8722 84.6121 16.9218H94.7753V16.2202C94.7753 12.0958 92.2578 9.11232 88.2951 9.11232C84.3868 9.11232 81.5973 12.1729 81.5973 15.9736C81.6051 20.1288 84.5344 22.8656 88.5204 22.8656ZM92.0169 14.8943H84.5888C84.6976 13.3216 85.8475 11.4482 88.2795 11.4482C90.8747 11.4482 91.9392 13.3447 92.0169 14.8943ZM109.158 22.5418V13.3216C109.158 10.6388 107.736 9.12003 104.892 9.12003C102.817 9.12003 101.092 10.1762 100.222 11.2092V9.44382H97.3549V22.5418H100.222V13.3755C100.906 12.5044 102.165 11.641 103.61 11.641C105.226 11.641 106.29 12.2885 106.29 14.3546V22.5418H109.158ZM117.137 22.8656C120.688 22.8656 122.631 21.1002 122.631 18.772C122.631 13.5683 114.651 15.3028 114.651 12.9978C114.651 12.0727 115.583 11.3711 117.083 11.3711C118.754 11.3711 120.199 12.0727 120.991 12.9438L122.196 10.9394C121.022 9.90637 119.328 9.12003 117.083 9.12003C113.75 9.12003 111.893 10.9394 111.893 13.0826C111.893 18.1244 119.872 16.2819 119.872 18.8568C119.872 19.8899 118.971 20.5914 117.246 20.5914C115.552 20.5914 113.719 19.7202 112.794 18.772L111.481 20.8073C112.841 22.1332 114.869 22.8656 117.137 22.8656ZM124.674 27.6685C125.055 27.7764 125.879 27.8612 126.29 27.8612C128.342 27.8304 129.896 27.1288 130.797 24.9086L137.168 9.45153H134.107L130.253 19.2654L126.399 9.45153H123.315L128.754 22.7114L128.101 24.1993C127.72 25.0705 127.114 25.3403 126.189 25.3403C125.863 25.3403 125.397 25.2555 125.094 25.1244L124.674 27.6685ZM149.655 22.5418V13.8381C149.655 10.3381 147.083 9.12003 144.138 9.12003C142.032 9.12003 140.121 9.76761 138.59 11.2324L139.795 13.2136C140.914 12.0727 142.227 11.533 143.703 11.533C145.506 11.533 146.788 12.4581 146.788 13.9769V15.9273C145.801 14.8172 144.301 14.2467 142.499 14.2467C140.339 14.2467 137.938 15.4956 137.938 18.533C137.938 21.4086 140.37 22.8733 142.499 22.8733C144.247 22.8733 145.809 22.2489 146.788 21.1079V22.5418H149.655ZM143.641 20.9152C142.025 20.9152 140.797 19.9901 140.797 18.5562C140.797 17.1454 142.025 16.1971 143.641 16.1971C144.869 16.1971 146.104 16.6597 146.788 17.5539V19.5584C146.104 20.4526 144.876 20.9152 143.641 20.9152Z" fill="#B6A2D7"/>
<path d="M25.8476 12.3734H28.2718C29.6549 12.3734 30.7738 11.2632 30.7738 9.89098V0.146484H13.5399C12.1801 0.146484 11.0768 1.2412 11.0768 2.59032C11.0768 3.93944 12.1801 5.03415 13.5399 5.03415H24.6199C25.3037 5.03415 25.8553 5.58151 25.8553 6.25992C25.8553 6.93833 25.8476 12.3734 25.8476 12.3734Z" fill="#B6A2D7"/>
<path d="M20.9291 19.7125H23.3533C24.7364 19.7125 25.8553 18.6024 25.8553 17.2302V12.3733V6.25989C25.8553 6.9383 25.3036 7.48566 24.6198 7.48566H8.62138C7.26162 7.48566 6.15051 8.58037 6.15051 9.9372C6.15051 11.2863 7.25385 12.381 8.6136 12.381H19.6936C20.3774 12.381 20.9291 12.9284 20.9291 13.6068C20.9291 14.2852 20.3774 14.8326 19.6936 14.8326H6.15051V19.7279H20.9291V19.7125Z" fill="#B6A2D7"/>
<path d="M20.9291 13.5991V24.5925C20.9291 25.9493 19.818 27.0518 18.4505 27.0518H1.22437V17.2687C1.22437 15.9196 2.32771 14.8172 3.69523 14.8172H19.6937C20.3774 14.8249 20.9291 14.2775 20.9291 13.5991Z" fill="#B6A2D7"/>
</svg>
