<svg width="769" height="540" viewBox="0 0 769 540" fill="none" xmlns="http://www.w3.org/2000/svg">
<g clip-path="url(#clip0)">
<path d="M0 7.99999C0 3.58171 3.58172 0 8 0H775C779.418 0 783 3.58172 783 8V532C783 536.418 779.418 540 775 540H8.00001C3.58174 540 0 536.418 0 532V7.99999Z" fill="#EDEFF3"/>
<path d="M0 3.74836C0 1.6782 1.90513 0 4.25522 0H779.77C782.12 0 784.025 1.6782 784.025 3.74836V25.3014H0V3.74836Z" fill="#EDEFF3"/>
<path d="M17.3373 12.3189C17.3373 15.0907 15.0912 17.3377 12.3205 17.3377C9.5498 17.3377 7.30371 15.0907 7.30371 12.3189C7.30371 9.54706 9.5498 7.30005 12.3205 7.30005C15.0912 7.30005 17.3373 9.54706 17.3373 12.3189Z" fill="#EE4266"/>
<path d="M34.6615 12.3189C34.6615 15.0907 32.4154 17.3377 29.6447 17.3377C26.874 17.3377 24.6279 15.0907 24.6279 12.3189C24.6279 9.54706 26.874 7.30005 29.6447 7.30005C32.4154 7.30005 34.6615 9.54706 34.6615 12.3189Z" fill="#FFC857"/>
<path d="M51.9955 12.3189C51.9955 15.0907 49.7494 17.3377 46.9787 17.3377C44.208 17.3377 41.9619 15.0907 41.9619 12.3189C41.9619 9.54706 44.208 7.30005 46.9787 7.30005C49.7494 7.30005 51.9955 9.54706 51.9955 12.3189Z" fill="#59C3C3"/>
<path d="M0 25.3014H784.025V62.4629H0V25.3014Z" fill="white"/>
<path d="M0 62.4629H784.025" stroke="#E4E8EE"/>
<path d="M63.8555 35.6335C63.8555 33.6176 65.489 31.9834 67.504 31.9834H276.385C278.4 31.9834 280.033 33.6176 280.033 35.6335V51.1462C280.033 53.1621 278.4 54.7963 276.385 54.7963H67.504C65.489 54.7963 63.8555 53.1621 63.8555 51.1462V35.6335Z" fill="#EDEFF3"/>
<rect x="71.7168" y="39.7631" width="101.959" height="6.91531" rx="3.45765" fill="#D4D8E4"/>
<path d="M10.3297 43.3437L13.4093 40.6475C13.7705 40.3313 13.7785 39.8113 13.4273 39.4861C13.0761 39.161 12.4987 39.1537 12.1375 39.4699L8.56223 42.6002L8.56154 42.6008C8.09594 43.009 8.09648 43.6801 8.56272 44.0877L12.1375 47.2176C12.4987 47.5338 13.0761 47.5265 13.4273 47.2013C13.7785 46.8762 13.7705 46.3562 13.4093 46.04L10.3297 43.3437Z" fill="#D4D8E4"/>
<path d="M29.8177 43.344L26.7382 46.0403C26.377 46.3565 26.3689 46.8764 26.7201 47.2016C27.0713 47.5268 27.6488 47.534 28.01 47.2178L31.5852 44.0875L31.5859 44.0869C32.0515 43.6787 32.051 43.0076 31.5847 42.6L28.01 39.4702C27.6488 39.154 27.0713 39.1612 26.7201 39.4864C26.3689 39.8116 26.377 40.3315 26.7382 40.6477L29.8177 43.344Z" fill="#D4D8E4"/>
<path fill-rule="evenodd" clip-rule="evenodd" d="M47.207 39.238C47.207 38.734 47.6154 38.3254 48.1192 38.3254C50.7639 38.3254 52.9079 40.4703 52.9079 43.1161C52.9079 45.762 50.7639 47.9068 48.1192 47.9068C47.6154 47.9068 47.207 47.4983 47.207 46.9943C47.207 46.4904 47.6154 46.0818 48.1192 46.0818C49.7564 46.0818 51.0836 44.754 51.0836 43.1161C51.0836 41.4782 49.7564 40.1505 48.1192 40.1505C47.6154 40.1505 47.207 39.7419 47.207 39.238Z" fill="#D4D8E4"/>
<path fill-rule="evenodd" clip-rule="evenodd" d="M44.2393 44.0284C43.7355 44.0284 43.3271 43.6199 43.3271 43.1159C43.3271 40.4701 45.4711 38.3252 48.1159 38.3252C50.7607 38.3252 52.9046 40.4701 52.9046 43.1159C52.9046 43.6199 52.4963 44.0284 51.9925 44.0284C51.4887 44.0284 51.0804 43.6199 51.0804 43.1159C51.0804 41.478 49.7531 40.1503 48.1159 40.1503C46.4787 40.1503 45.1514 41.478 45.1514 43.1159C45.1514 43.6199 44.7431 44.0284 44.2393 44.0284Z" fill="#D4D8E4"/>
<path d="M43.6592 43.2806L42.5914 40.7689C42.4662 40.4744 42.1386 40.3613 41.8597 40.5163C41.5809 40.6714 41.4563 41.0358 41.5816 41.3304L42.8213 44.2463L42.8215 44.2469C42.9833 44.6267 43.4084 44.7658 43.7633 44.5549L46.4877 42.9394C46.7629 42.7762 46.8782 42.4087 46.7453 42.1186C46.6123 41.8285 46.2814 41.7256 46.0061 41.8889L43.6592 43.2806Z" fill="#D4D8E4"/>
<rect x="35" y="85" width="438.303" height="279.048" rx="8" fill="white"/>
<rect x="230.213" y="132.073" width="96.9142" height="76.1469" rx="4" fill="#EDEFF3"/>
<rect x="230.213" y="217.911" width="96.9142" height="77.5314" rx="4" fill="#EDEFF3"/>
<rect x="224.139" y="309.401" width="209.976" height="28.8516" rx="12" fill="#EDEFF3"/>
<path fill-rule="evenodd" clip-rule="evenodd" d="M240.167 333.445C245.478 333.445 249.784 329.139 249.784 323.828C249.784 318.516 245.478 314.21 240.167 314.21C234.856 314.21 230.55 318.516 230.55 323.828C230.55 329.139 234.856 333.445 240.167 333.445Z" fill="#59C3C3"/>
<path d="M243.136 320.678C243.337 320.4 243.733 320.333 244.019 320.528C244.306 320.723 244.375 321.107 244.174 321.385L240.094 327.024C239.883 327.316 239.461 327.373 239.176 327.149L236.281 324.877C236.009 324.663 235.967 324.276 236.187 324.011C236.407 323.747 236.807 323.706 237.079 323.92L239.446 325.778L243.136 320.678Z" fill="white" stroke="white"/>
<rect x="336.818" y="132.073" width="96.9142" height="76.1469" rx="4" fill="#EDEFF3"/>
<rect x="336.818" y="217.911" width="96.9142" height="77.5314" rx="4" fill="#EDEFF3"/>
<path d="M46.0762 100.076C46.0762 97.8668 47.867 96.0759 50.0762 96.0759H173.603C175.812 96.0759 177.603 97.8668 177.603 100.076V348.206C177.603 350.415 175.812 352.206 173.603 352.206H50.0762C47.867 352.206 46.0762 350.415 46.0762 348.206V100.076Z" fill="#EDEFF3"/>
<path d="M47.4609 156.26H177.603V202.447H47.4609V156.26Z" fill="#FAFAFA"/>
<rect x="72.3818" y="125.468" width="78.9159" height="13.9962" rx="6.9981" fill="#D4D8E4"/>
<rect x="72.3818" y="216.443" width="78.9159" height="13.9962" rx="6.9981" fill="#D4D8E4"/>
<rect x="72.3818" y="173.055" width="58.1485" height="13.9962" rx="6.9981" fill="#59C3C3"/>
<rect x="46.0762" y="202.447" width="46.1875" height="6.92244" rx="3.46122" transform="rotate(-90 46.0762 202.447)" fill="#59C3C3"/>
<rect x="72.3818" y="261.231" width="58.1485" height="13.9962" rx="6.9981" fill="#D4D8E4"/>
<rect x="72.3818" y="307.419" width="58.1485" height="12.5966" rx="6.29829" fill="#D4D8E4"/>
<circle cx="411.674" cy="110.646" r="3.20574" fill="#D4D8E4"/>
<circle cx="421.291" cy="110.646" r="3.20574" fill="#D4D8E4"/>
<circle cx="430.908" cy="110.646" r="3.20574" fill="#D4D8E4"/>
<rect x="490" y="85" width="242" height="279.592" rx="8" fill="white"/>
<rect x="508.857" y="111.621" width="158.618" height="17.7475" rx="8" fill="#D4D8E4"/>
<rect x="508.857" y="147.116" width="199.66" height="8.87376" rx="4.43688" fill="#EDEFF3"/>
<path d="M508.857 151.553C508.857 149.103 510.844 147.116 513.294 147.116H656.384V155.99H513.294C510.844 155.99 508.857 154.004 508.857 151.553Z" fill="#59C3C3"/>
<rect x="555.446" y="200.359" width="92.0652" height="8.87376" rx="4.43688" fill="#D4D8E4"/>
<rect x="555.446" y="286.878" width="112.031" height="8.87376" rx="4.43688" fill="#D4D8E4"/>
<rect x="555.446" y="243.618" width="129.779" height="8.87376" rx="4.43688" fill="#D4D8E4"/>
<rect x="555.446" y="330.138" width="65.444" height="8.87376" rx="4.43688" fill="#EDEFF3"/>
<path fill-rule="evenodd" clip-rule="evenodd" d="M528.825 215.888C534.951 215.888 539.917 210.922 539.917 204.796C539.917 198.67 534.951 193.704 528.825 193.704C522.699 193.704 517.732 198.67 517.732 204.796C517.732 210.922 522.699 215.888 528.825 215.888Z" fill="#59C3C3"/>
<path d="M532.249 201.163C532.481 200.843 532.937 200.765 533.268 200.99C533.598 201.215 533.678 201.658 533.446 201.979L528.74 208.483C528.496 208.819 528.01 208.885 527.681 208.626L524.343 206.006C524.029 205.759 523.98 205.313 524.234 205.008C524.488 204.703 524.949 204.656 525.263 204.903L527.993 207.045L532.249 201.163Z" fill="white" stroke="white"/>
<path fill-rule="evenodd" clip-rule="evenodd" d="M528.825 258.038C534.951 258.038 539.917 253.072 539.917 246.946C539.917 240.82 534.951 235.854 528.825 235.854C522.699 235.854 517.732 240.82 517.732 246.946C517.732 253.072 522.699 258.038 528.825 258.038Z" fill="#59C3C3"/>
<path d="M532.249 243.314C532.481 242.993 532.937 242.916 533.268 243.141C533.598 243.366 533.678 243.808 533.446 244.129L528.74 250.633C528.496 250.969 528.01 251.035 527.681 250.777L524.343 248.156C524.029 247.91 523.98 247.463 524.234 247.158C524.488 246.854 524.949 246.807 525.263 247.053L527.993 249.196L532.249 243.314Z" fill="white" stroke="white"/>
<path fill-rule="evenodd" clip-rule="evenodd" d="M528.825 301.298C534.951 301.298 539.917 296.332 539.917 290.206C539.917 284.08 534.951 279.114 528.825 279.114C522.699 279.114 517.732 284.08 517.732 290.206C517.732 296.332 522.699 301.298 528.825 301.298Z" fill="#59C3C3"/>
<path d="M532.249 286.573C532.481 286.253 532.937 286.175 533.268 286.4C533.598 286.626 533.678 287.068 533.446 287.389L528.74 293.893C528.496 294.229 528.01 294.295 527.681 294.037L524.343 291.416C524.029 291.169 523.98 290.723 524.234 290.418C524.488 290.113 524.949 290.066 525.263 290.313L527.993 292.456L532.249 286.573Z" fill="white" stroke="white"/>
<path d="M528.825 344.448C535.503 344.448 540.917 339.034 540.917 332.356H538.917C538.917 337.93 534.398 342.448 528.825 342.448V344.448ZM540.917 332.356C540.917 325.678 535.503 320.264 528.825 320.264V322.264C534.398 322.264 538.917 326.782 538.917 332.356H540.917ZM528.825 320.264C522.146 320.264 516.732 325.678 516.732 332.356H518.732C518.732 326.782 523.251 322.264 528.825 322.264V320.264ZM516.732 332.356C516.732 339.034 522.146 344.448 528.825 344.448V342.448C523.251 342.448 518.732 337.93 518.732 332.356H516.732Z" fill="#D4D8E4"/>
<rect x="35" y="381" width="697" height="132" rx="8" fill="white"/>
<rect x="224.089" y="477.5" width="72.375" height="24.125" rx="4" fill="#59C3C3"/>
<rect x="303.357" y="477.5" width="72.375" height="24.125" rx="4" fill="#D4D8E4"/>
<rect x="51" y="397" width="156" height="100" fill="#EDEFF3"/>
<path d="M709 392.488L718.748 402.236" stroke="#D4D8E4" stroke-width="3" stroke-linecap="round" stroke-linejoin="round"/>
<path d="M718.748 392.488L709 402.236" stroke="#D4D8E4" stroke-width="3" stroke-linecap="round" stroke-linejoin="round"/>
<rect x="224" y="443" width="437" height="8" rx="4" fill="#D4D8E4"/>
<rect x="224.089" y="393.637" width="25.2738" height="8.04167" rx="4.02083" fill="#D4D8E4"/>
<rect x="224" y="412" width="437" height="17" rx="8.5" fill="#D4D8E4"/>
<rect x="224" y="459" width="297" height="8" rx="4" fill="#D4D8E4"/>
</g>
<defs>
<clipPath id="clip0">
<rect width="772" height="540" fill="white"/>
</clipPath>
</defs>
</svg>
