<svg width="1110" height="752" viewBox="0 0 1110 752" fill="none" xmlns="http://www.w3.org/2000/svg">
<g filter="url(#filter0_d)">
<path d="M9.00024 7.99999C9.00024 3.58172 12.582 0 17.0002 0H1095C1099.42 0 1103 3.58172 1103 8V727C1103 731.418 1099.42 735 1095 735H17.0002C12.5819 735 9.00024 731.418 9.00024 727V7.99999Z" fill="#E4E8EE"/>
<path d="M9.00024 5.18518C9.00024 2.32149 11.6586 0 14.9378 0H1097.06C1100.34 0 1103 2.32149 1103 5.18518V35H9.00024V5.18518Z" fill="#333745"/>
<path d="M33.1861 17.1784C33.1861 21.0436 30.0527 24.1771 26.1874 24.1771C22.3221 24.1771 19.1887 21.0436 19.1887 17.1784C19.1887 13.3131 22.3221 10.1797 26.1874 10.1797C30.0527 10.1797 33.1861 13.3131 33.1861 17.1784Z" fill="#EE4266"/>
<path d="M57.3548 17.1784C57.3548 21.0436 54.2214 24.1771 50.3561 24.1771C46.4908 24.1771 43.3574 21.0436 43.3574 17.1784C43.3574 13.3131 46.4908 10.1797 50.3561 10.1797C54.2214 10.1797 57.3548 13.3131 57.3548 17.1784Z" fill="#FFC857"/>
<path d="M81.5372 17.1784C81.5372 21.0436 78.4038 24.1771 74.5385 24.1771C70.6732 24.1771 67.5398 21.0436 67.5398 17.1784C67.5398 13.3131 70.6732 10.1797 74.5385 10.1797C78.4038 10.1797 81.5372 13.3131 81.5372 17.1784Z" fill="#59C3C3"/>
<path d="M9 35.2822H1102.76V87.1034H9V35.2822Z" fill="white"/>
<path d="M9 87.1035H1102.76" stroke="#E4E8EE"/>
<path d="M98.082 49.6905C98.082 46.8794 100.361 44.6006 103.172 44.6006H394.572C397.383 44.6006 399.662 46.8794 399.662 49.6905V71.3229C399.662 74.134 397.383 76.4128 394.572 76.4128H103.172C100.361 76.4128 98.082 74.134 98.082 71.3229V49.6905Z" fill="#EDEFF3"/>
<rect x="109.049" y="55.4492" width="142.239" height="9.6433" rx="4.82165" fill="#D4D8E4"/>
<path d="M23.4103 60.4425L27.7064 56.6826C28.2103 56.2416 28.2215 55.5166 27.7316 55.0631C27.2416 54.6097 26.436 54.5996 25.9322 55.0405L20.9445 59.4056L20.9435 59.4065C20.294 59.9757 20.2947 60.9116 20.9452 61.48L25.9322 65.8445C26.436 66.2855 27.2416 66.2753 27.7316 65.8219C28.2215 65.3684 28.2103 64.6434 27.7064 64.2024L23.4103 60.4425Z" fill="#D4D8E4"/>
<path d="M50.5978 60.4427L46.3016 64.2027C45.7978 64.6436 45.7865 65.3687 46.2765 65.8221C46.7664 66.2756 47.572 66.2857 48.0759 65.8448L53.0636 61.4796L53.0645 61.4788C53.7141 60.9095 53.7133 59.9737 53.0629 59.4053L48.0759 55.0407C47.572 54.5998 46.7664 54.6099 46.2765 55.0634C45.7865 55.5168 45.7978 56.2419 46.3016 56.6828L50.5978 60.4427Z" fill="#D4D8E4"/>
<path fill-rule="evenodd" clip-rule="evenodd" d="M74.8557 54.7168C74.8557 54.014 75.4254 53.4443 76.1282 53.4443C79.8178 53.4443 82.8088 56.4353 82.8088 60.1249C82.8088 63.8145 79.8178 66.8055 76.1282 66.8055C75.4254 66.8055 74.8557 66.2358 74.8557 65.533C74.8557 64.8302 75.4254 64.2605 76.1282 64.2605C78.4122 64.2605 80.2638 62.4089 80.2638 60.1249C80.2638 57.8409 78.4122 55.9893 76.1282 55.9893C75.4254 55.9893 74.8557 55.4196 74.8557 54.7168Z" fill="#D4D8E4"/>
<path fill-rule="evenodd" clip-rule="evenodd" d="M70.7161 61.397C70.0133 61.397 69.4436 60.8273 69.4436 60.1245C69.4436 56.4349 72.4346 53.4439 76.1242 53.4439C79.8137 53.4439 82.8047 56.4349 82.8047 60.1245C82.8047 60.8273 82.235 61.397 81.5323 61.397C80.8295 61.397 80.2598 60.8273 80.2598 60.1245C80.2598 57.8405 78.4082 55.9889 76.1242 55.9889C73.8401 55.9889 71.9886 57.8405 71.9886 60.1245C71.9886 60.8273 71.4189 61.397 70.7161 61.397Z" fill="#D4D8E4"/>
<path d="M69.9067 60.3541L68.4171 56.8517C68.2424 56.441 67.7854 56.2832 67.3964 56.4994C67.0074 56.7156 66.8336 57.2239 67.0083 57.6346L68.7378 61.7009L68.7381 61.7017C68.9638 62.2314 69.5568 62.4252 70.052 62.1312L73.8526 59.8784C74.2366 59.6508 74.3975 59.1384 74.212 58.7338C74.0264 58.3293 73.5648 58.1858 73.1808 58.4134L69.9067 60.3541Z" fill="#D4D8E4"/>
</g>
<g filter="url(#filter1_d)">
<rect x="113" y="159.715" width="540.837" height="434.652" rx="8" fill="white"/>
</g>
<rect x="162.553" y="319.701" width="376.604" height="18.4054" rx="8" fill="#EDEFF3"/>
<rect x="162.553" y="440.044" width="376.604" height="18.4054" rx="8" fill="#EDEFF3"/>
<rect x="162.553" y="359.344" width="257.676" height="19.8212" rx="8" fill="#EDEFF3"/>
<rect x="162.553" y="479.687" width="172.728" height="19.8212" rx="8" fill="#EDEFF3"/>
<rect x="162.553" y="397.57" width="336.961" height="19.8212" rx="8" fill="#EDEFF3"/>
<rect x="162.553" y="223.426" width="404.92" height="38.2267" rx="8" fill="#EDEFF3"/>
<g filter="url(#filter2_d)">
<g filter="url(#filter3_d)">
<rect x="420.229" y="302.712" width="577.648" height="393.593" rx="8" fill="url(#paint0_linear)"/>
</g>
<path d="M667.086 549.769L657.526 558.601C656.405 559.636 656.38 561.339 657.47 562.405C658.56 563.47 660.353 563.493 661.474 562.458L672.573 552.205L672.575 552.203C674.021 550.866 674.019 548.667 672.572 547.332L661.474 537.08C660.353 536.045 658.56 536.069 657.47 537.134C656.38 538.199 656.405 539.902 657.526 540.938L667.086 549.769Z" fill="#EE9EAE"/>
<path d="M474.939 549.769L484.499 540.937C485.62 539.902 485.645 538.199 484.555 537.134C483.465 536.068 481.672 536.045 480.551 537.08L469.452 547.334L469.45 547.335C468.005 548.673 468.006 550.871 469.454 552.206L480.551 562.458C481.672 563.493 483.465 563.47 484.555 562.404C485.645 561.339 485.62 559.636 484.499 558.601L474.939 549.769Z" fill="#EE9EAE"/>
<rect x="920.008" y="556.14" width="223.697" height="12.7422" rx="6.37111" transform="rotate(-180 920.008 556.14)" fill="#BFA6F4"/>
<rect x="496.683" y="543.398" width="147.244" height="12.7422" rx="6.37111" fill="#9758F9"/>
<path d="M721.289 350.141L730.849 341.309C731.97 340.273 731.995 338.57 730.904 337.505C729.814 336.44 728.022 336.416 726.9 337.452L715.802 347.705L715.799 347.707C714.354 349.044 714.356 351.242 715.803 352.577L726.9 362.829C728.022 363.865 729.814 363.841 730.904 362.776C731.995 361.711 731.97 360.008 730.849 358.972L721.289 350.141Z" fill="#EE9EAE"/>
<path d="M940.336 350.141L930.776 358.972C929.655 360.008 929.63 361.711 930.72 362.776C931.81 363.841 933.603 363.865 934.724 362.829L945.823 352.576L945.825 352.574C947.271 351.237 947.269 349.039 945.821 347.704L934.724 337.452C933.603 336.416 931.81 336.44 930.72 337.505C929.63 338.57 929.655 340.273 930.776 341.309L940.336 350.141Z" fill="#EE9EAE"/>
<rect x="466.951" y="343.77" width="223.697" height="12.7422" rx="6.37111" fill="#BFA6F4"/>
<rect x="915.76" y="356.512" width="169.896" height="12.7422" rx="6.37111" transform="rotate(-180 915.76 356.512)" fill="#9758F9"/>
<path d="M985.135 696.305L985.135 302.711L993.877 302.711C996.086 302.711 997.877 304.502 997.877 306.711L997.877 692.305C997.877 694.514 996.086 696.305 993.877 696.305L985.135 696.305Z" fill="#4D17B2"/>
<rect x="985.371" y="545.004" width="79.3036" height="13.673" rx="6.83652" transform="rotate(-90 985.371 545.004)" fill="#9758F9"/>
<path d="M691.154 399.694L681.594 408.525C680.473 409.561 680.448 411.264 681.539 412.329C682.629 413.394 684.421 413.418 685.543 412.383L696.641 402.129L696.644 402.127C698.089 400.79 698.087 398.592 696.64 397.257L685.543 387.005C684.421 385.97 682.629 385.993 681.539 387.058C680.448 388.124 680.473 389.827 681.594 390.862L691.154 399.694Z" fill="#EE9EAE"/>
<path d="M603.777 399.694L613.337 390.862C614.458 389.826 614.483 388.123 613.393 387.058C612.302 385.993 610.51 385.969 609.388 387.005L598.29 397.258L598.287 397.26C596.842 398.597 596.844 400.796 598.291 402.131L609.388 412.382C610.51 413.418 612.302 413.394 613.393 412.329C614.483 411.264 614.458 409.561 613.337 408.525L603.777 399.694Z" fill="#EE9EAE"/>
<rect x="717.548" y="393.323" width="157.154" height="12.7422" rx="6.37111" fill="#A0E9E9"/>
<rect x="466.951" y="393.323" width="110.433" height="12.7422" rx="6.37111" fill="#9758F9"/>
<rect x="625.521" y="393.323" width="43.8899" height="12.7422" rx="6.37111" fill="#A0E9E9"/>
<rect x="697.727" y="506.587" width="229.36" height="12.7422" rx="6.3711" transform="rotate(-180 697.727 506.587)" fill="#A0E9E9"/>
<rect x="789.754" y="506.587" width="72.206" height="12.7422" rx="6.37111" transform="rotate(-180 789.754 506.587)" fill="#9758F9"/>
<path d="M474.07 599.322L484.427 590.491C485.642 589.455 485.669 587.752 484.488 586.687C483.307 585.622 481.365 585.598 480.15 586.634L468.126 596.887L468.124 596.889C466.558 598.226 466.56 600.424 468.128 601.759L480.15 612.011C481.365 613.047 483.307 613.023 484.488 611.958C485.669 610.893 485.642 609.189 484.427 608.154L474.07 599.322Z" fill="#EE9EAE"/>
<path d="M562.316 599.322L552.756 608.154C551.635 609.19 551.61 610.893 552.7 611.958C553.791 613.023 555.583 613.047 556.705 612.011L567.803 601.758L567.806 601.756C569.251 600.419 569.249 598.221 567.802 596.885L556.705 586.634C555.583 585.598 553.791 585.622 552.7 586.687C551.61 587.752 551.635 589.455 552.756 590.491L562.316 599.322Z" fill="#EE9EAE"/>
<rect x="818.07" y="605.693" width="230.776" height="14.158" rx="7.07901" transform="rotate(-180 818.07 605.693)" fill="#9758F9"/>
<rect x="540.573" y="605.693" width="43.8899" height="14.158" rx="7.07901" transform="rotate(-180 540.573 605.693)" fill="#BFA6F4"/>
<rect x="466.951" y="642.504" width="230.776" height="14.158" rx="7.07901" fill="#A0E9E9"/>
<rect x="718.964" y="642.504" width="69.3744" height="14.158" rx="7.07901" fill="#BFA6F4"/>
<path d="M474.07 450.663L484.427 441.831C485.642 440.796 485.669 439.093 484.488 438.028C483.307 436.962 481.365 436.939 480.15 437.974L468.126 448.228L468.124 448.23C466.558 449.567 466.56 451.765 468.128 453.1L480.15 463.352C481.365 464.387 483.307 464.364 484.488 463.298C485.669 462.233 485.642 460.53 484.427 459.495L474.07 450.663Z" fill="#EE9EAE"/>
<path d="M562.316 450.663L552.756 459.495C551.635 460.53 551.61 462.234 552.7 463.299C553.791 464.364 555.583 464.388 556.705 463.352L567.803 453.099L567.806 453.097C569.251 451.76 569.249 449.561 567.802 448.226L556.705 437.975C555.583 436.939 553.791 436.963 552.7 438.028C551.61 439.093 551.635 440.796 552.756 441.832L562.316 450.663Z" fill="#EE9EAE"/>
<rect x="818.07" y="457.034" width="230.776" height="14.158" rx="7.07901" transform="rotate(-180 818.07 457.034)" fill="#9758F9"/>
<rect x="540.573" y="457.034" width="43.8899" height="14.158" rx="7.07901" transform="rotate(-180 540.573 457.034)" fill="#BFA6F4"/>
</g>
<defs>
<filter id="filter0_d" x="0" y="0" width="1110" height="752" filterUnits="userSpaceOnUse" color-interpolation-filters="sRGB">
<feFlood flood-opacity="0" result="BackgroundImageFix"/>
<feColorMatrix in="SourceAlpha" type="matrix" values="0 0 0 0 0 0 0 0 0 0 0 0 0 0 0 0 0 0 127 0"/>
<feOffset dx="-1" dy="9"/>
<feGaussianBlur stdDeviation="4"/>
<feColorMatrix type="matrix" values="0 0 0 0 0.174688 0 0 0 0 0.210969 0 0 0 0 0.5375 0 0 0 0.3 0"/>
<feBlend mode="normal" in2="BackgroundImageFix" result="effect1_dropShadow"/>
<feBlend mode="normal" in="SourceGraphic" in2="effect1_dropShadow" result="shape"/>
</filter>
<filter id="filter1_d" x="109" y="159.715" width="548.837" height="442.652" filterUnits="userSpaceOnUse" color-interpolation-filters="sRGB">
<feFlood flood-opacity="0" result="BackgroundImageFix"/>
<feColorMatrix in="SourceAlpha" type="matrix" values="0 0 0 0 0 0 0 0 0 0 0 0 0 0 0 0 0 0 127 0"/>
<feOffset dy="4"/>
<feGaussianBlur stdDeviation="2"/>
<feColorMatrix type="matrix" values="0 0 0 0 0.262014 0 0 0 0 0.294529 0 0 0 0 0.408333 0 0 0 0.08 0"/>
<feBlend mode="normal" in2="BackgroundImageFix" result="effect1_dropShadow"/>
<feBlend mode="normal" in="SourceGraphic" in2="effect1_dropShadow" result="shape"/>
</filter>
<filter id="filter2_d" x="416.229" y="302.711" width="586.815" height="401.594" filterUnits="userSpaceOnUse" color-interpolation-filters="sRGB">
<feFlood flood-opacity="0" result="BackgroundImageFix"/>
<feColorMatrix in="SourceAlpha" type="matrix" values="0 0 0 0 0 0 0 0 0 0 0 0 0 0 0 0 0 0 127 0"/>
<feOffset dy="4"/>
<feGaussianBlur stdDeviation="2"/>
<feColorMatrix type="matrix" values="0 0 0 0 0.262014 0 0 0 0 0.294529 0 0 0 0 0.408333 0 0 0 0.08 0"/>
<feBlend mode="normal" in2="BackgroundImageFix" result="effect1_dropShadow"/>
<feBlend mode="normal" in="SourceGraphic" in2="effect1_dropShadow" result="shape"/>
</filter>
<filter id="filter3_d" x="416.229" y="302.712" width="585.648" height="401.593" filterUnits="userSpaceOnUse" color-interpolation-filters="sRGB">
<feFlood flood-opacity="0" result="BackgroundImageFix"/>
<feColorMatrix in="SourceAlpha" type="matrix" values="0 0 0 0 0 0 0 0 0 0 0 0 0 0 0 0 0 0 127 0"/>
<feOffset dy="4"/>
<feGaussianBlur stdDeviation="2"/>
<feColorMatrix type="matrix" values="0 0 0 0 0.262014 0 0 0 0 0.294529 0 0 0 0 0.408333 0 0 0 0.08 0"/>
<feBlend mode="normal" in2="BackgroundImageFix" result="effect1_dropShadow"/>
<feBlend mode="normal" in="SourceGraphic" in2="effect1_dropShadow" result="shape"/>
</filter>
<linearGradient id="paint0_linear" x1="709.053" y1="302.712" x2="891.088" y2="691.792" gradientUnits="userSpaceOnUse">
<stop stop-color="#6310E5"/>
<stop offset="1" stop-color="#8322FE"/>
</linearGradient>
</defs>
</svg>
