<svg width="1110" height="752" viewBox="0 0 1110 752" fill="none" xmlns="http://www.w3.org/2000/svg">
<g filter="url(#filter0_d)">
<path d="M9 7.99999C9 3.58172 12.5817 0 17 0H1095C1099.42 0 1103 3.58172 1103 8V727C1103 731.418 1099.42 735 1095 735H17C12.5817 735 9 731.418 9 727V7.99999Z" fill="#EDEFF3"/>
<path d="M160.688 294.398L160.664 283.262L155.144 292.478H153.752L148.232 283.406V294.398H145.256V277.598H147.824L154.496 288.734L161.048 277.598H163.616L163.64 294.398H160.688ZM179.89 281.582L173.89 295.43C173.33 296.822 172.65 297.798 171.85 298.358C171.05 298.934 170.082 299.222 168.946 299.222C168.306 299.222 167.674 299.118 167.05 298.91C166.426 298.702 165.914 298.414 165.514 298.046L166.714 295.838C167.002 296.11 167.338 296.326 167.722 296.486C168.122 296.646 168.522 296.726 168.922 296.726C169.45 296.726 169.882 296.59 170.218 296.318C170.57 296.046 170.89 295.59 171.178 294.95L171.394 294.446L165.802 281.582H168.922L172.954 291.062L177.01 281.582H179.89ZM196.102 293.702C195.75 293.99 195.318 294.206 194.806 294.35C194.31 294.494 193.782 294.566 193.222 294.566C191.814 294.566 190.726 294.198 189.958 293.462C189.19 292.726 188.806 291.654 188.806 290.246V284.078H186.694V281.678H188.806V278.75H191.806V281.678H195.238V284.078H191.806V290.174C191.806 290.798 191.958 291.278 192.262 291.614C192.566 291.934 193.006 292.094 193.582 292.094C194.254 292.094 194.814 291.918 195.262 291.566L196.102 293.702ZM203.466 281.438C205.354 281.438 206.794 281.894 207.786 282.806C208.794 283.702 209.298 285.062 209.298 286.886V294.398H206.466V292.838C206.098 293.398 205.57 293.83 204.882 294.134C204.21 294.422 203.394 294.566 202.434 294.566C201.474 294.566 200.634 294.406 199.914 294.086C199.194 293.75 198.634 293.294 198.234 292.718C197.85 292.126 197.658 291.462 197.658 290.726C197.658 289.574 198.082 288.654 198.93 287.966C199.794 287.262 201.146 286.91 202.986 286.91H206.298V286.718C206.298 285.822 206.026 285.134 205.482 284.654C204.954 284.174 204.162 283.934 203.106 283.934C202.386 283.934 201.674 284.046 200.97 284.27C200.282 284.494 199.698 284.806 199.218 285.206L198.042 283.022C198.714 282.51 199.522 282.118 200.466 281.846C201.41 281.574 202.41 281.438 203.466 281.438ZM203.058 292.382C203.81 292.382 204.474 292.214 205.05 291.878C205.642 291.526 206.058 291.03 206.298 290.39V288.902H203.202C201.474 288.902 200.61 289.47 200.61 290.606C200.61 291.15 200.826 291.582 201.258 291.902C201.69 292.222 202.29 292.382 203.058 292.382ZM217.108 294.566C216.068 294.566 215.052 294.43 214.06 294.158C213.068 293.886 212.276 293.542 211.684 293.126L212.836 290.846C213.412 291.23 214.1 291.542 214.9 291.782C215.716 292.006 216.516 292.118 217.3 292.118C219.092 292.118 219.988 291.646 219.988 290.702C219.988 290.254 219.756 289.942 219.292 289.766C218.844 289.59 218.116 289.422 217.108 289.262C216.052 289.102 215.188 288.918 214.516 288.71C213.86 288.502 213.284 288.142 212.788 287.63C212.308 287.102 212.068 286.374 212.068 285.446C212.068 284.23 212.572 283.262 213.58 282.542C214.604 281.806 215.98 281.438 217.708 281.438C218.588 281.438 219.468 281.542 220.348 281.75C221.228 281.942 221.948 282.206 222.508 282.542L221.356 284.822C220.268 284.182 219.044 283.862 217.684 283.862C216.804 283.862 216.132 283.998 215.668 284.27C215.22 284.526 214.996 284.87 214.996 285.302C214.996 285.782 215.236 286.126 215.716 286.334C216.212 286.526 216.972 286.71 217.996 286.886C219.02 287.046 219.86 287.23 220.516 287.438C221.172 287.646 221.732 287.998 222.196 288.494C222.676 288.99 222.916 289.694 222.916 290.606C222.916 291.806 222.396 292.766 221.356 293.486C220.316 294.206 218.9 294.566 217.108 294.566ZM230.731 288.902L228.499 291.014V294.398H225.499V276.59H228.499V287.342L234.715 281.582H238.315L232.963 286.958L238.819 294.398H235.171L230.731 288.902ZM244.319 294.566C243.279 294.566 242.263 294.43 241.271 294.158C240.279 293.886 239.487 293.542 238.895 293.126L240.047 290.846C240.623 291.23 241.311 291.542 242.111 291.782C242.927 292.006 243.727 292.118 244.511 292.118C246.303 292.118 247.199 291.646 247.199 290.702C247.199 290.254 246.967 289.942 246.503 289.766C246.055 289.59 245.327 289.422 244.319 289.262C243.263 289.102 242.399 288.918 241.727 288.71C241.071 288.502 240.495 288.142 239.999 287.63C239.519 287.102 239.279 286.374 239.279 285.446C239.279 284.23 239.783 283.262 240.791 282.542C241.815 281.806 243.191 281.438 244.919 281.438C245.799 281.438 246.679 281.542 247.559 281.75C248.439 281.942 249.159 282.206 249.719 282.542L248.567 284.822C247.479 284.182 246.255 283.862 244.895 283.862C244.015 283.862 243.343 283.998 242.879 284.27C242.431 284.526 242.207 284.87 242.207 285.302C242.207 285.782 242.447 286.126 242.927 286.334C243.423 286.526 244.183 286.71 245.207 286.886C246.231 287.046 247.071 287.23 247.727 287.438C248.383 287.646 248.943 287.998 249.407 288.494C249.887 288.99 250.127 289.694 250.127 290.606C250.127 291.806 249.607 292.766 248.567 293.486C247.527 294.206 246.111 294.566 244.319 294.566Z" fill="#141B41"/>
<path d="M646.472 140.73V240.329C646.472 241.573 645.979 242.766 645.103 243.645C644.227 244.524 643.039 245.018 641.8 245.018H470.048C468.809 245.018 467.62 244.524 466.744 243.645C465.868 242.766 465.375 241.573 465.375 240.329V140.73H646.472Z" fill="white"/>
<path d="M641.8 245.879H470.048C468.581 245.877 467.175 245.292 466.137 244.252C465.099 243.212 464.513 241.801 464.509 240.329V140.73C464.509 140.5 464.6 140.278 464.763 140.115C464.925 139.952 465.146 139.86 465.376 139.86H646.472C646.702 139.86 646.922 139.952 647.085 140.115C647.247 140.278 647.339 140.5 647.339 140.73V240.329C647.334 241.801 646.749 243.212 645.711 244.252C644.673 245.292 643.267 245.877 641.8 245.879ZM466.242 141.6V240.329C466.245 241.341 466.646 242.311 467.36 243.027C468.073 243.743 469.039 244.146 470.048 244.148H641.8C642.808 244.146 643.775 243.743 644.488 243.027C645.201 242.311 645.603 241.341 645.605 240.329V141.6H466.242Z" fill="#141B41"/>
<path d="M470.048 127.447H641.808C643.047 127.447 644.236 127.941 645.112 128.82C645.988 129.699 646.481 130.892 646.481 132.136V140.739H465.384V132.136C465.384 130.894 465.875 129.702 466.75 128.823C467.624 127.944 468.81 127.449 470.048 127.447Z" fill="#6F9CEB"/>
<path d="M646.472 141.6H465.384C465.155 141.6 464.934 141.509 464.771 141.346C464.609 141.182 464.518 140.961 464.518 140.731V132.136C464.518 130.663 465.1 129.25 466.137 128.208C467.174 127.166 468.58 126.579 470.048 126.577H641.808C643.276 126.579 644.683 127.166 645.719 128.208C646.756 129.25 647.339 130.663 647.339 132.136V140.731C647.339 140.961 647.247 141.182 647.085 141.346C646.922 141.509 646.702 141.6 646.472 141.6ZM466.251 139.861H645.605V132.136C645.605 131.124 645.205 130.154 644.494 129.438C643.782 128.722 642.816 128.319 641.808 128.317H470.048C469.04 128.319 468.074 128.722 467.363 129.438C466.651 130.154 466.251 131.124 466.251 132.136V139.861Z" fill="#141B41"/>
<path d="M630.115 245.009H481.741C482.897 242.62 484.183 240.3 485.599 238.05C493.002 226.019 503.353 216.091 515.663 209.213C527.973 202.334 541.834 198.734 555.924 198.755C557.025 198.755 558.125 198.755 559.218 198.825C574.079 199.424 588.505 204.028 600.98 212.155C613.455 220.282 623.519 231.631 630.115 245.009Z" fill="#6F9CEB"/>
<path d="M630.115 245.879H481.741C481.594 245.88 481.449 245.842 481.32 245.771C481.191 245.699 481.082 245.596 481.004 245.471C480.928 245.338 480.888 245.188 480.888 245.036C480.888 244.883 480.928 244.733 481.004 244.601C482.186 242.188 483.488 239.836 484.905 237.554C492.39 225.398 502.852 215.367 515.295 208.419C527.737 201.47 541.745 197.835 555.984 197.859C557.224 197.859 558.316 197.859 559.313 197.929C574.329 198.532 588.905 203.184 601.51 211.396C614.115 219.607 624.284 231.074 630.947 244.592C631.023 244.724 631.063 244.874 631.063 245.027C631.063 245.18 631.023 245.33 630.947 245.462C630.862 245.604 630.739 245.718 630.592 245.792C630.444 245.866 630.279 245.896 630.115 245.879ZM483.145 244.14H628.737C622.096 231.227 612.163 220.312 599.952 212.505C587.74 204.697 573.685 200.277 559.218 199.695C558.238 199.642 557.172 199.625 555.958 199.625C542.016 199.601 528.3 203.161 516.118 209.967C503.937 216.773 493.695 226.597 486.37 238.502C485.182 240.329 484.116 242.243 483.111 244.14H483.145Z" fill="#141B41"/>
<path d="M475.309 135.476C476.435 135.476 477.347 134.561 477.347 133.432C477.347 132.302 476.435 131.387 475.309 131.387C474.184 131.387 473.272 132.302 473.272 133.432C473.272 134.561 474.184 135.476 475.309 135.476Z" fill="#F56132"/>
<path d="M475.31 131.396C475.713 131.396 476.107 131.516 476.442 131.741C476.777 131.966 477.038 132.286 477.192 132.66C477.346 133.034 477.386 133.446 477.307 133.843C477.228 134.239 477.033 134.604 476.747 134.889C476.461 135.175 476.097 135.369 475.702 135.447C475.306 135.524 474.896 135.483 474.524 135.327C474.152 135.171 473.834 134.907 473.612 134.57C473.389 134.233 473.271 133.836 473.273 133.432C473.273 133.164 473.325 132.898 473.428 132.651C473.53 132.403 473.68 132.178 473.87 131.989C474.059 131.8 474.284 131.65 474.531 131.549C474.778 131.447 475.043 131.395 475.31 131.396ZM475.31 129.656C474.563 129.655 473.833 129.875 473.211 130.29C472.59 130.706 472.105 131.296 471.819 131.988C471.532 132.68 471.457 133.442 471.602 134.177C471.748 134.911 472.107 135.587 472.635 136.116C473.163 136.646 473.835 137.007 474.567 137.152C475.3 137.298 476.059 137.222 476.748 136.935C477.437 136.647 478.026 136.161 478.44 135.537C478.853 134.914 479.073 134.181 479.072 133.432C479.069 132.431 478.672 131.472 477.967 130.765C477.262 130.057 476.307 129.659 475.31 129.656Z" fill="#141B41"/>
<path d="M484.663 135.476C485.788 135.476 486.7 134.561 486.7 133.432C486.7 132.302 485.788 131.387 484.663 131.387C483.538 131.387 482.625 132.302 482.625 133.432C482.625 134.561 483.538 135.476 484.663 135.476Z" fill="#FFBC0E"/>
<path d="M484.662 131.396C485.066 131.396 485.46 131.516 485.795 131.741C486.13 131.966 486.391 132.286 486.545 132.66C486.699 133.034 486.739 133.446 486.659 133.843C486.58 134.239 486.385 134.604 486.1 134.889C485.814 135.175 485.45 135.369 485.054 135.447C484.659 135.524 484.249 135.483 483.877 135.327C483.505 135.171 483.187 134.907 482.964 134.57C482.742 134.233 482.624 133.836 482.625 133.432C482.628 132.891 482.843 132.373 483.225 131.992C483.607 131.61 484.124 131.396 484.662 131.396ZM484.662 129.656C483.916 129.656 483.187 129.878 482.566 130.295C481.946 130.711 481.463 131.302 481.178 131.994C480.893 132.686 480.818 133.448 480.965 134.182C481.111 134.916 481.471 135.59 481.999 136.119C482.527 136.648 483.2 137.008 483.932 137.153C484.664 137.298 485.422 137.222 486.111 136.934C486.8 136.646 487.388 136.16 487.802 135.537C488.215 134.913 488.435 134.181 488.433 133.432C488.431 132.43 488.032 131.469 487.325 130.762C486.619 130.054 485.661 129.656 484.662 129.656Z" fill="#141B41"/>
<path d="M494.016 135.476C495.141 135.476 496.053 134.561 496.053 133.432C496.053 132.302 495.141 131.387 494.016 131.387C492.891 131.387 491.979 132.302 491.979 133.432C491.979 134.561 492.891 135.476 494.016 135.476Z" fill="#B6CDF7"/>
<path d="M494.015 131.396C494.419 131.394 494.814 131.513 495.15 131.737C495.487 131.961 495.749 132.28 495.904 132.654C496.06 133.028 496.101 133.44 496.022 133.837C495.944 134.235 495.75 134.6 495.464 134.886C495.179 135.172 494.815 135.367 494.419 135.446C494.023 135.525 493.613 135.483 493.24 135.328C492.868 135.172 492.55 134.908 492.327 134.571C492.103 134.233 491.985 133.837 491.987 133.432C491.989 132.893 492.204 132.376 492.584 131.995C492.963 131.614 493.478 131.398 494.015 131.396ZM494.015 129.656C493.269 129.656 492.54 129.878 491.92 130.295C491.299 130.711 490.816 131.302 490.531 131.994C490.246 132.686 490.172 133.448 490.318 134.182C490.464 134.916 490.824 135.59 491.352 136.119C491.88 136.648 492.553 137.008 493.285 137.153C494.017 137.298 494.775 137.222 495.464 136.934C496.153 136.646 496.741 136.16 497.155 135.537C497.568 134.913 497.788 134.181 497.786 133.432C497.784 132.43 497.385 131.469 496.679 130.762C495.972 130.054 495.014 129.656 494.015 129.656Z" fill="#141B41"/>
<path d="M530.786 206.254C530.722 208.883 530.129 211.471 529.042 213.864C527.954 216.256 526.395 218.402 524.458 220.173C521.095 223.209 516.579 225.167 514.377 229.133C511.777 233.848 513.094 240.295 511.196 245.036H491.536C489.454 243.312 487.64 241.286 486.153 239.025C485.954 238.703 485.772 238.381 485.599 238.068C495.932 221.348 511.835 208.844 530.483 202.774C530.707 203.92 530.808 205.087 530.786 206.254Z" fill="#B6CDF7"/>
<path d="M511.187 245.879H491.536C491.323 245.881 491.116 245.804 490.956 245.662C488.811 243.878 486.942 241.784 485.408 239.45C485.211 239.12 485.021 238.789 484.836 238.459C484.76 238.326 484.72 238.176 484.72 238.024C484.72 237.871 484.76 237.721 484.836 237.589C495.274 220.691 511.343 208.053 530.188 201.921C530.305 201.883 530.429 201.87 530.552 201.884C530.674 201.897 530.793 201.937 530.899 202C531.004 202.063 531.094 202.147 531.165 202.247C531.235 202.348 531.283 202.462 531.306 202.583C531.541 203.797 531.645 205.034 531.618 206.271C531.542 209.013 530.917 211.711 529.781 214.205C528.645 216.699 527.02 218.939 525.004 220.79C523.809 221.835 522.556 222.811 521.251 223.713C518.807 225.453 516.492 227.089 515.183 229.524C513.874 231.96 513.606 234.979 513.372 237.911C513.299 240.436 512.852 242.937 512.045 245.331C511.978 245.502 511.859 245.646 511.705 245.745C511.551 245.843 511.37 245.89 511.187 245.879ZM491.866 244.139H510.58C511.165 242.064 511.502 239.926 511.586 237.771C511.837 234.657 512.089 231.43 513.606 228.681C515.123 225.932 517.732 224.061 520.237 222.295C521.5 221.432 522.713 220.497 523.869 219.494C525.714 217.806 527.203 215.762 528.245 213.484C529.288 211.206 529.863 208.742 529.937 206.236C529.953 205.454 529.912 204.672 529.815 203.896C511.912 209.944 496.638 222.012 486.578 238.059C486.665 238.223 486.761 238.383 486.864 238.537C488.248 240.641 489.933 242.529 491.866 244.139Z" fill="#141B41"/>
<path d="M630.115 245.009H613.507C612.17 243.236 610.618 241.638 608.887 240.251C606.997 238.807 604.622 237.484 604.145 235.153C603.209 230.629 604.041 229.585 599.386 228.289C596.704 227.43 593.865 227.177 591.074 227.55C587.667 228.124 585.248 229.368 581.903 227.254C580.503 226.347 579.372 225.078 578.63 223.581C577.887 222.084 577.559 220.414 577.681 218.746C577.985 215.188 580.334 211.639 579.077 208.307C578.643 207.167 577.794 206.123 577.785 204.897C577.724 199.19 589.721 205.949 591.854 206.984C608.461 215.048 621.922 228.429 630.115 245.018V245.009Z" fill="#B6CDF7"/>
<path d="M630.115 245.879H613.507C613.375 245.88 613.245 245.85 613.126 245.793C613.008 245.736 612.903 245.652 612.822 245.549C611.531 243.831 610.031 242.282 608.358 240.938C608.054 240.703 607.734 240.477 607.404 240.242C605.671 239.007 603.755 237.632 603.295 235.327C603.122 234.457 603.001 233.761 602.905 233.135C602.489 230.525 602.42 230.038 599.152 229.124C596.594 228.298 593.884 228.054 591.221 228.411C590.553 228.515 589.938 228.654 589.34 228.785C586.809 229.342 584.425 229.872 581.434 227.985C579.903 226.99 578.666 225.6 577.853 223.961C577.04 222.322 576.681 220.494 576.814 218.668C576.98 217.286 577.285 215.925 577.724 214.605C578.357 212.474 578.955 210.455 578.262 208.611C578.12 208.254 577.958 207.906 577.776 207.567C577.277 206.76 576.979 205.844 576.909 204.897C576.867 204.387 576.964 203.875 577.188 203.415C577.412 202.956 577.756 202.566 578.184 202.287C580.732 200.712 586.288 203.157 591.385 205.766L592.252 206.193C609.029 214.34 622.628 227.858 630.904 244.618C630.98 244.75 631.02 244.9 631.02 245.053C631.02 245.205 630.98 245.355 630.904 245.488C630.819 245.618 630.701 245.723 630.562 245.791C630.424 245.86 630.269 245.891 630.115 245.879ZM613.923 244.139H628.659C620.5 228.299 607.451 215.536 591.463 207.759L590.597 207.315C584.329 204.096 580.463 202.887 579.102 203.731C578.972 203.809 578.634 204.018 578.643 204.879C578.715 205.555 578.943 206.204 579.311 206.776C579.526 207.168 579.714 207.575 579.874 207.994C580.741 210.386 580.065 212.787 579.38 215.101C578.971 216.308 578.68 217.552 578.513 218.816C578.407 220.325 578.705 221.835 579.377 223.189C580.05 224.543 581.071 225.691 582.336 226.514C584.719 228.019 586.488 227.628 588.941 227.089C589.565 226.949 590.215 226.81 590.9 226.688C593.81 226.297 596.769 226.556 599.568 227.445C603.694 228.602 604.076 229.742 604.57 232.856C604.665 233.465 604.769 234.161 604.942 234.97C605.272 236.588 606.771 237.676 608.366 238.833C608.704 239.076 609.034 239.311 609.355 239.555C611.057 240.891 612.591 242.431 613.923 244.139Z" fill="#141B41"/>
<path d="M534.635 228.202C534.418 222.113 528.498 226.645 526.972 229.072C525.793 230.925 521.702 233.335 524.241 235.571C524.922 236.102 525.734 236.436 526.59 236.535C527.446 236.635 528.313 236.497 529.096 236.136C530.657 235.389 531.983 234.224 532.927 232.77C533.98 231.476 534.58 229.872 534.635 228.202Z" fill="#B6CDF7"/>
<path d="M527.032 237.415C525.802 237.44 524.605 237.01 523.669 236.206C523.345 235.953 523.078 235.634 522.887 235.269C522.696 234.905 522.584 234.503 522.56 234.092C522.508 232.552 523.808 231.221 524.961 230.038C525.432 229.598 525.859 229.111 526.235 228.585C527.396 226.767 530.855 223.723 533.334 224.401C534.27 224.653 535.406 225.515 535.501 228.168C535.464 230.027 534.804 231.819 533.629 233.257C532.601 234.849 531.147 236.119 529.434 236.919C528.674 237.243 527.858 237.411 527.032 237.415ZM532.519 226.037C531.08 226.037 528.584 228.081 527.665 229.516C527.222 230.143 526.72 230.726 526.166 231.256C525.299 232.126 524.233 233.231 524.259 234.023C524.277 234.197 524.334 234.365 524.423 234.515C524.513 234.665 524.634 234.794 524.779 234.893C525.338 235.315 526.001 235.577 526.697 235.65C527.394 235.724 528.097 235.606 528.731 235.31C530.147 234.627 531.347 233.564 532.199 232.239C533.139 231.106 533.681 229.693 533.742 228.22C533.742 227.35 533.534 226.254 532.875 226.071C532.758 226.044 532.639 226.033 532.519 226.037Z" fill="#141B41"/>
<path d="M547.489 189.786C547.489 189.786 544.144 196.058 543.745 206.402C543.346 216.745 553.531 244.009 553.531 244.009H558.403C558.403 244.009 565.337 226.263 567.478 212.178C569.619 198.094 564.366 189.786 564.366 189.786H547.489Z" fill="#F56132"/>
<path d="M564.358 189.786C564.358 189.786 569.637 197.99 567.478 212.178C565.32 226.367 558.403 244.009 558.403 244.009H553.531C553.531 244.009 543.355 216.745 543.788 206.402C544.222 196.058 547.533 189.786 547.533 189.786H564.401H564.358ZM564.401 188.046H547.49C547.181 188.042 546.877 188.12 546.609 188.273C546.341 188.426 546.118 188.648 545.964 188.916C545.817 189.186 542.419 195.667 542.011 206.315C541.604 216.963 551.486 243.478 551.91 244.592C552.035 244.922 552.257 245.206 552.547 245.406C552.836 245.607 553.18 245.714 553.531 245.714H558.403C558.751 245.714 559.091 245.608 559.379 245.411C559.666 245.214 559.888 244.935 560.015 244.609C560.301 243.879 567.045 226.515 569.195 212.422C571.423 197.755 566.048 189.186 565.823 188.829C565.665 188.583 565.449 188.38 565.193 188.241C564.937 188.101 564.649 188.028 564.358 188.029L564.401 188.046Z" fill="#141B41"/>
<path d="M564.358 178.233H547.49V189.786H564.358V178.233Z" fill="#141B41"/>
<path d="M564.367 190.656H547.49C547.26 190.656 547.039 190.564 546.877 190.401C546.714 190.238 546.623 190.017 546.623 189.786V178.233C546.623 178.002 546.714 177.781 546.877 177.618C547.039 177.455 547.26 177.363 547.49 177.363H564.367C564.597 177.363 564.817 177.455 564.98 177.618C565.142 177.781 565.234 178.002 565.234 178.233V189.786C565.234 190.017 565.142 190.238 564.98 190.401C564.817 190.564 564.597 190.656 564.367 190.656ZM548.357 188.916H563.5V179.103H548.357V188.916Z" fill="#141B41"/>
<path d="M545.253 161.4L530.873 175.275L535.051 198.52L542.687 179.277L547.186 177.528L545.253 161.4Z" fill="#6F9CEB"/>
<path d="M535.051 199.39H534.964C534.777 199.371 534.602 199.29 534.464 199.162C534.326 199.033 534.234 198.863 534.201 198.677L530.023 175.441C529.998 175.3 530.007 175.155 530.051 175.018C530.095 174.881 530.172 174.758 530.275 174.658L544.647 160.739C544.763 160.626 544.908 160.548 545.066 160.513C545.224 160.479 545.388 160.489 545.541 160.543C545.693 160.598 545.827 160.694 545.928 160.82C546.029 160.947 546.093 161.1 546.112 161.261L548.053 177.39C548.075 177.582 548.033 177.777 547.932 177.942C547.832 178.108 547.679 178.235 547.499 178.303L543.346 179.921L535.857 198.808C535.798 198.976 535.69 199.122 535.546 199.226C535.401 199.331 535.229 199.388 535.051 199.39ZM531.809 175.58L535.372 195.371L541.882 178.956C541.925 178.846 541.991 178.746 542.074 178.662C542.158 178.578 542.257 178.512 542.367 178.468L546.25 176.955L544.595 163.236L531.809 175.58Z" fill="#141B41"/>
<path d="M566.603 161.4L580.983 175.275L576.797 198.52L569.169 179.277L564.67 177.528L566.603 161.4Z" fill="#6F9CEB"/>
<path d="M576.797 199.39C576.624 199.389 576.457 199.336 576.315 199.238C576.173 199.141 576.063 199.003 575.999 198.842L568.501 179.956L564.349 178.338C564.17 178.268 564.019 178.14 563.92 177.975C563.822 177.81 563.78 177.616 563.803 177.424L565.745 161.296C565.764 161.135 565.827 160.982 565.928 160.855C566.029 160.728 566.163 160.632 566.315 160.578C566.468 160.524 566.632 160.513 566.79 160.548C566.948 160.582 567.094 160.661 567.21 160.774L581.581 174.693C581.684 174.792 581.761 174.916 581.805 175.053C581.849 175.189 581.859 175.335 581.833 175.476L577.655 198.712C577.622 198.899 577.528 199.07 577.389 199.199C577.249 199.328 577.072 199.407 576.883 199.425L576.797 199.39ZM565.606 176.955L569.481 178.468C569.592 178.511 569.693 178.576 569.778 178.66C569.863 178.744 569.93 178.845 569.975 178.956L576.485 195.371L580.047 175.58L567.262 163.236L565.606 176.955Z" fill="#141B41"/>
<path d="M568.467 183.07C571.171 169.786 572.801 155.398 572.801 145.837C572.801 125.367 555.898 111.422 555.898 111.422C555.898 111.422 539.003 125.341 539.003 145.837C539.003 155.406 540.659 169.786 543.338 183.07H568.467Z" fill="#6F9CEB"/>
<path d="M568.467 183.94H543.39C543.187 183.944 542.989 183.877 542.831 183.75C542.672 183.622 542.563 183.444 542.523 183.244C539.827 170.004 538.146 155.676 538.146 145.837C538.146 125.193 555.187 110.892 555.361 110.744C555.516 110.616 555.71 110.546 555.911 110.546C556.112 110.546 556.306 110.616 556.461 110.744C556.635 110.892 573.676 125.193 573.676 145.837C573.676 155.676 571.995 170.012 569.299 183.244C569.26 183.438 569.156 183.612 569.005 183.739C568.853 183.865 568.664 183.936 568.467 183.94ZM544.101 182.2H567.756C570.313 169.447 571.96 155.232 571.96 145.837C571.96 128.108 558.811 115.189 555.924 112.579C553.046 115.189 539.896 128.108 539.896 145.837C539.896 155.25 541.543 169.447 544.101 182.2Z" fill="#141B41"/>
<path d="M555.924 150.969C560.582 150.969 564.358 147.18 564.358 142.505C564.358 137.83 560.582 134.041 555.924 134.041C551.266 134.041 547.49 137.83 547.49 142.505C547.49 147.18 551.266 150.969 555.924 150.969Z" fill="white"/>
<path d="M555.924 151.839C554.084 151.838 552.287 151.289 550.759 150.262C549.23 149.235 548.039 147.777 547.337 146.071C546.634 144.365 546.451 142.489 546.811 140.678C547.171 138.868 548.058 137.206 549.359 135.901C550.66 134.597 552.317 133.709 554.121 133.349C555.925 132.99 557.795 133.175 559.494 133.882C561.193 134.589 562.645 135.785 563.666 137.32C564.688 138.855 565.233 140.659 565.233 142.505C565.229 144.981 564.246 147.353 562.501 149.103C560.756 150.853 558.391 151.837 555.924 151.839ZM555.924 134.91C554.427 134.912 552.965 135.359 551.722 136.194C550.479 137.03 549.51 138.217 548.939 139.605C548.367 140.992 548.218 142.519 548.511 143.992C548.804 145.464 549.526 146.817 550.584 147.878C551.643 148.939 552.992 149.662 554.459 149.954C555.927 150.246 557.448 150.095 558.83 149.52C560.212 148.945 561.394 147.972 562.225 146.723C563.056 145.474 563.5 144.007 563.5 142.505C563.497 140.49 562.698 138.558 561.278 137.134C559.857 135.71 557.931 134.91 555.924 134.91Z" fill="#141B41"/>
<path d="M553.531 190.03C553.531 190.03 550.792 194.379 550.81 201.957C550.81 208.82 555.794 229.525 555.794 229.525C555.794 229.525 561.688 204.445 561.081 198.764C560.475 193.083 558.282 190.065 558.282 190.065L553.531 190.03Z" fill="#FFBC0E"/>
<path d="M555.794 230.395C555.594 230.4 555.399 230.336 555.242 230.214C555.084 230.092 554.972 229.919 554.927 229.725C554.727 228.855 549.934 208.846 549.917 201.956C549.917 194.188 552.656 189.777 552.768 189.56C552.847 189.436 552.957 189.335 553.085 189.265C553.214 189.195 553.359 189.158 553.505 189.16H558.255C558.392 189.159 558.527 189.191 558.649 189.253C558.771 189.315 558.877 189.406 558.957 189.516C559.053 189.656 561.298 192.822 561.913 198.668C562.529 204.514 556.851 228.69 556.617 229.725C556.571 229.919 556.46 230.092 556.302 230.214C556.144 230.336 555.949 230.4 555.75 230.395H555.794ZM554.06 190.9C552.424 194.35 551.617 198.137 551.702 201.956C551.702 206.898 554.398 219.399 555.811 225.645C557.406 218.494 560.691 203.026 560.249 198.851C560.005 196.06 559.181 193.352 557.831 190.9H554.06Z" fill="#141B41"/>
<path d="M517.463 183.096C517.288 183.096 517.118 183.042 516.974 182.943C516.83 182.844 516.719 182.703 516.657 182.539L511.274 168.62C511.226 168.513 511.201 168.397 511.199 168.28C511.198 168.162 511.22 168.046 511.264 167.937C511.309 167.829 511.375 167.73 511.458 167.648C511.541 167.566 511.64 167.501 511.749 167.458C511.858 167.415 511.975 167.395 512.092 167.398C512.209 167.402 512.324 167.429 512.43 167.478C512.536 167.528 512.631 167.598 512.71 167.685C512.788 167.772 512.848 167.874 512.886 167.985L518.278 181.904C518.36 182.119 518.354 182.357 518.261 182.568C518.169 182.778 517.997 182.943 517.783 183.027C517.682 183.07 517.573 183.094 517.463 183.096Z" fill="#DFEAEF"/>
<path d="M502.623 191.213C502.506 191.211 502.39 191.186 502.282 191.138C502.175 191.09 502.079 191.021 501.999 190.934L485.347 173.205C485.266 173.124 485.201 173.028 485.157 172.922C485.113 172.816 485.091 172.702 485.091 172.587C485.091 172.473 485.113 172.359 485.157 172.253C485.201 172.147 485.266 172.051 485.347 171.97C485.51 171.808 485.729 171.717 485.958 171.717C486.187 171.717 486.407 171.808 486.569 171.97L503.221 189.708C503.383 189.871 503.473 190.091 503.473 190.321C503.473 190.551 503.383 190.771 503.221 190.934C503.066 191.103 502.851 191.203 502.623 191.213Z" fill="#DFEAEF"/>
<path d="M488.563 205.123C488.428 205.122 488.294 205.09 488.173 205.027L476.905 199.295C476.803 199.243 476.712 199.171 476.638 199.084C476.563 198.997 476.507 198.896 476.472 198.787C476.436 198.678 476.422 198.563 476.431 198.448C476.44 198.334 476.471 198.222 476.523 198.12C476.575 198.018 476.646 197.927 476.733 197.852C476.82 197.778 476.921 197.721 477.029 197.686C477.138 197.65 477.253 197.636 477.367 197.645C477.48 197.654 477.592 197.685 477.693 197.737L488.962 203.479C489.136 203.568 489.274 203.713 489.355 203.891C489.436 204.069 489.455 204.269 489.409 204.459C489.363 204.649 489.255 204.818 489.101 204.938C488.948 205.059 488.758 205.124 488.563 205.123Z" fill="#DFEAEF"/>
<path d="M594.341 183.096C594.234 183.097 594.128 183.076 594.029 183.035C593.816 182.952 593.644 182.787 593.551 182.577C593.459 182.366 593.453 182.128 593.535 181.913L598.927 167.994C598.965 167.883 599.025 167.781 599.103 167.694C599.182 167.607 599.277 167.536 599.383 167.487C599.489 167.438 599.604 167.411 599.721 167.407C599.838 167.404 599.954 167.424 600.063 167.467C600.172 167.51 600.271 167.574 600.355 167.657C600.438 167.739 600.504 167.838 600.548 167.946C600.593 168.055 600.615 168.171 600.613 168.289C600.612 168.406 600.586 168.522 600.539 168.629L595.156 182.548C595.091 182.711 594.979 182.851 594.833 182.949C594.688 183.047 594.516 183.098 594.341 183.096Z" fill="#DFEAEF"/>
<path d="M609.19 191.213C608.967 191.212 608.753 191.124 608.592 190.969C608.43 190.806 608.34 190.586 608.34 190.356C608.34 190.126 608.43 189.905 608.592 189.742L625.244 172.004C625.406 171.842 625.626 171.751 625.855 171.751C626.084 171.751 626.303 171.842 626.466 172.004C626.547 172.085 626.612 172.182 626.656 172.288C626.7 172.394 626.722 172.507 626.722 172.622C626.722 172.737 626.7 172.851 626.656 172.957C626.612 173.063 626.547 173.159 626.466 173.24L609.814 190.969C609.731 191.049 609.634 191.112 609.526 191.154C609.419 191.196 609.305 191.216 609.19 191.213Z" fill="#DFEAEF"/>
<path d="M623.25 205.123C623.09 205.123 622.933 205.078 622.797 204.993C622.661 204.909 622.55 204.788 622.478 204.645C622.375 204.44 622.356 204.203 622.426 203.985C622.496 203.767 622.648 203.585 622.851 203.479L634.12 197.737C634.222 197.685 634.333 197.654 634.447 197.645C634.561 197.636 634.675 197.65 634.784 197.686C634.892 197.721 634.993 197.778 635.08 197.852C635.167 197.927 635.238 198.018 635.29 198.12C635.342 198.222 635.373 198.334 635.382 198.448C635.391 198.563 635.377 198.678 635.342 198.787C635.306 198.896 635.25 198.997 635.175 199.084C635.101 199.171 635.01 199.243 634.908 199.295L623.683 205.027C623.549 205.097 623.4 205.13 623.25 205.123Z" fill="#DFEAEF"/>
<g filter="url(#filter1_d)">
<rect x="142" y="364.995" width="827.848" height="53.7982" rx="4" fill="white"/>
<rect x="142.5" y="365.495" width="826.848" height="52.7982" rx="3.5" stroke="#B6CDF7"/>
</g>
<g filter="url(#filter2_d)">
<rect x="142" y="504.87" width="827.848" height="55.1431" rx="4" fill="white"/>
<rect x="142.5" y="505.37" width="826.848" height="54.1431" rx="3.5" stroke="#B6CDF7"/>
</g>
<g filter="url(#filter3_d)">
<rect x="142" y="434.932" width="827.848" height="53.7982" rx="4" fill="white"/>
<rect x="142.5" y="435.432" width="826.848" height="52.7982" rx="3.5" stroke="#B6CDF7"/>
</g>
<g filter="url(#filter4_d)">
<rect x="142" y="576.152" width="827.848" height="53.7982" rx="4" fill="white"/>
<rect x="142.5" y="576.652" width="826.848" height="52.7982" rx="3.5" stroke="#B6CDF7"/>
</g>
<g filter="url(#filter5_d)">
<rect x="142" y="646.09" width="827.848" height="55.1431" rx="4" fill="white"/>
<rect x="142.5" y="646.59" width="826.848" height="54.1431" rx="3.5" stroke="#B6CDF7"/>
</g>
<rect x="154.944" y="380.736" width="20.3199" height="20.3357" rx="10.1599" fill="#59C3C3"/>
<path d="M161.602 391.063L164.07 393.705L168.155 389.015" stroke="white" stroke-width="2" stroke-linecap="round"/>
<rect x="155.444" y="522.23" width="19.3199" height="19.3358" rx="9.65995" stroke="#ECE8EF" stroke-linecap="round"/>
<rect x="154.944" y="451.233" width="20.3199" height="20.3357" rx="10.1599" fill="#59C3C3"/>
<path d="M161.602 461.561L164.07 464.203L168.155 459.512" stroke="white" stroke-width="2" stroke-linecap="round"/>
<rect x="155.444" y="592.728" width="19.3199" height="19.3357" rx="9.65995" stroke="#ECE8EF" stroke-linecap="round"/>
<rect x="155.444" y="663.225" width="19.3199" height="19.3356" rx="9.65995" stroke="#ECE8EF" stroke-linecap="round"/>
<rect x="142" y="332.716" width="827.848" height="5.37985" rx="2.68993" fill="white"/>
<rect x="142" y="332.716" width="115.576" height="5.37985" rx="2.68993" fill="#59C3C3"/>
<rect x="190.381" y="385.169" width="263.406" height="17.4844" rx="8" fill="#EDEFF3"/>
<rect x="190.381" y="526.389" width="157.237" height="17.4845" rx="8" fill="#EDEFF3"/>
<rect x="190.381" y="453.762" width="305.067" height="17.4844" rx="8" fill="#EDEFF3"/>
<rect x="190.381" y="594.981" width="202.93" height="17.4844" rx="8" fill="#EDEFF3"/>
<rect x="190.381" y="664.919" width="248.623" height="17.4844" rx="8" fill="#EDEFF3"/>
<path d="M9 5.18518C9 2.32149 11.6583 0 14.9376 0H1097.06C1100.34 0 1103 2.32149 1103 5.18518V35H9V5.18518Z" fill="#333745"/>
<path d="M33.1859 17.1784C33.1859 21.0436 30.0524 24.1771 26.1872 24.1771C22.3219 24.1771 19.1885 21.0436 19.1885 17.1784C19.1885 13.3131 22.3219 10.1797 26.1872 10.1797C30.0524 10.1797 33.1859 13.3131 33.1859 17.1784Z" fill="#EE4266"/>
<path d="M57.3548 17.1784C57.3548 21.0436 54.2214 24.1771 50.3561 24.1771C46.4908 24.1771 43.3574 21.0436 43.3574 17.1784C43.3574 13.3131 46.4908 10.1797 50.3561 10.1797C54.2214 10.1797 57.3548 13.3131 57.3548 17.1784Z" fill="#FFC857"/>
<path d="M81.5369 17.1784C81.5369 21.0436 78.4035 24.1771 74.5382 24.1771C70.673 24.1771 67.5396 21.0436 67.5396 17.1784C67.5396 13.3131 70.673 10.1797 74.5382 10.1797C78.4035 10.1797 81.5369 13.3131 81.5369 17.1784Z" fill="#59C3C3"/>
<path d="M9 35.2822H1102.76V87.1034H9V35.2822Z" fill="white"/>
<path d="M9 87.1035H1102.76" stroke="#E4E8EE"/>
<path d="M98.082 49.6905C98.082 46.8794 100.361 44.6006 103.172 44.6006H394.572C397.383 44.6006 399.662 46.8794 399.662 49.6905V71.3229C399.662 74.134 397.383 76.4128 394.572 76.4128H103.172C100.361 76.4128 98.082 74.134 98.082 71.3229V49.6905Z" fill="#EDEFF3"/>
<rect x="109.049" y="55.4492" width="142.239" height="9.6433" rx="4.82165" fill="#D4D8E4"/>
<path d="M23.4103 60.4425L27.7064 56.6826C28.2103 56.2416 28.2215 55.5166 27.7316 55.0631C27.2416 54.6097 26.436 54.5996 25.9322 55.0405L20.9445 59.4056L20.9435 59.4065C20.294 59.9757 20.2947 60.9116 20.9452 61.48L25.9322 65.8445C26.436 66.2855 27.2416 66.2753 27.7316 65.8219C28.2215 65.3684 28.2103 64.6434 27.7064 64.2024L23.4103 60.4425Z" fill="#D4D8E4"/>
<path d="M50.5975 60.4427L46.3014 64.2027C45.7975 64.6436 45.7863 65.3687 46.2762 65.8221C46.7662 66.2756 47.5718 66.2857 48.0756 65.8448L53.0633 61.4796L53.0643 61.4788C53.7138 60.9095 53.7131 59.9737 53.0626 59.4053L48.0756 55.0407C47.5718 54.5998 46.7662 54.6099 46.2762 55.0634C45.7863 55.5168 45.7976 56.2419 46.3014 56.6828L50.5975 60.4427Z" fill="#D4D8E4"/>
<path fill-rule="evenodd" clip-rule="evenodd" d="M74.856 54.7168C74.856 54.014 75.4257 53.4443 76.1284 53.4443C79.818 53.4443 82.809 56.4353 82.809 60.1249C82.809 63.8145 79.818 66.8055 76.1284 66.8055C75.4257 66.8055 74.856 66.2358 74.856 65.533C74.856 64.8302 75.4257 64.2605 76.1284 64.2605C78.4125 64.2605 80.264 62.4089 80.264 60.1249C80.264 57.8409 78.4125 55.9893 76.1284 55.9893C75.4257 55.9893 74.856 55.4196 74.856 54.7168Z" fill="#D4D8E4"/>
<path fill-rule="evenodd" clip-rule="evenodd" d="M70.7158 61.397C70.0131 61.397 69.4434 60.8273 69.4434 60.1245C69.4434 56.4349 72.4344 53.4439 76.1239 53.4439C79.8135 53.4439 82.8045 56.4349 82.8045 60.1245C82.8045 60.8273 82.2348 61.397 81.532 61.397C80.8292 61.397 80.2595 60.8273 80.2595 60.1245C80.2595 57.8405 78.408 55.9889 76.1239 55.9889C73.8399 55.9889 71.9883 57.8405 71.9883 60.1245C71.9883 60.8273 71.4186 61.397 70.7158 61.397Z" fill="#D4D8E4"/>
<path d="M69.9067 60.3541L68.4171 56.8517C68.2424 56.441 67.7854 56.2832 67.3964 56.4994C67.0074 56.7156 66.8336 57.2239 67.0083 57.6346L68.7378 61.7009L68.7381 61.7017C68.9638 62.2314 69.5568 62.4252 70.052 62.1312L73.8526 59.8784C74.2366 59.6508 74.3975 59.1384 74.212 58.7338C74.0264 58.3293 73.5648 58.1858 73.1808 58.4134L69.9067 60.3541Z" fill="#D4D8E4"/>
</g>
<defs>
<filter id="filter0_d" x="0" y="0" width="1110" height="752" filterUnits="userSpaceOnUse" color-interpolation-filters="sRGB">
<feFlood flood-opacity="0" result="BackgroundImageFix"/>
<feColorMatrix in="SourceAlpha" type="matrix" values="0 0 0 0 0 0 0 0 0 0 0 0 0 0 0 0 0 0 127 0"/>
<feOffset dx="-1" dy="9"/>
<feGaussianBlur stdDeviation="4"/>
<feColorMatrix type="matrix" values="0 0 0 0 0.174688 0 0 0 0 0.210969 0 0 0 0 0.5375 0 0 0 0.3 0"/>
<feBlend mode="normal" in2="BackgroundImageFix" result="effect1_dropShadow"/>
<feBlend mode="normal" in="SourceGraphic" in2="effect1_dropShadow" result="shape"/>
</filter>
<filter id="filter1_d" x="140" y="364.995" width="831.848" height="57.7982" filterUnits="userSpaceOnUse" color-interpolation-filters="sRGB">
<feFlood flood-opacity="0" result="BackgroundImageFix"/>
<feColorMatrix in="SourceAlpha" type="matrix" values="0 0 0 0 0 0 0 0 0 0 0 0 0 0 0 0 0 0 127 0"/>
<feOffset dy="2"/>
<feGaussianBlur stdDeviation="1"/>
<feColorMatrix type="matrix" values="0 0 0 0 0.2 0 0 0 0 0.215686 0 0 0 0 0.270588 0 0 0 0.08 0"/>
<feBlend mode="normal" in2="BackgroundImageFix" result="effect1_dropShadow"/>
<feBlend mode="normal" in="SourceGraphic" in2="effect1_dropShadow" result="shape"/>
</filter>
<filter id="filter2_d" x="140" y="504.87" width="831.848" height="59.1431" filterUnits="userSpaceOnUse" color-interpolation-filters="sRGB">
<feFlood flood-opacity="0" result="BackgroundImageFix"/>
<feColorMatrix in="SourceAlpha" type="matrix" values="0 0 0 0 0 0 0 0 0 0 0 0 0 0 0 0 0 0 127 0"/>
<feOffset dy="2"/>
<feGaussianBlur stdDeviation="1"/>
<feColorMatrix type="matrix" values="0 0 0 0 0.2 0 0 0 0 0.215686 0 0 0 0 0.270588 0 0 0 0.08 0"/>
<feBlend mode="normal" in2="BackgroundImageFix" result="effect1_dropShadow"/>
<feBlend mode="normal" in="SourceGraphic" in2="effect1_dropShadow" result="shape"/>
</filter>
<filter id="filter3_d" x="140" y="434.932" width="831.848" height="57.7982" filterUnits="userSpaceOnUse" color-interpolation-filters="sRGB">
<feFlood flood-opacity="0" result="BackgroundImageFix"/>
<feColorMatrix in="SourceAlpha" type="matrix" values="0 0 0 0 0 0 0 0 0 0 0 0 0 0 0 0 0 0 127 0"/>
<feOffset dy="2"/>
<feGaussianBlur stdDeviation="1"/>
<feColorMatrix type="matrix" values="0 0 0 0 0.2 0 0 0 0 0.215686 0 0 0 0 0.270588 0 0 0 0.08 0"/>
<feBlend mode="normal" in2="BackgroundImageFix" result="effect1_dropShadow"/>
<feBlend mode="normal" in="SourceGraphic" in2="effect1_dropShadow" result="shape"/>
</filter>
<filter id="filter4_d" x="140" y="576.152" width="831.848" height="57.7982" filterUnits="userSpaceOnUse" color-interpolation-filters="sRGB">
<feFlood flood-opacity="0" result="BackgroundImageFix"/>
<feColorMatrix in="SourceAlpha" type="matrix" values="0 0 0 0 0 0 0 0 0 0 0 0 0 0 0 0 0 0 127 0"/>
<feOffset dy="2"/>
<feGaussianBlur stdDeviation="1"/>
<feColorMatrix type="matrix" values="0 0 0 0 0.2 0 0 0 0 0.215686 0 0 0 0 0.270588 0 0 0 0.08 0"/>
<feBlend mode="normal" in2="BackgroundImageFix" result="effect1_dropShadow"/>
<feBlend mode="normal" in="SourceGraphic" in2="effect1_dropShadow" result="shape"/>
</filter>
<filter id="filter5_d" x="140" y="646.09" width="831.848" height="59.1431" filterUnits="userSpaceOnUse" color-interpolation-filters="sRGB">
<feFlood flood-opacity="0" result="BackgroundImageFix"/>
<feColorMatrix in="SourceAlpha" type="matrix" values="0 0 0 0 0 0 0 0 0 0 0 0 0 0 0 0 0 0 127 0"/>
<feOffset dy="2"/>
<feGaussianBlur stdDeviation="1"/>
<feColorMatrix type="matrix" values="0 0 0 0 0.2 0 0 0 0 0.215686 0 0 0 0 0.270588 0 0 0 0.08 0"/>
<feBlend mode="normal" in2="BackgroundImageFix" result="effect1_dropShadow"/>
<feBlend mode="normal" in="SourceGraphic" in2="effect1_dropShadow" result="shape"/>
</filter>
</defs>
</svg>
