<svg width="32" height="32" viewBox="0 0 32 32" fill="none" xmlns="http://www.w3.org/2000/svg">
<path fill-rule="evenodd" clip-rule="evenodd" d="M16.4592 8.46774C16.601 8.60854 16.6808 8.80014 16.6808 9V11.0843C16.6808 11.4985 16.345 11.8343 15.9308 11.8343C15.5165 11.8343 15.1808 11.4985 15.1808 11.0843V9.79277C13.6947 9.95121 12.3419 10.5399 11.2442 11.4335L12.1771 12.3664C12.47 12.6593 12.47 13.1342 12.1771 13.4271C11.8842 13.72 11.4094 13.72 11.1165 13.4271L9.62531 11.9359C9.4844 11.795 9.40536 11.6038 9.40564 11.4046C9.40592 11.2053 9.48549 11.0143 9.62679 10.8738C11.2435 9.2661 13.4642 8.26798 15.9253 8.25002C16.1251 8.24856 16.3173 8.32693 16.4592 8.46774Z" fill="url(#paint0_linear_1311_6547)"/>
<path fill-rule="evenodd" clip-rule="evenodd" d="M10.6845 10.8738C10.9782 11.1659 10.9795 11.6408 10.6874 11.9345C9.51249 13.116 8.72933 14.6809 8.54277 16.4308H9.95789C10.3721 16.4308 10.7079 16.7665 10.7079 17.1808C10.7079 17.595 10.3721 17.9308 9.95789 17.9308H7.75C7.55014 17.9308 7.35854 17.851 7.21774 17.7092C7.07693 17.5673 6.99856 17.3751 7.00002 17.1753C7.01798 14.7142 8.0161 12.4935 9.62381 10.8768C9.91588 10.5831 10.3908 10.5818 10.6845 10.8738Z" fill="url(#paint1_linear_1311_6547)"/>
<path fill-rule="evenodd" clip-rule="evenodd" d="M15.1807 9C15.1807 8.58579 15.5165 8.25 15.9307 8.25H15.9712C18.4263 8.25 20.649 9.2402 22.2662 10.8394C22.4081 10.9798 22.4882 11.1709 22.4888 11.3706C22.4894 11.5702 22.4103 11.7618 22.2691 11.903L20.745 13.4271C20.4521 13.72 19.9773 13.72 19.6844 13.4271C19.3915 13.1342 19.3915 12.6593 19.6844 12.3664L20.6484 11.4024C19.3685 10.3684 17.7437 9.75 15.9719 9.75H15.9314C15.5172 9.75 15.1807 9.41421 15.1807 9Z" fill="url(#paint2_linear_1311_6547)"/>
<path fill-rule="evenodd" clip-rule="evenodd" d="M21.2055 10.8453C21.4968 10.5508 21.9717 10.5482 22.2662 10.8394C23.8999 12.4552 24.9266 14.6946 24.9356 17.178C24.9363 17.3774 24.8576 17.5689 24.7169 17.7101C24.5761 17.8514 24.385 17.9308 24.1856 17.9308H22.1919C21.7777 17.9308 21.4419 17.595 21.4419 17.1808C21.4419 16.7665 21.7777 16.4308 22.1919 16.4308H23.395C23.2106 14.6682 22.4083 13.0897 21.2114 11.9059C20.9169 11.6147 20.9142 11.1398 21.2055 10.8453Z" fill="url(#paint3_linear_1311_6547)"/>
<path fill-rule="evenodd" clip-rule="evenodd" d="M7.75 16.4307C8.16421 16.4307 8.5 16.7665 8.5 17.1807V17.2212C8.5 19.1547 9.23632 20.9138 10.4456 22.2399L21.4617 22.2789C22.6916 20.9449 23.4356 19.1714 23.4356 17.2219V17.1814C23.4356 16.7672 23.7714 16.4307 24.1856 16.4307C24.5998 16.4307 24.9356 16.7665 24.9356 17.1807V17.2212C24.9356 19.6932 23.9367 21.9339 22.3103 23.5603C22.169 23.7016 21.9772 23.7807 21.7774 23.78L10.12 23.7388C9.92057 23.7381 9.72961 23.658 9.58938 23.5162C7.9902 21.899 7 19.677 7 17.2219V17.1814C7 16.7672 7.33579 16.4307 7.75 16.4307Z" fill="url(#paint4_linear_1311_6547)"/>
<path d="M15.9307 15.2117C15.9307 15.2117 14.4313 19.1085 14.4313 19.4792C14.4313 20.3113 15.1069 20.9786 15.9307 20.9786C16.7628 20.9786 17.4301 20.3031 17.4301 19.4792C17.4301 19.1003 15.9307 15.2117 15.9307 15.2117Z" fill="url(#paint5_linear_1311_6547)"/>
<path fill-rule="evenodd" clip-rule="evenodd" d="M15.3972 16.6225C15.6876 15.8435 15.9307 15.2117 15.9307 15.2117C15.9307 15.2117 16.1743 15.8433 16.465 16.6222C16.8958 17.776 17.4301 19.253 17.4301 19.4792C17.4301 20.3031 16.7628 20.9786 15.9307 20.9786C15.1069 20.9786 14.4313 20.3113 14.4313 19.4792C14.4313 19.2578 14.9664 17.7781 15.3972 16.6225ZM15.9314 18.0685C15.8133 18.396 15.703 18.7088 15.6133 18.9751C15.5449 19.1785 15.4916 19.3453 15.4565 19.4668C15.4477 19.4975 15.4407 19.5227 15.4354 19.543C15.4667 19.789 15.6771 19.9786 15.9307 19.9786C16.1857 19.9786 16.3955 19.7875 16.4262 19.5417C16.4208 19.521 16.4137 19.4951 16.4046 19.4634C16.3696 19.3417 16.3165 19.1748 16.248 18.9714C16.1587 18.7059 16.0489 18.3945 15.9314 18.0685ZM16.4403 19.6019C16.4402 19.6018 16.4394 19.5981 16.4383 19.5915C16.4399 19.5988 16.4404 19.6021 16.4403 19.6019ZM15.4207 19.6051C15.4206 19.6053 15.4211 19.6019 15.4228 19.5943C15.4216 19.6012 15.4208 19.605 15.4207 19.6051Z" fill="url(#paint6_linear_1311_6547)"/>
<defs>
<linearGradient id="paint0_linear_1311_6547" x1="13.0432" y1="8.25" x2="15.6731" y2="13.4131" gradientUnits="userSpaceOnUse">
<stop stop-color="#6310E5"/>
<stop offset="1" stop-color="#8322FE"/>
</linearGradient>
<linearGradient id="paint1_linear_1311_6547" x1="8.95281" y1="10.6556" x2="13.2063" y2="13.9812" gradientUnits="userSpaceOnUse">
<stop stop-color="#6310E5"/>
<stop offset="1" stop-color="#8322FE"/>
</linearGradient>
<linearGradient id="paint2_linear_1311_6547" x1="18.8348" y1="8.25" x2="21.4576" y2="13.4227" gradientUnits="userSpaceOnUse">
<stop stop-color="#6310E5"/>
<stop offset="1" stop-color="#8322FE"/>
</linearGradient>
<linearGradient id="paint3_linear_1311_6547" x1="22.9622" y1="10.6227" x2="27.241" y2="13.9881" gradientUnits="userSpaceOnUse">
<stop stop-color="#6310E5"/>
<stop offset="1" stop-color="#8322FE"/>
</linearGradient>
<linearGradient id="paint4_linear_1311_6547" x1="15.9678" y1="16.4307" x2="18.2765" y2="24.6364" gradientUnits="userSpaceOnUse">
<stop stop-color="#6310E5"/>
<stop offset="1" stop-color="#8322FE"/>
</linearGradient>
<linearGradient id="paint5_linear_1311_6547" x1="15.9307" y1="15.2117" x2="19.275" y2="17.7444" gradientUnits="userSpaceOnUse">
<stop stop-color="#6310E5"/>
<stop offset="1" stop-color="#8322FE"/>
</linearGradient>
<linearGradient id="paint6_linear_1311_6547" x1="15.9307" y1="15.2117" x2="19.275" y2="17.7444" gradientUnits="userSpaceOnUse">
<stop stop-color="#6310E5"/>
<stop offset="1" stop-color="#8322FE"/>
</linearGradient>
</defs>
</svg>
