<svg width="32" height="32" viewBox="0 0 32 32" fill="none" xmlns="http://www.w3.org/2000/svg">
<path d="M22.5642 5.69792H19.9775C17.4272 5.69792 16.2396 6.88555 16.2396 9.4358V12.9809C16.2396 15.5311 17.4272 16.7188 19.9775 16.7188H22.5642C25.1145 16.7188 26.3021 15.5311 26.3021 12.9809V9.4358C26.3021 6.88555 25.1145 5.69792 22.5642 5.69792ZM24.8646 12.9809C24.8646 14.7441 24.3274 15.2813 22.5642 15.2813H19.9775C18.2143 15.2813 17.6771 14.7441 17.6771 12.9809V9.4358C17.6771 7.67262 18.2143 7.13542 19.9775 7.13542H22.5642C24.3274 7.13542 24.8646 7.67262 24.8646 9.4358V12.9809ZM12.0226 15.2813H9.43581C6.88556 15.2813 5.69794 16.4689 5.69794 19.0191V22.5642C5.69794 25.1145 6.88556 26.3021 9.43581 26.3021H12.0226C14.5728 26.3021 15.7604 25.1145 15.7604 22.5642V19.0191C15.7604 16.4689 14.5728 15.2813 12.0226 15.2813ZM14.3229 22.5642C14.3229 24.3274 13.7857 24.8646 12.0226 24.8646H9.43581C7.67263 24.8646 7.13544 24.3274 7.13544 22.5642V19.0191C7.13544 17.2559 7.67263 16.7188 9.43581 16.7188H12.0226C13.7857 16.7188 14.3229 17.2559 14.3229 19.0191V22.5642ZM26.3021 18.875C26.2999 20.8441 25.5167 22.7319 24.1243 24.1243C22.732 25.5167 20.8441 26.2999 18.875 26.3021C18.7479 26.3019 18.6231 26.2681 18.5133 26.204C18.4035 26.1399 18.3126 26.0479 18.25 25.9373C18.1873 25.8267 18.1551 25.7015 18.1565 25.5744C18.158 25.4473 18.1931 25.3228 18.2583 25.2137L19.2643 23.5366C19.3627 23.3737 19.5217 23.2565 19.7063 23.2106C19.891 23.1647 20.0863 23.1938 20.2495 23.2916C20.4127 23.3895 20.5305 23.548 20.577 23.7325C20.6236 23.917 20.5951 24.1124 20.4978 24.2759L20.2386 24.7083C21.5538 24.3988 22.7261 23.6545 23.5656 22.5958C24.4052 21.5372 24.8629 20.2261 24.8646 18.875C24.8646 18.6844 24.9403 18.5016 25.0751 18.3668C25.2099 18.232 25.3927 18.1563 25.5834 18.1563C25.774 18.1563 25.9568 18.232 26.0916 18.3668C26.2264 18.5016 26.3021 18.6844 26.3021 18.875ZM5.69794 13.125C5.70014 11.1559 6.48334 9.26807 7.87571 7.8757C9.26808 6.48332 11.1559 5.70012 13.125 5.69792C13.2521 5.69808 13.377 5.73192 13.4867 5.796C13.5965 5.86007 13.6874 5.95209 13.7501 6.06269C13.8127 6.17329 13.845 6.29852 13.8435 6.42564C13.8421 6.55275 13.8069 6.67721 13.7418 6.78634L12.7357 8.46342C12.6373 8.62629 12.4784 8.74351 12.2937 8.78943C12.1091 8.83534 11.9138 8.80619 11.7506 8.70837C11.5874 8.61055 11.4696 8.45203 11.423 8.26754C11.3765 8.08305 11.405 7.88763 11.5022 7.72409L11.7615 7.29172C10.4462 7.60123 9.27397 8.34555 8.43442 9.4042C7.59487 10.4629 7.13718 11.7739 7.13544 13.125C7.13544 13.3156 7.05971 13.4984 6.92492 13.6332C6.79013 13.768 6.60731 13.8438 6.41669 13.8438C6.22606 13.8438 6.04325 13.768 5.90845 13.6332C5.77366 13.4984 5.69794 13.3156 5.69794 13.125Z" fill="url(#paint0_linear_1311_6538)"/>
<defs>
<linearGradient id="paint0_linear_1311_6538" x1="16" y1="5.69792" x2="27.5848" y2="22.5696" gradientUnits="userSpaceOnUse">
<stop stop-color="#6310E5"/>
<stop offset="1" stop-color="#8322FE"/>
</linearGradient>
</defs>
</svg>
