<svg width="32" height="32" viewBox="0 0 32 32" fill="none" xmlns="http://www.w3.org/2000/svg">
<g clip-path="url(#clip0_1311_6506)">
<path d="M16 5.5C21.7982 5.5 26.5 10.2018 26.5 16C26.5 21.7982 21.7982 26.5 16 26.5C10.2018 26.5 5.5 21.8024 5.5 16C5.5 10.1976 10.2018 5.5 16 5.5ZM14.6127 8.70904C13.3181 8.71325 12.1458 10.7964 11.138 14.8952C10.4253 14.8867 9.77169 14.8741 9.16024 14.8657H9.06747C8.99157 14.8614 8.91566 14.8657 8.83976 14.8741C8.49398 14.9373 8.24518 15.241 8.24518 15.591C8.24518 15.9494 8.51084 16.2572 8.86506 16.312L8.87349 16.3205H10.809C10.6277 17.1386 10.4717 17.9524 10.341 18.7325L10.2819 19.0741V19.091C10.2819 19.2554 10.3663 19.4072 10.5054 19.4958C10.7289 19.6392 11.0283 19.5717 11.1717 19.3482L11.1843 19.3608L12.1331 16.3205H16.7042C17.0542 17.6446 17.4169 19.0066 17.8976 20.2886C18.1548 20.9759 18.7536 22.5783 19.7572 22.5867H19.7699C21.3217 22.5867 21.9289 20.0777 22.3295 18.4163C22.4181 18.0578 22.4898 17.75 22.5614 17.5223L22.591 17.4295L22.5952 17.4159C22.6281 17.2974 22.5611 17.1707 22.4434 17.1301C22.3211 17.088 22.1819 17.1512 22.1398 17.2777L22.106 17.3705C21.9753 17.7373 21.853 18.0789 21.7434 18.3867L21.7349 18.412C21.0602 20.3139 20.7566 21.1825 20.1536 21.1825H20.1157C19.344 21.1825 18.6229 18.0536 18.3488 16.8771C18.3024 16.6747 18.2602 16.4849 18.2181 16.3205H23.194C23.2825 16.3205 23.3711 16.2994 23.4512 16.2572L23.4551 16.2541C23.4596 16.2509 23.466 16.2477 23.4723 16.2446L23.4976 16.2277L23.5102 16.2193C23.5229 16.2108 23.5355 16.2024 23.5482 16.1898L23.5668 16.1743C23.6582 16.0949 23.7229 15.9839 23.7506 15.8693C23.8139 15.5699 23.6157 15.2747 23.3163 15.2157H23.291C23.2614 15.2114 23.2361 15.2072 23.2066 15.2072L23.1307 15.1988C21.3723 15.0723 19.5633 15.0217 17.8639 14.988L17.8596 14.9753C17.0373 11.8759 16.0042 8.70904 14.6127 8.70904ZM14.5578 10.1048C14.6295 10.1048 14.697 10.147 14.756 10.2229C14.8994 10.4506 15.1524 10.9608 15.5277 12.091C15.7849 12.8669 16.0633 13.8325 16.3584 14.9542C15.2367 14.9373 14.1066 14.9247 13.0102 14.912L12.4536 14.9078C13.0819 12.4536 13.8452 10.594 14.406 10.1554C14.4524 10.1259 14.503 10.1048 14.5578 10.1048Z" fill="url(#paint0_linear_1311_6506)"/>
</g>
<defs>
<linearGradient id="paint0_linear_1311_6506" x1="16" y1="5.5" x2="27.8074" y2="22.6958" gradientUnits="userSpaceOnUse">
<stop stop-color="#6310E5"/>
<stop offset="1" stop-color="#8322FE"/>
</linearGradient>
<clipPath id="clip0_1311_6506">
<rect width="21" height="21" fill="white" transform="translate(5.5 5.5)"/>
</clipPath>
</defs>
</svg>
