<svg width="32" height="32" viewBox="0 0 32 32" fill="none" xmlns="http://www.w3.org/2000/svg">
<path fill-rule="evenodd" clip-rule="evenodd" d="M12.4986 16.0763C12.4986 12.4519 15.6109 9.58752 19.3555 9.58752C23.1006 9.58752 26.2125 12.4519 26.2125 16.0763C26.2125 17.4825 25.7391 18.7823 24.9411 19.8412C24.7043 20.1554 24.2575 20.2182 23.9433 19.9814C23.629 19.7445 23.5663 19.2978 23.8031 18.9835C24.4256 18.1575 24.7875 17.1556 24.7875 16.0763C24.7875 13.3205 22.3978 11.0125 19.3555 11.0125C16.3136 11.0125 13.9236 13.3206 13.9236 16.0763C13.9236 18.832 16.3133 21.1401 19.3555 21.1401C20.0399 21.1401 20.693 21.0219 21.2941 20.8078C21.6648 20.6758 22.0724 20.8693 22.2044 21.24C22.3364 21.6107 22.1429 22.0182 21.7722 22.1502C21.0194 22.4183 20.2047 22.5651 19.3555 22.5651C15.6105 22.5651 12.4986 19.7007 12.4986 16.0763Z" fill="url(#paint0_linear_1311_6499)"/>
<path fill-rule="evenodd" clip-rule="evenodd" d="M11.5847 13.0052C9.12791 13.0052 7.21248 14.8669 7.21248 17.0724C7.21248 17.9378 7.50227 18.7411 8.00234 19.4043C8.23927 19.7185 8.17664 20.1652 7.86246 20.4021C7.54828 20.6391 7.10152 20.5764 6.86459 20.2623C6.18868 19.366 5.78748 18.2645 5.78748 17.0724C5.78748 13.9981 8.42526 11.5802 11.5847 11.5802C12.6562 11.5802 13.6635 11.8564 14.5284 12.3399C14.8719 12.5319 14.9947 12.966 14.8026 13.3095C14.6106 13.653 14.1765 13.7758 13.833 13.5837C13.1781 13.2175 12.4098 13.0052 11.5847 13.0052Z" fill="url(#paint1_linear_1311_6499)"/>
<path fill-rule="evenodd" clip-rule="evenodd" d="M15.765 19.8797C16.0407 20.1606 16.0364 20.6117 15.7556 20.8873C14.6976 21.9255 13.2157 22.5652 11.5843 22.5652C10.8672 22.5652 10.1793 22.441 9.54344 22.2149C9.17269 22.083 8.97904 21.6755 9.11091 21.3048C9.24278 20.934 9.65024 20.7404 10.021 20.8723C10.5058 21.0447 11.0324 21.1402 11.5843 21.1402C12.8403 21.1402 13.9644 20.6485 14.7575 19.8702C15.0383 19.5946 15.4894 19.5989 15.765 19.8797Z" fill="url(#paint2_linear_1311_6499)"/>
<path fill-rule="evenodd" clip-rule="evenodd" d="M24.1977 18.7216C24.5792 18.6252 24.9666 18.8563 25.063 19.2378L25.8722 22.4402C25.9686 22.8217 25.7375 23.2092 25.356 23.3056C24.9745 23.402 24.5871 23.1709 24.4907 22.7893L23.6814 19.5869C23.585 19.2054 23.8161 18.818 24.1977 18.7216Z" fill="url(#paint3_linear_1311_6499)"/>
<path fill-rule="evenodd" clip-rule="evenodd" d="M20.8532 21.2667C20.9702 20.891 21.3696 20.6813 21.7453 20.7983L25.3935 21.9344C25.7692 22.0514 25.9789 22.4509 25.8619 22.8266C25.7449 23.2023 25.3455 23.412 24.9698 23.295L21.3216 22.1588C20.9459 22.0418 20.7362 21.6424 20.8532 21.2667Z" fill="url(#paint4_linear_1311_6499)"/>
<path fill-rule="evenodd" clip-rule="evenodd" d="M7.56309 19.1327C7.95002 19.2043 8.20566 19.576 8.13407 19.963L7.84854 21.5062L9.53289 20.8759C9.90144 20.7379 10.312 20.9249 10.4499 21.2934C10.5878 21.662 10.4009 22.0725 10.0323 22.2105L7.16854 23.2822C6.92805 23.3722 6.65775 23.3258 6.461 23.1608C6.26424 22.9958 6.17149 22.7377 6.21821 22.4852L6.73285 19.7037C6.80444 19.3168 7.17615 19.0612 7.56309 19.1327Z" fill="url(#paint5_linear_1311_6499)"/>
<path fill-rule="evenodd" clip-rule="evenodd" d="M15.8828 14.0917C15.8828 13.8294 16.0955 13.6167 16.3578 13.6167H22.1163C22.3786 13.6167 22.5913 13.8294 22.5913 14.0917C22.5913 14.354 22.3786 14.5667 22.1163 14.5667H16.3578C16.0955 14.5667 15.8828 14.354 15.8828 14.0917Z" fill="url(#paint6_linear_1311_6499)"/>
<path fill-rule="evenodd" clip-rule="evenodd" d="M15.8828 16.0763C15.8828 15.814 16.0955 15.6013 16.3578 15.6013H22.1163C22.3786 15.6013 22.5913 15.814 22.5913 16.0763C22.5913 16.3387 22.3786 16.5513 22.1163 16.5513H16.3578C16.0955 16.5513 15.8828 16.3387 15.8828 16.0763Z" fill="url(#paint7_linear_1311_6499)"/>
<path fill-rule="evenodd" clip-rule="evenodd" d="M15.8828 18.0607C15.8828 17.7984 16.0955 17.5857 16.3578 17.5857H22.1163C22.3786 17.5857 22.5913 17.7984 22.5913 18.0607C22.5913 18.323 22.3786 18.5357 22.1163 18.5357H16.3578C16.0955 18.5357 15.8828 18.323 15.8828 18.0607Z" fill="url(#paint8_linear_1311_6499)"/>
<defs>
<linearGradient id="paint0_linear_1311_6499" x1="19.3555" y1="9.58752" x2="26.4996" y2="20.5823" gradientUnits="userSpaceOnUse">
<stop stop-color="#6310E5"/>
<stop offset="1" stop-color="#8322FE"/>
</linearGradient>
<linearGradient id="paint1_linear_1311_6499" x1="10.3404" y1="11.5802" x2="15.3528" y2="18.9943" gradientUnits="userSpaceOnUse">
<stop stop-color="#6310E5"/>
<stop offset="1" stop-color="#8322FE"/>
</linearGradient>
<linearGradient id="paint2_linear_1311_6499" x1="12.5193" y1="19.6663" x2="13.4495" y2="22.8908" gradientUnits="userSpaceOnUse">
<stop stop-color="#6310E5"/>
<stop offset="1" stop-color="#8322FE"/>
</linearGradient>
<linearGradient id="paint3_linear_1311_6499" x1="24.7768" y1="18.6997" x2="27.4006" y2="20.5448" gradientUnits="userSpaceOnUse">
<stop stop-color="#6310E5"/>
<stop offset="1" stop-color="#8322FE"/>
</linearGradient>
<linearGradient id="paint4_linear_1311_6499" x1="23.3575" y1="20.7659" x2="24.3127" y2="23.5212" gradientUnits="userSpaceOnUse">
<stop stop-color="#6310E5"/>
<stop offset="1" stop-color="#8322FE"/>
</linearGradient>
<linearGradient id="paint5_linear_1311_6499" x1="8.3508" y1="19.1207" x2="10.6992" y2="22.6078" gradientUnits="userSpaceOnUse">
<stop stop-color="#6310E5"/>
<stop offset="1" stop-color="#8322FE"/>
</linearGradient>
<linearGradient id="paint6_linear_1311_6499" x1="19.237" y1="13.6167" x2="19.3473" y2="14.7506" gradientUnits="userSpaceOnUse">
<stop stop-color="#6310E5"/>
<stop offset="1" stop-color="#8322FE"/>
</linearGradient>
<linearGradient id="paint7_linear_1311_6499" x1="19.237" y1="15.6013" x2="19.3473" y2="16.7353" gradientUnits="userSpaceOnUse">
<stop stop-color="#6310E5"/>
<stop offset="1" stop-color="#8322FE"/>
</linearGradient>
<linearGradient id="paint8_linear_1311_6499" x1="19.237" y1="17.5857" x2="19.3473" y2="18.7196" gradientUnits="userSpaceOnUse">
<stop stop-color="#6310E5"/>
<stop offset="1" stop-color="#8322FE"/>
</linearGradient>
</defs>
</svg>
