<svg width="32" height="32" viewBox="0 0 32 32" fill="none" xmlns="http://www.w3.org/2000/svg">
<path d="M6.00002 16H8.00002C7.99764 14.9487 8.20286 13.9073 8.6039 12.9355C9.00494 11.9637 9.59391 11.0806 10.337 10.337C11.0648 9.60679 11.9283 9.02589 12.879 8.627C14.8385 7.81293 17.0388 7.79822 19.009 8.586C19.0283 9.23347 19.2993 9.8479 19.7645 10.2987C20.2296 10.7495 20.8523 11.0011 21.5 11C22.886 11 24 9.886 24 8.5C24 7.114 22.886 6 21.5 6C20.811 6 20.188 6.276 19.737 6.725C17.306 5.752 14.514 5.767 12.102 6.784C10.9132 7.2837 9.83304 8.01023 8.92202 8.923C8.00884 9.8335 7.28195 10.9133 6.78202 12.102C6.26322 13.3359 5.99731 14.6614 6.00002 16ZM23.373 19.122C22.972 20.074 22.396 20.93 21.663 21.663C20.93 22.396 20.074 22.972 19.121 23.373C17.1615 24.1871 14.9612 24.2018 12.991 23.414C12.9718 22.7665 12.7007 22.1521 12.2356 21.7013C11.7704 21.2505 11.1478 20.9989 10.5 21C9.11402 21 8.00002 22.114 8.00002 23.5C8.00002 24.886 9.11402 26 10.5 26C11.189 26 11.812 25.724 12.263 25.275C13.4505 25.7546 14.7193 26.0007 16 26C17.9666 26.0038 19.8904 25.4267 21.5302 24.3411C23.1699 23.2555 24.4525 21.7098 25.217 19.898C25.7365 18.6642 26.0028 17.3387 26 16H24C24.0025 17.0722 23.7893 18.1339 23.373 19.122Z" fill="url(#paint0_linear_1311_6482)"/>
<path d="M16 11.4619C13.498 11.4619 11.462 13.4979 11.462 15.9999C11.462 18.5019 13.498 20.5379 16 20.5379C18.502 20.5379 20.538 18.5019 20.538 15.9999C20.538 13.4979 18.502 11.4619 16 11.4619ZM16 18.5379C14.601 18.5379 13.462 17.3989 13.462 15.9999C13.462 14.6009 14.601 13.4619 16 13.4619C17.399 13.4619 18.538 14.6009 18.538 15.9999C18.538 17.3989 17.399 18.5379 16 18.5379Z" fill="url(#paint1_linear_1311_6482)"/>
<defs>
<linearGradient id="paint0_linear_1311_6482" x1="16" y1="6" x2="27.2451" y2="22.377" gradientUnits="userSpaceOnUse">
<stop stop-color="#6310E5"/>
<stop offset="1" stop-color="#8322FE"/>
</linearGradient>
<linearGradient id="paint1_linear_1311_6482" x1="16" y1="11.4619" x2="21.103" y2="18.8938" gradientUnits="userSpaceOnUse">
<stop stop-color="#6310E5"/>
<stop offset="1" stop-color="#8322FE"/>
</linearGradient>
</defs>
</svg>
