<svg width="32" height="32" viewBox="0 0 32 32" fill="none" xmlns="http://www.w3.org/2000/svg">
<g clip-path="url(#clip0_1311_6554)">
<path d="M18.7079 27H13.2921V25.2499C12.6268 25.0548 11.9856 24.7883 11.376 24.4534L10.1364 25.693L6.30719 21.8634L7.54657 20.624C7.21172 20.0144 6.94518 19.373 6.75031 18.7079H5V13.2921H6.75014C6.94518 12.627 7.21172 11.9856 7.54657 11.376L6.30719 10.1366L10.1366 6.30702L11.3762 7.54657C11.9856 7.21172 12.6268 6.94518 13.2921 6.75031V5H18.7079V6.75014C19.3732 6.94518 20.0144 7.21172 20.624 7.54657L21.8636 6.30702L25.693 10.1364L24.4534 11.376C24.7883 11.9854 25.0548 12.6268 25.2499 13.2921H27V18.7079H25.2499C25.0548 19.373 24.7883 20.0144 24.4534 20.6238L25.693 21.8634L21.8636 25.6928L20.624 24.4534C20.0144 24.7881 19.3732 25.0548 18.7079 25.2497V27ZM14.5812 25.7109H17.4188V24.2433L17.9155 24.1263C18.7894 23.9203 19.6213 23.5746 20.3884 23.0986L20.8226 22.8292L21.8634 23.87L23.8698 21.8636L22.829 20.8227L23.0986 20.3885C23.5746 19.6215 23.9203 18.7894 24.1261 17.9156L24.2433 17.4188H25.7109V14.5814H24.2433L24.1263 14.0845C23.9203 13.2107 23.5746 12.3787 23.0986 11.6116L22.8292 11.1774L23.87 10.1366L21.8636 8.13017L20.8226 9.17099L20.3884 8.9016C19.6215 8.42558 18.7894 8.07982 17.9155 7.87387L17.4188 7.75688V6.28906H14.5812V7.75671L14.0845 7.8737C13.2106 8.07965 12.3785 8.42542 11.6116 8.90143L11.1774 9.17082L10.1364 8.13L8.13 10.1364L9.17082 11.1773L8.90143 11.6115C8.42542 12.3785 8.07965 13.2106 7.8737 14.0844L7.75671 14.5812H6.28906V17.4186H7.75671L7.8737 17.9155C8.07965 18.7893 8.42542 19.6213 8.90143 20.3884L9.17082 20.8226L8.13 21.8634L10.1364 23.8698L11.1774 22.829L11.6116 23.0984C12.3785 23.5744 13.2106 23.9202 14.0845 24.1261L14.5812 24.2431V25.7109Z" fill="url(#paint0_linear_1311_6554)"/>
<path d="M13.0629 19.8524L10.0314 16L13.0629 12.1476L14.0758 12.9447L11.6717 16L14.0758 19.0553L13.0629 19.8524Z" fill="url(#paint1_linear_1311_6554)"/>
<path d="M18.9371 19.8524L17.9242 19.0553L20.3283 16L17.9242 12.9447L18.9371 12.1476L21.9686 16L18.9371 19.8524Z" fill="url(#paint2_linear_1311_6554)"/>
<path d="M15.3555 12.1305H16.6445V19.8696H15.3555V12.1305Z" fill="url(#paint3_linear_1311_6554)"/>
</g>
<defs>
<linearGradient id="paint0_linear_1311_6554" x1="16" y1="5" x2="28.3696" y2="23.0147" gradientUnits="userSpaceOnUse">
<stop stop-color="#6310E5"/>
<stop offset="1" stop-color="#8322FE"/>
</linearGradient>
<linearGradient id="paint1_linear_1311_6554" x1="12.0536" y1="12.1476" x2="16.5329" y2="15.5719" gradientUnits="userSpaceOnUse">
<stop stop-color="#6310E5"/>
<stop offset="1" stop-color="#8322FE"/>
</linearGradient>
<linearGradient id="paint2_linear_1311_6554" x1="19.9464" y1="12.1476" x2="24.4257" y2="15.5719" gradientUnits="userSpaceOnUse">
<stop stop-color="#6310E5"/>
<stop offset="1" stop-color="#8322FE"/>
</linearGradient>
<linearGradient id="paint3_linear_1311_6554" x1="16" y1="12.1305" x2="18.1363" y2="12.6487" gradientUnits="userSpaceOnUse">
<stop stop-color="#6310E5"/>
<stop offset="1" stop-color="#8322FE"/>
</linearGradient>
<clipPath id="clip0_1311_6554">
<rect width="22" height="22" fill="white" transform="translate(5 5)"/>
</clipPath>
</defs>
</svg>
