<svg width="32" height="32" viewBox="0 0 32 32" fill="none" xmlns="http://www.w3.org/2000/svg">
<path fill-rule="evenodd" clip-rule="evenodd" d="M14.3031 17.1118C13.9081 17.1118 13.588 17.432 13.588 17.8269C13.588 18.2219 13.9081 18.542 14.3031 18.542C14.698 18.542 15.0182 18.2219 15.0182 17.8269C15.0182 17.432 14.698 17.1118 14.3031 17.1118ZM12.088 17.8269C12.088 16.6035 13.0797 15.6118 14.3031 15.6118C15.5265 15.6118 16.5182 16.6035 16.5182 17.8269C16.5182 19.0503 15.5265 20.042 14.3031 20.042C13.0797 20.042 12.088 19.0503 12.088 17.8269Z" fill="url(#paint0_linear_1311_6492)"/>
<path fill-rule="evenodd" clip-rule="evenodd" d="M14.3031 14.2266C12.3147 14.2266 10.7028 15.8385 10.7028 17.8269C10.7028 19.8153 12.3147 21.4272 14.3031 21.4272C16.2914 21.4272 17.9034 19.8153 17.9034 17.8269C17.9034 15.8385 16.2914 14.2266 14.3031 14.2266ZM9.20276 17.8269C9.20276 15.0101 11.4862 12.7266 14.3031 12.7266C17.1199 12.7266 19.4034 15.0101 19.4034 17.8269C19.4034 20.6437 17.1199 22.9272 14.3031 22.9272C11.4862 22.9272 9.20276 20.6437 9.20276 17.8269Z" fill="url(#paint1_linear_1311_6492)"/>
<path fill-rule="evenodd" clip-rule="evenodd" d="M14.3031 11.2738C10.6839 11.2738 7.75 14.2077 7.75 17.8269C7.75 21.4461 10.6839 24.38 14.3031 24.38C17.9223 24.38 20.8562 21.4461 20.8562 17.8269C20.8562 14.2077 17.9223 11.2738 14.3031 11.2738ZM6.25 17.8269C6.25 13.3793 9.85549 9.7738 14.3031 9.7738C18.7507 9.7738 22.3562 13.3793 22.3562 17.8269C22.3562 22.2745 18.7507 25.88 14.3031 25.88C9.85549 25.88 6.25 22.2745 6.25 17.8269Z" fill="url(#paint2_linear_1311_6492)"/>
<path fill-rule="evenodd" clip-rule="evenodd" d="M22.2564 6.28357C22.5222 6.36591 22.7206 6.5887 22.7717 6.86228L23.1657 8.97179L25.2752 9.3658C25.549 9.41694 25.7719 9.61562 25.8541 9.88176C25.9363 10.1479 25.8642 10.4377 25.6669 10.6343L23.473 12.8207C23.298 12.9951 23.0483 13.0721 22.8055 13.0266L20.1983 12.5383C19.894 12.4813 19.656 12.2431 19.5992 11.9388L19.1108 9.32411C19.0654 9.08094 19.1428 8.831 19.3177 8.65608L21.5041 6.46966C21.7009 6.27286 21.9905 6.20122 22.2564 6.28357ZM20.6579 9.43725L20.9794 11.1585L22.6937 11.4796L23.598 10.5785L22.3851 10.3519C22.0806 10.2951 21.8424 10.0569 21.7856 9.75238L21.5585 8.53661L20.6579 9.43725Z" fill="url(#paint3_linear_1311_6492)"/>
<path fill-rule="evenodd" clip-rule="evenodd" d="M23.0534 9.0846C23.3462 9.37762 23.346 9.8525 23.0529 10.1453L14.8332 18.3575C14.5402 18.6502 14.0653 18.65 13.7725 18.357C13.4798 18.064 13.48 17.5891 13.773 17.2963L21.9928 9.08411C22.2858 8.79135 22.7607 8.79157 23.0534 9.0846Z" fill="url(#paint4_linear_1311_6492)"/>
<defs>
<linearGradient id="paint0_linear_1311_6492" x1="14.3031" y1="15.6118" x2="16.794" y2="19.2395" gradientUnits="userSpaceOnUse">
<stop stop-color="#6310E5"/>
<stop offset="1" stop-color="#8322FE"/>
</linearGradient>
<linearGradient id="paint1_linear_1311_6492" x1="14.3031" y1="12.7266" x2="20.0384" y2="21.0793" gradientUnits="userSpaceOnUse">
<stop stop-color="#6310E5"/>
<stop offset="1" stop-color="#8322FE"/>
</linearGradient>
<linearGradient id="paint2_linear_1311_6492" x1="14.3031" y1="9.7738" x2="23.3589" y2="22.9623" gradientUnits="userSpaceOnUse">
<stop stop-color="#6310E5"/>
<stop offset="1" stop-color="#8322FE"/>
</linearGradient>
<linearGradient id="paint3_linear_1311_6492" x1="22.4928" y1="6.24997" x2="26.3102" y2="11.8096" gradientUnits="userSpaceOnUse">
<stop stop-color="#6310E5"/>
<stop offset="1" stop-color="#8322FE"/>
</linearGradient>
<linearGradient id="paint4_linear_1311_6492" x1="18.413" y1="8.86469" x2="23.8722" y2="16.8215" gradientUnits="userSpaceOnUse">
<stop stop-color="#6310E5"/>
<stop offset="1" stop-color="#8322FE"/>
</linearGradient>
</defs>
</svg>
