<svg width="32" height="32" viewBox="0 0 32 32" fill="none" xmlns="http://www.w3.org/2000/svg">
<g clip-path="url(#clip0_1311_6531)">
<path fill-rule="evenodd" clip-rule="evenodd" d="M13.803 15.697C13.5101 15.4041 13.5101 14.9293 13.803 14.6364L14.3079 14.1315C16.1629 12.2765 19.1704 12.2765 21.0254 14.1315L23.7019 16.8079C25.5569 18.6629 25.5569 21.6705 23.7019 23.5254L23.5254 23.7019C21.6704 25.5569 18.6629 25.5569 16.8079 23.7019L15.9326 22.8266C15.6397 22.5338 15.6397 22.0589 15.9326 21.766C16.2255 21.4731 16.7004 21.4731 16.9933 21.766L17.8685 22.6413C19.1377 23.9105 21.1955 23.9105 22.4647 22.6413L22.6412 22.4648C23.9104 21.1956 23.9104 19.1378 22.6412 17.8686L19.9647 15.1921C18.6955 13.9229 16.6377 13.9229 15.3685 15.1921L14.8636 15.697C14.5707 15.9899 14.0959 15.9899 13.803 15.697Z" fill="url(#paint0_linear_1311_6531)"/>
<path fill-rule="evenodd" clip-rule="evenodd" d="M8.29809 15.1921C6.4431 13.3371 6.4431 10.3296 8.29809 8.47459L8.47456 8.29811C10.3296 6.44312 13.3371 6.44312 15.1921 8.29811L15.6044 8.71042C15.8973 9.00331 15.8973 9.47819 15.6044 9.77108C15.3115 10.064 14.8366 10.064 14.5437 9.77108L14.1314 9.35877C12.8622 8.08957 10.8044 8.08957 9.53522 9.35877L9.35875 9.53525C8.08955 10.8044 8.08955 12.8622 9.35875 14.1314L12.0352 16.8079C13.3044 18.0771 15.3622 18.0771 16.6314 16.8079L17.1363 16.303C17.4292 16.0101 17.9041 16.0101 18.197 16.303C18.4899 16.5959 18.4899 17.0708 18.197 17.3637L17.6921 17.8686C15.8371 19.7236 12.8296 19.7236 10.9746 17.8686L8.29809 15.1921Z" fill="url(#paint1_linear_1311_6531)"/>
</g>
<defs>
<linearGradient id="paint0_linear_1311_6531" x1="14.2196" y1="14.2197" x2="25.902" y2="14.6081" gradientUnits="userSpaceOnUse">
<stop stop-color="#6310E5"/>
<stop offset="1" stop-color="#8322FE"/>
</linearGradient>
<linearGradient id="paint1_linear_1311_6531" x1="8.38633" y1="8.38635" x2="20.0687" y2="8.77478" gradientUnits="userSpaceOnUse">
<stop stop-color="#6310E5"/>
<stop offset="1" stop-color="#8322FE"/>
</linearGradient>
<clipPath id="clip0_1311_6531">
<rect width="20" height="20" fill="white" transform="translate(6 6)"/>
</clipPath>
</defs>
</svg>
