<svg width="32" height="32" viewBox="0 0 32 32" fill="none" xmlns="http://www.w3.org/2000/svg">
<g clip-path="url(#clip0_1311_6515)">
<path d="M24.0508 19.0742C24.0586 18.9961 24.0898 18.9219 24.1406 18.8672C24.1641 18.7774 24.1641 18.6836 24.1406 18.5938C24.1133 18.5196 24.1211 18.4336 24.1602 18.3633L24.207 18.0156L24.2422 17.9336H24.1953L24.1914 17.9258L24.1797 17.8789V17.8242H24.1328C24.1602 17.8008 24.1484 17.7656 24.1172 17.7656C24.0859 17.7656 24.0859 17.711 24.082 17.6992C24.0703 17.6758 24.0586 17.6485 24.0469 17.6211V17.5938C24.0508 17.5781 24.0508 17.5664 24.0586 17.5508C24.0664 17.5313 24.0547 17.5156 24.0586 17.4922C24.0664 17.4766 24.0664 17.461 24.0625 17.4453C24.0586 17.4258 24.0508 17.3946 24.0625 17.3789C24.0742 17.3633 24.082 17.3985 24.1094 17.3789C24.1367 17.3594 24.1367 17.3555 24.1289 17.3438C24.1211 17.3281 24.0898 17.3438 24.0898 17.3438L24.082 17.3164L24.1055 17.2852C24.1172 17.2656 24.125 17.2422 24.1328 17.2188C24.1406 17.1914 24.1484 17.1641 24.1641 17.1367L24.1992 17.0899C24.168 17.0235 24.1445 16.9492 24.1211 16.875H24.1719L24.1172 16.6953L24.1094 16.6758C24.1445 16.6211 24.1641 16.5586 24.168 16.4961C24.168 16.4961 24.1484 16.5352 24.1289 16.5274L24.1406 16.4844C24.1523 16.461 24.1563 16.4531 24.1406 16.4571H24.125L24.1367 16.4258C24.1523 16.4141 24.1641 16.3985 24.1719 16.3828V16.336L24.1914 16.2422C24.1836 16.2344 24.1758 16.2266 24.168 16.2149C24.1563 16.1953 24.1914 16.1875 24.1914 16.1875L24.2148 16.2227C24.2188 16.1758 24.2148 16.125 24.2109 16.0781L24.168 16.0586C24.168 16.0586 24.1406 16.0742 24.1367 16.0586C24.1328 16.043 24.1367 16.0274 24.1484 16.0156H24.1641L24.1953 16.0078C24.1875 15.9727 24.1797 15.9375 24.1719 15.9024L24.1367 15.8906L24.1133 15.8633L24.0938 15.8203C24.082 15.8125 24.0664 15.8047 24.0547 15.8008L24.0391 15.7578L24.043 15.7305L24.0352 15.7227L24.0234 15.7071C24.0117 15.6914 24.0313 15.6836 24.043 15.6836H24.0469L24.0703 15.7188C24.0703 15.6719 24.1211 15.6367 24.1172 15.5899L24.0859 15.5781L24.0703 15.5703C24.0703 15.5703 24.043 15.586 24.0391 15.5742C24.0352 15.5586 24.0391 15.5391 24.0547 15.5274H24.0703L24.082 15.5196L24.0977 15.5156C24.0898 15.4844 24.1211 15.4531 24.1094 15.4258L24.1055 15.4102L24.1563 15.3633L24.1328 15.3399L24.1953 15.2813C24.1836 15.2735 24.168 15.2656 24.1523 15.2617C24.1445 15.2422 24.1992 15.2149 24.1953 15.2031L24.1836 15.1758C24.2461 15.1524 24.1328 15.1602 24.1953 15.1485C24.1953 15.1485 24.168 15.1289 24.2539 15.0664C24.3359 15 24.3555 15 24.3555 15C24.375 14.9844 24.3945 14.9766 24.4141 14.9688C24.4648 14.9453 24.5234 14.9571 24.5352 14.9883C24.5469 15.0196 24.6328 14.9844 24.6328 14.9844C24.6563 14.9844 24.6797 15.0039 24.6836 15.0274C24.6914 15.0703 24.75 15 24.7773 14.961C24.8086 14.9219 24.9219 14.9258 24.9492 14.918C24.9766 14.9141 25.1328 14.8321 25.1641 14.8789C25.1836 14.9063 25.1953 14.9453 25.1875 14.9805C25.1875 14.9805 25.3047 14.9336 25.3438 14.9961L25.3828 15.0586C25.4258 15.1485 25.4609 15.2422 25.4883 15.3399L25.4805 15.3985C25.4766 15.4688 25.6133 15.4649 25.6133 15.4649L25.5977 15.5078L25.6094 15.5469C25.6094 15.5469 25.6367 15.5235 25.6484 15.543C25.6602 15.5625 25.6602 15.5625 25.6328 15.5938C25.6055 15.625 25.5977 15.5781 25.5859 15.6016C25.582 15.6328 25.5859 15.6641 25.5977 15.6914C25.6016 15.711 25.6016 15.7344 25.5977 15.7578C25.5977 15.7891 25.6094 15.8086 25.6094 15.836C25.6055 15.8555 25.6055 15.875 25.6055 15.8946L25.6133 15.9297C25.625 15.9688 25.6563 16.0156 25.6602 16.0313C25.6641 16.0469 25.6758 16.1211 25.707 16.1211C25.7383 16.1211 25.7539 16.1641 25.7305 16.2031L25.7773 16.1992L25.7852 16.2696L25.8047 16.336L25.8125 16.3438L25.8594 16.3399H25.8516L25.8828 16.3946L25.875 16.4219C25.9023 16.4492 25.9297 16.4727 25.957 16.4922L26.0039 16.4961C25.9609 16.5508 25.9219 16.6094 25.8945 16.6719C25.8828 16.7071 25.8711 16.7461 25.8672 16.7813L25.8633 16.8125C25.8594 16.8321 25.8555 16.8516 25.8477 16.8711L25.8281 16.9141L25.8398 16.9531C25.8398 16.9531 25.8594 16.9414 25.8711 16.9453C25.8711 16.9453 25.875 16.9453 25.8789 16.9492C25.8789 16.9531 25.8867 16.9649 25.8828 16.9727C25.875 16.9844 25.8672 16.9922 25.8594 17C25.832 17.0313 25.8242 16.9805 25.8125 17C25.8047 17.0313 25.8086 17.0625 25.8164 17.0938C25.8203 17.1172 25.8203 17.1367 25.8164 17.1602C25.8125 17.1914 25.8242 17.211 25.8164 17.2422L25.8047 17.3008V17.3321C25.8125 17.3633 25.8242 17.3946 25.8359 17.4258L25.8438 17.4414C25.8477 17.4571 25.8477 17.5078 25.8672 17.5274L25.8398 17.5742C25.8242 17.6094 25.8125 17.6446 25.8047 17.6836C25.8008 17.7149 25.7891 17.7461 25.7773 17.7735L25.7539 17.8164L25.7617 17.8555C25.7617 17.8555 25.793 17.836 25.8008 17.8555C25.8086 17.875 25.8086 17.875 25.7773 17.9063C25.7461 17.9336 25.7422 17.8828 25.7305 17.9063V17.9141C25.7266 17.9414 25.7266 17.9688 25.7305 18C25.7344 18.0235 25.7305 18.0469 25.7227 18.0664C25.7148 18.0977 25.7266 18.1172 25.7227 18.1485C25.7148 18.168 25.7109 18.1875 25.707 18.2071V18.211V18.2188C25.6992 18.25 25.6914 18.2813 25.6758 18.3086L25.6484 18.3516L25.6563 18.3906C25.6563 18.3906 25.6875 18.3711 25.6953 18.3906C25.7031 18.4102 25.7031 18.4102 25.6719 18.4375C25.6406 18.4649 25.6406 18.4141 25.625 18.4336C25.6133 18.4649 25.6133 18.4961 25.6172 18.5274C25.6172 18.5508 25.6133 18.5742 25.6055 18.5938C25.5977 18.625 25.6055 18.6446 25.5977 18.6719C25.5898 18.6914 25.5859 18.711 25.582 18.7305V18.7696C25.5859 18.8125 25.6055 18.8633 25.6055 18.8828C25.6055 18.9024 25.5977 18.9766 25.6289 18.9805C25.6602 18.9844 25.6641 19.0352 25.6328 19.0664L25.6797 19.0703L25.6719 19.1446V19.2149V19.2227L25.7227 19.2305L25.7383 19.293L25.7227 19.3164C25.7422 19.3477 25.7617 19.375 25.7813 19.4063C25.7695 19.4336 25.75 19.418 25.7188 19.4414C25.6758 19.4649 25.625 19.4805 25.5742 19.4844C25.582 19.5196 25.582 19.5586 25.5742 19.5977C25.5586 19.6758 25.5742 19.5977 25.5234 19.6836C25.4727 19.7696 25.4219 19.7305 25.4297 19.8125C25.4375 19.8555 25.4258 19.8985 25.3984 19.9297C25.375 19.9375 25.3516 19.9492 25.332 19.9649C25.3125 19.9805 25.293 19.9922 25.2695 19.9961C25.2695 19.9961 25.25 20.0235 25.1641 20C25.0781 19.9766 25.1797 20.0469 25.1289 20.0274C24.9922 20.0235 24.8594 19.9922 24.7344 19.9336C24.6367 19.8985 24.6719 19.875 24.5586 19.8711C24.5 19.8711 24.6016 19.8985 24.3906 19.8711C24.3281 19.8633 24.3438 19.875 24.2773 19.8281C24.2656 19.8008 24.2461 19.7735 24.2266 19.75C24.1836 19.7305 24.25 19.711 24.1875 19.7031C24.1797 19.6406 24.1758 19.5781 24.1719 19.5117L24.1484 19.4414L24.1367 19.3164L24.1328 19.2969C24.1953 19.2578 24.1172 19.1211 24.1172 19.1211C24.1172 19.1211 24.043 19.1992 24.0508 19.0742Z" fill="url(#paint0_linear_1311_6515)"/>
<path d="M24.9102 13.332C24.9102 13.332 24.9258 13.4336 24.8398 13.4453C24.7539 13.457 24.8984 13.5664 24.8398 13.5586C24.6992 13.7148 24.5859 13.6797 24.4453 13.6523C24.332 13.6367 24.3359 13.5352 24.25 13.6289C24.2031 13.6797 24.3086 13.6641 24.125 13.7969C24.0703 13.8359 24.0938 13.8555 23.9922 13.7695C23.957 13.707 23.918 13.6445 23.8711 13.5859C23.8164 13.5664 23.8477 13.4492 23.793 13.4844C23.7266 13.3008 23.6484 13.1211 23.5625 12.9453L23.4531 12.7695C23.4023 12.6523 23.3398 12.5391 23.2734 12.4297L23.2383 12.375C23.207 12.2695 23.1563 12.168 23.0898 12.0781C23.0469 12.0195 23.0039 11.9609 22.9531 11.9062C22.9531 11.9062 23.0391 12.1602 22.8242 11.8281C22.7344 11.6875 22.6523 11.543 22.5859 11.3906C22.5273 11.2812 22.4961 11.2109 22.4961 11.2109C22.3398 10.9648 22.1523 10.7461 21.9297 10.5547C21.7813 10.418 21.6523 10.2891 21.5586 10.1953C21.5078 10.1445 21.4609 10.0898 21.4141 10.0312C21.1523 9.76953 20.8711 9.53125 20.5703 9.3125L20.3672 9.13281L20.3438 9.17187L20.3281 9.16797C20.2852 9.14453 20.2422 9.11719 20.1953 9.09766L20.0469 9.01172L20.0234 9.05078C19.9688 8.98828 19.875 8.94531 19.8555 8.96875C19.8359 8.99219 19.6953 8.91016 19.6523 8.89062C19.6133 8.87109 19.5078 8.85156 19.418 8.81641L19.3438 8.78516C19.2969 8.76172 19.2734 8.74219 19.2305 8.71875C19.1758 8.68359 19.1289 8.67578 19.0703 8.64062C19.0273 8.61328 18.9844 8.59375 18.9375 8.57812C18.8711 8.5625 18.8086 8.53906 18.7461 8.50781C18.707 8.48047 18.8125 8.51562 18.7617 8.46484C18.7109 8.41406 18.7109 8.41406 18.668 8.40625C18.625 8.39844 18.6563 8.44141 18.6563 8.44141L18.5703 8.41797L18.4883 8.35937C18.4297 8.32812 18.3672 8.30078 18.3047 8.27734C18.2109 8.23828 18.1289 8.19922 18.082 8.17187L17.9609 8.09375L17.2891 8.01562L17.2969 7.96484L16.7383 7.93359C16.7188 7.93359 16.6953 7.93359 16.6758 7.9375C16.5039 7.89062 16.332 7.85547 16.1523 7.83984C16.1523 7.83984 16.2656 7.86719 16.2305 7.88672H16.2266C16.1836 7.87891 16.1445 7.87109 16.0977 7.86719C16.0313 7.85547 16.0039 7.85156 16.0039 7.86719V7.88281L15.9102 7.87109C15.8711 7.85547 15.8281 7.84375 15.7852 7.83594L15.6406 7.82812L15.3477 7.80859C15.3164 7.81641 15.2891 7.82422 15.2578 7.83203C15.1914 7.84375 15.1797 7.80859 15.1797 7.80859L15.3047 7.78125C15.1602 7.78125 15.0117 7.78906 14.8594 7.79687L14.7891 7.84766C14.7891 7.84766 14.832 7.87109 14.7891 7.87891C14.7422 7.89062 14.6953 7.88672 14.6484 7.87109V7.85547L14.6289 7.82812L14.3086 7.87891L14.2617 7.91797L14.1797 7.95312L14.043 7.99219C14.0195 8.00391 14 8.02344 13.9805 8.04297L13.8555 8.07812L13.7852 8.08594L13.7578 8.10156L13.707 8.125C13.6641 8.14453 13.6445 8.12891 13.6367 8.12109L13.6328 8.11719L13.7422 8.07031C13.6211 8.07422 13.5 8.08203 13.3828 8.10156L13.3477 8.14062L13.3281 8.16016C13.3281 8.16016 13.3711 8.17578 13.3359 8.1875C13.2969 8.20703 13.25 8.21484 13.207 8.20703L13.2031 8.19531L13.1914 8.1875L13.1758 8.17578C13.0938 8.19141 13.0078 8.21484 12.9297 8.24219L12.8867 8.26172L12.7539 8.25391L12.6836 8.30859L12.5273 8.30078C12.5078 8.32031 12.4922 8.34375 12.4805 8.36719C12.4258 8.40234 12.3516 8.36719 12.3203 8.39062L12.25 8.4375C12.1836 8.40234 12.2148 8.50781 12.1797 8.46094C12.1797 8.46094 12.1367 8.50781 11.9531 8.51172C11.7734 8.51562 11.7656 8.5 11.7656 8.5C11.7344 8.5 11.7031 8.49609 11.6758 8.48047C11.6094 8.45703 11.625 8.38281 11.7109 8.32031C11.7969 8.25781 11.6836 8.22266 11.6836 8.22266C11.6836 8.22266 11.6836 8.17187 11.7969 8.10156C11.9102 8.03125 11.7188 8.06641 11.6016 8.10156C11.4844 8.13672 11.4883 8 11.4688 7.98047C11.4492 7.95703 11.207 7.91406 11.3359 7.80469C11.4219 7.72656 11.5234 7.66406 11.6289 7.61719C11.6289 7.61719 11.4844 7.55469 11.6758 7.41797C11.7383 7.37109 11.8008 7.33203 11.8672 7.28516C12.1523 7.10547 12.4531 6.95312 12.7695 6.83594L12.9531 6.79297C13.1758 6.74219 13.2031 6.59766 13.2031 6.59766L13.3477 6.58594L13.4766 6.54687C13.4766 6.54687 13.4063 6.53125 13.4688 6.50781C13.5195 6.48828 13.5781 6.48437 13.6328 6.49609C13.7344 6.50391 13.5703 6.54297 13.6406 6.54297C13.7422 6.53125 13.8438 6.51172 13.9414 6.48828C14.0117 6.47266 14.0859 6.46484 14.1563 6.46094L14.418 6.42578L14.6133 6.41016L14.7344 6.39453L15.082 6.33594C15.1445 6.32812 15.375 6.31641 15.3828 6.28516C15.3906 6.25391 15.5391 6.23828 15.6484 6.26172V6.22266L15.8867 6.21875L16.0938 6.19531H16.125V6.14453L16.3203 6.125L16.4063 6.14062C16.5039 6.12109 16.5977 6.10156 16.6797 6.07812L16.7148 6.03125L17.2734 6.21094L17.6328 6.29687L17.7305 6.32422L17.9219 6.38672L18.0586 6.44141L18.1914 6.46094C18.1914 6.46094 18.1563 6.43359 18.1797 6.42578C18.1875 6.42187 18.1953 6.42187 18.2031 6.42578C18.2266 6.42578 18.25 6.42969 18.2734 6.4375C18.3047 6.44922 18.332 6.46484 18.3594 6.48047C18.4453 6.53516 18.2813 6.49219 18.3477 6.52344C18.4414 6.5625 18.543 6.58984 18.6406 6.61328C18.7109 6.63281 18.7813 6.65625 18.8477 6.68359C18.9453 6.72266 19.0156 6.72266 19.1016 6.76562L19.2773 6.84766L19.3945 6.89062L19.6914 6.97266L19.7461 6.98828C19.8359 7.02734 19.9258 7.0625 20.0156 7.08984L20.1367 7.17969L20.4453 7.36719C20.5273 7.42187 20.6094 7.47656 20.6875 7.53906L20.8008 7.62891L20.9219 7.68359C20.9219 7.68359 20.8789 7.625 20.9414 7.64844C21.0039 7.67578 21.0039 7.67578 21.0703 7.75C21.1367 7.82422 20.9922 7.74219 21.0469 7.78906L21.0664 7.80469C21.125 7.85156 21.2305 7.91797 21.293 7.95703C21.3555 7.99609 21.4141 8.03906 21.4688 8.08594L21.6836 8.23437L21.8281 8.36328L21.8438 8.375L21.8672 8.39844C21.9414 8.46484 22.0117 8.53125 22.0742 8.60156L22.168 8.70703L22.2734 8.78516C22.2734 8.78516 22.2422 8.71875 22.3008 8.75781C22.3555 8.79297 22.3555 8.79687 22.4023 8.88281C22.4492 8.96875 22.332 8.85937 22.3711 8.91797C22.4375 8.99219 22.5078 9.0625 22.5859 9.125C22.6406 9.17187 22.6914 9.22266 22.7383 9.27734C22.8008 9.33594 22.8633 9.40234 22.918 9.46875L23.0352 9.61719L23.1055 9.71094C23.2031 9.8125 23.3281 9.91016 23.3672 9.95703C23.4063 10.0039 23.5508 10.1953 23.582 10.1836C23.6133 10.1719 23.7109 10.2891 23.7578 10.3945L23.7969 10.3672C23.8477 10.4336 23.8945 10.5 23.9414 10.5703L24.0664 10.75L24.0859 10.7734L24.1289 10.7461L24.25 10.8945L24.2813 10.9727L24.4766 11.1562C24.5117 11.25 24.4727 11.2109 24.4883 11.3125C24.5 11.3984 24.4922 11.4844 24.4648 11.5664C24.5313 11.668 24.5898 11.7695 24.6406 11.8789C24.75 12.1133 24.6445 11.8789 24.7266 12.168C24.8047 12.457 24.7148 12.3984 24.832 12.6289C24.8945 12.7422 24.9336 12.8711 24.9453 13.0039C24.9375 13.0586 24.9336 13.1172 24.9336 13.1758C24.9258 13.2266 24.9219 13.2812 24.9102 13.332Z" fill="url(#paint1_linear_1311_6515)"/>
<path d="M6.00391 14.7851C6.0625 14.6953 6.125 14.5937 6.18359 14.4765C6.20312 14.4336 6.23437 14.3593 6.26172 14.2734L6.28125 14.2148C6.29297 14.1757 6.30859 14.1406 6.32422 14.1054L6.36328 14.0273L6.375 13.9492C6.375 13.9492 6.34766 13.9687 6.33984 13.9531C6.33984 13.9492 6.33984 13.9453 6.33984 13.9375C6.33984 13.9218 6.34375 13.9101 6.34766 13.8945C6.35937 13.8789 6.37109 13.8632 6.38672 13.8476C6.42969 13.8007 6.41016 13.8984 6.43359 13.8593C6.45703 13.8047 6.47266 13.7461 6.48047 13.6836C6.48828 13.6406 6.50391 13.5976 6.52344 13.5586C6.54687 13.5 6.54687 13.457 6.56641 13.4062L6.61328 13.3007L6.63672 13.2304C6.65234 13.164 6.66016 13.0937 6.66797 13.0468L6.67187 13.0156C6.69141 12.9609 6.70312 12.9023 6.70703 12.8437L6.76172 12.7734L6.875 12.5859C6.90234 12.5312 6.93359 12.4804 6.96875 12.4336L7.02344 12.3632L7.04687 12.2851C7.04687 12.2851 7.00391 12.3086 7.01172 12.2695C7.01953 12.2304 7.01953 12.2304 7.07031 12.1914C7.12109 12.1523 7.08594 12.2422 7.11328 12.2109L7.12109 12.1953C7.14844 12.1484 7.17578 12.0976 7.19141 12.0468C7.20703 12.0078 7.23047 11.9687 7.25391 11.9336C7.28516 11.8828 7.29297 11.8398 7.32422 11.789C7.34766 11.7539 7.36328 11.7304 7.38672 11.6914L7.39062 11.6796L7.40234 11.664C7.43359 11.6132 7.46875 11.5664 7.51172 11.5234L7.57422 11.4609L7.60547 11.3906C7.60547 11.3906 7.55859 11.4101 7.57031 11.3711C7.58203 11.332 7.58203 11.332 7.63672 11.3007C7.69141 11.2656 7.64453 11.3554 7.67578 11.3242C7.71094 11.2773 7.74219 11.2226 7.76562 11.1679C7.78516 11.1289 7.80859 11.0937 7.83594 11.0625C7.875 11.0156 7.88672 10.9765 7.92187 10.9336C7.94922 10.9023 7.96875 10.8789 7.99219 10.8437L8.03125 10.7812C8.07031 10.7109 8.10156 10.6172 8.11719 10.5859C8.13281 10.5547 8.22266 10.4414 8.19922 10.4179C8.17578 10.3945 8.22266 10.3164 8.28516 10.2773L8.25 10.25L8.33984 10.1328L8.41016 10.0195L8.41797 10.0039L8.37891 9.97262L8.43359 9.87106L8.47656 9.83981C8.49219 9.78512 8.50781 9.73434 8.51953 9.67965C8.56641 9.64059 8.55859 9.67965 8.62109 9.65231C8.67969 9.63668 8.74219 9.63278 8.80469 9.64449C8.83984 9.58199 8.88281 9.5234 8.9375 9.47652C9.04297 9.36715 8.9375 9.47653 9.08594 9.37106C9.23437 9.26559 9.23828 9.34762 9.32813 9.21871C9.375 9.15621 9.43359 9.10152 9.50391 9.06637C9.54297 9.06246 9.57812 9.05465 9.61328 9.04684C9.64453 9.03512 9.67969 9.02731 9.71484 9.02731C9.71484 9.02731 9.76953 8.99606 9.82031 9.06637C9.875 9.13668 9.86328 8.99606 9.88672 9.04293C10.0117 9.10543 10.1055 9.21481 10.1523 9.34762C10.2031 9.44137 10.1406 9.4609 10.2422 9.51559C10.2969 9.54684 10.2344 9.4609 10.4102 9.5859C10.4648 9.62496 10.4609 9.59762 10.4609 9.69918C10.4414 9.74215 10.4258 9.78902 10.4141 9.83199C10.4297 9.87887 10.3437 9.87887 10.3945 9.91793L10.1797 10.1992L10.1211 10.3125L9.97266 10.5L9.94922 10.5312C9.84375 10.5625 9.76562 10.8125 9.76562 10.8125C9.76562 10.8125 9.91016 10.7265 9.76562 10.9179C9.67578 11.0273 9.57031 11.125 9.45312 11.2109C9.33594 11.3398 9.24219 11.4922 9.17578 11.6562C9.12109 11.7929 9.03906 11.9218 8.94141 12.0312C8.82031 12.2148 8.70312 12.4062 8.59766 12.6054L8.49609 12.7343L8.53906 12.7539V12.7656L8.51172 12.8515L8.47266 12.9453L8.51562 12.9648C8.47266 12.9961 8.45703 13.0586 8.48437 13.0742C8.51172 13.0898 8.47266 13.1797 8.46875 13.207C8.46094 13.2343 8.46094 13.3007 8.44531 13.3554L8.42969 13.4023C8.41797 13.4257 8.40625 13.4531 8.39453 13.4726C8.375 13.5078 8.37891 13.539 8.35937 13.5742C8.34375 13.5976 8.33203 13.6289 8.32422 13.6562C8.32031 13.6992 8.30469 13.7382 8.28516 13.7734C8.26172 13.7968 8.28125 13.7304 8.24219 13.7578C8.20312 13.7851 8.20312 13.7851 8.19922 13.8125C8.19531 13.8398 8.23438 13.8242 8.23438 13.8242L8.22656 13.8789L8.1875 13.9297C8.16406 13.9648 8.14453 14 8.12891 14.039C8.10937 14.0859 8.08203 14.1289 8.05859 14.1718L8 14.2422L7.96875 14.6562L7.92187 14.6445L7.89062 14.9882V15.0273C7.83594 15.125 7.79297 15.2304 7.76953 15.3398C7.76953 15.3398 7.80078 15.2734 7.82031 15.2968V15.3007L7.79297 15.3711C7.77344 15.4062 7.76953 15.4218 7.78516 15.4218H7.80078L7.78125 15.4726C7.76172 15.4922 7.74609 15.5156 7.73437 15.539L7.71875 15.6211L7.67578 15.789C7.68359 15.8086 7.6875 15.8242 7.69141 15.8437C7.69531 15.8632 7.6875 15.8789 7.66797 15.8828H7.66016L7.64453 15.8086C7.63281 15.8945 7.61719 15.9804 7.60937 16.0703L7.64844 16.1172C7.64844 16.1172 7.67969 16.0937 7.67969 16.1172C7.68359 16.1484 7.67578 16.1757 7.65625 16.1992H7.64062L7.60937 16.207L7.61719 16.4062L7.64844 16.4375L7.66797 16.4922L7.67969 16.5781C7.6875 16.5937 7.70312 16.6093 7.71875 16.6211L7.72656 16.7031L7.71875 16.75L7.72656 16.7695L7.73828 16.8047C7.74609 16.8203 7.73828 16.8359 7.72266 16.8437C7.72266 16.8437 7.71875 16.8437 7.71875 16.8476H7.71484L7.69141 16.7773C7.69141 16.8632 7.63281 16.914 7.63672 17.0039L7.66797 17.0312L7.68359 17.0468C7.68359 17.0468 7.71094 17.0234 7.71484 17.0468C7.72266 17.0742 7.71484 17.1054 7.69922 17.1328H7.68359L7.67187 17.1367L7.65625 17.1445C7.66016 17.2031 7.62891 17.2539 7.63672 17.3086V17.3359L7.58203 17.414L7.60937 17.4687L7.54687 17.5625C7.55859 17.5781 7.57422 17.5937 7.58984 17.6054C7.59766 17.6445 7.54297 17.6836 7.54687 17.707L7.55859 17.7617C7.49609 17.7929 7.60937 17.7968 7.54687 17.8125C7.54687 17.8125 7.57422 17.8515 7.49219 17.957C7.41016 18.0625 7.39062 18.0625 7.39062 18.0625C7.39062 18.0625 7.38281 18.0781 7.33203 18.1093C7.29687 18.1328 7.25 18.125 7.22656 18.0898C7.21875 18.0781 7.21484 18.0664 7.21484 18.0507C7.20312 17.9882 7.11719 18.0468 7.11719 18.0468C7.11719 18.0468 7.07422 18.0351 7.06641 17.957C7.05859 17.875 7 17.9961 6.97266 18.0703C6.94141 18.1445 6.82812 18.1132 6.80078 18.1211C6.77344 18.125 6.61719 18.2539 6.58594 18.1601C6.5625 18.0976 6.55078 18.0273 6.55469 17.957C6.50781 17.9882 6.44141 17.9726 6.41016 17.9257C6.40234 17.914 6.39844 17.9023 6.39453 17.8906L6.35547 17.7578C6.30469 17.5703 6.26953 17.3789 6.25391 17.1836L6.26562 17.0742C6.26953 16.9961 6.21484 16.9257 6.14062 16.9101L6.16016 16.8242L6.15234 16.7461C6.15234 16.7461 6.12109 16.7851 6.11328 16.7461C6.10547 16.707 6.10547 16.707 6.13672 16.6523C6.16797 16.5976 6.16797 16.6953 6.18359 16.6523C6.19141 16.5937 6.19141 16.5312 6.18359 16.4726C6.18359 16.4297 6.18359 16.3867 6.19141 16.3437C6.19922 16.2812 6.1875 16.2422 6.19141 16.1875C6.19531 16.1484 6.20312 16.1172 6.20703 16.0742V16.0039C6.20703 15.9179 6.1875 15.8281 6.1875 15.789C6.1875 15.75 6.19922 15.6093 6.16797 15.6015C6.13672 15.5937 6.13281 15.5 6.16797 15.4375L6.12109 15.4336C6.12109 15.3828 6.12891 15.3359 6.13672 15.289L6.14062 15.1562V15.1406L6.09375 15.1328L6.08594 15.0156L6.10547 14.9687C6.08984 14.9101 6.07422 14.8554 6.05469 14.8007L6.00391 14.7851Z" fill="url(#paint2_linear_1311_6515)"/>
<path d="M14.7812 20.293L14.6953 19.9141L14.6836 19.8711C14.7148 19.75 14.7305 19.625 14.7344 19.5C14.7344 19.5 14.7148 19.5782 14.6953 19.5586V19.5547L14.707 19.4688C14.7188 19.4258 14.7188 19.4102 14.707 19.4102H14.6914L14.6992 19.3516C14.7148 19.3243 14.7266 19.2969 14.7305 19.2696L14.7383 19.1797L14.7695 18.9922C14.7617 18.9727 14.7539 18.9532 14.75 18.9336C14.7422 18.9141 14.75 18.8946 14.7695 18.8868C14.7734 18.8868 14.7734 18.8868 14.7773 18.8828L14.7969 18.9649C14.8047 18.8711 14.8086 18.7735 14.8086 18.6758L14.7656 18.625C14.7656 18.625 14.7383 18.6485 14.7344 18.625C14.7305 18.5938 14.7383 18.5586 14.7578 18.5352H14.7734L14.8047 18.5235V18.3047L14.7734 18.2696L14.7539 18.211L14.7461 18.1133C14.7383 18.0938 14.7266 18.0743 14.7109 18.0625V17.9727L14.7266 17.9219L14.7188 17.8985L14.7109 17.8594C14.707 17.8399 14.7188 17.8203 14.7344 17.8164C14.7344 17.8164 14.7344 17.8164 14.7383 17.8164H14.7461L14.7539 17.8985C14.7734 17.8047 14.8359 17.7539 14.8477 17.6602L14.8242 17.625L14.8125 17.6055C14.8125 17.6055 14.7812 17.6289 14.7812 17.6055C14.7812 17.5743 14.793 17.543 14.8125 17.5196H14.8281H14.8398L14.8594 17.5157C14.8633 17.4532 14.9023 17.4063 14.9063 17.3438V17.3125L14.9766 17.2422L14.9648 17.1836L15.0508 17.1055C15.0469 17.086 15.0352 17.0664 15.0234 17.0508C15.0234 17.0078 15.0937 16.9844 15.0937 16.9571L15.0977 16.8985C15.1641 16.8868 15.0625 16.8477 15.125 16.8516C15.125 16.8516 15.1133 16.8047 15.2227 16.7227C15.332 16.6407 15.3477 16.6524 15.3477 16.6524C15.3477 16.6524 15.3594 16.6407 15.418 16.6289C15.4609 16.6172 15.5039 16.6446 15.5156 16.6875C15.5195 16.6993 15.5195 16.711 15.5156 16.7227C15.5078 16.7852 15.6055 16.7618 15.6055 16.7618C15.6055 16.7618 15.6445 16.7852 15.6289 16.8633C15.6133 16.9414 15.6992 16.8477 15.75 16.793C15.8008 16.7383 15.8984 16.8008 15.9258 16.8047C15.9531 16.8086 16.1367 16.7539 16.1406 16.8438C16.1445 16.9024 16.1367 16.9649 16.1133 17.0196C16.1133 17.0196 16.2422 17 16.2461 17.1172L16.25 17.2344C16.2461 17.3828 16.2383 17.5625 16.2344 17.7266L16.207 17.8164C16.1758 17.9258 16.3086 17.9688 16.3086 17.9688L16.2773 18.0352V18.1016C16.2773 18.1016 16.3086 18.0743 16.3164 18.1055C16.3203 18.1368 16.3203 18.1368 16.2891 18.1758C16.2578 18.2149 16.2578 18.1407 16.2422 18.1758C16.2305 18.2227 16.2266 18.2696 16.2344 18.3203C16.2344 18.3555 16.2305 18.3907 16.2227 18.4258C16.2109 18.4766 16.2227 18.5078 16.2148 18.5547C16.207 18.586 16.2031 18.6172 16.1992 18.6485V18.7071C16.207 18.7774 16.2305 18.8516 16.2344 18.8828C16.2383 18.9141 16.2383 19.0274 16.2695 19.0352C16.3008 19.043 16.3125 19.1133 16.2812 19.168H16.3281L16.3359 19.2852L16.3555 19.3907L16.3594 19.4024H16.4062L16.4375 19.4883L16.4258 19.5274C16.4492 19.5703 16.4766 19.6094 16.5078 19.6446L16.5547 19.6563C16.5117 19.7422 16.4805 19.8321 16.4609 19.9258C16.4531 19.9844 16.4492 20.043 16.4492 20.0977V20.1446C16.4492 20.1758 16.4453 20.2071 16.4414 20.2383L16.4297 20.3086L16.4492 20.3711C16.4492 20.3711 16.4648 20.3477 16.4766 20.3555C16.4805 20.3555 16.4844 20.3594 16.4844 20.3633C16.4922 20.3711 16.4922 20.3828 16.4922 20.3946C16.4883 20.4102 16.4844 20.4258 16.4766 20.4414C16.457 20.4922 16.4375 20.4141 16.4297 20.4493C16.4297 20.5 16.4375 20.5469 16.457 20.5938C16.4648 20.6289 16.4727 20.6641 16.4688 20.6993C16.4766 20.7422 16.4844 20.7813 16.4961 20.8243C16.5 20.8555 16.5039 20.8868 16.5078 20.918L16.5234 20.9766C16.543 21.0235 16.5664 21.0664 16.5898 21.1094L16.6016 21.1328C16.6133 21.1797 16.6328 21.2227 16.6563 21.2618L16.6484 21.336C16.6523 21.3946 16.6563 21.4532 16.668 21.5118C16.6797 21.5586 16.6836 21.6055 16.6836 21.6563V21.7266L16.7109 21.7852C16.7109 21.7852 16.7305 21.7461 16.7461 21.7735C16.7617 21.8008 16.7656 21.8008 16.7539 21.8555C16.7422 21.9102 16.7109 21.836 16.7109 21.8711V21.8828C16.7227 21.9258 16.7383 21.9688 16.7617 22.0078C16.7773 22.0391 16.7852 22.0743 16.793 22.1094C16.8047 22.1602 16.8281 22.1875 16.8359 22.2305C16.8398 22.2618 16.8477 22.293 16.8594 22.3243L16.8633 22.3321L16.8672 22.3477C16.8828 22.3946 16.8945 22.4414 16.8984 22.4922L16.9063 22.5625L16.9375 22.6211C16.9375 22.6211 16.9531 22.5782 16.9727 22.6055C16.9922 22.6328 16.9922 22.6328 16.9844 22.6875C16.9766 22.7422 16.9414 22.668 16.9414 22.7071C16.9531 22.7578 16.9727 22.8047 17.0039 22.8477C17.0234 22.8789 17.0352 22.9141 17.043 22.9493C17.0586 23 17.0859 23.0196 17.1016 23.0703C17.1094 23.1016 17.1211 23.1328 17.1328 23.1602L17.1602 23.2149C17.1953 23.2657 17.2305 23.3125 17.2734 23.3594C17.293 23.3868 17.3438 23.4922 17.3789 23.4805C17.4141 23.4688 17.4492 23.5313 17.457 23.5938L17.4961 23.5703L17.5547 23.6797L17.6211 23.7696L17.6328 23.7774L17.6758 23.7539L17.7461 23.8243L17.7539 23.8672C17.793 23.8946 17.8359 23.918 17.8789 23.9375C17.8945 23.9844 17.8672 23.9727 17.8633 24.0274C17.8555 24.086 17.832 24.1407 17.8008 24.1875C17.8438 24.2305 17.8828 24.2774 17.9102 24.3321C17.9766 24.4414 17.9102 24.3321 17.9609 24.4766C18.0117 24.6211 17.9375 24.6211 18.0273 24.7149C18.0781 24.7618 18.1133 24.8203 18.1328 24.8868C18.1289 24.9219 18.125 24.9532 18.1289 24.9883C18.1367 25.0196 18.1367 25.0508 18.1289 25.0821C18.1289 25.0821 18.1484 25.1328 18.0703 25.1758C17.9922 25.2188 18.1289 25.2227 18.0781 25.2383C17.9961 25.3516 17.8789 25.4336 17.7422 25.461C17.6445 25.5 17.6367 25.4336 17.5664 25.5313C17.5273 25.5821 17.6211 25.5313 17.4727 25.6914C17.4297 25.7422 17.4531 25.7422 17.3555 25.7305C17.3164 25.7032 17.2734 25.6797 17.2305 25.6602C17.1797 25.668 17.1953 25.5821 17.1484 25.625C17.0664 25.5391 16.9844 25.4493 16.8984 25.3477L16.7969 25.2578L16.6367 25.0664L16.6094 25.0352C16.6016 24.9258 16.3906 24.7461 16.3906 24.7461C16.3906 24.7461 16.4297 24.9258 16.2891 24.7032C16.2031 24.5743 16.1445 24.4258 16.1211 24.2735C16.0391 24.0977 15.9453 23.9336 15.832 23.7774C15.7344 23.6446 15.6641 23.4961 15.625 23.336C15.5391 23.1055 15.4453 22.8789 15.375 22.6407L15.3438 22.4571L15.3008 22.4727L15.293 22.461L15.2461 22.3711L15.207 22.2657L15.1641 22.2813C15.1758 22.2227 15.1445 22.1602 15.1133 22.1641C15.082 22.168 15.0469 22.0625 15.0352 22.0352C15.0234 22.0078 14.9805 21.9453 14.9492 21.8868L14.9297 21.8321C14.9219 21.8008 14.918 21.7735 14.9141 21.7422C14.9102 21.6993 14.8906 21.6719 14.8828 21.6211C14.8828 21.586 14.875 21.5508 14.8633 21.5196C14.8438 21.4766 14.832 21.4297 14.8281 21.3789C14.8281 21.3438 14.8555 21.418 14.8711 21.3672C14.8867 21.3164 14.8906 21.3164 14.875 21.2891C14.8594 21.2618 14.8359 21.3008 14.8359 21.3008L14.8125 21.2422L14.8203 21.1719C14.8242 21.125 14.8242 21.0743 14.8203 21.0274C14.8164 20.9688 14.8164 20.9141 14.8203 20.8555L14.8398 20.7578C14.7812 20.6133 14.7344 20.4649 14.6953 20.3125L14.7812 20.293Z" fill="url(#paint3_linear_1311_6515)"/>
<path d="M18.0938 18.7499L18.043 18.7187C18.0781 18.5195 18.0977 18.3203 18.1094 18.1171C18.1094 18.0351 18.1094 17.8945 18.0977 17.7382L18.0898 17.6367L18.0781 17.4335V17.289L18.043 17.1562C18.043 17.1562 18.0313 17.1992 18.0156 17.1835C18.0117 17.1796 18.0078 17.1718 18.0039 17.164C17.9961 17.1406 17.9883 17.1171 17.9883 17.0937C17.9883 17.0624 17.9883 17.0312 17.9922 16.9999C18 16.9023 18.0391 17.0624 18.0391 16.9882C18.0234 16.8867 18 16.789 17.9687 16.6953C17.9414 16.6171 17.9414 16.5859 17.918 16.4882C17.8945 16.3906 17.8633 16.332 17.8398 16.2539C17.8281 16.1992 17.8086 16.1445 17.7852 16.0898L17.7383 15.9921C17.6914 15.9179 17.6406 15.8437 17.5859 15.7773L17.5547 15.7421C17.5117 15.6718 17.457 15.6093 17.3945 15.5546C17.3789 15.5156 17.3594 15.4765 17.3398 15.4414C17.2891 15.3554 17.2266 15.2773 17.1563 15.207L16.9844 15.0351L16.8984 14.9492C16.8672 14.9296 16.832 14.914 16.7969 14.9023C16.7969 14.9023 16.8281 14.957 16.7773 14.9374C16.7266 14.9179 16.7266 14.914 16.6719 14.8554C16.6133 14.7968 16.7422 14.8476 16.6914 14.8124L16.6719 14.8007C16.6055 14.7617 16.5312 14.7343 16.457 14.7187L16.2812 14.6601C16.207 14.6406 16.1328 14.6249 16.0547 14.6171C16 14.6015 15.9453 14.5898 15.8867 14.5859H15.8711L15.8437 14.582L15.5781 14.5507C15.5352 14.5429 15.4922 14.539 15.4492 14.539L15.3359 14.5585C15.3359 14.5585 15.3945 14.582 15.3398 14.5976C15.2969 14.6093 15.25 14.6093 15.2031 14.5976C15.1211 14.5898 15.2539 14.5507 15.1953 14.5507C15.1094 14.5585 15.0234 14.5859 14.9453 14.621C14.8867 14.6484 14.8281 14.6679 14.7695 14.6835C14.6875 14.7226 14.6445 14.7617 14.5703 14.7929C14.5195 14.8164 14.4727 14.8476 14.4258 14.8789L14.3398 14.9453C14.25 15.0312 14.168 15.1484 14.1328 15.1874C14.0977 15.2382 13.9609 15.4023 13.9805 15.4257C14 15.4492 13.9375 15.5703 13.8555 15.6406L13.8945 15.664C13.8516 15.7265 13.8164 15.7929 13.7852 15.8593C13.7578 15.9218 13.7266 15.9804 13.707 16.0429L13.7031 16.0703L13.75 16.0898L13.707 16.2617L13.6641 16.3281C13.6563 16.4101 13.6563 16.4921 13.6602 16.5742C13.625 16.6601 13.6211 16.6054 13.5625 16.6835C13.5117 16.7499 13.4531 16.8046 13.3828 16.8515C13.3828 16.8515 13.3711 16.9492 13.3281 17.2031C13.2852 17.457 13.3281 17.2031 13.25 17.496C13.1875 17.7929 13.1367 17.7031 13.1406 17.9687C13.1523 18.1054 13.1484 18.2421 13.125 18.3749C13.1016 18.4296 13.0781 18.4882 13.0664 18.5429C13.0586 18.5976 13.0391 18.6523 13.0195 18.7031C13.0195 18.7031 13.0117 18.8164 12.9219 18.8046C12.832 18.7929 12.9531 18.9492 12.8984 18.9296C12.7891 19.0429 12.6133 19.0507 12.4961 18.9492C12.3906 18.9023 12.418 18.7812 12.3086 18.8749C12.25 18.9257 12.3594 18.9335 12.1523 19.0585C12.0898 19.0976 12.1094 19.1289 12.0312 18.9921C12.0117 18.8984 11.9844 18.8046 11.9531 18.7148C11.9062 18.6718 11.957 18.5234 11.8984 18.5507C11.875 18.2773 11.8633 18.0038 11.8672 17.7304L11.8555 17.4374C11.8633 17.2538 11.8867 17.0664 11.9023 16.8789L11.9102 16.7851C11.9648 16.6289 12.0039 16.4687 12.0195 16.3007L12.0781 15.9726C12.0781 15.9726 11.8984 16.3476 12.0781 15.7578C12.1992 15.4023 12.3867 15.0703 12.6289 14.7851C12.9063 14.3828 13.2305 14.0156 13.6016 13.6992C13.8359 13.4999 14.1055 13.3437 14.3984 13.246C14.4844 13.2109 14.5781 13.1835 14.6719 13.1679L14.7734 13.1484C15.3906 13.0078 16.0273 13.0195 16.6406 13.1835C16.7852 13.2304 16.9258 13.2851 17.0625 13.3476L17.0781 13.3046L17.1094 13.3124L17.3516 13.4062C17.4414 13.4453 17.5234 13.496 17.6094 13.5429L17.6328 13.5039C17.7383 13.5937 17.8906 13.6913 17.9219 13.6718C17.9531 13.6523 18.1797 13.8281 18.2422 13.8749C18.3594 13.9609 18.4727 14.0546 18.5781 14.1523L18.6797 14.2617C18.7305 14.3203 18.7773 14.3828 18.8164 14.4492C18.8828 14.5312 18.9414 14.6171 19 14.707L19.1289 14.9296C19.1953 15.0273 19.25 15.1328 19.293 15.2421C19.3164 15.3203 19.2344 15.1523 19.25 15.2617C19.2539 15.3242 19.2734 15.3867 19.3047 15.4374C19.3438 15.5039 19.3398 15.4218 19.3398 15.4218C19.3672 15.4648 19.3867 15.5117 19.4062 15.5585L19.4414 15.7187L19.5117 16.0273C19.5469 16.1796 19.5664 16.3164 19.5781 16.3906L19.5859 16.5937C19.6836 16.9062 19.7617 17.2226 19.8242 17.5429L19.7734 17.5507C19.8242 17.8124 19.8672 18.0703 19.9062 18.3281L19.9219 18.414C19.9023 18.6562 19.9023 18.8984 19.9141 19.1367C19.9141 19.1367 19.9258 18.9843 19.9453 19.0273V19.0351V19.2031C19.9375 19.289 19.9375 19.3164 19.957 19.3164H19.9727V19.4296C19.9609 19.4804 19.9531 19.5351 19.9492 19.5859L19.957 19.7617L19.9688 20.1132C19.9805 20.1484 19.9922 20.1835 20 20.2187C20.0234 20.2968 19.9844 20.3085 19.9844 20.3085L19.9453 20.164C19.9609 20.3359 19.9805 20.5117 20.0156 20.6914L20.0742 20.7695C20.0742 20.7695 20.0937 20.7187 20.1016 20.7656C20.1172 20.8203 20.1211 20.8749 20.1133 20.9296H20.0977L20.0742 20.957C20.1016 21.0859 20.1406 21.2109 20.1758 21.332L20.2227 21.3828L20.2734 21.4765L20.3359 21.6328C20.3516 21.6601 20.375 21.6835 20.3984 21.6992L20.457 21.8437L20.4805 21.9296L20.5 21.9609L20.5312 22.0156C20.5586 22.0624 20.5469 22.0859 20.5391 22.0976L20.5352 22.1015L20.4648 21.9804C20.4922 22.121 20.5273 22.2578 20.5742 22.3945L20.625 22.4296L20.6484 22.4453C20.6484 22.4453 20.6523 22.3945 20.6758 22.4335C20.7031 22.4765 20.7227 22.5273 20.7266 22.5781L20.7148 22.5859L20.707 22.5976L20.6953 22.6171C20.75 22.707 20.7656 22.8007 20.8242 22.8867L20.8555 22.9296L20.8828 23.0742C20.9062 23.0976 20.9297 23.121 20.9531 23.1445L20.9961 23.3164C21.0195 23.3359 21.0469 23.3476 21.0742 23.3593C21.125 23.4101 21.1211 23.496 21.1523 23.5273L21.2227 23.5976C21.207 23.6757 21.3086 23.621 21.2734 23.6679C21.2734 23.6679 21.3398 23.707 21.4062 23.8984C21.4727 24.0898 21.4648 24.0976 21.4648 24.0976C21.4766 24.1289 21.4805 24.164 21.4805 24.1953C21.4805 24.2656 21.3984 24.2656 21.3008 24.1914C21.2031 24.1132 21.2109 24.2421 21.2109 24.2421C21.2109 24.2421 21.1602 24.2539 21.043 24.1445C20.9258 24.0351 21.0312 24.2382 21.1133 24.3554C21.1953 24.4726 21.0547 24.4999 21.043 24.5234C21.0312 24.5468 21.082 24.8164 20.9141 24.7031C20.7969 24.6249 20.6914 24.5273 20.5977 24.4179C20.5977 24.4179 20.5898 24.5859 20.3711 24.4023L20.1641 24.207C19.8789 23.914 19.6328 23.582 19.4297 23.2265L19.3398 23.0156C19.2344 22.7578 19.082 22.7421 19.082 22.7421L19.0391 22.5703L18.9727 22.4218C18.9727 22.4218 18.9727 22.5078 18.9375 22.4335C18.9062 22.3749 18.8906 22.3085 18.8945 22.2382C18.8867 22.1171 18.9531 22.3085 18.9375 22.2226C18.9219 22.1367 18.8594 21.9687 18.8281 21.871C18.8008 21.789 18.7773 21.7031 18.7656 21.6171C18.7422 21.496 18.707 21.4179 18.6953 21.3085L18.6602 21.082L18.6328 20.9374L18.5273 20.5273C18.5078 20.4492 18.4766 20.1757 18.4453 20.1679C18.4141 20.1601 18.3828 19.9882 18.3945 19.8554L18.3477 19.8593L18.3203 19.582L18.2852 19.3398L18.2773 19.3085L18.2305 19.3124L18.1875 19.1054L18.1914 19.0156C18.1602 18.9257 18.125 18.8281 18.0938 18.7499Z" fill="url(#paint4_linear_1311_6515)"/>
<path d="M11.6914 21.3477H11.6953L11.7227 21.3906C11.7227 21.3359 11.7695 21.293 11.7617 21.2383L11.7305 21.2227L11.7148 21.2149C11.7148 21.2149 11.6914 21.2344 11.6836 21.2188C11.6758 21.1992 11.6836 21.1758 11.6953 21.1641H11.7109L11.7227 21.1602L11.7422 21.1563C11.7344 21.1211 11.7617 21.0859 11.75 21.0508L11.7461 21.0313L11.7969 20.9766L11.7695 20.9453L11.832 20.8789C11.8203 20.8672 11.8047 20.8594 11.7891 20.8555C11.7813 20.832 11.8398 20.8008 11.832 20.7891L11.8203 20.7578C11.8828 20.7344 11.7734 20.7383 11.832 20.7266C11.832 20.7266 11.8086 20.7031 11.8906 20.6328C11.9727 20.5625 11.9922 20.5625 11.9922 20.5625C12.0117 20.5469 12.0312 20.5391 12.0508 20.5313C12.1016 20.5078 12.1602 20.5234 12.1719 20.5586C12.1797 20.5977 12.2695 20.5586 12.2695 20.5586C12.2969 20.5625 12.3164 20.582 12.3164 20.6094C12.3242 20.6563 12.3828 20.582 12.4141 20.5391C12.4453 20.4922 12.5586 20.5078 12.5859 20.5C12.6133 20.4961 12.7734 20.418 12.8008 20.4688C12.8203 20.5 12.8281 20.5391 12.8242 20.5781C12.8242 20.5781 12.9453 20.5352 12.9805 20.6016L13.0156 20.668C13.0586 20.7617 13.0937 20.8555 13.1211 20.957L13.1133 21.0156C13.1133 21.0859 13.2461 21.082 13.2461 21.082L13.2305 21.1289L13.2461 21.168C13.2461 21.168 13.2734 21.1445 13.2852 21.1602C13.2969 21.1797 13.2969 21.1797 13.2734 21.2109C13.25 21.2422 13.2344 21.1953 13.2266 21.2188C13.2227 21.25 13.2305 21.2813 13.2422 21.3086C13.25 21.3281 13.25 21.3516 13.2461 21.375C13.2461 21.4063 13.2617 21.4258 13.2617 21.4531V21.5117L13.2734 21.5469C13.2891 21.5859 13.3242 21.6289 13.332 21.6445C13.3398 21.6602 13.3555 21.7305 13.3867 21.7305C13.418 21.7305 13.4375 21.7695 13.418 21.8086L13.4648 21.7969L13.4805 21.8672L13.5078 21.9258L13.5156 21.9336L13.5586 21.9219L13.5977 21.9688L13.5898 21.9961C13.6172 22.0156 13.6484 22.0352 13.6797 22.0508H13.7344C13.6992 22.1094 13.6719 22.1719 13.6562 22.2344C13.6523 22.2695 13.6484 22.3086 13.6523 22.3438V22.375C13.6523 22.3945 13.6523 22.4141 13.6484 22.4336L13.6367 22.4805L13.6562 22.5156C13.6562 22.5156 13.6719 22.5 13.6836 22.5C13.6875 22.5 13.6914 22.5039 13.6914 22.5039C13.6992 22.5117 13.6992 22.5156 13.6992 22.5234C13.6953 22.5352 13.6914 22.5469 13.6836 22.5547C13.6641 22.5899 13.6445 22.5469 13.6406 22.5664C13.6406 22.5977 13.6523 22.625 13.668 22.6524C13.6758 22.6719 13.6797 22.6914 13.6797 22.7149C13.6797 22.7461 13.6992 22.7617 13.7031 22.7852C13.7031 22.8047 13.707 22.8242 13.7109 22.8399L13.7266 22.8711C13.7461 22.8945 13.7617 22.9219 13.7852 22.9414L13.7969 22.9531C13.8047 22.9649 13.8242 23.0117 13.8477 23.0234L13.8359 23.0742C13.832 23.1094 13.8359 23.1484 13.8398 23.1836C13.8477 23.2109 13.8477 23.2422 13.8437 23.2734L13.8398 23.3203L13.8633 23.3516C13.8633 23.3516 13.8867 23.3203 13.8984 23.3359C13.9102 23.3516 13.9141 23.3516 13.8984 23.3867C13.8828 23.4219 13.8594 23.3828 13.8555 23.4063V23.4141C13.8594 23.4414 13.8711 23.4649 13.8906 23.4844C13.9023 23.5039 13.9102 23.5234 13.9102 23.543C13.918 23.5742 13.9375 23.5859 13.9414 23.6133C13.9453 23.6328 13.9492 23.6524 13.9531 23.668V23.6719V23.6797C13.9609 23.707 13.9648 23.7383 13.9648 23.7695V23.8164L13.9883 23.8477C13.9883 23.8477 14.0078 23.8164 14.0234 23.832C14.0391 23.8438 14.0391 23.8438 14.0234 23.8828C14.0078 23.9219 13.9844 23.8828 13.9805 23.9024C13.9766 23.9219 14.0039 23.9609 14.0195 23.9805C14.0312 24 14.0391 24.0195 14.043 24.0391C14.0508 24.0703 14.0742 24.0781 14.082 24.1055C14.0859 24.125 14.0937 24.1406 14.0977 24.1602L14.1172 24.1914C14.1445 24.2188 14.1719 24.2422 14.1992 24.2617C14.2109 24.2774 14.25 24.332 14.2773 24.3203C14.3047 24.3086 14.3359 24.3359 14.332 24.3789L14.3711 24.3555L14.4063 24.4141L14.4375 24.4766L14.4453 24.4805L14.4844 24.4531L14.5352 24.4805V24.5078C14.5664 24.5156 14.6016 24.5195 14.6328 24.5234C14.6406 24.5508 14.6172 24.5508 14.6055 24.5899C14.5859 24.6367 14.5625 24.6797 14.5312 24.7149C14.5586 24.7344 14.5859 24.7578 14.6016 24.7852C14.6445 24.8438 14.6016 24.7852 14.625 24.8711C14.6484 24.957 14.5898 24.9766 14.6523 25.0195C14.6875 25.0352 14.7148 25.0703 14.7188 25.1094C14.7109 25.1328 14.707 25.1563 14.7031 25.1797C14.7031 25.2031 14.6992 25.2305 14.6914 25.25C14.6914 25.25 14.7031 25.2813 14.6328 25.3359C14.5625 25.3906 14.6758 25.3516 14.6328 25.3789C14.5547 25.4883 14.4492 25.582 14.332 25.6484C14.2461 25.707 14.2461 25.6602 14.1797 25.7539C14.1445 25.8047 14.2266 25.7344 14.0898 25.9024C14.0508 25.9531 14.0703 25.9492 13.9883 25.9649C13.9531 25.9531 13.918 25.9492 13.8828 25.9453C13.8398 25.9649 13.8555 25.8945 13.8164 25.9414C13.7461 25.8945 13.6797 25.8438 13.6172 25.793L13.5352 25.75L13.4102 25.6445L13.3867 25.6289C13.3867 25.5469 13.2148 25.4649 13.2148 25.4649C13.2148 25.4649 13.2344 25.5899 13.1289 25.457C13.0625 25.375 13.0234 25.2734 13.0195 25.168C12.9648 25.0586 12.8945 24.957 12.8086 24.8672C12.7305 24.7969 12.6797 24.6992 12.6641 24.5938C12.6016 24.4492 12.5469 24.3047 12.4961 24.1641L12.4844 24.0508L12.4414 24.0703L12.4336 24.0664L12.3984 24.0156L12.3711 23.9492L12.3281 23.9649C12.3398 23.9258 12.3164 23.8867 12.2852 23.8984C12.2539 23.9063 12.2305 23.8438 12.2188 23.8281C12.207 23.8125 12.1719 23.7813 12.1484 23.7461L12.1328 23.7149C12.1289 23.6953 12.125 23.6758 12.125 23.6602C12.1211 23.6328 12.1016 23.6211 12.0977 23.5899C12.0977 23.5703 12.0938 23.5469 12.082 23.5274C12.0703 23.5039 12.0469 23.4688 12.0547 23.4453C12.0586 23.4219 12.0781 23.4649 12.0977 23.4297C12.1172 23.3945 12.1172 23.3945 12.1016 23.3789C12.0898 23.3633 12.0664 23.3906 12.0664 23.3906L12.0469 23.3594L12.0586 23.3125C12.0625 23.2852 12.0625 23.2539 12.0586 23.2266C12.0547 23.1914 12.0547 23.1563 12.0586 23.1211L12.0781 23.0547C12.0234 22.9766 11.9766 22.8945 11.9336 22.8086L11.9805 22.7969L11.8828 22.582L11.8711 22.5586C11.8945 22.4844 11.9023 22.4063 11.8906 22.3281C11.8906 22.3281 11.8789 22.3789 11.8555 22.3711L11.8594 22.3164C11.8672 22.2891 11.8672 22.2774 11.8516 22.2813L11.8359 22.2852L11.8398 22.2461C11.8516 22.2305 11.8594 22.2109 11.8672 22.1914V22.1367L11.8711 22.0234C11.8594 22.0156 11.8516 22.0039 11.8438 21.9922C11.8281 21.9688 11.8672 21.957 11.8672 21.957L11.8984 22C11.8945 21.9414 11.8867 21.8867 11.875 21.832L11.8438 21.8125C11.8438 21.8125 11.8203 21.832 11.8164 21.8164C11.8086 21.7969 11.8125 21.7734 11.8281 21.7578H11.8438L11.8711 21.7461L11.8359 21.625L11.8008 21.6094L11.7734 21.5781L11.75 21.5234C11.7383 21.5117 11.7227 21.5078 11.707 21.5039L11.6875 21.4531V21.4219L11.6758 21.4102L11.6641 21.3906C11.6641 21.3633 11.6797 21.3516 11.6914 21.3477Z" fill="url(#paint5_linear_1311_6515)"/>
<path d="M21.3359 18.7148L21.3515 18.4922L21.3047 18.4961L21.2969 18.4805L21.2734 18.3555L21.2656 18.2148H21.2187C21.2422 18.1484 21.2265 18.0625 21.1953 18.0586C21.164 18.0547 21.1562 17.9297 21.1484 17.8945C21.1406 17.8594 21.1133 17.7852 21.0976 17.7109L21.0898 17.6484C21.0898 17.6094 21.0898 17.5859 21.0898 17.5469C21.0898 17.4961 21.0781 17.4648 21.0781 17.4102C21.082 17.3711 21.082 17.3359 21.0781 17.2969C21.0664 17.2461 21.0586 17.1953 21.0625 17.1406C21.0703 17.1016 21.0859 17.1875 21.1094 17.1367C21.1328 17.0859 21.1328 17.0859 21.1211 17.0508C21.1094 17.0156 21.082 17.0547 21.082 17.0547L21.0664 16.9883L21.082 16.9141C21.0898 16.8633 21.0937 16.8125 21.0898 16.7617C21.0898 16.6992 21.0898 16.6367 21.0976 16.5742L21.1211 16.4648L20.9648 15.9805L21.0156 15.9688C20.9726 15.8359 20.9336 15.6992 20.8828 15.5703L20.8633 15.5273C20.8711 15.3945 20.8594 15.2617 20.832 15.1289C20.832 15.1289 20.832 15.2148 20.8086 15.1953V15.1914L20.7969 15.0977C20.7969 15.0508 20.7969 15.0313 20.7773 15.0391L20.7617 15.043L20.7539 14.9766C20.7617 14.9453 20.7656 14.9141 20.7656 14.8828L20.7422 14.7891L20.7031 14.5898C20.6875 14.5742 20.6758 14.5547 20.664 14.5391C20.6367 14.5 20.6679 14.4805 20.6679 14.4805L20.7187 14.5508C20.6914 14.4531 20.6523 14.3594 20.6133 14.2617L20.5547 14.2305C20.5547 14.2305 20.539 14.2656 20.5273 14.2422C20.5117 14.2148 20.5039 14.1797 20.5078 14.1484L20.5195 14.1406L20.5429 14.1172L20.4336 13.918L20.3867 13.9023L20.3398 13.8594L20.2773 13.7813C20.2617 13.7695 20.2383 13.7617 20.2187 13.7578L20.1679 13.6875L20.1484 13.6367L20.1289 13.6211L20.1015 13.5938C20.0859 13.582 20.082 13.5625 20.0898 13.5469C20.0898 13.5469 20.0898 13.543 20.0937 13.543L20.0976 13.5391C20.1172 13.5586 20.1406 13.5742 20.1601 13.5977C20.1172 13.5117 20.1289 13.4414 20.0742 13.3555L20.0351 13.3438L20.0156 13.3398C20.0156 13.3398 20.0078 13.3789 19.9922 13.3555C19.9687 13.332 19.957 13.3008 19.957 13.2695L19.9687 13.2617L19.9765 13.25L19.9883 13.2344C19.9453 13.1875 19.9375 13.125 19.8984 13.0781L19.875 13.0547L19.8672 12.9531C19.8476 12.9414 19.832 12.9297 19.8125 12.9219L19.7969 12.8047C19.7773 12.7969 19.7578 12.793 19.7344 12.7969C19.6992 12.7695 19.7187 12.6992 19.6992 12.6797L19.6523 12.6406C19.6758 12.5742 19.5859 12.6406 19.625 12.5938C19.625 12.5938 19.5781 12.582 19.5586 12.4414C19.539 12.3008 19.5508 12.2891 19.5508 12.2891C19.5469 12.2617 19.5508 12.2344 19.5586 12.2109C19.5703 12.1484 19.6367 12.1328 19.6953 12.1797C19.7539 12.2266 19.7734 12.1211 19.7734 12.1211C19.7734 12.1211 19.8125 12.1016 19.8867 12.168C19.9609 12.2344 19.9062 12.0977 19.8711 12.0117C19.832 11.9258 19.9414 11.8789 19.957 11.8555C19.9726 11.832 19.9844 11.6172 20.0898 11.6797C20.164 11.7227 20.2304 11.7813 20.2851 11.8477C20.2851 11.8477 20.3203 11.7109 20.4648 11.8086L20.6015 11.9141C20.7929 12.0703 20.9687 12.2461 21.1289 12.4414L21.1953 12.5664C21.2344 12.6484 21.3242 12.6953 21.414 12.6797L21.4531 12.7813L21.5117 12.8633C21.5117 12.8633 21.5117 12.8047 21.5429 12.8438C21.5742 12.8828 21.5742 12.8828 21.5859 12.9609C21.5976 13.0391 21.5312 12.9336 21.5469 12.9844C21.5781 13.0547 21.6133 13.1172 21.6601 13.1797C21.6875 13.2266 21.7109 13.2773 21.7265 13.3281C21.7539 13.3984 21.789 13.4375 21.8125 13.5039L21.8633 13.6367L21.9023 13.7188L22.039 13.9453C22.0664 13.9883 22.1211 14.1484 22.1523 14.1445C22.1836 14.1406 22.2304 14.2422 22.2344 14.3281L22.2773 14.3125C22.2969 14.3711 22.3164 14.4258 22.3359 14.4844L22.3945 14.6328L22.4062 14.6523L22.4492 14.6406L22.5156 14.7656L22.5195 14.8281C22.5586 14.8867 22.5976 14.9414 22.6406 14.9922L22.6914 15.0039C22.6758 15.1289 22.6719 15.2695 22.6679 15.4258C22.6679 15.4805 22.6758 15.5781 22.6875 15.6836L22.6953 15.7539L22.6992 15.8984L22.6953 15.9961L22.7187 16.0859C22.7187 16.0859 22.7344 16.0547 22.7461 16.0664C22.75 16.0703 22.7539 16.0742 22.7539 16.0781C22.7617 16.0938 22.7656 16.1094 22.7656 16.1289C22.7617 16.1523 22.7578 16.1758 22.7539 16.1953C22.7344 16.2656 22.7148 16.1523 22.707 16.2031C22.7109 16.2734 22.7187 16.3438 22.7383 16.4141C22.75 16.4648 22.7539 16.5156 22.7539 16.5664C22.7578 16.6367 22.7773 16.6836 22.7773 16.75L22.7812 16.8867L22.7929 16.9727L22.8476 17.1836L22.8554 17.2188C22.8633 17.2852 22.875 17.3516 22.8945 17.418L22.875 17.5234C22.8711 17.5781 22.8594 17.668 22.8594 17.7734C22.8594 17.8398 22.8554 17.9102 22.8476 17.9766L22.832 18.0703L22.8476 18.1563C22.8476 18.1563 22.875 18.1094 22.8867 18.1563C22.8984 18.2031 22.8984 18.1992 22.8711 18.2617C22.8437 18.3242 22.8359 18.2188 22.8242 18.2617V18.2813C22.8242 18.3398 22.8281 18.4023 22.8398 18.4609C22.8476 18.5078 22.8476 18.5586 22.8437 18.6055C22.8437 18.6719 22.8594 18.7148 22.8594 18.7734V18.8984V18.9102V18.9297C22.8633 18.9922 22.8594 19.0547 22.8554 19.1172L22.8437 19.2109L22.8633 19.293C22.8633 19.293 22.8867 19.2461 22.9023 19.2891C22.914 19.3281 22.9179 19.3281 22.8984 19.3906C22.8789 19.4531 22.8594 19.3516 22.8515 19.3984C22.8515 19.4609 22.8633 19.5273 22.8828 19.5859C22.8945 19.6289 22.9023 19.6758 22.9023 19.7188C22.9101 19.7852 22.9297 19.8203 22.9336 19.8828C22.9375 19.9258 22.9414 19.9531 22.9492 20L22.9687 20.0703C22.9961 20.1406 23.0234 20.207 23.0586 20.2734C23.0742 20.3086 23.1133 20.4492 23.1445 20.4414C23.1797 20.4375 23.2148 20.5195 23.2109 20.5898L23.2539 20.5742C23.2695 20.6211 23.2851 20.6641 23.3047 20.707L23.3633 20.8203L23.375 20.832L23.4219 20.8086C23.4414 20.8398 23.4648 20.8672 23.4883 20.8945L23.4961 20.9414C23.5351 20.9727 23.5781 21.0039 23.6211 21.0313C23.6367 21.082 23.6054 21.0664 23.6054 21.125C23.5976 21.1836 23.582 21.2422 23.5508 21.293C23.5508 21.293 23.5898 21.3359 23.6758 21.4531C23.7617 21.5703 23.6758 21.4531 23.7422 21.6133C23.8203 21.7656 23.7422 21.7656 23.8594 21.8672C23.9219 21.9102 23.9765 21.9727 24.0117 22.0391C24.0156 22.0781 24.0234 22.1133 24.0351 22.1484C24.0508 22.1797 24.0586 22.2148 24.0625 22.25C24.0625 22.25 24.1015 22.3008 24.0351 22.3633C23.9687 22.4219 24.1133 22.4023 24.0664 22.4336C24.0273 22.5703 23.9297 22.6836 23.7969 22.7344C23.7031 22.793 23.6719 22.7188 23.6367 22.8359C23.6172 22.9023 23.6953 22.8281 23.6054 23.0352C23.5781 23.0977 23.6054 23.0977 23.4922 23.0938C23.4336 23.0664 23.375 23.043 23.3164 23.0234C23.2656 23.0391 23.2383 22.9297 23.207 22.9844C23.0664 22.875 22.9336 22.7578 22.8125 22.6328L22.6679 22.5078C22.582 22.4219 22.5117 22.3281 22.4336 22.2383L22.3945 22.1914C22.3203 22.0352 22.2226 21.8906 22.1015 21.7656C22.1015 21.7656 22.1679 22.0195 21.9844 21.6836C21.8789 21.4883 21.8125 21.2734 21.789 21.0547C21.789 21.0547 21.6679 20.6406 21.539 20.3047C21.457 20.1016 21.4179 19.8867 21.4179 19.668C21.375 19.3359 21.3554 19.0234 21.3359 18.7148Z" fill="url(#paint6_linear_1311_6515)"/>
<path d="M8.79294 16.3789L8.89451 16.0039L8.84763 15.9961V15.9688L8.87888 15.7539L8.93357 15.5117L8.88669 15.5C8.94138 15.3945 8.96482 15.2422 8.93747 15.2227C8.91013 15.207 8.97263 14.9688 8.98435 14.9023C8.99607 14.8359 9.01951 14.6797 9.05466 14.5352L9.08982 14.4141C9.11326 14.3477 9.13669 14.2852 9.16794 14.2227C9.21091 14.1289 9.22263 14.0547 9.26951 13.9492C9.30466 13.8789 9.33982 13.8086 9.36716 13.7344C9.40232 13.6328 9.44919 13.5313 9.50388 13.4375C9.54685 13.375 9.47654 13.5391 9.54685 13.457C9.58982 13.418 9.62497 13.3672 9.6445 13.3125C9.67185 13.2461 9.60935 13.293 9.60935 13.293L9.66794 13.1641L9.76169 13.043C9.76169 13.043 9.80857 12.9883 9.94529 12.7852C10.039 12.6563 10.125 12.5469 10.1836 12.4844L10.3359 12.3359C10.5195 12.0352 10.7226 11.75 10.9492 11.4844L10.9843 11.5195C11.1758 11.2969 11.3828 11.082 11.5976 10.8828L11.6679 10.8125C11.7773 10.7578 11.957 10.6445 12.1093 10.5469L12.3984 10.375C12.3984 10.375 12.2343 10.4531 12.2656 10.4063L12.2734 10.4023L12.4531 10.3086C12.5468 10.2695 12.582 10.25 12.5703 10.2383L12.5664 10.2227L12.6953 10.168C12.7578 10.1523 12.8203 10.1367 12.8789 10.1133C12.9453 10.0859 13.0039 10.0508 13.0742 10.0273L13.4883 9.88281L13.6133 9.82031C13.7031 9.77734 13.7304 9.80859 13.7304 9.80859L13.5586 9.89063C13.7656 9.82031 13.9804 9.75391 14.207 9.69922L14.3047 9.62891C14.3047 9.62891 14.2383 9.61719 14.2968 9.60156C14.3672 9.58203 14.4414 9.57422 14.5117 9.57813V9.59375L14.5429 9.61719C14.7109 9.57813 14.8789 9.55859 15.0429 9.53125L15.1211 9.48828L15.2578 9.45703L15.4883 9.42969C15.5273 9.42188 15.5664 9.40625 15.6015 9.39063L15.8125 9.38672L15.9336 9.39844L15.9843 9.39453H16.0742C16.1445 9.39453 16.1758 9.41406 16.1797 9.42578L16.1836 9.43359L15.9922 9.4375C16.2109 9.46094 16.332 9.52344 16.5586 9.55859L16.6367 9.54297L16.6758 9.53516C16.6758 9.53516 16.6211 9.5 16.6797 9.50781C16.75 9.51172 16.8203 9.53125 16.8828 9.56641V9.58203L16.8906 9.59766L16.9023 9.61719C17.0468 9.64453 17.1562 9.69922 17.289 9.73047L17.3593 9.74609L17.5195 9.85156L17.6523 9.87109L17.832 10C17.8711 10.0039 17.9062 10.0039 17.9453 10C18.0351 10.0273 18.0898 10.1133 18.1445 10.1289L18.2695 10.168C18.3008 10.25 18.375 10.1641 18.3633 10.2266C18.3633 10.2266 18.4609 10.2383 18.6289 10.4141C18.7968 10.5898 18.7773 10.6016 18.7773 10.6016C18.8008 10.6289 18.8203 10.6602 18.8281 10.6953C18.8554 10.7656 18.7656 10.7891 18.6328 10.7305C18.5039 10.6758 18.5625 10.8008 18.5625 10.8008C18.5625 10.8008 18.5156 10.8242 18.3593 10.7539C18.2031 10.6836 18.3945 10.8398 18.5078 10.9375C18.6211 11.0352 18.4922 11.0938 18.4883 11.1211C18.4843 11.1484 18.5976 11.3867 18.4179 11.3281C18.2929 11.2852 18.1718 11.2344 18.0547 11.1758C18.0547 11.1758 18.0976 11.3281 17.8554 11.2578L17.6133 11.1953C17.2773 11.1055 16.9336 11.0313 16.5859 10.9805C16.5234 10.9609 16.4609 10.9453 16.3984 10.9336C16.164 10.8828 16.0937 11.0156 16.0937 11.0156L15.9492 10.9805C15.9062 10.9766 15.8593 10.9766 15.8164 10.9805C15.8164 10.9805 15.8828 11.0117 15.8164 11.0195C15.7617 11.0273 15.707 11.0195 15.6562 10.9961C15.5625 10.9648 15.7265 10.9648 15.6562 10.9492C15.5547 10.9414 15.4531 10.9414 15.3515 10.9609L15.1367 10.9727C15.0312 10.9805 14.9687 10.9922 14.875 11.0078L14.6836 11.0352C14.6445 11.043 14.6054 11.0508 14.5664 11.0664C14.4531 11.1055 14.3398 11.1523 14.2343 11.2031C14.1718 11.2305 13.9453 11.3086 13.957 11.3477C13.9687 11.3867 13.8281 11.4492 13.7109 11.4727L13.7304 11.5156L13.5156 11.6289C13.4531 11.6641 13.3945 11.7031 13.3359 11.7461L13.3164 11.7656L13.3398 11.8047C13.2929 11.8438 13.2461 11.8828 13.1953 11.9258L13.125 11.9609C13.0664 12.0273 13.0117 12.0977 12.9648 12.1719L12.9687 12.2266C12.7968 12.2969 12.6328 12.3828 12.4765 12.4883C12.3789 12.5625 12.289 12.6406 12.1992 12.7227L12.1289 12.793L11.9843 12.9297L11.875 13.0273L11.7968 13.1406C11.7968 13.1406 11.8359 13.1211 11.8359 13.1406C11.8359 13.1484 11.832 13.1563 11.8281 13.1641C11.8164 13.1836 11.8047 13.207 11.7851 13.2227C11.7617 13.2422 11.7343 13.2617 11.7109 13.2813C11.6328 13.3438 11.7265 13.2031 11.6718 13.2539C11.6054 13.332 11.5468 13.418 11.4961 13.5117C11.457 13.5781 11.414 13.6367 11.3711 13.6992L11.2343 13.9336L11.1328 14.1055C11.1133 14.1406 11.0937 14.1758 11.0781 14.2188C11.039 14.3164 11.0039 14.4141 10.9765 14.5156L10.9609 14.5664C10.9258 14.6563 10.8945 14.75 10.8789 14.8438C10.8515 14.8867 10.8242 14.9336 10.8008 14.9805C10.7461 15.0977 10.6992 15.2148 10.6562 15.3359C10.5742 15.5664 10.5468 15.6328 10.5468 15.6328L10.4883 15.7773L10.4648 15.9219C10.4648 15.9219 10.5117 15.8594 10.5039 15.9297C10.5 15.9883 10.4804 16.0469 10.4453 16.0977C10.3945 16.1914 10.4297 16.0156 10.3984 16.0859L10.3906 16.1133C10.3672 16.2109 10.3476 16.3086 10.3359 16.4102C10.3242 16.4883 10.3086 16.5664 10.289 16.6445C10.2656 16.7578 10.2656 16.832 10.2461 16.9336L10.207 17.1445V17.1641L10.1992 17.1953L10.1328 17.5156L10.0937 17.6719L10.0898 17.8203C10.0898 17.8203 10.1289 17.75 10.1289 17.8203C10.1328 17.8828 10.1211 17.9453 10.0898 18C10.0508 18.1055 10.0625 17.918 10.0429 18C10.0234 18.1133 10.0156 18.2266 10.0156 18.3398C10.0117 18.4219 10.0039 18.5039 9.99216 18.5859L9.97263 18.8867L9.94919 19.1016V19.2344C9.94919 19.3828 9.97263 19.5508 9.98044 19.6133C9.98435 19.6758 9.99607 19.9375 10.0273 19.9453C10.0586 19.9531 10.082 20.1133 10.0664 20.2383L10.1133 20.2344L10.1406 20.4961L10.1875 20.7266L10.1992 20.7539L10.2461 20.7461L10.3047 20.9414L10.3086 21.0313C10.3437 21.1172 10.3867 21.1992 10.4297 21.2773C10.4414 21.3789 10.414 21.332 10.4062 21.4375C10.3984 21.5273 10.3711 21.6133 10.332 21.6914C10.332 21.6914 10.3711 21.793 10.4531 22.0586C10.5351 22.3242 10.4531 22.0586 10.5195 22.375C10.5859 22.6914 10.5078 22.625 10.6289 22.8789C10.6953 23.0039 10.75 23.1367 10.789 23.2734C10.7929 23.3359 10.7968 23.3945 10.8125 23.457C10.8281 23.5117 10.8359 23.5703 10.8359 23.6289C10.8359 23.6289 10.8789 23.7344 10.7929 23.7656C10.707 23.793 10.8867 23.8867 10.8281 23.8906C10.7422 24.1016 10.6211 24.0898 10.4726 24.082C10.3554 24.082 10.3242 23.9609 10.2695 24.0938C10.2422 24.1641 10.3398 24.125 10.2109 24.332C10.1718 24.3945 10.207 24.418 10.0664 24.3203C10.0508 24.3086 9.96091 24.1758 9.86716 24.0898C9.80466 24.0703 9.78904 23.9063 9.74997 23.957C9.60935 23.7109 9.48044 23.457 9.36326 23.1992L9.22654 22.9336C9.15622 22.7617 9.082 22.5859 9.02341 22.4102L8.99216 22.3242C8.94138 22.0586 8.85935 21.7969 8.75779 21.5469C8.75779 21.5469 8.78513 21.9492 8.65232 21.3633C8.5781 21.0195 8.55075 20.668 8.57029 20.3164C8.57029 20.3164 8.53122 19.6094 8.51951 19.0039C8.50779 18.6602 8.53122 18.3125 8.58982 17.9766C8.62888 17.4336 8.69919 16.9063 8.79294 16.3789Z" fill="url(#paint7_linear_1311_6515)"/>
</g>
<defs>
<linearGradient id="paint0_linear_1311_6515" x1="25.0119" y1="14.8645" x2="22.3598" y2="16.3478" gradientUnits="userSpaceOnUse">
<stop stop-color="#6310E5"/>
<stop offset="1" stop-color="#8322FE"/>
</linearGradient>
<linearGradient id="paint1_linear_1311_6515" x1="18.1218" y1="6.03125" x2="14.9265" y2="14.1744" gradientUnits="userSpaceOnUse">
<stop stop-color="#6310E5"/>
<stop offset="1" stop-color="#8322FE"/>
</linearGradient>
<linearGradient id="paint2_linear_1311_6515" x1="8.23245" y1="9.02039" x2="3.02055" y2="12.7082" gradientUnits="userSpaceOnUse">
<stop stop-color="#6310E5"/>
<stop offset="1" stop-color="#8322FE"/>
</linearGradient>
<linearGradient id="paint3_linear_1311_6515" x1="16.4092" y1="16.6262" x2="11.7662" y2="19.1877" gradientUnits="userSpaceOnUse">
<stop stop-color="#6310E5"/>
<stop offset="1" stop-color="#8322FE"/>
</linearGradient>
<linearGradient id="paint4_linear_1311_6515" x1="16.668" y1="13.051" x2="9.74694" y2="21.3574" gradientUnits="userSpaceOnUse">
<stop stop-color="#6310E5"/>
<stop offset="1" stop-color="#8322FE"/>
</linearGradient>
<linearGradient id="paint5_linear_1311_6515" x1="13.1914" y1="20.4517" x2="9.94493" y2="23.0713" gradientUnits="userSpaceOnUse">
<stop stop-color="#6310E5"/>
<stop offset="1" stop-color="#8322FE"/>
</linearGradient>
<linearGradient id="paint6_linear_1311_6515" x1="21.8116" y1="11.6683" x2="15.8506" y2="15.1089" gradientUnits="userSpaceOnUse">
<stop stop-color="#6310E5"/>
<stop offset="1" stop-color="#8322FE"/>
</linearGradient>
<linearGradient id="paint7_linear_1311_6515" x1="13.6748" y1="9.38672" x2="4.63818" y2="18.4383" gradientUnits="userSpaceOnUse">
<stop stop-color="#6310E5"/>
<stop offset="1" stop-color="#8322FE"/>
</linearGradient>
<clipPath id="clip0_1311_6515">
<rect width="20" height="20" fill="white" transform="matrix(-1 0 0 1 26 6)"/>
</clipPath>
</defs>
</svg>
