<svg width="57" height="58" viewBox="0 0 57 58" fill="none" xmlns="http://www.w3.org/2000/svg">
<g clip-path="url(#clip0_1156_2189)">
<path d="M29.4796 56.8583C16.8225 56.8243 5.79402 48.8747 2.19642 37.0173C-0.808228 27.0817 1.13976 18.0002 7.89785 10.0638C12.0523 5.1867 17.4097 2.19733 23.7079 0.918056C27.231 0.203629 30.8599 0.174112 34.3943 0.831134C34.7896 0.902939 34.7934 1.00876 34.6394 1.32621C32.9011 4.92405 31.1711 8.52692 29.4492 12.1348C29.4066 12.2477 29.3274 12.3432 29.2242 12.4065C29.121 12.4697 28.9996 12.4971 28.8791 12.4844C25.2577 12.5765 21.7713 13.8701 18.9746 16.1594C16.1779 18.4488 14.2316 21.6024 13.4453 25.1184C11.7102 32.8035 15.8912 40.7531 23.2689 43.5705C29.1243 45.8059 34.5729 44.9159 39.5294 41.0951C39.7821 40.9062 39.8866 40.8684 40.0672 41.1801C41.9677 44.487 43.8846 47.7875 45.818 51.0817C45.9872 51.3709 45.9264 51.5012 45.6755 51.6751C41.9422 54.3013 37.6236 55.9872 33.0905 56.5881C31.8926 56.7417 30.6872 56.8319 29.4796 56.8583Z" fill="#EF492D"/>
<path d="M49.142 48.6762C48.9861 48.5931 48.9424 48.423 48.8626 48.2851C46.7011 44.5688 44.5472 40.8488 42.401 37.125C42.328 36.9724 42.2089 36.8463 42.0604 36.7644C41.9118 36.6824 41.7412 36.6486 41.5724 36.6677C37.2811 36.6809 32.9917 36.6677 28.7004 36.6677H28.1664C28.1626 36.5038 28.2225 36.3447 28.3337 36.2236C30.5129 32.4595 32.6933 28.6954 34.8751 24.9313C34.933 24.8068 35.0287 24.7034 35.1486 24.6356C35.2686 24.5679 35.4068 24.5391 35.5441 24.5534C39.9367 24.5647 44.3281 24.5647 48.7182 24.5534C48.8546 24.5392 48.9921 24.5681 49.1111 24.6359C49.2302 24.7037 49.3247 24.8071 49.3814 24.9313C51.572 28.7269 53.7728 32.5175 55.9837 36.303C56.0575 36.4 56.0991 36.5175 56.1025 36.6392C56.1059 36.7608 56.071 36.8804 56.0027 36.9814C53.7817 40.7946 51.5689 44.6041 49.3643 48.4098C49.3054 48.5062 49.2788 48.6384 49.142 48.6762Z" fill="#EF492D"/>
<path d="M39.8904 8.70332C39.1037 7.92102 38.3701 7.17273 37.6099 6.43578C37.3742 6.20903 37.5396 6.04085 37.6403 5.8689C38.5102 4.36283 39.9265 3.24462 41.599 2.74347C42.6125 2.41092 43.6847 2.29293 44.7468 2.39707C45.8089 2.5012 46.8374 2.82517 47.766 3.34815C51.1869 5.18674 50.8809 9.45161 48.9063 11.379C48.1577 12.0958 47.3097 12.7022 46.3882 13.1798C45.4379 13.6825 44.4877 14.1568 43.5565 14.6915C42.783 15.1318 42.1805 15.7403 41.9012 16.6208C41.7871 16.9761 41.8555 17.0687 42.2375 17.0649C44.75 17.0498 47.2643 17.0649 49.7786 17.0498C50.1587 17.0498 50.3013 17.1216 50.286 17.5335C50.2518 18.416 50.2651 19.3003 50.286 20.179C50.286 20.4586 50.2081 20.5569 49.9193 20.5569C45.8788 20.5493 41.8397 20.5493 37.8018 20.5569C37.6118 20.5569 37.435 20.5569 37.4331 20.2829C37.4331 17.5014 37.9501 14.9107 40.1394 12.9266C41.1823 12.0084 42.353 11.2447 43.6154 10.6591C44.3071 10.3227 45.0065 10.0015 45.6109 9.51397C46.1392 9.08692 46.5041 8.56916 46.5421 7.87C46.5991 6.77591 45.7287 5.96338 44.4136 5.87834C42.5226 5.74418 41.1581 6.59073 40.204 8.16289C40.109 8.31784 40.0216 8.47657 39.8904 8.70332Z" fill="#EF492D"/>
<path d="M49.5259 52.6369V51.728H49.199V51.5391H50.0751V51.728H49.7444V52.6369H49.5259ZM50.2157 52.6369V51.5428H50.5483L50.7384 52.2892L50.9284 51.5428H51.2629V52.6369H51.0747V51.7753L50.8562 52.6369H50.6414L50.4248 51.7753V52.6369H50.2157Z" fill="#EF492D"/>
</g>
<defs>
<clipPath id="clip0_1156_2189">
<rect width="56" height="57.2174" fill="white" transform="translate(0.463989)"/>
</clipPath>
</defs>
</svg>
