<svg width="109" height="36" viewBox="0 0 109 36" fill="none" xmlns="http://www.w3.org/2000/svg">
<g clip-path="url(#clip0_1311_6001)">
<path d="M17.6349 1.125V17.8087L32.2205 9.72C29.3754 4.59675 23.9124 1.125 17.6349 1.125Z" fill="#BAC1C9"/>
<path d="M17.6348 17.8075L31.9313 26.398C34.9463 21.3693 35.2208 14.9039 32.082 9.4668L17.6348 17.8075Z" fill="#BAC1C9"/>
<path d="M17.3424 34.4847C23.2047 34.5815 28.9422 31.5867 32.0821 26.1485L17.6337 17.8088L17.3424 34.4847Z" fill="#BAC1C9"/>
<path d="M3.04582 25.8942C5.8932 31.0197 11.3562 34.4903 17.6337 34.4903V17.8088L3.04582 25.8942Z" fill="#BAC1C9"/>
<path d="M3.18649 26.1494L17.6337 17.8075L3.33724 9.21704C0.322238 14.2458 0.0466129 20.7134 3.18649 26.1494Z" fill="#BAC1C9"/>
<path d="M3.18645 9.46692L17.6337 17.8077L17.9251 1.13179C17.8332 1.1299 17.7413 1.12878 17.6494 1.12842C11.8827 1.12842 6.2757 4.11417 3.18645 9.46692Z" fill="#BAC1C9"/>
<path d="M30.805 17.8087C30.805 25.0818 24.9078 30.9791 17.6335 30.9791C10.3593 30.9791 4.46317 25.0807 4.46317 17.8076C4.46317 10.5345 10.3593 4.63721 17.6335 4.63721C24.9078 4.63721 30.8039 10.5333 30.8039 17.8076L30.805 17.8087Z" fill="#68718D"/>
<path d="M26.0688 17.6096C25.2903 17.6096 24.6176 18.1563 24.4657 18.9202C24.1311 20.5722 23.182 22.0358 21.8103 23.0153C20.4385 23.9948 18.7461 24.4173 17.0749 24.1975C15.4037 23.9778 13.8782 23.1321 12.8063 21.8312C11.7344 20.5303 11.196 18.8712 11.2998 17.1888C11.5091 13.7846 14.3418 11.0531 17.7517 10.9586C18.561 10.935 19.3678 11.0597 20.1322 11.3264C20.8522 11.5773 21.651 11.3118 22.038 10.6548L22.1077 10.5356C22.2249 10.3347 22.2961 10.1104 22.3163 9.87867C22.3365 9.64699 22.3052 9.41372 22.2245 9.1956C22.1438 8.97748 22.0159 8.77993 21.8498 8.61713C21.6837 8.45434 21.4836 8.33035 21.264 8.25406C20.0845 7.83471 18.8362 7.64269 17.5852 7.68818C12.4226 7.86818 8.20945 12.0734 8.01933 17.2361C7.92305 19.7329 8.7718 22.1742 10.3962 24.0729C12.0206 25.9715 14.3012 27.1878 16.7828 27.4791C19.2645 27.7703 21.7647 27.1151 23.7846 25.6441C25.8045 24.1732 27.1954 21.9947 27.6798 19.5434C27.8778 18.5399 27.0915 17.6096 26.0688 17.6096Z" fill="white"/>
<path d="M20.3416 16.6196C19.7752 16.6196 19.2319 16.8447 18.8314 17.2452C18.4308 17.6457 18.2058 18.189 18.2058 18.7554C18.2058 19.3219 18.4308 19.8651 18.8314 20.2657C19.2319 20.6662 19.7752 20.8913 20.3416 20.8913C20.9081 20.8913 21.4513 20.6662 21.8519 20.2657C22.2524 19.8651 22.4774 19.3219 22.4774 18.7554C22.4774 18.189 22.2524 17.6457 21.8519 17.2452C21.4513 16.8447 20.9081 16.6196 20.3416 16.6196Z" fill="white"/>
<path d="M49.2866 12.9476C49.4689 12.7733 49.7141 12.6844 50.0246 12.6844C50.3351 12.6844 50.5804 12.7755 50.7626 12.9578C50.9449 13.1389 51.036 13.3796 51.036 13.6755V21.9645C51.036 23.4743 50.6344 24.6139 49.8322 25.3811C49.0301 26.1506 47.8477 26.5343 46.284 26.5343C44.8282 26.5343 43.6155 26.2586 42.6457 25.7051L42.6423 25.704C42.5644 25.6588 42.5059 25.5863 42.4783 25.5005C42.4507 25.4146 42.4558 25.3216 42.4927 25.2394L42.873 24.3776C42.8933 24.3313 42.923 24.2896 42.9603 24.2553C42.9976 24.2211 43.0416 24.1949 43.0895 24.1785C43.1374 24.1621 43.1882 24.1558 43.2386 24.1601C43.2891 24.1644 43.3381 24.1791 43.3826 24.2033L43.3939 24.2089C43.8776 24.4384 44.3299 24.6161 44.7472 24.7444C45.1646 24.8726 45.6641 24.9379 46.2435 24.9379C48.1042 24.9379 49.0335 24.0008 49.0335 22.1254V20.5695C48.7578 21.1552 48.3053 21.6395 47.7397 21.9544C47.1604 22.2851 46.4865 22.4494 45.7181 22.4494C44.8552 22.4494 44.0869 22.2469 43.413 21.8441C42.7352 21.4353 42.1911 20.838 41.847 20.1251C41.4757 19.3838 41.2901 18.5276 41.2901 17.5568C41.2901 16.587 41.4791 15.7309 41.856 14.9895C42.234 14.2481 42.756 13.6733 43.4231 13.2604C44.0902 12.8509 44.8552 12.6439 45.7181 12.6439C46.473 12.6439 47.1356 12.8059 47.7094 13.1299C48.2831 13.4528 48.7174 13.9118 49.0144 14.5046V13.6553C49.0144 13.3583 49.1044 13.1231 49.2866 12.9476ZM46.2041 20.8328C47.0793 20.8328 47.7678 20.5425 48.2662 19.9631C48.7646 19.3838 49.0132 18.5816 49.0132 17.5568C49.0132 16.5465 48.768 15.7478 48.2752 15.1616C47.7836 14.5755 47.094 14.2819 46.203 14.2819C45.3142 14.2819 44.6167 14.5721 44.1105 15.1515C43.6053 15.7309 43.3522 16.533 43.3522 17.5568C43.3522 18.5816 43.6087 19.3838 44.1206 19.9643C44.6325 20.5425 45.3277 20.8328 46.2041 20.8328ZM60.6064 13.9174C61.3747 14.7679 61.7595 15.9131 61.7595 17.3554C61.7595 17.8943 61.5165 18.1631 61.0316 18.1631H54.7822C54.9172 20.2534 55.9219 21.2985 57.795 21.2985C58.2933 21.2985 58.7254 21.231 59.0887 21.096C59.4532 20.961 59.838 20.7855 60.2418 20.5695C60.2823 20.5425 60.3937 20.4851 60.576 20.3985C60.7162 20.3225 60.8713 20.2776 61.0305 20.2669C61.2195 20.2669 61.3736 20.3411 61.4951 20.4896C61.6166 20.637 61.6773 20.8271 61.6773 21.0555C61.6773 21.4459 61.4344 21.7755 60.9495 22.0455C60.4634 22.321 59.9434 22.5317 59.4026 22.6721C58.8786 22.8156 58.3382 22.8904 57.795 22.8949C56.2312 22.8949 54.9982 22.4404 54.0948 21.5303C53.1915 20.6201 52.7404 19.377 52.7404 17.7998C52.7404 16.7895 52.9395 15.8929 53.3366 15.111C53.7095 14.3559 54.2923 13.7243 55.0151 13.2919C55.7362 12.8599 56.5552 12.6439 57.4721 12.6439C58.7929 12.6439 59.8391 13.0691 60.6064 13.9174ZM55.6338 14.8894C55.1613 15.3878 54.8779 16.0886 54.7834 16.8525H60C59.9595 16.0751 59.7277 15.3709 59.3025 14.8781C58.8784 14.3865 58.2821 14.1413 57.5137 14.1413C56.7319 14.1413 56.1063 14.3899 55.6338 14.8894ZM72.9026 16.6275V22.5911C72.9026 22.7374 72.7845 22.8544 72.6393 22.8544H71.1228C71.053 22.8544 70.9861 22.8267 70.9367 22.7773C70.8873 22.7279 70.8596 22.661 70.8596 22.5911V16.7288C70.8596 15.8929 70.6942 15.2798 70.3646 14.8894C70.0338 14.4979 69.5186 14.3021 68.8177 14.3021C67.9965 14.3021 67.335 14.5586 66.8366 15.0705C66.3371 15.5824 66.0885 16.2698 66.0885 17.1326V22.5911C66.0885 22.7374 65.9703 22.8544 65.8252 22.8544H64.3098C64.24 22.8544 64.1731 22.8267 64.1237 22.7773C64.0743 22.7279 64.0466 22.661 64.0466 22.5911V13.6553C64.0426 13.5248 64.0666 13.3951 64.1171 13.2747C64.1675 13.1544 64.2432 13.0463 64.3391 12.9578C64.5398 12.7736 64.8048 12.6754 65.0771 12.6844C65.3741 12.6844 65.6103 12.7733 65.7858 12.9476C65.8738 13.0385 65.9424 13.1463 65.9875 13.2644C66.0325 13.3826 66.0531 13.5087 66.048 13.635V14.0738C66.048 14.184 66.1875 14.2256 66.2505 14.1368C66.5463 13.7065 66.9415 13.3538 67.4025 13.1085C67.9818 12.7991 68.6355 12.6439 69.3633 12.6439C71.7225 12.6439 72.9015 13.9714 72.9015 16.6264L72.9026 16.6275ZM76.5926 10.7359C76.9065 10.7359 77.2075 10.6112 77.4295 10.3893C77.6514 10.1673 77.7761 9.86628 77.7761 9.5524C77.7761 9.23851 77.6514 8.93748 77.4295 8.71554C77.2075 8.49359 76.9065 8.3689 76.5926 8.3689C76.2787 8.3689 75.9777 8.49359 75.7557 8.71554C75.5338 8.93748 75.4091 9.23851 75.4091 9.5524C75.4091 9.86628 75.5338 10.1673 75.7557 10.3893C75.9777 10.6112 76.2787 10.7359 76.5926 10.7359ZM77.613 13.6755C77.613 13.3526 77.5185 13.1063 77.3295 12.9375C77.1416 12.7688 76.8986 12.6844 76.6027 12.6844C76.3339 12.6746 76.071 12.7648 75.8647 12.9375C75.669 13.1063 75.5722 13.3526 75.5722 13.6755V22.6294C75.5722 22.7531 75.6723 22.8544 75.7961 22.8544H77.388C77.4476 22.8544 77.5049 22.8307 77.5471 22.7885C77.5893 22.7463 77.613 22.6891 77.613 22.6294V13.6744V13.6755ZM82.6339 12.8768C83.2358 12.7255 83.8537 12.6473 84.4743 12.6439C85.7816 12.6439 86.7558 12.9746 87.396 13.635C88.0361 14.2965 88.3567 15.3 88.3567 16.6478V22.5506C88.3567 22.6312 88.3247 22.7085 88.2678 22.7654C88.2108 22.8224 88.1335 22.8544 88.053 22.8544H86.6985C86.6179 22.8544 86.5407 22.8224 86.4837 22.7654C86.4267 22.7085 86.3947 22.6312 86.3947 22.5506V21.1354C86.1591 21.6786 85.7599 22.1348 85.2528 22.4404C84.7466 22.7441 84.1571 22.8949 83.4832 22.8949C82.868 22.9017 82.2595 22.7669 81.7046 22.5011C81.1887 22.2585 80.7507 21.8767 80.4401 21.3986C80.1376 20.9291 79.9796 20.3811 79.9856 19.8225C79.9856 19.1081 80.1712 18.5445 80.5413 18.1339C80.9126 17.7233 81.5257 17.4296 82.3819 17.2541C83.2369 17.0786 84.4136 16.9909 85.9098 16.9909H86.3745V16.4048C86.3745 15.651 86.2192 15.1043 85.9098 14.7679C85.5993 14.4304 85.101 14.2616 84.4136 14.2616C83.9411 14.2616 83.4967 14.3224 83.0793 14.4439C82.6089 14.5852 82.1494 14.7608 81.7046 14.9693C81.3401 15.1718 81.0836 15.273 80.9362 15.273C80.8422 15.2757 80.7489 15.2571 80.6632 15.2185C80.5774 15.1799 80.5015 15.1224 80.4412 15.0503C80.3095 14.8919 80.2409 14.6903 80.2488 14.4844C80.2457 14.2915 80.3062 14.1029 80.421 13.9478C80.5346 13.7936 80.7202 13.6418 80.9767 13.4933C81.4481 13.2368 82.0005 13.032 82.6339 12.8768ZM85.668 20.6201C86.1382 20.1139 86.3745 19.4648 86.3745 18.6694V18.144H86.0111C84.9592 18.144 84.1504 18.1913 83.5845 18.2846C83.0186 18.3791 82.6147 18.5378 82.3717 18.7605C82.1287 18.9833 82.0072 19.3028 82.0072 19.7213C82.0072 20.205 82.1827 20.6033 82.5337 20.9138C82.8836 21.2243 83.3212 21.3784 83.8477 21.3784C84.5891 21.3784 85.1966 21.1264 85.668 20.6201ZM92.7712 9.9394V22.5596C92.7712 22.6378 92.7402 22.7128 92.6849 22.7681C92.6296 22.8233 92.5546 22.8544 92.4765 22.8544H91.023C90.945 22.8541 90.8703 22.8229 90.8153 22.7677C90.7602 22.7124 90.7293 22.6376 90.7293 22.5596V9.9394C90.7293 9.6154 90.8238 9.3724 91.0117 9.21152C91.2007 9.04952 91.4437 8.96852 91.7396 8.96852C92.0366 8.96852 92.283 9.04952 92.4776 9.21152C92.6733 9.3724 92.7712 9.6154 92.7712 9.9394ZM97.1767 9.9394V22.5596C97.1767 22.6378 97.1457 22.7128 97.0904 22.7681C97.0351 22.8233 96.9601 22.8544 96.882 22.8544H95.4285C95.3505 22.8541 95.2758 22.8229 95.2208 22.7677C95.1657 22.7124 95.1348 22.6376 95.1348 22.5596V9.9394C95.1348 9.6154 95.2282 9.3724 95.4172 9.21152C95.6062 9.04952 95.8492 8.96852 96.1451 8.96852C96.4421 8.96852 96.6885 9.04952 96.8831 9.21152C97.0788 9.3724 97.1767 9.6154 97.1767 9.9394ZM108.899 13.5956C108.899 13.7295 108.871 13.8578 108.818 13.9781L102.822 26.7075C102.75 26.8847 102.626 27.0361 102.466 27.1418C102.32 27.2404 102.148 27.2933 101.971 27.2936C101.73 27.2944 101.497 27.2081 101.314 27.0506C101.222 26.979 101.147 26.8868 101.097 26.7814C101.046 26.6759 101.02 26.5601 101.022 26.4431C101.022 26.3363 101.056 26.2013 101.123 26.0404L102.894 22.2683L98.9913 13.9781C98.9361 13.8651 98.9084 13.7406 98.9103 13.6148C98.9103 13.3583 99.0183 13.1423 99.2343 12.9679C99.4382 12.7968 99.6961 12.7035 99.9622 12.7046C100.367 12.7046 100.656 12.8936 100.831 13.2716L103.965 20.2264L107.079 13.2919C107.141 13.1174 107.257 12.9668 107.409 12.8614C107.561 12.756 107.743 12.7012 107.928 12.7046C108.184 12.7046 108.41 12.7935 108.606 12.9679C108.8 13.1434 108.898 13.3526 108.898 13.5945L108.899 13.5956Z" fill="#68718D"/>
</g>
<defs>
<clipPath id="clip0_1311_6001">
<rect width="108" height="36" fill="white" transform="translate(0.951111)"/>
</clipPath>
</defs>
</svg>
