<svg width="109" height="36" viewBox="0 0 109 36" fill="none" xmlns="http://www.w3.org/2000/svg">
<g clip-path="url(#clip0_310_57204)">
<path d="M17.0269 1.125V17.8088L31.6125 9.72C28.7674 4.59675 23.3044 1.125 17.0269 1.125Z" fill="#BAC1C9"/>
<path d="M17.0265 17.8076L31.323 26.3981C34.338 21.3694 34.6125 14.904 31.4738 9.46687L17.0265 17.8076Z" fill="#BAC1C9"/>
<path d="M16.7339 34.4846C22.5963 34.5814 28.3338 31.5866 31.4736 26.1484L17.0253 17.8088L16.7339 34.4846Z" fill="#BAC1C9"/>
<path d="M2.4375 25.8941C5.28487 31.0196 10.7479 34.4903 17.0254 34.4903V17.8088L2.4375 25.8941Z" fill="#BAC1C9"/>
<path d="M2.57824 26.1495L17.0255 17.8076L2.72899 9.21713C-0.286008 14.2459 -0.561633 20.7135 2.57824 26.1495Z" fill="#BAC1C9"/>
<path d="M2.57812 9.46689L17.0254 17.8076L17.3167 1.13176C17.2249 1.12987 17.133 1.12875 17.0411 1.12839C11.2744 1.12839 5.66738 4.11414 2.57812 9.46689Z" fill="#BAC1C9"/>
<path d="M30.1969 17.8088C30.1969 25.0819 24.2996 30.9791 17.0254 30.9791C9.75111 30.9791 3.85498 25.0808 3.85498 17.8076C3.85498 10.5345 9.75111 4.63725 17.0254 4.63725C24.2996 4.63725 30.1957 10.5334 30.1957 17.8076L30.1969 17.8088Z" fill="#68718D"/>
<path d="M25.4607 17.6096C24.6822 17.6096 24.0094 18.1564 23.8576 18.9202C23.5229 20.5723 22.5739 22.0358 21.2021 23.0153C19.8303 23.9948 18.138 24.4174 16.4668 24.1976C14.7956 23.9778 13.27 23.1321 12.1981 21.8313C11.1262 20.5304 10.5878 18.8713 10.6917 17.1889C10.9009 13.7846 13.7337 11.0531 17.1436 10.9586C17.9529 10.9351 18.7596 11.0598 19.5241 11.3265C20.2441 11.5774 21.0428 11.3119 21.4298 10.6549L21.4996 10.5356C21.6168 10.3347 21.688 10.1104 21.7082 9.87873C21.7284 9.64705 21.697 9.41378 21.6164 9.19566C21.5357 8.97754 21.4077 8.77999 21.2416 8.61719C21.0756 8.4544 20.8755 8.33041 20.6558 8.25412C19.4763 7.83477 18.2281 7.64275 16.9771 7.68825C11.8144 7.86825 7.60131 12.0735 7.41119 17.2361C7.31491 19.733 8.16366 22.1743 9.78806 24.0729C11.4125 25.9716 13.693 27.1879 16.1747 27.4791C18.6564 27.7704 21.1566 27.1151 23.1765 25.6442C25.1963 24.1733 26.5872 21.9948 27.0717 19.5435C27.2697 18.54 26.4833 17.6096 25.4607 17.6096Z" fill="white"/>
<path d="M19.7335 16.6196C19.167 16.6196 18.6238 16.8446 18.2232 17.2452C17.8227 17.6457 17.5977 18.189 17.5977 18.7554C17.5977 19.3219 17.8227 19.8651 18.2232 20.2657C18.6238 20.6662 19.167 20.8912 19.7335 20.8912C20.2999 20.8912 20.8432 20.6662 21.2437 20.2657C21.6443 19.8651 21.8693 19.3219 21.8693 18.7554C21.8693 18.189 21.6443 17.6457 21.2437 17.2452C20.8432 16.8446 20.2999 16.6196 19.7335 16.6196Z" fill="white"/>
<path d="M48.6781 12.9476C48.8604 12.7732 49.1056 12.6844 49.4161 12.6844C49.7266 12.6844 49.9719 12.7755 50.1541 12.9577C50.3364 13.1389 50.4275 13.3796 50.4275 13.6755V21.9645C50.4275 23.4742 50.0259 24.6139 49.2238 25.3811C48.4216 26.1506 47.2393 26.5342 45.6755 26.5342C44.2198 26.5342 43.007 26.2586 42.0373 25.7051L42.0339 25.704C41.9559 25.6588 41.8975 25.5862 41.8698 25.5004C41.8422 25.4146 41.8473 25.3216 41.8843 25.2394L42.2645 24.3776C42.2848 24.3312 42.3146 24.2896 42.3519 24.2553C42.3891 24.221 42.4331 24.1949 42.481 24.1785C42.5289 24.1621 42.5797 24.1558 42.6302 24.1601C42.6806 24.1643 42.7297 24.179 42.7741 24.2032L42.7854 24.2089C43.2691 24.4384 43.7214 24.6161 44.1388 24.7444C44.5561 24.8726 45.0556 24.9379 45.635 24.9379C47.4958 24.9379 48.425 24.0007 48.425 22.1254V20.5695C48.1493 21.1551 47.6968 21.6395 47.1313 21.9544C46.5519 22.2851 45.878 22.4494 45.1096 22.4494C44.2468 22.4494 43.4784 22.2469 42.8045 21.8441C42.1268 21.4352 41.5826 20.8379 41.2385 20.1251C40.8673 19.3837 40.6816 18.5276 40.6816 17.5567C40.6816 16.587 40.8706 15.7309 41.2475 14.9895C41.6255 14.2481 42.1475 13.6732 42.8146 13.2604C43.4818 12.8509 44.2468 12.6439 45.1096 12.6439C45.8645 12.6439 46.5271 12.8059 47.1009 13.1299C47.6746 13.4527 48.1089 13.9117 48.4059 14.5046V13.6552C48.4059 13.3582 48.4959 13.1231 48.6781 12.9476ZM45.5956 20.8327C46.4709 20.8327 47.1594 20.5425 47.6578 19.9631C48.1561 19.3837 48.4048 18.5816 48.4048 17.5567C48.4048 16.5465 48.1595 15.7477 47.6668 15.1616C47.1751 14.5755 46.4855 14.2819 45.5945 14.2819C44.7058 14.2819 44.0083 14.5721 43.502 15.1515C42.9969 15.7309 42.7438 16.533 42.7438 17.5567C42.7438 18.5816 43.0003 19.3837 43.5121 19.9642C44.024 20.5425 44.7193 20.8327 45.5956 20.8327ZM59.9979 13.9174C60.7663 14.7679 61.151 15.9131 61.151 17.3554C61.151 17.8942 60.908 18.1631 60.4231 18.1631H54.1738C54.3088 20.2534 55.3134 21.2985 57.1865 21.2985C57.6849 21.2985 58.1169 21.231 58.4803 21.096C58.8448 20.961 59.2295 20.7855 59.6334 20.5695C59.6739 20.5425 59.7853 20.4851 59.9675 20.3985C60.1078 20.3224 60.2628 20.2775 60.422 20.2669C60.611 20.2669 60.7651 20.3411 60.8866 20.4896C61.0081 20.637 61.0689 20.8271 61.0689 21.0555C61.0689 21.4459 60.8259 21.7755 60.341 22.0455C59.8549 22.321 59.3349 22.5316 58.7941 22.6721C58.2701 22.8155 57.7298 22.8904 57.1865 22.8949C55.6228 22.8949 54.3898 22.4404 53.4864 21.5302C52.583 20.6201 52.1319 19.377 52.1319 17.7997C52.1319 16.7895 52.331 15.8929 52.7281 15.111C53.1011 14.3558 53.6839 13.7242 54.4066 13.2919C55.1278 12.8599 55.9468 12.6439 56.8636 12.6439C58.1844 12.6439 59.2306 13.0691 59.9979 13.9174ZM55.0254 14.8894C54.5529 15.3877 54.2694 16.0886 54.1749 16.8525H59.3915C59.351 16.0751 59.1193 15.3709 58.694 14.8781C58.2699 14.3865 57.6736 14.1412 56.9053 14.1412C56.1234 14.1412 55.4979 14.3899 55.0254 14.8894ZM72.2941 16.6275V22.5911C72.2941 22.7374 72.176 22.8544 72.0309 22.8544H70.5144C70.4446 22.8544 70.3776 22.8266 70.3282 22.7773C70.2789 22.7279 70.2511 22.6609 70.2511 22.5911V16.7287C70.2511 15.8929 70.0858 15.2797 69.7561 14.8894C69.4254 14.4979 68.9101 14.3021 68.2093 14.3021C67.388 14.3021 66.7265 14.5586 66.2281 15.0705C65.7286 15.5824 65.48 16.2697 65.48 17.1326V22.5911C65.48 22.7374 65.3619 22.8544 65.2168 22.8544H63.7014C63.6316 22.8544 63.5646 22.8266 63.5152 22.7773C63.4659 22.7279 63.4381 22.6609 63.4381 22.5911V13.6552C63.4341 13.5248 63.4581 13.395 63.5086 13.2747C63.5591 13.1544 63.6348 13.0463 63.7306 12.9577C63.9314 12.7735 64.1963 12.6754 64.4686 12.6844C64.7656 12.6844 65.0019 12.7732 65.1774 12.9476C65.2654 13.0385 65.3339 13.1462 65.379 13.2644C65.4241 13.3826 65.4446 13.5086 65.4395 13.635V14.0737C65.4395 14.184 65.579 14.2256 65.642 14.1367C65.9379 13.7065 66.333 13.3538 66.794 13.1085C67.3734 12.7991 68.027 12.6439 68.7549 12.6439C71.114 12.6439 72.293 13.9714 72.293 16.6264L72.2941 16.6275ZM75.9841 10.7359C76.298 10.7359 76.599 10.6112 76.821 10.3892C77.0429 10.1673 77.1676 9.86625 77.1676 9.55237C77.1676 9.23848 77.0429 8.93745 76.821 8.71551C76.599 8.49356 76.298 8.36887 75.9841 8.36887C75.6703 8.36887 75.3692 8.49356 75.1473 8.71551C74.9253 8.93745 74.8006 9.23848 74.8006 9.55237C74.8006 9.86625 74.9253 10.1673 75.1473 10.3892C75.3692 10.6112 75.6703 10.7359 75.9841 10.7359ZM77.0045 13.6755C77.0045 13.3526 76.91 13.1062 76.721 12.9375C76.5331 12.7687 76.2901 12.6844 75.9943 12.6844C75.7254 12.6746 75.4625 12.7648 75.2563 12.9375C75.0605 13.1062 74.9638 13.3526 74.9638 13.6755V22.6294C74.9638 22.7531 75.0639 22.8544 75.1876 22.8544H76.7795C76.8392 22.8544 76.8964 22.8307 76.9386 22.7885C76.9808 22.7463 77.0045 22.689 77.0045 22.6294V13.6744V13.6755ZM82.0254 12.8767C82.6273 12.7255 83.2453 12.6473 83.8659 12.6439C85.1731 12.6439 86.1474 12.9746 86.7875 13.635C87.4276 14.2965 87.7483 15.3 87.7483 16.6477V22.5506C87.7483 22.6312 87.7163 22.7084 87.6593 22.7654C87.6023 22.8224 87.5251 22.8544 87.4445 22.8544H86.09C86.0095 22.8544 85.9322 22.8224 85.8752 22.7654C85.8183 22.7084 85.7863 22.6312 85.7863 22.5506V21.1354C85.5506 21.6785 85.1515 22.1347 84.6444 22.4404C84.1381 22.7441 83.5486 22.8949 82.8748 22.8949C82.2596 22.9016 81.651 22.7669 81.0961 22.5011C80.5802 22.2585 80.1423 21.8767 79.8316 21.3986C79.5292 20.929 79.3711 20.381 79.3771 19.8225C79.3771 19.1081 79.5628 18.5445 79.9329 18.1339C80.3041 17.7232 80.9173 17.4296 81.7734 17.2541C82.6284 17.0786 83.8051 16.9909 85.3014 16.9909H85.766V16.4047C85.766 15.651 85.6108 15.1042 85.3014 14.7679C84.9909 14.4304 84.4925 14.2616 83.8051 14.2616C83.3326 14.2616 82.8883 14.3224 82.4709 14.4439C82.0004 14.5852 81.5409 14.7608 81.0961 14.9692C80.7316 15.1717 80.4751 15.273 80.3278 15.273C80.2338 15.2757 80.1404 15.257 80.0547 15.2184C79.969 15.1799 79.8931 15.1224 79.8328 15.0502C79.701 14.8918 79.6325 14.6903 79.6404 14.4844C79.6372 14.2914 79.6977 14.1028 79.8125 13.9477C79.9261 13.7936 80.1118 13.6417 80.3683 13.4932C80.8396 13.2367 81.392 13.032 82.0254 12.8767ZM85.0595 20.6201C85.5298 20.1139 85.766 19.4647 85.766 18.6694V18.144H85.4026C84.3508 18.144 83.5419 18.1912 82.976 18.2846C82.4101 18.3791 82.0063 18.5377 81.7633 18.7605C81.5203 18.9832 81.3988 19.3027 81.3988 19.7212C81.3988 20.205 81.5743 20.6032 81.9253 20.9137C82.2751 21.2242 82.7128 21.3784 83.2393 21.3784C83.9806 21.3784 84.5881 21.1264 85.0595 20.6201ZM92.1628 9.93937V22.5596C92.1628 22.6378 92.1317 22.7128 92.0764 22.768C92.0212 22.8233 91.9462 22.8544 91.868 22.8544H90.4145C90.3365 22.8541 90.2619 22.8229 90.2068 22.7676C90.1518 22.7124 90.1209 22.6376 90.1209 22.5596V9.93937C90.1209 9.61537 90.2154 9.37237 90.4033 9.21149C90.5923 9.04949 90.8353 8.96849 91.1311 8.96849C91.4281 8.96849 91.6745 9.04949 91.8691 9.21149C92.0649 9.37237 92.1628 9.61537 92.1628 9.93937ZM96.5683 9.93937V22.5596C96.5683 22.6378 96.5372 22.7128 96.4819 22.768C96.4267 22.8233 96.3517 22.8544 96.2735 22.8544H94.82C94.742 22.8541 94.6674 22.8229 94.6123 22.7676C94.5573 22.7124 94.5264 22.6376 94.5264 22.5596V9.93937C94.5264 9.61537 94.6198 9.37237 94.8088 9.21149C94.9978 9.04949 95.2408 8.96849 95.5366 8.96849C95.8336 8.96849 96.08 9.04949 96.2746 9.21149C96.4704 9.37237 96.5683 9.61537 96.5683 9.93937ZM108.291 13.5956C108.291 13.7295 108.263 13.8577 108.21 13.9781L102.214 26.7075C102.141 26.8847 102.018 27.0361 101.858 27.1417C101.712 27.2404 101.539 27.2932 101.363 27.2936C101.122 27.2944 100.889 27.2081 100.706 27.0506C100.614 26.979 100.539 26.8868 100.488 26.7813C100.437 26.6759 100.412 26.5601 100.414 26.4431C100.414 26.3362 100.447 26.2012 100.515 26.0404L102.286 22.2682L98.3829 13.9781C98.3277 13.865 98.2999 13.7406 98.3019 13.6147C98.3019 13.3582 98.4099 13.1422 98.6259 12.9679C98.8297 12.7968 99.0876 12.7035 99.3538 12.7046C99.7588 12.7046 100.048 12.8936 100.222 13.2716L103.357 20.2264L106.471 13.2919C106.533 13.1173 106.648 12.9667 106.801 12.8614C106.953 12.756 107.135 12.7012 107.32 12.7046C107.575 12.7046 107.801 12.7935 107.997 12.9679C108.192 13.1434 108.29 13.3526 108.29 13.5945L108.291 13.5956Z" fill="#68718D"/>
</g>
<defs>
<clipPath id="clip0_310_57204">
<rect width="108" height="36" fill="white" transform="translate(0.342773)"/>
</clipPath>
</defs>
</svg>
