<svg width="783" height="545" viewBox="0 0 783 545" fill="none" xmlns="http://www.w3.org/2000/svg">
<g clip-path="url(#clip0)">
<path d="M-5 3.7037C-5 1.6582 -3.09736 0 -0.750339 0H773.75C776.097 0 778 1.6582 778 3.7037V25H-5V3.7037Z" fill="#EDEFF3"/>
<path d="M12.337 12.3189C12.337 15.0907 10.091 17.3377 7.32026 17.3377C4.54956 17.3377 2.30347 15.0907 2.30347 12.3189C2.30347 9.54706 4.54956 7.30005 7.32026 7.30005C10.091 7.30005 12.337 9.54706 12.337 12.3189Z" fill="#EE4266"/>
<path d="M29.6617 12.3189C29.6617 15.0907 27.4157 17.3377 24.645 17.3377C21.8743 17.3377 19.6282 15.0907 19.6282 12.3189C19.6282 9.54706 21.8743 7.30005 24.645 7.30005C27.4157 7.30005 29.6617 9.54706 29.6617 12.3189Z" fill="#FFC857"/>
<path d="M46.9959 12.3189C46.9959 15.0907 44.7498 17.3377 41.9791 17.3377C39.2084 17.3377 36.9623 15.0907 36.9623 12.3189C36.9623 9.54706 39.2084 7.30005 41.9791 7.30005C44.7498 7.30005 46.9959 9.54706 46.9959 12.3189Z" fill="#59C3C3"/>
<path d="M-5 25H778V62H-5V25Z" fill="white"/>
<path d="M-5 62H731" stroke="#E4E8EE"/>
<path d="M58.8557 35.6335C58.8557 33.6176 60.4892 31.9834 62.5042 31.9834H271.385C273.4 31.9834 275.034 33.6176 275.034 35.6335V51.1462C275.034 53.1621 273.4 54.7963 271.385 54.7963H62.5042C60.4892 54.7963 58.8557 53.1621 58.8557 51.1462V35.6335Z" fill="#EDEFF3"/>
<rect x="66.7172" y="39.7631" width="101.959" height="6.91531" rx="3.45765" fill="#D4D8E4"/>
<path d="M5.3295 43.3437L8.40906 40.6475C8.77022 40.3313 8.77829 39.8113 8.4271 39.4861C8.0759 39.161 7.49841 39.1537 7.13726 39.4699L3.56198 42.6002L3.5613 42.6008C3.09569 43.009 3.09624 43.6801 3.56248 44.0877L7.13726 47.2176C7.49841 47.5338 8.0759 47.5265 8.42709 47.2013C8.77829 46.8762 8.77022 46.3562 8.40906 46.04L5.3295 43.3437Z" fill="#D4D8E4"/>
<path d="M24.8179 43.344L21.7383 46.0403C21.3772 46.3565 21.3691 46.8764 21.7203 47.2016C22.0715 47.5268 22.649 47.534 23.0101 47.2178L26.5854 44.0875L26.5861 44.0869C27.0517 43.6787 27.0512 43.0076 26.5849 42.6L23.0101 39.4702C22.649 39.154 22.0715 39.1612 21.7203 39.4864C21.3691 39.8116 21.3772 40.3315 21.7383 40.6477L24.8179 43.344Z" fill="#D4D8E4"/>
<path fill-rule="evenodd" clip-rule="evenodd" d="M42.2067 39.238C42.2067 38.734 42.615 38.3254 43.1188 38.3254C45.7636 38.3254 47.9076 40.4703 47.9076 43.1161C47.9076 45.762 45.7636 47.9068 43.1188 47.9068C42.615 47.9068 42.2067 47.4983 42.2067 46.9943C42.2067 46.4904 42.615 46.0818 43.1188 46.0818C44.756 46.0818 46.0833 44.754 46.0833 43.1161C46.0833 41.4782 44.756 40.1505 43.1188 40.1505C42.615 40.1505 42.2067 39.7419 42.2067 39.238Z" fill="#D4D8E4"/>
<path fill-rule="evenodd" clip-rule="evenodd" d="M39.2391 44.0284C38.7353 44.0284 38.327 43.6199 38.327 43.1159C38.327 40.4701 40.471 38.3252 43.1157 38.3252C45.7605 38.3252 47.9045 40.4701 47.9045 43.1159C47.9045 43.6199 47.4961 44.0284 46.9923 44.0284C46.4886 44.0284 46.0802 43.6199 46.0802 43.1159C46.0802 41.478 44.7529 40.1503 43.1157 40.1503C41.4785 40.1503 40.1513 41.478 40.1513 43.1159C40.1513 43.6199 39.7429 44.0284 39.2391 44.0284Z" fill="#D4D8E4"/>
<path d="M38.6591 43.2806L37.5913 40.7689C37.4661 40.4744 37.1385 40.3613 36.8597 40.5163C36.5808 40.6714 36.4563 41.0358 36.5815 41.3304L37.8212 44.2463L37.8214 44.2469C37.9832 44.6267 38.4083 44.7658 38.7633 44.5549L41.4876 42.9394C41.7629 42.7762 41.8782 42.4087 41.7452 42.1186C41.6122 41.8285 41.2813 41.7256 41.0061 41.8889L38.6591 43.2806Z" fill="#D4D8E4"/>
<path d="M-7 69C-7 64.5817 -3.41828 61 1 61H778V537C778 541.418 774.418 545 770 545H1C-3.41828 545 -7 541.418 -7 537V69Z" fill="#EDEFF3"/>
<path d="M295.732 209.408H298.684V216.104C297.82 216.792 296.812 217.32 295.66 217.688C294.508 218.056 293.324 218.24 292.108 218.24C290.396 218.24 288.852 217.872 287.476 217.136C286.1 216.384 285.02 215.352 284.236 214.04C283.452 212.728 283.06 211.248 283.06 209.6C283.06 207.952 283.452 206.472 284.236 205.16C285.02 203.848 286.1 202.824 287.476 202.088C288.868 201.336 290.428 200.96 292.156 200.96C293.564 200.96 294.844 201.192 295.996 201.656C297.148 202.12 298.116 202.8 298.9 203.696L296.932 205.616C295.652 204.336 294.108 203.696 292.3 203.696C291.116 203.696 290.06 203.944 289.132 204.44C288.22 204.936 287.5 205.632 286.972 206.528C286.46 207.424 286.204 208.448 286.204 209.6C286.204 210.72 286.46 211.728 286.972 212.624C287.5 213.52 288.22 214.224 289.132 214.736C290.06 215.248 291.108 215.504 292.276 215.504C293.588 215.504 294.74 215.216 295.732 214.64V209.408ZM314.559 211.664C314.559 211.872 314.543 212.168 314.511 212.552H304.455C304.631 213.496 305.087 214.248 305.823 214.808C306.575 215.352 307.503 215.624 308.607 215.624C310.015 215.624 311.175 215.16 312.087 214.232L313.695 216.08C313.119 216.768 312.391 217.288 311.511 217.64C310.631 217.992 309.639 218.168 308.535 218.168C307.127 218.168 305.887 217.888 304.815 217.328C303.743 216.768 302.911 215.992 302.319 215C301.743 213.992 301.455 212.856 301.455 211.592C301.455 210.344 301.735 209.224 302.295 208.232C302.871 207.224 303.663 206.44 304.671 205.88C305.679 205.32 306.815 205.04 308.079 205.04C309.327 205.04 310.439 205.32 311.415 205.88C312.407 206.424 313.175 207.2 313.719 208.208C314.279 209.2 314.559 210.352 314.559 211.664ZM308.079 207.44C307.119 207.44 306.303 207.728 305.631 208.304C304.975 208.864 304.575 209.616 304.431 210.56H311.703C311.575 209.632 311.183 208.88 310.527 208.304C309.871 207.728 309.055 207.44 308.079 207.44ZM325.145 217.304C324.793 217.592 324.361 217.808 323.849 217.952C323.353 218.096 322.825 218.168 322.265 218.168C320.857 218.168 319.769 217.8 319.001 217.064C318.233 216.328 317.849 215.256 317.849 213.848V207.68H315.737V205.28H317.849V202.352H320.849V205.28H324.281V207.68H320.849V213.776C320.849 214.4 321.001 214.88 321.305 215.216C321.609 215.536 322.049 215.696 322.625 215.696C323.297 215.696 323.857 215.52 324.305 215.168L325.145 217.304ZM338.205 218.168C337.165 218.168 336.149 218.032 335.157 217.76C334.165 217.488 333.373 217.144 332.781 216.728L333.933 214.448C334.509 214.832 335.197 215.144 335.997 215.384C336.813 215.608 337.613 215.72 338.397 215.72C340.189 215.72 341.085 215.248 341.085 214.304C341.085 213.856 340.853 213.544 340.389 213.368C339.941 213.192 339.213 213.024 338.205 212.864C337.149 212.704 336.285 212.52 335.613 212.312C334.957 212.104 334.381 211.744 333.885 211.232C333.405 210.704 333.165 209.976 333.165 209.048C333.165 207.832 333.669 206.864 334.677 206.144C335.701 205.408 337.077 205.04 338.805 205.04C339.685 205.04 340.565 205.144 341.445 205.352C342.325 205.544 343.045 205.808 343.605 206.144L342.453 208.424C341.365 207.784 340.141 207.464 338.781 207.464C337.901 207.464 337.229 207.6 336.765 207.872C336.317 208.128 336.093 208.472 336.093 208.904C336.093 209.384 336.333 209.728 336.813 209.936C337.309 210.128 338.069 210.312 339.093 210.488C340.117 210.648 340.957 210.832 341.613 211.04C342.269 211.248 342.829 211.6 343.293 212.096C343.773 212.592 344.013 213.296 344.013 214.208C344.013 215.408 343.493 216.368 342.453 217.088C341.413 217.808 339.997 218.168 338.205 218.168ZM354.301 217.304C353.949 217.592 353.517 217.808 353.005 217.952C352.509 218.096 351.981 218.168 351.421 218.168C350.013 218.168 348.925 217.8 348.157 217.064C347.389 216.328 347.005 215.256 347.005 213.848V207.68H344.893V205.28H347.005V202.352H350.005V205.28H353.437V207.68H350.005V213.776C350.005 214.4 350.157 214.88 350.461 215.216C350.765 215.536 351.205 215.696 351.781 215.696C352.453 215.696 353.013 215.52 353.461 215.168L354.301 217.304ZM361.665 205.04C363.553 205.04 364.993 205.496 365.985 206.408C366.993 207.304 367.497 208.664 367.497 210.488V218H364.665V216.44C364.297 217 363.769 217.432 363.081 217.736C362.409 218.024 361.593 218.168 360.633 218.168C359.673 218.168 358.833 218.008 358.113 217.688C357.393 217.352 356.833 216.896 356.433 216.32C356.049 215.728 355.857 215.064 355.857 214.328C355.857 213.176 356.281 212.256 357.129 211.568C357.993 210.864 359.345 210.512 361.185 210.512H364.497V210.32C364.497 209.424 364.225 208.736 363.681 208.256C363.153 207.776 362.361 207.536 361.305 207.536C360.585 207.536 359.873 207.648 359.169 207.872C358.481 208.096 357.897 208.408 357.417 208.808L356.241 206.624C356.913 206.112 357.721 205.72 358.665 205.448C359.609 205.176 360.609 205.04 361.665 205.04ZM361.257 215.984C362.009 215.984 362.673 215.816 363.249 215.48C363.841 215.128 364.257 214.632 364.497 213.992V212.504H361.401C359.673 212.504 358.809 213.072 358.809 214.208C358.809 214.752 359.025 215.184 359.457 215.504C359.889 215.824 360.489 215.984 361.257 215.984ZM374.203 207.056C375.067 205.712 376.587 205.04 378.763 205.04V207.896C378.507 207.848 378.275 207.824 378.067 207.824C376.899 207.824 375.987 208.168 375.331 208.856C374.675 209.528 374.347 210.504 374.347 211.784V218H371.347V205.184H374.203V207.056ZM389.481 217.304C389.129 217.592 388.697 217.808 388.185 217.952C387.689 218.096 387.161 218.168 386.601 218.168C385.193 218.168 384.105 217.8 383.337 217.064C382.569 216.328 382.185 215.256 382.185 213.848V207.68H380.073V205.28H382.185V202.352H385.185V205.28H388.617V207.68H385.185V213.776C385.185 214.4 385.337 214.88 385.641 215.216C385.945 215.536 386.385 215.696 386.961 215.696C387.633 215.696 388.193 215.52 388.641 215.168L389.481 217.304ZM403.575 211.664C403.575 211.872 403.559 212.168 403.527 212.552H393.471C393.647 213.496 394.103 214.248 394.839 214.808C395.591 215.352 396.519 215.624 397.623 215.624C399.031 215.624 400.191 215.16 401.103 214.232L402.711 216.08C402.135 216.768 401.407 217.288 400.527 217.64C399.647 217.992 398.655 218.168 397.551 218.168C396.143 218.168 394.903 217.888 393.831 217.328C392.759 216.768 391.927 215.992 391.335 215C390.759 213.992 390.471 212.856 390.471 211.592C390.471 210.344 390.751 209.224 391.311 208.232C391.887 207.224 392.679 206.44 393.687 205.88C394.695 205.32 395.831 205.04 397.095 205.04C398.343 205.04 399.455 205.32 400.431 205.88C401.423 206.424 402.191 207.2 402.735 208.208C403.295 209.2 403.575 210.352 403.575 211.664ZM397.095 207.44C396.135 207.44 395.319 207.728 394.647 208.304C393.991 208.864 393.591 209.616 393.447 210.56H400.719C400.591 209.632 400.199 208.88 399.543 208.304C398.887 207.728 398.071 207.44 397.095 207.44ZM419.008 200.192V218H416.128V216.344C415.632 216.952 415.016 217.408 414.28 217.712C413.56 218.016 412.76 218.168 411.88 218.168C410.648 218.168 409.536 217.896 408.544 217.352C407.568 216.808 406.8 216.04 406.24 215.048C405.68 214.04 405.4 212.888 405.4 211.592C405.4 210.296 405.68 209.152 406.24 208.16C406.8 207.168 407.568 206.4 408.544 205.856C409.536 205.312 410.648 205.04 411.88 205.04C412.728 205.04 413.504 205.184 414.208 205.472C414.912 205.76 415.512 206.192 416.008 206.768V200.192H419.008ZM412.24 215.6C412.96 215.6 413.608 215.44 414.184 215.12C414.76 214.784 415.216 214.312 415.552 213.704C415.888 213.096 416.056 212.392 416.056 211.592C416.056 210.792 415.888 210.088 415.552 209.48C415.216 208.872 414.76 208.408 414.184 208.088C413.608 207.752 412.96 207.584 412.24 207.584C411.52 207.584 410.872 207.752 410.296 208.088C409.72 208.408 409.264 208.872 408.928 209.48C408.592 210.088 408.424 210.792 408.424 211.592C408.424 212.392 408.592 213.096 408.928 213.704C409.264 214.312 409.72 214.784 410.296 215.12C410.872 215.44 411.52 215.6 412.24 215.6ZM436.838 205.04C438.454 205.04 439.75 205.512 440.726 206.456C441.702 207.4 442.19 208.8 442.19 210.656V218H439.19V211.04C439.19 209.92 438.926 209.08 438.398 208.52C437.87 207.944 437.118 207.656 436.142 207.656C435.038 207.656 434.166 207.992 433.526 208.664C432.886 209.32 432.566 210.272 432.566 211.52V218H429.566V205.184H432.422V206.84C432.918 206.248 433.542 205.8 434.294 205.496C435.046 205.192 435.894 205.04 436.838 205.04ZM451.873 218.168C450.577 218.168 449.409 217.888 448.369 217.328C447.329 216.768 446.513 215.992 445.921 215C445.345 213.992 445.057 212.856 445.057 211.592C445.057 210.328 445.345 209.2 445.921 208.208C446.513 207.216 447.329 206.44 448.369 205.88C449.409 205.32 450.577 205.04 451.873 205.04C453.185 205.04 454.361 205.32 455.401 205.88C456.441 206.44 457.249 207.216 457.825 208.208C458.417 209.2 458.713 210.328 458.713 211.592C458.713 212.856 458.417 213.992 457.825 215C457.249 215.992 456.441 216.768 455.401 217.328C454.361 217.888 453.185 218.168 451.873 218.168ZM451.873 215.6C452.977 215.6 453.889 215.232 454.609 214.496C455.329 213.76 455.689 212.792 455.689 211.592C455.689 210.392 455.329 209.424 454.609 208.688C453.889 207.952 452.977 207.584 451.873 207.584C450.769 207.584 449.857 207.952 449.137 208.688C448.433 209.424 448.081 210.392 448.081 211.592C448.081 212.792 448.433 213.76 449.137 214.496C449.857 215.232 450.769 215.6 451.873 215.6ZM481.222 205.184L476.494 218H473.614L470.302 209.168L466.942 218H464.062L459.358 205.184H462.19L465.574 214.64L469.102 205.184H471.622L475.078 214.688L478.558 205.184H481.222ZM482.9 201.2H486.452L485.852 212.432H483.476L482.9 201.2ZM484.676 218.168C484.116 218.168 483.652 217.992 483.284 217.64C482.916 217.272 482.732 216.824 482.732 216.296C482.732 215.768 482.916 215.328 483.284 214.976C483.652 214.624 484.116 214.448 484.676 214.448C485.22 214.448 485.668 214.624 486.02 214.976C486.388 215.328 486.572 215.768 486.572 216.296C486.572 216.824 486.388 217.272 486.02 217.64C485.668 217.992 485.22 218.168 484.676 218.168Z" fill="#141B41"/>
<path d="M452.377 101.255V175.309C452.377 176.233 452.01 177.12 451.358 177.774C450.706 178.428 449.822 178.795 448.9 178.795H321.1C320.178 178.795 319.294 178.428 318.642 177.774C317.99 177.12 317.623 176.233 317.623 175.309V101.255H452.377Z" fill="white"/>
<path d="M448.9 179.435H321.1C320.008 179.434 318.962 178.999 318.19 178.225C317.417 177.452 316.982 176.403 316.978 175.309V101.255C316.978 101.084 317.046 100.919 317.167 100.798C317.288 100.676 317.452 100.608 317.623 100.608H452.377C452.548 100.608 452.712 100.676 452.833 100.798C452.954 100.919 453.022 101.084 453.022 101.255V175.309C453.018 176.403 452.583 177.452 451.81 178.225C451.038 178.999 449.992 179.434 448.9 179.435ZM318.268 101.902V175.309C318.27 176.061 318.569 176.783 319.1 177.315C319.63 177.847 320.349 178.147 321.1 178.148H448.9C449.651 178.147 450.37 177.847 450.9 177.315C451.431 176.783 451.73 176.061 451.732 175.309V101.902H318.268Z" fill="#141B41"/>
<path d="M321.1 91.3782H448.907C449.829 91.3782 450.713 91.7455 451.365 92.3993C452.017 93.0531 452.383 93.9399 452.383 94.8645V101.261H317.63V94.8645C317.63 93.941 317.995 93.0552 318.646 92.4016C319.296 91.748 320.179 91.3799 321.1 91.3782Z" fill="#6F9CEB"/>
<path d="M452.377 101.902H317.63C317.459 101.902 317.295 101.834 317.174 101.712C317.053 101.591 316.985 101.427 316.985 101.255V94.8646C316.985 93.7695 317.418 92.7192 318.19 91.9443C318.961 91.1694 320.008 90.7332 321.1 90.7314H448.907C449.999 90.7332 451.045 91.1694 451.817 91.9443C452.588 92.7192 453.022 93.7695 453.022 94.8646V101.255C453.022 101.427 452.954 101.591 452.833 101.712C452.712 101.834 452.548 101.902 452.377 101.902ZM318.275 100.608H451.732V94.8646C451.732 94.1126 451.434 93.3914 450.905 92.859C450.375 92.3267 449.656 92.0268 448.907 92.0251H321.1C320.35 92.0268 319.631 92.3267 319.102 92.859C318.572 93.3914 318.275 94.1126 318.275 94.8646V100.608Z" fill="#141B41"/>
<path d="M440.206 178.789H329.801C330.661 177.012 331.618 175.287 332.671 173.614C338.18 164.669 345.882 157.288 355.042 152.173C364.202 147.059 374.516 144.382 385 144.398C385.819 144.398 386.638 144.398 387.451 144.449C398.509 144.895 409.243 148.318 418.526 154.361C427.809 160.403 435.298 168.841 440.206 178.789Z" fill="#6F9CEB"/>
<path d="M440.206 179.435H329.801C329.691 179.436 329.583 179.408 329.487 179.355C329.392 179.301 329.311 179.225 329.253 179.131C329.196 179.033 329.166 178.922 329.166 178.808C329.166 178.694 329.196 178.583 329.253 178.485C330.132 176.691 331.101 174.942 332.155 173.245C337.725 164.207 345.51 156.749 354.768 151.583C364.026 146.416 374.45 143.713 385.045 143.731C385.968 143.731 386.78 143.731 387.522 143.783C398.695 144.232 409.541 147.691 418.921 153.796C428.3 159.901 435.867 168.427 440.825 178.478C440.881 178.576 440.911 178.688 440.911 178.802C440.911 178.915 440.881 179.027 440.825 179.125C440.762 179.23 440.67 179.316 440.56 179.371C440.451 179.426 440.328 179.448 440.206 179.435ZM330.846 178.142H439.18C434.238 168.541 426.848 160.425 417.761 154.621C408.674 148.816 398.216 145.529 387.451 145.096C386.722 145.057 385.929 145.044 385.026 145.044C374.651 145.026 364.445 147.674 355.381 152.734C346.316 157.794 338.696 165.098 333.245 173.95C332.362 175.309 331.568 176.732 330.82 178.142H330.846Z" fill="#141B41"/>
<path d="M325.015 97.3483C325.852 97.3483 326.531 96.6677 326.531 95.8282C326.531 94.9888 325.852 94.3082 325.015 94.3082C324.178 94.3082 323.499 94.9888 323.499 95.8282C323.499 96.6677 324.178 97.3483 325.015 97.3483Z" fill="#F56132"/>
<path d="M325.015 94.3148C325.315 94.3148 325.608 94.4041 325.858 94.5714C326.107 94.7387 326.301 94.9765 326.416 95.2546C326.531 95.5327 326.56 95.8387 326.501 96.1337C326.442 96.4287 326.297 96.6995 326.085 96.9119C325.872 97.1242 325.601 97.2684 325.307 97.3264C325.012 97.3843 324.707 97.3532 324.43 97.2372C324.154 97.1212 323.917 96.9253 323.752 96.6745C323.586 96.4237 323.498 96.1292 323.499 95.8283C323.499 95.629 323.539 95.4316 323.615 95.2476C323.691 95.0635 323.803 94.8964 323.944 94.7558C324.084 94.6151 324.252 94.5038 324.435 94.4281C324.619 94.3524 324.816 94.3139 325.015 94.3148ZM325.015 93.0211C324.46 93.0198 323.916 93.1839 323.454 93.4926C322.991 93.8013 322.631 94.2407 322.418 94.755C322.204 95.2694 322.148 95.8357 322.256 96.3821C322.364 96.9285 322.632 97.4304 323.025 97.8243C323.417 98.2182 323.918 98.4863 324.463 98.5946C325.008 98.703 325.572 98.6467 326.085 98.433C326.598 98.2192 327.036 97.8576 327.344 97.3939C327.652 96.9302 327.816 96.3853 327.814 95.8283C327.813 95.0843 327.517 94.3713 326.993 93.8452C326.468 93.3191 325.757 93.0228 325.015 93.0211Z" fill="#141B41"/>
<path d="M331.975 97.3483C332.812 97.3483 333.49 96.6677 333.49 95.8282C333.49 94.9888 332.812 94.3082 331.975 94.3082C331.137 94.3082 330.459 94.9888 330.459 95.8282C330.459 96.6677 331.137 97.3483 331.975 97.3483Z" fill="#FFBC0E"/>
<path d="M331.975 94.3147C332.275 94.3147 332.568 94.4041 332.817 94.5714C333.067 94.7387 333.261 94.9765 333.376 95.2546C333.49 95.5327 333.52 95.8387 333.461 96.1337C333.402 96.4287 333.257 96.6995 333.044 96.9119C332.831 97.1242 332.561 97.2684 332.266 97.3263C331.972 97.3843 331.667 97.3532 331.39 97.2372C331.113 97.1212 330.877 96.9253 330.711 96.6745C330.545 96.4237 330.458 96.1292 330.459 95.8283C330.461 95.4263 330.621 95.0413 330.905 94.7577C331.189 94.474 331.574 94.3147 331.975 94.3147ZM331.975 93.0211C331.419 93.0211 330.877 93.1863 330.415 93.4958C329.954 93.8052 329.594 94.245 329.382 94.7595C329.17 95.274 329.114 95.8401 329.223 96.3861C329.332 96.932 329.6 97.4333 329.993 97.8266C330.386 98.2198 330.886 98.4873 331.431 98.5951C331.976 98.7029 332.54 98.6463 333.053 98.4324C333.565 98.2184 334.003 97.8568 334.311 97.3932C334.618 96.9297 334.782 96.385 334.78 95.8283C334.779 95.0832 334.482 94.3692 333.956 93.8429C333.43 93.3167 332.718 93.0211 331.975 93.0211Z" fill="#141B41"/>
<path d="M338.934 97.3483C339.771 97.3483 340.45 96.6677 340.45 95.8282C340.45 94.9888 339.771 94.3082 338.934 94.3082C338.097 94.3082 337.418 94.9888 337.418 95.8282C337.418 96.6677 338.097 97.3483 338.934 97.3483Z" fill="#B6CDF7"/>
<path d="M338.934 94.3147C339.234 94.3135 339.528 94.4017 339.779 94.5682C340.029 94.7347 340.224 94.9721 340.34 95.2501C340.455 95.5281 340.486 95.8342 340.427 96.1297C340.369 96.4252 340.225 96.6966 340.012 96.9096C339.8 97.1225 339.529 97.2674 339.235 97.3259C338.94 97.3843 338.635 97.3537 338.358 97.2378C338.08 97.122 337.844 96.9261 337.678 96.6752C337.511 96.4242 337.424 96.1295 337.425 95.8283C337.426 95.4274 337.586 95.0434 337.869 94.7599C338.151 94.4765 338.534 94.3164 338.934 94.3147ZM338.934 93.0211C338.379 93.0211 337.836 93.1863 337.375 93.4958C336.913 93.8052 336.553 94.245 336.341 94.7595C336.129 95.274 336.074 95.8401 336.183 96.3861C336.292 96.932 336.559 97.4333 336.952 97.8266C337.345 98.2198 337.846 98.4873 338.391 98.5951C338.935 98.7029 339.5 98.6463 340.012 98.4324C340.525 98.2184 340.963 97.8568 341.27 97.3932C341.578 96.9297 341.741 96.385 341.74 95.8283C341.738 95.0832 341.442 94.3692 340.916 93.8429C340.39 93.3167 339.677 93.0211 338.934 93.0211Z" fill="#141B41"/>
<path d="M366.295 149.973C366.248 151.927 365.806 153.852 364.997 155.631C364.188 157.409 363.028 159.005 361.587 160.322C359.084 162.579 355.723 164.035 354.085 166.984C352.15 170.49 353.131 175.283 351.718 178.808H337.089C335.54 177.526 334.19 176.02 333.084 174.338C332.936 174.099 332.8 173.86 332.671 173.627C340.361 161.196 352.193 151.899 366.069 147.386C366.236 148.238 366.312 149.105 366.295 149.973Z" fill="#B6CDF7"/>
<path d="M351.712 179.435H337.089C336.93 179.437 336.777 179.379 336.657 179.274C335.061 177.947 333.67 176.391 332.529 174.656C332.383 174.41 332.241 174.164 332.104 173.918C332.047 173.82 332.017 173.708 332.017 173.595C332.017 173.481 332.047 173.37 332.104 173.271C339.871 160.707 351.828 151.311 365.85 146.752C365.937 146.723 366.029 146.714 366.121 146.724C366.212 146.734 366.3 146.763 366.379 146.81C366.457 146.857 366.524 146.92 366.577 146.994C366.629 147.069 366.665 147.154 366.682 147.244C366.856 148.147 366.934 149.066 366.914 149.986C366.858 152.024 366.393 154.031 365.547 155.885C364.702 157.74 363.493 159.405 361.993 160.781C361.104 161.558 360.171 162.284 359.2 162.955C357.381 164.248 355.659 165.464 354.685 167.275C353.711 169.086 353.511 171.331 353.337 173.511C353.283 175.389 352.95 177.248 352.35 179.028C352.3 179.155 352.211 179.262 352.097 179.336C351.982 179.409 351.847 179.444 351.712 179.435ZM337.335 178.142H351.26C351.695 176.599 351.946 175.009 352.008 173.407C352.195 171.092 352.382 168.692 353.511 166.648C354.64 164.604 356.581 163.213 358.445 161.9C359.385 161.259 360.288 160.563 361.148 159.818C362.521 158.562 363.629 157.042 364.404 155.349C365.18 153.656 365.608 151.823 365.663 149.96C365.675 149.379 365.645 148.797 365.573 148.22C352.251 152.717 340.886 161.69 333.4 173.621C333.465 173.743 333.536 173.862 333.613 173.976C334.642 175.541 335.896 176.945 337.335 178.142Z" fill="#141B41"/>
<path d="M440.206 178.789H427.847C426.853 177.47 425.698 176.282 424.409 175.251C423.003 174.177 421.236 173.194 420.881 171.46C420.185 168.097 420.804 167.321 417.34 166.357C415.344 165.718 413.232 165.53 411.155 165.807C408.62 166.234 406.82 167.159 404.331 165.587C403.289 164.913 402.448 163.969 401.895 162.856C401.343 161.743 401.099 160.501 401.189 159.261C401.415 156.616 403.163 153.977 402.228 151.5C401.905 150.652 401.273 149.876 401.267 148.964C401.222 144.721 410.149 149.747 411.735 150.516C424.093 156.512 434.109 166.461 440.206 178.795V178.789Z" fill="#B6CDF7"/>
<path d="M440.206 179.435H427.847C427.749 179.436 427.653 179.414 427.564 179.372C427.476 179.329 427.399 179.267 427.338 179.19C426.377 177.913 425.261 176.761 424.016 175.762C423.79 175.587 423.552 175.419 423.307 175.244C422.017 174.326 420.591 173.304 420.249 171.59C420.12 170.943 420.03 170.425 419.959 169.96C419.649 168.019 419.598 167.657 417.166 166.978C415.263 166.364 413.247 166.182 411.264 166.447C410.768 166.525 410.31 166.629 409.865 166.726C407.981 167.14 406.208 167.534 403.982 166.13C402.843 165.391 401.922 164.358 401.318 163.139C400.713 161.92 400.446 160.561 400.545 159.203C400.668 158.176 400.895 157.164 401.222 156.182C401.693 154.598 402.138 153.097 401.622 151.726C401.516 151.46 401.396 151.201 401.26 150.95C400.889 150.35 400.667 149.668 400.615 148.964C400.584 148.585 400.656 148.204 400.823 147.863C400.99 147.521 401.246 147.231 401.564 147.024C403.46 145.853 407.594 147.67 411.387 149.611L412.032 149.928C424.516 155.985 434.634 166.037 440.792 178.498C440.849 178.596 440.879 178.707 440.879 178.821C440.879 178.935 440.849 179.046 440.792 179.144C440.729 179.241 440.642 179.319 440.539 179.37C440.435 179.421 440.32 179.444 440.206 179.435ZM428.157 178.142H439.122C433.051 166.365 423.342 156.875 411.445 151.092L410.8 150.762C406.137 148.369 403.26 147.47 402.247 148.097C402.151 148.156 401.899 148.311 401.905 148.951C401.959 149.454 402.129 149.937 402.402 150.361C402.562 150.653 402.702 150.956 402.821 151.267C403.466 153.045 402.963 154.831 402.454 156.551C402.149 157.448 401.933 158.374 401.809 159.313C401.729 160.435 401.952 161.558 402.452 162.565C402.952 163.571 403.712 164.425 404.653 165.037C406.427 166.156 407.743 165.865 409.568 165.464C410.032 165.361 410.516 165.257 411.026 165.167C413.191 164.876 415.393 165.068 417.476 165.729C420.546 166.59 420.83 167.437 421.197 169.753C421.268 170.205 421.346 170.723 421.475 171.324C421.72 172.527 422.836 173.336 424.022 174.196C424.274 174.377 424.519 174.552 424.758 174.733C426.024 175.727 427.166 176.872 428.157 178.142Z" fill="#141B41"/>
<path d="M369.159 166.292C368.998 161.764 364.592 165.134 363.457 166.939C362.58 168.317 359.535 170.108 361.425 171.771C361.931 172.166 362.536 172.414 363.173 172.488C363.809 172.562 364.454 172.459 365.037 172.191C366.199 171.635 367.185 170.769 367.888 169.688C368.672 168.726 369.118 167.533 369.159 166.292Z" fill="#B6CDF7"/>
<path d="M363.502 173.142C362.586 173.16 361.696 172.84 361 172.243C360.758 172.055 360.56 171.817 360.418 171.546C360.275 171.275 360.192 170.977 360.174 170.671C360.135 169.526 361.103 168.537 361.961 167.657C362.312 167.329 362.629 166.967 362.909 166.577C363.773 165.225 366.347 162.961 368.191 163.466C368.888 163.653 369.733 164.294 369.804 166.266C369.776 167.649 369.285 168.981 368.411 170.05C367.646 171.234 366.564 172.178 365.289 172.773C364.723 173.014 364.116 173.139 363.502 173.142ZM367.585 164.682C366.514 164.682 364.657 166.202 363.973 167.269C363.643 167.735 363.27 168.168 362.857 168.562C362.212 169.209 361.419 170.031 361.438 170.619C361.452 170.749 361.494 170.874 361.561 170.985C361.628 171.097 361.718 171.193 361.825 171.266C362.241 171.58 362.735 171.775 363.253 171.829C363.771 171.884 364.294 171.797 364.766 171.577C365.82 171.069 366.713 170.279 367.346 169.293C368.046 168.451 368.449 167.401 368.494 166.305C368.494 165.658 368.34 164.843 367.849 164.707C367.763 164.687 367.674 164.679 367.585 164.682Z" fill="#141B41"/>
<path d="M378.724 137.729C378.724 137.729 376.234 142.392 375.938 150.083C375.641 157.774 383.22 178.045 383.22 178.045H386.845C386.845 178.045 392.005 164.85 393.598 154.378C395.191 143.906 391.282 137.729 391.282 137.729H378.724Z" fill="#F56132"/>
<path d="M391.276 137.729C391.276 137.729 395.204 143.828 393.598 154.378C391.992 164.927 386.845 178.045 386.845 178.045H383.22C383.22 178.045 375.647 157.774 375.97 150.083C376.292 142.392 378.756 137.729 378.756 137.729H391.308H391.276ZM391.308 136.435H378.724C378.495 136.432 378.268 136.49 378.069 136.604C377.869 136.718 377.704 136.883 377.589 137.082C377.479 137.283 374.951 142.101 374.648 150.018C374.345 157.935 381.698 177.65 382.014 178.478C382.107 178.724 382.272 178.935 382.487 179.084C382.703 179.233 382.958 179.313 383.22 179.313H386.845C387.104 179.312 387.357 179.234 387.571 179.087C387.785 178.941 387.95 178.733 388.044 178.491C388.257 177.948 393.275 165.037 394.875 154.559C396.533 143.654 392.534 137.283 392.366 137.017C392.249 136.834 392.087 136.684 391.897 136.58C391.706 136.476 391.493 136.422 391.276 136.422L391.308 136.435Z" fill="#141B41"/>
<path d="M391.276 129.139H378.724V137.729H391.276V129.139Z" fill="#141B41"/>
<path d="M391.282 138.376H378.724C378.553 138.376 378.389 138.308 378.268 138.186C378.147 138.065 378.079 137.9 378.079 137.729V129.139C378.079 128.968 378.147 128.803 378.268 128.682C378.389 128.561 378.553 128.492 378.724 128.492H391.282C391.453 128.492 391.617 128.561 391.738 128.682C391.859 128.803 391.927 128.968 391.927 129.139V137.729C391.927 137.9 391.859 138.065 391.738 138.186C391.617 138.308 391.453 138.376 391.282 138.376ZM379.369 137.082H390.637V129.786H379.369V137.082Z" fill="#141B41"/>
<path d="M377.06 116.623L366.359 126.94L369.468 144.223L375.151 129.915L378.498 128.615L377.06 116.623Z" fill="#6F9CEB"/>
<path d="M369.468 144.87H369.404C369.265 144.855 369.134 144.795 369.032 144.7C368.929 144.604 368.861 144.478 368.836 144.339L365.727 127.063C365.708 126.958 365.715 126.85 365.748 126.748C365.781 126.647 365.838 126.555 365.914 126.481L376.609 116.132C376.695 116.048 376.803 115.989 376.92 115.964C377.038 115.938 377.16 115.946 377.274 115.986C377.387 116.027 377.487 116.098 377.562 116.192C377.637 116.287 377.685 116.4 377.699 116.52L379.143 128.512C379.16 128.655 379.128 128.799 379.053 128.923C378.979 129.046 378.865 129.14 378.731 129.191L375.641 130.394L370.068 144.436C370.025 144.562 369.944 144.67 369.836 144.748C369.729 144.825 369.601 144.868 369.468 144.87ZM367.056 127.166L369.707 141.881L374.551 129.676C374.583 129.594 374.632 129.52 374.694 129.458C374.756 129.395 374.831 129.346 374.912 129.314L377.802 128.188L376.57 117.988L367.056 127.166Z" fill="#141B41"/>
<path d="M392.946 116.623L403.647 126.94L400.532 144.223L394.856 129.915L391.508 128.615L392.946 116.623Z" fill="#6F9CEB"/>
<path d="M400.532 144.87C400.404 144.869 400.279 144.829 400.173 144.757C400.067 144.684 399.986 144.582 399.938 144.462L394.359 130.42L391.269 129.217C391.136 129.165 391.024 129.07 390.95 128.947C390.877 128.824 390.846 128.68 390.863 128.538L392.308 116.546C392.322 116.426 392.369 116.312 392.444 116.218C392.519 116.124 392.619 116.052 392.733 116.012C392.846 115.972 392.968 115.964 393.086 115.99C393.204 116.015 393.312 116.074 393.398 116.158L404.092 126.507C404.169 126.581 404.226 126.673 404.258 126.774C404.291 126.876 404.298 126.984 404.279 127.089L401.17 144.365C401.145 144.504 401.076 144.632 400.972 144.727C400.869 144.823 400.736 144.882 400.596 144.896L400.532 144.87ZM392.205 128.188L395.088 129.314C395.171 129.346 395.246 129.394 395.309 129.457C395.373 129.519 395.422 129.594 395.455 129.676L400.299 141.881L402.95 127.166L393.437 117.988L392.205 128.188Z" fill="#141B41"/>
<path d="M394.333 132.735C396.346 122.859 397.558 112.16 397.558 105.052C397.558 89.8323 384.981 79.4639 384.981 79.4639C384.981 79.4639 372.41 89.8129 372.41 105.052C372.41 112.167 373.642 122.859 375.635 132.735H394.333Z" fill="#6F9CEB"/>
<path d="M394.333 133.382H375.673C375.522 133.385 375.375 133.335 375.257 133.241C375.14 133.146 375.058 133.013 375.028 132.865C373.022 123.02 371.771 112.367 371.771 105.052C371.771 89.703 384.452 79.0694 384.581 78.9594C384.696 78.8643 384.841 78.8123 384.99 78.8123C385.14 78.8123 385.284 78.8643 385.4 78.9594C385.529 79.0694 398.21 89.703 398.21 105.052C398.21 112.367 396.958 123.027 394.952 132.865C394.923 133.009 394.846 133.138 394.733 133.233C394.621 133.327 394.48 133.379 394.333 133.382ZM376.202 132.089H393.804C395.707 122.606 396.932 112.037 396.932 105.052C396.932 91.8698 387.148 82.2646 385 80.3242C382.859 82.2646 373.074 91.8698 373.074 105.052C373.074 112.05 374.299 122.606 376.202 132.089Z" fill="#141B41"/>
<path d="M385 108.868C388.466 108.868 391.276 106.05 391.276 102.575C391.276 99.0988 388.466 96.2811 385 96.2811C381.534 96.2811 378.724 99.0988 378.724 102.575C378.724 106.05 381.534 108.868 385 108.868Z" fill="white"/>
<path d="M385 109.515C383.631 109.514 382.294 109.106 381.157 108.342C380.019 107.579 379.133 106.494 378.611 105.226C378.088 103.958 377.952 102.563 378.219 101.217C378.487 99.8708 379.147 98.6347 380.115 97.6648C381.083 96.6948 382.316 96.0344 383.659 95.7672C385.001 95.4999 386.392 95.6377 387.656 96.1632C388.921 96.6887 390.001 97.5782 390.761 98.7194C391.522 99.8606 391.927 101.202 391.927 102.575C391.924 104.415 391.193 106.18 389.894 107.481C388.596 108.782 386.836 109.513 385 109.515ZM385 96.9279C383.887 96.9292 382.799 97.2614 381.873 97.8827C380.948 98.5039 380.228 99.3863 379.802 100.418C379.377 101.45 379.267 102.585 379.485 103.68C379.703 104.775 380.239 105.781 381.027 106.57C381.815 107.359 382.818 107.896 383.91 108.113C385.002 108.331 386.134 108.218 387.163 107.791C388.191 107.363 389.07 106.64 389.689 105.711C390.307 104.783 390.637 103.691 390.637 102.575C390.636 101.076 390.041 99.6402 388.984 98.5814C387.927 97.5226 386.494 96.9279 385 96.9279Z" fill="#141B41"/>
<path d="M383.22 137.91C383.22 137.91 381.182 141.144 381.195 146.778C381.195 151.881 384.903 167.275 384.903 167.275C384.903 167.275 389.289 148.628 388.838 144.404C388.386 140.18 386.754 137.936 386.754 137.936L383.22 137.91Z" fill="#FFBC0E"/>
<path d="M384.903 167.922C384.755 167.926 384.61 167.879 384.492 167.788C384.375 167.697 384.292 167.569 384.258 167.424C384.11 166.777 380.543 151.901 380.53 146.778C380.53 141.002 382.568 137.722 382.652 137.561C382.711 137.469 382.792 137.393 382.888 137.341C382.984 137.289 383.091 137.262 383.2 137.263H386.735C386.837 137.263 386.937 137.287 387.028 137.333C387.119 137.379 387.197 137.446 387.257 137.528C387.328 137.632 388.999 139.986 389.457 144.333C389.915 148.679 385.69 166.654 385.516 167.424C385.482 167.569 385.399 167.697 385.282 167.788C385.164 167.879 385.019 167.926 384.871 167.922H384.903ZM383.613 138.557C382.396 141.122 381.795 143.938 381.859 146.778C381.859 150.452 383.865 159.746 384.916 164.391C386.103 159.074 388.548 147.573 388.219 144.469C388.037 142.394 387.424 140.38 386.419 138.557H383.613Z" fill="#141B41"/>
<path d="M356.381 132.755C356.251 132.755 356.125 132.715 356.018 132.641C355.911 132.567 355.828 132.463 355.781 132.341L351.776 121.992C351.741 121.912 351.722 121.826 351.721 121.739C351.72 121.651 351.736 121.565 351.769 121.484C351.802 121.403 351.851 121.33 351.913 121.269C351.975 121.208 352.049 121.16 352.13 121.128C352.211 121.096 352.298 121.081 352.385 121.083C352.472 121.086 352.557 121.106 352.636 121.143C352.715 121.179 352.786 121.232 352.845 121.296C352.903 121.361 352.947 121.437 352.976 121.52L356.988 131.869C357.049 132.028 357.044 132.206 356.975 132.362C356.907 132.518 356.779 132.641 356.62 132.703C356.544 132.736 356.463 132.753 356.381 132.755Z" fill="#DFEAEF"/>
<path d="M345.339 138.79C345.252 138.789 345.165 138.77 345.086 138.734C345.006 138.698 344.934 138.647 344.875 138.583L332.484 125.401C332.424 125.34 332.376 125.269 332.343 125.19C332.31 125.111 332.293 125.027 332.293 124.941C332.293 124.856 332.31 124.771 332.343 124.693C332.376 124.614 332.424 124.542 332.484 124.482C332.605 124.362 332.768 124.294 332.939 124.294C333.109 124.294 333.273 124.362 333.394 124.482L345.784 137.671C345.904 137.792 345.972 137.956 345.972 138.127C345.972 138.298 345.904 138.462 345.784 138.583C345.669 138.708 345.509 138.782 345.339 138.79Z" fill="#DFEAEF"/>
<path d="M334.877 149.132C334.776 149.132 334.677 149.107 334.587 149.061L326.202 144.799C326.126 144.76 326.059 144.707 326.003 144.642C325.948 144.577 325.906 144.502 325.88 144.421C325.853 144.34 325.843 144.254 325.85 144.169C325.856 144.084 325.879 144.001 325.918 143.925C325.957 143.849 326.01 143.782 326.074 143.726C326.139 143.671 326.214 143.629 326.295 143.602C326.375 143.576 326.461 143.566 326.546 143.572C326.63 143.579 326.713 143.602 326.789 143.641L335.174 147.91C335.303 147.976 335.406 148.084 335.466 148.216C335.526 148.348 335.541 148.497 335.506 148.638C335.472 148.78 335.391 148.905 335.277 148.995C335.163 149.084 335.022 149.133 334.877 149.132Z" fill="#DFEAEF"/>
<path d="M413.586 132.755C413.507 132.756 413.428 132.74 413.354 132.71C413.195 132.647 413.068 132.525 412.999 132.368C412.93 132.212 412.925 132.035 412.987 131.875L416.998 121.526C417.027 121.444 417.071 121.368 417.13 121.303C417.188 121.238 417.259 121.186 417.338 121.149C417.417 121.112 417.502 121.092 417.589 121.09C417.676 121.087 417.763 121.102 417.844 121.134C417.925 121.166 417.999 121.214 418.061 121.275C418.123 121.336 418.172 121.41 418.205 121.49C418.238 121.571 418.255 121.658 418.253 121.745C418.252 121.832 418.233 121.919 418.198 121.998L414.193 132.347C414.145 132.469 414.061 132.573 413.953 132.645C413.844 132.718 413.717 132.756 413.586 132.755Z" fill="#DFEAEF"/>
<path d="M424.635 138.79C424.469 138.789 424.31 138.724 424.19 138.609C424.07 138.487 424.003 138.323 424.003 138.153C424.003 137.982 424.07 137.818 424.19 137.697L436.581 124.508C436.702 124.388 436.865 124.32 437.035 124.32C437.206 124.32 437.369 124.388 437.49 124.508C437.551 124.568 437.599 124.64 437.631 124.719C437.664 124.797 437.681 124.882 437.681 124.967C437.681 125.053 437.664 125.137 437.631 125.216C437.599 125.295 437.551 125.366 437.49 125.427L425.1 138.609C425.038 138.668 424.965 138.715 424.886 138.746C424.806 138.777 424.721 138.792 424.635 138.79Z" fill="#DFEAEF"/>
<path d="M435.097 149.132C434.978 149.132 434.861 149.098 434.76 149.036C434.659 148.973 434.577 148.883 434.523 148.776C434.446 148.624 434.432 148.448 434.484 148.286C434.536 148.124 434.65 147.988 434.8 147.91L443.185 143.641C443.261 143.602 443.344 143.579 443.429 143.572C443.513 143.566 443.599 143.576 443.68 143.602C443.76 143.629 443.835 143.671 443.9 143.726C443.965 143.782 444.018 143.849 444.056 143.925C444.095 144.001 444.118 144.084 444.125 144.169C444.131 144.254 444.121 144.34 444.095 144.421C444.068 144.502 444.026 144.577 443.971 144.642C443.916 144.707 443.848 144.76 443.772 144.799L435.42 149.061C435.32 149.112 435.209 149.137 435.097 149.132Z" fill="#DFEAEF"/>
<g filter="url(#filter0_d)">
<rect x="77" y="268" width="616" height="40" rx="4" fill="white"/>
<rect x="77.5" y="268.5" width="615" height="39" rx="3.5" stroke="#B6CDF7"/>
</g>
<g filter="url(#filter1_d)">
<rect x="77" y="372" width="616" height="41" rx="4" fill="white"/>
<rect x="77.5" y="372.5" width="615" height="40" rx="3.5" stroke="#B6CDF7"/>
</g>
<g filter="url(#filter2_d)">
<rect x="77" y="320" width="616" height="40" rx="4" fill="white"/>
<rect x="77.5" y="320.5" width="615" height="39" rx="3.5" stroke="#B6CDF7"/>
</g>
<g filter="url(#filter3_d)">
<rect x="77" y="425" width="616" height="40" rx="4" fill="white"/>
<rect x="77.5" y="425.5" width="615" height="39" rx="3.5" stroke="#B6CDF7"/>
</g>
<g filter="url(#filter4_d)">
<rect x="77" y="477" width="616" height="41" rx="4" fill="white"/>
<rect x="77.5" y="477.5" width="615" height="40" rx="3.5" stroke="#B6CDF7"/>
</g>
<rect x="86.632" y="279.704" width="15.12" height="15.12" rx="7.56" fill="#6F9CEB"/>
<path d="M91.5862 287.382L93.4227 289.347L96.4618 285.859" stroke="white" stroke-width="2" stroke-linecap="round"/>
<rect x="87.132" y="385.036" width="14.12" height="14.12" rx="7.06" stroke="#ECE8EF" stroke-linecap="round"/>
<rect x="86.632" y="332.12" width="15.12" height="15.12" rx="7.56" fill="#6F9CEB"/>
<path d="M91.5862 339.799L93.4227 341.763L96.4618 338.276" stroke="white" stroke-width="2" stroke-linecap="round"/>
<rect x="87.132" y="437.452" width="14.12" height="14.12" rx="7.06" stroke="#ECE8EF" stroke-linecap="round"/>
<rect x="87.132" y="489.868" width="14.12" height="14.12" rx="7.06" stroke="#ECE8EF" stroke-linecap="round"/>
<rect x="77" y="244" width="616" height="4" rx="2" fill="white"/>
<rect x="77" y="244" width="86" height="4" rx="2" fill="#6F9CEB"/>
<rect x="113" y="283" width="196" height="13" rx="6.5" fill="#EDEFF3"/>
<rect x="113" y="388" width="117" height="13" rx="6.5" fill="#EDEFF3"/>
<rect x="113" y="334" width="227" height="13" rx="6.5" fill="#EDEFF3"/>
<rect x="113" y="439" width="151" height="13" rx="6.5" fill="#EDEFF3"/>
<rect x="113" y="491" width="185" height="13" rx="6.5" fill="#EDEFF3"/>
</g>
<defs>
<filter id="filter0_d" x="75" y="268" width="620" height="44" filterUnits="userSpaceOnUse" color-interpolation-filters="sRGB">
<feFlood flood-opacity="0" result="BackgroundImageFix"/>
<feColorMatrix in="SourceAlpha" type="matrix" values="0 0 0 0 0 0 0 0 0 0 0 0 0 0 0 0 0 0 127 0"/>
<feOffset dy="2"/>
<feGaussianBlur stdDeviation="1"/>
<feColorMatrix type="matrix" values="0 0 0 0 0.2 0 0 0 0 0.215686 0 0 0 0 0.270588 0 0 0 0.08 0"/>
<feBlend mode="normal" in2="BackgroundImageFix" result="effect1_dropShadow"/>
<feBlend mode="normal" in="SourceGraphic" in2="effect1_dropShadow" result="shape"/>
</filter>
<filter id="filter1_d" x="75" y="372" width="620" height="45" filterUnits="userSpaceOnUse" color-interpolation-filters="sRGB">
<feFlood flood-opacity="0" result="BackgroundImageFix"/>
<feColorMatrix in="SourceAlpha" type="matrix" values="0 0 0 0 0 0 0 0 0 0 0 0 0 0 0 0 0 0 127 0"/>
<feOffset dy="2"/>
<feGaussianBlur stdDeviation="1"/>
<feColorMatrix type="matrix" values="0 0 0 0 0.2 0 0 0 0 0.215686 0 0 0 0 0.270588 0 0 0 0.08 0"/>
<feBlend mode="normal" in2="BackgroundImageFix" result="effect1_dropShadow"/>
<feBlend mode="normal" in="SourceGraphic" in2="effect1_dropShadow" result="shape"/>
</filter>
<filter id="filter2_d" x="75" y="320" width="620" height="44" filterUnits="userSpaceOnUse" color-interpolation-filters="sRGB">
<feFlood flood-opacity="0" result="BackgroundImageFix"/>
<feColorMatrix in="SourceAlpha" type="matrix" values="0 0 0 0 0 0 0 0 0 0 0 0 0 0 0 0 0 0 127 0"/>
<feOffset dy="2"/>
<feGaussianBlur stdDeviation="1"/>
<feColorMatrix type="matrix" values="0 0 0 0 0.2 0 0 0 0 0.215686 0 0 0 0 0.270588 0 0 0 0.08 0"/>
<feBlend mode="normal" in2="BackgroundImageFix" result="effect1_dropShadow"/>
<feBlend mode="normal" in="SourceGraphic" in2="effect1_dropShadow" result="shape"/>
</filter>
<filter id="filter3_d" x="75" y="425" width="620" height="44" filterUnits="userSpaceOnUse" color-interpolation-filters="sRGB">
<feFlood flood-opacity="0" result="BackgroundImageFix"/>
<feColorMatrix in="SourceAlpha" type="matrix" values="0 0 0 0 0 0 0 0 0 0 0 0 0 0 0 0 0 0 127 0"/>
<feOffset dy="2"/>
<feGaussianBlur stdDeviation="1"/>
<feColorMatrix type="matrix" values="0 0 0 0 0.2 0 0 0 0 0.215686 0 0 0 0 0.270588 0 0 0 0.08 0"/>
<feBlend mode="normal" in2="BackgroundImageFix" result="effect1_dropShadow"/>
<feBlend mode="normal" in="SourceGraphic" in2="effect1_dropShadow" result="shape"/>
</filter>
<filter id="filter4_d" x="75" y="477" width="620" height="45" filterUnits="userSpaceOnUse" color-interpolation-filters="sRGB">
<feFlood flood-opacity="0" result="BackgroundImageFix"/>
<feColorMatrix in="SourceAlpha" type="matrix" values="0 0 0 0 0 0 0 0 0 0 0 0 0 0 0 0 0 0 127 0"/>
<feOffset dy="2"/>
<feGaussianBlur stdDeviation="1"/>
<feColorMatrix type="matrix" values="0 0 0 0 0.2 0 0 0 0 0.215686 0 0 0 0 0.270588 0 0 0 0.08 0"/>
<feBlend mode="normal" in2="BackgroundImageFix" result="effect1_dropShadow"/>
<feBlend mode="normal" in="SourceGraphic" in2="effect1_dropShadow" result="shape"/>
</filter>
<clipPath id="clip0">
<rect width="788" height="545" fill="white" transform="translate(-5)"/>
</clipPath>
</defs>
</svg>
