<svg width="915" height="444" viewBox="0 0 915 444" fill="none" xmlns="http://www.w3.org/2000/svg">
<path d="M800.803 168.463C800.803 168.463 830.126 138.879 843.075 151.897C850.794 159.659 831.981 167.853 836.543 172.453C840.644 176.597 850.57 172.958 853.866 168.398C863.985 154.409 881.066 165.537 870.349 175.299C862.755 182.231 865.969 187.749 881.377 191.671C893.446 194.748 896.154 216.323 875.84 207.188C853.154 196.983 856.681 206.304 859.857 212.961C864.492 222.687 856.547 232.017 845.678 219.157C834.808 206.296 838.926 198.775 829.134 199.297C819.342 199.819 831.823 217.727 825.419 221.544C819.016 225.36 806.501 215.239 802.527 189.573L800.803 168.463Z" fill="#D4D8E4"/>
<path d="M863.649 193.396C863.649 193.396 818.673 171.188 781.841 163.775L780.664 168.909C780.664 168.909 828.066 176.816 863.649 193.396Z" fill="#FAFAFA"/>
<path opacity="0.2" d="M155.3 274.562C167.422 181.682 220.878 119.632 334.22 134.424C447.561 149.217 527.111 214.247 513.185 320.951C502.589 402.139 404.057 431.741 290.715 416.949C177.373 402.156 155.953 327.096 155.3 274.562Z" fill="#9758F9"/>
<path opacity="0.2" d="M192.71 148.263C203.821 63.1315 249.201 5.78573 343.897 18.1448C438.593 30.5038 504.488 89.1935 491.724 186.995C482.012 261.41 399.247 289.528 304.551 277.169C209.855 264.81 192.71 196.336 192.71 148.263Z" fill="#9758F9"/>
<path opacity="0.2" d="M799.802 183.063C799.802 277.702 758.298 346.858 652.819 346.858C547.34 346.858 466.782 292.107 466.782 183.383C466.782 100.658 553.408 58.1171 658.887 58.1171C764.366 58.1171 792.93 130.517 799.802 183.063Z" fill="#9758F9"/>
<path d="M776.776 157.325C776.776 157.325 824.814 182.016 833.133 152.854C838.089 135.468 822.036 138.73 824.955 128.437C827.574 119.171 840.353 115.342 848.761 119.302C874.561 131.439 890.363 101.709 867.074 96.1581C850.559 92.2054 850.796 81.6611 869.936 63.6842C884.924 49.595 871.604 16.2463 849.537 45.6781C824.896 78.5507 824.261 64.1719 823.533 52.0119C822.465 34.2498 803.528 27.1105 798.089 54.3829C792.65 81.6554 806.715 83.9088 792.144 90.9771C777.573 98.0454 777.068 77.4192 761.838 82.0811C750.07 85.676 755.565 109.842 770.332 150.126L776.776 157.325Z" fill="#9758F9"/>
<path d="M153.818 305.821C153.818 305.821 115.716 267.539 98.8227 292.723C88.7542 307.739 105.032 309.577 99.0854 318.472C93.7414 326.482 80.404 326.19 73.6234 319.835C52.8135 300.344 28.6259 323.764 49.0751 336.216C63.57 345.061 60.0983 355.02 36.354 366.231C17.7556 375.021 20.1611 410.851 50.2176 389.643C83.7826 365.953 79.9598 379.829 76.9089 391.623C72.457 408.851 88.2761 421.474 101.847 397.201C115.418 372.927 102.731 366.453 118.77 364.214C134.81 361.976 128.939 381.755 144.865 382.009C157.168 382.212 159.38 357.527 157.733 314.654L153.818 305.821Z" fill="#BFA6F4"/>
<path d="M847.694 71.0745C847.694 71.0745 800.421 139.102 753.102 179.241L747.308 172.769C747.318 172.76 809.513 123.456 847.694 71.0745Z" fill="#D7D0F1"/>
<path d="M59.79 366.048C59.79 366.048 125.711 315.879 183.09 292.259L186.609 300.2C186.598 300.205 112.244 327.966 59.79 366.048Z" fill="#9758F9"/>
<path opacity="0.1" d="M236.158 218.179C236.158 259.013 207.834 290.585 169.336 290.585C130.838 290.585 99.6294 265.09 99.6294 218.179C99.6294 182.486 130.838 169.739 169.336 169.739C207.834 169.739 236.158 177.346 236.158 218.179Z" fill="#BFA6F4"/>
<path opacity="0.1" d="M701.095 329.237C701.095 365.706 675.833 393.905 641.497 393.905C607.161 393.905 579.326 371.134 579.326 329.237C579.326 297.358 607.161 285.973 641.497 285.973C675.833 285.973 701.095 292.767 701.095 329.237Z" fill="#BFA6F4"/>
<ellipse opacity="0.5" cx="762.902" cy="404.975" rx="46.1246" ry="14.7599" fill="#4D17B2"/>
<path d="M49.7621 236.015C49.7621 236.015 95.6401 225.486 131.195 241.145L120.944 250.908L140.097 246.431C140.097 246.431 171.558 265.925 189.83 291.326C189.83 291.326 131.548 295.635 78.0618 262.641L76.1851 249.94L70.4425 257.595L49.7621 236.015Z" fill="#FAFAFA"/>
<g filter="url(#filter0_d)">
<g filter="url(#filter1_d)">
<rect x="179.886" y="136.529" width="271.213" height="205.716" rx="4" fill="white"/>
</g>
<circle cx="325.312" cy="317.009" r="2.04433" fill="#D4D8E4"/>
<circle cx="315.429" cy="317.009" r="2.04433" fill="#D4D8E4"/>
<circle cx="305.545" cy="317.009" r="2.04433" fill="#D4D8E4"/>
<circle cx="435.352" cy="152.146" r="5.46972" fill="#D4D8E4"/>
<rect x="276.748" y="275.826" width="77.4877" height="21.8789" rx="4" fill="#59C3C3"/>
<rect x="229.701" y="217.708" width="170.661" height="7.37995" rx="3.68997" fill="#D4D8E4"/>
<rect x="250.918" y="233.391" width="128.227" height="7.37995" rx="3.68997" fill="#D4D8E4"/>
<rect x="236.159" y="248.151" width="158.669" height="7.37995" rx="3.68997" fill="#D4D8E4"/>
<rect x="249.996" y="178.964" width="130.362" height="14.5859" rx="7.29296" fill="#EDEFF3"/>
</g>
<rect x="164.204" y="86.7145" width="36.4648" height="146.56" rx="4" fill="#6310E5"/>
<circle cx="182.436" cy="111.258" r="7.7137" fill="#9758F9"/>
<circle cx="182.436" cy="175.773" r="7.7137" fill="#9758F9"/>
<circle cx="182.436" cy="143.515" r="7.7137" fill="#9758F9"/>
<circle cx="182.436" cy="208.03" r="7.7137" fill="#9758F9"/>
<g filter="url(#filter2_d)">
<path d="M278.593 51.9697C278.593 49.7606 280.384 47.9697 282.593 47.9697H632.521C634.73 47.9697 636.521 49.7606 636.521 51.9697V117.769C636.521 119.978 634.73 121.769 632.521 121.769H278.593V51.9697Z" fill="white"/>
</g>
<ellipse cx="620.773" cy="62.6643" rx="5.46967" ry="5.46972" fill="#D4D8E4"/>
<rect x="300.733" y="77.4894" width="130.072" height="7.37995" rx="3.68997" fill="#D4D8E4"/>
<rect x="298.641" y="104.416" width="53.8901" height="7.98102" rx="3.99051" transform="rotate(-4.11204 298.641 104.416)" fill="#D4D8E4"/>
<rect x="511.062" y="73.7996" width="77.4877" height="21.8789" rx="4" fill="#59C3C3"/>
<g filter="url(#filter3_d)">
<path d="M642.056 140.529C642.056 138.32 643.847 136.529 646.056 136.529H785.167C786.288 136.529 787.358 137 788.115 137.826L805.166 156.427C806.568 157.957 806.568 160.304 805.166 161.833L788.115 180.434C787.358 181.261 786.288 181.731 785.167 181.731H646.056C643.847 181.731 642.056 179.94 642.056 177.731V140.529Z" fill="white"/>
<path d="M532.279 140.529C532.279 138.32 534.07 136.529 536.279 136.529H675.39C676.511 136.529 677.581 137 678.338 137.826L695.389 156.427C696.791 157.957 696.791 160.304 695.389 161.833L678.338 180.434C677.581 181.261 676.511 181.731 675.39 181.731H536.279C534.07 181.731 532.279 179.94 532.279 177.731V140.529Z" fill="#FAFAFA"/>
<rect x="620.838" y="155.901" width="50.7372" height="7.37995" rx="3.68997" fill="#D4D8E4"/>
<rect x="732.46" y="155.901" width="47.9697" height="7.37995" rx="3.68997" fill="#EDEFF3"/>
<path d="M465.859 140.529C465.859 138.32 467.65 136.529 469.859 136.529H565.613C566.734 136.529 567.804 137 568.562 137.826L585.612 156.428C587.014 157.957 587.014 160.304 585.612 161.833L568.562 180.434C567.804 181.261 566.734 181.731 565.613 181.731H469.859C467.65 181.731 465.859 179.941 465.859 177.731V140.529Z" fill="white"/>
<rect x="499.992" y="155.901" width="65.4971" height="7.37995" rx="3.68997" fill="#EDEFF3"/>
<path fill-rule="evenodd" clip-rule="evenodd" d="M486.154 166.049C489.721 166.049 492.612 163.158 492.612 159.591C492.612 156.025 489.721 153.134 486.154 153.134C482.588 153.134 479.697 156.025 479.697 159.591C479.697 163.158 482.588 166.049 486.154 166.049Z" fill="#EDEFF3"/>
<circle cx="606.539" cy="159.13" r="6.9187" fill="#D4D8E4"/>
<circle cx="718.162" cy="159.13" r="6.9187" fill="#EDEFF3"/>
</g>
<g filter="url(#filter4_d)">
<g filter="url(#filter5_d)">
<rect x="642.978" y="196.491" width="47.0472" height="177.119" rx="4" transform="rotate(90 642.978 196.491)" fill="white"/>
</g>
<g filter="url(#filter6_d)">
<rect x="663.273" y="250.918" width="122.692" height="177.119" rx="4" transform="rotate(90 663.273 250.918)" fill="white"/>
</g>
<rect x="582.094" y="213.096" width="13.8374" height="99.6293" rx="6.9187" transform="rotate(90 582.094 213.096)" fill="#EDEFF3"/>
<rect x="627.296" y="270.291" width="7.37995" height="124.537" rx="3.68997" transform="rotate(90 627.296 270.291)" fill="#EDEFF3"/>
<rect x="592.241" y="307.19" width="7.37995" height="89.4819" rx="3.68998" transform="rotate(90 592.241 307.19)" fill="#EDEFF3"/>
<rect x="615.304" y="344.09" width="7.37995" height="112.544" rx="3.68998" transform="rotate(90 615.304 344.09)" fill="#EDEFF3"/>
<path opacity="0.75" d="M622.684 216.786L619.168 220.402V220.402C619.072 220.501 618.916 220.501 618.82 220.402C618.82 220.402 618.82 220.402 618.82 220.402L615.304 216.786" stroke="#D4D8E4" stroke-width="5" stroke-linecap="round" stroke-linejoin="round"/>
</g>
<path d="M436 204.5L437.5 203L443 206L458.5 208L469 206L471 207L469.5 209.5L458 212L448 213L442 229.5L440 233.5L440.5 238L447 240.5L448 241.5L448.5 244L440 242.5L432.5 239L427 227V223L428.5 218.5L430.5 214L438.5 210L436 206.5V204.5Z" fill="#6310E5"/>
<path d="M456.195 202.191C456.203 202.191 456.203 202.199 456.195 202.191C456.212 202.191 456.22 202.191 456.228 202.191L464.255 201.461H464.591L465.06 200.589C466.201 198.987 467.241 197.326 468.164 195.666C469.279 196.89 469.699 198.953 469.707 198.979V203.407C465.245 205.63 460.917 206.754 456.866 206.762C453.721 206.771 450.743 206.108 448 204.766C447.036 204.296 446.18 203.776 445.4 203.239C442.926 201.528 441.433 199.692 440.921 199.021C441.827 198.14 442.716 197.318 443.572 196.58C443.848 196.337 444.125 196.11 444.394 195.884C444.914 195.456 445.409 195.053 445.887 194.684C446.256 194.399 446.616 194.122 446.96 193.871C449.359 192.084 451.078 191.12 451.439 190.918L455.851 201.956C455.91 202.107 456.052 202.191 456.195 202.191Z" fill="#FFC857"/>
<path d="M447.824 241.125C447.816 241.125 447.816 241.117 447.808 241.117C447.841 241.134 447.866 241.142 447.899 241.159C447.874 241.15 447.849 241.134 447.824 241.125Z" fill="white"/>
<path d="M456.405 221.969C456.807 222.472 457.252 223.084 457.722 223.73C457.822 223.873 457.931 224.024 458.032 224.175C458.065 224.225 458.107 224.275 458.141 224.326C458.166 224.368 458.191 224.41 458.225 224.435C458.468 224.779 458.711 225.122 458.963 225.466C460.59 227.697 462.318 229.786 463.912 229.937C464.037 229.945 464.155 229.945 464.272 229.937C466.218 229.719 468.315 228.251 470.328 226.255C470.84 225.752 471.343 225.215 471.838 224.653C476.099 219.822 479.638 213.388 479.873 212.961C479.94 212.843 479.932 212.709 479.856 212.592C478.321 210.142 477.189 207.702 477.39 207.274C478.573 207.307 479.21 208.557 479.219 208.574C479.277 208.683 479.395 208.767 479.521 208.767C479.663 208.775 479.781 208.717 479.848 208.608C480.653 207.391 482.867 204.129 483.446 203.55C483.807 203.189 485.107 202.116 486.549 203.525C486.767 203.927 488.378 207.207 485.048 211.686C484.083 212.977 482.968 213.967 482.951 213.967C482.884 214.026 482.842 214.11 482.825 214.202C482.8 214.42 480.275 233.242 470.32 242.334L468.852 243.6C468.021 244.229 467.157 244.808 466.235 245.303C465.312 245.789 458.476 244.909 451.976 242.745C451.959 242.736 451.943 242.736 451.917 242.728C451.607 242.627 451.297 242.518 450.995 242.409C450.986 242.409 450.978 242.401 450.97 242.401C450.341 242.174 449.712 241.939 449.099 241.688C449.066 241.679 449.041 241.663 449.007 241.654C448.722 241.537 448.445 241.419 448.168 241.294C448.151 241.285 448.135 241.277 448.11 241.268C448.042 241.235 447.967 241.201 447.9 241.176C447.925 241.143 447.791 241.101 447.64 241.05C447.522 240.992 447.397 240.933 447.246 240.866C447.204 240.773 446.86 240.623 446.449 240.48C446.499 240.505 446.558 240.53 446.617 240.564C446.508 240.513 446.398 240.463 446.298 240.413C445.056 239.767 443.924 239.071 442.951 238.308C442.901 238.266 442.842 238.224 442.792 238.182C442.49 237.939 442.205 237.695 441.945 237.444C442.087 225.726 454.601 222.38 456.405 221.969Z" fill="#FFC857"/>
<path d="M466.563 180.275C466.37 180.82 466.118 181.315 465.833 181.751C464.961 183.051 463.736 183.781 462.746 183.445C462.235 183.269 461.857 182.816 461.631 182.204C461.27 181.248 461.279 179.914 461.748 178.581C462.243 177.155 463.174 176.039 464.122 175.569C464.441 175.41 464.759 175.326 465.061 175.326C465.229 175.326 465.405 175.351 465.565 175.41C465.724 175.469 465.875 175.553 466.017 175.662C466.697 176.207 467.032 177.356 466.915 178.656C466.865 179.184 466.756 179.738 466.563 180.275Z" fill="#FFC857"/>
<path d="M474.169 177.071C474.06 177.012 473.943 176.962 473.825 176.92C472.97 176.618 472.005 176.827 471.108 177.498C470.261 178.144 469.565 179.142 469.154 180.308C468.902 181.029 468.785 181.751 468.785 182.43C468.785 182.631 468.793 182.833 468.818 183.034C468.969 184.401 469.64 185.5 470.689 185.869C470.94 185.961 471.209 186.003 471.485 186.003C471.594 186.003 471.703 185.995 471.812 185.978C472.098 185.945 472.383 185.861 472.676 185.735L470.068 191.12C470.068 191.12 470.219 190.625 470.143 190.038C470.043 189.283 469.539 188.377 467.786 188.243C467.3 188.209 466.738 188.226 466.05 188.327C466.05 188.327 464.591 186.867 462.402 188.327C460.213 189.786 460.213 191.975 458.023 190.516C456.589 189.56 455.465 186.716 455.482 183.437C455.49 182.246 455.641 180.988 455.985 179.746C456.069 179.436 456.17 179.126 456.279 178.815C456.354 178.605 461.152 168.004 462.226 165.638L462.418 165.219C462.435 165.186 462.444 165.169 462.444 165.169C462.494 165.076 462.578 165.001 462.678 164.976C462.788 164.942 462.888 164.967 462.98 165.026C462.98 165.026 463.014 165.043 463.064 165.076C463.802 165.563 469.363 169.178 472.19 168.616C472.559 168.541 472.903 168.457 473.213 168.356C475.377 167.651 476.09 166.41 476.258 166.041C476.266 166.117 474.824 177.574 474.824 177.574C474.622 177.373 474.413 177.205 474.169 177.071ZM465.799 174.73C464.717 174.345 463.492 174.823 462.502 175.88C461.907 176.517 461.404 177.356 461.051 178.345C460.707 179.335 460.573 180.308 460.64 181.172C460.749 182.615 461.412 183.755 462.494 184.133C462.746 184.217 463.006 184.267 463.257 184.267C464.809 184.267 466.444 182.774 467.241 180.526C468.181 177.884 467.535 175.334 465.799 174.73Z" fill="#FFC857"/>
<path d="M465.935 185.645L468.124 181.267V181.259V181.569V186.375L465.935 185.645Z" fill="#FCAD0D"/>
<path d="M470.931 185.181C469.933 184.829 469.413 183.571 469.522 182.086C469.556 181.591 469.665 181.071 469.849 180.543C470.21 179.503 470.822 178.631 471.56 178.077C472.055 177.708 472.567 177.507 473.045 177.507C473.238 177.507 473.414 177.54 473.59 177.599C473.749 177.658 473.892 177.741 474.026 177.834C474.278 178.018 474.471 178.261 474.622 178.563L474.068 181.482C474.06 181.516 473.733 182.707 473.078 184.602C473.045 184.636 472.994 184.669 472.961 184.695C472.676 184.904 472.391 185.055 472.114 185.156C471.694 185.307 471.3 185.315 470.931 185.181Z" fill="#FFC857"/>
<path d="M432.996 208.8C432.979 208.784 432.971 208.784 432.946 208.784C432.963 208.775 432.988 208.784 432.996 208.8C433.004 208.792 433.004 208.792 432.996 208.8C432.996 208.792 432.996 208.8 432.996 208.8Z" fill="#3E22A6"/>
<path d="M433.004 208.801H432.995L433.004 208.792V208.801Z" fill="#3E22A6"/>
<path d="M455.046 160.615C454.576 160.64 454.115 160.682 453.662 160.732C454.526 160.631 455.046 160.615 455.046 160.615Z" fill="#3E22A6"/>
<path d="M477.004 281.058V281.922V287.081V288.045C475.528 289.303 471.427 292.373 464.348 294.697C459.86 296.156 453.679 297.439 445.769 297.439C439.21 297.439 431.46 296.559 422.528 294.151C422.511 294.151 422.503 294.143 422.494 294.135C422.494 293.916 422.503 293.69 422.511 293.455C422.57 290.981 422.645 288.213 422.729 285.227C422.737 284.967 422.746 284.699 422.763 284.439C450.911 296.701 474.648 282.543 477.004 281.058Z" fill="#4D17B2"/>
<path d="M477.004 268.704V269.543V273.225V274.223C475.511 275.54 471.41 278.685 464.356 280.908C459.047 282.585 453.578 283.248 448.252 283.248C438.841 283.248 429.875 281.184 422.939 278.945C422.947 278.693 422.956 278.442 422.964 278.182C423.023 276.336 423.09 274.433 423.157 272.487C423.174 272.235 423.182 271.967 423.19 271.715C451.657 282.35 474.614 270.063 477.004 268.704Z" fill="#4D17B2"/>
<path d="M477.004 257.171V258.001V261.969V261.977V262.807C475.352 263.713 470.261 266.246 462.553 267.84C462.083 267.94 461.597 268.033 461.102 268.125C457.604 268.771 453.369 269.249 448.537 269.249C441.383 269.249 432.895 268.209 423.476 265.089C423.484 264.845 423.492 264.585 423.509 264.334C423.635 261.516 423.761 258.681 423.912 255.862C423.929 255.602 423.945 255.342 423.954 255.091C426.948 256.315 457.21 267.982 477.004 257.171Z" fill="#4D17B2"/>
<path d="M465.195 247.542C465.203 247.542 465.203 247.542 465.212 247.55C468.902 247.441 472.836 247.081 477.004 246.418V247.156V251.492V252.281C475.251 252.977 469.389 255.04 460.582 255.544C459.324 255.619 458.007 255.653 456.631 255.653C447.866 255.653 436.795 254.009 424.314 248.498C424.331 248.238 424.348 247.978 424.365 247.718C424.39 247.383 424.407 247.056 424.432 246.72C424.449 246.477 424.457 246.234 424.474 245.99C424.625 243.617 424.792 241.293 424.969 239.054C424.994 238.685 425.027 238.299 425.052 237.938C425.069 237.695 425.086 237.46 425.111 237.234C425.212 237.209 425.329 237.234 425.413 237.309C425.589 237.435 439.756 248.288 465.195 247.542Z" fill="#4D17B2"/>
<path d="M437.642 211.241C439.026 210.671 440.401 210.335 441.576 210.226C441.827 210.201 442.087 210.193 442.339 210.193C443.589 210.193 444.797 210.461 445.954 210.923C446.113 210.99 446.281 211.057 446.44 211.132C446.466 211.141 446.491 211.157 446.516 211.166C446.6 211.208 446.726 211.266 446.86 211.334C446.877 211.359 446.885 211.392 446.893 211.426C446.91 211.585 446.826 211.728 446.692 211.803C446.482 211.845 446.248 211.896 445.988 211.954C445.073 212.13 443.169 212.558 440.989 213.397C440.645 213.523 440.309 213.657 439.982 213.8C435.939 215.544 431.377 218.673 430.496 224.124C430.496 224.133 430.462 224.225 430.412 224.351C430.378 224.393 430.345 224.426 430.295 224.452C430.244 224.477 430.186 224.494 430.127 224.494C430.076 224.494 430.018 224.477 429.976 224.46L429.825 224.385V224.376L426.94 222.992C427.007 222.749 427.065 222.506 427.124 222.262C427.401 221.222 427.703 220.208 428.03 219.218C428.114 218.975 428.189 218.74 428.282 218.513V218.522C428.617 218.58 429.12 218.706 429.892 218.958C430.303 217.633 430.974 216.458 431.821 215.435C431.821 215.435 431.821 215.435 431.813 215.435C431.813 215.435 431.813 215.435 431.821 215.427C430.915 215.049 430.261 214.739 429.884 214.554C429.976 214.336 430.077 214.11 430.186 213.892C430.915 212.357 431.704 210.906 432.542 209.539C432.568 209.497 432.593 209.455 432.626 209.421V209.413C432.744 209.203 432.87 209.002 433.004 208.809C433.004 208.809 433.004 208.809 433.012 208.809C433.037 208.809 433.046 208.826 433.062 208.834C433.062 208.834 433.079 208.843 433.096 208.859C433.348 209.027 434.933 210.025 437.525 211.149C437.567 211.166 437.617 211.199 437.642 211.241Z" fill="#4D17B2"/>
<path d="M422.293 304.007C422.309 302.975 422.335 301.423 422.385 299.461C422.393 299.217 422.393 298.974 422.402 298.714C442.012 303.554 455.339 302.212 463.928 299.461C469.229 297.766 472.718 295.535 474.765 293.9C474.823 293.85 474.882 293.808 474.941 293.757C475.31 293.464 475.629 293.179 475.897 292.935C476.191 292.667 476.425 292.432 476.61 292.239C476.794 292.046 476.929 291.895 477.004 291.803V292.893V295.158L477.021 295.166C477.004 295.2 477.004 295.242 477.004 295.275C477.004 295.309 477.021 295.712 477.029 296.433C472.928 302.371 466.176 305.726 456.849 307.127C447.765 308.486 436.224 307.982 422.268 306.187C422.268 305.927 422.276 304.535 422.293 304.007Z" fill="#4D17B2"/>
<path d="M463.266 184.259C463.014 184.259 462.746 184.217 462.503 184.125C461.421 183.747 460.758 182.607 460.649 181.164C460.582 180.3 460.708 179.319 461.06 178.337C461.404 177.348 461.915 176.509 462.511 175.872C463.501 174.815 464.725 174.337 465.807 174.722C467.544 175.326 468.189 177.876 467.258 180.51C466.462 182.774 464.818 184.259 463.266 184.259ZM461.739 178.581C461.27 179.906 461.27 181.248 461.622 182.204C461.848 182.816 462.226 183.269 462.737 183.445C463.601 183.739 464.65 183.219 465.48 182.212C465.598 182.07 465.715 181.91 465.824 181.751C466.118 181.315 466.369 180.82 466.554 180.275C466.747 179.73 466.864 179.185 466.906 178.665C466.923 178.505 466.923 178.337 466.923 178.186C466.923 177.088 466.596 176.148 466 175.67C465.866 175.561 465.715 175.477 465.547 175.419C465.388 175.36 465.212 175.335 465.044 175.335C464.734 175.335 464.415 175.419 464.105 175.578C463.165 176.039 462.243 177.155 461.739 178.581Z" fill="#4D17B2"/>
<path d="M471.486 186.004C471.209 186.004 470.949 185.962 470.689 185.869C469.632 185.5 468.97 184.402 468.819 183.034C468.794 182.842 468.785 182.64 468.785 182.431C468.785 181.751 468.903 181.03 469.154 180.309C469.574 179.143 470.262 178.136 471.109 177.499C472.006 176.828 472.971 176.618 473.826 176.92C473.944 176.962 474.061 177.012 474.17 177.071C474.413 177.205 474.623 177.373 474.816 177.583C475.764 178.623 476.032 180.56 475.361 182.481C474.942 183.647 474.254 184.645 473.407 185.291C473.164 185.475 472.92 185.618 472.677 185.735C472.384 185.861 472.098 185.945 471.813 185.978C471.704 186.004 471.595 186.004 471.486 186.004ZM472.962 184.712C472.996 184.687 473.038 184.653 473.08 184.62C473.767 184.066 474.329 183.227 474.673 182.246C475.16 180.862 475.109 179.478 474.631 178.572C474.48 178.27 474.279 178.027 474.036 177.843C473.902 177.75 473.759 177.666 473.6 177.608C473.424 177.549 473.239 177.516 473.055 177.516C472.576 177.516 472.073 177.708 471.57 178.086C470.832 178.639 470.228 179.52 469.859 180.552C469.674 181.072 469.565 181.592 469.532 182.095C469.423 183.58 469.943 184.838 470.941 185.19C471.31 185.324 471.704 185.316 472.124 185.173C472.392 185.073 472.677 184.922 472.962 184.712Z" fill="#4D17B2"/>
<path d="M472.182 168.625C472.56 168.558 472.895 168.465 473.205 168.365C475.369 167.66 476.082 166.419 476.25 166.041C475.663 163.642 473.96 162.141 471.779 161.218L469.725 160.497C463.887 159.046 456.372 160.506 456.229 160.531C456.229 160.531 456.179 160.539 456.103 160.581H456.112C455.558 160.883 453.403 162.846 452.203 174.798C452.136 175.435 452.077 176.106 452.002 176.794C451.708 179.444 451.356 182.355 451.096 184.418C451.006 184.639 450.932 184.852 450.866 185.041L450.861 185.056C450.836 185.106 450.828 185.148 450.811 185.19C450.802 185.207 450.802 185.215 450.794 185.232L450.039 187.043C450.031 187.069 450.022 187.085 450.014 187.111V187.127C450.006 187.136 450.006 187.144 450.006 187.144V187.186C450.006 187.228 450.006 187.278 450.031 187.32L451.18 190.197H451.188L451.457 190.877H451.448L455.86 201.914C455.91 202.057 456.053 202.141 456.196 202.141H456.221L464.248 201.411C464.357 201.411 464.449 201.353 464.508 201.269C464.684 201.025 464.86 200.791 465.044 200.539C466.193 198.937 467.225 197.276 468.148 195.615C468.156 195.624 468.156 195.624 468.156 195.624C469.272 196.848 469.691 198.912 469.699 198.937V203.366C465.229 205.588 460.909 206.712 456.858 206.72C453.704 206.729 450.727 206.066 447.984 204.724C447.02 204.255 446.156 203.735 445.384 203.198C442.91 201.487 441.417 199.65 440.914 198.979L440.394 199.499V199.507C439.228 200.682 438.028 201.973 436.854 203.399L436.393 203.969H436.401C437.055 204.59 439.496 206.729 443.396 208.499C444.302 208.918 445.292 209.304 446.357 209.656C448.873 210.47 451.817 211.04 455.122 211.04C459.391 211.04 464.298 210.084 469.691 207.475H469.699L469.691 212.625H469.691C469.657 212.625 469.607 212.625 469.574 212.642C465.908 213.858 462.159 214.58 458.385 214.814C456.12 214.957 453.839 214.923 451.566 214.714L451.578 214.726C451.851 214.99 452.115 215.246 452.371 215.511C453.26 216.442 454.048 217.381 454.694 218.228C454.577 218.236 454.459 218.236 454.342 218.245C454.3 218.245 454.099 218.262 453.78 218.287C451.91 218.48 445.887 219.453 442.021 223.957C439.58 226.808 438.481 230.516 438.766 234.995C438.792 235.271 438.808 235.557 438.842 235.842C438.859 235.934 438.901 236.018 438.968 236.077L438.959 236.085C437.341 234.819 435.982 233.602 434.833 232.428L434.841 232.42C434.774 232.361 434.732 232.269 434.724 232.176C434.707 231.858 434.699 231.547 434.707 231.237C434.917 221.097 447.649 216.014 450.693 214.94C451.088 214.814 451.314 214.739 451.339 214.731C451.39 214.714 451.431 214.714 451.482 214.714C451.507 214.714 451.524 214.722 451.549 214.722C450.811 214.009 450.014 213.33 449.158 212.709L449.15 212.726H449.142C449.075 212.667 448.966 212.634 448.857 212.65C448.823 212.659 448.521 212.709 448.009 212.835C446.013 213.313 440.872 214.823 436.955 218.455C435.16 220.124 433.617 222.254 432.761 224.921C432.459 225.836 432.249 226.817 432.132 227.865C432.09 228.192 432.065 228.52 432.048 228.855H432.04H431.989H431.981H431.897H431.889C429.532 228.771 426.554 225.894 426.521 225.869C426.47 225.827 426.412 225.794 426.345 225.785C426.303 226.054 426.252 226.322 426.21 226.59C426.093 227.337 425.992 228.1 425.9 228.872C425.791 229.878 425.682 230.918 425.573 231.992L425.573 231.992C425.548 232.269 425.523 232.546 425.489 232.822C425.489 232.831 425.497 232.831 425.497 232.831V232.822C427.754 234.349 436.93 240.228 445.216 240.866H445.242C445.258 240.866 445.376 240.874 445.552 240.899C446.256 240.975 447.825 241.143 447.909 241.151C447.884 241.143 447.842 241.126 447.816 241.109C447.816 241.109 447.808 241.101 447.8 241.101C447.741 241.076 447.691 241.05 447.632 241.025C447.64 241.025 447.649 241.034 447.657 241.034C447.647 241.029 447.637 241.025 447.627 241.021C447.624 241.018 447.622 241.017 447.619 241.017C447.511 240.969 447.39 240.909 447.263 240.849C447.271 240.849 447.28 240.857 447.28 240.866C447.062 240.765 446.844 240.656 446.634 240.547C446.625 240.539 446.617 240.539 446.6 240.53C446.483 240.463 446.357 240.405 446.24 240.346C446.072 240.254 445.913 240.17 445.745 240.077C445.577 239.985 445.409 239.893 445.25 239.801C445.074 239.7 444.898 239.591 444.73 239.49L444.252 239.188C444.109 239.096 443.967 238.995 443.824 238.903C443.531 238.694 443.245 238.492 442.977 238.283C442.927 238.241 442.868 238.199 442.818 238.157L442.818 238.157C442.524 237.913 442.23 237.67 441.97 237.419C442.088 225.71 454.594 222.372 456.405 221.952C456.531 221.919 456.615 221.902 456.623 221.902C456.732 221.885 456.833 221.801 456.883 221.692C456.9 221.633 456.909 221.583 456.909 221.524C456.9 221.474 456.883 221.415 456.858 221.365V221.357C456.783 221.222 456.204 220.266 455.239 218.949C460.23 218.723 465.095 218.035 469.699 216.92V221.164V221.935C466.948 223.386 463.409 224.242 459.156 224.494C458.938 224.502 458.712 224.519 458.485 224.527H458.469C458.368 224.527 458.284 224.494 458.217 224.426L458.218 224.428C458.461 224.771 458.704 225.115 458.955 225.458C460.582 227.689 462.318 229.786 463.904 229.929C464.021 229.945 464.147 229.945 464.264 229.929C466.202 229.702 468.307 228.243 470.32 226.247C470.832 225.743 471.335 225.206 471.83 224.645C471.863 224.586 471.889 224.527 471.889 224.443V223.462V197.452C471.889 197.327 471.83 197.217 471.729 197.142L468.601 195.054L468.592 195.045L468.525 195.003C468.844 194.173 469.163 193.418 469.473 192.697L470.06 191.128C470.06 191.128 470.211 190.633 470.136 190.046C470.035 189.291 469.532 188.385 467.779 188.251C467.301 188.218 466.73 188.243 466.042 188.335C466.042 188.335 464.583 186.876 462.394 188.335C460.205 189.795 460.205 191.984 458.016 190.524C456.581 189.568 455.457 186.725 455.474 183.445C455.474 182.246 455.634 180.996 455.978 179.755C456.061 179.444 456.162 179.134 456.271 178.824C456.321 178.681 456.38 178.547 456.439 178.404L462.218 165.647L462.411 165.228L462.436 165.177C462.486 165.077 462.57 165.01 462.671 164.984C462.78 164.951 462.88 164.976 462.973 165.035C462.981 165.035 463.006 165.052 463.056 165.085L463.057 165.085C463.795 165.572 469.347 169.187 472.182 168.625Z" fill="#6310E5"/>
<path d="M569.216 171.719C569.174 171.803 569.133 171.895 569.099 171.979C569.099 171.937 569.116 171.904 569.133 171.862C569.166 171.812 569.183 171.77 569.216 171.719Z" fill="#3E22A6"/>
<path d="M447.925 241.168C447.916 241.168 447.908 241.159 447.899 241.159C447.908 241.159 447.916 241.168 447.925 241.168Z" fill="#8E7DD9"/>
<path d="M447.665 241.05C447.816 241.1 447.95 241.142 447.925 241.176C447.916 241.176 447.908 241.167 447.9 241.167C447.866 241.151 447.841 241.142 447.807 241.126C447.766 241.092 447.724 241.075 447.665 241.05Z" fill="#8E7DD9"/>
<path d="M447.641 241.042C447.649 241.042 447.658 241.05 447.666 241.05C447.716 241.075 447.758 241.1 447.808 241.117C447.758 241.092 447.7 241.067 447.641 241.042Z" fill="#8E7DD9"/>
<path d="M446.482 240.48C446.885 240.622 447.237 240.765 447.279 240.866C447.078 240.773 446.86 240.664 446.65 240.564C446.592 240.53 446.533 240.505 446.482 240.48Z" fill="#8E7DD9"/>
<path d="M446.65 240.556C446.868 240.656 447.078 240.765 447.279 240.857C447.279 240.866 447.296 240.874 447.296 240.874C447.069 240.774 446.86 240.665 446.65 240.556Z" fill="#8E7DD9"/>
<path d="M422.503 294.126C422.511 294.135 422.519 294.143 422.536 294.143C431.469 296.55 439.21 297.431 445.778 297.431C453.679 297.431 459.86 296.148 464.356 294.688C471.435 292.365 475.537 289.295 477.013 288.037V291.795C476.929 291.887 476.803 292.038 476.618 292.231C476.434 292.424 476.199 292.659 475.906 292.927C475.637 293.17 475.318 293.455 474.949 293.749C474.891 293.799 474.832 293.841 474.773 293.892C472.718 295.527 469.229 297.758 463.937 299.452C455.348 302.204 442.029 303.554 422.41 298.706C422.427 297.356 422.461 295.812 422.503 294.126Z" fill="#6310E5"/>
<path d="M422.771 284.439C422.821 282.669 422.88 280.841 422.939 278.953C429.875 281.193 438.841 283.256 448.252 283.256C453.578 283.256 459.047 282.594 464.356 280.916C471.41 278.693 475.511 275.548 477.004 274.231V281.059C474.648 282.543 450.911 296.701 422.771 284.439Z" fill="#6310E5"/>
<path d="M423.198 271.715C423.282 269.543 423.366 267.328 423.467 265.097C432.886 268.209 441.374 269.257 448.529 269.257C453.36 269.257 457.595 268.779 461.093 268.133C461.596 268.041 462.074 267.949 462.544 267.848C470.252 266.246 475.343 263.722 476.996 262.816V268.712C474.614 270.063 451.657 282.35 423.198 271.715Z" fill="#6310E5"/>
<path d="M423.945 255.099C424.063 252.877 424.188 250.679 424.314 248.507C436.795 254.017 447.866 255.661 456.631 255.661C458.007 255.661 459.324 255.619 460.582 255.552C469.389 255.049 475.251 252.986 477.004 252.29V257.179C457.21 267.983 426.948 256.316 423.945 255.099Z" fill="#6310E5"/>
<path d="M428.281 218.513C428.768 217.138 429.296 215.821 429.883 214.554C430.252 214.739 430.907 215.041 431.812 215.418C431.812 215.418 431.812 215.418 431.821 215.418C430.974 216.441 430.303 217.624 429.892 218.941C429.12 218.698 428.617 218.572 428.281 218.513Z" fill="#6310E5"/>
<path d="M469.59 212.684C465.925 213.892 462.175 214.613 458.401 214.856C456.136 214.999 453.863 214.965 451.582 214.756C450.835 214.043 450.03 213.355 449.183 212.734L449.175 212.751C449.175 212.751 449.175 212.751 449.166 212.751C449.091 212.692 448.99 212.659 448.881 212.676H448.873C448.839 212.684 448.537 212.734 448.026 212.86C446.021 213.338 440.888 214.848 436.971 218.48C435.176 220.149 433.624 222.279 432.777 224.946C432.475 225.861 432.266 226.834 432.148 227.89C432.115 228.209 432.081 228.536 432.064 228.88H432.056H432.006H431.997H431.913C429.548 228.796 426.571 225.919 426.545 225.894C426.495 225.852 426.436 225.81 426.369 225.81C426.478 225.19 426.604 224.577 426.73 223.982C426.797 223.663 426.872 223.336 426.948 223.017L429.833 224.401L429.984 224.477C430.026 224.502 430.085 224.51 430.135 224.51C430.194 224.51 430.253 224.494 430.303 224.468C430.353 224.443 430.387 224.41 430.42 224.368C430.462 224.317 430.487 224.267 430.504 224.208C430.504 224.183 430.513 224.175 430.513 224.15C431.393 218.698 435.956 215.569 439.999 213.825C440.343 213.682 440.678 213.548 441.005 213.414C443.186 212.575 445.082 212.156 446.004 211.971C446.122 211.946 446.239 211.929 446.323 211.912C446.491 211.879 446.575 211.862 446.591 211.862C446.633 211.854 446.675 211.837 446.709 211.82C446.843 211.753 446.927 211.61 446.91 211.443C446.902 211.401 446.893 211.376 446.877 211.35C446.877 211.35 446.877 211.342 446.868 211.334C446.759 211.283 446.642 211.225 446.533 211.174C446.499 211.157 446.474 211.149 446.457 211.141C446.298 211.065 446.13 210.998 445.971 210.931C444.813 210.47 443.605 210.201 442.356 210.201C442.096 210.201 441.844 210.218 441.592 210.235C440.418 210.344 439.043 210.679 437.659 211.25C437.625 211.216 437.583 211.174 437.533 211.157C434.941 210.034 433.356 209.035 433.104 208.868C433.079 208.843 433.071 208.843 433.071 208.843C433.054 208.834 433.046 208.817 433.02 208.817V208.809C434.111 207.09 435.252 205.496 436.426 204.036C437.08 204.657 439.521 206.804 443.421 208.566C444.327 208.985 445.317 209.371 446.382 209.723C448.898 210.537 451.842 211.107 455.147 211.107C455.147 211.107 455.147 211.107 455.155 211.107C459.433 211.107 464.331 210.151 469.724 207.542H469.732L469.724 212.692C469.665 212.667 469.623 212.667 469.59 212.684Z" fill="#6310E5"/>
<path d="M452.387 215.544C453.276 216.475 454.064 217.415 454.71 218.262C454.593 218.27 454.475 218.27 454.358 218.279C454.316 218.279 454.114 218.295 453.796 218.32C451.925 218.513 445.903 219.486 442.036 223.99C439.596 226.834 438.497 230.541 438.782 235.028C438.807 235.305 438.824 235.59 438.858 235.875C438.874 235.968 438.916 236.052 438.983 236.11L438.975 236.119C437.365 234.852 435.998 233.636 434.848 232.462L434.857 232.453C434.79 232.395 434.748 232.311 434.739 232.21C434.723 231.891 434.714 231.573 434.723 231.271C434.924 221.122 447.664 216.047 450.709 214.974C451.103 214.84 451.338 214.773 451.355 214.764C451.397 214.747 451.447 214.747 451.498 214.747C451.523 214.747 451.548 214.756 451.565 214.756H451.573C451.858 215.016 452.127 215.276 452.387 215.544Z" fill="#6310E5"/>
<path d="M456.866 221.365C456.782 221.231 456.212 220.275 455.247 218.958C460.238 218.731 465.102 218.044 469.707 216.928V221.172V221.944C466.956 223.386 463.416 224.25 459.164 224.502C458.946 224.519 458.719 224.535 458.493 224.535C458.485 224.535 458.485 224.535 458.476 224.535C458.376 224.535 458.283 224.502 458.225 224.435C458.191 224.41 458.166 224.368 458.141 224.326C458.107 224.275 458.065 224.225 458.032 224.175C457.923 224.024 457.822 223.881 457.721 223.73C457.26 223.084 456.815 222.472 456.413 221.969C456.547 221.935 456.623 221.919 456.631 221.919C456.74 221.893 456.841 221.818 456.891 221.709C456.916 221.65 456.925 221.6 456.916 221.541C456.916 221.482 456.899 221.424 456.866 221.365Z" fill="#6310E5"/>
<path d="M465.195 247.542C439.756 248.289 425.589 237.436 425.421 237.31C425.338 237.234 425.22 237.217 425.119 237.234C425.245 235.724 425.371 234.257 425.505 232.839C425.505 232.839 425.505 232.839 425.505 232.831C427.761 234.357 436.946 240.237 445.224 240.874C445.224 240.874 445.358 240.891 445.56 240.908C446.264 240.983 447.833 241.151 447.917 241.16H447.925C447.925 241.16 447.933 241.16 447.933 241.168C447.942 241.168 447.95 241.176 447.95 241.176C448.009 241.202 448.076 241.227 448.143 241.26C448.16 241.269 448.177 241.277 448.202 241.285C448.479 241.403 448.764 241.529 449.04 241.646C449.074 241.654 449.099 241.671 449.133 241.68C449.745 241.931 450.366 242.166 451.003 242.393C451.012 242.393 451.02 242.401 451.028 242.401C451.339 242.51 451.649 242.619 451.951 242.72C451.968 242.728 451.984 242.728 452.01 242.736C458.51 244.909 465.337 245.781 466.268 245.303C467.174 244.825 468.021 244.255 468.827 243.642C469.028 243.491 469.246 243.349 469.439 243.189C469.388 243.256 469.355 243.34 469.355 243.441C469.355 243.634 469.498 243.785 469.682 243.802C469.69 243.802 469.707 243.81 469.716 243.81H469.833H477.013V246.419V246.427C472.844 247.09 468.91 247.45 465.22 247.559C465.203 247.542 465.203 247.542 465.195 247.542Z" fill="#6310E5"/>
<path d="M447.296 240.882C447.405 240.933 447.523 240.983 447.632 241.033C447.464 240.975 447.296 240.933 447.296 240.882Z" fill="#8E7DD9"/>
<path d="M447.64 241.042C447.631 241.042 447.631 241.042 447.623 241.033C447.514 240.983 447.396 240.933 447.287 240.882C447.405 240.933 447.522 240.991 447.64 241.042Z" fill="#8E7DD9"/>
<path d="M437.432 373.043C437.508 373.102 423.744 328.078 422.267 306.179C436.224 307.973 447.765 308.477 456.849 307.118C466.176 305.726 472.928 302.371 477.029 296.424C477.055 303.251 475.998 338.898 451.993 371.76C451.984 372.18 451.976 372.582 451.984 372.993C452.001 385.281 452.798 396.822 455.029 405.1C455.063 405.184 455.079 405.277 455.104 405.36C455.13 405.469 455.113 405.587 455.046 405.671C454.97 405.763 454.878 405.813 454.761 405.813H454.752H454.14C454.123 405.813 454.115 405.813 454.098 405.813H450.475H450.466H449.644C449.569 405.813 449.493 405.788 449.435 405.746C449.384 405.713 449.342 405.662 449.309 405.595C449.216 405.394 445.769 397.527 441.315 385.532C436.644 390.355 431.494 394.893 426 398.994C425.975 398.944 425.941 398.902 425.916 398.86C425.916 398.785 425.891 398.718 425.841 398.659L425.614 398.382L423.089 395.212L423.006 395.22C423.006 395.203 422.997 395.186 422.989 395.161C422.964 395.044 422.888 394.943 422.779 394.893C422.737 394.876 422.687 394.868 422.637 394.868C422.569 394.868 422.502 394.868 422.435 394.876L436.929 373.136C437.038 372.976 437.264 372.934 437.432 373.043Z" fill="#EE4266"/>
<path d="M473.079 184.611C473.733 182.715 474.06 181.524 474.068 181.491L474.622 178.572C475.1 179.478 475.159 180.853 474.664 182.246C474.328 183.219 473.766 184.057 473.079 184.611Z" fill="#D4D8E4"/>
<path d="M417.998 397.175C418.09 397.082 420.187 395.011 422.427 394.885C422.494 394.877 422.561 394.877 422.628 394.877C422.678 394.877 422.72 394.885 422.77 394.902C422.879 394.944 422.955 395.044 422.98 395.17C422.98 395.187 422.997 395.204 422.997 395.229L423.081 395.22L425.605 398.391L425.832 398.668C425.874 398.726 425.907 398.802 425.907 398.869C425.933 398.911 425.966 398.953 425.991 399.003C426.788 400.303 428.944 404.203 429.564 409.06C429.581 409.211 429.497 409.37 429.363 409.429C429.313 409.454 429.254 409.462 429.204 409.462C429.111 409.462 429.011 409.429 428.944 409.353L420.154 400.555L417.964 397.636C417.847 397.51 417.864 397.301 417.998 397.175Z" fill="#6310E5"/>
<path d="M449.728 405.831H454.014H454.023C454.023 405.831 454.056 405.831 454.09 405.831H454.132C455.029 405.839 461.387 406.091 464.021 411.308H447.799C447.849 409.781 448.269 406.695 449.728 405.831Z" fill="#6310E5"/>
<g opacity="0.1">
<path opacity="0.1" d="M445.871 194.668L445.879 194.684L445.871 194.668C445.896 194.651 445.913 194.634 445.938 194.6C446.022 194.475 446.013 194.315 445.938 194.198C446.013 194.315 446.022 194.475 445.938 194.6C445.913 194.634 445.896 194.659 445.871 194.668Z" fill="#131314"/>
<path opacity="0.1" d="M453.872 160.715C453.805 160.724 453.73 160.724 453.654 160.732C454.518 160.631 455.038 160.615 455.038 160.615C455.03 160.615 455.021 160.615 455.013 160.615C454.635 160.631 454.25 160.673 453.872 160.715Z" fill="#131314"/>
<path opacity="0.1" d="M449.729 405.83H451.994L451.935 411.307H447.792C447.85 409.781 448.27 406.694 449.729 405.83Z" fill="#131314"/>
<path opacity="0.1" d="M453.21 160.799C452.581 160.891 451.969 161.017 451.365 161.168C451.969 161.017 452.581 160.883 453.21 160.799Z" fill="#131314"/>
</g>
<path opacity="0.1" d="M451.985 371.761L450.869 320.656C450.869 320.656 454.3 335.292 455.734 366.317L451.985 371.761Z" fill="#131314"/>
<path d="M471.818 213.025C468.863 214.798 457.289 214.749 451.872 214.503L453.349 219.674L471.818 218.196V213.025Z" fill="#4D17B2"/>
<path d="M471.818 221.89H456.304C457.043 222.629 459.013 225.83 459.998 227.061L471.818 224.845V221.89Z" fill="#4D17B2"/>
<path d="M434.881 232.232C433.404 224.106 445.716 213.517 451.872 214.502L456.305 221.89C446.258 223.663 442.761 232.971 442.269 237.404L434.881 232.232Z" fill="#4D17B2"/>
<path d="M425.277 232.971C428.232 237.108 441.775 239.866 448.178 241.097L434.88 232.232L426.015 227.8L425.277 232.971Z" fill="#4D17B2"/>
<ellipse opacity="0.5" cx="434.495" cy="410.048" rx="46.1247" ry="6.9187" fill="#4D17B2"/>
<path opacity="0.1" d="M466.63 199.299C466.639 199.299 466.639 199.299 466.63 199.299C466.639 199.299 466.639 199.299 466.647 199.299C466.647 199.299 466.328 199.903 465.657 200.775C465.64 200.792 465.624 200.817 465.607 200.834C465.33 201.194 464.986 201.588 464.575 202.008C462.68 203.979 459.375 206.394 454.234 207.099C452.179 206.814 450.208 206.218 448.346 205.312C447.381 204.843 446.525 204.323 445.745 203.786C443.271 202.075 441.778 200.238 441.267 199.567C442.172 198.686 443.061 197.864 443.917 197.126C444.194 196.883 444.471 196.657 444.739 196.43C445.259 196.002 445.754 195.6 446.232 195.231C446.601 194.946 446.962 194.669 447.305 194.417C447.582 194.216 447.842 194.023 448.094 193.847C448.119 193.83 448.144 193.805 448.169 193.788C448.22 193.755 448.262 193.721 448.312 193.687C448.496 193.562 448.673 193.436 448.84 193.318C448.882 193.293 448.924 193.26 448.966 193.235C448.991 193.218 449.017 193.201 449.042 193.184C449.26 193.042 449.461 192.899 449.662 192.773C449.671 192.773 449.679 192.765 449.679 192.765C449.88 192.631 450.065 192.513 450.241 192.396C450.275 192.371 450.308 192.354 450.35 192.329C450.518 192.22 450.669 192.127 450.811 192.044C450.837 192.027 450.862 192.018 450.879 192.002C451.004 191.926 451.122 191.859 451.222 191.792C451.239 191.784 451.256 191.767 451.273 191.758C451.382 191.691 451.474 191.641 451.55 191.599C451.566 191.591 451.591 191.574 451.608 191.565C451.675 191.532 451.734 191.49 451.776 191.473H451.784L451.516 190.794H451.508L450.359 187.917C450.333 187.875 450.333 187.825 450.333 187.783C450.333 187.766 450.333 187.749 450.333 187.741C450.333 187.741 450.333 187.732 450.342 187.724C450.342 187.716 450.342 187.716 450.342 187.707C450.35 187.682 450.359 187.665 450.367 187.64L451.122 185.828C451.13 185.812 451.13 185.803 451.139 185.786C451.155 185.745 451.164 185.703 451.189 185.652C451.256 185.459 451.331 185.241 451.424 185.015C451.684 182.951 452.036 180.041 452.33 177.391C452.405 176.703 452.464 176.032 452.531 175.394C453.73 163.442 455.886 161.48 456.439 161.178H456.431C456.507 161.136 456.557 161.127 456.557 161.127C456.624 161.111 458.452 160.758 460.977 160.574C460.969 160.599 453.672 177.76 453.982 187.774C454.007 187.774 455.601 201.354 466.63 199.299Z" fill="#333745"/>
<path opacity="0.1" d="M435.641 241.302C435.306 242.569 434.467 245.873 433.578 250.713C433.251 252.524 432.915 254.554 432.597 256.76C432.186 259.603 431.808 262.757 431.515 266.146C429.258 265.609 426.935 264.955 424.545 264.158C424.553 263.915 424.561 263.655 424.578 263.403C424.704 260.585 424.83 257.75 424.981 254.932C424.998 254.672 425.014 254.412 425.023 254.16C425.14 251.937 425.266 249.74 425.392 247.567C425.409 247.307 425.425 247.047 425.442 246.787C425.467 246.452 425.484 246.125 425.509 245.789C425.526 245.546 425.534 245.303 425.551 245.06C425.702 242.686 425.87 240.363 426.046 238.123C426.071 237.754 426.105 237.368 426.13 237.008C426.147 236.764 426.163 236.53 426.189 236.303C426.314 234.793 426.44 233.326 426.574 231.908C426.574 231.908 426.566 231.908 426.566 231.9C426.6 231.623 426.625 231.346 426.65 231.069C426.759 229.996 426.868 228.956 426.977 227.949C427.069 227.178 427.17 226.414 427.287 225.668C427.329 225.399 427.38 225.131 427.422 224.863C427.489 224.871 427.547 224.905 427.598 224.946C427.631 224.972 430.609 227.849 432.966 227.932H432.974C430.609 227.849 427.631 224.972 427.606 224.946C427.556 224.905 427.497 224.863 427.43 224.863C427.539 224.242 427.665 223.63 427.791 223.034C427.858 222.715 427.933 222.388 428.009 222.07L430.894 223.453V223.445L428.009 222.061C428.076 221.818 428.134 221.575 428.193 221.331C428.47 220.291 428.772 219.277 429.099 218.287C429.183 218.044 429.258 217.809 429.351 217.582C429.829 216.215 430.366 214.89 430.944 213.632C431.313 213.816 431.968 214.118 432.873 214.496C432.873 214.496 432.873 214.496 432.882 214.487C431.976 214.11 431.322 213.8 430.944 213.615C431.037 213.397 431.137 213.17 431.246 212.952C431.976 211.417 432.764 209.966 433.603 208.599C433.628 208.557 433.653 208.515 433.687 208.482V208.473C433.804 208.264 433.93 208.062 434.064 207.87C434.048 207.853 434.039 207.853 434.014 207.853C434.031 207.853 434.048 207.861 434.064 207.87C435.155 206.15 436.295 204.557 437.47 203.097C437.47 203.097 437.47 203.097 437.461 203.097L437.923 202.527C439.097 201.101 440.296 199.809 441.462 198.635V198.627L441.982 198.107C442.485 198.778 443.978 200.614 446.453 202.325C447.224 202.862 448.088 203.382 449.053 203.852C450.915 204.758 452.886 205.353 454.941 205.639C454.144 205.748 453.314 205.831 452.425 205.848C452.425 205.848 449.313 206.167 445.715 208.146C445.111 208.482 444.498 208.859 443.878 209.287C442.318 210.377 440.758 211.803 439.374 213.665L439.365 213.674C438.225 215.209 437.218 217.045 436.438 219.235C436.438 219.235 437.361 220.476 438.904 222.355C439.634 223.252 440.506 224.284 441.487 225.408C442.553 226.624 443.744 227.949 445.027 229.283C450.63 235.146 457.918 241.386 463.53 241.386C474.089 241.386 479.935 227.983 479.944 227.966C479.944 227.966 479.558 229.04 478.795 230.667C477.126 234.206 473.636 240.346 468.344 243.751C468.302 243.776 468.26 243.81 468.218 243.835C467.916 244.02 467.623 244.204 467.312 244.372C467.312 244.372 467.287 244.372 467.279 244.372C467.17 244.38 466.692 244.422 465.878 244.481C465.861 244.481 465.836 244.481 465.819 244.481C460.946 244.8 445.22 245.403 435.784 240.707C435.809 240.707 435.742 240.925 435.641 241.302Z" fill="#333745"/>
<path opacity="0.1" d="M438.511 372.105C438.586 372.163 424.822 327.139 423.346 305.24C423.354 304.988 423.363 303.596 423.371 303.067C423.388 302.036 423.413 300.484 423.464 298.521C423.472 298.278 423.472 298.035 423.48 297.775C423.514 296.408 423.547 294.873 423.589 293.187C423.589 292.969 423.598 292.742 423.606 292.507C423.665 290.033 423.74 287.265 423.824 284.279C423.833 284.019 423.841 283.751 423.858 283.491C423.908 281.721 423.967 279.893 424.025 278.006C424.034 277.754 424.042 277.502 424.051 277.242C424.109 275.397 424.176 273.493 424.244 271.547C424.26 271.296 424.269 271.027 424.277 270.776C424.361 268.603 424.445 266.389 424.545 264.158C426.928 264.946 429.259 265.6 431.515 266.137C431.323 268.301 431.172 270.566 431.063 272.906C430.962 275.179 430.903 277.536 430.903 279.951C430.903 281.956 430.937 284.003 431.021 286.091C431.138 289.01 431.348 291.987 431.666 295.024C431.826 296.542 432.01 298.068 432.22 299.603C432.53 301.834 432.908 304.082 433.352 306.338H429.352C429.352 306.338 442.268 385.264 453.071 404.891H451.545H451.536H450.714C450.639 404.891 450.563 404.866 450.505 404.824C450.454 404.791 450.412 404.74 450.379 404.673C450.287 404.472 446.839 396.604 442.386 384.61C441.924 385.088 441.438 385.55 440.96 386.019L435.701 375.652L437.999 372.214C438.116 372.037 438.343 371.995 438.511 372.105Z" fill="#333745"/>
<path d="M681.171 208.339C684.408 206.501 685.836 211.745 685.836 211.745C685.836 211.745 681.37 213.643 682.114 215.385C677.31 208.633 677.864 204.247 678.331 203.519C679.552 201.604 681.171 208.339 681.171 208.339Z" fill="#FFC857"/>
<path d="M680.535 145.191C680.535 145.191 680.728 142.465 684.641 142.083C688.545 141.702 687.742 147.071 687.742 147.071C687.742 147.071 686.488 151.145 684.641 145.191C679.594 148.011 680.535 145.191 680.535 145.191Z" fill="#FFC857"/>
<path d="M724.496 174.665C724.886 174.613 725.293 174.908 725.656 175.437L728.02 167.497C730.08 169.777 735.257 166.552 735.257 166.552L738.745 178.765C739.741 177.014 741.325 177.95 741.61 179.84C741.853 181.417 739.152 180.941 739.152 180.941L741.351 190.891L741.732 190.805C741.732 190.805 752.223 197.955 728.262 211.746L728.028 211.642C729.812 207.55 731.958 203.789 734.512 200.443V196.456H732.729C731.24 196.456 729.881 195.589 729.257 194.237L725.907 186.999C725.674 186.497 725.552 185.951 725.552 185.396V182.752L725.535 182.518C724.661 182.553 723.743 180.923 723.44 178.817C723.137 176.65 723.613 174.795 724.496 174.665Z" fill="#FFC857"/>
<path d="M738.243 160.07C738.243 160.07 757.911 161.812 757.409 188.482C757.409 188.482 779.561 190.727 779.561 215.647C779.561 215.647 806.622 235.99 784.911 258.378C781.249 262.149 776.367 263.735 771.155 263.744C765.745 241.416 759.244 216.444 755.92 205.93C751.141 190.805 741.732 190.805 741.732 190.805L741.351 190.892L739.152 180.941C739.152 180.941 741.853 181.418 741.61 179.841C741.325 177.951 739.741 177.015 738.745 178.766L735.256 166.553C735.256 166.553 730.08 169.777 728.02 167.498C727.327 166.735 726.981 165.366 727.292 163.06C728.539 153.838 738.243 160.07 738.243 160.07Z" fill="#6310E5"/>
<path d="M741.464 305.253C752.561 307.038 763.893 306.067 771.329 304.967C771.329 304.967 769.251 307.922 766.343 312.568V312.577L779.674 393.004H777.025H777.016C776.999 393.004 776.445 392.987 775.623 393.126C770.567 385.082 760.093 364.548 750.371 344.994C749.073 349.163 748.25 353.159 748.207 356.704C747.956 375.886 755.176 411.276 755.176 411.276H751.947H751.938C751.938 411.276 751.929 411.276 751.912 411.276H751.194C751.194 411.276 718.489 375.314 736.893 317.526C732.365 308.217 729.362 301.95 729.362 301.95C733.222 303.528 737.326 304.585 741.464 305.253Z" fill="#4D17B2"/>
<path d="M685.836 211.746C685.836 211.746 686.884 219.001 694.805 226.221C697.99 229.133 702.301 232.037 708.11 234.455C713.728 236.795 718.316 235.998 722.004 233.71L721.891 233.528C722.558 229.506 723.38 225.631 724.41 221.939L724.367 221.93C721.155 194.922 685.836 148.011 685.836 148.011L687.742 146.131C704.908 160.806 725.553 185.396 725.553 185.396C725.553 185.951 725.674 186.497 725.908 186.999L729.258 194.237C729.881 195.589 731.24 196.456 732.729 196.456H734.512V200.443C731.959 203.789 729.812 207.551 728.029 211.642L728.262 211.746C752.224 197.955 741.732 190.805 741.732 190.805C741.732 190.805 751.142 190.805 755.92 205.93C759.244 216.444 765.745 241.415 771.156 263.743C775.441 281.469 779.042 297.53 779.812 303.372C779.812 303.372 776.514 304.204 771.329 304.967C763.893 306.067 752.561 307.038 741.464 305.253C737.326 304.585 733.223 303.528 729.362 301.95C726.427 300.754 723.631 299.255 721.077 297.391C721.077 297.391 718.757 279.588 719.684 257.684L719.614 256.93C718.723 257 717.805 257.043 716.87 257.052C707.495 257.138 700.362 251.79 695.082 244.891C685.663 232.591 682.114 215.386 682.114 215.386C681.369 213.644 685.836 211.746 685.836 211.746Z" fill="#EE4266"/>
<path d="M751.912 411.276C751.929 411.276 751.938 411.276 751.938 411.276H751.947H755.176H755.28H755.288C756.422 412.013 756.751 414.639 756.794 415.931H744.138C746.259 411.354 751.488 411.276 751.912 411.276Z" fill="#EE4266"/>
<path d="M775.622 393.126C776.445 392.987 776.999 393.005 777.016 393.005H777.025H779.674H780.358H780.366C781.5 393.741 781.829 396.359 781.873 397.651H769.217C770.731 394.392 773.822 393.412 775.622 393.126Z" fill="#EE4266"/>
<path d="M725.735 182.926L725.535 182.952C725.527 182.952 725.509 182.952 725.501 182.952C724.246 182.952 723.302 180.915 723.008 178.878C722.713 176.772 723.112 174.432 724.436 174.241C724.817 174.189 725.406 174.311 726.012 175.203C726.514 175.94 726.903 177.075 727.076 178.315C727.319 180.049 727.102 181.617 726.505 182.406C726.271 182.709 725.986 182.892 725.735 182.926ZM726.219 178.428C726.063 177.318 725.726 176.313 725.293 175.68C725.042 175.316 724.774 175.091 724.583 175.091C724.575 175.091 724.566 175.091 724.557 175.091C724.081 175.16 723.57 176.625 723.865 178.748C724.159 180.82 725.016 182.077 725.501 182.077H725.509H725.535C725.648 182.059 725.743 181.955 725.812 181.877C726.176 181.401 726.462 180.118 726.219 178.428Z" fill="#643AD6"/>
<path d="M731.56 183.584C731.508 183.593 731.456 183.593 731.404 183.593C731.127 183.593 730.85 183.489 730.59 183.298C729.803 182.709 729.153 181.261 728.911 179.519C728.608 177.361 728.998 175.073 730.339 174.882C731.664 174.7 732.685 176.841 732.98 178.956C733.222 180.698 733.006 182.258 732.408 183.047C732.175 183.35 731.88 183.532 731.56 183.584ZM732.114 179.069C731.828 177.014 730.963 175.731 730.487 175.731C730.478 175.731 730.461 175.731 730.452 175.731C729.976 175.801 729.465 177.266 729.759 179.389C730.002 181.088 730.608 182.224 731.101 182.596C731.222 182.692 731.335 182.726 731.43 182.718C731.517 182.709 731.612 182.64 731.707 182.51C732.071 182.042 732.356 180.759 732.114 179.069Z" fill="#643AD6"/>
<path d="M728.824 184.732L728.13 181.61L727.436 184.732H728.824Z" fill="#FCAD0D"/>
<path opacity="0.15" d="M736.8 194.098C739.298 190.768 737.841 177.678 736.8 171.55L742.004 190.629C751.023 196.526 736.8 206.239 736.8 206.239C742.698 195.486 733.678 198.261 736.8 194.098Z" fill="#333745"/>
<path opacity="0.15" d="M750.329 344.651L766.286 312.043L753.798 351.589L750.329 344.651Z" fill="#333745"/>
<path opacity="0.15" d="M748.942 187.855C744.779 178.974 737.957 170.741 735.066 167.735L741.657 190.283C755.533 199.441 764.09 242.664 768.368 263.478C773.364 264.588 779.7 262.321 780.51 260.702C787.794 244.745 773.572 233.298 768.715 214.912C763.859 196.527 754.146 198.955 748.942 187.855Z" fill="#333745"/>
<path opacity="0.15" d="M748.943 239.542C742.005 251.476 726.858 255.846 720.151 256.54V264.519C736.802 262.854 746.284 247.174 748.943 239.542Z" fill="#333745"/>
<path opacity="0.15" d="M734.024 200.343C729.306 206.171 725.583 217.803 724.311 222.891C722.368 214.843 727.664 201.962 730.555 196.527H734.024V200.343Z" fill="#333745"/>
<path opacity="0.15" d="M732.986 309.961C746.584 314.124 763.859 308.227 770.797 304.758C753.106 307.533 735.53 304.989 729.17 301.983L732.986 309.961Z" fill="#333745"/>
<path d="M330.398 25.9205L333.654 42.9523L327.053 53.7356H321.644L315.452 43.0916L317.543 38.3548C317.543 38.3548 324.941 37.1079 330.398 25.9205ZM324.941 43.8022L324.56 39.3788L322.849 43.8022H324.941Z" fill="#FFC857"/>
<path d="M298.627 44.5964C301.086 44.5964 303.309 45.6065 304.916 47.2226C301.328 50.9146 299.347 56.3898 298.391 62.4363C293.599 62.3179 289.748 58.3751 289.748 53.5198C289.748 48.5879 293.723 44.5964 298.627 44.5964Z" fill="#4D17B2"/>
<path d="M288.917 19.5331C292.248 20.8148 294.617 24.0679 294.617 27.8644C294.617 32.7963 290.642 36.7947 285.738 36.7947C284.747 36.7947 283.785 36.6276 282.891 36.328C283.217 34.1059 283.681 31.9464 284.325 29.8915C285.454 26.2552 287.012 22.7653 288.917 19.5331Z" fill="#4D17B2"/>
<path d="M315.771 15.3884L315.882 15.9248C312.322 19.3241 309.987 25.0432 308.477 30.602L308.193 30.5254C303.906 29.8985 300.616 26.1856 300.616 21.6926C300.616 16.7676 304.592 12.7622 309.496 12.7622C311.948 12.7692 314.157 13.7723 315.771 15.3884Z" fill="#4D17B2"/>
<path d="M337.367 4.39587L337.319 4.4934C336.148 8.05997 332.81 10.6374 328.883 10.6374C323.979 10.6374 320.003 6.63892 320.003 1.71398C320.003 1.1567 320.052 0.613356 320.156 0.0839423V0.000350717C325.6 -0.0135812 331.39 1.33782 337.367 4.39587Z" fill="#4D17B2"/>
<path d="M362.626 28.3029C361.691 32.2108 358.186 35.1296 354.003 35.1296C349.099 35.1296 345.124 31.1311 345.124 26.1992C345.124 21.2743 349.099 17.2758 354.003 17.2758L354.031 17.2479C355.118 18.3625 356.185 19.5467 357.258 20.7866C359.364 23.2247 361.144 25.7394 362.626 28.3029Z" fill="#4D17B2"/>
<path d="M352.154 42.4022C357.051 42.4022 361.033 46.4007 361.033 51.3326C361.033 56.2575 357.051 60.256 352.154 60.256C351.392 60.256 350.651 60.1654 349.944 59.9773L349.806 60.0261C347.88 54.321 345.394 50.7405 343.621 48.7273L343.676 48.6786C344.791 45.0493 348.164 42.4022 352.154 42.4022Z" fill="#4D17B2"/>
<path d="M348.365 110.522C348.323 110.487 348.309 110.438 348.337 110.369C348.953 108.885 350.207 104.496 349.452 100.575C347.741 100.484 346.086 100.282 345.982 99.9198C345.885 99.6064 347.603 99.1466 349.064 98.8192C350.117 98.5754 351.045 98.4082 351.045 98.4082C353.033 86.6079 353.047 77.2804 352.07 70.008L352.153 70.001C352.153 70.001 353.525 63.7386 367.419 68.4058L367.46 68.4128C364.066 84.0444 356.538 96.5065 354.799 99.2441C354.557 99.6133 354.432 99.8084 354.432 99.8084C354.432 99.8084 353.933 107.255 349.113 110.39C348.905 110.522 348.489 110.613 348.365 110.522Z" fill="#FFC857"/>
<path d="M301.177 105.395C300.394 107.172 299.764 108.934 299.03 112.898C298.088 117.927 296.495 101.522 296.495 101.522C296.495 101.522 295.387 99.1399 293.794 95.1414C291.224 88.7188 287.394 78.1166 284.873 66.5113C292.581 61.9277 297.769 68.3294 297.769 68.3294C296.848 83.5431 300.734 99.8155 300.734 99.8155C300.734 99.8155 300.803 99.8643 300.921 99.9688C301.87 100.777 306.191 104.566 304.924 105.535C304.037 106.217 304.044 104.267 301.599 104.462C301.454 104.782 301.315 105.082 301.177 105.395Z" fill="#FFC857"/>
<path d="M324.553 39.3788L324.941 43.8022H322.842L324.553 39.3788Z" fill="#FE8A3A"/>
<path d="M368.091 42.8616C369.843 51.6248 369.192 60.4297 367.454 68.4127L367.412 68.4058C353.518 63.7386 352.147 70.001 352.147 70.001L352.064 70.0079C351.537 66.1209 350.727 62.826 349.792 60.0257L349.931 59.977C350.637 60.165 351.385 60.2556 352.14 60.2556C357.037 60.2556 361.019 56.2571 361.019 51.3322C361.019 46.4003 357.037 42.4018 352.14 42.4018C348.151 42.4018 344.777 45.0489 343.662 48.6782L343.607 48.7269C342.263 47.2083 341.321 46.5675 341.321 46.5675C341.321 9.84987 323.334 12.8174 323.334 12.8174C320.376 12.7616 317.918 13.9528 315.867 15.9172L315.757 15.3809C314.143 13.7717 311.933 12.7616 309.481 12.7616C304.578 12.7616 300.602 16.7671 300.602 21.692C300.602 26.1851 303.892 29.891 308.179 30.5249L308.463 30.6015C306.275 38.6402 305.804 46.3724 305.804 46.3724C305.492 46.6441 305.201 46.9297 304.91 47.2223C303.296 45.5992 301.08 44.5961 298.621 44.5961C293.724 44.5961 289.742 48.5946 289.742 53.5265C289.742 58.3748 293.6 62.3245 298.386 62.4429C298.074 64.3655 297.88 66.3438 297.762 68.3431C297.762 68.3431 292.581 61.9414 284.866 66.525C283.162 58.7161 282.054 50.4615 282.324 42.7083C282.4 40.535 282.573 38.4103 282.892 36.3345C283.785 36.634 284.741 36.8012 285.738 36.8012C290.642 36.8012 294.618 32.8027 294.618 27.8708C294.618 24.0674 292.249 20.8213 288.917 19.5395C295.65 8.19197 306.863 0.0348298 320.148 0V0.0905575C320.051 0.619971 319.995 1.16332 319.995 1.72059C319.995 6.64553 323.971 10.644 328.875 10.644C332.809 10.644 336.14 8.06659 337.311 4.50001L337.359 4.40249C342.81 7.18191 348.407 11.3754 354.024 17.2547L353.996 17.2826C349.093 17.2826 345.117 21.281 345.117 26.206C345.117 31.1379 349.093 35.1363 353.996 35.1363C358.18 35.1363 361.684 32.2246 362.619 28.3097C365.362 33.0326 367.108 37.9436 368.091 42.8616Z" fill="#6310E5"/>
<path d="M333.654 42.9454L330.399 25.9136C324.941 37.1009 317.543 38.3548 317.543 38.3548L315.452 43.0917L314.517 45.2163C314.032 46.8463 312.882 48.2465 311.289 48.8246C309.703 49.4028 307.66 49.2635 305.817 46.3726C305.817 46.3726 306.295 38.6404 308.477 30.6017C309.987 25.0359 312.314 19.3238 315.881 15.9244C317.931 13.96 320.397 12.7688 323.348 12.8245C323.348 12.8245 341.335 9.85006 341.335 46.5746C341.134 46.8602 340.954 47.0971 340.608 47.3688C337.72 49.6884 334.714 48.5112 334.021 44.861L333.654 42.9454Z" fill="#EE4266"/>
<path opacity="0.15" d="M351.046 98.4083C351.046 98.4083 362.973 59.5452 341.217 41.6636L341.335 46.5676C341.328 46.5746 358.519 57.546 351.046 98.4083Z" fill="#0C0C0C"/>
<path opacity="0.15" d="M306.053 41.7192C306.053 41.7192 284.602 55.9716 300.456 100.038C300.456 100.038 290.732 58.2982 305.54 46.5884" fill="#0C0C0C"/>
<path opacity="0.15" d="M341.328 46.5747L338.897 48.3371C338.897 48.3371 338.828 21.8525 328.681 13.6675C328.681 13.6675 340.691 15.3045 341.328 46.5747Z" fill="#0C0C0C"/>
<path opacity="0.15" d="M330.399 25.9205C330.399 25.9205 320.66 36.2441 315.874 35.0042C315.874 35.0042 313.305 48.344 309.717 49.0963C309.717 49.0963 313.242 52.0986 317.543 38.3617C317.543 38.3548 327.358 35.0877 330.399 25.9205Z" fill="#0C0C0C"/>
<defs>
<filter id="filter0_d" x="175.886" y="136.529" width="279.213" height="213.716" filterUnits="userSpaceOnUse" color-interpolation-filters="sRGB">
<feFlood flood-opacity="0" result="BackgroundImageFix"/>
<feColorMatrix in="SourceAlpha" type="matrix" values="0 0 0 0 0 0 0 0 0 0 0 0 0 0 0 0 0 0 127 0"/>
<feOffset dy="4"/>
<feGaussianBlur stdDeviation="2"/>
<feColorMatrix type="matrix" values="0 0 0 0 0.262014 0 0 0 0 0.294529 0 0 0 0 0.408333 0 0 0 0.08 0"/>
<feBlend mode="normal" in2="BackgroundImageFix" result="effect1_dropShadow"/>
<feBlend mode="normal" in="SourceGraphic" in2="effect1_dropShadow" result="shape"/>
</filter>
<filter id="filter1_d" x="175.886" y="136.529" width="279.213" height="213.716" filterUnits="userSpaceOnUse" color-interpolation-filters="sRGB">
<feFlood flood-opacity="0" result="BackgroundImageFix"/>
<feColorMatrix in="SourceAlpha" type="matrix" values="0 0 0 0 0 0 0 0 0 0 0 0 0 0 0 0 0 0 127 0"/>
<feOffset dy="4"/>
<feGaussianBlur stdDeviation="2"/>
<feColorMatrix type="matrix" values="0 0 0 0 0.262014 0 0 0 0 0.294529 0 0 0 0 0.408333 0 0 0 0.08 0"/>
<feBlend mode="normal" in2="BackgroundImageFix" result="effect1_dropShadow"/>
<feBlend mode="normal" in="SourceGraphic" in2="effect1_dropShadow" result="shape"/>
</filter>
<filter id="filter2_d" x="274.593" y="47.9697" width="365.928" height="81.7995" filterUnits="userSpaceOnUse" color-interpolation-filters="sRGB">
<feFlood flood-opacity="0" result="BackgroundImageFix"/>
<feColorMatrix in="SourceAlpha" type="matrix" values="0 0 0 0 0 0 0 0 0 0 0 0 0 0 0 0 0 0 127 0"/>
<feOffset dy="4"/>
<feGaussianBlur stdDeviation="2"/>
<feColorMatrix type="matrix" values="0 0 0 0 0.262014 0 0 0 0 0.294529 0 0 0 0 0.408333 0 0 0 0.08 0"/>
<feBlend mode="normal" in2="BackgroundImageFix" result="effect1_dropShadow"/>
<feBlend mode="normal" in="SourceGraphic" in2="effect1_dropShadow" result="shape"/>
</filter>
<filter id="filter3_d" x="461.859" y="136.529" width="348.358" height="53.2024" filterUnits="userSpaceOnUse" color-interpolation-filters="sRGB">
<feFlood flood-opacity="0" result="BackgroundImageFix"/>
<feColorMatrix in="SourceAlpha" type="matrix" values="0 0 0 0 0 0 0 0 0 0 0 0 0 0 0 0 0 0 127 0"/>
<feOffset dy="4"/>
<feGaussianBlur stdDeviation="2"/>
<feColorMatrix type="matrix" values="0 0 0 0 0.262014 0 0 0 0 0.294529 0 0 0 0 0.408333 0 0 0 0.08 0"/>
<feBlend mode="normal" in2="BackgroundImageFix" result="effect1_dropShadow"/>
<feBlend mode="normal" in="SourceGraphic" in2="effect1_dropShadow" result="shape"/>
</filter>
<filter id="filter4_d" x="461.859" y="196.491" width="205.414" height="185.119" filterUnits="userSpaceOnUse" color-interpolation-filters="sRGB">
<feFlood flood-opacity="0" result="BackgroundImageFix"/>
<feColorMatrix in="SourceAlpha" type="matrix" values="0 0 0 0 0 0 0 0 0 0 0 0 0 0 0 0 0 0 127 0"/>
<feOffset dy="4"/>
<feGaussianBlur stdDeviation="2"/>
<feColorMatrix type="matrix" values="0 0 0 0 0.262014 0 0 0 0 0.294529 0 0 0 0 0.408333 0 0 0 0.08 0"/>
<feBlend mode="normal" in2="BackgroundImageFix" result="effect1_dropShadow"/>
<feBlend mode="normal" in="SourceGraphic" in2="effect1_dropShadow" result="shape"/>
</filter>
<filter id="filter5_d" x="463.859" y="196.491" width="181.119" height="51.0472" filterUnits="userSpaceOnUse" color-interpolation-filters="sRGB">
<feFlood flood-opacity="0" result="BackgroundImageFix"/>
<feColorMatrix in="SourceAlpha" type="matrix" values="0 0 0 0 0 0 0 0 0 0 0 0 0 0 0 0 0 0 127 0"/>
<feOffset dy="2"/>
<feGaussianBlur stdDeviation="1"/>
<feColorMatrix type="matrix" values="0 0 0 0 0.2 0 0 0 0 0.215686 0 0 0 0 0.270588 0 0 0 0.08 0"/>
<feBlend mode="normal" in2="BackgroundImageFix" result="effect1_dropShadow"/>
<feBlend mode="normal" in="SourceGraphic" in2="effect1_dropShadow" result="shape"/>
</filter>
<filter id="filter6_d" x="484.155" y="250.918" width="181.119" height="126.692" filterUnits="userSpaceOnUse" color-interpolation-filters="sRGB">
<feFlood flood-opacity="0" result="BackgroundImageFix"/>
<feColorMatrix in="SourceAlpha" type="matrix" values="0 0 0 0 0 0 0 0 0 0 0 0 0 0 0 0 0 0 127 0"/>
<feOffset dy="2"/>
<feGaussianBlur stdDeviation="1"/>
<feColorMatrix type="matrix" values="0 0 0 0 0.2 0 0 0 0 0.215686 0 0 0 0 0.270588 0 0 0 0.08 0"/>
<feBlend mode="normal" in2="BackgroundImageFix" result="effect1_dropShadow"/>
<feBlend mode="normal" in="SourceGraphic" in2="effect1_dropShadow" result="shape"/>
</filter>
</defs>
</svg>
