<svg width="21" height="20" viewBox="0 0 21 20" fill="none" xmlns="http://www.w3.org/2000/svg">
<path fill-rule="evenodd" clip-rule="evenodd" d="M9.02195 11.1118C8.627 11.1118 8.30682 11.432 8.30682 11.8269C8.30682 12.2219 8.627 12.5421 9.02195 12.5421C9.4169 12.5421 9.73708 12.2219 9.73708 11.8269C9.73708 11.432 9.4169 11.1118 9.02195 11.1118ZM6.80682 11.8269C6.80682 10.6036 7.79857 9.61182 9.02195 9.61182C10.2453 9.61182 11.2371 10.6036 11.2371 11.8269C11.2371 13.0503 10.2453 14.0421 9.02195 14.0421C7.79857 14.0421 6.80682 13.0503 6.80682 11.8269Z" fill="url(#paint0_linear_1004_4209)"/>
<path fill-rule="evenodd" clip-rule="evenodd" d="M9.02193 8.22656C7.03354 8.22656 5.42163 9.83847 5.42163 11.8269C5.42163 13.8152 7.03354 15.4272 9.02193 15.4272C11.0103 15.4272 12.6222 13.8152 12.6222 11.8269C12.6222 9.83847 11.0103 8.22656 9.02193 8.22656ZM3.92163 11.8269C3.92163 9.01004 6.20511 6.72656 9.02193 6.72656C11.8387 6.72656 14.1222 9.01004 14.1222 11.8269C14.1222 14.6437 11.8387 16.9272 9.02193 16.9272C6.20511 16.9272 3.92163 14.6437 3.92163 11.8269Z" fill="url(#paint1_linear_1004_4209)"/>
<path fill-rule="evenodd" clip-rule="evenodd" d="M9.02197 5.27393C5.40279 5.27393 2.46887 8.20784 2.46887 11.827C2.46887 15.4462 5.40279 18.3801 9.02197 18.3801C12.6411 18.3801 15.5751 15.4462 15.5751 11.827C15.5751 8.20784 12.6411 5.27393 9.02197 5.27393ZM0.968872 11.827C0.968872 7.37942 4.57437 3.77393 9.02197 3.77393C13.4696 3.77393 17.0751 7.37942 17.0751 11.827C17.0751 16.2746 13.4696 19.8801 9.02197 19.8801C4.57437 19.8801 0.968872 16.2746 0.968872 11.827Z" fill="url(#paint2_linear_1004_4209)"/>
<path fill-rule="evenodd" clip-rule="evenodd" d="M16.9752 0.2836C17.2411 0.365945 17.4395 0.588734 17.4906 0.862315L17.8846 2.97182L19.9941 3.36583C20.2679 3.41697 20.4908 3.61565 20.573 3.88179C20.6552 4.14793 20.5831 4.4377 20.3858 4.63432L18.1919 6.82074C18.0169 6.99514 17.7672 7.07217 17.5244 7.02668L14.9172 6.5383C14.6129 6.4813 14.3749 6.24317 14.318 5.93883L13.8297 3.32414C13.7842 3.08097 13.8617 2.83103 14.0366 2.65611L16.223 0.469689C16.4198 0.272893 16.7094 0.201254 16.9752 0.2836ZM15.3767 3.43728L15.6982 5.15852L17.4126 5.47965L18.3169 4.5785L17.104 4.35196C16.7995 4.29509 16.5613 4.05689 16.5044 3.75241L16.2774 2.53664L15.3767 3.43728Z" fill="url(#paint3_linear_1004_4209)"/>
<path fill-rule="evenodd" clip-rule="evenodd" d="M17.7723 3.08466C18.065 3.37769 18.0648 3.85256 17.7718 4.14532L9.55206 12.3575C9.25903 12.6503 8.78416 12.6501 8.4914 12.3571C8.19864 12.064 8.19886 11.5892 8.49189 11.2964L16.7116 3.08417C17.0046 2.79141 17.4795 2.79163 17.7723 3.08466Z" fill="url(#paint4_linear_1004_4209)"/>
<defs>
<linearGradient id="paint0_linear_1004_4209" x1="9.02195" y1="9.61182" x2="11.5129" y2="13.2395" gradientUnits="userSpaceOnUse">
<stop stop-color="#6310E5"/>
<stop offset="1" stop-color="#8322FE"/>
</linearGradient>
<linearGradient id="paint1_linear_1004_4209" x1="9.02193" y1="6.72656" x2="14.7573" y2="15.0793" gradientUnits="userSpaceOnUse">
<stop stop-color="#6310E5"/>
<stop offset="1" stop-color="#8322FE"/>
</linearGradient>
<linearGradient id="paint2_linear_1004_4209" x1="9.02197" y1="3.77393" x2="18.0777" y2="16.9625" gradientUnits="userSpaceOnUse">
<stop stop-color="#6310E5"/>
<stop offset="1" stop-color="#8322FE"/>
</linearGradient>
<linearGradient id="paint3_linear_1004_4209" x1="17.2116" y1="0.25" x2="21.0291" y2="5.80958" gradientUnits="userSpaceOnUse">
<stop stop-color="#6310E5"/>
<stop offset="1" stop-color="#8322FE"/>
</linearGradient>
<linearGradient id="paint4_linear_1004_4209" x1="13.1318" y1="2.86475" x2="18.5911" y2="10.8215" gradientUnits="userSpaceOnUse">
<stop stop-color="#6310E5"/>
<stop offset="1" stop-color="#8322FE"/>
</linearGradient>
</defs>
</svg>
