<svg width="119" height="28" viewBox="0 0 119 28" fill="none" xmlns="http://www.w3.org/2000/svg">
<path fill-rule="evenodd" clip-rule="evenodd" d="M23.9531 27.4997H25.5865C25.9649 27.4997 26.2836 27.1825 26.3036 26.8058V9.10342C26.3036 7.35896 24.8893 5.95149 23.1364 5.95149H21.0449C20.6665 5.95149 20.3478 5.6343 20.3478 5.25765V3.65194C20.3478 1.90747 18.9335 0.5 17.1806 0.5H3.65554C1.90266 0.5 0.488403 1.90747 0.488403 3.65194V21.4337C0.488403 23.1583 1.90266 24.5658 3.65554 24.5856H19.3319C19.4713 24.5856 19.6107 24.6252 19.7303 24.7045L23.5547 27.3807C23.6743 27.46 23.8137 27.4997 23.9531 27.4997ZM20.1486 22.068H3.69538C3.297 22.068 2.99821 21.7706 2.99821 21.3742V3.69159C2.99821 3.31494 3.31692 2.99777 3.69538 2.99777H17.1408C17.5192 2.99777 17.838 3.31494 17.838 3.69159V5.25765C17.838 5.6343 17.5192 5.95149 17.1408 5.95149H7.12147C6.74301 5.95149 6.42429 6.26863 6.42429 6.64528V18.4403C6.42429 18.8169 6.74301 19.1341 7.12147 19.1341H19.6307C20.0091 19.1341 20.3279 18.8169 20.3279 18.4403V9.14307C20.3279 8.76643 20.6465 8.44924 21.025 8.44924H23.0767C23.4551 8.44924 23.7738 8.76643 23.7738 9.14307V23.6143C23.7738 23.9711 23.3754 24.1693 23.0966 23.9711L20.5469 22.1869C20.4274 22.1077 20.288 22.068 20.1486 22.068ZM17.4794 16.6165H9.27274C9.09346 16.6165 8.93409 16.4778 8.93409 16.2795V8.78623C8.93409 8.60781 9.07352 8.44924 9.27274 8.44924H17.4794C17.6587 8.44924 17.818 8.58801 17.818 8.78623V16.2795C17.818 16.458 17.6786 16.6165 17.4794 16.6165ZM89.7505 4.26935C90.7967 4.26935 91.6445 3.42555 91.6445 2.38467C91.6445 1.3438 90.7967 0.5 89.7505 0.5C88.7048 0.5 87.8569 1.3438 87.8569 2.38467C87.8569 3.42555 88.7048 4.26935 89.7505 4.26935ZM68.1469 7.02468V5.97761H65.0961V19.0307H68.1469V10.1134L71.7067 8.64758V5.59369H71.6716L68.1469 7.02468ZM56.326 5.96585C54.3445 5.96585 52.7312 6.61154 51.5037 7.92034C50.9428 8.53112 50.5045 9.22914 50.1888 10.0493C49.8908 10.8521 49.7327 11.7072 49.7327 12.5971C49.7327 14.4295 50.2589 15.9476 51.3287 17.1169C52.5033 18.4082 54.1166 19.0364 56.1683 19.0364C58.1671 19.0364 59.7627 18.3908 60.9728 17.082C62.1124 15.8429 62.691 14.2898 62.691 12.4052C62.691 10.5205 62.1301 9.00228 61.0253 7.81564C59.8503 6.57663 58.2897 5.96585 56.326 5.96585ZM58.7107 15.2496C58.1321 15.9651 57.3256 16.3316 56.3082 16.3316C55.2211 16.3316 54.3271 15.9651 53.6606 15.2322C53.3449 14.9006 53.0997 14.4818 52.9243 14.0107C52.7489 13.5395 52.661 13.0508 52.661 12.5273C52.661 11.4803 52.9416 10.6078 53.5203 9.87483C54.1517 9.08953 55.0106 8.68819 56.1155 8.68819C57.2026 8.68819 58.0619 9.05465 58.6756 9.805C59.2543 10.5031 59.5523 11.4105 59.5523 12.5448C59.57 13.6442 59.2893 14.5516 58.7107 15.2496ZM88.2051 5.97978H91.2387V19.0503H88.2051V5.97978ZM41.9146 5.96585C40.1787 5.96585 38.7585 6.47193 37.6536 7.48409C36.6191 8.44387 36.093 9.64797 36.093 11.0964C36.093 12.3877 36.5489 13.4522 37.4609 14.3073C36.6717 14.9355 36.2859 15.6859 36.2859 16.5759C36.2859 17.1169 36.3561 17.588 36.4788 17.9894C36.6016 18.4082 36.847 18.7572 37.2328 19.0713C35.8651 19.8217 35.1988 21.0433 35.2514 22.7185C35.2864 24.1669 35.9177 25.3187 37.1451 26.1912C38.3726 27.0638 40.0033 27.5 42.0021 27.5C44.0013 27.5 45.4917 27.1161 46.5086 26.3483C47.5256 25.5804 48.0341 24.481 48.0341 23.0326C48.0341 21.6017 47.6308 20.4848 46.8244 19.6996C46.3861 19.2808 45.8248 18.9492 45.1409 18.6525C44.4396 18.3733 43.4928 18.129 42.2654 17.937C41.038 17.7451 40.1609 17.5357 39.6351 17.2739C39.3895 17.1692 39.2319 17.047 39.1617 16.9249C39.0916 16.8027 39.0565 16.6282 39.0565 16.4014C39.0565 16.1745 39.2141 15.8604 39.5121 15.459C40.196 15.6859 40.9501 15.808 41.7569 15.808C43.405 15.808 44.7554 15.3194 45.8248 14.3248C46.2982 13.871 46.6667 13.3301 46.9296 12.7193C47.1925 12.1085 47.3155 11.4279 47.3155 10.6775C47.3155 9.92716 47.1401 9.21168 46.7893 8.54857C46.7893 8.54857 46.7893 8.53112 46.7716 8.53112H48.0518V5.96585H41.9146ZM39.7928 20.0835L40.4242 20.1882C42.1952 20.4499 43.4578 20.799 44.1767 21.2701C44.8255 21.6715 45.1409 22.2124 45.1409 22.8756C45.1409 24.2716 44.1416 24.9522 42.1424 24.9522C40.9678 24.9522 40.021 24.7079 39.2843 24.2367C38.9512 24.0273 38.6883 23.7656 38.5129 23.4689C38.3198 23.1722 38.2323 22.8407 38.2323 22.4393C38.2323 22.038 38.3549 21.6191 38.6004 21.1829C38.8637 20.7291 39.267 20.3801 39.7928 20.0835ZM43.6154 12.5971C43.1243 13.0334 42.5457 13.2603 41.8972 13.2603C41.0202 13.2603 40.319 13.016 39.7754 12.5273C39.5299 12.3179 39.3545 12.0562 39.2141 11.7944C39.0916 11.5152 39.0214 11.236 39.0214 10.9393C39.0214 10.6426 39.0738 10.346 39.1968 10.0493C39.5823 9.05465 40.4416 8.56603 41.792 8.56603C42.5985 8.56603 43.2473 8.77543 43.7033 9.19426C44.159 9.61306 44.4046 10.1715 44.4046 10.8521C44.3868 11.5152 44.1239 12.1085 43.6154 12.5971ZM104.635 8.81034C104.863 9.40366 104.985 10.1017 104.985 10.8521V19.0015H102.005V18.3908C101.11 18.7921 100.286 19.0015 99.532 19.0015C98.5852 19.0015 97.7961 18.9143 97.13 18.7398C96.4634 18.5653 95.9025 18.3035 95.4465 17.9719C94.517 17.2739 94.0436 16.2792 94.0436 14.9879C94.0436 13.8361 94.6049 12.8589 95.7622 12.091C97.007 11.2534 98.7078 10.8346 100.847 10.8346L101.338 10.8521C101.389 10.8521 101.439 10.8561 101.492 10.8603C101.549 10.8648 101.608 10.8695 101.671 10.8695C101.73 10.8779 101.785 10.8822 101.838 10.8864C101.895 10.891 101.95 10.8953 102.005 10.9044C101.934 9.61306 101.373 8.84522 100.321 8.63582C99.9881 8.56603 99.6022 8.53112 99.2163 8.53112C98.8131 8.53112 98.4276 8.56603 98.059 8.63582C97.6735 8.70564 97.305 8.81034 96.9546 8.91504C96.1828 9.15935 95.6041 9.45599 95.2711 9.77013L95.236 9.75267L94.8678 7.08271C96.288 6.33232 97.8663 5.96585 99.5671 5.96585C102.215 5.96585 103.898 6.90822 104.635 8.81034ZM102.005 15.9128V14.2375V13.1032C101.776 13.0683 101.549 13.0508 101.321 13.0508H100.83C99.0413 13.0508 97.9014 13.4522 97.4102 14.2375C97.2703 14.4644 97.2001 14.7087 97.2001 14.9704C97.2001 15.2322 97.2525 15.459 97.3401 15.651C97.4453 15.8429 97.6033 16.0175 97.8138 16.1396C98.2344 16.3839 98.8659 16.5061 99.6901 16.5061C100.514 16.5061 101.286 16.2967 102.005 15.9128ZM116.192 11.742C116.701 11.9863 117.122 12.283 117.437 12.632C118.016 13.2603 118.314 14.0979 118.314 15.1798C118.314 16.3141 117.858 17.239 116.946 17.9545C115.999 18.7049 114.667 19.0713 112.949 19.0713C110.879 19.0713 109.266 18.7223 108.126 18.0417V14.8308C108.126 14.8134 108.197 14.8832 108.319 15.0228C108.442 15.1624 108.688 15.3194 109.021 15.5289C109.354 15.7382 109.757 15.9128 110.195 16.0698C111.16 16.4014 112.159 16.5584 113.212 16.5584C114.614 16.5584 115.316 16.0873 115.316 15.1624C115.316 14.8657 115.175 14.6389 114.912 14.4992C114.439 14.2549 113.737 14.063 112.808 13.9408C111.879 13.8012 111.125 13.6267 110.529 13.3824C109.932 13.1381 109.441 12.8414 109.073 12.5099C108.389 11.8642 108.039 11.0266 108.039 9.99698C108.039 8.74052 108.53 7.74585 109.494 7.03038C110.459 6.31486 111.791 5.96585 113.492 5.96585C115.175 5.96585 116.613 6.43702 117.806 7.39681C117.753 7.60624 117.7 7.81564 117.63 8.00758C117.437 8.54857 117.297 8.9325 117.21 9.15935L116.929 9.87483C116.911 9.94461 116.894 9.97953 116.894 9.97953C116.876 9.97953 116.806 9.89228 116.701 9.71776C116.192 9.12444 115.386 8.74052 114.316 8.54857C113.983 8.47875 113.65 8.44387 113.299 8.44387C111.826 8.44387 111.09 8.88013 111.09 9.77013C111.09 10.0668 111.23 10.3111 111.546 10.4681C112.124 10.7822 112.914 11.0091 113.913 11.1487C114.912 11.3058 115.666 11.4977 116.192 11.742ZM79.2796 5.96585C77.5437 5.96585 76.1231 6.47193 75.0186 7.48409C73.9839 8.44387 73.4581 9.64797 73.4581 11.0964C73.4581 12.3877 73.9138 13.4522 74.8259 14.3073C74.0367 14.9355 73.6509 15.6859 73.6509 16.5759C73.6509 17.1169 73.721 17.588 73.8436 17.9894C73.9666 18.4082 74.2121 18.7572 74.5977 19.0713C73.2299 19.8217 72.5637 21.0433 72.6162 22.7185C72.6513 24.1669 73.2827 25.3187 74.5101 26.1912C75.7376 27.0638 77.3683 27.5 79.3671 27.5C81.3663 27.5 82.8567 27.1161 83.8736 26.3483C84.8906 25.5804 85.3991 24.481 85.3991 23.0326C85.3991 21.6017 84.9958 20.4848 84.1894 19.6996C83.751 19.2808 83.1898 18.9492 82.5059 18.6525C81.8046 18.3733 80.8578 18.129 79.6304 17.937C78.403 17.7451 77.5259 17.5357 77.0001 17.2739C76.7545 17.1692 76.5969 17.047 76.5267 16.9249C76.4566 16.8027 76.4215 16.6282 76.4215 16.4014C76.4215 16.1745 76.5791 15.8604 76.8771 15.459C77.561 15.6859 78.3151 15.808 79.1216 15.808C80.77 15.808 82.12 15.3194 83.1898 14.3248C83.6632 13.871 84.0313 13.3301 84.2946 12.7193C84.5575 12.1085 84.6801 11.4279 84.6801 10.6775C84.6801 9.92716 84.5051 9.21168 84.1543 8.54857C84.1543 8.54857 84.1543 8.53112 84.1366 8.53112H85.4168V5.96585H79.2796ZM77.1578 20.0835L77.7892 20.1882C79.5602 20.4499 80.8228 20.799 81.5414 21.2701C82.1902 21.6715 82.5059 22.2124 82.5059 22.8756C82.5059 24.2716 81.5066 24.9522 79.5074 24.9522C78.3328 24.9522 77.3856 24.7079 76.6493 24.2367C76.3162 24.0273 76.0533 23.7656 75.8779 23.4689C75.6848 23.1722 75.5973 22.8407 75.5973 22.4393C75.5973 22.038 75.7199 21.6191 75.9654 21.1829C76.2283 20.7291 76.632 20.3801 77.1578 20.0835ZM80.9804 12.5971C80.4893 13.0334 79.9107 13.2603 79.2619 13.2603C78.3852 13.2603 77.684 13.016 77.1404 12.5273C76.8949 12.3179 76.7195 12.0562 76.5791 11.7944C76.4566 11.5152 76.3864 11.236 76.3864 10.9393C76.3864 10.6426 76.4388 10.346 76.5618 10.0493C76.9473 9.05465 77.8066 8.56603 79.1566 8.56603C79.9635 8.56603 80.6123 8.77543 81.068 9.19426C81.524 9.61306 81.7696 10.1715 81.7696 10.8521C81.7518 11.5152 81.4889 12.1085 80.9804 12.5971Z" fill="#B6A2D7"/>
</svg>
