<svg width="320" height="75" viewBox="0 0 320 75" fill="none" xmlns="http://www.w3.org/2000/svg">
<path fill-rule="evenodd" clip-rule="evenodd" d="M63.5441 74.4099H67.9673C68.9922 74.4099 69.8553 73.5468 69.9093 72.5219V24.3514C69.9093 19.6045 66.0793 15.7746 61.3324 15.7746H55.6685C54.6436 15.7746 53.7805 14.9115 53.7805 13.8866V9.51726C53.7805 4.77033 49.9506 0.94043 45.2037 0.94043H8.57683C3.8299 0.94043 0 4.77033 0 9.51726V57.9035C0 62.5965 3.8299 66.4264 8.57683 66.4803H51.0294C51.407 66.4803 51.7846 66.5882 52.1083 66.804L62.4652 74.0862C62.7889 74.302 63.1665 74.4099 63.5441 74.4099ZM53.2411 59.6297H8.68471C7.60587 59.6297 6.79673 58.8205 6.79673 57.7417V9.62514C6.79673 8.60024 7.65981 7.73716 8.68471 7.73716H45.0958C46.1207 7.73716 46.9838 8.60024 46.9838 9.62514V13.8866C46.9838 14.9115 46.1207 15.7746 45.0958 15.7746H17.9628C16.9379 15.7746 16.0748 16.6376 16.0748 17.6625V49.7582C16.0748 50.7831 16.9379 51.6462 17.9628 51.6462H51.8386C52.8635 51.6462 53.7266 50.7831 53.7266 49.7582V24.4593C53.7266 23.4344 54.5896 22.5713 55.6145 22.5713H61.1706C62.1955 22.5713 63.0586 23.4344 63.0586 24.4593V63.8372C63.0586 64.8081 61.9797 65.3476 61.2245 64.8081L54.3199 59.9533C53.9963 59.7376 53.6187 59.6297 53.2411 59.6297ZM46.0128 44.7955H23.7886C23.3031 44.7955 22.8715 44.4179 22.8715 43.8785V23.4883C22.8715 23.0028 23.2491 22.5713 23.7886 22.5713H46.0128C46.4983 22.5713 46.9298 22.9489 46.9298 23.4883V43.8785C46.9298 44.364 46.5522 44.7955 46.0128 44.7955ZM241.728 11.1973C244.561 11.1973 246.857 8.90122 246.857 6.06886C246.857 3.23651 244.561 0.94043 241.728 0.94043C238.896 0.94043 236.6 3.23651 236.6 6.06886C236.6 8.90122 238.896 11.1973 241.728 11.1973ZM183.224 18.6949V15.8457H174.962V51.3649H183.224V27.0998L192.864 23.111V14.801H192.769L183.224 18.6949ZM151.212 15.8137C145.846 15.8137 141.477 17.5707 138.153 21.1321C136.634 22.7941 135.447 24.6935 134.592 26.9253C133.785 29.1097 133.357 31.4365 133.357 33.8582C133.357 38.8442 134.782 42.9754 137.679 46.157C140.86 49.6709 145.229 51.3804 150.785 51.3804C156.198 51.3804 160.519 49.6234 163.796 46.062C166.882 42.6905 168.449 38.4643 168.449 33.3359C168.449 28.2075 166.93 24.0762 163.938 20.8472C160.756 17.4757 156.53 15.8137 151.212 15.8137ZM157.67 41.076C156.103 43.0229 153.919 44.0201 151.164 44.0201C148.22 44.0201 145.799 43.0229 143.994 41.0285C143.139 40.1263 142.475 38.9867 142 37.7046C141.525 36.4224 141.287 35.0928 141.287 33.6683C141.287 30.8192 142.047 28.4449 143.614 26.4505C145.324 24.3136 147.65 23.2215 150.642 23.2215C153.586 23.2215 155.913 24.2187 157.575 26.2605C159.142 28.16 159.949 30.6292 159.949 33.7158C159.997 36.7074 159.237 39.1766 157.67 41.076ZM237.543 15.8516H245.758V51.4182H237.543V15.8516ZM112.185 15.8137C107.484 15.8137 103.638 17.1908 100.646 19.945C97.8444 22.5567 96.4198 25.8332 96.4198 29.7745C96.4198 33.2884 97.6544 36.185 100.124 38.5118C97.9868 40.2213 96.9422 42.2631 96.9422 44.6849C96.9422 46.157 97.1321 47.4391 97.4645 48.5312C97.7969 49.6709 98.4617 50.6206 99.5064 51.4753C95.8025 53.5172 93.9981 56.8412 94.1405 61.3998C94.2355 65.3411 95.945 68.4751 99.269 70.8494C102.593 73.2237 107.009 74.4108 112.422 74.4108C117.836 74.4108 121.872 73.3661 124.626 71.2768C127.38 69.1874 128.757 66.1958 128.757 62.2545C128.757 58.3607 127.665 55.3216 125.481 53.1848C124.294 52.0452 122.774 51.1429 120.922 50.3357C119.023 49.5759 116.459 48.9111 113.135 48.3888C109.811 47.8664 107.436 47.2966 106.012 46.5843C105.347 46.2994 104.92 45.967 104.73 45.6346C104.54 45.3022 104.445 44.8274 104.445 44.21C104.445 43.5927 104.872 42.738 105.679 41.6458C107.531 42.2631 109.573 42.5955 111.758 42.5955C116.221 42.5955 119.878 41.2659 122.774 38.5593C124.056 37.3247 125.054 35.8526 125.766 34.1906C126.478 32.5286 126.811 30.6767 126.811 28.6348C126.811 26.5929 126.336 24.646 125.386 22.8416C125.386 22.8416 125.386 22.7941 125.338 22.7941H128.805V15.8137H112.185ZM106.439 54.2295L108.149 54.5144C112.945 55.2267 116.364 56.1764 118.311 57.4585C120.068 58.5507 120.922 60.0227 120.922 61.8272C120.922 65.626 118.216 67.4779 112.802 67.4779C109.621 67.4779 107.057 66.8131 105.062 65.531C104.16 64.9612 103.448 64.2489 102.973 63.4417C102.45 62.6344 102.213 61.7322 102.213 60.64C102.213 59.5479 102.545 58.4082 103.21 57.2211C103.923 55.9864 105.015 55.0367 106.439 54.2295ZM116.791 33.8582C115.461 35.0454 113.894 35.6627 112.138 35.6627C109.763 35.6627 107.864 34.9979 106.392 33.6683C105.727 33.0984 105.252 32.3862 104.872 31.6739C104.54 30.9141 104.35 30.1544 104.35 29.3471C104.35 28.5398 104.492 27.7326 104.825 26.9253C105.869 24.2187 108.196 22.8891 111.853 22.8891C114.037 22.8891 115.794 23.4589 117.029 24.5986C118.263 25.7382 118.928 27.2577 118.928 29.1097C118.88 30.9141 118.168 32.5286 116.791 33.8582ZM282.035 23.5539C282.653 25.1684 282.985 27.0678 282.985 29.1097V51.2854H274.913V49.6234C272.491 50.7156 270.259 51.2854 268.217 51.2854C265.653 51.2854 263.516 51.048 261.712 50.5731C259.907 50.0983 258.388 49.386 257.153 48.4837C254.636 46.5843 253.354 43.8777 253.354 40.3637C253.354 37.2297 254.874 34.5705 258.008 32.4811C261.379 30.2018 265.985 29.0622 271.779 29.0622L273.108 29.1097C273.245 29.1097 273.382 29.1206 273.524 29.132C273.678 29.1444 273.838 29.1572 274.01 29.1572C274.17 29.1799 274.318 29.1918 274.461 29.2032C274.616 29.2155 274.764 29.2274 274.913 29.2521C274.723 25.7382 273.203 23.6488 270.354 23.079C269.452 22.8891 268.407 22.7941 267.362 22.7941C266.27 22.7941 265.226 22.8891 264.228 23.079C263.184 23.269 262.186 23.5539 261.237 23.8388C259.147 24.5036 257.58 25.3108 256.678 26.1656L256.583 26.1181L255.586 18.8528C259.432 16.8109 263.706 15.8137 268.312 15.8137C275.482 15.8137 280.041 18.378 282.035 23.5539ZM274.913 42.8805V38.3219V35.2353C274.295 35.1403 273.678 35.0928 273.061 35.0928H271.731C266.888 35.0928 263.801 36.185 262.471 38.3219C262.092 38.9392 261.902 39.604 261.902 40.3162C261.902 41.0285 262.044 41.6458 262.281 42.1682C262.566 42.6905 262.994 43.1654 263.564 43.4978C264.703 44.1626 266.413 44.495 268.645 44.495C270.876 44.495 272.966 43.9251 274.913 42.8805ZM313.334 31.5314C314.711 32.1962 315.851 33.0035 316.706 33.9532C318.273 35.6627 319.08 37.942 319.08 40.8861C319.08 43.9726 317.845 46.4893 315.376 48.4363C312.812 50.4781 309.203 51.4753 304.55 51.4753C298.946 51.4753 294.578 50.5256 291.491 48.6737V39.9364C291.491 39.8889 291.681 40.0788 292.013 40.4587C292.346 40.8386 293.011 41.2659 293.913 41.8358C294.815 42.4056 295.907 42.8805 297.094 43.3078C299.706 44.21 302.413 44.6374 305.262 44.6374C309.061 44.6374 310.96 43.3553 310.96 40.8386C310.96 40.0313 310.58 39.414 309.868 39.0341C308.586 38.3693 306.686 37.847 304.17 37.5146C301.653 37.1347 299.611 36.6599 297.997 35.9951C296.382 35.3303 295.052 34.523 294.055 33.6208C292.203 31.8638 291.254 29.5845 291.254 26.7829C291.254 23.3639 292.583 20.6573 295.195 18.7104C297.807 16.7634 301.415 15.8137 306.022 15.8137C310.58 15.8137 314.474 17.0958 317.703 19.7075C317.561 20.2774 317.418 20.8472 317.228 21.3695C316.706 22.8416 316.326 23.8863 316.089 24.5036L315.329 26.4505C315.281 26.6404 315.234 26.7354 315.234 26.7354C315.186 26.7354 314.996 26.498 314.711 26.0231C313.334 24.4086 311.15 23.3639 308.253 22.8416C307.351 22.6516 306.449 22.5567 305.499 22.5567C301.51 22.5567 299.516 23.7438 299.516 26.1656C299.516 26.9728 299.896 27.6376 300.751 28.065C302.318 28.9197 304.455 29.537 307.161 29.9169C309.868 30.3443 311.91 30.8666 313.334 31.5314ZM213.372 15.8137C208.671 15.8137 204.824 17.1908 201.833 19.945C199.031 22.5567 197.607 25.8332 197.607 29.7745C197.607 33.2884 198.841 36.185 201.311 38.5118C199.174 40.2213 198.129 42.2631 198.129 44.6849C198.129 46.157 198.319 47.4391 198.651 48.5312C198.984 49.6709 199.649 50.6206 200.693 51.4753C196.989 53.5172 195.185 56.8412 195.327 61.3998C195.422 65.3411 197.132 68.4751 200.456 70.8494C203.78 73.2237 208.196 74.4108 213.609 74.4108C219.023 74.4108 223.059 73.3661 225.813 71.2768C228.567 69.1874 229.944 66.1958 229.944 62.2545C229.944 58.3607 228.852 55.3216 226.668 53.1848C225.481 52.0452 223.961 51.1429 222.109 50.3357C220.21 49.5759 217.646 48.9111 214.322 48.3888C210.998 47.8664 208.623 47.2966 207.199 46.5843C206.534 46.2994 206.107 45.967 205.917 45.6346C205.727 45.3022 205.632 44.8274 205.632 44.21C205.632 43.5927 206.059 42.738 206.866 41.6458C208.718 42.2631 210.76 42.5955 212.944 42.5955C217.408 42.5955 221.064 41.2659 223.961 38.5593C225.243 37.3247 226.24 35.8526 226.953 34.1906C227.665 32.5286 227.997 30.6767 227.997 28.6348C227.997 26.5929 227.523 24.646 226.573 22.8416C226.573 22.8416 226.573 22.7941 226.525 22.7941H229.992V15.8137H213.372ZM207.626 54.2295L209.336 54.5144C214.132 55.2267 217.551 56.1764 219.497 57.4585C221.254 58.5507 222.109 60.0227 222.109 61.8272C222.109 65.626 219.403 67.4779 213.989 67.4779C210.808 67.4779 208.243 66.8131 206.249 65.531C205.347 64.9612 204.635 64.2489 204.16 63.4417C203.637 62.6344 203.4 61.7322 203.4 60.64C203.4 59.5479 203.732 58.4082 204.397 57.2211C205.109 55.9864 206.202 55.0367 207.626 54.2295ZM217.978 33.8582C216.648 35.0454 215.081 35.6627 213.324 35.6627C210.95 35.6627 209.051 34.9979 207.579 33.6683C206.914 33.0984 206.439 32.3862 206.059 31.6739C205.727 30.9141 205.537 30.1544 205.537 29.3471C205.537 28.5398 205.679 27.7326 206.012 26.9253C207.056 24.2187 209.383 22.8891 213.039 22.8891C215.224 22.8891 216.981 23.4589 218.215 24.5986C219.45 25.7382 220.115 27.2577 220.115 29.1097C220.067 30.9141 219.355 32.5286 217.978 33.8582Z" fill="black"/>
</svg>
