<svg width="76" height="81" viewBox="0 0 76 81" fill="none" xmlns="http://www.w3.org/2000/svg">
<path d="M73.8889 80.8108H69.0802C68.6697 80.8108 68.2593 80.6935 67.9074 80.4589L56.6481 72.5423C56.2963 72.3077 55.8858 72.1904 55.4753 72.1904H9.32407C4.16358 72.1318 0 67.9682 0 62.8664V10.2645C0 5.10401 4.16358 0.94043 9.32407 0.94043H49.142C54.3025 0.94043 58.466 5.10401 58.466 10.2645V15.0145C58.466 16.1287 59.4043 17.067 60.5185 17.067H66.6759C71.8364 17.067 76 21.2305 76 26.391V78.7583C75.9414 79.8725 75.0031 80.8108 73.8889 80.8108ZM9.44136 64.7429H57.8796C58.2901 64.7429 58.7006 64.8602 59.0525 65.0948L66.5586 70.3725C67.3796 70.9589 68.5525 70.3725 68.5525 69.317V26.5083C68.5525 25.3941 67.6142 24.4559 66.5 24.4559H60.4599C59.3457 24.4559 58.4074 25.3941 58.4074 26.5083V54.0114C58.4074 55.1256 57.4691 56.0639 56.3549 56.0639H19.5278C18.4136 56.0639 17.4753 55.1256 17.4753 54.0114V19.1194C17.4753 18.0052 18.4136 17.067 19.5278 17.067H49.0247C50.1389 17.067 51.0772 16.1287 51.0772 15.0145V10.3818C51.0772 9.26759 50.1389 8.32932 49.0247 8.32932H9.44136C8.32716 8.32932 7.38889 9.26759 7.38889 10.3818V62.6904C7.38889 63.8633 8.26852 64.7429 9.44136 64.7429ZM25.8611 48.6164H50.0216C50.608 48.6164 51.0185 48.1472 51.0185 47.6194V25.4528C51.0185 24.8664 50.5494 24.4559 50.0216 24.4559H25.8611C25.2747 24.4559 24.8642 24.925 24.8642 25.4528V47.6194C24.8642 48.2059 25.3333 48.6164 25.8611 48.6164Z" fill="black"/>
</svg>
