<svg width="16" height="16" viewBox="0 0 16 16" fill="none" xmlns="http://www.w3.org/2000/svg">
<rect x="0.5" y="0.5" width="15" height="15" rx="7.5" stroke="#8A91A8"/>
<path d="M8.14873 9.204L8.12473 9.6C8.00473 9.6 6.81673 9.6 6.69673 9.6L6.67273 9.204C6.67273 7.644 7.29673 7.368 8.58073 6.744C8.95273 6.588 9.03673 6.228 9.03673 5.964C9.03673 5.46 8.56873 5.1 7.99273 5.1C7.41673 5.1 6.97273 5.508 6.97273 6.144C6.85273 6.144 5.64073 6.144 5.52073 6.144C5.52073 4.608 6.56473 3.636 7.99273 3.636C9.42073 3.636 10.5007 4.536 10.5007 5.976C10.5007 7.14 9.78073 7.956 8.84473 8.244C8.35273 8.4 8.14873 8.64 8.14873 9.204ZM6.48073 11.196C6.48073 10.68 6.91273 10.284 7.42873 10.284C7.94473 10.284 8.37673 10.68 8.37673 11.196C8.37673 11.736 7.94473 12.12 7.42873 12.12C6.91273 12.12 6.48073 11.736 6.48073 11.196Z" fill="#8A91A8"/>
</svg>
