<svg width="95" height="76" viewBox="0 0 95 76" fill="none" xmlns="http://www.w3.org/2000/svg">
<path d="M9.53252 51.9986C4.15669 32.3931 13.0051 13.6682 30.6814 8.82134C48.3576 3.97452 66.0434 12.2864 72.2194 34.8098C76.9184 51.9472 64.2673 61.9969 46.5911 66.8437C28.9149 71.6905 14.9083 71.6041 9.53252 51.9986Z" fill="#FAFAFA"/>
<path d="M63.6578 34.6014C61.2182 25.7043 65.2337 17.2068 73.2553 15.0073C81.2768 12.8078 89.3028 16.5798 92.1055 26.801C94.2379 34.5781 88.4968 39.1386 80.4752 41.3382C72.4536 43.5377 66.0974 43.4984 63.6578 34.6014Z" fill="#FAFAFA"/>
<path d="M52.1535 56.4935C49.331 46.1997 54.983 36.0923 65.6315 33.1725C76.28 30.2527 86.6746 34.3128 89.9172 46.1387C92.3845 55.1367 84.6333 60.7172 73.9849 63.637C63.3364 66.5568 54.9761 66.7873 52.1535 56.4935Z" fill="#FAFAFA"/>
</svg>
