<svg width="113" height="36" viewBox="0 0 113 36" fill="none" xmlns="http://www.w3.org/2000/svg">
<path d="M32.9038 9.58393C29.8233 4.07208 24.0772 0.693848 17.7979 0.693848V17.9999L32.9038 9.58393Z" fill="#B6A2D7"/>
<path d="M32.6076 26.89C35.8065 21.4967 35.8657 14.7995 32.7261 9.34692L17.7979 17.9999L32.6076 26.89Z" fill="#B6A2D7"/>
<path d="M17.5016 35.306C23.7809 35.4246 29.6456 32.1056 32.7852 26.653L17.7978 18L17.5016 35.306Z" fill="#B6A2D7"/>
<path d="M2.69189 26.3567C5.71308 31.8685 11.5185 35.2468 17.7978 35.306V18L2.69189 26.3567Z" fill="#B6A2D7"/>
<path d="M2.98812 9.10986C-0.270016 14.5032 -0.329254 21.2004 2.81041 26.653L17.7979 17.9999L2.98812 9.10986Z" fill="#B6A2D7"/>
<path d="M18.0939 0.69399C11.8146 0.575456 5.94997 3.89442 2.8103 9.34701L17.7977 18L18.0939 0.69399Z" fill="#B6A2D7"/>
<path d="M17.7977 31.6908C25.3553 31.6908 31.4819 25.5612 31.4819 18.0001C31.4819 10.4389 25.3553 4.30933 17.7977 4.30933C10.2401 4.30933 4.11353 10.4389 4.11353 18.0001C4.11353 25.5612 10.2401 31.6908 17.7977 31.6908Z" fill="#190539"/>
<path d="M63.5895 16.874C63.6488 15.5701 63.2341 14.3255 62.4047 13.318C61.5754 12.4289 60.3906 11.9548 59.1466 12.0141C58.258 12.0141 57.3694 12.2511 56.5993 12.7253C55.8292 13.1994 55.2368 13.8514 54.8814 14.6218C54.4667 15.5108 54.289 16.4591 54.289 17.4074C54.2298 18.8298 54.7037 20.2522 55.7107 21.2598C56.7178 22.2673 58.1395 22.7414 59.5613 22.6822C60.0944 22.6822 60.6868 22.6229 61.22 22.4451C61.7531 22.3266 62.3455 22.0895 62.8194 21.7932C63.2341 21.6154 63.5303 21.2005 63.5895 20.7856C63.5895 20.5486 63.5303 20.3708 63.4118 20.193C63.2933 20.0744 63.1156 19.9559 62.9379 19.9559C62.7602 19.9559 62.6417 20.0152 62.464 20.0744C62.3455 20.1337 62.227 20.193 62.1086 20.2522C61.7531 20.43 61.3384 20.6671 60.9238 20.7856C60.4499 20.9634 59.976 21.0227 59.502 20.9634C57.5472 20.9634 56.5401 19.8966 56.3624 17.7037H62.8194C63.2933 17.7037 63.5895 17.4074 63.5895 16.874ZM56.3624 16.3406C56.4216 15.5701 56.7178 14.8589 57.251 14.2662C57.7841 13.7328 58.495 13.4365 59.2058 13.4958C59.9167 13.4365 60.5683 13.7328 61.0423 14.2662C61.5162 14.8589 61.7531 15.5701 61.7531 16.3406H56.3624ZM112.462 12.9624C112.462 13.0809 112.462 13.2587 112.402 13.3772L106.182 26.5938C106.123 26.7716 106.005 26.9494 105.827 27.068C105.649 27.1865 105.471 27.2458 105.294 27.2458C105.057 27.2458 104.82 27.1865 104.642 27.0087C104.464 26.8309 104.346 26.6531 104.346 26.3567C104.346 26.2382 104.405 26.0604 104.464 25.9419L106.301 22.0302L102.213 13.3772C102.036 13.0216 102.154 12.5475 102.45 12.3104C102.687 12.1326 102.924 12.0141 103.22 12.0141C103.635 12.0141 103.99 12.2511 104.109 12.6067L107.367 19.8374L110.566 12.666C110.625 12.4882 110.744 12.3104 110.921 12.1919C111.099 12.0733 111.277 12.0733 111.455 12.0733C111.692 12.0733 111.988 12.1919 112.165 12.3697C112.343 12.4882 112.462 12.7253 112.462 12.9624ZM100.318 9.16925V22.2673C100.318 22.4451 100.199 22.5636 100.021 22.5636H98.5405C98.3628 22.5636 98.2443 22.4451 98.2443 22.2673V9.16925C98.2443 8.87291 98.3628 8.63584 98.5405 8.39877C98.7774 8.22097 99.0144 8.1617 99.3106 8.1617C99.6068 8.1617 99.8437 8.22097 100.081 8.39877C100.199 8.57658 100.318 8.87291 100.318 9.16925ZM95.7563 9.16925V22.2673C95.7563 22.4451 95.6378 22.5636 95.4601 22.5636H93.9198C93.7421 22.5636 93.6237 22.4451 93.6237 22.2673V9.16925C93.6237 8.87291 93.7421 8.63584 93.9198 8.39877C94.1568 8.22097 94.3938 8.1617 94.69 8.1617C94.9862 8.1617 95.2231 8.22097 95.4601 8.39877C95.6378 8.57658 95.7563 8.87291 95.7563 9.16925ZM75.0819 16.1035V22.2673C75.0819 22.4451 74.9634 22.5636 74.7857 22.5636H73.2455C73.0678 22.5636 72.9493 22.4451 72.9493 22.2673V16.2221C73.0085 15.5701 72.8308 14.8589 72.4161 14.3255C72.0014 13.9106 71.4091 13.6736 70.8167 13.7328C70.0466 13.7328 69.3357 13.9699 68.7433 14.5033C68.2102 15.096 67.914 15.8664 67.9732 16.6369V22.3266C67.9732 22.5044 67.8547 22.6229 67.677 22.6229H66.0776C65.8998 22.6229 65.7814 22.5044 65.7814 22.3266V13.0216C65.7814 12.7253 65.8998 12.4882 66.0776 12.3104C66.3145 12.1326 66.5515 12.0141 66.8477 12.0141C67.1439 12.0141 67.3808 12.0733 67.5585 12.3104C67.7362 12.4882 67.8547 12.7846 67.8547 13.0216V13.4958C67.8547 13.555 67.914 13.6143 67.9732 13.6143C68.0324 13.6143 68.0324 13.6143 68.0917 13.555C68.3879 13.1402 68.8026 12.7253 69.2765 12.4882C69.9281 12.1326 70.5797 12.0141 71.2906 12.0141C73.8971 11.9548 75.0819 13.3772 75.0819 16.1035ZM79.7025 12.2511C79.8802 12.4289 79.9987 12.7253 79.9987 13.0216V22.3266C79.9987 22.4451 79.8802 22.5636 79.7618 22.5636H78.1031C77.9846 22.5636 77.8661 22.4451 77.8661 22.3266V13.0216C77.8661 12.7253 77.9846 12.4289 78.1623 12.2511C78.3993 12.0733 78.6362 11.9548 78.9324 12.0141C79.2286 12.0141 79.4656 12.0733 79.7025 12.2511ZM80.1764 8.75438C80.1764 9.40632 79.6433 9.99899 78.9324 9.99899C78.2215 9.99899 77.6884 9.46558 77.6884 8.75438C77.6884 8.10244 78.2215 7.50977 78.9324 7.50977C79.584 7.50977 80.1764 8.10244 80.1764 8.75438ZM87.1074 11.9548C86.4557 11.9548 85.8041 12.0141 85.2117 12.1919C84.6193 12.3104 84.027 12.5475 83.4938 12.8438C83.2568 12.9624 83.0791 13.1402 82.9014 13.318C82.7829 13.4958 82.7237 13.6736 82.7237 13.8514C82.7237 14.0884 82.7829 14.2662 82.9014 14.444C83.0199 14.6218 83.1976 14.6811 83.4346 14.6811C83.7308 14.6218 83.9677 14.5033 84.2047 14.3848C84.6786 14.1477 85.1525 13.9699 85.6264 13.8514C86.1003 13.7328 86.515 13.6736 86.9889 13.6736C87.5813 13.6143 88.1144 13.7921 88.5291 14.207C88.8845 14.6811 89.0623 15.2738 89.003 15.9257V16.5184H88.5291C87.2851 16.5184 86.1003 16.5777 84.8563 16.8147C84.1454 16.9333 83.4938 17.2296 82.9606 17.7037C82.546 18.1779 82.309 18.8298 82.3683 19.4818C82.3683 20.0744 82.546 20.6078 82.8422 21.1412C83.1384 21.6154 83.6123 22.0302 84.1454 22.2673C84.7378 22.5636 85.3302 22.6822 85.9818 22.6822C86.6335 22.6822 87.2851 22.5636 87.8182 22.208C88.3514 21.9117 88.7661 21.4376 89.003 20.8449V22.3266C89.003 22.5044 89.1215 22.6229 89.2992 22.6229H90.7802C90.9579 22.6229 91.0764 22.5044 91.0764 22.3266V16.1035C91.0764 14.6811 90.7209 13.6736 90.0693 12.9624C89.2992 12.2511 88.2329 11.8955 87.1074 11.9548ZM89.0623 18.2371C89.1215 19.0076 88.8253 19.7188 88.3514 20.2522C87.8775 20.7856 87.1666 21.082 86.4558 21.0227C85.9818 21.0227 85.4487 20.8449 85.0933 20.5486C84.7378 20.2522 84.5601 19.7781 84.5601 19.3039C84.5601 18.9483 84.6786 18.5927 84.9155 18.2964C85.271 18.0001 85.7449 17.8223 86.1596 17.8223C86.9889 17.7037 87.8182 17.6445 88.6476 17.7037H89.003L89.0623 18.2371ZM51.3863 12.0141C51.0901 12.0141 50.8532 12.0733 50.6162 12.3104C50.4385 12.4882 50.32 12.7846 50.32 13.0216V13.9106C50.0238 13.318 49.5499 12.7846 48.9575 12.4882C48.3059 12.1326 47.595 11.9548 46.8842 12.0141C46.0548 12.0141 45.2255 12.2511 44.5146 12.666C43.8037 13.0809 43.2706 13.7328 42.9151 14.444C42.5005 15.2738 42.3228 16.1628 42.3228 17.1111C42.3228 18.0593 42.5005 18.9483 42.9151 19.7781C43.2706 20.4893 43.863 21.1412 44.5146 21.5561C45.2255 21.971 46.0548 22.208 46.8842 22.208C47.595 22.208 48.3651 22.0302 48.9575 21.6746C49.5499 21.319 50.0238 20.8449 50.32 20.2522V21.8524C50.32 23.8083 49.3722 24.7565 47.4173 24.7565C46.8841 24.7565 46.351 24.6973 45.8771 24.5787C45.4032 24.4009 44.9293 24.2231 44.4554 24.0453C44.2776 23.9268 44.0407 24.0453 43.9222 24.2231L43.5075 25.1121C43.4483 25.2899 43.5075 25.4677 43.6853 25.5863C44.87 26.1789 46.1733 26.4753 47.4765 26.416C49.076 26.416 50.32 26.0011 51.1494 25.2307C51.9787 24.4602 52.3934 23.2749 52.3934 21.6746V13.0216C52.3934 12.7253 52.2749 12.4882 52.0972 12.2511C51.9787 12.0733 51.6825 12.0141 51.3863 12.0141ZM49.5499 19.541C49.0168 20.1337 48.2466 20.4893 47.4173 20.43C46.588 20.4893 45.8179 20.1337 45.2255 19.541C44.1592 18.0593 44.1592 16.0443 45.2255 14.5033C45.7586 13.9106 46.588 13.555 47.4173 13.6143C48.2466 13.555 49.0168 13.9106 49.5499 14.5033C50.0831 15.2145 50.3792 16.1035 50.32 16.9925C50.3792 17.9408 50.0831 18.8298 49.5499 19.541Z" fill="#B6A2D7"/>
<path d="M26.5058 17.763C25.6765 17.763 25.0249 18.3557 24.8471 19.1261C24.077 22.86 20.4635 25.2899 16.7314 24.5195C12.9994 23.749 10.5706 20.1337 11.3407 16.3998C12.1108 12.666 15.7244 10.2361 19.4564 11.0065C19.7526 11.0658 20.0488 11.1251 20.345 11.2436C21.0559 11.5399 21.9444 11.2436 22.2999 10.5324L22.3591 10.4139C22.833 9.64338 22.5368 8.63583 21.7667 8.1617C21.6482 8.10243 21.589 8.04316 21.4705 8.04316C16.139 6.14661 10.2151 8.93217 8.31949 14.3255C6.42384 19.6595 9.20807 25.5863 14.5988 27.4828C19.9303 29.3794 25.8542 26.5938 27.7499 21.2005C27.9276 20.7264 28.046 20.2522 28.1645 19.7188C28.3422 18.8298 27.6906 17.9408 26.802 17.763C26.7428 17.8223 26.6243 17.763 26.5058 17.763Z" fill="#B6A2D7"/>
<path d="M20.582 16.7554C19.338 16.7554 18.3901 17.7629 18.3901 18.9483C18.3901 20.1929 19.3972 21.1411 20.582 21.1411C21.826 21.1411 22.7738 20.1336 22.7738 18.9483C22.8331 17.7629 21.826 16.7554 20.582 16.7554Z" fill="#B6A2D7"/>
</svg>
