<svg width="4096" height="2651" viewBox="0 0 4096 2651" fill="none" xmlns="http://www.w3.org/2000/svg">
<path d="M-484.024 -47.4103C-484.024 -47.4103 -309.718 82.4966 167.76 32.9434C645.239 -16.6098 799.692 253.048 1123.79 351.09C1447.89 449.132 1921.9 318.635 2331.46 364.206C2741.01 409.756 2860.63 775.39 3493.12 755.104C4125.61 734.817 4195.04 914.718 4195.04 914.718L4202.64 1209.11L-472.667 392.317L-484.024 -47.4103Z" fill="#4392F1"/>
<path d="M-14.7238 2.21537C-14.7238 2.21537 139.528 123.494 571.518 89.9072C1003.51 56.3207 1136.59 303.235 1426.75 399.252C1716.9 495.269 2147.64 388.565 2516.13 439.227C2884.62 489.872 2984.03 822.575 3555.21 819.009C4126.39 815.442 4184.84 979.387 4184.84 979.387L4184.84 2919.67L-2.53649 2964.3L-14.7238 2.21537Z" fill="#6310E5"/>
</svg>
