<svg width="56" height="58" viewBox="0 0 56 58" fill="none" xmlns="http://www.w3.org/2000/svg">
<g clip-path="url(#clip0_1_1736)">
<path d="M29.0157 56.975C16.3585 56.941 5.33007 48.9914 1.73247 37.134C-1.27218 27.1984 0.675808 18.1169 7.4339 10.1805C11.5883 5.3034 16.9458 2.31403 23.2439 1.03476C26.767 0.320328 30.3959 0.290811 33.9303 0.947833C34.3256 1.01964 34.3294 1.12546 34.1755 1.44291C32.4372 5.04075 30.7071 8.64362 28.9853 12.2515C28.9426 12.3643 28.8635 12.4599 28.7603 12.5232C28.6571 12.5864 28.5357 12.6138 28.4151 12.6011C24.7938 12.6932 21.3073 13.9868 18.5107 16.2761C15.714 18.5655 13.7676 21.7191 12.9814 25.2351C11.2463 32.9202 15.4273 40.8698 22.8049 43.6872C28.6603 45.9226 34.109 45.0326 39.0654 41.2118C39.3182 41.0229 39.4227 40.9851 39.6032 41.2968C41.5037 44.6037 43.4207 47.9042 45.3541 51.1984C45.5232 51.4876 45.4624 51.6179 45.2115 51.7918C41.4783 54.418 37.1596 56.1039 32.6266 56.7048C31.4286 56.8584 30.2233 56.9486 29.0157 56.975Z" fill="#EF492D"/>
<path d="M48.6779 48.7929C48.522 48.7098 48.4783 48.5397 48.3985 48.4018C46.237 44.6855 44.0831 40.9655 41.9369 37.2417C41.8639 37.0891 41.7448 36.963 41.5963 36.8811C41.4477 36.7991 41.2771 36.7653 41.1083 36.7844C36.817 36.7976 32.5276 36.7844 28.2364 36.7844H27.7023C27.6985 36.6205 27.7584 36.4614 27.8696 36.3403C30.0488 32.5762 32.2293 28.8121 34.411 25.048C34.4689 24.9235 34.5646 24.8201 34.6845 24.7523C34.8045 24.6846 34.9427 24.6558 35.08 24.6701C39.4726 24.6814 43.864 24.6814 48.2541 24.6701C48.3905 24.6559 48.528 24.6848 48.647 24.7526C48.7661 24.8204 48.8606 24.9238 48.9173 25.048C51.1079 28.8436 53.3087 32.6342 55.5196 36.4197C55.5934 36.5167 55.635 36.6342 55.6384 36.7559C55.6418 36.8775 55.6069 36.9971 55.5386 37.0981C53.3176 40.9113 51.1048 44.7208 48.9002 48.5265C48.8413 48.6229 48.8147 48.7551 48.6779 48.7929Z" fill="#EF492D"/>
<path d="M39.4266 8.82002C38.6398 8.03772 37.9062 7.28943 37.146 6.55248C36.9103 6.32573 37.0757 6.15755 37.1764 5.9856C38.0463 4.47953 39.4626 3.36132 41.1351 2.86017C42.1486 2.52762 43.2208 2.40963 44.2829 2.51377C45.345 2.6179 46.3735 2.94187 47.3021 3.46484C50.723 5.30344 50.417 9.56831 48.4424 11.4957C47.6938 12.2125 46.8458 12.8189 45.9243 13.2965C44.974 13.7992 44.0238 14.2735 43.0926 14.8082C42.3191 15.2485 41.7166 15.857 41.4373 16.7375C41.3232 17.0928 41.3916 17.1854 41.7736 17.1816C44.2861 17.1665 46.8004 17.1816 49.3147 17.1665C49.6948 17.1665 49.8374 17.2383 49.8222 17.6502C49.7879 18.5327 49.8012 19.417 49.8222 20.2957C49.8222 20.5753 49.7442 20.6736 49.4554 20.6736C45.415 20.666 41.3758 20.666 37.3379 20.6736C37.1479 20.6736 36.9711 20.6736 36.9692 20.3996C36.9692 17.6181 37.4862 15.0274 39.6755 13.0433C40.7184 12.1251 41.8891 11.3614 43.1515 10.7758C43.8433 10.4394 44.5426 10.1182 45.147 9.63067C45.6753 9.20361 46.0402 8.68586 46.0782 7.9867C46.1352 6.89261 45.2648 6.08008 43.9497 5.99504C42.0587 5.86088 40.6942 6.70743 39.7401 8.27959C39.6451 8.43454 39.5577 8.59327 39.4266 8.82002Z" fill="#EF492D"/>
<path d="M49.0617 52.7536V51.8447H48.7349V51.6558H49.611V51.8447H49.2803V52.7536H49.0617ZM49.7516 52.7536V51.6595H50.0842L50.2742 52.4059L50.4643 51.6595H50.7988V52.7536H50.6106V51.892L50.3921 52.7536H50.1773L49.9607 51.892V52.7536H49.7516Z" fill="#EF492D"/>
</g>
<defs>
<clipPath id="clip0_1_1736">
<rect width="56" height="57.2174" fill="white" transform="translate(0 0.116699)"/>
</clipPath>
</defs>
</svg>
