<svg width="16" height="16" viewBox="0 0 16 16" fill="none" xmlns="http://www.w3.org/2000/svg">
<path d="M7.92929 13.547L4.80676 15.2728C3.78235 15.839 2.55606 14.9753 2.74416 13.82L3.3583 10.0482C3.36851 9.98542 3.34835 9.92157 3.30397 9.87607L0.669024 7.17462C-0.127943 6.35754 0.332862 4.98142 1.46116 4.80904L5.0341 4.26316C5.10012 4.25307 5.15677 4.21075 5.18517 4.15031L7.75649 0.806152L7.92929 13.547Z" fill="url(#paint0_linear_1166_4237)"/>
<path d="M7.20902 1.01866L6.75649 0.806028L7.20902 1.01866C7.53407 0.326883 8.51816 0.327179 8.84279 1.01915L10.4113 4.36248C10.5105 4.57397 10.7086 4.72206 10.9395 4.75735L14.5121 5.30318C15.2382 5.4141 15.5347 6.29961 15.0219 6.82538L12.3869 9.52682C12.2318 9.68587 12.1613 9.90909 12.197 10.1284L12.8111 13.8996C12.9321 14.6431 12.1427 15.1989 11.4836 14.8343L8.36519 13.1094C8.15433 12.9928 7.89832 12.9928 7.68743 13.1093L4.5649 14.8351C3.90571 15.1994 3.11663 14.6436 3.23766 13.9003L3.8518 10.1284C3.8875 9.90909 3.81704 9.68587 3.6619 9.52682L1.02696 6.82538C0.514124 6.29961 0.810643 5.4141 1.53668 5.30318L5.10961 4.7573C5.34039 4.72204 5.53842 4.57411 5.6377 4.36282L7.20902 1.01866Z" stroke="url(#paint1_linear_1166_4237)"/>
<defs>
<linearGradient id="paint0_linear_1166_4237" x1="8.12318" y1="1.19743" x2="-3.38229" y2="10.0007" gradientUnits="userSpaceOnUse">
<stop stop-color="#FCAD0D"/>
<stop offset="1" stop-color="#FE983A"/>
</linearGradient>
<linearGradient id="paint1_linear_1166_4237" x1="15.7798" y1="0.412812" x2="3.97351" y2="17.3219" gradientUnits="userSpaceOnUse">
<stop stop-color="#FCAD0D"/>
<stop offset="1" stop-color="#FE983A"/>
</linearGradient>
</defs>
</svg>
