<svg width="16" height="16" viewBox="0 0 16 16" fill="none" xmlns="http://www.w3.org/2000/svg">
<path fill-rule="evenodd" clip-rule="evenodd" d="M4 1.50024H12C13.3807 1.50024 14.5 2.61953 14.5 4.00024V12.0002C14.5 13.381 13.3807 14.5002 12 14.5002H4C2.61929 14.5002 1.5 13.381 1.5 12.0002V4.00024C1.5 2.61953 2.61929 1.50024 4 1.50024ZM0 4.00024C0 1.79111 1.79086 0.000244141 4 0.000244141H12C14.2091 0.000244141 16 1.79111 16 4.00024V12.0002C16 14.2094 14.2091 16.0002 12 16.0002H4C1.79086 16.0002 0 14.2094 0 12.0002V4.00024ZM11.3642 4.90434C11.1139 4.72247 10.7684 4.78506 10.5927 5.04412L7.36937 9.79557L5.3021 8.06467C5.06431 7.86557 4.71557 7.90365 4.52317 8.14972C4.33077 8.39579 4.36757 8.75667 4.60536 8.95577L7.13361 11.0726C7.38295 11.2814 7.75099 11.228 7.93527 10.9564L11.4993 5.70272C11.675 5.44365 11.6145 5.08621 11.3642 4.90434Z" fill="#7E86A0"/>
</svg>
