<svg width="16" height="16" viewBox="0 0 16 16" fill="none" xmlns="http://www.w3.org/2000/svg">
<path fill-rule="evenodd" clip-rule="evenodd" d="M4 1.5H12C13.3807 1.5 14.5 2.61929 14.5 4V12C14.5 13.3807 13.3807 14.5 12 14.5H4C2.61929 14.5 1.5 13.3807 1.5 12V4C1.5 2.61929 2.61929 1.5 4 1.5ZM0 4C0 1.79086 1.79086 0 4 0H12C14.2091 0 16 1.79086 16 4V12C16 14.2091 14.2091 16 12 16H4C1.79086 16 0 14.2091 0 12V4ZM11.3642 4.90409C11.1139 4.72223 10.7684 4.78481 10.5927 5.04388L7.36937 9.79532L5.3021 8.06442C5.06431 7.86533 4.71557 7.9034 4.52317 8.14947C4.33077 8.39554 4.36757 8.75642 4.60536 8.95552L7.13361 11.0724C7.38295 11.2812 7.75099 11.2278 7.93527 10.9561L11.4993 5.70247C11.675 5.44341 11.6145 5.08596 11.3642 4.90409Z" fill="#B6A2D7"/>
</svg>
