<svg width="102" height="41" viewBox="0 0 102 41" fill="none" xmlns="http://www.w3.org/2000/svg">
<g clip-path="url(#clip0_1123_21430)">
<path d="M0 0V2.80512H19.8341V0H0ZM22.6442 0V2.80512H50.9087C50.9087 2.80512 48.0216 0 44.1978 0H22.6442ZM56.4533 0V2.80512H73.5529L72.538 0H56.4533ZM85.8124 0L84.7974 2.80512H101.742V0H85.8124ZM0 5.45525V8.26037H19.8341V5.45525H0ZM22.6442 5.45925V8.26047H54.1884C54.1884 8.26047 53.8201 6.10152 53.1774 5.45925H22.6442ZM56.4533 5.45925V8.26047H75.4277L74.4883 5.45925H56.4533ZM83.7824 5.45925L82.843 8.26047H101.742V5.45925H83.7824V5.45925ZM5.69982 10.9105V13.7196H14.2894V10.9105H5.69982V10.9105ZM28.3441 10.9105V13.7196H36.9337V10.9105H28.3441V10.9105ZM45.2885 10.9105V13.7196H53.8781C53.8781 13.7196 54.4234 12.2361 54.4234 10.9105H45.2885V10.9105ZM62.1532 10.9105V13.7196H77.382L76.3671 10.9105H62.1532V10.9105ZM81.9117 10.9105L80.8927 13.7196H96.1971V10.9105H81.9117V10.9105ZM5.69982 16.3699V19.175H14.2894V16.3699H5.69982V16.3699ZM28.3441 16.3699V19.175H50.2838C50.2838 19.175 52.1191 17.7357 52.7038 16.3699H28.3441ZM62.1532 16.3699V19.175H70.7428V17.6135L71.2882 19.175H87.0225L87.6076 17.6135V19.175H96.1972V16.3699H80.0727L79.217 18.7458L78.3572 16.3699H62.1532ZM5.69982 21.8251V24.6302H14.2894V21.8251H5.69982ZM28.3441 21.8251V24.6302H52.7038C52.119 23.2689 50.2838 21.8251 50.2838 21.8251H28.3441ZM62.1532 21.8251V24.6302H70.7428V21.8251H62.1532ZM72.3031 21.8251L73.3419 24.6302H85.1397L86.1269 21.8251H72.3031ZM87.6075 21.8251V24.6302H96.1971V21.8251H87.6075ZM5.69982 27.2804V30.0854H14.2894V27.2804H5.69982ZM28.3441 27.2804V30.0854H36.9337V27.2804H28.3441ZM45.2885 27.2804V30.0854H54.4233C54.4233 28.7616 53.878 27.2804 53.878 27.2804H45.2885V27.2804ZM62.1532 27.2804V30.0854H70.7428V27.2804H62.1532ZM74.2535 27.2804L75.2606 30.0854H83.1695L84.1845 27.2804H74.2535ZM87.6075 27.2804V30.0854H96.1971V27.2804H87.6075ZM0.155189 32.7356V35.5447H19.9892V32.7356H0.155189ZM22.6442 32.7356V35.5447H53.1774C53.8201 34.9016 54.1884 32.7356 54.1884 32.7356H22.6442V32.7356ZM56.6086 32.7356V35.5447H70.7428V32.7356H56.6086ZM76.2078 32.7356L77.2427 35.5447H81.2668L82.2379 32.7356H76.2078ZM87.6075 32.7356V35.5447H101.897V32.7356H87.6075ZM0.155189 38.1949V41H19.9892V38.1949H0.155189ZM22.6442 38.1949V40.996H44.1978C48.0216 40.996 50.9087 38.1949 50.9087 38.1949H22.6442ZM56.6086 38.1949V41H70.7428V38.1949H56.6086ZM78.1701 38.1949L79.1652 40.9921L79.3364 40.996L80.3475 38.1949H78.1701V38.1949ZM87.6075 38.1949V41H101.897V38.1949H87.6075Z" fill="#B6B7BA"/>
</g>
<defs>
<clipPath id="clip0_1123_21430">
<rect width="101.897" height="41" fill="white"/>
</clipPath>
</defs>
</svg>
