<svg width="26" height="26" viewBox="0 0 26 26" fill="none" xmlns="http://www.w3.org/2000/svg">
<path d="M13 25.5C19.9036 25.5 25.5 19.9036 25.5 13H24.5C24.5 19.3513 19.3513 24.5 13 24.5V25.5ZM25.5 13C25.5 6.09644 19.9036 0.5 13 0.5V1.5C19.3513 1.5 24.5 6.64873 24.5 13H25.5ZM13 0.5C6.09644 0.5 0.5 6.09644 0.5 13H1.5C1.5 6.64873 6.64873 1.5 13 1.5V0.5ZM0.5 13C0.5 19.9036 6.09644 25.5 13 25.5V24.5C6.64873 24.5 1.5 19.3513 1.5 13H0.5Z" fill="#6310E5"/>
<path d="M16.7044 9.07027C16.9555 8.72331 17.4489 8.63949 17.8066 8.88306C18.1642 9.12664 18.2506 9.60536 17.9996 9.95232L12.9081 16.9885C12.6449 17.3523 12.1191 17.4238 11.7629 17.1442L8.1511 14.3091C7.8114 14.0424 7.75884 13.5591 8.03369 13.2296C8.30855 12.9 8.80674 12.849 9.14644 13.1156L12.0997 15.4338L16.7044 9.07027Z" fill="#6310E5"/>
</svg>
