<svg width="45" height="46" viewBox="0 0 45 46" fill="none" xmlns="http://www.w3.org/2000/svg">
<path d="M26.7676 19.0737V28.3059C26.7676 29.0725 27.3787 29.694 28.1325 29.694H31.6436C32.446 29.694 33.0831 28.9917 33.0037 28.1789C32.5433 23.5398 30.0048 19.8486 26.7676 19.0737Z" fill="white"/>
<path d="M15.1934 29.6938H22.3794C23.1332 29.6938 23.7443 29.0723 23.7443 28.3057V12.9375C18.4241 14.2119 14.2953 20.4765 13.8301 28.2299C13.7831 29.0245 14.4121 29.6938 15.1934 29.6938Z" fill="white"/>
<path d="M41.861 27.2093C39.8266 26.2416 37.3837 27.2439 36.4224 29.3063C36.0739 30.0548 35.6703 30.762 35.2164 31.4264C34.615 32.3067 33.6229 32.8261 32.5693 32.8261H14.0409C12.9937 32.8261 12.0049 32.315 11.4051 31.4429C10.0662 29.4992 9.2054 27.2406 8.91038 24.8188C8.43217 20.9083 9.48098 17.0424 11.8623 13.9331C14.2436 10.8239 17.672 8.84556 21.5187 8.35922C24.6651 7.96191 27.7775 8.59662 30.517 10.1974C33.1415 11.729 35.2667 14.0996 36.5116 16.8808C37.4404 18.9548 39.8655 19.9934 41.9112 19.0636C43.9521 18.1354 44.8696 15.6988 43.957 13.6215C42.0247 9.21649 38.6838 5.46099 34.5518 3.04909C30.2755 0.551464 25.4222 -0.439341 20.5185 0.178883C14.524 0.935589 9.17947 4.02176 5.46731 8.86699C1.75516 13.7122 0.121168 19.7378 0.86522 25.8344C1.60927 31.9309 4.64383 37.3663 9.40803 41.1416C13.4201 44.3201 18.254 46 23.2581 46C24.1967 46 25.1433 45.9407 26.0916 45.8203C33.879 44.8361 40.5074 39.9233 43.8192 32.6793C44.761 30.6186 43.884 28.1721 41.861 27.2093Z" fill="white"/>
</svg>
