<svg width="24" height="19" viewBox="0 0 24 19" fill="none" xmlns="http://www.w3.org/2000/svg">
<path d="M21 1H11C10.3096 1 9.75 1.55964 9.75 2.25C9.75 2.94036 10.3096 3.5 11 3.5H21C21.6904 3.5 22.25 2.94036 22.25 2.25C22.25 1.55964 21.6904 1 21 1Z" stroke="#B6A2D7"/>
<path d="M6 1H2.25C1.55964 1 1 1.55964 1 2.25C1 2.94036 1.55964 3.5 2.25 3.5H6C6.69036 3.5 7.25 2.94036 7.25 2.25C7.25 1.55964 6.69036 1 6 1Z" stroke="#B6A2D7"/>
<path d="M20.375 6H2.875C1.83947 6 1 6.83947 1 7.875V10.375C1 11.4105 1.83947 12.25 2.875 12.25H20.375C21.4105 12.25 22.25 11.4105 22.25 10.375V7.875C22.25 6.83947 21.4105 6 20.375 6Z" fill="#B6A2D7" stroke="#B6A2D7"/>
<path d="M21 14.75H2.25C1.55964 14.75 1 15.3096 1 16C1 16.6904 1.55964 17.25 2.25 17.25H21C21.6904 17.25 22.25 16.6904 22.25 16C22.25 15.3096 21.6904 14.75 21 14.75Z" stroke="#B6A2D7"/>
</svg>
