<svg width="139" height="41" viewBox="0 0 139 41" fill="none" xmlns="http://www.w3.org/2000/svg">
<g clip-path="url(#clip0_1271_5582)">
<path d="M69.262 18.0722L77.4541 9.81189H73.4463H72.7036H72.4161L64.4489 17.8639V9.81189H60.5796V31.315H64.4489V22.9286L66.5423 20.8156L73.8884 31.315H78.6824L69.1916 18.1435L69.262 18.0722Z" fill="#B6A2D7"/>
<path d="M85.7177 14.692C83.4943 14.692 81.3628 15.5827 79.7902 17.1696C78.2177 18.7564 77.3306 20.9078 77.3252 23.1551C77.3252 25.4572 78.1658 27.584 79.6977 29.1434C81.2625 30.7385 83.4454 31.6155 85.8483 31.6155C89.1318 31.6155 91.7812 30.1163 93.3162 27.3894L89.9587 25.3696C89.1915 26.9509 87.6732 27.8937 85.8835 27.8937C83.6112 27.8937 81.9838 26.7673 81.4147 24.805L81.3711 24.6515H93.831C93.831 24.6515 93.9288 23.9033 93.9288 23.1195C93.9288 20.6803 93.2237 18.6961 91.7353 17.1476C90.214 15.5635 88.0771 14.692 85.7231 14.692H85.7177ZM81.5417 21.2613L81.6151 21.0914C82.3584 19.4141 83.9035 18.4138 85.7505 18.4138C87.7407 18.4138 89.1617 19.3675 89.7582 21.1024L89.8125 21.2613H81.5417Z" fill="#B6A2D7"/>
<path d="M136.618 17.0308C135.29 15.6961 133.495 14.9479 131.621 14.9479C130.563 14.9479 129.517 15.189 128.564 15.6549L128.394 15.7372V9.81189H124.524V31.315H128.394V22.101C128.394 21.2404 128.733 20.4155 129.335 19.807C129.937 19.1986 130.753 18.856 131.605 18.856C132.456 18.856 133.272 19.1986 133.874 19.807C134.476 20.4155 134.815 21.2404 134.815 22.101V31.315H138.72V22.0653C138.706 20.1743 137.952 18.3627 136.623 17.0308H136.618Z" fill="#B6A2D7"/>
<path d="M99.658 9.81189H95.8048V24.1729C95.7994 25.1266 95.9891 26.0694 96.3578 26.9437C97.082 28.6593 98.438 30.0269 100.138 30.7559C101.009 31.1314 101.944 31.3205 102.888 31.315H105.881V27.4287H102.888C102.454 27.4315 102.023 27.3438 101.624 27.1711C101.239 27.0067 100.892 26.7683 100.593 26.4723C100.295 26.1708 100.06 25.8118 99.8967 25.4172C99.7368 25.0225 99.655 24.6004 99.655 24.1729V19.2287H105.881V15.3426H99.655V9.81189H99.658Z" fill="#B6A2D7"/>
<path d="M115.36 18.6632C116.146 18.6632 116.916 18.8798 117.592 19.2881C118.267 19.6965 118.82 20.2802 119.192 20.9791L122.722 19.1018C121.83 17.4519 120.422 16.1473 118.717 15.3964C117.011 14.6455 115.107 14.4893 113.305 14.9552C111.501 15.4211 109.904 16.479 108.762 17.9617C107.621 19.4471 107 21.2723 107 23.1551C107 25.038 107.621 26.8632 108.762 28.3487C109.904 29.8341 111.501 30.892 113.305 31.3552C115.107 31.8211 117.011 31.6649 118.717 30.9139C120.422 30.163 121.833 28.8584 122.722 27.2086L119.192 25.3312C118.817 26.0301 118.264 26.6139 117.592 27.0222C116.916 27.4305 116.146 27.6471 115.36 27.6471C112.944 27.6471 110.975 25.6327 110.975 23.1551C110.975 20.6776 112.944 18.6632 115.36 18.6632Z" fill="#B6A2D7"/>
<path d="M26.449 6.51156L32.9159 -0.0565186H17.0722L0 17.2826L16.9377 34.4851L10.4708 41.0532H26.3144L43.3867 23.714L26.449 6.51156ZM17.0722 34.3473V16.0361L26.3144 6.64939V24.9605L17.0722 34.3485V34.3473Z" fill="#B6A2D7"/>
</g>
<defs>
<clipPath id="clip0_1271_5582">
<rect width="139" height="41" fill="white"/>
</clipPath>
</defs>
</svg>
