<svg width="32" height="32" viewBox="0 0 32 32" fill="none" xmlns="http://www.w3.org/2000/svg">
<path d="M16 32C24.8366 32 32 24.8366 32 16C32 7.16344 24.8366 0 16 0C7.16344 0 0 7.16344 0 16C0 24.8366 7.16344 32 16 32Z" fill="#9498A7"/>
<path d="M11.6549 9.08818C11.6549 10.0262 10.9621 10.7865 9.823 10.7865C8.75144 10.7865 8.05859 10.0262 8.05859 9.08818C8.05859 8.12818 8.77346 7.38983 9.8685 7.38983C10.9621 7.38983 11.6329 8.12671 11.6549 9.08818ZM8.14813 23.0493V12.1252H11.5434V23.0493H8.14813Z" fill="white"/>
<path d="M13.5764 15.61C13.5764 14.2478 13.5323 13.1087 13.4868 12.1252H16.4358L16.5929 13.6445H16.6604C17.1066 12.9296 18.2017 11.8801 20.0336 11.8801C22.2677 11.8801 23.9426 13.3773 23.9426 16.5935V23.0492H20.5474V16.9957C20.5474 15.588 20.0556 14.628 18.827 14.628C17.889 14.628 17.3312 15.2753 17.0846 15.9006C16.9951 16.1237 16.9731 16.4364 16.9731 16.7491V23.0478H13.5764V15.61Z" fill="white"/>
</svg>
