<svg width="32" height="32" viewBox="0 0 32 32" fill="none" xmlns="http://www.w3.org/2000/svg">
<g clip-path="url(#clip0)">
<path d="M16 32.0004C24.8366 32.0004 32 24.8369 32 16.0004C32 7.16381 24.8366 0.000366211 16 0.000366211C7.16344 0.000366211 0 7.16381 0 16.0004C0 24.8369 7.16344 32.0004 16 32.0004Z" fill="white"/>
<path d="M11.6549 9.08849C11.6549 10.0265 10.9621 10.7868 9.823 10.7868C8.75144 10.7868 8.05859 10.0265 8.05859 9.08849C8.05859 8.12849 8.77346 7.39014 9.8685 7.39014C10.9621 7.39014 11.6329 8.12702 11.6549 9.08849ZM8.14813 23.0496V12.1255H11.5434V23.0496H8.14813Z" fill="#6310E5"/>
<path d="M13.5764 15.6103C13.5764 14.2481 13.5323 13.109 13.4868 12.1255H16.4358L16.5929 13.6448H16.6604C17.1066 12.9299 18.2017 11.8804 20.0336 11.8804C22.2677 11.8804 23.9426 13.3776 23.9426 16.5938V23.0495H20.5474V16.996C20.5474 15.5883 20.0556 14.6283 18.827 14.6283C17.889 14.6283 17.3312 15.2756 17.0846 15.9009C16.9951 16.124 16.9731 16.4367 16.9731 16.7494V23.0481H13.5764V15.6103Z" fill="#6310E5"/>
</g>
<defs>
<clipPath id="clip0">
<rect width="32" height="32" fill="white" transform="translate(0 0.000366211)"/>
</clipPath>
</defs>
</svg>
