<svg width="171" height="45" viewBox="0 0 171 45" fill="none" xmlns="http://www.w3.org/2000/svg">
<path d="M23.4697 18.9719V27.1009C23.4697 27.7759 24.0197 28.3232 24.6981 28.3232H27.858C28.5801 28.3232 29.1535 27.7048 29.082 26.9891C28.6677 22.9043 26.3831 19.6541 23.4697 18.9719Z" fill="#FE8A3A"/>
<path d="M13.0534 28.3232H19.5205C20.1989 28.3232 20.7489 27.7759 20.7489 27.1009V13.569C15.9609 14.6911 12.2451 20.2072 11.8264 27.0341C11.7841 27.7338 12.3502 28.3232 13.0534 28.3232Z" fill="#EE4266"/>
<path d="M37.053 26.1356C35.2221 25.2835 33.0236 26.1661 32.1585 27.982C31.8448 28.6411 31.4816 29.2638 31.0731 29.8488C30.5318 30.624 29.639 31.0812 28.6907 31.0812H12.0159C11.0734 31.0812 10.1835 30.6312 9.64375 29.8633C8.43872 28.1519 7.66406 26.1632 7.39855 24.0307C6.96818 20.5875 7.91207 17.1835 10.0552 14.4457C12.1982 11.708 15.2837 9.96607 18.7456 9.53784C21.5773 9.188 24.3783 9.74687 26.8438 11.1564C29.2057 12.5049 31.1183 14.5924 32.2387 17.0412C33.0746 18.8674 35.2571 19.7819 37.0982 18.9632C38.9349 18.1459 39.7606 16.0004 38.9393 14.1714C37.2003 10.2927 34.1936 6.9859 30.4749 4.86219C26.6264 2.663 22.2586 1.79058 17.8455 2.33494C12.4506 3.00123 7.64072 5.71865 4.29991 9.98494C0.959103 14.2512 -0.511437 19.5569 0.158184 24.9249C0.827805 30.293 3.55881 35.079 7.84642 38.4032C11.4571 41.2019 15.8075 42.6811 20.311 42.6811C21.1557 42.6811 22.0077 42.6288 22.8611 42.5228C29.8695 41.6562 35.8348 37.3304 38.8153 30.952C39.6629 29.1375 38.8736 26.9833 37.053 26.1356Z" fill="#6310E5"/>
<path d="M62.1574 16.2815C59.1375 16.2815 56.5991 17.2395 54.4983 19.1992C52.3976 21.1589 51.3472 23.6847 51.3472 26.8202C51.3472 29.9557 52.3976 32.525 54.4983 34.5283C56.5991 36.4879 59.1375 37.4895 62.1574 37.4895C65.3961 37.4895 68.022 36.4008 70.079 34.1799L67.0154 31.6541C65.7462 33.0041 64.1269 33.6573 62.1574 33.6573C60.2754 33.6573 58.6561 33.0041 57.2994 31.7412C55.9426 30.4783 55.2861 28.8234 55.2861 26.8202C55.2861 24.8605 55.9426 23.2492 57.2994 22.0299C58.6561 20.767 60.2754 20.1573 62.1574 20.1573C64.1269 20.1573 65.7462 20.8105 67.0154 22.0734L70.0353 19.5476C68.022 17.3702 65.3961 16.2815 62.1574 16.2815Z" fill="#333745"/>
<path d="M94.7193 37.0541V16.717H90.7804V19.7653C89.5112 17.5444 86.5788 16.2815 83.6028 16.2815C80.7142 16.2815 78.2633 17.2395 76.2501 19.1992C74.2368 21.1589 73.2302 23.6847 73.2302 26.8637C73.2302 29.9992 74.2368 32.5686 76.2501 34.5283C78.2633 36.4879 80.7142 37.4895 83.6028 37.4895C86.5788 37.4895 89.4236 36.1831 90.7804 33.9186V37.0541H94.7193ZM90.7366 26.8202C90.7366 28.9105 90.0801 30.5653 88.7672 31.7847C87.4542 33.0041 85.8348 33.6137 83.9529 33.6137C82.0709 33.6137 80.4954 32.9605 79.2261 31.6976C77.9569 30.4347 77.3004 28.7799 77.3004 26.8202C77.3004 24.8605 77.9132 23.2492 79.1824 22.0299C80.4516 20.767 82.0709 20.1573 83.9529 20.1573C85.7473 20.1573 87.3229 20.767 88.6796 21.9428C90.0364 23.1186 90.7366 24.7734 90.7366 26.8202Z" fill="#333745"/>
<path d="M105.368 26.0799C105.368 22.0734 107.95 20.1573 111.145 20.1573C113.946 20.1573 115.653 22.2041 115.653 25.5573V37.0541H119.636V25.296C119.636 19.5476 116.835 16.2815 111.758 16.2815C109.263 16.2815 106.55 17.5008 105.368 19.7653V16.717H101.385V37.0541H105.368V26.0799Z" fill="#333745"/>
<path d="M146.179 37.0541V5.65567H142.196V19.7653C140.839 17.5008 138.082 16.2815 134.975 16.2815C132.086 16.2815 129.635 17.2395 127.666 19.1992C125.696 21.1589 124.69 23.6847 124.69 26.8637C124.69 29.9992 125.696 32.5686 127.666 34.5283C129.679 36.4879 132.13 37.4895 135.018 37.4895C137.994 37.4895 140.839 36.1831 142.196 33.9186V37.0541H146.179ZM135.368 20.1573C137.163 20.1573 138.738 20.767 140.095 21.9428C141.452 23.1186 142.152 24.7734 142.152 26.8202C142.152 28.867 141.496 30.5218 140.139 31.7847C138.826 33.0041 137.25 33.6137 135.368 33.6137C133.486 33.6137 131.911 32.9605 130.642 31.6976C129.372 30.4347 128.76 28.7799 128.76 26.8202C128.76 24.8605 129.372 23.2492 130.642 22.0299C131.911 20.767 133.486 20.1573 135.368 20.1573Z" fill="#333745"/>
<path d="M166.85 27.6912C166.85 31.7412 164.355 33.6137 161.072 33.6137C158.271 33.6137 156.608 31.567 156.608 28.2137V16.717H152.626V28.475C152.582 34.2234 155.427 37.4895 160.503 37.4895C162.998 37.4895 165.668 36.2702 166.85 34.0057V37.0541H170.832V16.717H166.85V27.6912Z" fill="#333745"/>
</svg>
