<?xml version="1.0" encoding="utf-8"?>
<!-- Generator: Adobe Illustrator 23.0.3, SVG Export Plug-In . SVG Version: 6.00 Build 0)  -->
<svg version="1.1" id="Layer_1" xmlns="http://www.w3.org/2000/svg" xmlns:xlink="http://www.w3.org/1999/xlink" x="0px" y="0px"
	 viewBox="0 0 1930.5 363.2" style="enable-background:new 0 0 1930.5 363.2;" xml:space="preserve">
<style type="text/css">
	.st0{fill-rule:evenodd;clip-rule:evenodd;fill:#2F455C;}
	.st1{fill:url(#SVGID_1_);}
	.st2{fill:url(#SVGID_2_);}
	.st3{fill:url(#SVGID_3_);}
</style>
<g>
	<path id="Expensya_4_" class="st0" d="M647.9,292.4v-34.1h-90v-68.6h87.6v-34.1h-87.6V91.9h90V57.8H519.2v234.6H647.9z
		 M832.5,292.4l-62.6-87.2l58.7-82.7h-41.5l-40.4,57.3l-40.1-57.3h-41.5l58.7,82.7l-62.6,87.2h41.5l44.3-62.6l44,62.6H832.5z
		 M946.1,296.6c44,0,75.3-33.4,75.3-89.3s-31.3-89-75.3-89c-22.2,0-41.9,10.6-54.5,27.4v-23.2h-36.9v234.6h36.9v-88.3
		C905.7,286.8,924.7,296.6,946.1,296.6L946.1,296.6z M935.2,263.9c-17.2,0-35.5-10.6-43.6-23.2v-67.2c8.4-12.7,26.4-22.5,43.6-22.5
		c29.2,0,48.2,23.2,48.2,56.3S964.4,263.9,935.2,263.9z M1133.6,296.6c26.7,0,51.7-8.8,68.9-25l-16.9-24.3
		c-12.3,12.3-31.7,19-48.5,19c-32,0-51-21.5-53.8-46.8h130.8v-9.1c0-53.5-32.4-92.2-83.4-92.2c-50.3,0-86.2,39.7-86.2,89
		C1044.6,261.1,1082.3,296.6,1133.6,296.6z M1178.6,193.2H1083c1.4-20.4,16.2-44.7,47.5-44.7
		C1163.9,148.5,1177.6,173.1,1178.6,193.2z M1399.2,292.4V172.8c0-34.8-18.3-54.5-54.9-54.5c-26.7,0-48.9,13.7-60.1,27.1v-22.9
		h-36.9v169.9h36.9V173.5c8.8-11.3,25-22.5,43.6-22.5c20.8,0,34.5,8.4,34.5,35.2v106.2H1399.2z M1501.9,296.6
		c45.7,0,70.7-22.9,70.7-53.1c0-67.5-102.7-45-102.7-74.9c0-12,12-21.1,31.3-21.1c21.5,0,40.1,9.1,50.3,20.4l15.5-26
		c-15.1-13.4-36.9-23.6-65.8-23.6c-42.9,0-66.8,23.6-66.8,51.4c0,65.4,102.7,41.5,102.7,74.9c0,13.4-11.6,22.5-33.8,22.5
		c-21.8,0-45.4-11.3-57.3-23.6l-16.9,26.4C1446.6,287.1,1472.7,296.6,1501.9,296.6z M1598.9,358.9c4.9,1.4,15.5,2.5,20.8,2.5
		c26.4-0.4,46.4-9.5,58-38.3l82-200.5h-39.4l-49.6,127.3l-49.6-127.3h-39.7l70,172l-8.4,19.3c-4.9,11.3-12.7,14.8-24.6,14.8
		c-4.2,0-10.2-1.1-14.1-2.8L1598.9,358.9z M1920.4,292.4V179.5c0-45.4-33.1-61.2-71-61.2c-27.1,0-51.7,8.4-71.4,27.4l15.5,25.7
		c14.4-14.8,31.3-21.8,50.3-21.8c23.2,0,39.7,12,39.7,31.7v25.3c-12.7-14.4-32-21.8-55.2-21.8c-27.8,0-58.7,16.2-58.7,55.6
		c0,37.3,31.3,56.3,58.7,56.3c22.5,0,42.6-8.1,55.2-22.9v18.6H1920.4L1920.4,292.4z M1843,271.3c-20.8,0-36.6-12-36.6-30.6
		c0-18.3,15.8-30.6,36.6-30.6c15.8,0,31.7,6,40.5,17.6v26C1874.7,265.3,1858.9,271.3,1843,271.3z"/>
	<g>
		<linearGradient id="SVGID_1_" gradientUnits="userSpaceOnUse" x1="136.8849" y1="81.2178" x2="390.4229" y2="81.2178">
			<stop  offset="0" style="stop-color:#44B4FC"/>
			<stop  offset="1" style="stop-color:#B4EFFD"/>
		</linearGradient>
		<path class="st1" d="M327,160.5h31.2c17.8,0,32.2-14.4,32.2-32.2V1.9H168.6c-17.5,0-31.7,14.2-31.7,31.7l0,0
			c0,17.5,14.2,31.7,31.7,31.7h142.6c8.8,0,15.9,7.1,15.9,15.9S327,160.5,327,160.5z"/>
		<linearGradient id="SVGID_2_" gradientUnits="userSpaceOnUse" x1="73.5006" y1="168.4635" x2="327.0385" y2="168.4635">
			<stop  offset="0" style="stop-color:#3366FF"/>
			<stop  offset="1" style="stop-color:#44B4FC"/>
		</linearGradient>
		<path class="st2" d="M263.7,255.7h31.2c17.8,0,32.2-14.4,32.2-32.2v-63V81.2v0c0,8.8-7.1,15.9-15.9,15.9h0H105.3
			c-17.5,0-31.8,14.2-31.8,31.8c0,17.5,14.2,31.7,31.7,31.7h142.6c8.8,0,15.9,7.1,15.9,15.9l0,0c0,8.8-7.1,15.9-15.9,15.9H73.5v63.5
			H263.7z"/>
		<linearGradient id="SVGID_3_" gradientUnits="userSpaceOnUse" x1="10.1162" y1="263.6407" x2="263.6542" y2="263.6407">
			<stop  offset="0" style="stop-color:#1A39B6"/>
			<stop  offset="1" style="stop-color:#3366FF"/>
		</linearGradient>
		<path class="st3" d="M263.7,176.4V319c0,17.6-14.3,31.9-31.9,31.9H10.1V224c0-17.5,14.2-31.8,31.8-31.8h205.9
			C256.6,192.3,263.7,185.2,263.7,176.4L263.7,176.4z"/>
	</g>
</g>
</svg>
