<svg width="156" height="41" viewBox="0 0 156 41" fill="none" xmlns="http://www.w3.org/2000/svg">
<path d="M21.9531 17.1436V24.8571C21.9531 25.4975 22.4629 26.0168 23.0917 26.0168H26.0205C26.6899 26.0168 27.2213 25.4301 27.155 24.751C26.771 20.875 24.6535 17.7909 21.9531 17.1436Z" fill="#FE8A3A"/>
<path d="M12.2994 26.0166H18.2937C18.9225 26.0166 19.4322 25.4973 19.4322 24.8568V12.0166C14.9943 13.0813 11.5503 18.3155 11.1622 24.7935C11.123 25.4574 11.6477 26.0166 12.2994 26.0166Z" fill="#EE4266"/>
<path d="M34.1389 23.8857C32.4599 23.1073 30.4438 23.9136 29.6505 25.5725C29.3628 26.1745 29.0297 26.7434 28.6551 27.2778C28.1588 27.9859 27.34 28.4036 26.4705 28.4036H11.1791C10.3148 28.4036 9.49877 27.9925 9.00377 27.291C7.89873 25.7276 7.18834 23.9109 6.94486 21.963C6.5502 18.8176 7.41577 15.708 9.38104 13.2071C11.3463 10.7062 14.1758 9.11491 17.3505 8.72372C19.9472 8.40415 22.5158 8.91467 24.7768 10.2023C26.9427 11.4342 28.6966 13.341 29.724 15.5781C30.4906 17.2462 32.492 18.0816 34.1804 17.3337C35.8647 16.5872 36.6219 14.6273 35.8687 12.9565C34.274 9.41326 31.5167 6.39253 28.1066 4.45253C24.5774 2.44357 20.572 1.64662 16.525 2.14388C11.5778 2.75254 7.16693 5.23489 4.10331 9.13214C1.03968 13.0294 -0.308847 17.8761 0.305216 22.7798C0.919279 27.6835 3.42369 32.0555 7.35557 35.0921C10.6667 37.6488 14.6561 39 18.786 39C19.5606 39 20.3419 38.9523 21.1245 38.8555C27.5514 38.0638 33.0218 34.1122 35.755 28.2856C36.5323 26.628 35.8085 24.6601 34.1389 23.8857Z" fill="#6310E5"/>
<path d="M55.9313 14.6813C53.2017 14.6813 50.9073 15.5542 49.0084 17.3397C47.1096 19.1252 46.1602 21.4265 46.1602 24.2832C46.1602 27.14 47.1096 29.481 49.0084 31.3061C50.9073 33.0916 53.2017 34.0042 55.9313 34.0042C58.8587 34.0042 61.2322 33.0123 63.0915 30.9887L60.3223 28.6874C59.1751 29.9174 57.7114 30.5126 55.9313 30.5126C54.2302 30.5126 52.7665 29.9174 51.5402 28.7668C50.3139 27.6161 49.7205 26.1084 49.7205 24.2832C49.7205 22.4977 50.3139 21.0297 51.5402 19.9187C52.7665 18.7681 54.2302 18.2126 55.9313 18.2126C57.7114 18.2126 59.1751 18.8077 60.3223 19.9584L63.0519 17.6571C61.2322 15.6732 58.8587 14.6813 55.9313 14.6813Z" fill="#333745"/>
<path d="M85.3633 33.6074V15.0781H81.803V17.8555C80.6558 15.8319 78.0053 14.6813 75.3153 14.6813C72.7044 14.6813 70.4891 15.5542 68.6693 17.3397C66.8496 19.1252 65.9398 21.4265 65.9398 24.3229C65.9398 27.1797 66.8496 29.5206 68.6693 31.3061C70.4891 33.0916 72.7044 34.0042 75.3153 34.0042C78.0053 34.0042 80.5767 32.8139 81.803 30.7506V33.6074H85.3633ZM81.7634 24.2832C81.7634 26.1877 81.17 27.6955 79.9833 28.8065C78.7965 29.9174 77.3328 30.4729 75.6318 30.4729C73.9307 30.4729 72.5066 29.8777 71.3594 28.7271C70.2121 27.5765 69.6188 26.0687 69.6188 24.2832C69.6188 22.4977 70.1726 21.0297 71.3198 19.9187C72.467 18.7681 73.9307 18.2126 75.6318 18.2126C77.2537 18.2126 78.6778 18.7681 79.9042 19.8394C81.1305 20.9106 81.7634 22.4184 81.7634 24.2832Z" fill="#333745"/>
<path d="M94.9883 23.6087C94.9883 19.9584 97.3222 18.2126 100.21 18.2126C102.742 18.2126 104.285 20.0774 104.285 23.1326V33.6074H107.885V22.8945C107.885 17.6571 105.353 14.6813 100.764 14.6813C98.509 14.6813 96.0564 15.7923 94.9883 17.8555V15.0781H91.3884V33.6074H94.9883V23.6087Z" fill="#333745"/>
<path d="M131.876 33.6074V5H128.276V17.8555C127.05 15.7923 124.558 14.6813 121.749 14.6813C119.138 14.6813 116.923 15.5542 115.143 17.3397C113.363 19.1252 112.453 21.4265 112.453 24.3229C112.453 27.1797 113.363 29.5206 115.143 31.3061C116.962 33.0916 119.178 34.0042 121.789 34.0042C124.479 34.0042 127.05 32.8139 128.276 30.7506V33.6074H131.876ZM122.105 18.2126C123.727 18.2126 125.151 18.7681 126.378 19.8394C127.604 20.9106 128.237 22.4184 128.237 24.2832C128.237 26.1481 127.643 27.6558 126.417 28.8065C125.23 29.9174 123.806 30.4729 122.105 30.4729C120.404 30.4729 118.98 29.8777 117.833 28.7271C116.686 27.5765 116.132 26.0687 116.132 24.2832C116.132 22.4977 116.686 21.0297 117.833 19.9187C118.98 18.7681 120.404 18.2126 122.105 18.2126Z" fill="#333745"/>
<path d="M150.56 25.0768C150.56 28.7668 148.305 30.4729 145.338 30.4729C142.807 30.4729 141.303 28.6081 141.303 25.5529V15.0781H137.704V25.791C137.664 31.0284 140.235 34.0042 144.824 34.0042C147.079 34.0042 149.492 32.8932 150.56 30.83V33.6074H154.16V15.0781H150.56V25.0768Z" fill="#333745"/>
</svg>
