<svg width="165" height="35" viewBox="0 0 165 35" fill="none" xmlns="http://www.w3.org/2000/svg">
<g clip-path="url(#clip0_1123_21406)">
<path d="M56.5111 18.2128V33.0748C56.5111 33.5571 56.1186 33.9497 55.6362 33.9497H49.2147C48.7306 33.9497 48.3398 33.5571 48.3398 33.0748V9.6059C48.3398 9.12358 48.7324 8.731 49.2147 8.731H55.6362C56.1186 8.731 56.5111 9.12358 56.5111 9.6059V11.4548C58.1245 9.43765 60.394 8.17578 63.572 8.17578C66.5481 8.17578 69.1205 9.38717 70.6833 11.6567C72.5995 9.38717 75.3233 8.17578 78.6527 8.17578C84.3021 8.17578 88.185 11.5052 88.185 17.8595V33.0748C88.185 33.5571 87.7924 33.9497 87.3101 33.9497H80.8886C80.4044 33.9497 80.0137 33.5571 80.0137 33.0748V19.5756C80.0137 16.8014 78.4508 15.4404 76.3309 15.4404C74.5661 15.4404 73.1528 16.5508 72.3452 18.2146V33.0766C72.3452 33.559 71.9527 33.9515 71.4704 33.9515H65.0488C64.5647 33.9515 64.1739 33.559 64.1739 33.0766V19.5775C64.1739 16.8032 62.6111 15.4423 60.4912 15.4423C58.6759 15.4423 57.3131 16.5527 56.5055 18.2165" fill="#B6B7BA"/>
<path d="M98.9218 34.4545C94.1809 34.4545 90.1953 31.3269 90.1953 26.4851C90.1953 22.047 93.121 19.9776 98.5685 18.5661L105.53 16.7509C105.328 15.0871 104.016 14.2795 101.898 14.2795C100.021 14.2795 98.6713 14.9974 98.0488 16.4331C97.8749 16.8332 97.4581 17.0687 97.0318 16.9678L91.5151 15.6554C91.0066 15.5339 90.7094 14.9918 90.8907 14.502C92.4742 10.2172 96.8748 7.97205 102.199 7.97205C109.361 7.97205 113.498 11.352 113.498 17.3024V33.0729C113.498 33.5571 113.105 33.9478 112.623 33.9478H106.534C106.059 33.9478 105.67 33.5683 105.659 33.0935L105.629 31.7793L105.579 31.8298C103.511 33.5945 101.494 34.4526 98.92 34.4526M100.988 28.147C102.048 28.147 102.853 27.8441 104.065 27.1375L105.476 26.2794L105.527 22.1928L101.894 23.2023C99.4228 23.909 98.3124 24.5147 98.3124 25.9261C98.3124 27.4889 99.6733 28.1451 100.986 28.1451" fill="#B6B7BA"/>
<path d="M126.546 22.047L124.075 24.3165V33.0748C124.075 33.559 123.682 33.9497 123.2 33.9497H116.93C116.445 33.9497 116.055 33.5571 116.055 33.0748V1.3318C116.055 0.84949 116.447 0.456909 116.93 0.456909H123.2C123.682 0.456909 124.075 0.84949 124.075 1.3318V15.6909L131.39 8.96097C131.55 8.81328 131.764 8.72916 131.982 8.72916H139.724C140.524 8.72916 140.903 9.71248 140.314 10.2509L132.803 17.1024L141.369 32.6523C141.69 33.2356 141.268 33.9497 140.602 33.9497H133.283C132.958 33.9497 132.657 33.7684 132.508 33.4786L126.548 22.0451L126.546 22.047Z" fill="#B6B7BA"/>
<path d="M153.155 34.5049C146.145 34.5049 139.738 30.1173 139.738 21.2394C139.738 12.8662 145.892 8.02435 152.65 8.02435C159.408 8.02435 164.757 12.9167 164.957 20.6337C164.979 21.4488 164.992 22.0171 165 22.4209C165.007 22.9107 164.613 23.307 164.125 23.307H147.809C148.061 26.3336 150.482 28.2498 153.559 28.2498C155.748 28.2498 157.543 27.3394 158.801 25.6942C159.079 25.3297 159.594 25.2456 159.975 25.5017L164.05 28.2311C164.458 28.504 164.559 29.0574 164.284 29.463C162.1 32.6766 158.5 34.5049 153.157 34.5049M147.962 18.3642H156.789C156.739 15.489 154.621 14.229 152.402 14.229C150.334 14.229 148.216 15.4404 147.964 18.3642" fill="#B6B7BA"/>
<mask id="mask0_1123_21406" style="mask-type:luminance" maskUnits="userSpaceOnUse" x="28" y="8" width="9" height="26">
<path d="M29.1718 8.74597H35.5054C35.9877 8.74597 36.3803 9.13855 36.3803 9.62087V33.0019C36.3803 33.4842 35.9877 33.8768 35.5054 33.8768H29.1718C28.6895 33.8768 28.2969 33.4842 28.2969 33.0019V9.62087C28.2969 9.13855 28.6895 8.74597 29.1718 8.74597Z" fill="white"/>
</mask>
<g mask="url(#mask0_1123_21406)">
<path d="M35.4145 6.12096L20.1406 11.7527L29.2654 36.4999L44.5393 30.8681L35.4145 6.12096Z" fill="#B6B7BA"/>
</g>
<mask id="mask1_1123_21406" style="mask-type:luminance" maskUnits="userSpaceOnUse" x="0" y="8" width="18" height="27">
<path d="M10.5921 9.05446L0.0933281 29.9454C-0.123526 30.3772 0.0503311 30.9025 0.48217 31.1194L6.14095 33.9628C6.57279 34.1797 7.0981 34.0058 7.31495 33.574L17.8137 12.683C18.0305 12.2512 17.8567 11.7259 17.4249 11.509L11.7661 8.66562C11.639 8.60205 11.5062 8.57214 11.3735 8.57214C11.0538 8.57214 10.7454 8.74787 10.5921 9.05446Z" fill="white"/>
</mask>
<g mask="url(#mask1_1123_21406)">
<path d="M15.1723 1.96093L-9.45312 12.6071L2.73387 40.7966L27.3593 30.1504L15.1723 1.96093Z" fill="#B6B7BA"/>
</g>
<mask id="mask2_1123_21406" style="mask-type:luminance" maskUnits="userSpaceOnUse" x="14" y="8" width="14" height="27">
<path d="M19.4231 9.12922L14.9308 31.9008C14.8374 32.3738 15.144 32.8318 15.6169 32.9271L21.8253 34.1796C22.3001 34.275 22.7638 33.9665 22.8572 33.4917L27.3495 10.7201C27.443 10.2471 27.1364 9.78913 26.6634 9.69378L20.455 8.44126C20.3971 8.43005 20.3391 8.42444 20.2812 8.42444C19.8717 8.42444 19.5053 8.71233 19.4231 9.12922Z" fill="white"/>
</mask>
<g mask="url(#mask2_1123_21406)">
<path d="M25.939 4.33838L6.45703 11.5102L16.3432 38.3656L35.8251 31.1938L25.939 4.33838Z" fill="#B6B7BA"/>
</g>
</g>
<defs>
<clipPath id="clip0_1123_21406">
<rect width="165" height="34.048" fill="white" transform="translate(0 0.456909)"/>
</clipPath>
</defs>
</svg>
