<svg width="113" height="24" viewBox="0 0 113 24" fill="none" xmlns="http://www.w3.org/2000/svg">
<g clip-path="url(#clip0_1004_3692)">
<path d="M38.7968 12.4944V22.5339C38.7968 22.8597 38.5303 23.1249 38.203 23.1249H33.8441C33.5155 23.1249 33.2502 22.8597 33.2502 22.5339V6.6803C33.2502 6.35449 33.5167 6.08929 33.8441 6.08929H38.203C38.5303 6.08929 38.7968 6.35449 38.7968 6.6803V7.92924C39.8919 6.56665 41.4324 5.71423 43.5896 5.71423C45.6098 5.71423 47.3559 6.53255 48.4167 8.06563C49.7174 6.53255 51.5663 5.71423 53.8263 5.71423C57.661 5.71423 60.2966 7.96334 60.2966 12.2557V22.5339C60.2966 22.8597 60.0301 23.1249 59.7028 23.1249H55.3439C55.0153 23.1249 54.7501 22.8597 54.7501 22.5339V13.415C54.7501 11.5409 53.6892 10.6216 52.2502 10.6216C51.0523 10.6216 50.093 11.3717 49.5448 12.4957V22.5352C49.5448 22.861 49.2783 23.1262 48.951 23.1262H44.5921C44.2635 23.1262 43.9982 22.861 43.9982 22.5352V13.4163C43.9982 11.5422 42.9374 10.6229 41.4984 10.6229C40.2663 10.6229 39.3412 11.373 38.793 12.4969" fill="#B6A2D7"/>
<path d="M67.5863 23.4658C64.3682 23.4658 61.6628 21.3531 61.6628 18.0824C61.6628 15.0844 63.6487 13.6865 67.3465 12.733L72.072 11.5068C71.935 10.3829 71.0442 9.83734 69.6065 9.83734C68.3324 9.83734 67.4163 10.3223 66.9937 11.2921C66.8757 11.5624 66.5927 11.7215 66.3034 11.6533L62.5587 10.7668C62.2136 10.6847 62.0118 10.3185 62.1349 9.98762C63.2097 7.0932 66.1968 5.57654 69.8108 5.57654C74.6721 5.57654 77.4803 7.85974 77.4803 11.8793V22.5326C77.4803 22.8597 77.2138 23.1236 76.8864 23.1236H72.7535C72.4311 23.1236 72.1672 22.8673 72.1596 22.5465L72.1393 21.6587L72.105 21.6928C70.7016 22.8849 69.3324 23.4646 67.585 23.4646M68.9885 19.205C69.708 19.205 70.2549 19.0005 71.0772 18.5231L72.0352 17.9435L72.0695 15.1829L69.6039 15.8648C67.9264 16.3422 67.1726 16.7514 67.1726 17.7048C67.1726 18.7605 68.0964 19.2038 68.9872 19.2038" fill="#B6A2D7"/>
<path d="M86.3364 15.0845L84.6588 16.6176V22.5339C84.6588 22.861 84.3923 23.1249 84.065 23.1249H79.8089C79.4802 23.1249 79.215 22.8597 79.215 22.5339V1.09101C79.215 0.765195 79.4815 0.5 79.8089 0.5H84.065C84.3923 0.5 84.6588 0.765195 84.6588 1.09101V10.7908L89.6242 6.24463C89.7334 6.14487 89.878 6.08804 90.0265 6.08804H95.2812C95.8243 6.08804 96.0819 6.75229 95.6822 7.11599L90.5835 11.7443L96.3979 22.2485C96.6161 22.6425 96.3293 23.1249 95.8776 23.1249H90.9097C90.6889 23.1249 90.4846 23.0024 90.3831 22.8067L86.3376 15.0832L86.3364 15.0845Z" fill="#B6A2D7"/>
<path d="M104.397 23.5C99.6389 23.5 95.2902 20.5361 95.2902 14.5389C95.2902 8.88268 99.4676 5.61194 104.055 5.61194C108.642 5.61194 112.273 8.91678 112.408 14.1298C112.424 14.6804 112.432 15.0643 112.438 15.337C112.443 15.6679 112.175 15.9356 111.844 15.9356H100.768C100.94 17.9801 102.583 19.2745 104.672 19.2745C106.158 19.2745 107.376 18.6595 108.23 17.5482C108.419 17.302 108.768 17.2452 109.027 17.4182L111.793 19.2619C112.07 19.4463 112.138 19.8201 111.952 20.0941C110.469 22.2649 108.025 23.5 104.399 23.5M100.872 12.5967H106.864C106.83 10.6544 105.392 9.80329 103.886 9.80329C102.483 9.80329 101.045 10.6216 100.874 12.5967" fill="#B6A2D7"/>
<mask id="mask0_1004_3692" style="mask-type:luminance" maskUnits="userSpaceOnUse" x="19" y="6" width="7" height="18">
<path d="M20.2396 6.09937H24.5388C24.8661 6.09937 25.1326 6.36456 25.1326 6.69037V22.4846C25.1326 22.8104 24.8661 23.0756 24.5388 23.0756H20.2396C19.9122 23.0756 19.6457 22.8104 19.6457 22.4846V6.69037C19.6457 6.36456 19.9122 6.09937 20.2396 6.09937Z" fill="white"/>
</mask>
<g mask="url(#mask0_1004_3692)">
<path d="M24.4782 4.32613L14.1105 8.13049L20.3043 24.8476L30.672 21.0433L24.4782 4.32613Z" fill="#B6A2D7"/>
</g>
<mask id="mask1_1004_3692" style="mask-type:luminance" maskUnits="userSpaceOnUse" x="0" y="5" width="13" height="19">
<path d="M7.62849 6.30775L0.502071 20.4199C0.354873 20.7116 0.472885 21.0665 0.766012 21.213L4.60712 23.1337C4.90025 23.2802 5.25682 23.1628 5.40402 22.8711L12.5304 8.75891C12.6776 8.46719 12.5596 8.11233 12.2665 7.96585L8.42539 6.04508C8.3391 6.00214 8.24901 5.98193 8.15891 5.98193C7.94192 5.98193 7.73254 6.10064 7.62849 6.30775Z" fill="white"/>
</mask>
<g mask="url(#mask1_1004_3692)">
<path d="M10.7377 1.51596L-5.97772 8.70764L2.29466 27.7501L19.0101 20.5584L10.7377 1.51596Z" fill="#B6A2D7"/>
</g>
<mask id="mask2_1004_3692" style="mask-type:luminance" maskUnits="userSpaceOnUse" x="10" y="5" width="10" height="19">
<path d="M13.6226 6.35829L10.5733 21.7409C10.5098 22.0604 10.7179 22.3698 11.039 22.4342L15.2532 23.2803C15.5755 23.3447 15.8902 23.1363 15.9536 22.8155L19.0029 7.43296C19.0664 7.11347 18.8582 6.80407 18.5372 6.73967L14.323 5.89357C14.2837 5.88599 14.2443 5.8822 14.205 5.8822C13.9271 5.8822 13.6784 6.07668 13.6226 6.35829Z" fill="white"/>
</mask>
<g mask="url(#mask2_1004_3692)">
<path d="M18.0458 3.12187L4.82172 7.96655L11.5323 26.1078L24.7564 21.2632L18.0458 3.12187Z" fill="#B6A2D7"/>
</g>
</g>
<defs>
<clipPath id="clip0_1004_3692">
<rect width="112" height="23" fill="white" transform="translate(0.439514 0.5)"/>
</clipPath>
</defs>
</svg>
