<svg width="61" height="60" viewBox="0 0 61 60" fill="none" xmlns="http://www.w3.org/2000/svg">
<path d="M19.1009 27.2346C24.4214 27.2346 28.7345 22.9288 28.7345 17.6173C28.7345 12.3058 24.4214 8 19.1009 8C13.7805 8 9.46735 12.3058 9.46735 17.6173C9.46735 22.9288 13.7805 27.2346 19.1009 27.2346Z" stroke="#FAFAFA" stroke-width="3" stroke-miterlimit="10" stroke-linecap="round" stroke-linejoin="round"/>
<path d="M36.2 50.7506V47.3027C36.2 39.696 30.0201 33.5266 22.4005 33.5266H15.7995C8.17989 33.5266 2 39.696 2 47.3027V50.7506" stroke="#FAFAFA" stroke-width="3" stroke-miterlimit="10" stroke-linecap="round" stroke-linejoin="round"/>
<circle cx="50.2308" cy="43.9539" r="7.76923" stroke="#FAFAFA" stroke-width="2"/>
<rect x="49.5562" y="40.5811" width="1.34911" height="7.42012" rx="0.674556" fill="#FAFAFA"/>
<rect x="53.9408" y="43.6166" width="1.34911" height="7.42012" rx="0.674556" transform="rotate(90 53.9408 43.6166)" fill="#FAFAFA"/>
</svg>
