<svg width="20" height="20" viewBox="0 0 20 20" fill="none" xmlns="http://www.w3.org/2000/svg">
<path fill-rule="evenodd" clip-rule="evenodd" d="M14 1.5H6C5.72386 1.5 5.5 1.72386 5.5 2V18C5.5 18.2761 5.72386 18.5 6 18.5H14C14.2761 18.5 14.5 18.2761 14.5 18V2C14.5 1.72386 14.2761 1.5 14 1.5ZM6 0C4.89543 0 4 0.895431 4 2V18C4 19.1046 4.89543 20 6 20H14C15.1046 20 16 19.1046 16 18V2C16 0.895431 15.1046 0 14 0H6Z" fill="#B6A2D7"/>
<path fill-rule="evenodd" clip-rule="evenodd" d="M16 15.5H5V14.5H16V15.5Z" fill="#B6A2D7"/>
<path fill-rule="evenodd" clip-rule="evenodd" d="M8.5 3C8.5 2.72386 8.72386 2.5 9 2.5L11 2.5C11.2761 2.5 11.5 2.72386 11.5 3C11.5 3.27614 11.2761 3.5 11 3.5L9 3.5C8.72386 3.5 8.5 3.27614 8.5 3Z" fill="#B6A2D7"/>
<path d="M11 17C11 17.5523 10.5523 18 10 18C9.44772 18 9 17.5523 9 17C9 16.4477 9.44772 16 10 16C10.5523 16 11 16.4477 11 17Z" fill="#B6A2D7"/>
</svg>
