<svg width="1298" height="77" viewBox="0 0 1298 77" fill="none" xmlns="http://www.w3.org/2000/svg">
<path d="M0.00195312 4C0.00195312 1.79086 1.79281 0 4.00195 0H1293.03C1295.24 0 1297.03 1.79086 1297.03 4V31.0293H0.00195312V4Z" fill="#3C1487"/>
<circle cx="36.7295" cy="14.8013" r="6.03032" fill="#9758F9"/>
<circle cx="15.8975" cy="14.8001" r="6.03032" fill="#9758F9"/>
<circle cx="57.5616" cy="14.8013" r="6.03032" fill="#9758F9"/>
<rect y="31.0295" width="1297.03" height="45.5097" fill="#4D17B2"/>
<path d="M12.4119 53.1756L16.1133 49.9362C16.5474 49.5563 16.5571 48.9317 16.135 48.541C15.7129 48.1503 15.0188 48.1416 14.5847 48.5215L10.2875 52.2823L10.2867 52.283C9.72711 52.7734 9.72776 53.5797 10.2881 54.0694L14.5847 57.8297C15.0188 58.2096 15.7129 58.2009 16.135 57.8102C16.5571 57.4195 16.5474 56.7948 16.1133 56.4149L12.4119 53.1756Z" fill="#9758F9"/>
<path d="M36.9259 53.1762L33.2246 56.4156C32.7905 56.7955 32.7808 57.4201 33.2029 57.8108C33.625 58.2015 34.3191 58.2102 34.7532 57.8303L39.0503 54.0695L39.0512 54.0688C39.6108 53.5784 39.6101 52.7721 39.0497 52.2824L34.7532 48.5221C34.3191 48.1422 33.625 48.1509 33.2029 48.5416C32.7808 48.9323 32.7905 49.557 33.2246 49.9369L36.9259 53.1762Z" fill="#9758F9"/>
<path d="M59.2051 58.109C61.627 58.109 63.5903 55.9002 63.5903 53.1756C63.5903 50.4509 61.627 48.2422 59.2051 48.2422" stroke="#9758F9" stroke-linecap="round"/>
<path d="M63.5928 52.6277C63.5928 50.2058 61.6294 48.2424 59.2075 48.2424C56.7856 48.2424 54.8223 50.2058 54.8223 52.6277" stroke="#9758F9" stroke-linecap="round"/>
<path d="M53.5575 53.0772L52.2476 49.9973C52.094 49.6362 51.6922 49.4975 51.3501 49.6876C51.008 49.8777 50.8552 50.3246 51.0089 50.6858L52.5296 54.2614L52.5299 54.2621C52.7284 54.7279 53.2499 54.8984 53.6853 54.6398L57.0273 52.6589C57.3649 52.4587 57.5064 52.0081 57.3433 51.6524C57.1802 51.2966 56.7742 51.1705 56.4366 51.3706L53.5575 53.0772Z" fill="#9758F9"/>
<rect x="80" y="44" width="639" height="20" rx="4" fill="#9758F9"/>
<path d="M95.32 48.976V50.72H98.472V60H100.424V50.72H103.576V48.976H95.32ZM109.077 52.336C108.325 52.336 107.125 52.752 106.757 53.664V48.464H104.901V60H106.757V56.048C106.757 54.592 107.813 54.096 108.661 54.096C109.493 54.096 110.213 54.736 110.213 55.936V60H112.069V55.808C112.069 53.632 110.997 52.336 109.077 52.336ZM115.11 51.024C115.782 51.024 116.31 50.528 116.31 49.888C116.31 49.232 115.782 48.752 115.11 48.752C114.454 48.752 113.894 49.232 113.894 49.888C113.894 50.528 114.454 51.024 115.11 51.024ZM116.038 60V52.528H114.182V60H116.038ZM120.741 60.192C122.261 60.192 123.781 59.36 123.781 57.84C123.781 57.152 123.477 56.096 121.797 55.664L120.597 55.344C120.165 55.248 119.797 55.024 119.797 54.64C119.797 54.176 120.197 53.84 120.773 53.84C121.301 53.84 121.765 54.16 121.765 54.672H123.541C123.557 53.008 122.053 52.336 120.725 52.336C119.093 52.336 117.941 53.392 117.941 54.56C117.941 55.504 118.373 56.4 120.053 56.848L121.045 57.104C121.605 57.232 121.925 57.424 121.925 57.84C121.925 58.32 121.445 58.688 120.709 58.688C119.925 58.688 119.477 58.208 119.477 57.696H117.733C117.765 59.296 119.253 60.192 120.741 60.192ZM130.345 51.024C131.017 51.024 131.545 50.528 131.545 49.888C131.545 49.232 131.017 48.752 130.345 48.752C129.689 48.752 129.129 49.232 129.129 49.888C129.129 50.528 129.689 51.024 130.345 51.024ZM131.273 60V52.528H129.417V60H131.273ZM138.167 50.192V48.464H137.287C135.207 48.464 134.183 49.76 134.183 51.904V52.528H132.759V54H134.183V60H136.039V54H137.703V52.528H136.039V51.808C136.023 50.896 136.391 50.192 137.655 50.192H138.167ZM143.088 52.336C142.16 52.336 141.344 52.88 140.944 54.128V52.528H139.088V60H140.96V57.392C140.96 55.296 141.632 54.08 142.848 54.08C143.12 54.08 143.504 54.128 143.936 54.352L144.304 52.592C144.016 52.432 143.536 52.336 143.088 52.336ZM151.019 53.568C150.523 52.784 149.531 52.336 148.507 52.336C146.395 52.336 144.859 54 144.859 56.256C144.859 58.576 146.459 60.192 148.459 60.192C149.531 60.192 150.523 59.648 151.019 58.832V60H152.875V52.528H151.019V53.568ZM148.843 58.464C147.627 58.464 146.715 57.456 146.715 56.256C146.715 55.056 147.627 54.064 148.827 54.064C149.931 54.064 150.987 54.976 150.987 56.256C150.987 57.504 149.995 58.464 148.843 58.464ZM164.096 52.336C163.344 52.336 162.176 52.672 161.584 53.84C161.136 52.896 160.256 52.336 159.168 52.336C158.224 52.336 157.152 52.896 156.944 53.904V52.528H155.088V60H156.944V56.016C156.944 54.592 157.808 54.08 158.672 54.08C159.472 54.08 160.096 54.72 160.096 55.904V60H161.952V56.304C161.952 54.816 162.56 54.08 163.632 54.08C164.496 54.08 165.12 54.704 165.12 55.904V60H166.96V55.808C166.96 53.632 165.968 52.336 164.096 52.336ZM176.368 56.192C176.368 53.856 174.688 52.336 172.56 52.336C170.416 52.336 168.64 53.872 168.64 56.256C168.64 58.592 170.336 60.192 172.56 60.192C173.92 60.192 175.248 59.584 175.936 58.496L174.688 57.552C174.256 58.16 173.472 58.512 172.672 58.512C171.552 58.512 170.752 57.952 170.544 56.912H176.336C176.352 56.64 176.368 56.4 176.368 56.192ZM170.544 55.616C170.768 54.48 171.584 53.984 172.576 53.984C173.616 53.984 174.416 54.592 174.528 55.616H170.544ZM183.835 60V48.464H181.979V60H183.835ZM193.322 56.192C193.322 53.856 191.642 52.336 189.514 52.336C187.37 52.336 185.594 53.872 185.594 56.256C185.594 58.592 187.289 60.192 189.514 60.192C190.874 60.192 192.202 59.584 192.89 58.496L191.642 57.552C191.21 58.16 190.426 58.512 189.626 58.512C188.506 58.512 187.706 57.952 187.498 56.912H193.29C193.306 56.64 193.322 56.4 193.322 56.192ZM187.498 55.616C187.722 54.48 188.538 53.984 189.53 53.984C190.57 53.984 191.37 54.592 191.482 55.616H187.498ZM197.445 52.528V49.776H195.589V52.528H194.245V54H195.589V60H197.445V54H199.029V52.528H197.445ZM200.768 53.312C202 52.336 203.04 50.624 202.928 48.656H201.104C201.248 50.512 200.784 51.584 199.856 52.88L200.768 53.312ZM206.444 60.192C207.964 60.192 209.484 59.36 209.484 57.84C209.484 57.152 209.18 56.096 207.5 55.664L206.3 55.344C205.868 55.248 205.5 55.024 205.5 54.64C205.5 54.176 205.9 53.84 206.476 53.84C207.004 53.84 207.468 54.16 207.468 54.672H209.244C209.26 53.008 207.756 52.336 206.428 52.336C204.796 52.336 203.644 53.392 203.644 54.56C203.644 55.504 204.076 56.4 205.756 56.848L206.748 57.104C207.308 57.232 207.628 57.424 207.628 57.84C207.628 58.32 207.148 58.688 206.412 58.688C205.628 58.688 205.18 58.208 205.18 57.696H203.436C203.468 59.296 204.956 60.192 206.444 60.192ZM218.018 57.264L216.082 52.528H214.05L217.026 59.472L215.346 63.648H217.298L221.938 52.528H219.938L218.018 57.264ZM226.452 60.192C228.58 60.192 230.436 58.624 230.436 56.256C230.436 53.888 228.58 52.336 226.452 52.336C224.324 52.336 222.484 53.888 222.484 56.256C222.484 58.624 224.324 60.192 226.452 60.192ZM226.452 58.464C225.3 58.464 224.356 57.568 224.356 56.256C224.356 54.976 225.3 54.064 226.452 54.064C227.604 54.064 228.564 54.976 228.564 56.256C228.564 57.568 227.604 58.464 226.452 58.464ZM237.398 56.528C237.398 57.984 236.342 58.464 235.494 58.464C234.662 58.464 233.942 57.84 233.942 56.64V52.528H232.086V56.72C232.086 58.896 233.158 60.192 235.078 60.192C235.83 60.192 237.014 59.776 237.398 58.832V60H239.254V52.528H237.398V56.528ZM248.954 60.192C250.25 60.192 251.306 59.616 251.994 58.752L250.682 57.712C250.298 58.176 249.658 58.464 248.986 58.464C247.69 58.464 246.762 57.504 246.762 56.256C246.762 54.992 247.69 54.064 248.986 54.064C249.658 54.064 250.298 54.352 250.682 54.816L251.994 53.776C251.306 52.912 250.25 52.336 248.954 52.336C246.794 52.336 244.89 53.888 244.89 56.256C244.89 58.624 246.794 60.192 248.954 60.192ZM255.444 60V48.464H253.588V60H255.444ZM258.579 51.024C259.251 51.024 259.779 50.528 259.779 49.888C259.779 49.232 259.251 48.752 258.579 48.752C257.923 48.752 257.363 49.232 257.363 49.888C257.363 50.528 257.923 51.024 258.579 51.024ZM259.507 60V52.528H257.651V60H259.507ZM265.297 60.192C266.593 60.192 267.649 59.616 268.337 58.752L267.025 57.712C266.641 58.176 266.001 58.464 265.329 58.464C264.033 58.464 263.105 57.504 263.105 56.256C263.105 54.992 264.033 54.064 265.329 54.064C266.001 54.064 266.641 54.352 267.025 54.816L268.337 53.776C267.649 52.912 266.593 52.336 265.297 52.336C263.137 52.336 261.233 53.888 261.233 56.256C261.233 58.624 263.137 60.192 265.297 60.192ZM273.308 55.792L276.348 52.528H273.932L271.788 54.912V48.464H269.932V60H271.788V56.608L274.7 60H277.052L273.308 55.792ZM287.347 53.568C286.851 52.784 285.859 52.336 284.835 52.336C282.723 52.336 281.187 54 281.187 56.256C281.187 58.576 282.787 60.192 284.787 60.192C285.859 60.192 286.851 59.648 287.347 58.832V60H289.203V52.528H287.347V53.568ZM285.171 58.464C283.955 58.464 283.043 57.456 283.043 56.256C283.043 55.056 283.955 54.064 285.155 54.064C286.259 54.064 287.315 54.976 287.315 56.256C287.315 57.504 286.323 58.464 285.171 58.464ZM295.593 52.336C294.825 52.336 293.657 52.768 293.273 53.712V52.528H291.417V60H293.273V56.032C293.273 54.592 294.329 54.096 295.177 54.096C296.009 54.096 296.729 54.736 296.729 55.936V60H298.585V55.808C298.585 53.632 297.513 52.336 295.593 52.336ZM306.41 53.504C305.898 52.72 304.858 52.336 303.914 52.336C301.946 52.336 300.25 53.856 300.25 56.256C300.25 58.64 301.962 60.192 303.93 60.192C304.842 60.192 305.898 59.792 306.41 59.008V60H308.266V48.464H306.41V53.504ZM304.218 58.464C303.066 58.464 302.122 57.488 302.122 56.24C302.122 54.992 303.066 54.064 304.218 54.064C305.29 54.064 306.378 54.928 306.378 56.24C306.378 57.552 305.354 58.464 304.218 58.464ZM321.665 56.192C321.665 53.856 319.985 52.336 317.857 52.336C315.713 52.336 313.937 53.872 313.937 56.256C313.937 58.592 315.633 60.192 317.857 60.192C319.217 60.192 320.545 59.584 321.233 58.496L319.985 57.552C319.553 58.16 318.769 58.512 317.969 58.512C316.849 58.512 316.049 57.952 315.841 56.912H321.633C321.649 56.64 321.665 56.4 321.665 56.192ZM315.841 55.616C316.065 54.48 316.881 53.984 317.873 53.984C318.913 53.984 319.713 54.592 319.825 55.616H315.841ZM327.12 55.92L329.568 52.528H327.376L326.064 54.432L324.752 52.528H322.56L325.008 55.92L322.064 60H324.24L326.064 57.424L327.872 60H330.064L327.12 55.92ZM335.581 52.336C334.685 52.336 333.613 52.72 333.101 53.52V52.528H331.245V63.648H333.101V59.008C333.613 59.808 334.653 60.192 335.597 60.192C337.565 60.192 339.261 58.656 339.261 56.272C339.261 53.872 337.549 52.336 335.581 52.336ZM335.293 58.464C334.221 58.464 333.133 57.6 333.133 56.272C333.133 54.96 334.157 54.064 335.293 54.064C336.445 54.064 337.405 55.04 337.405 56.272C337.405 57.52 336.445 58.464 335.293 58.464ZM342.882 60V48.464H341.026V60H342.882ZM348.592 60.192C350.72 60.192 352.576 58.624 352.576 56.256C352.576 53.888 350.72 52.336 348.592 52.336C346.464 52.336 344.624 53.888 344.624 56.256C344.624 58.624 346.464 60.192 348.592 60.192ZM348.592 58.464C347.44 58.464 346.496 57.568 346.496 56.256C346.496 54.976 347.44 54.064 348.592 54.064C349.744 54.064 350.704 54.976 350.704 56.256C350.704 57.568 349.744 58.464 348.592 58.464ZM358.323 52.336C357.395 52.336 356.579 52.88 356.179 54.128V52.528H354.323V60H356.195V57.392C356.195 55.296 356.867 54.08 358.083 54.08C358.355 54.08 358.739 54.128 359.171 54.352L359.539 52.592C359.251 52.432 358.771 52.336 358.323 52.336ZM367.822 56.192C367.822 53.856 366.142 52.336 364.014 52.336C361.87 52.336 360.094 53.872 360.094 56.256C360.094 58.592 361.789 60.192 364.014 60.192C365.374 60.192 366.702 59.584 367.39 58.496L366.142 57.552C365.71 58.16 364.926 58.512 364.126 58.512C363.006 58.512 362.206 57.952 361.998 56.912H367.79C367.806 56.64 367.822 56.4 367.822 56.192ZM361.998 55.616C362.222 54.48 363.038 53.984 364.03 53.984C365.07 53.984 365.87 54.592 365.982 55.616H361.998ZM375.96 52.528V49.776H374.104V52.528H372.76V54H374.104V60H375.96V54H377.544V52.528H375.96ZM383.139 52.336C382.387 52.336 381.187 52.752 380.819 53.664V48.464H378.963V60H380.819V56.048C380.819 54.592 381.875 54.096 382.723 54.096C383.555 54.096 384.275 54.736 384.275 55.936V60H386.131V55.808C386.131 53.632 385.059 52.336 383.139 52.336ZM395.525 56.192C395.525 53.856 393.845 52.336 391.717 52.336C389.573 52.336 387.797 53.872 387.797 56.256C387.797 58.592 389.493 60.192 391.717 60.192C393.077 60.192 394.405 59.584 395.093 58.496L393.845 57.552C393.413 58.16 392.629 58.512 391.829 58.512C390.709 58.512 389.909 57.952 389.701 56.912H395.493C395.509 56.64 395.525 56.4 395.525 56.192ZM389.701 55.616C389.925 54.48 390.741 53.984 391.733 53.984C392.773 53.984 393.573 54.592 393.685 55.616H389.701ZM403.663 52.528V49.776H401.807V52.528H400.463V54H401.807V60H403.663V54H405.247V52.528H403.663ZM413.79 56.192C413.79 53.856 412.11 52.336 409.982 52.336C407.838 52.336 406.062 53.872 406.062 56.256C406.062 58.592 407.758 60.192 409.982 60.192C411.342 60.192 412.67 59.584 413.358 58.496L412.11 57.552C411.678 58.16 410.894 58.512 410.094 58.512C408.974 58.512 408.174 57.952 407.966 56.912H413.758C413.774 56.64 413.79 56.4 413.79 56.192ZM407.966 55.616C408.19 54.48 409.006 53.984 409.998 53.984C411.038 53.984 411.838 54.592 411.95 55.616H407.966ZM424.503 52.336C423.751 52.336 422.583 52.672 421.991 53.84C421.543 52.896 420.663 52.336 419.575 52.336C418.631 52.336 417.559 52.896 417.351 53.904V52.528H415.495V60H417.351V56.016C417.351 54.592 418.215 54.08 419.079 54.08C419.879 54.08 420.503 54.72 420.503 55.904V60H422.359V56.304C422.359 54.816 422.967 54.08 424.039 54.08C424.903 54.08 425.527 54.704 425.527 55.904V60H427.367V55.808C427.367 53.632 426.375 52.336 424.503 52.336ZM433.831 52.336C432.935 52.336 431.863 52.72 431.351 53.52V52.528H429.495V63.648H431.351V59.008C431.863 59.808 432.903 60.192 433.847 60.192C435.815 60.192 437.511 58.656 437.511 56.272C437.511 53.872 435.799 52.336 433.831 52.336ZM433.543 58.464C432.471 58.464 431.383 57.6 431.383 56.272C431.383 54.96 432.407 54.064 433.543 54.064C434.695 54.064 435.655 55.04 435.655 56.272C435.655 57.52 434.695 58.464 433.543 58.464ZM441.132 60V48.464H439.276V60H441.132ZM449.05 53.568C448.554 52.784 447.562 52.336 446.538 52.336C444.426 52.336 442.89 54 442.89 56.256C442.89 58.576 444.49 60.192 446.49 60.192C447.562 60.192 448.554 59.648 449.05 58.832V60H450.906V52.528H449.05V53.568ZM446.874 58.464C445.658 58.464 444.746 57.456 444.746 56.256C444.746 55.056 445.658 54.064 446.858 54.064C447.962 54.064 449.018 54.976 449.018 56.256C449.018 57.504 448.026 58.464 446.874 58.464ZM455.648 52.528V49.776H453.792V52.528H452.448V54H453.792V60H455.648V54H457.232V52.528H455.648ZM465.775 56.192C465.775 53.856 464.095 52.336 461.967 52.336C459.823 52.336 458.047 53.872 458.047 56.256C458.047 58.592 459.743 60.192 461.967 60.192C463.327 60.192 464.655 59.584 465.343 58.496L464.095 57.552C463.663 58.16 462.879 58.512 462.079 58.512C460.959 58.512 460.159 57.952 459.951 56.912H465.743C465.759 56.64 465.775 56.4 465.775 56.192ZM459.951 55.616C460.175 54.48 460.991 53.984 461.983 53.984C463.023 53.984 463.823 54.592 463.935 55.616H459.951Z" fill="white"/>
</svg>
