<svg width="87" height="32" viewBox="0 0 87 32" fill="none" xmlns="http://www.w3.org/2000/svg">
<g clip-path="url(#clip0_1004_3725)">
<path d="M29.5883 10.9052C28.4015 9.57399 26.9335 8.90381 25.189 8.90381C24.1137 8.90381 23.1232 9.11352 22.2129 9.53752C21.3027 9.96151 20.5175 10.536 19.8526 11.27C19.1923 12.0085 18.6703 12.8656 18.2866 13.8595C17.9028 14.8488 17.711 15.9202 17.711 17.0782C17.711 18.2134 17.8895 19.2483 18.2419 20.1829C18.5989 21.113 19.0941 21.9108 19.7366 22.5764C20.3791 23.242 21.1421 23.7618 22.0255 24.1356C22.909 24.5095 23.8772 24.6964 24.9302 24.6964C25.4076 24.6964 25.8493 24.6599 26.2509 24.5915C26.6524 24.5231 27.0362 24.4092 27.402 24.2542C27.7679 24.0946 28.1248 23.894 28.4818 23.6524C28.8343 23.4062 29.2046 23.0962 29.5883 22.7269V26.6796H29.5838V27.0625H24.7116L21.0484 31.2751V32H34.7952V30.2903V9.31868H29.5883V10.9052ZM29.5749 18.1496C29.392 18.569 29.151 18.9383 28.8566 19.2529C28.5576 19.5674 28.2051 19.8091 27.7947 19.9869C27.3842 20.1647 26.9469 20.2513 26.4874 20.2513C26.0055 20.2513 25.5593 20.1647 25.1488 19.9869C24.7383 19.8091 24.3814 19.5674 24.0824 19.2529C23.7835 18.9383 23.5515 18.569 23.3775 18.1496C23.2035 17.7301 23.1187 17.2697 23.1187 16.7819C23.1187 16.3123 23.2079 15.87 23.3909 15.4597C23.5738 15.0494 23.8147 14.6938 24.1271 14.3884C24.4349 14.0829 24.7874 13.8413 25.189 13.6543C25.5905 13.4674 26.0233 13.3762 26.4829 13.3762C26.9246 13.3762 27.3485 13.4629 27.7634 13.6407C28.1739 13.8139 28.5353 14.0601 28.8432 14.3747C29.151 14.6893 29.392 15.0494 29.5794 15.4597C29.7623 15.87 29.8516 16.3214 29.8516 16.8138C29.8471 17.2834 29.7579 17.7301 29.5749 18.1496Z" fill="#B6A2D7"/>
<path d="M15.0608 11.1515C14.7842 10.8187 14.4719 10.5315 14.1372 10.2762C13.8383 10.0528 13.5215 9.85674 13.178 9.69718C13.0129 9.61967 12.8389 9.55584 12.6559 9.49658C12.3927 9.40995 12.1071 9.35069 11.8126 9.30054H8.10043L5.64644 12.1591V11.8263V9.3598H0.439514V24.4412H5.64644V17.9719V14.2653H6.36925H7.81934H10.4741H10.5366L10.9426 14.2562V24.4366H16.1495V15.0039C16.1495 14.2015 16.0737 13.4857 15.922 12.8566C15.7703 12.232 15.4847 11.6667 15.0608 11.1515Z" fill="#B6A2D7"/>
<path d="M50.108 9.3186H46.2485C46.2485 9.3186 44.8698 9.3186 44.4281 9.3186L42.1704 11.9173V9.3186H36.959V24.4H42.1794L42.1838 14.3062H43.8972H45.9719L50.108 9.52832V9.3186Z" fill="#B6A2D7"/>
<path d="M78.2446 16.2849L85.3657 9.57402V9.31871H78.5034L73.0422 14.7577V0H67.8353V24.3955H73.0422V18.2545L78.7667 24.3955H85.7728V24.1083L78.2446 16.2849Z" fill="#B6A2D7"/>
<path d="M63.7657 11.0374C62.9715 10.3216 62.0301 9.76544 60.9459 9.36425C59.8616 8.96305 58.6882 8.76245 57.421 8.76245C56.136 8.76245 54.9492 8.96761 53.8694 9.37792C52.7852 9.78824 51.8527 10.3536 51.0629 11.0648C50.2777 11.7805 49.6619 12.624 49.2202 13.5951C48.7785 14.5661 48.5599 15.6102 48.5599 16.7271C48.5599 17.9626 48.7785 19.0842 49.2202 20.0917C49.6619 21.0993 50.2687 21.9655 51.0496 22.6904C51.8259 23.4153 52.7495 23.976 53.8248 24.3681C54.9001 24.7602 56.0691 24.9562 57.3363 24.9562C58.6213 24.9562 59.8126 24.7602 60.9191 24.3681C62.0212 23.976 62.9671 23.4244 63.7523 22.704C64.5376 21.9883 65.1578 21.1357 65.6085 20.1464C66.0591 19.1571 66.2867 18.0675 66.2867 16.8685C66.2867 15.674 66.0636 14.5798 65.6263 13.5905C65.1801 12.6057 64.5599 11.7532 63.7657 11.0374ZM60.5131 18.1769C60.3301 18.5963 60.0892 18.9656 59.7947 19.2802C59.4958 19.5948 59.1433 19.8364 58.7328 20.0142C58.3179 20.192 57.8851 20.2786 57.4255 20.2786C56.9659 20.2786 56.5287 20.192 56.1137 20.0142C55.7032 19.8364 55.3463 19.5948 55.0518 19.2802C54.7529 18.9656 54.5164 18.5963 54.3335 18.1769C54.1505 17.7575 54.0613 17.2924 54.0613 16.7818C54.0613 16.3122 54.1505 15.87 54.3335 15.4597C54.5164 15.0494 54.7529 14.6892 55.0518 14.3747C55.3507 14.0601 55.7032 13.8139 56.1137 13.6406C56.5287 13.4628 56.9615 13.3762 57.4255 13.3762C57.8851 13.3762 58.3223 13.4628 58.7328 13.6406C59.1433 13.8139 59.5002 14.0601 59.7947 14.3747C60.0937 14.6892 60.3301 15.0585 60.5131 15.4779C60.696 15.8974 60.7852 16.3442 60.7852 16.8137C60.7852 17.3016 60.696 17.7575 60.5131 18.1769Z" fill="#B6A2D7"/>
</g>
<defs>
<clipPath id="clip0_1004_3725">
<rect width="86" height="32" fill="white" transform="translate(0.439514)"/>
</clipPath>
</defs>
</svg>
