<svg width="24" height="19" viewBox="0 0 24 19" fill="none" xmlns="http://www.w3.org/2000/svg">
<path d="M20.375 1H2.875C1.83947 1 1 1.83947 1 2.875V15.375C1 16.4105 1.83947 17.25 2.875 17.25H20.375C21.4105 17.25 22.25 16.4105 22.25 15.375V2.875C22.25 1.83947 21.4105 1 20.375 1Z" stroke="#B6A2D7"/>
<path d="M16.625 4.75H6.625C5.58947 4.75 4.75 5.58947 4.75 6.625V11.625C4.75 12.6605 5.58947 13.5 6.625 13.5H16.625C17.6605 13.5 18.5 12.6605 18.5 11.625V6.625C18.5 5.58947 17.6605 4.75 16.625 4.75Z" fill="#B6A2D7" stroke="#B6A2D7"/>
</svg>
