<svg width="24" height="19" viewBox="0 0 24 19" fill="none" xmlns="http://www.w3.org/2000/svg">
<path d="M20.375 1H2.875C1.83947 1 1 1.83947 1 2.875V15.375C1 16.4105 1.83947 17.25 2.875 17.25H20.375C21.4105 17.25 22.25 16.4105 22.25 15.375V2.875C22.25 1.83947 21.4105 1 20.375 1Z" stroke="url(#paint0_linear_1317_7336)"/>
<path d="M16.4266 4.94263H6.31793C5.27114 4.94263 4.42255 5.79375 4.42255 6.84367V11.9131C4.42255 12.963 5.27114 13.8142 6.31793 13.8142H16.4266C17.4734 13.8142 18.322 12.963 18.322 11.9131V6.84367C18.322 5.79375 17.4734 4.94263 16.4266 4.94263Z" fill="url(#paint1_linear_1317_7336)" stroke="url(#paint2_linear_1317_7336)"/>
<defs>
<linearGradient id="paint0_linear_1317_7336" x1="11.625" y1="1" x2="19.684" y2="16.3483" gradientUnits="userSpaceOnUse">
<stop stop-color="#6310E5"/>
<stop offset="1" stop-color="#8322FE"/>
</linearGradient>
<linearGradient id="paint1_linear_1317_7336" x1="11.3723" y1="4.94263" x2="15.3022" y2="13.9098" gradientUnits="userSpaceOnUse">
<stop stop-color="#6310E5"/>
<stop offset="1" stop-color="#8322FE"/>
</linearGradient>
<linearGradient id="paint2_linear_1317_7336" x1="11.3723" y1="4.94263" x2="15.3022" y2="13.9098" gradientUnits="userSpaceOnUse">
<stop stop-color="#6310E5"/>
<stop offset="1" stop-color="#8322FE"/>
</linearGradient>
</defs>
</svg>
