<svg width="787" height="545" viewBox="0 0 787 545" fill="none" xmlns="http://www.w3.org/2000/svg">
<g clip-path="url(#clip0)">
<path d="M-1 3.7037C-1 1.6582 0.902638 0 3.24966 0H777.75C780.097 0 782 1.6582 782 3.7037V25H-1V3.7037Z" fill="#EDEFF3"/>
<path d="M16.337 12.3186C16.337 15.0905 14.091 17.3375 11.3203 17.3375C8.54956 17.3375 6.30347 15.0905 6.30347 12.3186C6.30347 9.54681 8.54956 7.2998 11.3203 7.2998C14.091 7.2998 16.337 9.54681 16.337 12.3186Z" fill="#EE4266"/>
<path d="M33.6617 12.3186C33.6617 15.0905 31.4157 17.3375 28.645 17.3375C25.8743 17.3375 23.6282 15.0905 23.6282 12.3186C23.6282 9.54681 25.8743 7.2998 28.645 7.2998C31.4157 7.2998 33.6617 9.54681 33.6617 12.3186Z" fill="#FFC857"/>
<path d="M50.9959 12.3186C50.9959 15.0905 48.7498 17.3375 45.9791 17.3375C43.2084 17.3375 40.9623 15.0905 40.9623 12.3186C40.9623 9.54681 43.2084 7.2998 45.9791 7.2998C48.7498 7.2998 50.9959 9.54681 50.9959 12.3186Z" fill="#59C3C3"/>
<path d="M-1 25H782V62H-1V25Z" fill="white"/>
<path d="M-1 62H735" stroke="#E4E8EE"/>
<path d="M62.8557 35.6335C62.8557 33.6176 64.4892 31.9834 66.5042 31.9834H275.385C277.4 31.9834 279.034 33.6176 279.034 35.6335V51.1462C279.034 53.1621 277.4 54.7963 275.385 54.7963H66.5042C64.4892 54.7963 62.8557 53.1621 62.8557 51.1462V35.6335Z" fill="#EDEFF3"/>
<rect x="70.7172" y="39.7632" width="101.959" height="6.91531" rx="3.45765" fill="#D4D8E4"/>
<path d="M9.3295 43.3436L12.4091 40.6474C12.7702 40.3311 12.7783 39.8112 12.4271 39.486C12.0759 39.1608 11.4984 39.1536 11.1373 39.4698L7.56198 42.6001L7.5613 42.6007C7.09569 43.0089 7.09624 43.68 7.56248 44.0876L11.1373 47.2175C11.4984 47.5337 12.0759 47.5264 12.4271 47.2012C12.7783 46.876 12.7702 46.3561 12.4091 46.0399L9.3295 43.3436Z" fill="#D4D8E4"/>
<path d="M28.8179 43.3439L25.7383 46.0402C25.3772 46.3564 25.3691 46.8763 25.7203 47.2015C26.0715 47.5267 26.649 47.5339 27.0101 47.2177L30.5854 44.0874L30.5861 44.0868C31.0517 43.6786 31.0512 43.0075 30.5849 42.5999L27.0101 39.47C26.649 39.1538 26.0715 39.1611 25.7203 39.4863C25.3691 39.8115 25.3772 40.3314 25.7383 40.6476L28.8179 43.3439Z" fill="#D4D8E4"/>
<path fill-rule="evenodd" clip-rule="evenodd" d="M46.2067 39.2382C46.2067 38.7342 46.615 38.3257 47.1188 38.3257C49.7636 38.3257 51.9076 40.4706 51.9076 43.1164C51.9076 45.7622 49.7636 47.9071 47.1188 47.9071C46.615 47.9071 46.2067 47.4985 46.2067 46.9946C46.2067 46.4906 46.615 46.0821 47.1188 46.0821C48.756 46.0821 50.0833 44.7543 50.0833 43.1164C50.0833 41.4785 48.756 40.1507 47.1188 40.1507C46.615 40.1507 46.2067 39.7422 46.2067 39.2382Z" fill="#D4D8E4"/>
<path fill-rule="evenodd" clip-rule="evenodd" d="M43.2391 44.0283C42.7353 44.0283 42.327 43.6198 42.327 43.1158C42.327 40.47 44.471 38.3251 47.1157 38.3251C49.7605 38.3251 51.9045 40.47 51.9045 43.1158C51.9045 43.6198 51.4961 44.0283 50.9923 44.0283C50.4886 44.0283 50.0802 43.6198 50.0802 43.1158C50.0802 41.4779 48.7529 40.1501 47.1157 40.1501C45.4785 40.1501 44.1513 41.4779 44.1513 43.1158C44.1513 43.6198 43.7429 44.0283 43.2391 44.0283Z" fill="#D4D8E4"/>
<path d="M42.6591 43.2808L41.5913 40.7692C41.4661 40.4746 41.1385 40.3615 40.8597 40.5166C40.5808 40.6716 40.4563 41.0361 40.5815 41.3306L41.8212 44.2466L41.8214 44.2471C41.9832 44.627 42.4083 44.766 42.7633 44.5552L45.4876 42.9397C45.7629 42.7765 45.8782 42.409 45.7452 42.1189C45.6122 41.8288 45.2813 41.7259 45.0061 41.8891L42.6591 43.2808Z" fill="#D4D8E4"/>
<path d="M-3 69C-3 64.5817 0.581722 61 5 61H782V537C782 541.418 778.418 545 774 545H5C0.581722 545 -3 541.418 -3 537V69Z" fill="#EDEFF3"/>
<path d="M503 429H762" stroke="#D4D8E4"/>
<rect x="500" y="242" width="262" height="115" rx="4" fill="#D4D8E4"/>
<rect x="503" y="397" width="233" height="8" rx="4" fill="#D4D8E4"/>
<rect x="503" y="381" width="250" height="8" rx="4" fill="#D4D8E4"/>
<rect x="503" y="437" width="233" height="8" rx="4" fill="#D4D8E4"/>
<rect x="503" y="413" width="186" height="8" rx="4" fill="#D4D8E4"/>
<rect x="503" y="453" width="186" height="8" rx="4" fill="#D4D8E4"/>
<rect x="503" y="468" width="213" height="4" rx="2" fill="#D4D8E4"/>
<rect x="606" y="361" width="151" height="4" rx="2" fill="#D4D8E4"/>
<rect x="503" y="476" width="233" height="4" rx="2" fill="#D4D8E4"/>
<rect x="503" y="484" width="233" height="4" rx="2" fill="#D4D8E4"/>
<rect x="503" y="492" width="98" height="4" rx="2" fill="#D4D8E4"/>
<rect x="18" y="512" width="91.1279" height="8" rx="4" fill="#D4D8E4"/>
<rect x="18" y="528" width="114.537" height="8" rx="4" fill="#D4D8E4"/>
<rect x="18" y="544" width="91.1279" height="8" rx="4" fill="#D4D8E4"/>
<rect x="176.847" y="506" width="305.153" height="242" rx="4" fill="#D4D8E4"/>
<rect x="17" y="242" width="465" height="120" rx="4" fill="white"/>
<path d="M462.75 253.75L470.25 261.25" stroke="#EDEFF3" stroke-width="3" stroke-linecap="round"/>
<path d="M470.25 253.75L462.75 261.25" stroke="#EDEFF3" stroke-width="3" stroke-linecap="round"/>
<rect x="162" y="323.336" width="76.8668" height="21.7036" rx="4" fill="#E4E8EE"/>
<rect x="162" y="281.784" width="239.401" height="4.20002" rx="2.10001" fill="#EDEFF3"/>
<rect x="162" y="294.384" width="162.751" height="4.20002" rx="2.10001" fill="#EDEFF3"/>
<rect x="162" y="306.984" width="213.151" height="4.20002" rx="2.10001" fill="#EDEFF3"/>
<rect x="162" y="258" width="139" height="11" rx="5.5" fill="#EDEFF3"/>
<path d="M17 246C17 243.791 18.7909 242 21 242H137V362H21C18.7909 362 17 360.209 17 358V246Z" fill="#A0E9E9"/>
<path d="M70.5269 289.464L91.179 289.464C91.7313 289.464 92.179 289.912 92.179 290.464L92.179 314.447C92.179 314.999 91.7313 315.447 91.179 315.447L65.4644 315.447C64.9121 315.447 64.4644 314.999 64.4644 314.447L64.4644 310.25" stroke="#46AEAE" stroke-width="2"/>
<mask id="path-41-inside-1" fill="white">
<rect x="71.393" y="286" width="24.2503" height="10.393" rx="1" transform="rotate(90 71.393 286)"/>
</mask>
<rect x="71.393" y="286" width="24.2503" height="10.393" rx="1" transform="rotate(90 71.393 286)" stroke="#46AEAE" stroke-width="4" mask="url(#path-41-inside-1)"/>
<circle cx="66.1965" cy="291.197" r="1.73217" fill="#46AEAE"/>
<ellipse cx="66.1965" cy="298.125" rx="1.73217" ry="1.73217" fill="#46AEAE"/>
<ellipse cx="66.1965" cy="305.054" rx="1.73217" ry="1.73217" fill="#46AEAE"/>
<line x1="75.8573" y1="297.125" x2="85.9825" y2="297.125" stroke="#46AEAE" stroke-width="2" stroke-linecap="round"/>
<line x1="75.8573" y1="302.322" x2="85.9825" y2="302.322" stroke="#46AEAE" stroke-width="2" stroke-linecap="round"/>
<line x1="75.8573" y1="307.518" x2="85.9825" y2="307.518" stroke="#46AEAE" stroke-width="2" stroke-linecap="round"/>
<rect x="17" y="370" width="465" height="120" rx="4" fill="white"/>
<path d="M462.75 381.75L470.25 389.25" stroke="#EDEFF3" stroke-width="3" stroke-linecap="round"/>
<path d="M470.25 381.75L462.75 389.25" stroke="#EDEFF3" stroke-width="3" stroke-linecap="round"/>
<rect x="162" y="451.336" width="76.8668" height="21.7036" rx="4" fill="#E4E8EE"/>
<rect x="162" y="409.784" width="239.401" height="4.20002" rx="2.10001" fill="#EDEFF3"/>
<rect x="162" y="422.384" width="162.751" height="4.20002" rx="2.10001" fill="#EDEFF3"/>
<rect x="162" y="434.984" width="213.151" height="4.20002" rx="2.10001" fill="#EDEFF3"/>
<rect x="162" y="386" width="139" height="11" rx="5.5" fill="#EDEFF3"/>
<path d="M17 374C17 371.791 18.7909 370 21 370H137V490H21C18.7909 490 17 488.209 17 486V374Z" fill="#FADA99"/>
<path d="M74.6253 435.812C75.9532 435.812 77.0296 434.736 77.0296 433.408C77.0296 432.08 75.9532 431.004 74.6253 431.004C73.2975 431.004 72.2211 432.08 72.2211 433.408C72.2211 434.736 73.2975 435.812 74.6253 435.812Z" stroke="#FE8A3A" stroke-width="1.5" stroke-miterlimit="10" stroke-linecap="round" stroke-linejoin="round"/>
<path d="M74.6254 440.547C78.568 440.547 81.7642 437.351 81.7642 433.408C81.7642 429.465 78.568 426.269 74.6254 426.269C70.6827 426.269 67.4865 429.465 67.4865 433.408C67.4865 437.351 70.6827 440.547 74.6254 440.547Z" stroke="#FE8A3A" stroke-width="1.5" stroke-miterlimit="10" stroke-linecap="round" stroke-linejoin="round"/>
<path d="M74.6254 445.393C81.2442 445.393 86.6097 440.027 86.6097 433.408C86.6097 426.789 81.2442 421.424 74.6254 421.424C68.0066 421.424 62.641 426.789 62.641 433.408C62.641 440.027 68.0066 445.393 74.6254 445.393Z" stroke="#FE8A3A" stroke-width="1.5" stroke-miterlimit="10" stroke-linecap="round" stroke-linejoin="round"/>
<path d="M88.8044 424.321L84.526 423.52L83.7246 419.229L87.3125 415.641L88.1139 419.932L92.4046 420.733L88.8044 424.321Z" stroke="#FE8A3A" stroke-width="1.5" stroke-miterlimit="10" stroke-linecap="round" stroke-linejoin="round"/>
<path d="M74.6254 433.408L88.114 419.932" stroke="#FE8A3A" stroke-width="1.5" stroke-miterlimit="10" stroke-linecap="round" stroke-linejoin="round"/>
<path d="M282.802 138.436L282.992 137.904C282.726 137.714 282.536 137.41 282.498 137.068C282.498 136.84 282.574 136.612 282.65 136.46C282.764 136.27 282.916 136.118 283.106 136.004C283.296 135.89 283.524 135.814 283.714 135.814C283.942 135.776 284.132 135.776 284.36 135.776C284.512 135.776 284.626 135.776 284.778 135.776V142.008C284.094 142.008 283.448 142.084 282.802 142.274C281.776 142.578 280.826 143.186 280.142 143.984C279.42 144.858 278.964 145.998 279.002 147.176C279.002 148.316 279.42 149.456 280.18 150.33C280.712 150.938 281.434 151.432 282.194 151.736C282.992 152.002 283.866 152.078 284.664 151.926L284.854 151.242C284.398 151.28 283.942 151.204 283.524 150.976C283.106 150.786 282.764 150.482 282.536 150.064C282.422 149.836 282.346 149.532 282.308 149.266C282.308 148.962 282.346 148.696 282.46 148.43C282.574 148.164 282.764 147.936 282.992 147.784C283.22 147.594 283.486 147.48 283.752 147.442C284.322 147.328 284.93 147.404 285.424 147.632C286.184 147.936 286.868 148.43 287.4 149L292.302 143.566L291.77 143.034L290.478 144.478C289.262 143.262 287.666 142.388 285.956 142.122C285.918 142.084 285.88 142.084 285.842 142.084V126.96C285.918 127.112 286.032 127.264 286.146 127.454L287.438 129.696L298.876 149H300.32V126.656C300.89 126.618 301.498 126.504 302.03 126.314C302.752 126.048 303.398 125.63 303.93 125.098C304.538 124.49 304.956 123.654 305.108 122.818C305.26 121.944 305.108 121.032 304.69 120.234H304.158C304.12 120.69 303.93 121.108 303.626 121.45C303.36 121.792 302.942 122.02 302.524 122.134C302.03 122.286 301.536 122.248 301.08 122.134C300.624 121.982 300.168 121.754 299.788 121.488C299.446 121.222 299.18 120.918 298.914 120.614L298.154 120.576L293.442 126.048L293.974 126.618L295.418 124.984C295.912 125.478 296.52 125.858 297.128 126.124C297.85 126.428 298.61 126.618 299.37 126.656C299.446 128.784 299.446 130.874 299.446 132.964C299.408 135.054 299.37 137.144 299.256 139.196L290.098 123.92C289.604 123.198 289.148 122.4 288.616 121.754C288.084 121.108 287.4 120.652 286.64 120.424C285.69 120.12 284.588 120.158 283.638 120.538C282.688 120.918 281.89 121.602 281.32 122.476C280.636 123.578 280.408 124.984 280.674 126.276L281.396 126.428C281.434 126.2 281.51 125.972 281.586 125.706C281.7 125.44 281.852 125.174 282.042 124.946C282.232 124.718 282.498 124.528 282.764 124.452C283.106 124.376 283.486 124.414 283.79 124.604C284.094 124.756 284.36 124.984 284.588 125.25C284.626 125.326 284.702 125.402 284.778 125.478V130.608C284.322 130.608 283.828 130.684 283.41 130.798C282.65 131.026 282.004 131.406 281.434 131.9C280.56 132.774 280.028 134.028 280.142 135.244C280.218 135.966 280.522 136.688 280.978 137.258C281.472 137.828 282.118 138.246 282.802 138.436Z" fill="#9498A7"/>
<path d="M309.012 143.186V132.28L313.382 135.168V146.112L309.012 143.186ZM302.818 146.454L304.414 145.162C306.162 146.454 307.948 147.746 309.734 149.038L318.132 143.908V133.534L312.66 129.354L304.11 134.256C304.11 137.524 304.11 140.792 304.11 144.06L302.172 145.618L302.818 146.454Z" fill="#9498A7"/>
<path d="M338.933 121.564C336.045 122.552 333.423 124.414 331.599 126.884C329.775 129.316 328.673 132.356 328.597 135.396C328.445 139.12 329.813 142.882 332.321 145.58C334.867 148.316 338.591 149.912 342.315 149.646C344.177 149.532 346.001 148.962 347.559 147.936C349.117 146.91 350.409 145.504 351.245 143.794C351.815 142.578 352.157 141.248 352.233 139.88H351.511C350.789 141.362 349.687 142.654 348.319 143.604C347.065 144.516 345.583 145.086 344.025 145.314C344.025 138.512 344.025 131.71 344.025 124.908C344.215 124.984 344.405 125.098 344.595 125.212C345.925 125.934 347.293 126.58 348.661 127.15L353.183 122.438L352.879 122.058L351.663 123.046C350.827 122.78 349.953 122.438 349.155 122.058C347.787 121.45 346.457 120.69 345.241 119.778L335.209 125.934C336.197 124.3 337.641 122.97 339.313 122.096L338.933 121.564ZM334.259 139.538C333.993 138.892 333.765 138.17 333.613 137.486C333.233 135.776 333.157 134.028 333.309 132.318C333.423 130.76 333.727 129.202 334.297 127.758L336.349 126.504C336.349 130.57 336.349 134.598 336.349 138.664L334.259 139.538ZM334.677 140.488L341.251 137.714V123.502L341.555 123.35C342.011 123.654 342.467 123.958 342.923 124.262C342.923 131.292 342.923 138.36 342.923 145.39C341.707 145.428 340.491 145.238 339.351 144.744C337.945 144.212 336.729 143.3 335.779 142.122C335.361 141.628 334.981 141.058 334.677 140.488Z" fill="#9498A7"/>
<path d="M358.899 143.186V132.28L363.269 135.168V146.112L358.899 143.186ZM352.705 146.454L354.301 145.162C356.049 146.454 357.835 147.746 359.621 149.038L368.019 143.908V133.534L362.547 129.354L353.997 134.256C353.997 137.524 353.997 140.792 353.997 144.06L352.059 145.618L352.705 146.454Z" fill="#9498A7"/>
<path d="M374.898 130.95L378.926 134.598V146.036L374.898 143.224V130.95ZM374.632 130.684L369.996 133.534V145.238L375.506 148.962L383.828 144.06V133.306L385.462 131.976L384.778 131.14L383.41 132.28L370.3 120.766V127.568L371.06 127.454L374.632 130.684Z" fill="#9498A7"/>
<path d="M385.104 146.568L386.776 145.2L392.438 149.38L400.266 143.034L399.696 142.122L395.516 145.39L390.956 142.274V140.64L399.164 135.548V135.358L395.326 129.544L386.244 134.256V144.288L384.42 145.732L385.104 146.568ZM390.956 139.728V132.85L391.678 132.432L394.984 137.182L390.956 139.728Z" fill="#9498A7"/>
<path d="M412.973 128.974L413.353 128.442C412.973 128.252 412.669 127.948 412.517 127.568C412.365 127.15 412.365 126.732 412.517 126.352C412.669 126.01 412.897 125.706 413.163 125.516C413.467 125.288 413.771 125.136 414.151 125.06C414.835 124.908 415.557 124.984 416.241 125.136C417.951 125.478 419.623 125.972 421.333 126.39C423.005 126.77 424.677 127.264 426.387 127.492C426.539 127.53 426.729 127.568 426.881 127.568V132.242L424.411 134.75L426.881 137.258V143.68C425.931 144.174 424.867 144.516 423.765 144.63C421.941 144.858 420.041 144.516 418.445 143.604C417.799 143.262 417.191 142.806 416.659 142.274L423.347 139.462V127.91L414.987 131.482C415.823 129.658 417.153 128.1 418.825 126.998L418.445 126.428C416.279 126.808 414.265 127.834 412.707 129.354C411.149 130.912 410.085 132.926 409.667 135.092C409.021 138.55 410.161 142.274 412.555 144.896C414.949 147.518 418.521 149 422.055 148.886C423.993 148.81 425.893 148.278 427.565 147.29C429.237 146.302 430.605 144.858 431.517 143.148C432.315 141.59 432.733 139.842 432.657 138.094H431.935C431.251 139.804 430.149 141.324 428.743 142.502C428.477 142.692 428.249 142.882 427.945 143.072V137.296L430.491 134.75L427.945 132.204V127.644C428.287 127.644 428.629 127.606 428.933 127.568C429.807 127.492 430.643 127.188 431.327 126.732C432.163 126.162 432.771 125.364 433.037 124.414C433.265 123.464 433.151 122.438 432.695 121.602C432.277 120.804 431.593 120.158 430.795 119.74C430.035 119.322 429.123 119.094 428.249 118.98C427.793 118.942 427.299 118.942 426.805 118.98V119.702C427.223 119.74 427.641 119.816 428.059 119.892C428.477 120.006 428.857 120.12 429.199 120.386C429.351 120.5 429.503 120.69 429.617 120.88C429.693 121.032 429.731 121.26 429.731 121.45C429.693 121.678 429.617 121.83 429.503 122.02C429.389 122.172 429.237 122.286 429.085 122.4C428.743 122.552 428.325 122.59 427.945 122.59C426.805 122.552 425.703 122.21 424.601 121.944C423.157 121.64 421.751 121.108 420.383 120.652C419.433 120.348 418.483 120.082 417.495 119.93C416.507 119.816 415.519 119.854 414.569 120.082C413.695 120.31 412.859 120.728 412.175 121.298C411.491 121.868 410.959 122.628 410.655 123.464C410.275 124.49 410.313 125.668 410.731 126.694C411.149 127.72 411.985 128.556 412.973 128.974ZM414.493 132.774L418.445 131.102V140.412L415.937 141.476C415.329 140.678 414.835 139.766 414.493 138.816C413.847 136.878 413.885 134.712 414.493 132.774Z" fill="#9498A7"/>
<path d="M443.928 144.668L442.294 145.732L441.002 144.478V133.002L438.114 129.544L432.984 133.002L433.554 133.724L434.998 132.812L436.29 134.446V144.478L433.896 146.112L434.466 146.834L435.72 145.922L439.368 149.19L444.84 145.39L443.928 144.668ZM435.074 124.414L438.304 128.1L441.914 124.908L438.684 121.222L435.074 124.414Z" fill="#9498A7"/>
<path d="M461.518 146.188L459.542 144.44V134.294L461.556 133.078L464.178 135.472V144.82L462.582 146.302L466.344 149.57L471.968 145.922V144.516L470.334 145.732L468.548 143.946V134.408L470.448 132.85L469.764 132.052L468.51 133.04L464.558 129.658L459.352 132.888L455.552 129.658L450.574 132.774L447.8 129.658L442.518 133.268L443.05 134.028L444.494 133.116L445.976 134.75V144.82L444.494 146.112L448.864 149.57L452.512 146.302L450.878 144.82V134.066L452.55 133.078L455.172 135.472V144.82L453.576 146.302L457.338 149.57L461.518 146.188Z" fill="#9498A7"/>
<path d="M471.106 146.568L472.778 145.2L478.44 149.38L486.268 143.034L485.698 142.122L481.518 145.39L476.958 142.274V140.64L485.166 135.548V135.358L481.328 129.544L472.246 134.256V144.288L470.422 145.732L471.106 146.568ZM476.958 139.728V132.85L477.68 132.432L480.986 137.182L476.958 139.728Z" fill="#9498A7"/>
<path d="M500.292 129.62H499.228C499.228 129.658 499.228 129.658 499.228 129.658V129.62C499.152 130.114 498.924 130.532 498.544 130.836C498.202 131.064 497.784 131.216 497.366 131.216C496.91 131.216 496.492 131.102 496.112 130.95C495.466 130.646 494.934 130.152 494.554 129.544L486.688 134.104V139.424L489.576 141.704C489.234 142.008 488.93 142.312 488.626 142.616C487.6 143.642 486.612 144.744 486.156 146.112C485.89 147.062 485.89 148.088 486.27 149C486.65 149.912 487.41 150.634 488.322 151.014L488.702 149.988C488.474 149.874 488.322 149.684 488.208 149.456C488.132 149.19 488.132 148.886 488.246 148.62C488.322 148.354 488.512 148.126 488.74 147.974C489.082 147.746 489.462 147.632 489.88 147.632C490.26 147.594 490.64 147.708 491.02 147.86C491.742 148.126 492.388 148.696 492.768 149.38L500.254 144.82V139.082L496.986 136.688C497.404 136.308 497.784 135.928 498.164 135.51C498.582 134.94 498.962 134.332 499.228 133.686C499.836 132.432 500.178 131.026 500.292 129.62ZM493.262 139.88L495.352 141.59V146.53C494.896 145.466 494.022 144.592 492.996 144.098C492.236 143.718 491.4 143.566 490.564 143.604C489.728 143.68 488.93 143.984 488.284 144.478C488.626 144.098 489.006 143.718 489.386 143.338C490.184 142.578 491.02 141.818 491.894 141.058L493.262 139.88ZM493.148 138.588L491.59 136.954V132.014C492.008 133.078 492.882 133.99 493.946 134.446C494.706 134.788 495.504 134.902 496.302 134.788C496.758 134.712 497.214 134.598 497.632 134.408C497.518 134.56 497.404 134.712 497.29 134.864C496.91 135.358 496.416 135.776 495.96 136.156L493.148 138.588Z" fill="#9498A7"/>
<path d="M17 190H763" stroke="#D4D8E4"/>
<path d="M17 234H762" stroke="#D4D8E4"/>
<rect x="240" y="166" width="24" height="8" rx="4" fill="#D4D8E4"/>
<rect x="52" y="198" width="159" height="8" rx="4" fill="#D4D8E4"/>
<rect x="304" y="198" width="159" height="8" rx="4" fill="#D4D8E4"/>
<rect x="557" y="198" width="129" height="8" rx="4" fill="#D4D8E4"/>
<rect x="52" y="211" width="192" height="4" rx="2" fill="#D4D8E4"/>
<rect x="304" y="211" width="174" height="4" rx="2" fill="#D4D8E4"/>
<rect x="557" y="211" width="192" height="4" rx="2" fill="#D4D8E4"/>
<rect x="52" y="220" width="154" height="4" rx="2" fill="#D4D8E4"/>
<rect x="304" y="220" width="154" height="4" rx="2" fill="#D4D8E4"/>
<rect x="557" y="220" width="154" height="4" rx="2" fill="#D4D8E4"/>
<rect x="274" y="166" width="19" height="8" rx="4" fill="#D4D8E4"/>
<rect x="303" y="166" width="31" height="8" rx="4" fill="#D4D8E4"/>
<rect x="336" y="95" width="52" height="8" rx="4" fill="#D4D8E4"/>
<rect x="729" y="122" width="28" height="8" rx="4" fill="#D4D8E4"/>
<rect x="315" y="95" width="15" height="8" rx="4" fill="#D4D8E4"/>
<rect x="714" y="122" width="8" height="8" rx="4" fill="#D4D8E4"/>
<rect x="394" y="95" width="33" height="8" rx="4" fill="#D4D8E4"/>
<rect x="433" y="95" width="33" height="8" rx="4" fill="#D4D8E4"/>
<rect x="344" y="166" width="16" height="8" rx="4" fill="#D4D8E4"/>
<rect x="370" y="166" width="32" height="8" rx="4" fill="#D4D8E4"/>
<rect x="412" y="166" width="23" height="8" rx="4" fill="#D4D8E4"/>
<rect x="445" y="166" width="23" height="8" rx="4" fill="#D4D8E4"/>
<rect x="478" y="166" width="31" height="8" rx="4" fill="#D4D8E4"/>
<rect x="519" y="166" width="22" height="8" rx="4" fill="#D4D8E4"/>
<rect x="645" y="90" width="73" height="23" rx="8" fill="#D4D8E4"/>
<rect x="723" y="90" width="40" height="23" rx="8" fill="#D4D8E4"/>
<rect x="17" y="199" width="27" height="27" rx="8" fill="#D4D8E4"/>
<rect x="269" y="199" width="27" height="27" rx="8" fill="#D4D8E4"/>
<rect x="522" y="199" width="27" height="27" rx="8" fill="#D4D8E4"/>
<rect x="39" y="94" width="14" height="14" rx="7" fill="#D4D8E4"/>
<rect x="17" y="94" width="14" height="14" rx="7" fill="#D4D8E4"/>
<rect x="693" y="119" width="14" height="14" rx="7" fill="#D4D8E4"/>
</g>
<defs>
<clipPath id="clip0">
<rect width="788" height="545" fill="white" transform="translate(-1)"/>
</clipPath>
</defs>
</svg>
