<svg width="60" height="60" viewBox="0 0 60 60" fill="none" xmlns="http://www.w3.org/2000/svg">
<path d="M9.5 30C9.5 24.201 14.201 19.5 20 19.5H40C45.799 19.5 50.5 24.201 50.5 30V46C50.5 51.799 45.799 56.5 40 56.5H20C14.201 56.5 9.5 51.799 9.5 46V30Z" stroke="#FAFAFA" stroke-width="3"/>
<path d="M42 21V14.5C42 7.59644 36.4036 2 29.5 2V2C22.5964 2 17 7.59644 17 14.5V21" stroke="#FAFAFA" stroke-width="3"/>
<path fill-rule="evenodd" clip-rule="evenodd" d="M31.6134 35.7971C32.8556 35.1577 33.7051 33.8629 33.7051 32.3696C33.7051 30.2419 31.9803 28.517 29.8526 28.517C27.7249 28.517 26 30.2419 26 32.3696C26 33.8631 26.8499 35.1581 28.0923 35.7974L26.2708 43.9945C26.132 44.619 26.6072 45.2114 27.2469 45.2114H32.4588C33.0986 45.2114 33.5738 44.619 33.435 43.9945L31.6134 35.7971Z" fill="#FAFAFA"/>
</svg>
