<svg width="60" height="60" viewBox="0 0 60 60" fill="none" xmlns="http://www.w3.org/2000/svg">
<path d="M40.8299 28.4606C46.2041 28.4606 50.5606 24.1042 50.5606 18.7303C50.5606 13.3564 46.2041 9 40.8299 9C35.4558 9 31.0992 13.3564 31.0992 18.7303C31.0992 24.1042 35.4558 28.4606 40.8299 28.4606Z" stroke="#FAFAFA" stroke-width="3" stroke-miterlimit="10" stroke-linecap="round" stroke-linejoin="round"/>
<path d="M58.1022 50.9919V47.5035C58.1022 39.8075 51.86 33.5656 44.1636 33.5656H37.4959C29.7995 33.5656 23.5573 39.8075 23.5573 47.5035V50.9919" stroke="#FAFAFA" stroke-width="3" stroke-miterlimit="10" stroke-linecap="round" stroke-linejoin="round"/>
<path d="M16.5495 31.2684C21.0778 31.2684 24.7487 27.5977 24.7487 23.0696C24.7487 18.5415 21.0778 14.8708 16.5495 14.8708C12.0212 14.8708 8.35034 18.5415 8.35034 23.0696C8.35034 27.5977 12.0212 31.2684 16.5495 31.2684Z" stroke="#FAFAFA" stroke-width="2" stroke-miterlimit="10" stroke-linecap="round" stroke-linejoin="round"/>
<path d="M21.9178 36.3272H13.7418C7.25212 36.3272 2 41.5868 2 48.0685V51" stroke="#FAFAFA" stroke-width="2" stroke-miterlimit="10" stroke-linecap="round" stroke-linejoin="round"/>
</svg>
