<svg width="20" height="20" viewBox="0 0 20 20" fill="none" xmlns="http://www.w3.org/2000/svg">
<path d="M9.99767 7.40931C8.56925 7.40931 7.40734 8.57122 7.40734 9.99965C7.40734 11.4276 8.56925 12.5897 9.99767 12.5897C11.4261 12.5897 12.588 11.4278 12.588 9.99965C12.588 8.57122 11.4261 7.40931 9.99767 7.40931ZM9.99767 11.7128C9.05276 11.7128 8.28417 10.9447 8.28417 9.9998C8.28417 9.05489 9.05276 8.2863 9.99767 8.2863C10.9426 8.2863 11.7112 9.05489 11.7112 9.9998C11.7112 10.9447 10.9426 11.7128 9.99767 11.7128Z" fill="#B6A2D7"/>
<path d="M18.9974 9.56127H17.8047C17.5838 5.59403 14.4033 2.41367 10.4359 2.1917V1H9.5591V2.19217C5.59186 2.4136 2.4115 5.59403 2.18992 9.56135H0.997284V10.4382H2.18992C2.41135 14.4054 5.59179 17.5858 9.5591 17.8074V19H10.4359V17.8074C14.4032 17.5859 17.5835 14.4055 17.8051 10.4382H18.9978L18.9974 9.56127ZM10.4361 16.9305V15.7831H9.5593V16.9305C6.07577 16.7116 3.28586 13.9213 3.06703 10.4382H4.21441V9.56135H3.06703C3.28586 6.07782 6.07573 3.28791 9.5593 3.06869V4.2165H10.4361V3.06869C13.9197 3.28798 16.7096 6.07739 16.9284 9.56135H15.781V10.4382H16.9284C16.7096 13.9214 13.9197 16.7116 10.4361 16.9305Z" fill="#B6A2D7"/>
<path fill-rule="evenodd" clip-rule="evenodd" d="M9.3091 0.75H10.6859V1.95874C14.5914 2.29141 17.706 5.40583 18.0377 9.31127H19.2473L19.2479 10.6882H18.0381C17.7058 14.5937 14.5914 17.7082 10.6859 18.0404V19.25H9.3091V18.0403C5.40363 17.708 2.28911 14.5936 1.95693 10.6882H0.747284V9.31135H1.95694C2.28925 5.40587 5.40369 2.29136 9.3091 1.95918V0.75ZM9.8091 1.25V2.4286L9.57304 2.44178C5.73291 2.65611 2.65401 5.73507 2.43953 9.57529L2.42635 9.81135H1.24728V10.1882H2.42636L2.43953 10.4242C2.65387 14.2644 5.73282 17.3433 9.57304 17.5578L9.8091 17.5709V18.75H10.1859V17.5709L10.422 17.5578C14.2621 17.3434 17.341 14.2645 17.5555 10.4242L17.5687 10.1882H18.7476L18.7475 9.81127H17.5683L17.5551 9.57517C17.3412 5.73508 14.2623 2.65617 10.422 2.44131L10.1859 2.4281V1.25H9.8091ZM10.1861 2.80245L10.4518 2.81918C14.061 3.04638 16.9512 5.93597 17.1779 9.54568L17.1946 9.81135H16.031V10.1882H17.1946L17.1779 10.4539C16.9512 14.0628 14.0611 16.9532 10.4518 17.18L10.1861 17.1966V16.0331H9.8093V17.1966L9.54363 17.18C5.93436 16.9532 3.04425 14.0627 2.81752 10.4539L2.80083 10.1882H3.96441V9.81135H2.80083L2.81752 9.54568C3.04425 5.93642 5.93433 3.04632 9.5436 2.81918L9.8093 2.80246V3.9665H10.1861V2.80245ZM3.33851 9.31135H4.46441V10.6882H3.33852C3.66156 13.8328 6.16436 16.3359 9.3093 16.659V15.5331H10.6861V16.659C13.8311 16.3359 16.3339 13.8329 16.6569 10.6882H15.531V9.31135H16.6569C16.3339 6.16603 13.8311 3.66362 10.6861 3.34021V4.4665H9.3093V3.3402C6.16429 3.66358 3.66153 6.1664 3.33851 9.31135ZM7.15734 9.99965C7.15734 8.43315 8.43118 7.15931 9.99767 7.15931C11.5642 7.15931 12.838 8.43315 12.838 9.99965C12.838 11.5658 11.5641 12.8397 9.99767 12.8397C8.43119 12.8397 7.15734 11.5657 7.15734 9.99965ZM9.99767 7.65931C8.70732 7.65931 7.65734 8.70929 7.65734 9.99965C7.65734 11.2896 8.70731 12.3397 9.99767 12.3397C11.288 12.3397 12.338 11.2897 12.338 9.99965C12.338 8.70929 11.288 7.65931 9.99767 7.65931ZM9.99767 8.5363C9.19083 8.5363 8.53417 9.19296 8.53417 9.9998C8.53417 10.8066 9.19074 11.4628 9.99767 11.4628C10.8046 11.4628 11.4612 10.8066 11.4612 9.9998C11.4612 9.19296 10.8045 8.5363 9.99767 8.5363ZM8.03417 9.9998C8.03417 8.91682 8.91469 8.0363 9.99767 8.0363C11.0807 8.0363 11.9612 8.91682 11.9612 9.9998C11.9612 11.0829 11.0806 11.9628 9.99767 11.9628C8.91478 11.9628 8.03417 11.0829 8.03417 9.9998Z" fill="#B6A2D7"/>
</svg>
