<svg width="1399" height="338" viewBox="0 0 1399 338" fill="none" xmlns="http://www.w3.org/2000/svg">
<path d="M54.7392 203.833V328.611H2.15918V9.38899H88.2589C107.132 9.03385 125.964 11.293 144.219 16.102C158.071 19.739 171.052 26.1249 182.386 34.8798C192.011 42.568 199.536 52.5637 204.263 63.9383C212.751 85.5919 213.563 109.5 206.564 131.679C203.464 141.047 198.832 149.835 192.855 157.686C186.669 165.769 179.181 172.766 170.697 178.389C161.469 184.487 151.413 189.23 140.839 192.472C148.644 197.013 155.295 203.294 160.275 210.827L240.083 328.658H195.484C190.906 328.798 186.372 327.73 182.339 325.56C178.539 323.424 175.317 320.394 172.95 316.734L106.145 214.442C104.131 211.061 101.287 208.25 97.8829 206.274C93.6831 204.399 89.0941 203.562 84.5032 203.833H54.7392ZM54.7392 161.254H91.8268C101.725 161.444 111.588 160.017 121.027 157.029C128.612 154.68 135.618 150.761 141.59 145.528C146.881 140.686 150.992 134.696 153.608 128.018C156.311 120.897 157.664 113.335 157.599 105.719C158.048 98.6439 156.834 91.5619 154.054 85.0403C151.274 78.5183 147.006 72.7385 141.59 68.1633C130.886 59.4946 114.58 55.1597 92.6718 55.1597H54.7392V161.254ZM404.208 103.278V143.462H311.817V196.134H382.565V234.722H311.817V288.333H404.208V328.611H259.284V103.278H404.208ZM419.935 103.278H462.186C466.128 103.116 470.022 104.2 473.313 106.376C476.181 108.385 478.35 111.241 479.509 114.544L523.076 235.051C525.047 240.309 527.019 246.036 529.038 252.232C531.057 258.429 532.934 264.907 534.671 271.667C536.127 264.907 537.77 258.382 539.695 252.232C541.619 246.083 543.497 240.309 545.328 235.051L588.566 114.544C589.8 111.423 591.899 108.719 594.622 106.752C597.781 104.378 601.654 103.152 605.607 103.278H647.859L557.628 328.611H510.165L419.935 103.278ZM1107.93 253.5V328.611H1055.59V103.278H1134.97C1148.81 102.99 1162.62 104.892 1175.86 108.911C1186.21 112.125 1195.79 117.412 1204.03 124.45C1211.23 130.882 1216.82 138.924 1220.32 147.922C1223.87 157.197 1225.65 167.052 1225.58 176.981C1225.68 187.521 1223.85 197.99 1220.18 207.87C1216.67 217.108 1210.98 225.367 1203.61 231.952C1195.42 239.092 1185.83 244.434 1175.44 247.632C1162.35 251.632 1148.71 253.533 1135.02 253.265L1107.93 253.5ZM1107.93 214.114H1135.11C1148.73 214.114 1158.59 210.874 1164.5 204.396C1170.85 196.811 1174.04 187.083 1173.42 177.215C1173.49 172.422 1172.71 167.654 1171.12 163.132C1169.63 159.013 1167.23 155.287 1164.08 152.241C1160.68 149.071 1156.63 146.684 1152.2 145.246C1146.69 143.464 1140.91 142.622 1135.11 142.758H1107.93V214.114ZM1380.93 149.377C1379.72 151.518 1378.13 153.413 1376.23 154.964C1374.29 156.256 1371.99 156.897 1369.66 156.794C1366.97 156.688 1364.34 155.931 1362.01 154.588C1359.28 153.086 1356.23 151.396 1352.62 149.565C1348.83 147.548 1344.87 145.868 1340.79 144.542C1335.9 142.97 1330.8 142.209 1325.67 142.289C1317.86 141.669 1310.1 143.886 1303.79 148.532C1301.4 150.641 1299.52 153.258 1298.28 156.19C1297.03 159.123 1296.46 162.297 1296.61 165.479C1296.55 167.549 1296.91 169.61 1297.65 171.543C1298.39 173.477 1299.5 175.245 1300.93 176.746C1304.21 179.996 1308.06 182.607 1312.29 184.445C1317.49 186.81 1322.86 188.802 1328.35 190.407C1334.4 192.237 1340.55 194.209 1346.84 196.416C1353.14 198.667 1359.3 201.284 1365.29 204.255C1371.23 207.163 1376.65 211.016 1381.35 215.663C1386.2 220.521 1390.06 226.277 1392.71 232.61C1395.77 240.229 1397.23 248.392 1397.03 256.598C1397.12 266.588 1395.28 276.5 1391.63 285.798C1388.1 294.631 1382.76 302.626 1375.95 309.27C1368.7 316.281 1360.06 321.701 1350.6 325.184C1339.65 329.235 1328.05 331.209 1316.37 331.005C1309.2 330.972 1302.05 330.249 1295.01 328.846C1287.81 327.42 1280.74 325.378 1273.89 322.743C1267.25 320.175 1260.83 317.034 1254.73 313.354C1249.07 309.972 1243.84 305.921 1239.15 301.289L1254.59 276.878C1255.74 275.008 1257.36 273.47 1259.29 272.419C1261.3 271.266 1263.59 270.666 1265.91 270.682C1269.25 270.755 1272.51 271.781 1275.3 273.639C1278.39 275.611 1281.96 277.77 1285.95 280.117C1290.3 282.701 1294.87 284.87 1299.61 286.596C1305.45 288.682 1311.63 289.685 1317.83 289.553C1325.69 290.018 1333.48 287.818 1339.94 283.31C1342.71 280.841 1344.87 277.761 1346.23 274.314C1347.6 270.867 1348.15 267.148 1347.83 263.452C1348.03 258.792 1346.49 254.224 1343.51 250.636C1340.34 247.13 1336.47 244.331 1332.15 242.421C1326.97 240.085 1321.62 238.169 1316.14 236.694C1310.18 235.051 1304.03 233.22 1297.74 231.248C1291.45 229.211 1285.31 226.733 1279.38 223.831C1273.42 220.907 1268.01 216.985 1263.37 212.236C1258.44 207.064 1254.58 200.97 1252.01 194.303C1248.91 185.829 1247.45 176.845 1247.69 167.826C1247.71 159.191 1249.48 150.65 1252.89 142.718C1256.31 134.786 1261.29 127.629 1267.55 121.68C1274.57 115.115 1282.82 109.996 1291.82 106.611C1302.33 102.692 1313.47 100.781 1324.68 100.978C1331.43 100.957 1338.17 101.491 1344.82 102.574C1351.21 103.564 1357.5 105.135 1363.6 107.268C1369.29 109.302 1374.79 111.831 1380.03 114.826C1384.95 117.634 1389.53 120.988 1393.69 124.825L1380.93 149.377Z" fill="white"/>
<path d="M692.74 141.303C666.262 218.292 717.152 283.92 720.908 288.521C703.242 270.856 689.712 249.496 681.294 225.976C672.877 202.457 669.774 177.364 672.215 152.502C674.656 127.641 682.581 103.63 695.416 82.1978C708.251 60.7658 725.677 42.445 746.442 28.5547C767.201 14.6643 790.787 5.54967 815.5 1.86677C840.208 -1.81613 865.422 0.0243345 889.337 7.25563C913.251 14.4869 935.26 26.9291 953.789 43.6869C972.314 60.4447 986.896 81.1012 996.482 104.17L934.748 139.143C933.861 131.552 932.114 124.087 929.537 116.892C921.157 94.6367 905.834 75.6735 885.83 62.8117C843.578 34.9736 795.787 46.6158 787.243 48.7283C719.64 66.6142 695.087 134.402 692.74 141.303ZM1009.35 161.677L822.124 267.583C817.453 270.178 813.387 273.74 810.204 278.031C807.016 282.322 804.787 287.244 803.655 292.467C802.524 297.69 802.519 303.094 803.646 308.318C804.768 313.543 806.993 318.467 810.176 322.762C813.354 327.057 817.415 330.624 822.086 333.224C826.753 335.825 831.921 337.399 837.25 337.841C842.574 338.284 847.935 337.585 852.968 335.791C858 333.997 862.596 331.148 866.441 327.438L1005.45 204.913C1008.62 190.731 1009.93 176.197 1009.35 161.677Z" fill="url(#paint0_linear_2666_7528)"/>
<defs>
<linearGradient id="paint0_linear_2666_7528" x1="671.407" y1="359.092" x2="1009.34" y2="-25.4477" gradientUnits="userSpaceOnUse">
<stop stop-color="white"/>
<stop offset="1" stop-color="white"/>
</linearGradient>
</defs>
</svg>
