<svg width="21" height="20" viewBox="0 0 21 20" fill="none" xmlns="http://www.w3.org/2000/svg">
<path fill-rule="evenodd" clip-rule="evenodd" d="M12.8785 16.9796H11.0419V18.4256H8.17028V16.9796H6.35762L7.02653 16.7337L6.48478 8.51373C6.49801 6.05357 7.53998 3.56461 9.50002 1.5301L9.5071 1.52271C9.50858 1.5216 9.51281 1.51885 9.52138 1.51539C9.53718 1.509 9.56894 1.5 9.61807 1.5C9.66813 1.5 9.70362 1.50937 9.72247 1.51684C9.72502 1.51785 9.72712 1.51876 9.72878 1.51953C11.7052 3.56992 12.7382 6.05492 12.7513 8.53315L12.2094 16.7337L12.8785 16.9796ZM14.2514 8.58076L13.7801 15.7129L14.5631 16.0007C14.9566 16.1453 15.2181 16.52 15.2181 16.9393V19.1489C15.2181 19.619 14.837 20 14.367 20C14.1853 20 14.012 19.9421 13.8696 19.8395C13.7699 19.7677 13.6853 19.6741 13.6235 19.563L13.0201 18.4796H12.5419V18.9256C12.5419 19.2982 12.3381 19.6232 12.0359 19.7953C11.8901 19.8782 11.7215 19.9256 11.5419 19.9256H7.67028C7.49061 19.9256 7.322 19.8782 7.17628 19.7953C6.87407 19.6232 6.67028 19.2982 6.67028 18.9256V18.4796H6.19208L5.58433 19.5708C5.52377 19.6795 5.44099 19.7713 5.34347 19.8417C5.20336 19.9429 5.03282 20 4.85401 20C4.39233 20 4.01807 19.6257 4.01807 19.1641V16.9393C4.01807 16.52 4.27957 16.1453 4.67306 16.0007L5.456 15.7129L4.98465 8.56116C4.98465 5.65742 6.20694 2.78629 8.41978 0.489396C8.72335 0.169657 9.15473 0 9.61807 0C10.0814 0 10.5128 0.169678 10.8004 0.469841C13.0372 2.78632 14.2514 5.65743 14.2514 8.58076Z" fill="#B6A2D7"/>
<path fill-rule="evenodd" clip-rule="evenodd" d="M6.1927 5.13147C6.99756 5.43146 8.31693 5.64398 9.8421 5.64398C11.376 5.64398 12.6944 5.43129 13.4901 5.132L13.8422 6.06797C12.8938 6.42468 11.4442 6.64398 9.8421 6.64398C8.24726 6.64398 6.79859 6.42451 5.84344 6.0685L6.1927 5.13147Z" fill="#B6A2D7"/>
<path fill-rule="evenodd" clip-rule="evenodd" d="M9.01807 10.4C9.01807 10.7296 9.28854 11 9.61807 11C9.9476 11 10.2181 10.7296 10.2181 10.4C10.2181 10.0705 9.9476 9.80005 9.61807 9.80005C9.28854 9.80005 9.01807 10.0705 9.01807 10.4ZM8.01807 10.4C8.01807 11.2819 8.73625 12 9.61807 12C10.4999 12 11.2181 11.2819 11.2181 10.4C11.2181 9.51824 10.4999 8.80005 9.61807 8.80005C8.73625 8.80005 8.01807 9.51824 8.01807 10.4Z" fill="#B6A2D7"/>
<path fill-rule="evenodd" clip-rule="evenodd" d="M6.01807 16.5L14.0181 16.5L14.0181 17.5L6.01807 17.5L6.01807 16.5Z" fill="#B6A2D7"/>
</svg>
