<svg width="166" height="44" viewBox="0 0 166 44" fill="none" xmlns="http://www.w3.org/2000/svg">
<path d="M49.2111 27.9656L50.3369 25.9829C50.5287 25.6725 50.9837 25.7198 51.1514 25.8397C51.2475 25.887 52.9727 27.1536 54.5535 27.1536C55.5122 27.1536 56.2071 26.5559 56.2071 25.7198C56.2071 24.7165 55.3687 23.952 53.739 23.307C51.6784 22.4946 49.0908 20.894 49.0908 18.027C49.0908 15.6619 50.9363 13.2727 54.6257 13.2727C57.1172 13.2727 59.034 14.5389 59.753 15.0646C60.0404 15.2318 59.9923 15.6619 59.8966 15.8291L58.6747 17.6685C58.507 17.9313 58.0761 18.1463 57.8601 17.9789C57.6444 17.8596 55.8959 16.5455 54.4339 16.5455C53.5713 16.5455 52.9247 17.1187 52.9247 17.7639C52.9247 18.6477 53.6435 19.317 55.5364 20.0815C57.4051 20.822 60.3757 22.2794 60.3757 25.5283C60.3757 27.9895 58.2438 30.4739 54.7214 30.4739C51.6072 30.4739 49.8821 29.1841 49.3309 28.6345C49.091 28.3959 49.0197 28.3001 49.2113 27.9656H49.2111Z" fill="#B6A2D7"/>
<path d="M86.3511 13.9656C86.3511 13.7264 86.5429 13.5115 86.8061 13.5115H89.6571C89.9077 13.5115 90.1127 13.7159 90.1127 13.9658V26.7229H95.8145C96.0783 26.7229 96.2695 26.938 96.2695 27.1772V29.7809C96.2695 30.0201 96.0785 30.2353 95.8145 30.2353H86.8061C86.5429 30.2353 86.3511 30.0201 86.3511 29.7809V13.9656Z" fill="#B6A2D7"/>
<path d="M101.231 27.9656L102.357 25.9829C102.549 25.6725 103.004 25.7198 103.172 25.8397C103.267 25.887 104.992 27.1536 106.574 27.1536C107.532 27.1536 108.227 26.5559 108.227 25.7198C108.227 24.7165 107.388 23.952 105.759 23.307C103.699 22.4946 101.111 20.894 101.111 18.027C101.111 15.6619 102.956 13.2727 106.645 13.2727C109.137 13.2727 111.054 14.5389 111.773 15.0646C112.061 15.2318 112.013 15.6619 111.917 15.8291L110.695 17.6685C110.528 17.9313 110.096 18.1463 109.881 17.9789C109.665 17.8596 107.916 16.5455 106.454 16.5455C105.592 16.5455 104.944 17.1187 104.944 17.7639C104.944 18.6477 105.663 19.317 107.556 20.0815C109.425 20.822 112.396 22.2794 112.396 25.5283C112.396 27.9895 110.263 30.4739 106.742 30.4739C103.627 30.4739 101.902 29.1841 101.351 28.6345C101.111 28.3959 101.039 28.3001 101.231 27.9656H101.231Z" fill="#B6A2D7"/>
<path d="M118.915 13.9656C118.915 13.7264 119.13 13.5115 119.37 13.5115H122.245C122.484 13.5115 122.7 13.7264 122.7 13.9656V29.7811C122.7 30.0203 122.484 30.2355 122.245 30.2355H119.37C119.13 30.2355 118.915 30.0203 118.915 29.7811V13.9656Z" fill="#B6A2D7"/>
<path d="M130.416 13.9656C130.416 13.7264 130.607 13.5115 130.871 13.5115H140.79C141.053 13.5115 141.245 13.7264 141.245 13.9656V16.5695C141.245 16.8083 141.053 17.0237 140.79 17.0237H134.153V20.4639H138.084C138.324 20.4639 138.539 20.679 138.539 20.918V23.5219C138.539 23.7607 138.324 23.976 138.084 23.976H134.153V29.7813C134.153 30.0205 133.937 30.2357 133.698 30.2357H130.871C130.607 30.2357 130.416 30.0205 130.416 29.7813V13.9656Z" fill="#B6A2D7"/>
<path d="M151.118 23.7115L144.797 14.2044C144.605 13.8936 144.797 13.5115 145.18 13.5115H148.295C148.486 13.5115 148.606 13.6308 148.678 13.7264L153.034 20.1518L157.024 13.7264C157.096 13.6308 157.192 13.5115 157.408 13.5115H160.522C160.905 13.5115 161.097 13.8936 160.905 14.2044L154.879 23.6875V29.7809C154.879 30.0201 154.663 30.2353 154.423 30.2353H151.572C151.309 30.2353 151.117 30.0201 151.117 29.7809V23.7113L151.118 23.7115Z" fill="#B6A2D7"/>
<path d="M80.7906 29.6137L73.2914 13.5354C73.2199 13.392 73.0522 13.2727 72.8838 13.2727H72.6446C72.4769 13.2727 72.3092 13.392 72.237 13.5354L64.7378 29.6137C64.5943 29.9249 64.7859 30.2353 65.1454 30.2353H67.7805C68.0406 30.2353 68.2324 30.1479 68.377 30.0249L72.7401 20.5591H72.7642L74.5855 24.501H74.5715L77.1308 30.0101C77.2785 30.1664 77.4518 30.2351 77.7238 30.2351H80.383C80.7425 30.2351 80.9341 29.9249 80.7906 29.6137Z" fill="#B6A2D7"/>
<path d="M71.0317 28.6385C71.0317 27.6851 71.8067 26.9126 72.7625 26.9126C74.1804 26.9126 74.9968 28.5194 74.1583 29.6592C73.1691 31.0042 71.0317 30.3065 71.0317 28.6385Z" fill="#B6A2D7"/>
<path d="M37.7222 13.6495C37.7061 13.4983 37.7214 13.3488 37.6987 13.1974C37.2868 10.4619 35.8312 8.05028 33.6 6.40669C31.7999 5.08047 29.6684 4.37952 27.4356 4.37952C25.967 4.37952 24.5374 4.70902 23.2235 5.29129C21.9362 4.71971 20.5198 4.38795 19.0221 4.38795C13.679 4.38795 9.31714 8.44724 8.75012 13.6273C8.30644 13.9483 7.86813 14.2801 7.47293 14.6742C5.51156 16.6302 4.43115 19.2308 4.43115 21.997C4.43115 24.7632 5.51136 27.3636 7.47293 29.3196C7.86339 29.709 8.29696 30.0356 8.73465 30.3538C8.84954 31.4204 9.0853 32.4782 9.5366 33.4861C11.2059 37.2126 14.9296 39.6205 19.0235 39.6205C20.4863 39.6205 21.9098 39.3169 23.2542 38.7181C23.2554 38.7175 23.2565 38.7169 23.2575 38.7163C23.3644 38.763 23.4541 38.8321 23.5632 38.8757C24.8008 39.3701 26.0992 39.6207 27.423 39.6207C31.6927 39.6207 35.4778 37.0667 37.0659 33.1142C37.4297 32.2086 37.6083 31.2826 37.7063 30.3573C40.3057 28.4732 42.0164 25.4393 42.0164 21.997C42.0164 18.5547 40.3123 15.5345 37.7222 13.6495ZM27.4393 23.2512C27.3834 23.2525 27.3275 23.257 27.2716 23.257C27.2514 23.257 27.2308 23.2558 27.2106 23.2531C26.7071 23.2471 26.1842 23.1836 25.6293 23.0665L25.3651 23.0155C25.0334 22.9405 24.9584 23.0538 25.1801 23.324L25.4066 23.6114C25.7356 23.989 26.0283 24.3909 26.2776 24.8119C26.3176 24.8798 26.356 24.9481 26.3954 25.0162C26.514 25.2206 26.6295 25.4265 26.7279 25.6451C27.1936 26.6853 27.4333 27.8033 27.4401 28.9677L27.4432 29.2252L27.4438 29.2713L27.4156 29.2548L27.1798 29.1178C25.9868 28.4222 24.9879 27.4325 24.2713 26.2509C24.23 26.1828 24.1861 26.1168 24.1467 26.0474C23.8718 25.5651 23.6484 25.0458 23.4751 24.5034L23.4052 24.3062C23.2889 23.9874 23.1362 23.9863 23.0283 24.3187L22.9023 24.6834C22.9023 24.6834 22.9015 24.6819 22.9013 24.6811C22.7373 25.1579 22.5329 25.6176 22.2877 26.0497C22.2499 26.1168 22.212 26.1807 22.174 26.2449C21.7924 26.892 21.4032 27.406 20.9597 27.8474C20.4983 28.3095 19.9573 28.7137 19.2566 29.1191L19.0357 29.2493L18.9955 29.2731V29.2334L18.9975 28.9687C19.0029 27.9037 19.198 26.8856 19.5771 25.9432C19.7073 25.6182 19.863 25.3049 20.0319 25.002C20.0701 24.9335 20.1046 24.8621 20.1446 24.7951C20.3731 24.409 20.6567 24.0269 21.0022 23.6361L21.2396 23.3349C21.4614 23.0645 21.3863 22.9511 21.0546 23.0264L20.8108 23.0733C20.2514 23.1908 19.7281 23.2535 19.2244 23.257C19.1972 23.2615 19.1772 23.2636 19.1582 23.2636C19.1029 23.2636 19.0481 23.2593 18.9928 23.258C17.6449 23.2301 16.3309 22.8629 15.0857 22.1583L14.8572 22.0287L14.8227 22.0067L14.8611 21.9845L15.0872 21.8573C15.1633 21.8146 15.602 21.5437 15.7722 21.467C16.8093 21.005 17.9062 20.7654 19.0336 20.7498C19.0726 20.7491 19.2341 20.7502 19.2721 20.7549C19.7343 20.7598 20.2223 20.8148 20.7236 20.9145L21.0655 20.9803C21.3972 21.0554 21.4723 20.9421 21.2506 20.6718L21.0247 20.3853C20.6662 19.9826 20.3704 19.5864 20.132 19.1839C20.0909 19.1146 20.055 19.042 20.0163 18.9712C19.3721 17.7964 19.0235 16.4441 19.014 15.0395L19.0109 14.7676L19.0105 14.734L19.0518 14.7583L19.2748 14.8893C19.9651 15.2929 20.5006 15.694 20.9597 16.1516C21.4028 16.5938 21.7914 17.1072 22.1721 17.752C22.2107 17.8174 22.2493 17.8826 22.2877 17.9507C22.5403 18.3956 22.7491 18.8686 22.9149 19.359L23.0469 19.6868C23.1632 20.0056 23.2996 20.0071 23.4073 19.6749L23.5333 19.3102C23.5333 19.3102 23.5341 19.3119 23.5343 19.3127C23.6979 18.8396 23.9019 18.3828 24.1465 17.9519C24.1863 17.8818 24.2309 17.8147 24.2725 17.746C24.9912 16.5613 25.9922 15.5716 27.187 14.8784L27.4284 14.7367L27.4494 14.7244V14.7647L27.4478 15.0273C27.4434 16.4044 27.0835 17.7312 26.3863 18.9764C26.3469 19.0465 26.311 19.1175 26.2696 19.1872C26.0039 19.6348 25.7302 20.0239 25.4402 20.3686C25.4402 20.3686 25.4404 20.3686 25.4406 20.3686L25.2015 20.672C24.9798 20.9425 25.0549 21.0558 25.3866 20.9805L25.6496 20.9297C26.1838 20.8183 26.6914 20.7578 27.1883 20.752L27.2122 20.7498C27.2345 20.7475 27.2566 20.7448 27.2805 20.7467C27.3312 20.7467 27.3813 20.7493 27.4319 20.7502C28.4391 20.7683 29.4215 20.9655 30.3596 21.3413C30.657 21.46 30.9258 21.6142 31.1857 21.7633L31.572 21.9826L31.6073 22.0026L31.5794 22.0182L31.3402 22.1527C30.1075 22.8456 28.7627 23.2212 27.4393 23.2508V23.2512ZM31.288 19.6496C30.3765 19.2853 29.4258 19.1 28.4626 19.0031C29.0564 17.7001 29.4069 16.2653 29.4069 14.7435C29.4069 14.4794 29.3483 14.2314 29.3287 13.9722C30.0651 13.762 30.8272 13.6137 31.6312 13.6137C33.1605 13.6137 34.5748 14.0516 35.8105 14.7633C35.8064 16.4873 35.2963 18.224 34.1901 19.7168C33.9129 20.091 33.5786 20.3913 33.2549 20.7055C32.6479 20.2944 31.9967 19.9326 31.288 19.6494V19.6496ZM27.4354 6.35198C29.1709 6.35198 30.9215 6.88593 32.4243 7.9931C33.9634 9.12701 34.971 10.6926 35.4675 12.3934C34.278 11.9191 32.9886 11.641 31.6312 11.641C30.7154 11.641 29.8431 11.7976 28.9964 12.0207C28.3976 9.8473 27.1179 7.97336 25.3843 6.61978C26.0557 6.45194 26.7421 6.35198 27.4352 6.35198H27.4354ZM21.8198 8.51964C21.9997 8.36456 22.1862 8.21935 22.3768 8.08072C22.5009 7.99043 22.6265 7.90343 22.7544 7.81971C22.9108 7.71749 23.0686 7.61815 23.2295 7.52518C23.4679 7.6636 23.6962 7.81622 23.9188 7.97624C24.1178 8.11939 24.3125 8.26768 24.4978 8.42688C24.6285 8.53939 24.7558 8.6556 24.8792 8.77571C24.9893 8.88287 25.0957 8.99353 25.1999 9.10645C25.4433 9.37033 25.6687 9.65047 25.8764 9.94418C25.9783 10.0882 26.0773 10.2342 26.17 10.3847C26.6052 11.0915 26.9377 11.8685 27.1472 12.6976C25.5815 13.4522 24.2338 14.5716 23.2249 15.9661C22.8992 15.5167 22.561 15.074 22.16 14.6742C21.3143 13.8309 20.331 13.1865 19.2836 12.6859C19.5435 11.6575 19.9965 10.6597 20.6677 9.75392C20.844 9.51575 21.0319 9.29238 21.2297 9.08238C21.4178 8.88267 21.6154 8.69591 21.8198 8.51964ZM19.0221 6.36042C19.3655 6.36042 19.7015 6.38654 20.0317 6.4322C20.362 6.47786 20.686 6.54265 21.0055 6.62019C20.2859 7.18457 19.6297 7.83473 19.0763 8.58176C18.301 9.62825 17.7597 10.7928 17.4256 12.0113C16.5797 11.7928 15.7134 11.641 14.8168 11.641C13.4859 11.641 12.1984 11.9029 10.9972 12.3768C12.0266 8.90755 15.2093 6.36042 19.0221 6.36042ZM14.8164 13.6137C15.5855 13.6137 16.346 13.7558 17.0917 13.965C17.0358 14.7279 17.0421 15.4988 17.1589 16.2736C17.3043 17.2398 17.623 18.1434 18.0172 19.0093C16.9075 19.1169 15.8174 19.3466 14.7833 19.8071C14.2042 20.0653 13.6654 20.3834 13.1524 20.7327C11.5968 19.2166 10.6255 17.109 10.6178 14.7707C11.9161 14.0205 13.3599 13.6137 14.8164 13.6137ZM9.319 25.5629C9.04033 26.2889 8.8681 27.0343 8.75796 27.7852C5.63697 24.5367 5.64316 19.4157 8.7823 16.1781C9.09932 18.4278 10.1051 20.4565 11.6318 22.0017C10.637 23.0075 9.84023 24.2037 9.319 25.5627V25.5629ZM13.1654 23.2833C14.5631 24.2393 16.2169 24.8171 17.9899 24.995C17.9258 25.1365 17.8439 25.2657 17.7855 25.4109C17.1766 26.9261 16.9933 28.4954 17.1094 30.023C16.358 30.2357 15.5915 30.3797 14.8161 30.3797C13.3632 30.3797 11.9231 29.9743 10.6273 29.2279C10.6385 26.995 11.5535 24.8537 13.1652 23.2835L13.1654 23.2833ZM19.0237 37.6474C15.8083 37.6474 12.7393 35.7981 11.3431 32.6812C11.1863 32.3316 11.0943 31.9718 10.9889 31.6142C12.1925 32.0901 13.4829 32.3524 14.8166 32.3524C15.7212 32.3524 16.595 32.1979 17.4477 31.9755C18.0291 34.0905 19.2737 35.9832 21.0445 37.3718C20.3727 37.5392 19.6966 37.6474 19.0237 37.6474ZM23.2138 36.4785C21.2147 35.3199 19.8358 33.4398 19.2943 31.3017C20.3376 30.8015 21.3172 30.1596 22.16 29.3192C22.561 28.9194 22.8994 28.4767 23.2249 28.0273C24.2321 29.4192 25.577 30.5366 27.139 31.291C26.6 33.4289 25.2302 35.3137 23.2138 36.4785ZM35.2295 32.3801C33.9135 35.6554 30.7575 37.6476 27.4232 37.6476C26.7576 37.6476 26.0881 37.5367 25.4216 37.3726C27.193 35.9801 28.411 34.0768 28.9888 31.9704C29.8378 32.1948 30.7127 32.3526 31.6314 32.3526C32.9837 32.3526 34.2679 32.0753 35.4537 31.6045C35.3778 31.8632 35.332 32.1249 35.2295 32.3803V32.3801ZM31.6316 30.3797C30.8264 30.3797 30.0634 30.231 29.326 30.0201C29.4518 28.3632 29.2272 26.6598 28.5014 25.039C28.4997 25.0351 28.497 25.0318 28.4954 25.0279C30.2255 24.8469 31.8742 24.2336 33.2943 23.2652C34.9009 24.8298 35.8126 26.9823 35.8242 29.2229C34.5857 29.9391 33.1664 30.3797 31.6316 30.3797ZM37.662 27.8206C37.3482 25.6357 36.3753 23.5846 34.8124 21.9995C35.1575 21.6519 35.4869 21.2872 35.7817 20.8892C36.8239 19.4826 37.4305 17.8645 37.6673 16.1796C39.1293 17.6878 40.0383 19.7333 40.0383 21.9968C40.0383 24.2603 39.1275 26.3117 37.6618 27.8206H37.662Z" fill="#B6A2D7"/>
</svg>
