<svg width="769" height="579" viewBox="0 0 769 579" fill="none" xmlns="http://www.w3.org/2000/svg">
<g clip-path="url(#clip0)">
<path d="M0 7.99999C0 3.58171 3.58172 0 8 0H775C779.418 0 783 3.58172 783 8V532C783 536.418 779.418 540 775 540H8.00001C3.58174 540 0 536.418 0 532V7.99999Z" fill="#EDEFF3"/>
<rect x="24" y="93" width="494" height="256" rx="8" fill="#E4E8EE"/>
<rect x="24" y="373" width="759" height="143" rx="8" fill="#E4E8EE"/>
<rect x="542" y="93" width="245" height="256" rx="8" fill="#E4E8EE"/>
<path d="M0 3.74836C0 1.6782 1.90513 0 4.25522 0H779.77C782.12 0 784.025 1.6782 784.025 3.74836V25.3014H0V3.74836Z" fill="#EDEFF3"/>
<path d="M17.337 12.3189C17.337 15.0907 15.0909 17.3377 12.3202 17.3377C9.54954 17.3377 7.30344 15.0907 7.30344 12.3189C7.30344 9.54706 9.54954 7.30005 12.3202 7.30005C15.0909 7.30005 17.337 9.54706 17.337 12.3189Z" fill="#EE4266"/>
<path d="M34.6617 12.3189C34.6617 15.0907 32.4156 17.3377 29.6449 17.3377C26.8742 17.3377 24.6282 15.0907 24.6282 12.3189C24.6282 9.54706 26.8742 7.30005 29.6449 7.30005C32.4156 7.30005 34.6617 9.54706 34.6617 12.3189Z" fill="#FFC857"/>
<path d="M51.9959 12.3189C51.9959 15.0907 49.7498 17.3377 46.9791 17.3377C44.2084 17.3377 41.9623 15.0907 41.9623 12.3189C41.9623 9.54706 44.2084 7.30005 46.9791 7.30005C49.7498 7.30005 51.9959 9.54706 51.9959 12.3189Z" fill="#59C3C3"/>
<path d="M0 25.3014H784.025V62.4629H0V25.3014Z" fill="white"/>
<path d="M0 62.4629H784.025" stroke="#E4E8EE"/>
<path d="M63.8556 35.6335C63.8556 33.6176 65.4892 31.9834 67.5042 31.9834H276.385C278.4 31.9834 280.034 33.6176 280.034 35.6335V51.1462C280.034 53.1621 278.4 54.7963 276.385 54.7963H67.5042C65.4892 54.7963 63.8556 53.1621 63.8556 51.1462V35.6335Z" fill="#EDEFF3"/>
<rect x="71.7172" y="39.7631" width="101.959" height="6.91531" rx="3.45765" fill="#D4D8E4"/>
<path d="M10.3295 43.3437L13.4091 40.6475C13.7703 40.3313 13.7783 39.8113 13.4271 39.4861C13.0759 39.161 12.4984 39.1537 12.1373 39.4699L8.56201 42.6002L8.56133 42.6008C8.09572 43.009 8.09627 43.6801 8.56251 44.0877L12.1373 47.2176C12.4984 47.5338 13.0759 47.5265 13.4271 47.2013C13.7783 46.8762 13.7703 46.3562 13.4091 46.04L10.3295 43.3437Z" fill="#D4D8E4"/>
<path d="M29.8179 43.344L26.7383 46.0403C26.3772 46.3565 26.3691 46.8764 26.7203 47.2016C27.0715 47.5268 27.649 47.534 28.0102 47.2178L31.5854 44.0875L31.5861 44.0869C32.0517 43.6787 32.0512 43.0076 31.5849 42.6L28.0102 39.4702C27.649 39.154 27.0715 39.1612 26.7203 39.4864C26.3691 39.8116 26.3772 40.3315 26.7383 40.6477L29.8179 43.344Z" fill="#D4D8E4"/>
<path fill-rule="evenodd" clip-rule="evenodd" d="M47.2067 39.238C47.2067 38.734 47.615 38.3254 48.1188 38.3254C50.7636 38.3254 52.9075 40.4703 52.9075 43.1161C52.9075 45.762 50.7636 47.9068 48.1188 47.9068C47.615 47.9068 47.2067 47.4983 47.2067 46.9943C47.2067 46.4904 47.615 46.0818 48.1188 46.0818C49.756 46.0818 51.0833 44.754 51.0833 43.1161C51.0833 41.4782 49.756 40.1505 48.1188 40.1505C47.615 40.1505 47.2067 39.7419 47.2067 39.238Z" fill="#D4D8E4"/>
<path fill-rule="evenodd" clip-rule="evenodd" d="M44.2391 44.0284C43.7353 44.0284 43.327 43.6199 43.327 43.1159C43.327 40.4701 45.471 38.3252 48.1157 38.3252C50.7605 38.3252 52.9045 40.4701 52.9045 43.1159C52.9045 43.6199 52.4961 44.0284 51.9923 44.0284C51.4885 44.0284 51.0802 43.6199 51.0802 43.1159C51.0802 41.478 49.7529 40.1503 48.1157 40.1503C46.4785 40.1503 45.1512 41.478 45.1512 43.1159C45.1512 43.6199 44.7429 44.0284 44.2391 44.0284Z" fill="#D4D8E4"/>
<path d="M43.6591 43.2806L42.5913 40.7689C42.4661 40.4744 42.1385 40.3613 41.8596 40.5163C41.5808 40.6714 41.4563 41.0358 41.5815 41.3304L42.8212 44.2463L42.8214 44.2469C42.9832 44.6267 43.4083 44.7658 43.7632 44.5549L46.4876 42.9394C46.7628 42.7762 46.8782 42.4087 46.7452 42.1186C46.6122 41.8285 46.2813 41.7256 46.006 41.8889L43.6591 43.2806Z" fill="#D4D8E4"/>
</g>
<g filter="url(#filter0_d)">
<rect x="100" y="113" width="382" height="307" rx="8" fill="white"/>
</g>
<rect x="135" y="226" width="266" height="13" rx="6.5" fill="#EDEFF3"/>
<rect x="135" y="311" width="266" height="13" rx="6.5" fill="#EDEFF3"/>
<rect x="135" y="254" width="182" height="14" rx="7" fill="#EDEFF3"/>
<rect x="135" y="339" width="122" height="14" rx="7" fill="#EDEFF3"/>
<rect x="135" y="281" width="238" height="14" rx="7" fill="#EDEFF3"/>
<rect x="135" y="158" width="286" height="27" rx="8" fill="#EDEFF3"/>
<g filter="url(#filter1_d)">
<g filter="url(#filter2_d)">
<rect x="317" y="214" width="408" height="278" rx="8" fill="url(#paint0_linear)"/>
</g>
<path d="M491.358 388.5L484.606 394.738C483.814 395.469 483.796 396.672 484.566 397.425C485.336 398.177 486.602 398.194 487.394 397.462L495.234 390.22L495.235 390.219C496.256 389.274 496.255 387.722 495.233 386.779L487.394 379.538C486.602 378.806 485.336 378.823 484.566 379.575C483.796 380.328 483.814 381.531 484.606 382.262L491.358 388.5Z" fill="#EE9EAE"/>
<path d="M355.642 388.5L362.394 382.262C363.186 381.531 363.204 380.328 362.434 379.575C361.664 378.823 360.398 378.806 359.606 379.538L351.766 386.78L351.765 386.781C350.744 387.726 350.745 389.278 351.767 390.221L359.606 397.462C360.398 398.194 361.664 398.177 362.434 397.425C363.204 396.672 363.186 395.469 362.394 394.738L355.642 388.5Z" fill="#EE9EAE"/>
<rect x="670" y="393" width="158" height="9" rx="4.5" transform="rotate(-180 670 393)" fill="#BFA6F4"/>
<rect x="371" y="384" width="104" height="9" rx="4.5" fill="#9758F9"/>
<path d="M529.642 247.5L536.394 241.262C537.186 240.531 537.204 239.328 536.434 238.575C535.664 237.823 534.398 237.806 533.606 238.538L525.766 245.78L525.765 245.781C524.744 246.726 524.745 248.278 525.767 249.221L533.606 256.462C534.398 257.194 535.664 257.177 536.434 256.425C537.204 255.672 537.186 254.469 536.394 253.738L529.642 247.5Z" fill="#EE9EAE"/>
<path d="M684.358 247.5L677.606 253.738C676.814 254.469 676.796 255.672 677.566 256.425C678.336 257.177 679.602 257.194 680.394 256.462L688.234 249.22L688.235 249.219C689.256 248.274 689.255 246.722 688.233 245.779L680.394 238.538C679.602 237.806 678.336 237.823 677.566 238.575C676.796 239.328 676.814 240.531 677.606 241.262L684.358 247.5Z" fill="#EE9EAE"/>
<rect x="350" y="243" width="158" height="9" rx="4.5" fill="#BFA6F4"/>
<rect x="667" y="252" width="120" height="8.99999" rx="4.49999" transform="rotate(-180 667 252)" fill="#9758F9"/>
<path d="M716 492L716 214L721 214C723.209 214 725 215.791 725 218L725 488C725 490.209 723.209 492 721 492L716 492Z" fill="#4D17B2"/>
<rect x="716.167" y="385.134" width="56.0132" height="9.65744" rx="4.82872" transform="rotate(-90 716.167 385.134)" fill="#9758F9"/>
<path d="M508.358 282.5L501.606 288.738C500.814 289.469 500.796 290.672 501.566 291.425C502.336 292.177 503.602 292.194 504.394 291.462L512.234 284.22L512.235 284.219C513.256 283.274 513.255 281.722 512.233 280.779L504.394 273.538C503.602 272.806 502.336 272.823 501.566 273.575C500.796 274.328 500.814 275.531 501.606 276.262L508.358 282.5Z" fill="#EE9EAE"/>
<path d="M446.642 282.5L453.394 276.262C454.186 275.531 454.204 274.328 453.434 273.575C452.664 272.823 451.398 272.806 450.606 273.538L442.766 280.78L442.765 280.781C441.744 281.726 441.745 283.278 442.767 284.221L450.606 291.462C451.398 292.194 452.664 292.177 453.434 291.425C454.204 290.672 454.186 289.469 453.394 288.738L446.642 282.5Z" fill="#EE9EAE"/>
<rect x="527" y="278" width="111" height="8.99999" rx="4.5" fill="#A0E9E9"/>
<rect x="350" y="278" width="78" height="9" rx="4.5" fill="#9758F9"/>
<rect x="462" y="278" width="31" height="9" rx="4.5" fill="#A0E9E9"/>
<rect x="513" y="358" width="162" height="8.99999" rx="4.49999" transform="rotate(-180 513 358)" fill="#A0E9E9"/>
<rect x="578" y="358" width="51" height="9" rx="4.5" transform="rotate(-180 578 358)" fill="#9758F9"/>
<path d="M355.029 423.5L362.344 417.262C363.202 416.531 363.221 415.328 362.387 414.575C361.552 413.823 360.181 413.806 359.323 414.538L350.83 421.78L350.829 421.781C349.723 422.726 349.724 424.278 350.831 425.221L359.323 432.462C360.181 433.194 361.552 433.177 362.387 432.425C363.221 431.672 363.202 430.469 362.344 429.738L355.029 423.5Z" fill="#EE9EAE"/>
<path d="M417.358 423.5L410.606 429.738C409.814 430.469 409.796 431.672 410.566 432.425C411.336 433.177 412.602 433.194 413.394 432.462L421.234 425.22L421.235 425.219C422.256 424.274 422.255 422.722 421.233 421.779L413.394 414.538C412.602 413.806 411.336 413.823 410.566 414.575C409.796 415.328 409.814 416.531 410.606 417.262L417.358 423.5Z" fill="#EE9EAE"/>
<rect x="598" y="428" width="163" height="9.99999" rx="4.99999" transform="rotate(-180 598 428)" fill="#9758F9"/>
<rect x="402" y="428" width="31" height="10" rx="5" transform="rotate(-180 402 428)" fill="#BFA6F4"/>
<rect x="350" y="454" width="163" height="9.99999" rx="4.99999" fill="#A0E9E9"/>
<rect x="528" y="454" width="49" height="9.99999" rx="5" fill="#BFA6F4"/>
<path d="M355.029 318.5L362.344 312.262C363.202 311.531 363.221 310.328 362.387 309.575C361.552 308.823 360.181 308.806 359.323 309.538L350.83 316.78L350.829 316.781C349.723 317.726 349.724 319.278 350.831 320.221L359.323 327.462C360.181 328.194 361.552 328.177 362.387 327.425C363.221 326.672 363.202 325.469 362.344 324.738L355.029 318.5Z" fill="#EE9EAE"/>
<path d="M417.358 318.5L410.606 324.738C409.814 325.469 409.796 326.672 410.566 327.425C411.336 328.177 412.602 328.194 413.394 327.462L421.234 320.22L421.235 320.219C422.256 319.274 422.255 317.722 421.233 316.779L413.394 309.538C412.602 308.806 411.336 308.823 410.566 309.575C409.796 310.328 409.814 311.531 410.606 312.262L417.358 318.5Z" fill="#EE9EAE"/>
<rect x="598" y="323" width="163" height="9.99999" rx="4.99999" transform="rotate(-180 598 323)" fill="#9758F9"/>
<rect x="402" y="323" width="31" height="10" rx="5" transform="rotate(-180 402 323)" fill="#BFA6F4"/>
</g>
<defs>
<filter id="filter0_d" x="96" y="113" width="390" height="315" filterUnits="userSpaceOnUse" color-interpolation-filters="sRGB">
<feFlood flood-opacity="0" result="BackgroundImageFix"/>
<feColorMatrix in="SourceAlpha" type="matrix" values="0 0 0 0 0 0 0 0 0 0 0 0 0 0 0 0 0 0 127 0"/>
<feOffset dy="4"/>
<feGaussianBlur stdDeviation="2"/>
<feColorMatrix type="matrix" values="0 0 0 0 0.262014 0 0 0 0 0.294529 0 0 0 0 0.408333 0 0 0 0.08 0"/>
<feBlend mode="normal" in2="BackgroundImageFix" result="effect1_dropShadow"/>
<feBlend mode="normal" in="SourceGraphic" in2="effect1_dropShadow" result="shape"/>
</filter>
<filter id="filter1_d" x="313" y="214" width="416.824" height="286" filterUnits="userSpaceOnUse" color-interpolation-filters="sRGB">
<feFlood flood-opacity="0" result="BackgroundImageFix"/>
<feColorMatrix in="SourceAlpha" type="matrix" values="0 0 0 0 0 0 0 0 0 0 0 0 0 0 0 0 0 0 127 0"/>
<feOffset dy="4"/>
<feGaussianBlur stdDeviation="2"/>
<feColorMatrix type="matrix" values="0 0 0 0 0.262014 0 0 0 0 0.294529 0 0 0 0 0.408333 0 0 0 0.08 0"/>
<feBlend mode="normal" in2="BackgroundImageFix" result="effect1_dropShadow"/>
<feBlend mode="normal" in="SourceGraphic" in2="effect1_dropShadow" result="shape"/>
</filter>
<filter id="filter2_d" x="313" y="214" width="416" height="286" filterUnits="userSpaceOnUse" color-interpolation-filters="sRGB">
<feFlood flood-opacity="0" result="BackgroundImageFix"/>
<feColorMatrix in="SourceAlpha" type="matrix" values="0 0 0 0 0 0 0 0 0 0 0 0 0 0 0 0 0 0 127 0"/>
<feOffset dy="4"/>
<feGaussianBlur stdDeviation="2"/>
<feColorMatrix type="matrix" values="0 0 0 0 0.262014 0 0 0 0 0.294529 0 0 0 0 0.408333 0 0 0 0.08 0"/>
<feBlend mode="normal" in2="BackgroundImageFix" result="effect1_dropShadow"/>
<feBlend mode="normal" in="SourceGraphic" in2="effect1_dropShadow" result="shape"/>
</filter>
<linearGradient id="paint0_linear" x1="521" y1="214" x2="649.573" y2="488.813" gradientUnits="userSpaceOnUse">
<stop stop-color="#6310E5"/>
<stop offset="1" stop-color="#8322FE"/>
</linearGradient>
<clipPath id="clip0">
<rect width="772" height="579" fill="white"/>
</clipPath>
</defs>
</svg>
