<svg width="53" height="56" viewBox="0 0 53 56" fill="none" xmlns="http://www.w3.org/2000/svg">
<path fill-rule="evenodd" clip-rule="evenodd" d="M50 3L3 3L3 53L50 53L50 3ZM53 2C53 0.895431 52.1046 -2.98213e-08 51 -6.66078e-08L2 -1.6985e-06C0.895435 -1.73529e-06 3.76333e-06 0.895428 3.69995e-06 2L7.16653e-07 54C6.53282e-07 55.1046 0.895428 56 2 56L51 56C52.1046 56 53 55.1046 53 54L53 2Z" fill="#FAFAFA"/>
<path d="M22 15.5C22 14.6716 22.6716 14 23.5 14H43.5C44.3284 14 45 14.6716 45 15.5V15.5C45 16.3284 44.3284 17 43.5 17H23.5C22.6716 17 22 16.3284 22 15.5V15.5Z" fill="#FAFAFA"/>
<path d="M22 29.5C22 28.6716 22.6716 28 23.5 28H43.5C44.3284 28 45 28.6716 45 29.5V29.5C45 30.3284 44.3284 31 43.5 31H23.5C22.6716 31 22 30.3284 22 29.5V29.5Z" fill="#FAFAFA"/>
<path d="M22 43.5C22 42.6716 22.6716 42 23.5 42H43.5C44.3284 42 45 42.6716 45 43.5V43.5C45 44.3284 44.3284 45 43.5 45H23.5C22.6716 45 22 44.3284 22 43.5V43.5Z" fill="#FAFAFA"/>
<path fill-rule="evenodd" clip-rule="evenodd" d="M17.9762 9.86114C17.3472 9.32201 16.4002 9.39485 15.8611 10.0238L11.5721 15.0277L8.81584 13.2413C8.12067 12.7907 7.19185 12.989 6.74127 13.6842C6.29069 14.3794 6.48898 15.3082 7.18416 15.7588L12.1422 18.9723L18.1389 11.9762C18.678 11.3472 18.6052 10.4003 17.9762 9.86114Z" fill="#FAFAFA"/>
<path fill-rule="evenodd" clip-rule="evenodd" d="M17.9762 23.8611C17.3472 23.322 16.4002 23.3949 15.8611 24.0238L11.5721 29.0277L8.81584 27.2413C8.12067 26.7907 7.19185 26.989 6.74127 27.6842C6.29069 28.3794 6.48898 29.3082 7.18416 29.7588L12.1422 32.9723L18.1389 25.9762C18.678 25.3472 18.6052 24.4003 17.9762 23.8611Z" fill="#FAFAFA"/>
<path fill-rule="evenodd" clip-rule="evenodd" d="M17.9762 37.8611C17.3472 37.322 16.4002 37.3949 15.8611 38.0238L11.5721 43.0277L8.81584 41.2413C8.12067 40.7907 7.19185 40.989 6.74127 41.6842C6.29069 42.3794 6.48898 43.3082 7.18416 43.7588L12.1422 46.9723L18.1389 39.9762C18.678 39.3472 18.6052 38.4003 17.9762 37.8611Z" fill="#FAFAFA"/>
</svg>
