<svg preserveAspectRatio="none" width="1441" height="529" viewBox="0 0 1441 529" fill="none" xmlns="http://www.w3.org/2000/svg">
<mask id="mask0" mask-type="alpha" maskUnits="userSpaceOnUse" x="0" y="0" width="1441" height="529">
<path opacity="0.8" d="M1186.29 449.02C1298.61 449.02 1394.98 397.467 1440.57 308.005C1440.57 308.005 1440.77 0.86377 1440.57 0.86377C1440.38 0.86377 1440.39 0.86377 1440.23 0.86377C1440.06 0.86377 0.572266 0.882783 0.572266 0.882783V513.75C206.592 546.391 244.642 526.174 369.875 449.02C495.108 371.866 670.499 502.574 805.198 449.02C939.897 395.466 1073.97 449.02 1186.29 449.02Z" fill="url(#paint0_linear)"/>
</mask>
<g mask="url(#mask0)">
<path opacity="0.8" d="M1186.29 449.02C1298.61 449.02 1394.98 397.467 1440.57 308.005C1440.57 308.005 1440.77 0.86377 1440.57 0.86377C1440.38 0.86377 1440.39 0.86377 1440.23 0.86377C1440.06 0.86377 0.572266 0.882783 0.572266 0.882783V513.75C206.592 546.391 244.642 526.174 369.875 449.02C495.108 371.866 670.499 502.574 805.198 449.02C939.897 395.466 1073.97 449.02 1186.29 449.02Z" fill="url(#paint1_linear)"/>
<circle opacity="0.05" cx="39.4422" cy="310.529" r="204.575" transform="rotate(-66.3589 39.4422 310.529)" fill="#9498A7"/>
<circle opacity="0.05" cx="1379.03" cy="141.722" r="159.445" fill="#9498A7"/>
<circle opacity="0.05" cx="1070.73" cy="18.8795" r="265.879" fill="#9498A7"/>
<circle opacity="0.05" cx="1203.99" cy="283.845" r="159.445" fill="#9498A7"/>
<circle opacity="0.05" cx="176.238" cy="213.883" r="140" fill="#D7D0F1"/>
<circle opacity="0.05" cx="363.309" cy="103.454" r="204.575" transform="rotate(-66.3589 363.309 103.454)" fill="#9498A7"/>
</g>
<defs>
<linearGradient id="paint0_linear" x1="2880.75" y1="893.171" x2="0.571994" y2="0.863127" gradientUnits="userSpaceOnUse">
<stop stop-color="#FCFFFF"/>
<stop offset="1" stop-color="#E7E7EE"/>
</linearGradient>
<linearGradient id="paint1_linear" x1="2880.75" y1="893.171" x2="0.571994" y2="0.863127" gradientUnits="userSpaceOnUse">
<stop stop-color="#FCFFFF"/>
<stop offset="1" stop-color="#E7E7EE"/>
</linearGradient>
</defs>
</svg>
