<svg width="155" height="102" viewBox="0 0 155 102" fill="none" xmlns="http://www.w3.org/2000/svg">
<g clip-path="url(#clip0)">
<path d="M95.2308 45.8633C95.2263 45.7386 95.2263 45.6139 95.2263 45.4847V45.8633H95.2308Z" fill="white"/>
<path d="M59.7826 42.5635C59.7826 42.6926 59.7826 42.8173 59.7781 42.942H59.7826V42.5635Z" fill="white"/>
<path d="M81.9126 93.2273H73.625V96.3801H81.9126V93.2273Z" fill="#FE8A3A"/>
<path d="M152.931 39.7936H145.069H106.485H96.84C95.8231 39.7936 94.9988 40.613 94.9988 41.6238V45.4847H95.3213H154.454H154.772V42.942V42.5635V41.6238C154.772 40.613 153.948 39.7936 152.931 39.7936Z" fill="#FFC857"/>
<path d="M132.126 58.9244H118.1C116.877 58.9244 115.883 59.913 115.883 61.1288V62.2688C115.883 63.4845 116.877 64.4731 118.1 64.4731H132.126C133.349 64.4731 134.344 63.4845 134.344 62.2688V61.1288C134.344 59.9086 133.349 58.9244 132.126 58.9244Z" fill="#FFC857"/>
<path d="M84.9901 61.4894C83.14 59.6547 80.5865 58.5192 77.7687 58.5192C72.2541 58.5192 67.752 62.8699 67.5683 68.3161C67.5593 68.4319 67.5593 68.5477 67.5593 68.6679V74.9959V93.2272H73.6249H81.9125H87.9781V74.9959V68.6679C87.9781 68.5477 87.9781 68.4319 87.9691 68.3161C87.8796 65.6532 86.7596 63.2529 84.9901 61.4894Z" fill="#FFC857"/>
<path d="M57.9312 49.7936H52.8825H6.88866H1.83996C0.823057 49.7936 -0.0012207 50.613 -0.0012207 51.6238V55.4847H0.321323H59.4543H59.7768V51.6238C59.7723 50.613 58.9481 49.7936 57.9312 49.7936Z" fill="#FFC857"/>
<path d="M36.8999 68.9244H22.8737C21.6508 68.9244 20.6562 69.913 20.6562 71.1288V72.2688C20.6562 73.4845 21.6508 74.4731 22.8737 74.4731H36.8999C38.1229 74.4731 39.1174 73.4845 39.1174 72.2688V71.1288C39.1174 69.9086 38.1229 68.9244 36.8999 68.9244Z" fill="#FFC857"/>
<path d="M95.5491 45.4802C96.1986 48.7355 97.8114 51.6479 100.078 53.9056C103.08 56.8848 107.219 58.7284 111.797 58.7284H138.429C146.471 58.7284 153.172 53.0328 154.678 45.4802H95.5491Z" fill="#FE8A3A"/>
<path d="M122.105 64.8606C121.836 66.8111 120.161 68.3162 118.132 68.3162H87.9692C87.9782 68.432 87.9782 68.5478 87.9782 68.668V74.996H118.132C123.964 74.996 128.722 70.3469 128.861 64.5845H122.132C122.127 64.678 122.119 64.7715 122.105 64.8606Z" fill="#FE8A3A"/>
<path d="M104.831 96.38H81.9171H73.6295H50.711C49.1521 96.38 47.8843 97.6403 47.8843 99.19C47.8843 100.74 49.1521 102 50.711 102H104.831C106.39 102 107.658 100.74 107.658 99.19C107.658 97.6403 106.39 96.38 104.831 96.38Z" fill="#FFC857"/>
<path d="M144.388 29.1326H106.816L102.085 38.3685C101.852 38.9296 102.112 39.5352 102.605 39.7935H148.599C149.091 39.5352 149.351 38.934 149.118 38.3685L144.388 29.1326ZM132.055 37.6604H119.149C118.517 37.6604 118.109 36.988 118.409 36.4313L118.965 35.4026C119.108 35.131 119.395 34.9618 119.704 34.9618H131.499C131.808 34.9618 132.091 35.131 132.238 35.4026L132.794 36.4269C133.094 36.9835 132.691 37.6604 132.055 37.6604ZM143.142 38.1057H135.769C135.424 38.1057 135.115 37.8519 134.985 37.4645L133.887 34.089C133.762 33.7015 133.448 33.4477 133.103 33.4477H118.1C117.755 33.4477 117.446 33.7015 117.316 34.089L116.219 37.4645C116.093 37.8519 115.78 38.1057 115.435 38.1057H108.061C107.407 38.1057 107.004 37.2418 107.344 36.5694L109.844 31.6842C109.996 31.3859 110.27 31.2033 110.561 31.2033H140.643C140.934 31.2033 141.207 31.3859 141.359 31.6842L143.859 36.5694C144.204 37.2418 143.801 38.1057 143.142 38.1057Z" fill="#EE4266"/>
<path d="M131.499 34.9619H119.704C119.395 34.9619 119.108 35.1311 118.965 35.4028L118.409 36.4315C118.109 36.9881 118.517 37.6605 119.148 37.6605H132.055C132.691 37.6605 133.094 36.9837 132.794 36.427L132.238 35.4028C132.09 35.1311 131.808 34.9619 131.499 34.9619Z" fill="#FAFAFA"/>
<path d="M109.123 26.0823C109.32 26.3718 109.651 26.5633 110.032 26.5633H141.171C141.628 26.5633 142.018 26.2872 142.183 25.8997C142.237 25.7661 142.269 25.6236 142.269 25.4722V7.37008C142.269 7.22313 142.237 7.07617 142.183 6.94703C142.018 6.55515 141.628 6.27905 141.171 6.27905H110.032C109.651 6.27905 109.32 6.47054 109.123 6.76C109.06 6.84906 109.015 6.94258 108.984 7.045C108.952 7.14742 108.935 7.25875 108.935 7.37008V25.4722C108.935 25.588 108.952 25.6949 108.984 25.7973C109.015 25.8997 109.06 25.9977 109.123 26.0823Z" fill="#FAFAFA"/>
<path d="M140.642 31.2034H110.561C110.27 31.2034 109.996 31.386 109.844 31.6843L107.344 36.5694C107.004 37.2419 107.407 38.1058 108.061 38.1058H115.435C115.78 38.1058 116.093 37.852 116.219 37.4645L117.316 34.089C117.446 33.7016 117.755 33.4478 118.1 33.4478H133.103C133.448 33.4478 133.762 33.7016 133.887 34.089L134.984 37.4645C135.114 37.852 135.424 38.1058 135.768 38.1058H143.142C143.801 38.1058 144.204 37.2419 143.859 36.5694L141.359 31.6843C141.207 31.386 140.934 31.2034 140.642 31.2034Z" fill="#D4D8E4"/>
<path d="M106.816 29.1327H144.388H144.719V4.8005C144.719 4.19932 144.226 3.70947 143.622 3.70947H107.582C106.977 3.70947 106.484 4.19932 106.484 4.8005V29.1327H106.556H106.816ZM108.935 7.36998C108.935 7.25865 108.953 7.14732 108.984 7.0449C109.015 6.94248 109.06 6.84896 109.123 6.7599C109.32 6.47044 109.652 6.27896 110.032 6.27896H141.171C141.628 6.27896 142.018 6.55505 142.184 6.94693C142.242 7.07607 142.273 7.22303 142.273 7.36998V25.4721C142.273 25.6236 142.242 25.7661 142.184 25.8997C142.018 26.2871 141.628 26.5632 141.171 26.5632H110.032C109.652 26.5632 109.32 26.3717 109.123 26.0822C109.06 25.9976 109.015 25.8997 108.984 25.7972C108.953 25.6948 108.935 25.5879 108.935 25.4721V7.36998Z" fill="#FE8A3A"/>
<path d="M42.4377 38.1195V36.5164H39.4004V39.5401H41.0131C41.7971 39.5401 42.4377 38.9033 42.4377 38.1195Z" fill="#FAFAFA"/>
<path d="M42.4377 34.027C42.4377 33.2433 41.7971 32.6064 41.0131 32.6064H39.4004V35.6257H42.4377V34.027Z" fill="#FAFAFA"/>
<path d="M36.8963 39.5401H38.5046V36.5164H35.4673V38.1195C35.4673 38.9033 36.1079 39.5401 36.8963 39.5401Z" fill="#FAFAFA"/>
<path d="M38.5046 32.6064H36.8963C36.1079 32.6064 35.4673 33.2433 35.4673 34.027V35.6257H38.5046V32.6064Z" fill="#FAFAFA"/>
<path d="M26.7988 45.6228C26.7406 45.6139 26.6823 45.605 26.6196 45.605H17.8662C17.8035 45.605 17.7452 45.6139 17.687 45.6228C17.1539 45.7119 16.7507 46.1661 16.7507 46.7183V47.3506H17.687H26.7988H27.7351V46.7183C27.7351 46.1616 27.3319 45.7119 26.7988 45.6228Z" fill="#FAFAFA"/>
<path d="M16.7507 46.714C16.7507 46.1619 17.1539 45.7076 17.687 45.6186V34.0269C17.687 32.9938 18.5247 32.1611 19.5596 32.1611H24.9263C25.9611 32.1611 26.7989 32.9938 26.7989 34.0269V45.6186C27.332 45.7076 27.7351 46.1619 27.7351 46.714V47.3464H47.1415V30.0503C47.0922 30.0146 47.0429 29.9879 46.9982 29.9434L44.588 27.6099L30.2931 13.7383L15.9937 27.6099L13.588 29.9434C13.5432 29.9879 13.4895 30.0146 13.4447 30.0503C13.4447 30.0503 13.4402 30.0503 13.4402 30.0547V47.3464H16.7507V46.714ZM34.5713 34.0269C34.5713 32.7533 35.6106 31.7157 36.8963 31.7157H41.0132C42.2944 31.7157 43.3337 32.7533 43.3337 34.0269V38.1194C43.3337 39.393 42.2944 40.4306 41.0132 40.4306H36.8963C35.6106 40.4306 34.5713 39.393 34.5713 38.1194V34.0269Z" fill="#FFC857"/>
<path d="M23.9631 39.4955C23.9631 39.8295 24.2364 40.1011 24.5679 40.1011C24.9039 40.1011 25.1771 39.8295 25.1771 39.4955C25.1771 39.1659 24.9039 38.8943 24.5679 38.8943C24.2364 38.8943 23.9631 39.1659 23.9631 39.4955Z" fill="#FAFAFA"/>
<path d="M13.4402 30.0591C13.4402 30.0546 13.4447 30.0546 13.4447 30.0546C13.4895 30.019 13.5432 29.9923 13.588 29.9478L15.9937 27.6143L30.2931 13.7427L44.588 27.6143L46.9981 29.9478C47.0429 29.9923 47.0922 30.019 47.1415 30.0546C47.8314 30.5623 48.8483 30.2684 49.1215 29.4223C49.4754 28.3134 49.1753 27.0977 48.3331 26.2828L32.4523 10.8748C31.2517 9.70807 29.3344 9.70807 28.1293 10.8748L12.2486 26.2828C11.4109 27.0977 11.1062 28.3134 11.4646 29.4223C11.7379 30.2684 12.7503 30.5623 13.4402 30.0591Z" fill="#EE4266"/>
<path d="M49.583 48.6067C49.583 47.912 49.0186 47.3464 48.3197 47.3464H47.1416H27.7352H26.7989H17.6871H16.7508H13.4403H12.2665C11.5677 47.3464 10.9988 47.912 10.9988 48.6067V49.7912H49.583V48.6067Z" fill="#EE4266"/>
<path d="M36.8963 31.7158C35.6106 31.7158 34.5713 32.7534 34.5713 34.027V38.1195C34.5713 39.3931 35.6106 40.4307 36.8963 40.4307H41.0132C42.2944 40.4307 43.3338 39.3931 43.3338 38.1195V34.027C43.3338 32.7534 42.2944 31.7158 41.0132 31.7158H36.8963ZM38.5045 39.5401H36.8963C36.1079 39.5401 35.4672 38.9033 35.4672 38.1195V36.5163H38.5045V39.5401ZM38.5045 35.6302H35.4672V34.0315C35.4672 33.2477 36.1079 32.6109 36.8963 32.6109H38.5045V35.6302ZM42.4378 38.1195C42.4378 38.9033 41.7972 39.5401 41.0132 39.5401H39.4005V36.5163H42.4378V38.1195ZM42.4378 34.027V35.6257H39.4005V32.6065H41.0132C41.7972 32.6065 42.4378 33.2433 42.4378 34.027Z" fill="#FE8A3A"/>
<path d="M19.5596 32.1611C18.5247 32.1611 17.687 32.9939 17.687 34.027V45.6186C17.7452 45.6097 17.8035 45.6008 17.8662 45.6008H26.6197C26.6824 45.6008 26.7406 45.6097 26.7989 45.6186V34.027C26.7989 32.9939 25.9611 32.1611 24.9263 32.1611H19.5596ZM25.1772 39.4955C25.1772 39.8295 24.9039 40.1011 24.5679 40.1011C24.2364 40.1011 23.9632 39.8295 23.9632 39.4955C23.9632 39.166 24.2364 38.8943 24.5679 38.8943C24.9039 38.8943 25.1772 39.166 25.1772 39.4955Z" fill="#EE4266"/>
<path d="M54.922 63.91C57.1888 61.6523 58.8015 58.7399 59.4511 55.4846H0.318115C1.8278 63.0372 8.52953 68.7328 16.5662 68.7328H43.1985C47.7813 68.7284 51.9206 66.8892 54.922 63.91Z" fill="#FE8A3A"/>
<path d="M67.2861 78.668C67.2861 78.5478 67.2861 78.432 67.295 78.3162H36.8685C34.8391 78.3162 33.1637 76.8111 32.8949 74.8606C32.8815 74.7715 32.8725 74.678 32.868 74.5845H26.1394C26.2783 80.3469 31.0358 84.996 36.8685 84.996H67.2861V78.668Z" fill="#FE8A3A"/>
</g>
<defs>
<clipPath id="clip0">
<rect width="155" height="102" fill="white"/>
</clipPath>
</defs>
</svg>
