<svg width="22" height="21" viewBox="0 0 22 21" fill="none" xmlns="http://www.w3.org/2000/svg">
<path fill-rule="evenodd" clip-rule="evenodd" d="M13.0023 20.019C12.7344 20.019 12.4868 19.876 12.3528 19.644L10.0525 15.6597C9.91851 15.4276 9.91851 15.1417 10.0525 14.9097L12.3528 10.9254C12.4868 10.6933 12.7344 10.5504 13.0023 10.5504L17.603 10.5504C17.871 10.5504 18.1185 10.6933 18.2525 10.9254L20.5529 14.9097C20.6868 15.1417 20.6868 15.4276 20.5529 15.6597L18.2525 19.644C18.1185 19.876 17.871 20.019 17.603 20.019L13.0023 20.019ZM17.17 18.519L19.0373 15.2847L17.17 12.0504L13.4353 12.0504L11.568 15.2847L13.4353 18.519L17.17 18.519Z" fill="#B6A2D7"/>
<path fill-rule="evenodd" clip-rule="evenodd" d="M4.0023 15.019C3.73435 15.019 3.48676 14.876 3.35278 14.644L1.05245 10.6597C0.918475 10.4276 0.918475 10.1417 1.05245 9.90968L3.35278 5.92538C3.48676 5.69333 3.73435 5.55038 4.0023 5.55038L8.60297 5.55038C8.87092 5.55038 9.11852 5.69333 9.25249 5.92538L11.5528 9.90968C11.6868 10.1417 11.6868 10.4276 11.5528 10.6597L9.25249 14.644C9.11852 14.876 8.87092 15.019 8.60297 15.019L4.0023 15.019ZM8.16996 13.519L10.0373 10.2847L8.16996 7.05038L4.43532 7.05038L2.56799 10.2847L4.43532 13.519L8.16996 13.519Z" fill="#B6A2D7"/>
<path fill-rule="evenodd" clip-rule="evenodd" d="M13.0023 10.019C12.7344 10.019 12.4868 9.87603 12.3528 9.64398L10.0525 5.65968C9.91851 5.42763 9.91851 5.14173 10.0525 4.90968L12.3528 0.925382C12.4868 0.693332 12.7344 0.550383 13.0023 0.550382L17.603 0.550382C17.871 0.550382 18.1185 0.693331 18.2525 0.925382L20.5529 4.90968C20.6868 5.14173 20.6868 5.42763 20.5529 5.65968L18.2525 9.64398C18.1185 9.87603 17.871 10.019 17.603 10.019L13.0023 10.019ZM17.17 8.51898L19.0373 5.28468L17.17 2.05038L13.4353 2.05038L11.568 5.28468L13.4353 8.51898L17.17 8.51898Z" fill="#B6A2D7"/>
</svg>
