<svg width="155" height="560" viewBox="0 0 155 560" fill="none" xmlns="http://www.w3.org/2000/svg">
<path d="M-1 0.999971C-1 -3.41831 2.58172 -7 7 -7H154.5V614.491H7C2.58173 614.491 -1 610.91 -1 606.491V0.999971Z" fill="#F3F4F6"/>
<rect x="21.215" y="37.3923" width="111.071" height="22.1961" rx="11.0981" fill="#DDE0E4"/>
<rect x="43.4302" y="67.9109" width="66.6429" height="11.0981" rx="5.54904" fill="#DDE0E4"/>
<rect width="11.1071" height="11.0981" rx="5.54904" transform="matrix(-1 0 0 1 32.3209 67.9109)" fill="#DDE0E4"/>
<rect x="43.4302" y="123.404" width="66.6429" height="11.0981" rx="5.54903" fill="#DDE0E4"/>
<rect width="11.1071" height="11.0981" rx="5.54903" transform="matrix(-1 0 0 1 32.3209 123.404)" fill="#DDE0E4"/>
<rect x="43.4302" y="145.6" width="44.4286" height="11.0981" rx="5.54903" fill="#DDE0E4"/>
<rect width="11.1071" height="11.0981" rx="5.54903" transform="matrix(-1 0 0 1 32.3209 145.6)" fill="#DDE0E4"/>
<rect x="43.4302" y="167.794" width="66.6429" height="11.0981" rx="5.54905" fill="#DDE0E4"/>
<rect width="11.1071" height="11.0981" rx="5.54905" transform="matrix(-1 0 0 1 32.3209 167.794)" fill="#DDE0E4"/>
<rect x="43.4302" y="189.99" width="88.8571" height="11.0981" rx="5.54903" fill="#DDE0E4"/>
<rect width="11.1071" height="11.0981" rx="5.54903" transform="matrix(-1 0 0 1 32.3209 189.99)" fill="#DDE0E4"/>
<rect x="43.4302" y="212.186" width="44.4286" height="11.0981" rx="5.54903" fill="#DDE0E4"/>
<rect width="11.1071" height="11.0981" rx="5.54903" transform="matrix(-1 0 0 1 32.3209 212.186)" fill="#DDE0E4"/>
<rect x="43.4302" y="312.068" width="66.6429" height="11.098" rx="5.54901" fill="#DDE0E4"/>
<rect width="11.1071" height="11.098" rx="5.54901" transform="matrix(-1 0 0 1 32.3209 312.068)" fill="#DDE0E4"/>
<rect x="43.4302" y="334.265" width="88.8571" height="11.0981" rx="5.54903" fill="#DDE0E4"/>
<rect width="11.1071" height="11.0981" rx="5.54903" transform="matrix(-1 0 0 1 32.3209 334.265)" fill="#DDE0E4"/>
<rect x="43.4302" y="356.461" width="44.4286" height="11.0981" rx="5.54903" fill="#DDE0E4"/>
<rect width="11.1071" height="11.0981" rx="5.54903" transform="matrix(-1 0 0 1 32.3209 356.461)" fill="#DDE0E4"/>
<rect x="43.4302" y="434.147" width="66.6429" height="11.0981" rx="5.54905" fill="#DDE0E4"/>
<rect width="11.1071" height="11.0981" rx="5.54905" transform="matrix(-1 0 0 1 32.3209 434.147)" fill="#DDE0E4"/>
<rect x="43.4302" y="478.54" width="44.4286" height="11.0981" rx="5.54903" fill="#DDE0E4"/>
<rect width="11.1071" height="11.0981" rx="5.54903" transform="matrix(-1 0 0 1 32.3209 478.54)" fill="#DDE0E4"/>
<rect x="43.4302" y="234.383" width="66.6429" height="11.0981" rx="5.54903" fill="#DDE0E4"/>
<rect width="11.1071" height="11.0981" rx="5.54903" transform="matrix(-1 0 0 1 32.3209 234.383)" fill="#DDE0E4"/>
</svg>
