<svg width="16" height="17" viewBox="0 0 16 17" fill="none" xmlns="http://www.w3.org/2000/svg">
<path fill-rule="evenodd" clip-rule="evenodd" d="M6.66439 1.6322C7.16953 0.557138 8.69886 0.557599 9.20335 1.63297L10.7718 4.9763C10.8002 5.0368 10.8569 5.07916 10.9229 5.08925L14.4956 5.63509C15.6239 5.80747 16.0847 7.18359 15.2877 8.00067L12.6528 10.7021C12.6084 10.7476 12.5882 10.8115 12.5984 10.8742L13.2125 14.6454C13.4006 15.8008 12.1739 16.6646 11.1494 16.098L8.03108 14.3731C7.97076 14.3398 7.89752 14.3398 7.83719 14.3731L4.71466 16.0989C3.69025 16.6651 2.46396 15.8013 2.65206 14.6461L3.26619 10.8742C3.27641 10.8115 3.25625 10.7476 3.21187 10.7021L0.576922 8.00067C-0.220045 7.18359 0.24076 5.80747 1.36906 5.63509L4.942 5.08921C5.00801 5.07912 5.06467 5.0368 5.09307 4.97636L6.66439 1.6322Z" fill="url(#paint0_linear_1004_4306)"/>
<defs>
<linearGradient id="paint0_linear_1004_4306" x1="15.6877" y1="1.23898" x2="3.88141" y2="18.1481" gradientUnits="userSpaceOnUse">
<stop stop-color="#FCAD0D"/>
<stop offset="1" stop-color="#FE983A"/>
</linearGradient>
</defs>
</svg>
