<svg width="59" height="59" viewBox="0 0 59 59" fill="none" xmlns="http://www.w3.org/2000/svg">
<path fill-rule="evenodd" clip-rule="evenodd" d="M52.941 31.1782C52.9801 30.6239 53 30.0643 53 29.5C53 28.9357 52.9801 28.3761 52.941 27.8218L58.9261 27.3995C58.9751 28.0942 59 28.7947 59 29.5C59 30.2053 58.9751 30.9058 58.9261 31.6005L52.941 31.1782ZM50.6429 19.2297L56.0379 16.6041C55.4203 15.335 54.7148 14.1175 53.9296 12.9596L48.9637 16.3271C49.5894 17.2499 50.1513 18.2195 50.6429 19.2297ZM42.6729 10.0363L46.0404 5.07042C44.8825 4.28524 43.665 3.57972 42.3959 2.96208L39.7703 8.35712C40.7805 8.84872 41.7501 9.41057 42.6729 10.0363ZM31.1782 6.059L31.6005 0.0738792C30.9058 0.0248594 30.2053 0 29.5 0C28.7947 0 28.0942 0.0248594 27.3995 0.0738792L27.8218 6.059C28.3761 6.01989 28.9357 6 29.5 6C30.0643 6 30.6239 6.01989 31.1782 6.059ZM19.2297 8.35712L16.6041 2.96208C15.335 3.57972 14.1175 4.28524 12.9596 5.07042L16.3271 10.0363C17.2499 9.41057 18.2195 8.84871 19.2297 8.35712ZM10.0363 16.3271L5.07042 12.9596C4.28524 14.1175 3.57972 15.335 2.96208 16.6041L8.35712 19.2297C8.84871 18.2195 9.41057 17.2499 10.0363 16.3271ZM6.059 27.8218C6.01989 28.3761 6 28.9357 6 29.5C6 30.0643 6.01989 30.6239 6.059 31.1782L0.0738792 31.6005C0.0248594 30.9058 0 30.2053 0 29.5C0 28.7947 0.0248594 28.0942 0.0738792 27.3995L6.059 27.8218ZM8.35712 39.7703L2.96208 42.3959C3.57972 43.665 4.28524 44.8825 5.07042 46.0404L10.0363 42.6729C9.41057 41.7501 8.84872 40.7805 8.35712 39.7703ZM16.3271 48.9637L12.9596 53.9296C14.1175 54.7148 15.335 55.4203 16.6041 56.0379L19.2297 50.6429C18.2195 50.1513 17.2499 49.5894 16.3271 48.9637ZM27.8218 52.941L27.3995 58.9261C28.0942 58.9751 28.7947 59 29.5 59C30.2053 59 30.9058 58.9751 31.6005 58.9261L31.1782 52.941C30.6239 52.9801 30.0643 53 29.5 53C28.9357 53 28.3761 52.9801 27.8218 52.941ZM39.7703 50.6429L42.3959 56.0379C43.665 55.4203 44.8825 54.7148 46.0404 53.9296L42.6729 48.9637C41.7501 49.5894 40.7805 50.1513 39.7703 50.6429ZM48.9637 42.6729L53.9296 46.0404C54.7148 44.8825 55.4203 43.665 56.0379 42.3959L50.6429 39.7703C50.1513 40.7805 49.5894 41.7501 48.9637 42.6729Z" fill="#A0E9E9"/>
</svg>
