<svg width="91" height="91" viewBox="0 0 91 91" fill="none" xmlns="http://www.w3.org/2000/svg">
<path fill-rule="evenodd" clip-rule="evenodd" d="M80.9251 47.824C80.9748 47.0558 81 46.2808 81 45.5C81 44.7192 80.9748 43.9442 80.9251 43.176L90.9043 42.5311C90.9678 43.5139 91 44.5039 91 45.5C91 46.4961 90.9678 47.4861 90.9043 48.4689L80.9251 47.824ZM79.1248 34.0847L88.5943 30.8709C87.9512 28.976 87.1871 27.1378 86.3115 25.3657L77.3461 29.7953C78.0286 31.1767 78.6239 32.6089 79.1248 34.0847ZM72.1908 22.0931L79.7066 15.4966C78.3983 14.006 76.994 12.6017 75.5033 11.2934L68.907 18.8092C70.0715 19.8313 71.1687 20.9285 72.1908 22.0931ZM61.2047 13.6539L65.6343 4.68849C63.8622 3.8129 62.024 3.04879 60.1291 2.40569L56.9153 11.8752C58.3911 12.3761 59.8233 12.9714 61.2047 13.6539ZM47.824 10.0749L48.4689 0.0956717C47.4861 0.0321617 46.4961 0 45.5 0C44.5039 0 43.5139 0.0321617 42.5311 0.0956717L43.176 10.0749C43.9442 10.0252 44.7192 10 45.5 10C46.2808 10 47.0558 10.0252 47.824 10.0749ZM34.0847 11.8752L30.8709 2.40569C28.976 3.04879 27.1378 3.8129 25.3657 4.68848L29.7953 13.6539C31.1767 12.9714 32.6089 12.3761 34.0847 11.8752ZM22.0931 18.8092L15.4966 11.2934C14.006 12.6017 12.6017 14.006 11.2934 15.4967L18.8092 22.0931C19.8313 20.9285 20.9285 19.8313 22.0931 18.8092ZM13.6539 29.7953L4.68849 25.3657C3.8129 27.1378 3.04879 28.976 2.40569 30.8709L11.8752 34.0847C12.3761 32.6089 12.9714 31.1767 13.6539 29.7953ZM10.0749 43.176C10.0252 43.9442 10 44.7192 10 45.5C10 46.2808 10.0252 47.0558 10.0749 47.824L0.0956717 48.4689C0.0321617 47.4861 0 46.4961 0 45.5C0 44.5039 0.0321617 43.5139 0.0956717 42.5311L10.0749 43.176ZM11.8752 56.9153L2.40569 60.1291C3.04879 62.024 3.8129 63.8622 4.68848 65.6343L13.6539 61.2047C12.9714 59.8233 12.3761 58.3911 11.8752 56.9153ZM18.8092 68.907L11.2934 75.5033C12.6017 76.994 14.006 78.3983 15.4967 79.7066L22.0931 72.1908C20.9285 71.1687 19.8313 70.0715 18.8092 68.907ZM29.7953 77.3461L25.3657 86.3115C27.1378 87.1871 28.976 87.9512 30.8709 88.5943L34.0847 79.1248C32.6089 78.6239 31.1767 78.0286 29.7953 77.3461ZM43.176 80.9251L42.5311 90.9043C43.5139 90.9678 44.5039 91 45.5 91C46.4961 91 47.4861 90.9678 48.4689 90.9043L47.824 80.9251C47.0558 80.9748 46.2808 81 45.5 81C44.7192 81 43.9442 80.9748 43.176 80.9251ZM56.9153 79.1248L60.1291 88.5943C62.024 87.9512 63.8622 87.1871 65.6343 86.3115L61.2047 77.3461C59.8233 78.0287 58.3911 78.6239 56.9153 79.1248ZM68.907 72.1908L75.5033 79.7066C76.994 78.3983 78.3983 76.994 79.7066 75.5033L72.1908 68.907C71.1687 70.0715 70.0715 71.1687 68.907 72.1908ZM77.3461 61.2047L86.3115 65.6343C87.1871 63.8622 87.9512 62.024 88.5943 60.1291L79.1248 56.9153C78.6239 58.3911 78.0286 59.8233 77.3461 61.2047Z" fill="#FADA99"/>
</svg>
