<svg width="87" height="32" viewBox="0 0 87 32" fill="none" xmlns="http://www.w3.org/2000/svg">
<g clip-path="url(#clip0_1311_6014)">
<path d="M30.0999 10.9052C28.9131 9.57399 27.4451 8.90381 25.7006 8.90381C24.6253 8.90381 23.6348 9.11352 22.7245 9.53752C21.8143 9.96151 21.0291 10.536 20.3642 11.27C19.7039 12.0085 19.1819 12.8656 18.7982 13.8595C18.4144 14.8488 18.2226 15.9202 18.2226 17.0782C18.2226 18.2134 18.4011 19.2483 18.7535 20.1829C19.1105 21.113 19.6057 21.9108 20.2482 22.5764C20.8907 23.242 21.6537 23.7618 22.5371 24.1356C23.4206 24.5095 24.3888 24.6964 25.4418 24.6964C25.9192 24.6964 26.3609 24.6599 26.7625 24.5915C27.164 24.5231 27.5478 24.4092 27.9136 24.2542C28.2795 24.0946 28.6364 23.894 28.9934 23.6524C29.3459 23.4062 29.7162 23.0962 30.0999 22.7269V26.6796H30.0954V27.0625H25.2232L21.56 31.2751V32H35.3068V30.2903V9.31868H30.0999V10.9052ZM30.0865 18.1496C29.9036 18.569 29.6626 18.9383 29.3682 19.2529C29.0692 19.5674 28.7167 19.8091 28.3063 19.9869C27.8958 20.1647 27.4585 20.2513 26.999 20.2513C26.5171 20.2513 26.0709 20.1647 25.6604 19.9869C25.2499 19.8091 24.893 19.5674 24.594 19.2529C24.2951 18.9383 24.0631 18.569 23.8891 18.1496C23.7151 17.7301 23.6303 17.2697 23.6303 16.7819C23.6303 16.3123 23.7195 15.87 23.9025 15.4597C24.0854 15.0494 24.3263 14.6938 24.6387 14.3884C24.9465 14.0829 25.299 13.8413 25.7006 13.6543C26.1021 13.4674 26.5349 13.3762 26.9945 13.3762C27.4362 13.3762 27.8601 13.4629 28.275 13.6407C28.6855 13.8139 29.0469 14.0601 29.3548 14.3747C29.6626 14.6893 29.9036 15.0494 30.091 15.4597C30.2739 15.87 30.3632 16.3214 30.3632 16.8138C30.3587 17.2834 30.2695 17.7301 30.0865 18.1496Z" fill="#68718D"/>
<path d="M15.5724 11.1515C15.2958 10.8187 14.9835 10.5315 14.6488 10.2762C14.3499 10.0528 14.0331 9.85674 13.6896 9.69718C13.5245 9.61967 13.3505 9.55584 13.1675 9.49658C12.9043 9.40995 12.6187 9.35069 12.3242 9.30054H8.61203L6.15804 12.1591V11.8263V9.3598H0.951111V24.4412H6.15804V17.9719V14.2653H6.88085H8.33094H10.9857H11.0482L11.4542 14.2562V24.4366H16.6611V15.0039C16.6611 14.2015 16.5853 13.4857 16.4336 12.8566C16.2819 12.232 15.9963 11.6667 15.5724 11.1515Z" fill="#68718D"/>
<path d="M50.6196 9.3186H46.7601C46.7601 9.3186 45.3814 9.3186 44.9397 9.3186L42.682 11.9173V9.3186H37.4706V24.4H42.691L42.6954 14.3062H44.4088H46.4835L50.6196 9.52832V9.3186Z" fill="#68718D"/>
<path d="M78.7562 16.2849L85.8773 9.57402V9.31871H79.015L73.5538 14.7577V0H68.3469V24.3955H73.5538V18.2545L79.2783 24.3955H86.2844V24.1083L78.7562 16.2849Z" fill="#68718D"/>
<path d="M64.2773 11.0374C63.4831 10.3216 62.5417 9.76544 61.4575 9.36425C60.3732 8.96305 59.1998 8.76245 57.9326 8.76245C56.6476 8.76245 55.4608 8.96761 54.381 9.37792C53.2968 9.78824 52.3643 10.3536 51.5745 11.0648C50.7893 11.7805 50.1735 12.624 49.7318 13.5951C49.2901 14.5661 49.0715 15.6102 49.0715 16.7271C49.0715 17.9626 49.2901 19.0842 49.7318 20.0917C50.1735 21.0993 50.7803 21.9655 51.5612 22.6904C52.3375 23.4153 53.2611 23.976 54.3364 24.3681C55.4117 24.7602 56.5807 24.9562 57.8479 24.9562C59.1329 24.9562 60.3242 24.7602 61.4307 24.3681C62.5328 23.976 63.4787 23.4244 64.2639 22.704C65.0492 21.9883 65.6694 21.1357 66.1201 20.1464C66.5707 19.1571 66.7983 18.0675 66.7983 16.8685C66.7983 15.674 66.5752 14.5798 66.1379 13.5905C65.6917 12.6057 65.0715 11.7532 64.2773 11.0374ZM61.0247 18.1769C60.8417 18.5963 60.6008 18.9656 60.3063 19.2802C60.0074 19.5948 59.6549 19.8364 59.2444 20.0142C58.8295 20.192 58.3967 20.2786 57.9371 20.2786C57.4775 20.2786 57.0403 20.192 56.6253 20.0142C56.2148 19.8364 55.8579 19.5948 55.5634 19.2802C55.2645 18.9656 55.028 18.5963 54.8451 18.1769C54.6621 17.7575 54.5729 17.2924 54.5729 16.7818C54.5729 16.3122 54.6621 15.87 54.8451 15.4597C55.028 15.0494 55.2645 14.6892 55.5634 14.3747C55.8623 14.0601 56.2148 13.8139 56.6253 13.6406C57.0403 13.4628 57.4731 13.3762 57.9371 13.3762C58.3967 13.3762 58.8339 13.4628 59.2444 13.6406C59.6549 13.8139 60.0118 14.0601 60.3063 14.3747C60.6053 14.6892 60.8417 15.0585 61.0247 15.4779C61.2076 15.8974 61.2968 16.3442 61.2968 16.8137C61.2968 17.3016 61.2076 17.7575 61.0247 18.1769Z" fill="#68718D"/>
</g>
<defs>
<clipPath id="clip0_1311_6014">
<rect width="86" height="32" fill="white" transform="translate(0.951111)"/>
</clipPath>
</defs>
</svg>
