<svg width="181" height="42" viewBox="0 0 181 42" fill="none" xmlns="http://www.w3.org/2000/svg">
<path d="M71.3042 4.97319H64.6769V22.1929H58.8905V4.97319H52.2632V0H71.2989V4.97319H71.3042Z" fill="#243746"/>
<path d="M72.8418 0H78.1289V8.26589H78.192C79.0013 6.61692 81.1772 5.59287 83.106 5.59287C88.4877 5.59287 88.9239 9.5105 88.9239 11.8422V22.1929H83.6368V14.3892C83.6368 12.1835 83.8838 9.94638 80.9932 9.94638C79.0013 9.94638 78.1289 11.6269 78.1289 13.3966V22.1929H72.8418V0Z" fill="#243746"/>
<path d="M98.7396 5.59277C103.748 5.59277 107.264 9.28984 107.264 14.1423C107.264 18.9947 103.748 22.6602 98.7396 22.6602C93.731 22.6602 90.2466 18.9947 90.2466 14.1423C90.2466 9.28984 93.731 5.59277 98.7396 5.59277ZM98.7396 18.6165C101.199 18.6165 101.977 16.1903 101.977 14.1423C101.977 12.0889 101.199 9.63644 98.7396 9.63644C96.28 9.63644 95.5337 12.0942 95.5337 14.1423C95.5337 16.1903 96.28 18.6165 98.7396 18.6165Z" fill="#243746"/>
<path d="M124.845 22.1932H119.711V19.9876H119.647C118.654 21.6366 116.599 22.6606 114.734 22.6606C110.098 22.6606 108.763 19.9876 108.763 15.7601V6.06055H114.05V15.4188C114.05 17.5614 114.986 18.3071 116.662 18.3071C117.813 18.3071 119.553 17.5614 119.553 14.6993V6.06055H124.84V22.1932H124.845Z" fill="#243746"/>
<path d="M143.224 20.234C143.224 22.8755 142.725 27.8487 135.167 27.8487C131.404 27.8487 127.857 27.0085 127.237 22.6865H132.524C132.65 23.4007 132.928 23.8366 133.428 24.0834C133.895 24.3302 134.547 24.4247 135.357 24.4247C137.874 24.4247 138.126 22.655 138.126 20.6646V19.1417H138.063C137.101 20.6331 135.483 21.5049 133.769 21.5049C128.887 21.5049 126.674 18.0231 126.674 13.4858C126.674 9.19532 129.192 5.59277 133.769 5.59277C135.698 5.59277 137.159 6.43302 138.095 8.08199H138.158V6.06016H143.229V20.234H143.224ZM135.041 9.63119C132.708 9.63119 131.961 11.6845 131.961 13.6696C131.961 15.5654 132.834 17.4612 135.01 17.4612C137.249 17.4612 138.216 15.723 138.216 13.7011C138.216 11.653 137.406 9.63119 135.041 9.63119Z" fill="#243746"/>
<path d="M145.501 0H150.788V8.26589H150.851C151.661 6.61692 153.836 5.59287 155.765 5.59287C161.147 5.59287 161.583 9.5105 161.583 11.8422V22.1929H156.296V14.3892C156.296 12.1835 156.543 9.94638 153.652 9.94638C151.661 9.94638 150.788 11.6269 150.788 13.3966V22.1929H145.501V0Z" fill="#243746"/>
<path d="M173.449 9.47904H170.185V16.8154C170.185 18.0915 170.931 18.3699 172.082 18.3699C172.518 18.3699 172.986 18.3069 173.449 18.3069V22.193C172.487 22.2245 171.52 22.3505 170.558 22.3505C166.049 22.3505 164.898 21.0429 164.898 16.6631V9.47904H162.223V6.0603H164.898V1.18164H170.185V6.0603H173.449V9.47904Z" fill="#243746"/>
<path d="M8.50354 16.6683H0V0H33.888V8.49696H8.50354V16.6683Z" fill="#9FCFCA"/>
<path d="M17.0123 16.6787H8.50879V41.4291H17.0123V16.6787Z" fill="#E7D21F"/>
<path d="M33.882 16.6787H25.3784V33.2473H33.882V16.6787Z" fill="#E7D21F"/>
<path d="M42.3907 8.49609H33.8872V16.6622H42.3907V8.49609Z" fill="#A5BAC3"/>
<path d="M60.4187 26.1475V33.2265H58.9419V26.1475H60.4187Z" fill="#243746"/>
<path d="M63.4629 26.1475L66.2641 30.8948H66.2851V26.1475H67.6674V33.2265H66.1905L63.3998 28.4844H63.3788V33.2265H61.9966V26.1475H63.4629Z" fill="#243746"/>
<path d="M72.1483 26.1475C72.5792 26.1475 72.9839 26.221 73.3571 26.368C73.7302 26.5151 74.0508 26.7304 74.3241 27.0245C74.5974 27.3133 74.8076 27.6809 74.9653 28.1168C75.1177 28.5527 75.1965 29.0673 75.1965 29.6555C75.1965 30.1701 75.1334 30.648 75.0073 31.0839C74.8812 31.5198 74.692 31.8979 74.4397 32.213C74.1874 32.5281 73.8668 32.7801 73.4884 32.9587C73.11 33.1425 72.6633 33.2318 72.1483 33.2318H69.2524V26.1475H72.1483ZM72.0432 31.9189C72.2586 31.9189 72.4636 31.8821 72.6633 31.8086C72.863 31.7351 73.0417 31.6143 73.1994 31.4462C73.3571 31.2782 73.4832 31.0576 73.5778 30.7846C73.6724 30.5115 73.7197 30.1806 73.7197 29.792C73.7197 29.4349 73.6882 29.1146 73.6198 28.8257C73.5568 28.5369 73.4464 28.2901 73.294 28.0853C73.1416 27.8805 72.9419 27.7229 72.6949 27.6126C72.4478 27.5024 72.143 27.4498 71.7804 27.4498H70.7293V31.9136H72.0432V31.9189Z" fill="#243746"/>
<path d="M81.0671 32.6909C80.5573 33.1582 79.8583 33.3893 78.9596 33.3893C78.0504 33.3893 77.3462 33.1582 76.8469 32.6961C76.3476 32.234 76.1006 31.5198 76.1006 30.5535V26.1527H77.5774V30.5535C77.5774 30.7478 77.5932 30.9316 77.6247 31.1207C77.6562 31.3097 77.7246 31.4673 77.8244 31.609C77.9243 31.7508 78.0662 31.8664 78.2449 31.9556C78.4236 32.0449 78.6653 32.0869 78.9649 32.0869C79.4904 32.0869 79.8531 31.9609 80.058 31.7141C80.2578 31.4673 80.3576 31.0786 80.3576 30.5482V26.1475H81.8344V30.5482C81.8292 31.5093 81.5716 32.2235 81.0671 32.6909Z" fill="#243746"/>
<path d="M84.3247 31.4832C84.4036 31.6513 84.5139 31.7826 84.6506 31.8823C84.7872 31.9874 84.9449 32.0609 85.1236 32.1081C85.3023 32.1554 85.4915 32.1817 85.6859 32.1817C85.8173 32.1817 85.9592 32.1712 86.1116 32.1449C86.264 32.1239 86.4007 32.0766 86.5373 32.0136C86.6687 31.9506 86.7791 31.8561 86.8684 31.7405C86.9578 31.625 86.9998 31.478 86.9998 31.2994C86.9998 31.1104 86.942 30.9528 86.8264 30.832C86.7108 30.7112 86.5583 30.6115 86.3691 30.5327C86.1799 30.4539 85.9697 30.3856 85.728 30.3226C85.4915 30.2649 85.2497 30.1966 85.0027 30.1231C84.7504 30.0548 84.5087 29.976 84.2669 29.8815C84.0304 29.787 83.8149 29.6609 83.6257 29.5086C83.4365 29.3563 83.2841 29.1673 83.1685 28.9362C83.0529 28.7104 82.9951 28.4321 82.9951 28.1065C82.9951 27.7441 83.0686 27.429 83.2158 27.1612C83.363 26.8934 83.5574 26.6728 83.7939 26.4943C84.0304 26.3157 84.3037 26.1844 84.6033 26.0952C84.9028 26.0111 85.2077 25.9639 85.5072 25.9639C85.8594 25.9639 86.1957 26.0059 86.5163 26.0899C86.8369 26.1739 87.126 26.3052 87.3782 26.489C87.6305 26.6728 87.8302 26.9091 87.9774 27.198C88.1245 27.4868 88.1981 27.8334 88.1981 28.243H86.7686C86.7581 28.033 86.716 27.8544 86.6424 27.7179C86.5689 27.5813 86.4743 27.4711 86.3534 27.3923C86.2325 27.3135 86.0959 27.2557 85.9434 27.2242C85.791 27.1927 85.6229 27.177 85.4389 27.177C85.318 27.177 85.2024 27.1927 85.0815 27.219C84.9607 27.2452 84.8555 27.2925 84.7557 27.3555C84.6558 27.4185 84.577 27.5026 84.5139 27.6023C84.4509 27.7021 84.4193 27.8282 84.4193 27.9804C84.4193 28.117 84.4456 28.2325 84.4929 28.3165C84.5455 28.4006 84.6401 28.4793 84.7872 28.5529C84.9344 28.6264 85.1393 28.6999 85.3969 28.7734C85.6544 28.847 85.996 28.9415 86.4164 29.0518C86.5426 29.078 86.716 29.1253 86.9368 29.1936C87.1575 29.2618 87.3782 29.3721 87.599 29.5244C87.8197 29.6767 88.0089 29.8815 88.1666 30.1336C88.3242 30.3856 88.4083 30.7112 88.4083 31.1104C88.4083 31.4359 88.3505 31.7353 88.2296 32.0136C88.1088 32.2919 87.9353 32.5283 87.6988 32.7331C87.4623 32.9326 87.1733 33.0902 86.8264 33.2057C86.4795 33.3212 86.0748 33.3738 85.6176 33.3738C85.2497 33.3738 84.8871 33.3265 84.5402 33.232C84.1933 33.1374 83.8833 32.9851 83.6205 32.7803C83.3524 32.5755 83.1422 32.313 82.9845 31.9979C82.8269 31.6828 82.7533 31.3047 82.7586 30.8688H84.1881C84.1986 31.1156 84.2406 31.3204 84.3247 31.4832Z" fill="#243746"/>
<path d="M88.8179 27.46V26.1523H94.3205V27.46H92.3076V33.2314H90.8308V27.46H88.8179Z" fill="#243746"/>
<path d="M98.9876 26.1475C99.2871 26.1475 99.5604 26.2 99.8022 26.2998C100.044 26.4048 100.249 26.5413 100.422 26.7199C100.596 26.8984 100.727 27.1032 100.817 27.3396C100.906 27.5759 100.953 27.8279 100.953 28.0958C100.953 28.5106 100.869 28.873 100.706 29.1776C100.538 29.4822 100.27 29.7132 99.8915 29.8708V29.8918C100.075 29.9443 100.223 30.0231 100.344 30.1334C100.464 30.2436 100.559 30.3697 100.633 30.522C100.706 30.669 100.764 30.8318 100.795 31.0104C100.827 31.1889 100.853 31.3675 100.864 31.546C100.869 31.6563 100.874 31.7928 100.885 31.9399C100.89 32.0922 100.901 32.2445 100.916 32.4073C100.932 32.5648 100.958 32.7171 100.99 32.8589C101.027 33.0007 101.074 33.1215 101.142 33.2213H99.6655C99.5867 32.9954 99.5342 32.7276 99.5131 32.4178C99.4921 32.1079 99.4658 31.8086 99.429 31.525C99.3765 31.1522 99.2714 30.8843 99.1084 30.711C98.9455 30.5377 98.6775 30.4537 98.3096 30.4537H96.8328V33.2213H95.356V26.1475H98.9876ZM98.462 29.3509C98.7984 29.3509 99.0559 29.2721 99.2241 29.1146C99.3922 28.957 99.4763 28.6997 99.4763 28.3426C99.4763 28.0012 99.3922 27.7492 99.2241 27.5969C99.0559 27.4446 98.7984 27.3658 98.462 27.3658H96.8433V29.3614H98.462V29.3509Z" fill="#243746"/>
<path d="M103.913 26.1475V33.2265H102.436V26.1475H103.913Z" fill="#243746"/>
<path d="M110.515 26.1475V27.4551H106.968V28.9728H110.221V30.1806H106.968V31.9136H110.589V33.2213H105.491V26.1475H110.515Z" fill="#243746"/>
<path d="M112.742 31.4832C112.826 31.6513 112.931 31.7826 113.067 31.8823C113.204 31.9874 113.362 32.0609 113.54 32.1081C113.724 32.1554 113.908 32.1817 114.103 32.1817C114.234 32.1817 114.376 32.1712 114.529 32.1449C114.681 32.1239 114.818 32.0766 114.949 32.0136C115.08 31.9506 115.191 31.8561 115.28 31.7405C115.369 31.625 115.411 31.478 115.411 31.2994C115.411 31.1104 115.354 30.9528 115.238 30.832C115.122 30.7112 114.97 30.6115 114.781 30.5327C114.592 30.4539 114.381 30.3856 114.14 30.3226C113.898 30.2596 113.661 30.1966 113.414 30.1231C113.162 30.0548 112.92 29.976 112.679 29.8815C112.442 29.787 112.227 29.6609 112.037 29.5086C111.848 29.3563 111.696 29.1673 111.58 28.9362C111.464 28.7104 111.407 28.4321 111.407 28.1065C111.407 27.7441 111.48 27.429 111.627 27.1612C111.775 26.8934 111.969 26.6728 112.206 26.4943C112.442 26.3157 112.715 26.1844 113.015 26.0952C113.314 26.0111 113.619 25.9639 113.919 25.9639C114.271 25.9639 114.607 26.0059 114.928 26.0899C115.249 26.1739 115.538 26.3052 115.79 26.489C116.042 26.6728 116.242 26.9091 116.389 27.198C116.536 27.4868 116.61 27.8334 116.61 28.243H115.18C115.17 28.033 115.128 27.8544 115.054 27.7179C114.98 27.5813 114.886 27.4711 114.765 27.3923C114.644 27.3135 114.507 27.2557 114.355 27.2242C114.203 27.1927 114.034 27.177 113.851 27.177C113.73 27.177 113.614 27.1927 113.493 27.219C113.372 27.2452 113.267 27.2925 113.167 27.3555C113.067 27.4185 112.989 27.5026 112.926 27.6023C112.862 27.7021 112.831 27.8282 112.831 27.9804C112.831 28.117 112.857 28.2325 112.905 28.3165C112.957 28.4006 113.052 28.4793 113.199 28.5529C113.346 28.6264 113.551 28.6999 113.808 28.7734C114.071 28.847 114.408 28.9415 114.828 29.0518C114.954 29.078 115.128 29.1253 115.348 29.1936C115.569 29.2618 115.79 29.3721 116.011 29.5244C116.231 29.6767 116.421 29.8815 116.578 30.1336C116.736 30.3856 116.82 30.7112 116.82 31.1104C116.82 31.4359 116.762 31.7353 116.641 32.0136C116.52 32.2919 116.347 32.5283 116.11 32.7331C115.874 32.9326 115.585 33.0902 115.238 33.2057C114.891 33.3212 114.486 33.3738 114.029 33.3738C113.661 33.3738 113.299 33.3265 112.952 33.232C112.605 33.1374 112.295 32.9851 112.032 32.7803C111.764 32.5755 111.554 32.313 111.396 31.9979C111.239 31.6828 111.165 31.3047 111.17 30.8688H112.6C112.621 31.1156 112.663 31.3204 112.742 31.4832Z" fill="#243746"/>
<path d="M173.834 1.70679V1.18164H176.315V1.70679H175.39V4.20127H174.759V1.70679H173.834Z" fill="#243746"/>
<path d="M176.727 1.18164H177.515L178.346 3.20873H178.383L179.213 1.18164H180.001V4.20127H179.381V2.2372H179.355L178.577 4.18551H178.157L177.373 2.22669H177.347V4.20127H176.727V1.18164Z" fill="#243746"/>
</svg>
