<svg width="168" height="40" viewBox="0 0 168 40" fill="none" xmlns="http://www.w3.org/2000/svg">
<g clip-path="url(#clip0_1271_5546)">
<path d="M68.7999 4.8H62.3999V21.4H56.7999V4.8H50.3999V0H68.7999V4.8Z" fill="#B6A2D7"/>
<path d="M70.2998 0H75.3998V8H75.4998C76.2998 6.4 78.3998 5.4 80.1998 5.4C85.3998 5.4 85.7998 9.2 85.7998 11.4V21.4H80.6998V13.9C80.6998 11.8 80.8998 9.6 78.1998 9.6C76.2998 9.6 75.3998 11.2 75.3998 12.9V21.4H70.2998V0Z" fill="#B6A2D7"/>
<path d="M95.2 5.40002C96.3 5.40002 97.4 5.60002 98.4 6.00002C99.4 6.40002 100.3 7.00002 101.1 7.80002C101.9 8.60002 102.5 9.50002 102.9 10.5C103.3 11.5 103.5 12.6 103.5 13.7C103.5 14.8 103.3 15.9 102.9 16.9C102.5 17.9 101.9 18.8 101.1 19.6C100.3 20.4 99.4 21 98.4 21.4C97.4 21.8 96.3 22 95.2 22C94.1 22 93 21.8 92 21.4C91 21 90.1 20.4 89.3 19.6C88.5 18.8 87.9 17.9 87.5 16.9C87.1 15.9 87 14.7 87 13.7C87 12.6 87.1 11.5 87.5 10.5C87.9 9.50002 88.5 8.60002 89.3 7.80002C90.1 7.00002 91 6.40002 92 6.00002C93.1 5.60002 94.1 5.40002 95.2 5.40002ZM95.2 18C97.6 18 98.3 15.7 98.3 13.7C98.3 11.7 97.5 9.30002 95.2 9.30002C92.8 9.30002 92.1 11.7 92.1 13.7C92.1 15.7 92.9 18 95.2 18Z" fill="#B6A2D7"/>
<path d="M120.4 21.4H115.5V19.3H115.4C114.9 20.1 114.2 20.7 113.4 21.2C112.6 21.6 111.6 21.9 110.7 21.9C106.2 21.9 104.9 19.3 104.9 15.2V5.90002H110V14.9C110 17 110.9 17.7 112.5 17.7C113.6 17.7 115.3 17 115.3 14.2V5.90002H120.4V21.4Z" fill="#B6A2D7"/>
<path d="M138.1 19.5C138.1 22.1 137.6 26.9 130.3 26.9C126.7 26.9 123.3 26.1 122.7 21.9H127.8C127.8 22.2 127.9 22.5 128.1 22.7C128.3 22.9 128.5 23.1 128.7 23.3C129.3 23.6 129.9 23.7 130.6 23.6C133 23.6 133.3 21.9 133.3 20V18.5H133.2C132.8 19.2 132.1 19.8 131.4 20.2C130.7 20.6 129.9 20.8 129 20.8C124.3 20.8 122.2 17.4 122.2 13.1C122.2 9 124.6 5.5 129 5.5C129.9 5.5 130.7 5.7 131.4 6.1C132.1 6.5 132.7 7.2 133.1 7.9H133.2V5.9H138.1V19.5ZM130.2 9.3C128 9.3 127.2 11.3 127.2 13.2C127.2 15 128 16.9 130.1 16.9C132.3 16.9 133.2 15.2 133.2 13.3C133.3 11.3 132.5 9.3 130.2 9.3Z" fill="#B6A2D7"/>
<path d="M140.3 0H145.4V8H145.5C146.3 6.4 148.4 5.4 150.2 5.4C155.4 5.4 155.8 9.2 155.8 11.4V21.4H150.7V13.9C150.7 11.8 150.9 9.6 148.2 9.6C146.3 9.6 145.4 11.2 145.4 12.9V21.4H140.3V0Z" fill="#B6A2D7"/>
<path d="M167.3 9.19998H164.1V16.3C164.1 17.5 164.8 17.8 165.9 17.8C166.3 17.8 166.8 17.7 167.2 17.7V21.5C166.3 21.5 165.3 21.7 164.4 21.7C160 21.7 158.9 20.4 158.9 16.2V9.19998H156.3V5.89998H158.9V1.09998H164V5.79998H167.2V9.19998H167.3Z" fill="#B6A2D7"/>
<path d="M8.2 16.1H0V0H32.7V8.2H8.2V16.1Z" fill="#B6A2D7"/>
<path d="M8.2002 16.1H16.4002V40H8.2002V16.1Z" fill="#B6A2D7"/>
<path d="M24.5 16.1H32.7V32.1H24.5V16.1Z" fill="#B6A2D7"/>
<path d="M32.7002 8.19995H40.9002V16.1H32.7002V8.19995Z" fill="#B6A2D7"/>
<path d="M58.2999 25.3V32.1H56.8999V25.3H58.2999Z" fill="#B6A2D7"/>
<path d="M61.1998 25.3L63.8998 29.9V25.3H65.1998V32.1H63.7998L61.0998 27.5V32.1H59.7998V25.3H61.1998Z" fill="#B6A2D7"/>
<path d="M69.5998 25.3C69.9998 25.3 70.3998 25.4 70.7998 25.5C71.1998 25.6 71.4998 25.9 71.6998 26.1C71.9998 26.4 72.1998 26.8001 72.2998 27.2001C72.4998 27.7001 72.4998 28.2001 72.4998 28.7001C72.4998 29.2001 72.3998 29.6 72.2998 30.1C72.1998 30.5 71.9998 30.9001 71.7998 31.2001C71.5998 31.5001 71.1998 31.8 70.8998 31.9C70.4998 32.1 70.0998 32.2001 69.5998 32.2001H66.7998V25.4L69.5998 25.3ZM69.4998 30.8C69.6998 30.8 69.8998 30.8001 70.0998 30.7001C70.2998 30.6001 70.4998 30.5 70.5998 30.4C70.7998 30.2 70.8998 30 70.9998 29.8C71.0998 29.5 71.0998 29.2 71.0998 28.8C71.0998 28.5 71.0998 28.2 70.9998 27.9C70.8998 27.6 70.7998 27.4001 70.6998 27.2001C70.5998 27.0001 70.3998 26.8001 70.0998 26.7001C69.7998 26.6001 69.4998 26.5 69.1998 26.5H68.1998V30.8H69.4998Z" fill="#B6A2D7"/>
<path d="M78.1999 31.6C77.5999 32 76.8999 32.2999 76.1999 32.2999C75.4999 32.2999 74.7999 32.1 74.1999 31.6C73.8999 31.3 73.6999 31 73.5999 30.6C73.4999 30.2 73.3999 29.9 73.4999 29.5V25.2H74.8999V29.5C74.8999 29.7 74.8999 29.9 74.8999 30C74.8999 30.2 74.9999 30.3 75.0999 30.5C75.1999 30.6 75.2999 30.7999 75.4999 30.7999C75.6999 30.8999 75.9999 30.9 76.1999 30.9C76.3999 30.9 76.5999 30.8999 76.7999 30.7999C76.9999 30.6999 77.0999 30.6 77.2999 30.5C77.4999 30.2 77.5999 29.8 77.5999 29.4V25.2H78.9999V29.5C78.9999 29.9 78.9999 30.3 78.8999 30.6C78.5999 31 78.3999 31.3 78.1999 31.6Z" fill="#B6A2D7"/>
<path d="M81.3 30.4C81.4 30.6 81.5 30.6999 81.6 30.7999C81.7 30.8999 81.9 31 82.1 31C82.3 31 82.5 31.1 82.6 31.1C82.7 31.1 82.9 31.1 83 31.1C83.1 31.1 83.3 31 83.4 31C83.5 30.9 83.6 30.8 83.7 30.7C83.8 30.6 83.8 30.3999 83.8 30.2999C83.8 30.1999 83.8 30.1 83.8 30.1C83.8 30 83.7 30 83.7 29.9C83.6 29.8 83.4 29.7 83.3 29.6C83.1 29.5 82.9 29.5 82.7 29.4C82.5 29.3 82.2 29.3 82 29.2C81.8 29.1 81.5 29.1 81.3 29C81.1 28.9 80.9 28.8 80.7 28.6C80.5 28.4 80.4 28.3 80.3 28C80.2 27.8 80.1 27.5 80.1 27.2C80.1 26.9 80.2 26.5999 80.3 26.2999C80.4 25.9999 80.6 25.8 80.9 25.7C81.1 25.5 81.4 25.3999 81.7 25.2999C82 25.1999 82.3 25.2 82.6 25.2C82.9 25.2 83.3 25.1999 83.6 25.2999C83.9 25.3999 84.2 25.5 84.4 25.7C84.6 25.9 84.8 26.1 85 26.4C85.1 26.7 85.2 27.1 85.2 27.4H83.8C83.8 27.2 83.8 27.1 83.7 26.9C83.6 26.8 83.5 26.7 83.4 26.6C83.3 26.5 83.1 26.5 83 26.4C82.8 26.4 82.7 26.4 82.5 26.4C82.4 26.4 82.3 26.4 82.2 26.4C82.1 26.4 82 26.5 81.9 26.5C81.8 26.6 81.7 26.6 81.7 26.7C81.6 26.8 81.6 26.9 81.6 27.1C81.6 27.2 81.6 27.3 81.7 27.4C81.8 27.5 81.9 27.6 82 27.6C82.2 27.7 82.4 27.7999 82.6 27.7999C82.9 27.8999 83.2 28 83.6 28.1C83.7 28.1 83.9 28.2 84.1 28.2C84.3 28.3 84.5 28.4 84.7 28.5C84.9 28.7 85.1 28.9 85.2 29.1C85.4 29.4 85.4 29.7 85.4 30C85.4 30.3 85.3 30.6 85.2 30.9C85.1 31.2 84.9 31.4 84.7 31.6C84.5 31.8 84.2 31.9999 83.9 32.0999C83.5 32.1999 83.1 32.2999 82.7 32.2999C82.3 32.2999 82 32.3 81.7 32.2C81.4 32.1 81.1 31.9999 80.8 31.7999C80.5 31.5999 80.3 31.3 80.2 31C80 30.7 80 30.3 80 29.9H81.4C81.2 30 81.2 30.2 81.3 30.4Z" fill="#B6A2D7"/>
<path d="M85.7002 26.5V25.2H91.0002V26.5H89.0002V32.0999H87.6002V26.5H85.7002Z" fill="#B6A2D7"/>
<path d="M95.5 25.3C95.8 25.3 96 25.3 96.3 25.4C96.5 25.5 96.7 25.6 96.9 25.8C97.1 26 97.2 26.2 97.3 26.4C97.4 26.6 97.4 26.9 97.4 27.1C97.4 27.5 97.3 27.8 97.2 28.1C97 28.4 96.7 28.6 96.4 28.8C96.6 28.8 96.7 28.9 96.8 29C96.9 29.1 97 29.2 97.1 29.4C97.2 29.5 97.2 29.7 97.3 29.9C97.3 30.1 97.4 30.2 97.4 30.4C97.4 30.5 97.4 30.6 97.4 30.8C97.4 30.9 97.4 31.1001 97.4 31.2001C97.4 31.3001 97.4 31.5 97.5 31.6C97.5 31.7 97.6 31.8 97.6 31.9H96.2C96 31.8 96 31.6 96 31.3C96 31 96 30.7 95.9 30.4C95.9 30.1 95.8 29.8 95.6 29.6C95.5 29.5 95.4 29.4 95.2 29.4C95.1 29.4 94.9 29.3 94.8 29.4H93.4V32.1H92V25.3H95.5ZM95 28.3C95.3 28.3 95.5 28.2 95.7 28.1C95.8 28 95.9 27.9 95.9 27.8C95.9 27.7 96 27.5 95.9 27.4C95.9 27.3 95.9 27.1 95.9 27C95.9 26.9 95.8 26.8001 95.7 26.7001C95.5 26.5001 95.2 26.5 95 26.5H93.4V28.4H95V28.3Z" fill="#B6A2D7"/>
<path d="M100.2 25.3V32.1H98.7998V25.3H100.2Z" fill="#B6A2D7"/>
<path d="M106.6 25.3V26.6H103.2V28H106.3V29.2001H103.2V30.9H106.7V32.2001H101.8V25.4H106.6V25.3Z" fill="#B6A2D7"/>
<path d="M108.7 30.4C108.8 30.6 108.9 30.6999 109 30.7999C109.1 30.8999 109.3 31 109.5 31C109.7 31 109.9 31.1 110 31.1C110.1 31.1 110.3 31.1 110.4 31.1C110.5 31.1 110.7 31 110.8 31C110.9 30.9 111 30.8 111.1 30.7C111.2 30.6 111.2 30.3999 111.2 30.2999C111.2 30.1999 111.2 30.1 111.2 30.1C111.2 30 111.1 30 111.1 29.9C111 29.8 110.8 29.7 110.7 29.6C110.5 29.5 110.3 29.5 110.1 29.4C109.9 29.3 109.6 29.3 109.4 29.2C109.2 29.1 108.9 29.1 108.7 29C108.5 28.9 108.3 28.8 108.1 28.6C107.9 28.4 107.8 28.3 107.7 28C107.6 27.8 107.5 27.5 107.5 27.2C107.5 26.9 107.6 26.5999 107.7 26.2999C107.8 25.9999 108 25.8 108.3 25.7C108.5 25.5 108.8 25.3999 109.1 25.2999C109.4 25.1999 109.7 25.2 110 25.2C110.3 25.2 110.7 25.1999 111 25.2999C111.3 25.3999 111.6 25.5 111.8 25.7C112 25.9 112.2 26.1 112.4 26.4C112.5 26.7 112.6 27.1 112.6 27.4H111.2C111.2 27.2 111.2 27.1 111.1 26.9C111 26.8 110.9 26.7 110.8 26.6C110.7 26.5 110.5 26.5 110.4 26.4C110.2 26.4 110.1 26.4 109.9 26.4C109.8 26.4 109.7 26.4 109.6 26.4C109.5 26.4 109.4 26.5 109.3 26.5C109.2 26.6 109.1 26.6 109.1 26.7C109 26.8 109 26.9 109 27.1C109 27.2 109 27.3 109.1 27.4C109.2 27.5 109.3 27.6 109.4 27.6C109.6 27.7 109.8 27.7999 110 27.7999C110.3 27.8999 110.6 28 111 28.1C111.1 28.1 111.3 28.2 111.5 28.2C111.7 28.3 111.9 28.4 112.1 28.5C112.3 28.7 112.5 28.9 112.6 29.1C112.8 29.4 112.8 29.7 112.8 30C112.8 30.3 112.7 30.6 112.6 30.9C112.5 31.2 112.3 31.4 112.1 31.6C111.9 31.8 111.6 31.9999 111.3 32.0999C110.9 32.1999 110.5 32.2999 110.1 32.2999C109.7 32.2999 109.4 32.3 109.1 32.2C108.8 32.1 108.5 31.9999 108.2 31.7999C107.9 31.5999 107.7 31.3 107.6 31C107.4 30.7 107.4 30.3 107.4 29.9H108.8C108.6 30 108.7 30.2 108.7 30.4Z" fill="#B6A2D7"/>
</g>
<defs>
<clipPath id="clip0_1271_5546">
<rect width="168" height="40" fill="white"/>
</clipPath>
</defs>
</svg>
