<svg width="194" height="36" viewBox="0 0 194 36" fill="none" xmlns="http://www.w3.org/2000/svg">
<g clip-path="url(#clip0_1271_5604)">
<path d="M47.5356 18.1918C46.8673 17.9377 46.7134 18.2018 46.8978 18.803C46.9469 18.969 47.001 19.1185 47.0518 19.2779C47.292 20.0236 47.5373 20.6547 46.4444 21.1048C45.7676 21.3804 45.3278 22.161 44.7644 22.6991C44.3628 23.1099 43.8659 23.4193 43.3162 23.6009C43.5141 22.8186 43.8474 22.1593 43.9421 21.4419C44.0234 20.834 43.8559 20.5584 43.1808 20.6397C38.782 21.1695 36.899 24.3847 37.9057 28.5449C38.0275 29.0547 38.3912 29.0597 38.738 28.8189C39.116 28.5269 39.4764 28.2136 39.8174 27.8806C40.0069 28.4785 39.8174 28.9817 39.6483 29.4616C39.4554 30.003 39.0849 30.4929 39.4791 31.0941C39.5755 31.237 39.4672 31.4263 39.3285 31.5326C38.4454 32.1969 37.6637 33.0173 36.5251 33.3129C35.9397 33.464 35.51 33.3611 35.104 32.901C33.7505 31.3781 32.1196 30.2438 30.0572 29.7954C27.2369 29.1743 24.6433 29.8967 22.1462 31.0858C21.3696 31.4545 20.6235 31.893 19.7421 32.3663C19.918 31.4817 20.2944 30.6474 20.8434 29.925C20.9703 29.7589 21.2021 29.5762 21.0854 29.3504C20.9686 29.1245 20.6793 29.2258 20.4712 29.2358C19.1202 29.3227 17.8057 29.7027 16.6223 30.3485C16.1029 30.6175 15.9794 30.4647 15.9828 29.9582C16.0042 27.2225 16.2304 24.4921 16.6595 21.789C16.8682 20.4803 17.1225 19.1833 17.4225 17.8979C17.475 17.677 17.6239 17.3548 17.2838 17.2668C16.9911 17.192 16.9776 17.5408 16.8964 17.7185C15.5429 20.6464 14.6225 23.7221 13.8257 26.8343C13.0982 29.6764 12.4705 32.5401 11.9427 35.4254C11.8932 35.619 11.8327 35.8097 11.7616 35.9967C11.2152 34.6083 11.0511 33.2415 10.7584 31.9096C9.75851 27.3541 9.12068 22.7605 9.34062 18.0855C9.40153 16.7901 9.54703 15.4981 9.67899 14.2044C9.73482 13.6497 9.69422 13.3856 8.97349 13.5699C6.82993 14.1163 4.91308 15.1211 3.0216 16.2089C2.27211 16.6407 1.5497 17.1206 0.795135 17.5458C0.581963 17.667 0.302809 17.9825 0.0625676 17.6936C-0.125227 17.4661 0.169154 17.2385 0.324803 17.0592C1.87453 15.2722 3.51054 13.5616 5.40033 12.1102C7.7689 10.2833 10.173 8.51464 12.8749 7.1794C13.1523 7.04321 13.4247 6.89707 13.7073 6.77417C13.9069 6.68781 14.1471 6.5234 14.3383 6.68781C14.5904 6.90371 14.3535 7.14618 14.252 7.35211C12.9172 10.0691 12.1389 12.9405 11.7278 15.9199C11.6432 16.5311 11.7397 16.8217 12.4536 16.6589C13.0931 16.5128 13.1676 16.825 12.9916 17.3598C12.5619 18.6535 12.3589 19.9937 12.2049 21.3456C12.1846 21.5216 12.0831 21.7176 12.3538 21.9534C12.5534 21.4137 12.7598 20.9188 12.9189 20.4106C13.4586 18.7221 14.1195 17.0733 14.8966 15.4765C14.988 15.2872 15.235 15.1095 15.0658 14.8819C14.8966 14.6544 14.6564 14.7972 14.4381 14.8288C13.4433 14.9733 13.3401 14.8703 13.6582 13.9652C14.741 10.8779 16.1774 8.00312 18.7473 5.79765C19.7319 4.95233 20.8959 4.92742 22.0853 4.93406C22.6165 4.93406 22.4439 5.33264 22.4118 5.59836C22.2088 7.35543 21.9821 9.11084 21.7773 10.8679C21.4914 13.3258 21.2546 15.787 21.5625 18.3629C21.8315 15.8933 22.07 13.5118 22.4575 11.1519C23.0479 7.63444 23.6181 4.11033 24.7973 0.720751C25.1086 -0.177713 25.2727 -0.205947 25.9443 0.464994C27.1997 1.7172 28.2385 3.12219 28.9118 4.75637C28.9735 4.95193 29.0965 5.12338 29.2633 5.24625C29.4301 5.36913 29.6321 5.43714 29.8407 5.44059C34.2817 5.86242 37.9074 8.01641 41.2843 10.6802C41.6006 10.9294 42.0084 11.1419 41.6429 11.6767C41.4162 12.0088 41.8663 12.0869 42.0321 12.1666C44.47 13.3391 46.4562 15.0746 48.3257 16.9595C48.6556 17.2917 49.2376 17.6737 49.1276 18.0556C48.9382 18.7199 48.4509 19.3062 48.0652 19.914C48.0265 19.9507 47.9795 19.9779 47.928 19.9932C47.8765 20.0085 47.822 20.0115 47.7691 20.002C47.3766 19.9007 47.2057 18.5073 47.5356 18.1918ZM34.7267 11.8677C35.4474 13.7809 37.4522 13.2544 38.6958 14.1446C38.0055 12.2845 36.1732 12.4871 34.7267 11.8677Z" fill="#B6A2D7"/>
<path d="M100.945 27.2944C99.3754 27.2595 97.0306 27.4189 94.7009 27.1482C91.6387 26.7912 90.0703 25.3214 89.6727 22.3536C89.3297 19.6608 89.273 16.9403 89.5036 14.2359C89.7472 11.1901 91.7029 9.39317 94.9733 9.00788C98.1996 8.62757 101.445 8.75545 104.683 8.78534C106.06 8.79863 107.442 8.73884 108.816 8.96138C112.721 9.59412 113.357 12.2463 113.215 14.9401C113.199 15.244 113.061 15.2988 112.792 15.2988C111.184 15.2988 109.577 15.2872 107.972 15.2988C107.618 15.2988 107.574 15.1161 107.52 14.8487C107.339 13.9519 106.715 13.5201 105.828 13.5201C103.179 13.4985 100.528 13.4471 97.8765 13.5384C95.9224 13.6065 95.3269 14.2758 95.1543 16.2139C95.0113 17.6471 95.0317 19.0914 95.2152 20.5202C95.3962 21.8189 95.9326 22.4433 97.259 22.5264C100.102 22.6852 102.951 22.6913 105.794 22.5446C107.038 22.4898 107.616 21.9235 107.728 21.05C107.787 20.5932 107.672 20.4155 107.161 20.4238C105.244 20.4504 103.328 20.4122 101.409 20.4471C100.839 20.4587 100.673 20.281 100.698 19.7463C100.737 18.9458 100.726 18.1403 100.698 17.3398C100.682 16.8682 100.786 16.6589 101.345 16.6623C105.15 16.6855 108.956 16.6855 112.761 16.6623C113.245 16.6623 113.386 16.8001 113.374 17.2684C113.333 18.9009 113.36 20.5335 113.306 22.1643C113.206 25.1985 111.57 26.7945 108.297 27.0901C106.111 27.2894 103.913 27.3143 100.945 27.2944Z" fill="#B6A2D7"/>
<path d="M160.796 20.0352C160.98 20.1249 161.097 20.193 161.222 20.2395C163.393 21.0566 163.828 21.6428 163.899 23.9197C163.926 24.8049 163.899 25.6901 163.929 26.5769C163.948 27.0286 163.777 27.1299 163.347 27.1216C161.853 27.0984 160.36 27.0918 158.867 27.1216C158.373 27.1333 158.246 26.9556 158.243 26.5105C158.243 25.7665 158.213 25.0158 158.142 24.2768C158.032 23.1525 157.634 22.6692 156.511 22.6476C153.413 22.5878 150.313 22.6177 147.214 22.5978C146.776 22.5978 146.799 22.8436 146.799 23.1325C146.799 24.2386 146.781 25.3446 146.811 26.454C146.827 26.9356 146.723 27.1416 146.17 27.1183C144.707 27.0801 143.24 27.0868 141.771 27.1183C141.293 27.1183 141.15 26.9821 141.15 26.5138C141.164 20.8462 141.164 15.1776 141.15 9.50777C141.15 9.11417 141.264 8.99128 141.673 8.99294C147.425 9.0112 153.169 9.00954 158.916 9.02947C159.423 9.04435 159.928 9.10326 160.424 9.20551C162.337 9.54929 163.378 10.5673 163.767 12.4639C164.056 13.8748 164.099 15.3235 163.895 16.7486C163.706 18.1171 163.036 19.1235 161.696 19.6466C161.414 19.7579 161.138 19.8874 160.796 20.0352ZM151.931 17.9028V17.8397C153.506 17.8397 155.079 17.8514 156.654 17.8397C157.233 17.8397 157.763 17.6836 158.074 17.1173C158.989 15.4566 158.164 13.7958 156.274 13.7477C153.294 13.663 150.312 13.7111 147.331 13.6879C146.928 13.6879 146.788 13.8141 146.796 14.211C146.816 15.2324 146.83 16.2554 146.796 17.2751C146.776 17.7932 146.95 17.9394 147.463 17.9211C148.948 17.8829 150.44 17.9028 151.931 17.9028Z" fill="#B6A2D7"/>
<path d="M126.966 27.1017C123.838 27.1017 120.706 27.0818 117.578 27.1183C116.935 27.1183 116.788 26.9523 116.79 26.3361C116.813 20.8003 116.813 15.2645 116.79 9.72866C116.79 9.08429 116.981 8.97136 117.59 8.97468C123.82 8.99793 130.051 8.99793 136.283 8.97468C136.885 8.97468 137.129 9.07599 137.092 9.72866C137.038 10.669 137.038 11.6116 137.092 12.5519C137.119 13.1398 136.922 13.2843 136.332 13.281C132.02 13.2561 127.704 13.281 123.393 13.2461C122.616 13.2461 122.401 13.4454 122.434 14.1977C122.496 15.6492 122.452 15.6509 123.956 15.6509C127.819 15.6509 131.681 15.6642 135.544 15.6393C136.127 15.6393 136.339 15.7721 136.302 16.3683C136.249 17.1979 136.249 18.0299 136.302 18.8594C136.342 19.4723 136.163 19.6566 135.515 19.6516C131.541 19.6217 127.563 19.635 123.589 19.6367C122.19 19.6367 122.464 19.542 122.452 20.7079C122.432 22.8236 122.444 22.8236 124.562 22.8236C128.538 22.8236 132.514 22.8336 136.488 22.812C137.06 22.812 137.286 22.9283 137.251 23.5361C137.194 24.4764 137.194 25.4191 137.251 26.3594C137.293 27.012 137.044 27.125 136.437 27.1183C133.285 27.0918 130.125 27.1017 126.966 27.1017Z" fill="#B6A2D7"/>
<path d="M194 27.1017C191.951 27.1017 190.036 27.0884 188.122 27.1116C187.715 27.1116 187.523 26.9622 187.353 26.6284C186.972 25.8893 186.535 25.1785 186.153 24.4395C185.984 24.0957 185.747 23.9795 185.358 23.9811C181.949 23.9944 178.54 23.9944 175.131 23.9811C174.965 23.9646 174.799 24.0015 174.656 24.0863C174.514 24.1711 174.404 24.2992 174.342 24.4511C173.967 25.1935 173.561 25.9209 173.177 26.6583C173.043 26.9173 172.913 27.1133 172.559 27.1116C170.592 27.0967 168.626 27.1116 166.518 27.1116C167.363 25.597 168.157 24.1771 168.952 22.7605C171.414 18.3844 173.886 14.0133 176.323 9.62398C176.592 9.13904 176.877 8.97961 177.427 8.98957C179.369 9.02611 181.318 9.01282 183.258 8.99787C183.654 8.99787 183.918 9.06099 184.136 9.44794C187.344 15.1875 190.564 20.9204 193.795 26.6466C193.853 26.7596 193.903 26.8874 194 27.1017ZM180.296 13.6613L176.912 19.6399H183.532L180.296 13.6613Z" fill="#B6A2D7"/>
<path d="M68.7715 20.4106C68.7715 22.43 68.7563 24.4478 68.7834 26.4656C68.7834 26.9755 68.6413 27.1299 68.1185 27.1183C66.7109 27.0851 65.2999 27.0768 63.8889 27.1183C63.2544 27.1399 63.0869 26.9522 63.092 26.3344C63.1225 22.4084 63.0836 18.4808 63.1275 14.5548C63.136 13.7942 62.9008 13.6497 62.1852 13.6646C60.045 13.7111 57.9031 13.6646 55.7562 13.6945C55.2114 13.7028 55.0202 13.5683 55.0439 13.0086C55.0896 11.876 55.0744 10.74 55.0439 9.60741C55.0355 9.17562 55.1065 8.98297 55.6276 8.98463C62.5021 9.00345 69.3761 9.00345 76.2495 8.98463C76.757 8.98463 76.8551 9.1507 76.8433 9.60077C76.8145 10.7334 76.8027 11.8693 76.8433 13.002C76.8636 13.5484 76.7012 13.7012 76.1412 13.6928C73.9722 13.6596 71.8016 13.7061 69.6344 13.6646C68.9576 13.6513 68.714 13.8008 68.7326 14.5149C68.8037 16.4829 68.7698 18.4476 68.7715 20.4106Z" fill="#B6A2D7"/>
<path d="M85.6004 18.1337C85.6004 20.8972 85.5886 23.659 85.6123 26.4225C85.6123 26.9605 85.4651 27.1349 84.9051 27.12C83.4433 27.0834 81.9782 27.0917 80.5063 27.12C80.0749 27.12 79.9192 27.022 79.9209 26.5736C79.9333 20.8828 79.9333 15.1914 79.9209 9.49946C79.9209 9.09092 80.0393 8.98961 80.4403 9.00124C81.9325 9.02283 83.4247 9.03611 84.9152 9.00124C85.4786 8.98629 85.614 9.16731 85.6089 9.69543C85.5869 12.4988 85.6004 15.3104 85.6004 18.1337Z" fill="#B6A2D7"/>
</g>
<defs>
<clipPath id="clip0_1271_5604">
<rect width="194" height="36" fill="white"/>
</clipPath>
</defs>
</svg>
