<svg width="20" height="20" viewBox="0 0 20 20" fill="none" xmlns="http://www.w3.org/2000/svg">
<path fill-rule="evenodd" clip-rule="evenodd" d="M3.5 16C3.5 15.7239 3.72386 15.5 4 15.5L16 15.5C16.2761 15.5 16.5 15.7239 16.5 16C16.5 16.2761 16.2761 16.5 16 16.5L4 16.5C3.72386 16.5 3.5 16.2761 3.5 16Z" fill="#B6A2D7"/>
<path fill-rule="evenodd" clip-rule="evenodd" d="M0.25 1C0.25 0.585786 0.585786 0.25 1 0.25H19C19.4142 0.25 19.75 0.585786 19.75 1V19C19.75 19.4142 19.4142 19.75 19 19.75H1C0.585786 19.75 0.25 19.4142 0.25 19V1ZM1.75 1.75V18.25H18.25V1.75H1.75Z" fill="#B6A2D7"/>
<path fill-rule="evenodd" clip-rule="evenodd" d="M8.25 5C8.25 4.58579 8.58579 4.25 9 4.25H16C16.4142 4.25 16.75 4.58579 16.75 5V13C16.75 13.4142 16.4142 13.75 16 13.75H9C8.58579 13.75 8.25 13.4142 8.25 13V5ZM9.75 5.75V12.25H15.25V5.75H9.75Z" fill="#B6A2D7"/>
<path fill-rule="evenodd" clip-rule="evenodd" d="M3.5 5C3.5 4.72386 3.72386 4.5 4 4.5H7C7.27614 4.5 7.5 4.72386 7.5 5V8C7.5 8.27614 7.27614 8.5 7 8.5H4C3.72386 8.5 3.5 8.27614 3.5 8V5ZM4.5 5.5V7.5H6.5V5.5H4.5Z" fill="#B6A2D7"/>
<path fill-rule="evenodd" clip-rule="evenodd" d="M3.5 10C3.5 9.72386 3.72386 9.5 4 9.5H7C7.27614 9.5 7.5 9.72386 7.5 10V13C7.5 13.2761 7.27614 13.5 7 13.5H4C3.72386 13.5 3.5 13.2761 3.5 13V10ZM4.5 10.5V12.5H6.5V10.5H4.5Z" fill="#B6A2D7"/>
</svg>
