<svg width="118" height="74" viewBox="0 0 118 74" fill="none" xmlns="http://www.w3.org/2000/svg">
<path d="M99.9824 0.111084L118 31.0935L105.342 38.0117L103.977 35.5731L89.4958 9.73097L88.1139 7.26313L99.9824 0.111084Z" fill="#EE4266"/>
<path d="M29.2706 6.44444L27.0816 10.5731L13.8021 35.6316L12.484 38.1228L0 30.8713L17.0131 0L29.2706 6.44444Z" fill="#EE4266"/>
<path d="M103.977 35.573L103.641 35.766L97.0095 47.2982L54.3258 21.7485L45.018 25.4619C42.6547 26.4035 39.9663 25.421 38.7527 23.1695C38.3405 22.4093 38.1431 21.5789 38.1431 20.766C38.1431 19.0994 38.9618 17.4795 40.4366 16.5146L53.2284 8.152L53.7103 7.83621C57.8155 5.152 62.6059 3.7251 67.5066 3.7251C69.626 3.7251 71.7163 4.08182 73.6906 4.77188C75.6706 5.46194 77.5345 6.47948 79.2009 7.80112C81.2564 9.42685 83.7765 10.2807 86.3371 10.2807C87.272 10.2807 88.2126 10.1695 89.1359 9.93562L89.4959 9.73094L103.977 35.573Z" fill="#FE8A3A"/>
<path d="M54.5347 52.6199C54.5347 53.6374 54.2386 54.6666 53.6057 55.5789L51.4805 58.5614C51.4805 58.5614 51.0408 60.6647 50.6343 61.2261L46.6716 66.9523C46.3174 67.4436 45.3605 66.5848 45.2037 67.1286C43.4385 68.7134 40.7327 69.0175 38.6017 67.7368L38.4855 67.6666C35.9191 66.1286 35.141 62.9064 36.6507 60.4386C36.9178 60.193 36.4358 58.8713 36.6507 58.5614L44.0298 49.3333C43.1231 49.0701 44.0298 49.193 45.105 48.9298C46.876 47.1403 49.7386 46.7602 51.9683 48.1111C53.6289 49.1228 54.5347 50.8538 54.5347 52.6199Z" fill="#FE8A3A"/>
<path d="M60.0045 63.0001C60.0045 64.0176 59.7025 65.0468 59.0754 65.9533L57.2696 68.5556L55.1386 71.6375C53.4954 74.0176 50.2089 74.7077 47.7005 73.1989L47.5785 73.1287C45.4301 71.8363 44.5359 69.3509 45.2037 67.1287C45.5172 66.848 45.8017 66.5322 46.0456 66.1755L51.4805 58.5615C53.2283 57.4328 55.5567 57.3392 57.4322 58.4854C59.0928 59.4971 60.0045 61.234 60.0045 63.0001Z" fill="#FE8A3A"/>
<path d="M33.4281 44.6726C33.4281 45.6901 33.1319 46.7193 32.499 47.6316L33.0224 48.8928L29.0597 54.1785C28.8971 54.4066 27.8945 53.9884 27.7725 54.2281C26.0074 55.848 23.2783 56.1755 21.1241 54.8831L21.0079 54.8071C18.3253 53.2047 17.5937 49.7427 19.3995 47.2398L20.9325 45.117L23.4467 41.6258C25.1248 39.3041 28.3822 38.6609 30.8616 40.1696C32.5223 41.1813 33.4281 42.9065 33.4281 44.6726Z" fill="#FE8A3A"/>
<path d="M45.8657 46.234C45.8657 47.1521 45.6218 48.0819 45.1051 48.9299C44.9076 49.1229 44.7276 49.3334 44.5592 49.5673L36.8772 60.0995C36.7959 60.2106 36.7204 60.3217 36.6508 60.4387C34.8856 62.1229 32.1159 62.4796 29.9326 61.1638L29.8107 61.0936C27.3778 59.6316 26.5474 56.6375 27.7726 54.2281C28.0687 53.965 28.3358 53.6609 28.5681 53.3217L31.2612 48.4525L35.8901 43.1872C37.5624 40.8597 40.8256 40.2223 43.2992 41.7311C44.9599 42.7428 45.8657 44.4679 45.8657 46.234Z" fill="#FE8A3A"/>
<path d="M35.8901 43.1871L31.3668 49.269L32.4991 47.6316C33.132 46.7193 33.4281 45.6901 33.4281 44.6725C33.4281 42.9064 32.5223 41.1813 30.8617 40.1696C28.3823 38.6608 25.1248 39.3041 23.4467 41.6258L20.9325 45.117L14.0576 35.7661L13.8021 35.6316L27.0816 10.5731L27.2152 10.6433C36.2908 4.83629 45.8134 3.72517 52.6826 7.29827L53.2284 8.15207L40.4366 16.5146C38.9618 17.4796 38.143 19.0994 38.143 20.7661C38.143 21.579 38.3405 22.4094 38.7527 23.1696C39.9663 25.4211 42.6547 26.4035 45.0179 25.462L54.3258 21.7486L97.0095 47.2983L98.4901 48.1872C99.8953 49.0293 100.679 50.5205 100.679 52.0585C100.679 52.8304 100.482 53.6141 100.064 54.3275C98.8037 56.4912 96.034 57.1988 93.903 55.9064L86.9932 51.7135C89.1533 53.0351 89.7862 55.9064 88.3926 58.0351L87.8294 58.8947C86.5287 60.8772 83.9216 61.4971 81.8777 60.3158L77.5809 57.8304C79.3286 59.269 79.7525 61.8421 78.4693 63.7895L77.9061 64.6491C76.6054 66.6316 74.0041 67.2515 71.9602 66.0702L68.3427 63.9825C69.9337 65.4445 70.2821 67.9006 69.0453 69.7778L68.4821 70.6433C67.1814 72.6199 64.5801 73.2398 62.5362 72.0585L57.5542 68.7544L57.2697 68.5556L59.0755 65.9532C59.7026 65.0468 60.0046 64.0176 60.0046 63C60.0046 61.2339 59.0929 59.4971 57.4323 58.4854C55.5568 57.3392 53.2284 57.4328 51.4806 58.5614L53.6058 55.579C54.2387 54.6667 54.5348 53.6374 54.5348 52.6199C54.5348 50.8538 53.629 49.1228 51.9683 48.1111C49.7386 46.7602 46.876 47.1404 45.105 48.9298C45.6218 48.0819 45.8657 47.1521 45.8657 46.2339C45.8657 44.4678 44.9599 42.7427 43.2992 41.731C40.8256 40.2222 37.5624 40.8597 35.8901 43.1871Z" fill="#FFC857"/>
</svg>
