<svg width="20" height="16" viewBox="0 0 20 16" fill="none" xmlns="http://www.w3.org/2000/svg">
<path d="M17.6359 3.9787C17.8927 9.64868 13.6641 15.9699 6.17798 15.9699C3.90157 15.9699 1.78374 15.3018 -6.10352e-05 14.158C2.13882 14.4106 4.27348 13.8156 5.96746 12.4893C4.20471 12.457 2.71564 11.2907 2.20057 9.68938C2.83353 9.81008 3.45667 9.77499 4.02226 9.62061C2.08408 9.23045 0.745178 7.48454 0.788685 5.61654C1.33323 5.91828 1.95356 6.09933 2.61459 6.12038C0.819562 4.92042 0.311508 2.54997 1.36691 0.7381C3.35422 3.17732 6.32535 4.78147 9.67541 4.94989C9.08736 2.42927 11.0003 -0.00012207 13.6037 -0.00012207C14.7616 -0.00012207 15.8099 0.489687 16.5454 1.27282C17.4632 1.09318 18.3278 0.756345 19.1053 0.294605C18.8035 1.23633 18.165 2.02507 17.3327 2.52471C18.1481 2.42647 18.9256 2.21033 19.647 1.88894C19.1081 2.70014 18.426 3.41029 17.6359 3.9787Z" fill="#FAFAFA"/>
</svg>
