<svg width="21" height="20" viewBox="0 0 21 20" fill="none" xmlns="http://www.w3.org/2000/svg">
<path fill-rule="evenodd" clip-rule="evenodd" d="M1.51801 10.8333V15.8333H6.51801V10.8333H1.51801ZM1.01801 9.33325C0.465721 9.33325 0.0180054 9.78097 0.0180054 10.3333V16.3333C0.0180054 16.8855 0.465721 17.3333 1.01801 17.3333H7.01801C7.57029 17.3333 8.01801 16.8855 8.01801 16.3333V10.3333C8.01801 9.78097 7.57029 9.33325 7.01801 9.33325H1.01801Z" fill="#B6A2D7"/>
<path fill-rule="evenodd" clip-rule="evenodd" d="M1.51801 1.5V6.5H6.51801V1.5H1.51801ZM1.01801 0C0.465721 0 0.0180054 0.447715 0.0180054 1V7C0.0180054 7.55228 0.465721 8 1.01801 8H7.01801C7.57029 8 8.01801 7.55228 8.01801 7V1C8.01801 0.447715 7.57029 0 7.01801 0H1.01801Z" fill="#B6A2D7"/>
<path fill-rule="evenodd" clip-rule="evenodd" d="M10.8514 1.5V6.5H15.8514V1.5H10.8514ZM10.3514 0C9.79909 0 9.35137 0.447715 9.35137 1V7C9.35137 7.55228 9.79909 8 10.3514 8H16.3514C16.9037 8 17.3514 7.55228 17.3514 7V1C17.3514 0.447715 16.9037 0 16.3514 0H10.3514Z" fill="#B6A2D7"/>
<path fill-rule="evenodd" clip-rule="evenodd" d="M13.5179 13.5V18.5H18.5179V13.5H13.5179ZM13.0179 12C12.4656 12 12.0179 12.4477 12.0179 13V19C12.0179 19.5523 12.4656 20 13.0179 20H19.0179C19.5702 20 20.0179 19.5523 20.0179 19V13C20.0179 12.4477 19.5702 12 19.0179 12H13.0179Z" fill="#B6A2D7"/>
</svg>
