<svg width="90" height="71" viewBox="0 0 90 71" fill="none" xmlns="http://www.w3.org/2000/svg">
<path fill-rule="evenodd" clip-rule="evenodd" d="M40.3187 3.50024C26.5116 3.50024 15.3187 14.6931 15.3187 28.5002C15.3187 42.3074 26.5116 53.5002 40.3187 53.5002C54.1258 53.5002 65.3187 42.3074 65.3187 28.5002C65.3187 14.6931 54.1258 3.50024 40.3187 3.50024ZM12.3187 28.5002C12.3187 13.0363 24.8548 0.500244 40.3187 0.500244C55.7827 0.500244 68.3187 13.0363 68.3187 28.5002C68.3187 43.9642 55.7827 56.5002 40.3187 56.5002C24.8548 56.5002 12.3187 43.9642 12.3187 28.5002Z" fill="#FAFAFA"/>
<path fill-rule="evenodd" clip-rule="evenodd" d="M39.5616 8.07178C40.39 8.07178 41.0616 8.74335 41.0616 9.57178V29.2718H59.2473C60.0757 29.2718 60.7473 29.9434 60.7473 30.7718C60.7473 31.6002 60.0757 32.2718 59.2473 32.2718H39.5616C38.7332 32.2718 38.0616 31.6002 38.0616 30.7718V9.57178C38.0616 8.74335 38.7332 8.07178 39.5616 8.07178Z" fill="#FAFAFA"/>
<path fill-rule="evenodd" clip-rule="evenodd" d="M76.5001 31.0063C77.3194 51.5275 61.9266 68.1204 41.4232 68.2509C20.903 68.3815 3.60441 51.8653 2.78572 31.3611L0.785764 31.3738C1.64852 52.9818 19.8782 70.3869 41.503 70.2493C63.1444 70.1115 79.3621 52.5847 78.5 30.9936L76.5001 31.0063Z" fill="#FAFAFA"/>
<path fill-rule="evenodd" clip-rule="evenodd" d="M41.5061 70.7493C63.4392 70.6097 79.8727 52.8383 78.9996 30.9737L78.9804 30.4905L75.9799 30.5096L76.0005 31.0263C76.8089 51.2737 61.632 67.6222 41.42 67.7509C21.1694 67.8798 4.09326 51.576 3.28533 31.3411L3.26603 30.858L0.265533 30.8771L0.286162 31.3938C1.15968 53.2711 19.6118 70.8886 41.5061 70.7493ZM78.0169 31.4967C78.6092 52.5916 62.6881 69.6144 41.4998 69.7493C20.3173 69.8841 2.42869 52.9692 1.30938 31.8705L2.30845 31.8641C3.38782 52.4134 20.798 68.8821 41.4263 68.7509C62.0487 68.6196 77.5707 52.0594 77.017 31.5031L78.0169 31.4967Z" fill="#FAFAFA"/>
<path fill-rule="evenodd" clip-rule="evenodd" d="M77.5 25.1455L89.2762 44.2117C89.7115 44.9166 89.4931 45.8408 88.7882 46.2762C88.0834 46.7115 87.1591 46.493 86.7238 45.7882L77.5 30.8544L68.2762 45.7882C67.8409 46.493 66.9166 46.7115 66.2118 46.2762C65.5069 45.8408 65.2885 44.9166 65.7238 44.2117L77.5 25.1455Z" fill="#FAFAFA"/>
</svg>
