<svg width="796" height="497" viewBox="0 0 796 497" fill="none" xmlns="http://www.w3.org/2000/svg">
<g opacity="0.3" filter="url(#filter0_d)">
<path d="M31 37.2366C31 33.7922 32.0027 31 33.2395 31H762.76C763.997 31 765 33.7922 765 37.2366V459.763C765 463.208 763.997 466 762.76 466H33.2395C32.0027 466 31 463.208 31 459.763V37.2366Z" fill="#C5DFFF"/>
<path d="M33.2395 27.5C31.5084 27.5 30.326 28.4871 29.6997 29.2249C29.0608 29.9774 28.6435 30.8595 28.3619 31.6438C27.7878 33.2424 27.5 35.2201 27.5 37.2366V459.763C27.5 461.78 27.7878 463.758 28.3619 465.356C28.6435 466.141 29.0608 467.023 29.6997 467.775C30.326 468.513 31.5084 469.5 33.2395 469.5H762.76C764.492 469.5 765.674 468.513 766.3 467.775C766.939 467.023 767.356 466.141 767.638 465.356C768.212 463.758 768.5 461.78 768.5 459.763V37.2366C768.5 35.2201 768.212 33.2423 767.638 31.6437C767.356 30.8594 766.939 29.9773 766.3 29.2249C765.674 28.4871 764.492 27.5 762.76 27.5H33.2395Z" stroke="white" stroke-width="7"/>
</g>
<rect x="272" y="39" width="484" height="128" rx="4" fill="white"/>
<rect x="40" y="39" width="224" height="419" rx="4" fill="#2A4ACB"/>
<path d="M426.734 64.6L424.702 57.464H423.566L421.534 64.6L418.766 55.976H417.166L420.894 67H422.19L424.126 60.12L426.078 67H427.374L431.102 55.976H429.502L426.734 64.6ZM434.02 62.968C434.02 62.232 434.244 61.688 434.708 61.336C435.172 60.968 435.7 60.792 436.292 60.792C437.332 60.792 438.052 61.56 438.052 62.776V67H439.508V62.68C439.524 60.584 438.356 59.368 436.484 59.368C436.02 59.368 435.54 59.48 435.044 59.704C434.564 59.912 434.228 60.232 434.02 60.648V55.464H432.564V67H434.02V62.968ZM449.206 67V59.528H447.766V60.648C447.302 59.832 446.23 59.368 445.142 59.368C444.086 59.368 443.19 59.72 442.454 60.44C441.718 61.16 441.35 62.088 441.35 63.256C441.35 64.408 441.718 65.352 442.454 66.072C443.19 66.792 444.086 67.16 445.142 67.16C446.23 67.16 447.27 66.68 447.766 65.848V67H449.206ZM447.75 63.24C447.75 64.008 447.51 64.616 447.03 65.064C446.55 65.512 445.958 65.736 445.27 65.736C444.582 65.736 444.006 65.496 443.542 65.032C443.078 64.568 442.838 63.96 442.838 63.24C442.838 62.52 443.062 61.928 443.526 61.48C443.99 61.016 444.582 60.792 445.27 60.792C445.926 60.792 446.502 61.016 446.998 61.448C447.494 61.88 447.75 62.488 447.75 63.24ZM453.658 56.712H452.202V59.528H450.858V60.76H452.202V67H453.658V60.76H455.242V59.528H453.658V56.712ZM471.449 59.528H469.897L468.025 64.76L466.153 59.528H464.745L462.873 64.76L461.001 59.528H459.449L462.297 67H463.481L465.449 61.512L467.481 67H468.681L471.449 59.528ZM472.35 63.24C472.35 64.408 472.734 65.352 473.486 66.072C474.238 66.792 475.166 67.16 476.254 67.16C477.342 67.16 478.27 66.792 479.022 66.072C479.79 65.336 480.174 64.392 480.174 63.24C480.174 62.088 479.79 61.16 479.038 60.44C478.286 59.72 477.358 59.368 476.254 59.368C475.15 59.368 474.222 59.72 473.47 60.44C472.718 61.16 472.35 62.088 472.35 63.24ZM478.718 63.24C478.718 63.992 478.478 64.6 477.998 65.064C477.534 65.528 476.942 65.752 476.254 65.752C475.566 65.752 474.974 65.528 474.494 65.064C474.03 64.6 473.79 63.992 473.79 63.24C473.79 62.504 474.03 61.912 474.494 61.464C474.974 61.016 475.566 60.792 476.254 60.792C476.942 60.792 477.534 61.016 477.998 61.464C478.478 61.912 478.718 62.504 478.718 63.24ZM487.231 63.56C487.231 65.048 486.319 65.736 485.119 65.736C484.095 65.736 483.487 64.984 483.487 63.752V59.528H482.031V63.848C482.015 65.96 483.055 67.16 484.911 67.16C485.823 67.16 486.799 66.712 487.231 65.88V67H488.687V59.528H487.231V63.56ZM491.096 67H492.552V55.464H491.096V67ZM502.346 67V55.464H500.89V60.648C500.394 59.816 499.386 59.368 498.25 59.368C497.194 59.368 496.298 59.72 495.578 60.44C494.858 61.16 494.49 62.088 494.49 63.256C494.49 64.408 494.858 65.352 495.578 66.072C496.314 66.792 497.21 67.16 498.266 67.16C499.354 67.16 500.394 66.68 500.89 65.848V67H502.346ZM498.394 60.792C499.05 60.792 499.626 61.016 500.122 61.448C500.618 61.88 500.874 62.488 500.874 63.24C500.874 63.992 500.634 64.6 500.138 65.064C499.658 65.512 499.082 65.736 498.394 65.736C497.706 65.736 497.13 65.496 496.666 65.032C496.202 64.568 495.978 63.96 495.978 63.24C495.978 62.52 496.202 61.928 496.666 61.48C497.13 61.016 497.706 60.792 498.394 60.792ZM515.189 59.528H513.637L511.397 64.936L509.157 59.528H507.605L510.597 66.776L509.029 70.632H510.549L515.189 59.528ZM516.006 63.24C516.006 64.408 516.39 65.352 517.142 66.072C517.894 66.792 518.822 67.16 519.91 67.16C520.998 67.16 521.926 66.792 522.678 66.072C523.446 65.336 523.83 64.392 523.83 63.24C523.83 62.088 523.446 61.16 522.694 60.44C521.942 59.72 521.014 59.368 519.91 59.368C518.806 59.368 517.878 59.72 517.126 60.44C516.374 61.16 516.006 62.088 516.006 63.24ZM522.374 63.24C522.374 63.992 522.134 64.6 521.654 65.064C521.19 65.528 520.598 65.752 519.91 65.752C519.222 65.752 518.63 65.528 518.15 65.064C517.686 64.6 517.446 63.992 517.446 63.24C517.446 62.504 517.686 61.912 518.15 61.464C518.63 61.016 519.222 60.792 519.91 60.792C520.598 60.792 521.19 61.016 521.654 61.464C522.134 61.912 522.374 62.504 522.374 63.24ZM530.887 63.56C530.887 65.048 529.975 65.736 528.775 65.736C527.751 65.736 527.143 64.984 527.143 63.752V59.528H525.687V63.848C525.671 65.96 526.711 67.16 528.567 67.16C529.479 67.16 530.455 66.712 530.887 65.88V67H532.343V59.528H530.887V63.56ZM538.908 67H540.364V55.464H538.908V67ZM544.239 67V59.528H542.799V67H544.239ZM542.799 57.448C543.199 57.816 543.839 57.816 544.223 57.448C544.623 57.08 544.623 56.472 544.223 56.104C543.839 55.736 543.199 55.736 542.799 56.104C542.415 56.472 542.415 57.08 542.799 57.448ZM551.522 67H553.442L549.474 62.76L552.674 59.528H550.69L548.114 62.136V55.464H546.674V67H548.114V63.352L551.522 67ZM555.196 62.68C555.372 61.448 556.3 60.68 557.564 60.68C558.78 60.68 559.66 61.448 559.836 62.68H555.196ZM561.276 63.24C561.276 62.072 560.924 61.144 560.22 60.44C559.532 59.72 558.636 59.368 557.564 59.368C556.476 59.368 555.564 59.72 554.828 60.44C554.108 61.144 553.74 62.072 553.74 63.24C553.74 64.408 554.108 65.352 554.828 66.072C555.564 66.792 556.476 67.16 557.564 67.16C559.052 67.16 560.38 66.456 561.004 65.176L560.396 64.952C560.108 64.84 559.9 64.744 559.756 64.696C559.356 65.416 558.524 65.848 557.612 65.848C556.332 65.848 555.372 65.048 555.196 63.816H561.26C561.276 63.704 561.276 63.512 561.276 63.24ZM569.112 56.712H567.656V59.528H566.312V60.76H567.656V67H569.112V60.76H570.696V59.528H569.112V56.712ZM571.74 63.24C571.74 64.408 572.124 65.352 572.876 66.072C573.628 66.792 574.556 67.16 575.644 67.16C576.732 67.16 577.66 66.792 578.412 66.072C579.18 65.336 579.564 64.392 579.564 63.24C579.564 62.088 579.18 61.16 578.428 60.44C577.676 59.72 576.748 59.368 575.644 59.368C574.54 59.368 573.612 59.72 572.86 60.44C572.108 61.16 571.74 62.088 571.74 63.24ZM578.108 63.24C578.108 63.992 577.868 64.6 577.388 65.064C576.924 65.528 576.332 65.752 575.644 65.752C574.956 65.752 574.364 65.528 573.884 65.064C573.42 64.6 573.18 63.992 573.18 63.24C573.18 62.504 573.42 61.912 573.884 61.464C574.364 61.016 574.956 60.792 575.644 60.792C576.332 60.792 576.924 61.016 577.388 61.464C577.868 61.912 578.108 62.504 578.108 63.24ZM593.018 67V55.464H591.562V60.648C591.066 59.816 590.058 59.368 588.922 59.368C587.866 59.368 586.97 59.72 586.25 60.44C585.53 61.16 585.162 62.088 585.162 63.256C585.162 64.408 585.53 65.352 586.25 66.072C586.986 66.792 587.882 67.16 588.938 67.16C590.026 67.16 591.066 66.68 591.562 65.848V67H593.018ZM589.066 60.792C589.722 60.792 590.298 61.016 590.794 61.448C591.29 61.88 591.546 62.488 591.546 63.24C591.546 63.992 591.306 64.6 590.81 65.064C590.33 65.512 589.754 65.736 589.066 65.736C588.378 65.736 587.802 65.496 587.338 65.032C586.874 64.568 586.65 63.96 586.65 63.24C586.65 62.52 586.874 61.928 587.338 61.48C587.802 61.016 588.378 60.792 589.066 60.792ZM594.959 63.24C594.959 64.408 595.343 65.352 596.095 66.072C596.847 66.792 597.775 67.16 598.863 67.16C599.951 67.16 600.879 66.792 601.631 66.072C602.399 65.336 602.783 64.392 602.783 63.24C602.783 62.088 602.399 61.16 601.647 60.44C600.895 59.72 599.967 59.368 598.863 59.368C597.759 59.368 596.831 59.72 596.079 60.44C595.327 61.16 594.959 62.088 594.959 63.24ZM601.327 63.24C601.327 63.992 601.087 64.6 600.607 65.064C600.143 65.528 599.551 65.752 598.863 65.752C598.175 65.752 597.583 65.528 597.103 65.064C596.639 64.6 596.399 63.992 596.399 63.24C596.399 62.504 596.639 61.912 597.103 61.464C597.583 61.016 598.175 60.792 598.863 60.792C599.551 60.792 600.143 61.016 600.607 61.464C601.087 61.912 601.327 62.504 601.327 63.24ZM605.569 59.192C605.569 58.04 606.385 57.272 607.345 57.272C607.841 57.272 608.273 57.432 608.641 57.752C609.009 58.056 609.201 58.472 609.201 58.968C609.201 59.688 608.593 60.424 607.889 60.616C606.497 61.048 605.745 61.704 605.745 63.16V64.04H607.153L607.185 63.16C607.185 62.472 607.553 62.232 608.321 61.992C609.649 61.592 610.625 60.456 610.625 58.968C610.625 58.04 610.305 57.288 609.649 56.712C609.009 56.136 608.241 55.848 607.345 55.848C606.465 55.848 605.713 56.152 605.105 56.776C604.497 57.384 604.193 58.184 604.193 59.192H605.569ZM605.713 66.872C606.145 67.24 606.801 67.24 607.201 66.872C607.601 66.488 607.601 65.816 607.201 65.432C606.801 65.048 606.145 65.048 605.713 65.432C605.313 65.816 605.313 66.488 605.713 66.872Z" fill="#374E77"/>
<path d="M401.5 85.7246C401.5 84.6341 402.384 83.75 403.475 83.75H469.671C470.762 83.75 471.646 84.6341 471.646 85.7246V151.921C471.646 153.012 470.762 153.896 469.671 153.896H403.475C402.384 153.896 401.5 153.012 401.5 151.921V85.7246Z" fill="#F4F8FF" stroke="#E0E7F5"/>
<rect x="423.546" y="127.343" width="26.5237" height="5.30473" rx="2.65237" fill="#C2CDE1"/>
<rect x="417.578" y="137.952" width="38.4593" height="2.65237" rx="1.32618" fill="#C2CDE1"/>
<rect x="426.86" y="143.257" width="19.8928" height="2.65237" rx="1.32618" fill="#C2CDE1"/>
<path d="M479.746 85.7237C479.746 84.6331 480.63 83.749 481.721 83.749H547.917C549.008 83.749 549.892 84.6331 549.892 85.7237V151.92C549.892 153.011 549.008 153.895 547.917 153.895H481.721C480.63 153.895 479.746 153.011 479.746 151.92V85.7237Z" fill="#F4F8FF" stroke="#E0E7F5"/>
<rect x="501.128" y="127.343" width="26.5237" height="5.30473" rx="2.65237" fill="#C2CDE1"/>
<rect x="495.159" y="137.952" width="38.4593" height="2.65237" rx="1.32618" fill="#C2CDE1"/>
<rect x="504.442" y="143.257" width="19.8928" height="2.65237" rx="1.32618" fill="#C2CDE1"/>
<path d="M557.326 85.7237C557.326 84.6331 558.21 83.749 559.301 83.749H625.497C626.588 83.749 627.472 84.6331 627.472 85.7237V151.92C627.472 153.011 626.588 153.895 625.497 153.895H559.301C558.21 153.895 557.326 153.011 557.326 151.92V85.7237Z" fill="#F4F8FF" stroke="#E0E7F5"/>
<rect x="578.709" y="127.343" width="26.5237" height="5.30473" rx="2.65237" fill="#C2CDE1"/>
<rect x="572.741" y="137.952" width="38.4593" height="2.65237" rx="1.32618" fill="#C2CDE1"/>
<rect x="582.024" y="143.257" width="19.8928" height="2.65237" rx="1.32618" fill="#C2CDE1"/>
<path fill-rule="evenodd" clip-rule="evenodd" d="M513.926 100.518L511.88 97.7412H505.898C505.195 97.7412 504.625 98.3094 504.625 99.0103V112.941C504.625 113.65 505.207 114.221 505.917 114.21L520.836 113.984C521.357 113.977 521.82 113.653 522.006 113.168L522.959 110.678L525.001 104.359C525.195 103.76 524.746 103.147 524.115 103.147H521.698L522.065 102.142C522.37 101.309 521.745 100.429 520.855 100.439L513.926 100.518ZM522.081 110.37L524.115 104.075L520.369 104.075L521.191 101.825C521.273 101.601 521.105 101.364 520.865 101.367L513.459 101.451L511.409 98.6689H505.898C505.709 98.6689 505.556 98.8217 505.556 99.0103V112.941C505.556 113.132 505.712 113.285 505.903 113.282L520.822 113.057C520.962 113.055 521.087 112.968 521.136 112.837L522.081 110.37Z" fill="#299F79"/>
<path d="M513.181 99.0591H523.63C524.22 99.0591 524.53 99.5437 524.324 100.142C524.324 100.142 523.509 102.494 523.102 103.67L510.554 103.563C510.949 102.423 511.738 100.142 511.738 100.142C511.945 99.5437 512.591 99.0591 513.181 99.0591Z" fill="#56E39F"/>
<path fill-rule="evenodd" clip-rule="evenodd" d="M524.074 104.553H509.817C509.764 104.553 509.645 104.58 509.507 104.679C509.371 104.777 509.286 104.897 509.252 104.989L506.257 113.328H520.514C520.567 113.328 520.686 113.301 520.824 113.202C520.96 113.104 521.046 112.984 521.079 112.892L524.074 104.553ZM524.139 104.358C524.139 104.358 524.139 104.359 524.139 104.361C524.139 104.359 524.139 104.358 524.139 104.358ZM506.192 113.523C506.192 113.523 506.192 113.522 506.193 113.52C506.193 113.522 506.192 113.523 506.192 113.523ZM524.3 103.67H509.817C509.236 103.67 508.599 104.131 508.395 104.699L505.347 113.182C505.143 113.75 505.45 114.211 506.031 114.211H520.514C521.095 114.211 521.732 113.75 521.936 113.182L524.984 104.699C525.188 104.131 524.882 103.67 524.3 103.67Z" fill="#299F79"/>
<path d="M518.35 104.988H522.212C522.368 104.988 522.449 105.132 522.395 105.309L521.582 107.96C521.528 108.138 521.358 108.282 521.203 108.282H517.341C517.186 108.282 517.104 108.138 517.158 107.96L517.971 105.309C518.025 105.132 518.195 104.988 518.35 104.988Z" fill="#56E39F"/>
<path fill-rule="evenodd" clip-rule="evenodd" d="M601.25 97.3595H583.229C582.891 97.3595 582.617 97.6387 582.617 97.9832V113.968C582.617 114.313 582.891 114.592 583.229 114.592H601.25C601.588 114.592 601.862 114.313 601.862 113.968V97.9832C601.862 97.6387 601.588 97.3595 601.25 97.3595ZM583.229 96.4238C582.384 96.4238 581.699 97.122 581.699 97.9832V113.968C581.699 114.83 582.384 115.528 583.229 115.528H601.25C602.095 115.528 602.779 114.83 602.779 113.968V97.9832C602.779 97.122 602.095 96.4238 601.25 96.4238H583.229Z" fill="#299F79"/>
<path d="M584.335 100.619C584.335 100.121 584.744 99.7178 585.249 99.7178H599.231C599.736 99.7178 600.145 100.121 600.145 100.619V111.333C600.145 111.831 599.736 112.234 599.231 112.234H585.249C584.744 112.234 584.335 111.831 584.335 111.333V100.619Z" fill="#56E39F"/>
<path d="M590.263 108.282H594.874V112.893H590.263V108.282Z" fill="white"/>
<path fill-rule="evenodd" clip-rule="evenodd" d="M600.145 104.329H584.335V103.67H600.145V104.329Z" fill="#299F79"/>
<path fill-rule="evenodd" clip-rule="evenodd" d="M588.945 112.234V99.7178H590.263V112.234H588.945Z" fill="#299F79"/>
<path fill-rule="evenodd" clip-rule="evenodd" d="M594.874 112.234V99.7178H595.533V112.234H594.874Z" fill="#299F79"/>
<path fill-rule="evenodd" clip-rule="evenodd" d="M600.145 108.282H584.335V107.623H600.145V108.282Z" fill="#299F79"/>
<path fill-rule="evenodd" clip-rule="evenodd" d="M596.023 107.063C596.224 107.212 596.249 107.475 596.079 107.651L592.446 111.428C592.353 111.524 592.216 111.578 592.072 111.576C591.929 111.573 591.794 111.513 591.707 111.413L590.361 109.875C590.201 109.692 590.24 109.43 590.448 109.29C590.656 109.149 590.954 109.184 591.113 109.366L592.101 110.494L595.355 107.112C595.524 106.936 595.823 106.914 596.023 107.063Z" fill="#299F79"/>
<path fill-rule="evenodd" clip-rule="evenodd" d="M594.297 94.5855C594.579 94.4282 594.904 94.4085 595.244 94.5116C595.689 94.6467 595.947 95.0341 596.073 95.4379C596.197 95.8333 596.214 96.2918 596.169 96.723C596.124 97.1593 596.013 97.6078 595.845 97.9981C595.681 98.3799 595.442 98.7549 595.117 98.9805C594.896 99.1338 594.606 99.0559 594.47 98.8066C594.335 98.5574 594.404 98.231 594.625 98.0778C594.739 97.9985 594.877 97.821 594.999 97.5359C595.118 97.2593 595.203 96.9266 595.236 96.6007C595.27 96.2698 595.248 95.9852 595.187 95.79C595.129 95.6031 595.057 95.5522 595 95.5349C594.837 95.4856 594.754 95.5132 594.714 95.5355C594.669 95.5602 594.618 95.6128 594.573 95.7197C594.475 95.9546 594.472 96.3073 594.555 96.5442C594.649 96.8167 594.53 97.124 594.288 97.2305C594.046 97.337 593.774 97.2024 593.679 96.9298C593.51 96.4416 593.508 95.785 593.723 95.2681C593.836 94.999 594.02 94.7402 594.297 94.5855Z" fill="#299F79"/>
<path fill-rule="evenodd" clip-rule="evenodd" d="M589.028 94.5855C589.31 94.4282 589.635 94.4085 589.974 94.5116C590.42 94.6467 590.678 95.0341 590.804 95.4379C590.927 95.8333 590.944 96.2918 590.9 96.723C590.855 97.1593 590.743 97.6078 590.575 97.9981C590.411 98.3799 590.172 98.7549 589.847 98.9805C589.626 99.1338 589.337 99.0559 589.201 98.8066C589.065 98.5574 589.134 98.231 589.355 98.0778C589.469 97.9985 589.607 97.821 589.73 97.5359C589.849 97.2593 589.933 96.9266 589.967 96.6007C590.001 96.2698 589.979 95.9852 589.918 95.79C589.859 95.6031 589.787 95.5522 589.73 95.5349C589.568 95.4856 589.484 95.5132 589.444 95.5355C589.4 95.5602 589.348 95.6128 589.304 95.7197C589.206 95.9546 589.203 96.3073 589.285 96.5442C589.379 96.8167 589.26 97.124 589.018 97.2305C588.777 97.337 588.504 97.2024 588.41 96.9298C588.241 96.4416 588.238 95.785 588.454 95.2681C588.566 94.999 588.75 94.7402 589.028 94.5855Z" fill="#299F79"/>
<path d="M429.753 103.67H427.765C426.919 103.67 426.233 104.354 426.233 105.196V113.112V114.258C426.233 114.784 426.857 115.064 427.252 114.715L428.807 113.342C428.976 113.194 429.192 113.112 429.417 113.112H437.216C438.063 113.112 438.749 112.429 438.749 111.586V109.679H430.979C430.302 109.679 429.753 109.132 429.753 108.458V103.67Z" fill="#56E39F"/>
<path fill-rule="evenodd" clip-rule="evenodd" d="M446.445 96.6825H431.053C430.716 96.6825 430.442 96.9563 430.442 97.294V108.371C430.442 108.708 430.716 108.982 431.053 108.982H443.442C443.893 108.982 444.329 109.149 444.665 109.45L447.055 111.595V97.294C447.055 96.9563 446.782 96.6825 446.445 96.6825ZM431.053 95.7651C430.21 95.7651 429.526 96.4496 429.526 97.294V108.371C429.526 109.215 430.21 109.899 431.053 109.899H443.442C443.668 109.899 443.886 109.983 444.054 110.134L446.953 112.736C447.347 113.088 447.972 112.809 447.972 112.28V97.294C447.972 96.4496 447.288 95.7651 446.445 95.7651H431.053Z" fill="#299F79"/>
<path d="M436.114 102.682C436.114 103.228 435.672 103.671 435.126 103.671C434.58 103.671 434.138 103.228 434.138 102.682C434.138 102.137 434.58 101.694 435.126 101.694C435.672 101.694 436.114 102.137 436.114 102.682Z" fill="#299F79"/>
<path d="M439.408 102.682C439.408 103.228 438.966 103.671 438.42 103.671C437.874 103.671 437.432 103.228 437.432 102.682C437.432 102.137 437.874 101.694 438.42 101.694C438.966 101.694 439.408 102.137 439.408 102.682Z" fill="#299F79"/>
<path d="M442.7 102.682C442.7 103.228 442.258 103.671 441.712 103.671C441.166 103.671 440.724 103.228 440.724 102.682C440.724 102.137 441.166 101.694 441.712 101.694C442.258 101.694 442.7 102.137 442.7 102.682Z" fill="#299F79"/>
<rect x="272" y="175" width="484" height="137" rx="4" fill="white"/>
<rect x="272" y="321" width="484" height="137" rx="4" fill="white"/>
<path d="M465.352 214.84C465.912 214.952 466.312 215.016 466.552 215.016C468.872 215.016 469.944 213.544 469.944 211.432V199.976H468.456V211.432C468.456 212.696 467.848 213.56 466.552 213.56C466.104 213.56 465.752 213.512 465.496 213.432L465.352 214.84ZM472.016 207.24C472.016 208.408 472.4 209.352 473.152 210.072C473.904 210.792 474.832 211.16 475.92 211.16C477.008 211.16 477.936 210.792 478.688 210.072C479.456 209.336 479.84 208.392 479.84 207.24C479.84 206.088 479.456 205.16 478.704 204.44C477.952 203.72 477.024 203.368 475.92 203.368C474.816 203.368 473.888 203.72 473.136 204.44C472.384 205.16 472.016 206.088 472.016 207.24ZM478.384 207.24C478.384 207.992 478.144 208.6 477.664 209.064C477.2 209.528 476.608 209.752 475.92 209.752C475.232 209.752 474.64 209.528 474.16 209.064C473.696 208.6 473.456 207.992 473.456 207.24C473.456 206.504 473.696 205.912 474.16 205.464C474.64 205.016 475.232 204.792 475.92 204.792C476.608 204.792 477.2 205.016 477.664 205.464C478.144 205.912 478.384 206.504 478.384 207.24ZM483.218 211V203.528H481.778V211H483.218ZM481.778 201.448C482.178 201.816 482.818 201.816 483.202 201.448C483.602 201.08 483.602 200.472 483.202 200.104C482.818 199.736 482.178 199.736 481.778 200.104C481.394 200.472 481.394 201.08 481.778 201.448ZM487.109 206.968C487.109 205.496 488.053 204.792 489.221 204.792C490.245 204.792 490.869 205.544 490.869 206.776V211H492.325V206.68C492.325 204.568 491.301 203.368 489.445 203.368C488.533 203.368 487.541 203.816 487.109 204.648V203.528H485.653V211H487.109V206.968ZM500.653 200.712H499.197V203.528H497.853V204.76H499.197V211H500.653V204.76H502.237V203.528H500.653V200.712ZM505.343 206.968C505.343 206.232 505.567 205.688 506.031 205.336C506.495 204.968 507.023 204.792 507.615 204.792C508.655 204.792 509.375 205.56 509.375 206.776V211H510.831V206.68C510.847 204.584 509.679 203.368 507.807 203.368C507.343 203.368 506.863 203.48 506.367 203.704C505.887 203.912 505.551 204.232 505.343 204.648V199.464H503.887V211H505.343V206.968ZM514.128 206.68C514.304 205.448 515.232 204.68 516.496 204.68C517.712 204.68 518.592 205.448 518.768 206.68H514.128ZM520.208 207.24C520.208 206.072 519.856 205.144 519.152 204.44C518.464 203.72 517.568 203.368 516.496 203.368C515.408 203.368 514.496 203.72 513.76 204.44C513.04 205.144 512.672 206.072 512.672 207.24C512.672 208.408 513.04 209.352 513.76 210.072C514.496 210.792 515.408 211.16 516.496 211.16C517.984 211.16 519.312 210.456 519.936 209.176L519.328 208.952C519.04 208.84 518.832 208.744 518.688 208.696C518.288 209.416 517.456 209.848 516.544 209.848C515.264 209.848 514.304 209.048 514.128 207.816H520.192C520.208 207.704 520.208 207.512 520.208 207.24ZM529.671 203.368C528.567 203.368 527.639 203.72 526.871 204.44C526.103 205.16 525.719 206.088 525.719 207.24C525.719 208.392 526.103 209.336 526.871 210.072C527.639 210.792 528.567 211.16 529.671 211.16C530.855 211.16 531.815 210.76 532.567 209.944L531.447 209.016C530.983 209.512 530.391 209.752 529.671 209.752C528.983 209.752 528.391 209.512 527.895 209.048C527.399 208.584 527.159 207.976 527.159 207.24C527.159 206.52 527.399 205.928 527.895 205.48C528.391 205.016 528.983 204.792 529.671 204.792C530.391 204.792 530.983 205.032 531.447 205.496L532.551 204.568C531.815 203.768 530.855 203.368 529.671 203.368ZM533.719 207.24C533.719 208.408 534.103 209.352 534.855 210.072C535.607 210.792 536.535 211.16 537.623 211.16C538.711 211.16 539.639 210.792 540.391 210.072C541.159 209.336 541.543 208.392 541.543 207.24C541.543 206.088 541.159 205.16 540.407 204.44C539.655 203.72 538.727 203.368 537.623 203.368C536.519 203.368 535.591 203.72 534.839 204.44C534.087 205.16 533.719 206.088 533.719 207.24ZM540.087 207.24C540.087 207.992 539.847 208.6 539.367 209.064C538.903 209.528 538.311 209.752 537.623 209.752C536.935 209.752 536.343 209.528 535.863 209.064C535.399 208.6 535.159 207.992 535.159 207.24C535.159 206.504 535.399 205.912 535.863 205.464C536.343 205.016 536.935 204.792 537.623 204.792C538.311 204.792 538.903 205.016 539.367 205.464C539.847 205.912 540.087 206.504 540.087 207.24ZM552.073 204.792C553.145 204.792 553.785 205.544 553.785 206.776V211H555.241V206.68C555.241 204.568 554.217 203.368 552.361 203.368C551.161 203.368 550.297 203.88 549.769 204.904C549.417 204.088 548.761 203.592 547.817 203.448C547.561 203.4 547.289 203.384 547.001 203.4C546.249 203.464 545.305 203.896 544.937 204.648V203.528H543.481V211H544.937V206.968C544.937 205.512 545.865 204.792 547.017 204.792C547.993 204.792 548.633 205.544 548.633 206.76V211H550.089V206.968C550.089 205.688 550.857 204.776 552.073 204.792ZM566.166 204.792C567.238 204.792 567.878 205.544 567.878 206.776V211H569.334V206.68C569.334 204.568 568.31 203.368 566.454 203.368C565.254 203.368 564.39 203.88 563.862 204.904C563.51 204.088 562.854 203.592 561.91 203.448C561.654 203.4 561.382 203.384 561.094 203.4C560.342 203.464 559.398 203.896 559.03 204.648V203.528H557.574V211H559.03V206.968C559.03 205.512 559.958 204.792 561.11 204.792C562.086 204.792 562.726 205.544 562.726 206.76V211H564.182V206.968C564.182 205.688 564.95 204.776 566.166 204.792ZM576.788 207.56C576.788 209.048 575.876 209.736 574.676 209.736C573.652 209.736 573.044 208.984 573.044 207.752V203.528H571.588V207.848C571.572 209.96 572.612 211.16 574.468 211.16C575.38 211.16 576.356 210.712 576.788 209.88V211H578.244V203.528H576.788V207.56ZM582.109 206.968C582.109 205.496 583.053 204.792 584.221 204.792C585.245 204.792 585.869 205.544 585.869 206.776V211H587.325V206.68C587.325 204.568 586.301 203.368 584.445 203.368C583.533 203.368 582.541 203.816 582.109 204.648V203.528H580.653V211H582.109V206.968ZM591.108 211V203.528H589.668V211H591.108ZM589.668 201.448C590.068 201.816 590.708 201.816 591.092 201.448C591.492 201.08 591.492 200.472 591.092 200.104C590.708 199.736 590.068 199.736 589.668 200.104C589.284 200.472 589.284 201.08 589.668 201.448ZM595.559 200.712H594.103V203.528H592.759V204.76H594.103V211H595.559V204.76H597.143V203.528H595.559V200.712ZM605.449 203.528H603.897L601.657 208.936L599.417 203.528H597.865L600.857 210.776L599.289 214.632H600.809L605.449 203.528Z" fill="#617084"/>
<path d="M472.12 353.96L473.944 358.856H470.296L472.12 353.96ZM475.528 363H477.096L472.92 351.976H471.32L467.128 363H468.712L469.784 360.2H474.456L475.528 363ZM480.309 352.712H478.853V355.528H477.509V356.76H478.853V363H480.309V356.76H481.893V355.528H480.309V352.712ZM485.559 352.712H484.103V355.528H482.759V356.76H484.103V363H485.559V356.76H487.143V355.528H485.559V352.712ZM489.644 358.68C489.82 357.448 490.748 356.68 492.012 356.68C493.228 356.68 494.108 357.448 494.284 358.68H489.644ZM495.724 359.24C495.724 358.072 495.372 357.144 494.668 356.44C493.98 355.72 493.084 355.368 492.012 355.368C490.924 355.368 490.012 355.72 489.276 356.44C488.556 357.144 488.188 358.072 488.188 359.24C488.188 360.408 488.556 361.352 489.276 362.072C490.012 362.792 490.924 363.16 492.012 363.16C493.5 363.16 494.828 362.456 495.452 361.176L494.844 360.952C494.556 360.84 494.348 360.744 494.204 360.696C493.804 361.416 492.972 361.848 492.06 361.848C490.78 361.848 489.82 361.048 489.644 359.816H495.708C495.724 359.704 495.724 359.512 495.724 359.24ZM499.03 358.968C499.03 357.496 499.974 356.792 501.142 356.792C502.166 356.792 502.79 357.544 502.79 358.776V363H504.246V358.68C504.246 356.568 503.222 355.368 501.366 355.368C500.454 355.368 499.462 355.816 499.03 356.648V355.528H497.574V363H499.03V358.968ZM513.95 363V351.464H512.494V356.648C511.998 355.816 510.99 355.368 509.854 355.368C508.798 355.368 507.902 355.72 507.182 356.44C506.462 357.16 506.094 358.088 506.094 359.256C506.094 360.408 506.462 361.352 507.182 362.072C507.918 362.792 508.814 363.16 509.87 363.16C510.958 363.16 511.998 362.68 512.494 361.848V363H513.95ZM509.998 356.792C510.654 356.792 511.23 357.016 511.726 357.448C512.222 357.88 512.478 358.488 512.478 359.24C512.478 359.992 512.238 360.6 511.742 361.064C511.262 361.512 510.686 361.736 509.998 361.736C509.31 361.736 508.734 361.496 508.27 361.032C507.806 360.568 507.582 359.96 507.582 359.24C507.582 358.52 507.806 357.928 508.27 357.48C508.734 357.016 509.31 356.792 509.998 356.792ZM527.903 363V355.528H526.463V356.648C525.999 355.832 524.927 355.368 523.839 355.368C522.783 355.368 521.887 355.72 521.151 356.44C520.415 357.16 520.047 358.088 520.047 359.256C520.047 360.408 520.415 361.352 521.151 362.072C521.887 362.792 522.783 363.16 523.839 363.16C524.927 363.16 525.967 362.68 526.463 361.848V363H527.903ZM526.447 359.24C526.447 360.008 526.207 360.616 525.727 361.064C525.247 361.512 524.655 361.736 523.967 361.736C523.279 361.736 522.703 361.496 522.239 361.032C521.775 360.568 521.535 359.96 521.535 359.24C521.535 358.52 521.759 357.928 522.223 357.48C522.687 357.016 523.279 356.792 523.967 356.792C524.623 356.792 525.199 357.016 525.695 357.448C526.191 357.88 526.447 358.488 526.447 359.24ZM545.194 355.528H543.642L541.77 360.76L539.898 355.528H538.49L536.618 360.76L534.746 355.528H533.194L536.042 363H537.226L539.194 357.512L541.226 363H542.426L545.194 355.528ZM547.55 358.68C547.726 357.448 548.654 356.68 549.918 356.68C551.134 356.68 552.014 357.448 552.19 358.68H547.55ZM553.63 359.24C553.63 358.072 553.278 357.144 552.574 356.44C551.886 355.72 550.99 355.368 549.918 355.368C548.83 355.368 547.918 355.72 547.182 356.44C546.462 357.144 546.094 358.072 546.094 359.24C546.094 360.408 546.462 361.352 547.182 362.072C547.918 362.792 548.83 363.16 549.918 363.16C551.406 363.16 552.734 362.456 553.358 361.176L552.75 360.952C552.462 360.84 552.254 360.744 552.11 360.696C551.71 361.416 550.878 361.848 549.966 361.848C548.686 361.848 547.726 361.048 547.55 359.816H553.614C553.63 359.704 553.63 359.512 553.63 359.24ZM556.937 361.848C557.433 362.68 558.473 363.16 559.545 363.16C560.601 363.16 561.497 362.792 562.233 362.072C562.969 361.352 563.337 360.408 563.337 359.256C563.337 358.088 562.969 357.16 562.249 356.44C561.529 355.72 560.633 355.368 559.561 355.368C558.425 355.368 557.433 355.816 556.937 356.648V351.464H555.481V363H556.937V361.848ZM556.953 359.24C556.953 358.488 557.209 357.88 557.705 357.448C558.201 357.016 558.777 356.792 559.433 356.792C560.121 356.792 560.681 357.016 561.145 357.48C561.609 357.928 561.849 358.52 561.849 359.24C561.849 359.96 561.609 360.568 561.145 361.032C560.681 361.496 560.121 361.736 559.433 361.736C558.745 361.736 558.153 361.512 557.673 361.064C557.193 360.616 556.953 360.008 556.953 359.24ZM566.718 363V355.528H565.278V363H566.718ZM565.278 353.448C565.678 353.816 566.318 353.816 566.702 353.448C567.102 353.08 567.102 352.472 566.702 352.104C566.318 351.736 565.678 351.736 565.278 352.104C564.894 352.472 564.894 353.08 565.278 353.448ZM570.609 358.968C570.609 357.496 571.553 356.792 572.721 356.792C573.745 356.792 574.369 357.544 574.369 358.776V363H575.825V358.68C575.825 356.568 574.801 355.368 572.945 355.368C572.033 355.368 571.041 355.816 570.609 356.648V355.528H569.153V363H570.609V358.968ZM585.528 363V355.528H584.088V356.648C583.624 355.832 582.552 355.368 581.464 355.368C580.408 355.368 579.512 355.72 578.776 356.44C578.04 357.16 577.672 358.088 577.672 359.256C577.672 360.408 578.04 361.352 578.776 362.072C579.512 362.792 580.408 363.16 581.464 363.16C582.552 363.16 583.592 362.68 584.088 361.848V363H585.528ZM584.072 359.24C584.072 360.008 583.832 360.616 583.352 361.064C582.872 361.512 582.28 361.736 581.592 361.736C580.904 361.736 580.328 361.496 579.864 361.032C579.4 360.568 579.16 359.96 579.16 359.24C579.16 358.52 579.384 357.928 579.848 357.48C580.312 357.016 580.904 356.792 581.592 356.792C582.248 356.792 582.824 357.016 583.32 357.448C583.816 357.88 584.072 358.488 584.072 359.24ZM589.421 360.28C589.421 358.168 590.109 356.76 591.469 356.76C591.853 356.76 592.221 356.84 592.573 357.016L592.797 355.656C592.525 355.464 592.093 355.368 591.501 355.368C590.477 355.368 589.789 355.976 589.421 357.208V355.528H587.965V363H589.421V360.28Z" fill="#617084"/>
<path d="M465 276.066C465 270.806 469.463 266.543 474.969 266.543H521.189C526.695 266.543 531.158 270.806 531.158 276.066C531.158 281.325 526.695 285.588 521.189 285.588H474.969C469.463 285.588 465 281.325 465 276.066Z" fill="#6CE0AD"/>
<path d="M465 424.523C465 419.263 469.463 415 474.969 415H521.189C526.695 415 531.158 419.263 531.158 424.523C531.158 429.782 526.695 434.045 521.189 434.045H474.969C469.463 434.045 465 429.782 465 424.523Z" fill="#6CE0AD"/>
<rect x="477.952" y="274" width="39" height="4" rx="2" fill="#51BD8E"/>
<rect x="477.952" y="422.457" width="39" height="4" rx="2" fill="#51BD8E"/>
<path fill-rule="evenodd" clip-rule="evenodd" d="M741.9 182.661C742.164 182.397 742.592 182.397 742.856 182.661L748.259 188.065C748.523 188.328 748.523 188.756 748.259 189.02C747.996 189.284 747.568 189.284 747.304 189.02L741.9 183.616C741.637 183.353 741.637 182.925 741.9 182.661Z" fill="#7E86A0"/>
<path fill-rule="evenodd" clip-rule="evenodd" d="M741.9 328.477C742.164 328.214 742.592 328.214 742.856 328.477L748.259 333.881C748.523 334.145 748.523 334.573 748.259 334.836C747.996 335.1 747.568 335.1 747.304 334.836L741.9 329.433C741.637 329.169 741.637 328.741 741.9 328.477Z" fill="#7E86A0"/>
<path fill-rule="evenodd" clip-rule="evenodd" d="M748.259 182.661C748.523 182.925 748.523 183.353 748.259 183.616L742.855 189.02C742.591 189.284 742.164 189.284 741.9 189.02C741.636 188.756 741.636 188.329 741.9 188.065L747.304 182.661C747.567 182.397 747.995 182.397 748.259 182.661Z" fill="#7E86A0"/>
<path fill-rule="evenodd" clip-rule="evenodd" d="M748.259 328.478C748.523 328.741 748.523 329.169 748.259 329.433L742.855 334.836C742.591 335.1 742.164 335.1 741.9 334.836C741.636 334.573 741.636 334.145 741.9 333.881L747.304 328.478C747.567 328.214 747.995 328.214 748.259 328.478Z" fill="#7E86A0"/>
<path d="M467.19 229.518L468.531 230.859L467.19 232.199L465.85 230.859L467.19 229.518Z" fill="#CFD0E4"/>
<path d="M467.19 241.674L468.531 243.015L467.19 244.355L465.85 243.015L467.19 241.674Z" fill="#CFD0E4"/>
<path d="M467.19 253.933L468.531 255.273L467.19 256.614L465.85 255.273L467.19 253.933Z" fill="#CFD0E4"/>
<rect x="84" y="379" width="54" height="4" rx="2" fill="#6D88F3"/>
<rect x="84" y="391" width="48" height="4" rx="2" fill="#6D88F3"/>
<rect x="179" y="391" width="48" height="4" rx="2" fill="#6D88F3"/>
<path d="M64 419.734C64 417.377 65.9106 415.466 68.2674 415.466H241.099C243.456 415.466 245.366 417.377 245.366 419.734V436.804C245.366 439.16 243.456 441.071 241.099 441.071H68.2674C65.9106 441.071 64 439.16 64 436.804V419.734Z" fill="#6CE0AD"/>
<rect x="85" y="426" width="140" height="4" rx="2" fill="#51BD8E"/>
<path d="M69.9112 94.4006C69.9112 94.4006 48.0902 147.314 98.394 157.978C148.698 168.642 190.748 169.173 202.036 142.251C213.324 115.329 218.787 87.0895 195.686 70.6753C172.585 54.2612 95.3846 41.0687 69.9112 94.4006Z" fill="#24285B"/>
<path d="M138.227 136.856C138.227 136.856 145.881 134.683 149.583 137.942C153.286 141.201 148.279 148.319 148.279 148.319L138.227 136.856Z" fill="#24285B"/>
<path d="M98.3936 164.127C98.3936 164.127 136.897 128.783 175.594 147.938C175.594 147.938 172.242 184.069 108.265 188.415C108.265 188.415 99.9732 183.476 98.3936 164.127Z" fill="#E6E6E6"/>
<path d="M130.69 91.8774L130.784 101.68L136.153 101.243L133.931 94.2812L130.69 91.8774Z" fill="#F4A28C"/>
<path opacity="0.31" d="M134.48 95.786C133.798 95.7287 133.146 95.4725 132.607 95.0493C132.607 95.0493 132.982 96.8037 135.205 98.221L134.48 95.786Z" fill="#CE8172"/>
<path d="M142.035 105.564C142.136 104.976 142.39 104.424 142.771 103.965C143.153 103.506 143.649 103.155 144.209 102.949C144.77 102.742 145.374 102.687 145.963 102.789C146.551 102.891 147.102 103.146 147.561 103.529C149.989 105.637 151.889 108.284 153.111 111.258C156.664 119.625 158.068 122.959 161.921 121.479C165.773 119.999 173.396 109.479 173.396 109.479L176.362 111.702C176.362 111.702 171.03 125.881 162.364 128.99C154.216 131.937 137.833 129.265 142.035 105.564Z" fill="#46CFCE"/>
<path opacity="0.08" d="M142.035 105.564C142.136 104.976 142.39 104.424 142.771 103.965C143.153 103.506 143.649 103.155 144.209 102.949C144.77 102.742 145.374 102.687 145.963 102.789C146.551 102.891 147.102 103.146 147.561 103.529C149.989 105.637 151.889 108.284 153.111 111.258C156.664 119.625 158.068 122.959 161.921 121.479C165.773 119.999 173.396 109.479 173.396 109.479L176.362 111.702C176.362 111.702 171.03 125.881 162.364 128.99C154.216 131.937 137.833 129.265 142.035 105.564Z" fill="black"/>
<path d="M136.01 90.592C136.33 92.2237 136.431 93.8909 136.309 95.5493C136.249 95.9387 136.038 96.2884 135.721 96.5224C135.404 96.7563 135.007 96.8554 134.617 96.798C133.982 96.7456 133.376 96.5101 132.871 96.12C132.367 95.73 131.987 95.2021 131.777 94.6003L130.609 92.1029C130.427 91.5779 130.411 91.0095 130.564 90.4753C130.717 89.9411 131.032 89.4673 131.464 89.1185C133 87.7574 135.748 88.7814 136.01 90.592Z" fill="#F4A28C"/>
<path d="M135.293 90.7989C134.381 90.9348 133.458 90.9662 132.539 90.8925C132.848 91.2671 133.04 91.7235 133.094 92.2058C133.147 92.6882 133.058 93.1756 132.839 93.6084C132.636 94.0319 132.292 94.3711 131.866 94.5672C131.439 94.7634 130.957 94.8041 130.504 94.6823L130.129 90.8613C130.061 90.3146 130.141 89.7595 130.36 89.2542C130.58 88.7489 130.931 88.312 131.378 87.9893C131.763 87.7101 132.166 87.4557 132.583 87.2276C133.626 86.6657 135.311 87.2276 136.211 86.366C136.301 86.2823 136.412 86.2235 136.533 86.1952C136.653 86.167 136.779 86.1703 136.897 86.2049C137.016 86.2394 137.124 86.304 137.21 86.3924C137.297 86.4808 137.359 86.5899 137.391 86.7094C137.69 87.8582 137.684 89.7062 136.192 90.5179C135.909 90.6599 135.606 90.7548 135.293 90.7989Z" fill="#FFD200"/>
<path d="M133.144 93.4897C133.144 93.4897 133 92.3472 132.151 92.5282C131.302 92.7093 131.527 94.3638 132.688 94.4013L133.144 93.4897Z" fill="#F4A28C"/>
<path d="M136.279 92.459L137.234 93.5141C137.288 93.5743 137.325 93.6471 137.344 93.7258C137.362 93.8045 137.36 93.8865 137.338 93.9642C137.317 94.042 137.276 94.113 137.219 94.1708C137.163 94.2285 137.093 94.2711 137.015 94.2946L135.91 94.6317L136.279 92.459Z" fill="#F4A28C"/>
<path d="M128.774 99.8883L135.061 99.395C135.061 99.395 148.067 99.395 150.495 108.242C152.924 117.089 142.516 139.097 142.516 139.097L119.465 139.959C119.465 139.959 117.592 128.178 118.092 117.601C118.591 107.025 119.016 101.774 128.774 99.8883Z" fill="#46CFCE"/>
<path opacity="0.08" d="M136.154 109.804C136.154 109.804 135.192 119.169 129.192 121.042C123.192 122.915 122.949 135.071 128.006 139.641L119.465 139.96C118.223 132.07 117.788 124.075 118.166 116.097C118.934 103.991 136.154 109.804 136.154 109.804Z" fill="black"/>
<path d="M135.654 111.215C138.408 105.327 132.982 98.884 126.664 100.42C118.953 102.293 107.802 106.108 104.643 112.988C99.6479 123.827 95.6084 133.71 95.6084 133.71L100.903 135.714C100.903 135.714 111.979 112.576 123.91 115.735C129.96 117.321 133.918 114.942 135.654 111.215Z" fill="#46CFCE"/>
<path opacity="0.08" d="M121.494 149.3C121.494 149.3 125.24 153.67 134.431 152.278L126.089 160.457C125.601 160.933 125.263 161.541 125.116 162.206C124.968 162.871 125.018 163.565 125.259 164.203L126.021 166.238C126.156 166.604 126.368 166.935 126.644 167.21C126.92 167.485 127.252 167.697 127.618 167.832C127.984 167.966 128.374 168.019 128.762 167.987C129.151 167.956 129.527 167.841 129.867 167.649C135.305 164.59 147.13 156.486 150.938 142.263C150.938 142.263 147.554 142.319 145.188 142.519C142.822 142.719 125.733 146.609 121.494 149.3Z" fill="black"/>
<path opacity="0.44" d="M135.654 111.215C138.408 105.327 132.982 98.884 126.664 100.42C118.953 102.293 107.802 106.108 104.643 112.988C99.6479 123.827 95.6084 133.71 95.6084 133.71L100.903 135.714C100.903 135.714 111.979 112.576 123.91 115.735C129.96 117.321 133.918 114.942 135.654 111.215Z" fill="white"/>
<path d="M119.465 139.941C119.465 139.941 138.695 133.235 144.62 139.26C150.545 145.285 130.69 159.895 130.69 159.895L128.131 156.836L135.91 146.958C135.91 146.958 118.204 151.785 119.465 139.941Z" fill="#24285B"/>
<path d="M116 152.041L101.896 148.294L78.0518 157.585L98.3931 164.103C98.3931 164.103 111.735 155.212 116 152.041Z" fill="#C7C9C9"/>
<path d="M130.591 185.182L125.178 198.262L100.703 207.371L108.258 188.416C108.258 188.416 123.398 187.155 130.591 185.182Z" fill="#C7C9C9"/>
<path d="M128.824 157.661L126.951 157.804C126.794 157.817 126.643 157.865 126.507 157.944C126.371 158.023 126.254 158.131 126.166 158.261C126.077 158.391 126.019 158.539 125.995 158.694C125.971 158.85 125.982 159.009 126.027 159.159L127.276 163.311C127.326 163.476 127.427 163.621 127.564 163.725C127.702 163.829 127.868 163.888 128.04 163.893C128.213 163.898 128.382 163.848 128.525 163.752C128.668 163.655 128.777 163.516 128.837 163.355L130.285 159.378L128.824 157.661Z" fill="#46CFCE"/>
<path d="M173.921 109.89C173.921 109.89 175.894 105.975 177.767 105.975C179.64 105.975 177.143 108.404 177.143 108.404C177.143 108.404 179.64 110.751 176.331 111.719L173.921 109.89Z" fill="#F4A28C"/>
<path d="M97.0261 134.247C97.0261 134.247 92.8804 139.947 97.0261 139.941C101.172 139.934 100.903 135.714 100.903 135.714L97.0261 134.247Z" fill="#F4A28C"/>
<path opacity="0.3" d="M99.2986 170.884L77.9833 172.132L85.438 176.815L59.1279 190.232L92.8927 188.416L90.3267 197.781L105.992 186.336C105.992 186.336 100.017 175.666 99.2986 170.884Z" fill="#E6E6E6"/>
<path d="M112.441 86.6157C113.541 86.6157 114.433 85.724 114.433 84.624C114.433 83.524 113.541 82.6323 112.441 82.6323C111.341 82.6323 110.449 83.524 110.449 84.624C110.449 85.724 111.341 86.6157 112.441 86.6157Z" fill="#FFD200"/>
<path d="M160.372 66.1799C161.168 66.1799 161.814 65.5342 161.814 64.7377C161.814 63.9411 161.168 63.2954 160.372 63.2954C159.575 63.2954 158.93 63.9411 158.93 64.7377C158.93 65.5342 159.575 66.1799 160.372 66.1799Z" fill="white"/>
<path d="M183.149 132.224C183.659 132.224 184.073 131.81 184.073 131.3C184.073 130.789 183.659 130.375 183.149 130.375C182.638 130.375 182.225 130.789 182.225 131.3C182.225 131.81 182.638 132.224 183.149 132.224Z" fill="white"/>
<path d="M70.341 115.903C70.8514 115.903 71.2651 115.489 71.2651 114.979C71.2651 114.468 70.8514 114.055 70.341 114.055C69.8307 114.055 69.417 114.468 69.417 114.979C69.417 115.489 69.8307 115.903 70.341 115.903Z" fill="white"/>
<path d="M126.62 66.3178C127.131 66.3178 127.544 65.9041 127.544 65.3938C127.544 64.8834 127.131 64.4697 126.62 64.4697C126.11 64.4697 125.696 64.8834 125.696 65.3938C125.696 65.9041 126.11 66.3178 126.62 66.3178Z" fill="white"/>
<path d="M106.49 143.736C107.001 143.736 107.414 143.323 107.414 142.812C107.414 142.302 107.001 141.888 106.49 141.888C105.98 141.888 105.566 142.302 105.566 142.812C105.566 143.323 105.98 143.736 106.49 143.736Z" fill="white"/>
<path d="M83.8524 142.108C84.0179 142.108 84.1521 141.973 84.1521 141.808C84.1521 141.642 84.0179 141.508 83.8524 141.508C83.6869 141.508 83.5527 141.642 83.5527 141.808C83.5527 141.973 83.6869 142.108 83.8524 142.108Z" fill="white"/>
<path d="M97.2382 74.9397C97.4037 74.9397 97.5378 74.8055 97.5378 74.64C97.5378 74.4745 97.4037 74.3403 97.2382 74.3403C97.0726 74.3403 96.9385 74.4745 96.9385 74.64C96.9385 74.8055 97.0726 74.9397 97.2382 74.9397Z" fill="white"/>
<path d="M149.396 78.9348C149.562 78.9348 149.696 78.8006 149.696 78.6351C149.696 78.4696 149.562 78.3354 149.396 78.3354C149.231 78.3354 149.097 78.4696 149.097 78.6351C149.097 78.8006 149.231 78.9348 149.396 78.9348Z" fill="white"/>
<path d="M114.246 128.971C114.411 128.971 114.546 128.837 114.546 128.671C114.546 128.506 114.411 128.372 114.246 128.372C114.08 128.372 113.946 128.506 113.946 128.671C113.946 128.837 114.08 128.971 114.246 128.971Z" fill="white"/>
<path d="M163.981 102.817C164.147 102.817 164.281 102.683 164.281 102.517C164.281 102.352 164.147 102.218 163.981 102.218C163.816 102.218 163.682 102.352 163.682 102.517C163.682 102.683 163.816 102.817 163.981 102.817Z" fill="white"/>
<path d="M91.244 110.615C91.4095 110.615 91.5437 110.48 91.5437 110.315C91.5437 110.149 91.4095 110.015 91.244 110.015C91.0785 110.015 90.9443 110.149 90.9443 110.315C90.9443 110.48 91.0785 110.615 91.244 110.615Z" fill="white"/>
<path d="M201.067 110.408C201.233 110.408 201.367 110.274 201.367 110.109C201.367 109.943 201.233 109.809 201.067 109.809C200.902 109.809 200.768 109.943 200.768 110.109C200.768 110.274 200.902 110.408 201.067 110.408Z" fill="white"/>
<path d="M194.48 73.4041C194.646 73.4041 194.78 73.2699 194.78 73.1044C194.78 72.9389 194.646 72.8047 194.48 72.8047C194.315 72.8047 194.181 72.9389 194.181 73.1044C194.181 73.2699 194.315 73.4041 194.48 73.4041Z" fill="white"/>
<path d="M181.194 151.291C181.36 151.291 181.494 151.157 181.494 150.991C181.494 150.826 181.36 150.691 181.194 150.691C181.029 150.691 180.895 150.826 180.895 150.991C180.895 151.157 181.029 151.291 181.194 151.291Z" fill="white"/>
<path d="M156.645 136.838C156.811 136.838 156.945 136.703 156.945 136.538C156.945 136.372 156.811 136.238 156.645 136.238C156.48 136.238 156.346 136.372 156.346 136.538C156.346 136.703 156.48 136.838 156.645 136.838Z" fill="white"/>
<path d="M182.486 100.982C190.421 100.982 196.853 94.5501 196.853 86.6158C196.853 78.6815 190.421 72.2495 182.486 72.2495C174.552 72.2495 168.12 78.6815 168.12 86.6158C168.12 94.5501 174.552 100.982 182.486 100.982Z" fill="#FFD200"/>
<path d="M169.144 81.2891C169.144 81.2891 160.329 81.4389 159.742 87.2828C159.155 93.1267 186.813 97.697 196.859 96.5169C206.905 95.3369 207.735 90.0424 196.859 85.466C196.859 85.466 197.727 91.0289 190.247 90.5856C181.45 90.0299 165.429 89.3432 169.144 81.2891Z" fill="#FFD200"/>
<path opacity="0.44" d="M169.144 81.2891C169.144 81.2891 160.329 81.4389 159.742 87.2828C159.155 93.1267 186.813 97.697 196.859 96.5169C206.905 95.3369 207.735 90.0424 196.859 85.466C196.859 85.466 197.727 91.0289 190.247 90.5856C181.45 90.0299 165.429 89.3432 169.144 81.2891Z" fill="white"/>
<path opacity="0.08" d="M179.933 78.8472C181.685 78.8472 183.105 77.7739 183.105 76.4497C183.105 75.1256 181.685 74.0522 179.933 74.0522C178.182 74.0522 176.762 75.1256 176.762 76.4497C176.762 77.7739 178.182 78.8472 179.933 78.8472Z" fill="black"/>
<path opacity="0.08" d="M188.934 78.4062C189.477 77.6591 189.118 76.4711 188.131 75.7527C187.144 75.0344 185.904 75.0577 185.36 75.8049C184.816 76.552 185.175 77.74 186.162 78.4584C187.149 79.1767 188.39 79.1534 188.934 78.4062Z" fill="black"/>
<path opacity="0.08" d="M183.892 82.1457C184.816 82.1457 185.565 81.5782 185.565 80.8783C185.565 80.1783 184.816 79.6108 183.892 79.6108C182.968 79.6108 182.219 80.1783 182.219 80.8783C182.219 81.5782 182.968 82.1457 183.892 82.1457Z" fill="black"/>
<path d="M201.28 147.62C206.511 147.62 210.751 143.379 210.751 138.148C210.751 132.917 206.511 128.677 201.28 128.677C196.049 128.677 191.809 132.917 191.809 138.148C191.809 143.379 196.049 147.62 201.28 147.62Z" fill="#46CFCE"/>
<path opacity="0.08" d="M207.402 136.308C208.037 135.436 207.618 134.049 206.467 133.211C205.315 132.373 203.867 132.401 203.232 133.274C202.597 134.146 203.015 135.533 204.167 136.371C205.318 137.209 206.766 137.181 207.402 136.308Z" fill="black"/>
<path opacity="0.08" d="M199.332 134.79C200.408 134.79 201.28 134.13 201.28 133.316C201.28 132.502 200.408 131.843 199.332 131.843C198.256 131.843 197.384 132.502 197.384 133.316C197.384 134.13 198.256 134.79 199.332 134.79Z" fill="black"/>
<path d="M79.7257 105.246C86.2048 105.246 91.4572 99.9939 91.4572 93.5147C91.4572 87.0356 86.2048 81.7832 79.7257 81.7832C73.2465 81.7832 67.9941 87.0356 67.9941 93.5147C67.9941 99.9939 73.2465 105.246 79.7257 105.246Z" fill="#46CFCE"/>
<path opacity="0.08" d="M80.7826 89.449C82.5283 89.2099 83.7967 87.9442 83.6156 86.6221C83.4344 85.3 81.8724 84.4221 80.1267 84.6612C78.381 84.9004 77.1126 86.166 77.2937 87.4881C77.4748 88.8102 79.0368 89.6881 80.7826 89.449Z" fill="black"/>
<path opacity="0.08" d="M75.1113 92.1894C76.0735 91.2648 76.286 89.9247 75.5859 89.1962C74.8859 88.4677 73.5384 88.6267 72.5762 89.5514C71.614 90.476 71.4015 91.8161 72.1015 92.5446C72.8016 93.2731 74.1491 93.1141 75.1113 92.1894Z" fill="black"/>
<path d="M64 233.3C64 227.85 68.4183 223.432 73.8685 223.432H119.743C125.194 223.432 129.612 227.85 129.612 233.3C129.612 238.75 125.194 243.169 119.743 243.169H73.8685C68.4183 243.169 64 238.75 64 233.3Z" fill="#FF5574"/>
<rect x="77" y="231" width="39" height="4" rx="2" fill="#FF879D"/>
<path fill-rule="evenodd" clip-rule="evenodd" d="M72.8397 341.128L68.031 346.899L64.9512 343.989L65.6838 343.214L67.9383 345.343L72.0201 340.445L72.8397 341.128Z" fill="#46CFCE"/>
<path fill-rule="evenodd" clip-rule="evenodd" d="M72.8397 377.935L68.031 383.705L64.9512 380.796L65.6838 380.02L67.9383 382.15L72.0201 377.252L72.8397 377.935Z" fill="#46CFCE"/>
<path fill-rule="evenodd" clip-rule="evenodd" d="M167.79 341.129L162.981 346.899L159.901 343.99L160.634 343.214L162.888 345.344L166.97 340.446L167.79 341.129Z" fill="#46CFCE"/>
<path fill-rule="evenodd" clip-rule="evenodd" d="M167.79 377.935L162.981 383.706L159.901 380.796L160.634 380.021L162.888 382.151L166.97 377.252L167.79 377.935Z" fill="#46CFCE"/>
<rect x="475.952" y="229" width="117" height="4" rx="2" fill="#D5DDE7"/>
<rect x="468.952" y="378" width="188" height="4" rx="2" fill="#D5DDE7"/>
<rect x="468.952" y="390" width="117" height="4" rx="2" fill="#D5DDE7"/>
<rect x="475.952" y="241" width="138" height="4" rx="2" fill="#D5DDE7"/>
<rect x="475.952" y="253" width="131" height="4" rx="2" fill="#D5DDE7"/>
<path fill-rule="evenodd" clip-rule="evenodd" d="M484.012 278.356C484.395 278.259 484.743 278.607 484.646 278.99L481.514 291.414C481.414 291.807 480.925 291.942 480.638 291.655L477.623 288.64L475.444 290.819C475.241 291.023 474.91 291.023 474.706 290.819L472.183 288.296C471.979 288.092 471.979 287.761 472.183 287.557L474.362 285.379L471.347 282.364C471.061 282.077 471.196 281.588 471.589 281.489L484.012 278.356Z" fill="black"/>
<path fill-rule="evenodd" clip-rule="evenodd" d="M485.658 279.245C485.948 278.096 484.906 277.054 483.757 277.344L471.333 280.476C470.154 280.773 469.749 282.242 470.609 283.102L472.886 285.378L471.445 286.819C470.833 287.431 470.833 288.422 471.445 289.034L473.968 291.557C474.58 292.169 475.571 292.169 476.183 291.557L477.623 290.116L479.9 292.393C480.76 293.253 482.229 292.848 482.526 291.669L485.658 279.245ZM471.347 282.364C471.061 282.077 471.196 281.588 471.589 281.488L484.012 278.356C484.395 278.259 484.743 278.607 484.646 278.99L481.514 291.413C481.415 291.806 480.925 291.941 480.638 291.655L477.623 288.64L475.444 290.819C475.241 291.023 474.91 291.023 474.706 290.819L472.183 288.296C471.979 288.092 471.979 287.761 472.183 287.557L474.362 285.378L471.347 282.364Z" fill="white"/>
<path d="M71.952 285.208C71.952 285.944 71.712 286.552 71.216 287.016C70.72 287.48 70.128 287.72 69.424 287.72C68.72 287.72 68.128 287.48 67.632 287.016C67.136 286.552 66.896 285.944 66.896 285.208V277.976H65.392V285.208C65.392 286.376 65.776 287.336 66.56 288.072C67.344 288.792 68.304 289.16 69.424 289.16C70.544 289.16 71.488 288.792 72.272 288.072C73.056 287.336 73.456 286.376 73.456 285.208V277.976H71.952V285.208ZM77.422 284.968C77.422 283.496 78.366 282.792 79.534 282.792C80.558 282.792 81.182 283.544 81.182 284.776V289H82.638V284.68C82.638 282.568 81.614 281.368 79.758 281.368C78.846 281.368 77.854 281.816 77.422 282.648V281.528H75.966V289H77.422V284.968ZM84.9816 289H86.4376V277.464H84.9816V289ZM88.3763 285.24C88.3763 286.408 88.7603 287.352 89.5123 288.072C90.2643 288.792 91.1923 289.16 92.2803 289.16C93.3683 289.16 94.2963 288.792 95.0483 288.072C95.8163 287.336 96.2003 286.392 96.2003 285.24C96.2003 284.088 95.8163 283.16 95.0643 282.44C94.3123 281.72 93.3843 281.368 92.2803 281.368C91.1763 281.368 90.2483 281.72 89.4963 282.44C88.7443 283.16 88.3763 284.088 88.3763 285.24ZM94.7443 285.24C94.7443 285.992 94.5043 286.6 94.0243 287.064C93.5603 287.528 92.9683 287.752 92.2803 287.752C91.5923 287.752 91.0003 287.528 90.5203 287.064C90.0563 286.6 89.8163 285.992 89.8163 285.24C89.8163 284.504 90.0563 283.912 90.5203 283.464C91.0003 283.016 91.5923 282.792 92.2803 282.792C92.9683 282.792 93.5603 283.016 94.0243 283.464C94.5043 283.912 94.7443 284.504 94.7443 285.24ZM101.594 281.368C100.49 281.368 99.5619 281.72 98.7939 282.44C98.0259 283.16 97.6419 284.088 97.6419 285.24C97.6419 286.392 98.0259 287.336 98.7939 288.072C99.5619 288.792 100.49 289.16 101.594 289.16C102.778 289.16 103.738 288.76 104.49 287.944L103.37 287.016C102.906 287.512 102.314 287.752 101.594 287.752C100.906 287.752 100.314 287.512 99.8179 287.048C99.3219 286.584 99.0819 285.976 99.0819 285.24C99.0819 284.52 99.3219 283.928 99.8179 283.48C100.314 283.016 100.906 282.792 101.594 282.792C102.314 282.792 102.906 283.032 103.37 283.496L104.474 282.568C103.738 281.768 102.778 281.368 101.594 281.368ZM111.173 289H113.093L109.125 284.76L112.325 281.528H110.341L107.765 284.136V277.464H106.325V289H107.765V285.352L111.173 289ZM120.341 278.712H118.885V281.528H117.541V282.76H118.885V289H120.341V282.76H121.925V281.528H120.341V278.712ZM125.031 284.968C125.031 284.232 125.255 283.688 125.719 283.336C126.183 282.968 126.711 282.792 127.303 282.792C128.343 282.792 129.063 283.56 129.063 284.776V289H130.519V284.68C130.535 282.584 129.367 281.368 127.495 281.368C127.031 281.368 126.551 281.48 126.055 281.704C125.575 281.912 125.239 282.232 125.031 282.648V277.464H123.575V289H125.031V284.968ZM133.817 284.68C133.993 283.448 134.921 282.68 136.185 282.68C137.401 282.68 138.281 283.448 138.457 284.68H133.817ZM139.897 285.24C139.897 284.072 139.545 283.144 138.841 282.44C138.153 281.72 137.257 281.368 136.185 281.368C135.097 281.368 134.185 281.72 133.449 282.44C132.729 283.144 132.361 284.072 132.361 285.24C132.361 286.408 132.729 287.352 133.449 288.072C134.185 288.792 135.097 289.16 136.185 289.16C137.673 289.16 139.001 288.456 139.625 287.176L139.017 286.952C138.729 286.84 138.521 286.744 138.377 286.696C137.977 287.416 137.145 287.848 136.233 287.848C134.953 287.848 133.993 287.048 133.817 285.816H139.881C139.897 285.704 139.897 285.512 139.897 285.24ZM144.467 285.944C145.091 286.088 145.475 286.376 145.459 286.888C145.443 287.416 145.011 287.816 144.323 287.864C143.859 287.896 143.475 287.816 143.139 287.608C142.803 287.432 142.595 287.16 142.531 286.76H141.203C141.219 287.48 141.507 288.072 142.067 288.504C142.627 288.936 143.267 289.16 143.987 289.16C144.803 289.16 145.475 288.952 146.035 288.552C146.595 288.136 146.883 287.592 146.883 286.92C146.883 285.784 146.243 285.064 144.947 284.744L143.843 284.472C143.379 284.328 143.075 284.136 142.963 283.896C142.883 283.736 142.883 283.544 142.947 283.304C143.059 282.904 143.507 282.632 144.067 282.632C144.659 282.632 145.155 282.952 145.235 283.48H146.627C146.499 282.056 145.427 281.368 144.035 281.368C143.363 281.368 142.771 281.544 142.275 281.912C141.779 282.28 141.491 282.728 141.443 283.272C141.315 284.6 142.019 285.32 143.443 285.704L144.467 285.944ZM149.739 284.68C149.914 283.448 150.843 282.68 152.107 282.68C153.323 282.68 154.203 283.448 154.379 284.68H149.739ZM155.819 285.24C155.819 284.072 155.467 283.144 154.763 282.44C154.075 281.72 153.179 281.368 152.107 281.368C151.019 281.368 150.107 281.72 149.371 282.44C148.651 283.144 148.283 284.072 148.283 285.24C148.283 286.408 148.651 287.352 149.371 288.072C150.107 288.792 151.019 289.16 152.107 289.16C153.595 289.16 154.923 288.456 155.547 287.176L154.939 286.952C154.651 286.84 154.443 286.744 154.299 286.696C153.899 287.416 153.067 287.848 152.155 287.848C150.875 287.848 149.914 287.048 149.739 285.816H155.803C155.819 285.704 155.819 285.512 155.819 285.24ZM165.127 277.464C163.191 277.464 162.263 278.712 162.263 280.776V281.528H160.823V282.76H162.263V289H163.735V282.76H165.463V281.528H163.735V280.776C163.719 279.496 164.183 278.856 165.127 278.856H165.943V277.464H165.127ZM167.942 284.68C168.118 283.448 169.046 282.68 170.31 282.68C171.526 282.68 172.406 283.448 172.582 284.68H167.942ZM174.022 285.24C174.022 284.072 173.67 283.144 172.966 282.44C172.278 281.72 171.382 281.368 170.31 281.368C169.222 281.368 168.31 281.72 167.574 282.44C166.854 283.144 166.486 284.072 166.486 285.24C166.486 286.408 166.854 287.352 167.574 288.072C168.31 288.792 169.222 289.16 170.31 289.16C171.798 289.16 173.126 288.456 173.75 287.176L173.142 286.952C172.854 286.84 172.646 286.744 172.502 286.696C172.102 287.416 171.27 287.848 170.358 287.848C169.078 287.848 168.118 287.048 167.942 285.816H174.006C174.022 285.704 174.022 285.512 174.022 285.24ZM183.232 289V281.528H181.792V282.648C181.328 281.832 180.256 281.368 179.168 281.368C178.112 281.368 177.216 281.72 176.48 282.44C175.744 283.16 175.376 284.088 175.376 285.256C175.376 286.408 175.744 287.352 176.48 288.072C177.216 288.792 178.112 289.16 179.168 289.16C180.256 289.16 181.296 288.68 181.792 287.848V289H183.232ZM181.776 285.24C181.776 286.008 181.536 286.616 181.056 287.064C180.576 287.512 179.984 287.736 179.296 287.736C178.608 287.736 178.032 287.496 177.568 287.032C177.104 286.568 176.864 285.96 176.864 285.24C176.864 284.52 177.088 283.928 177.552 283.48C178.016 283.016 178.608 282.792 179.296 282.792C179.952 282.792 180.528 283.016 181.024 283.448C181.52 283.88 181.776 284.488 181.776 285.24ZM187.685 278.712H186.229V281.528H184.885V282.76H186.229V289H187.685V282.76H189.269V281.528H187.685V278.712ZM196.039 285.56C196.039 287.048 195.127 287.736 193.927 287.736C192.903 287.736 192.295 286.984 192.295 285.752V281.528H190.839V285.848C190.823 287.96 191.863 289.16 193.719 289.16C194.631 289.16 195.607 288.712 196.039 287.88V289H197.495V281.528H196.039V285.56ZM201.36 286.28C201.36 284.168 202.048 282.76 203.408 282.76C203.792 282.76 204.16 282.84 204.512 283.016L204.736 281.656C204.464 281.464 204.032 281.368 203.44 281.368C202.416 281.368 201.728 281.976 201.36 283.208V281.528H199.904V289H201.36V286.28ZM206.989 284.68C207.164 283.448 208.093 282.68 209.357 282.68C210.573 282.68 211.453 283.448 211.629 284.68H206.989ZM213.069 285.24C213.069 284.072 212.717 283.144 212.013 282.44C211.325 281.72 210.429 281.368 209.357 281.368C208.269 281.368 207.357 281.72 206.621 282.44C205.901 283.144 205.533 284.072 205.533 285.24C205.533 286.408 205.901 287.352 206.621 288.072C207.357 288.792 208.269 289.16 209.357 289.16C210.845 289.16 212.173 288.456 212.797 287.176L212.189 286.952C211.901 286.84 211.693 286.744 211.549 286.696C211.149 287.416 210.317 287.848 209.405 287.848C208.125 287.848 207.164 287.048 206.989 285.816H213.053C213.069 285.704 213.069 285.512 213.069 285.24ZM217.639 285.944C218.263 286.088 218.647 286.376 218.631 286.888C218.615 287.416 218.183 287.816 217.495 287.864C217.031 287.896 216.647 287.816 216.311 287.608C215.975 287.432 215.767 287.16 215.703 286.76H214.375C214.391 287.48 214.679 288.072 215.239 288.504C215.799 288.936 216.439 289.16 217.159 289.16C217.975 289.16 218.647 288.952 219.207 288.552C219.767 288.136 220.055 287.592 220.055 286.92C220.055 285.784 219.415 285.064 218.119 284.744L217.015 284.472C216.551 284.328 216.247 284.136 216.135 283.896C216.055 283.736 216.055 283.544 216.119 283.304C216.231 282.904 216.679 282.632 217.239 282.632C217.831 282.632 218.327 282.952 218.407 283.48H219.799C219.671 282.056 218.599 281.368 217.207 281.368C216.535 281.368 215.943 281.544 215.447 281.912C214.951 282.28 214.663 282.728 214.615 283.272C214.487 284.6 215.191 285.32 216.615 285.704L217.639 285.944Z" fill="white"/>
<rect x="65" y="304" width="181" height="4" rx="2" fill="#6D88F3"/>
<rect x="65" y="316" width="113" height="4" rx="2" fill="#6D88F3"/>
<rect x="84" y="341" width="54" height="4" rx="2" fill="#6D88F3"/>
<rect x="179" y="341" width="54" height="4" rx="2" fill="#6D88F3"/>
<rect x="84" y="353" width="48" height="4" rx="2" fill="#6D88F3"/>
<rect x="179" y="353" width="48" height="4" rx="2" fill="#6D88F3"/>
<path fill-rule="evenodd" clip-rule="evenodd" d="M186.355 430.99C186.259 430.607 186.606 430.259 186.989 430.356L199.413 433.488C199.806 433.587 199.941 434.077 199.655 434.364L196.64 437.379L198.818 439.558C199.022 439.761 199.022 440.092 198.818 440.296L196.295 442.819C196.091 443.023 195.761 443.023 195.557 442.819L193.378 440.64L190.363 443.655C190.077 443.941 189.587 443.806 189.488 443.413L186.355 430.99Z" fill="black"/>
<path fill-rule="evenodd" clip-rule="evenodd" d="M187.244 429.343C186.095 429.054 185.053 430.096 185.343 431.245L188.476 443.669C188.773 444.847 190.242 445.253 191.101 444.393L193.378 442.116L194.819 443.557C195.43 444.169 196.422 444.169 197.033 443.557L199.557 441.034C200.168 440.422 200.168 439.431 199.557 438.819L198.116 437.379L200.393 435.102C201.252 434.242 200.847 432.773 199.668 432.476L187.244 429.343ZM190.363 443.655C190.077 443.941 189.587 443.806 189.488 443.413L186.355 430.99C186.259 430.607 186.606 430.259 186.989 430.356L199.413 433.488C199.806 433.587 199.941 434.077 199.654 434.364L196.639 437.379L198.818 439.557C199.022 439.761 199.022 440.092 198.818 440.296L196.295 442.819C196.091 443.023 195.761 443.023 195.557 442.819L193.378 440.64L190.363 443.655Z" fill="white"/>
<path d="M272 179C272 176.791 273.791 175 276 175H409V312H276C273.791 312 272 310.209 272 308V179Z" fill="#F9EEDA"/>
<path d="M272 325C272 322.791 273.791 321 276 321H409V458H276C273.791 458 272 456.209 272 454V325Z" fill="#CFF5F5"/>
<circle cx="341" cy="243" r="27" fill="#FADA99"/>
<circle cx="341" cy="389" r="27" fill="#6DD8D8"/>
<defs>
<filter id="filter0_d" x="0" y="0" width="796" height="497" filterUnits="userSpaceOnUse" color-interpolation-filters="sRGB">
<feFlood flood-opacity="0" result="BackgroundImageFix"/>
<feColorMatrix in="SourceAlpha" type="matrix" values="0 0 0 0 0 0 0 0 0 0 0 0 0 0 0 0 0 0 127 0" result="hardAlpha"/>
<feOffset/>
<feGaussianBlur stdDeviation="12"/>
<feComposite in2="hardAlpha" operator="out"/>
<feColorMatrix type="matrix" values="0 0 0 0 0.0627451 0 0 0 0 0.24651 0 0 0 0 0.898039 0 0 0 0.5 0"/>
<feBlend mode="normal" in2="BackgroundImageFix" result="effect1_dropShadow"/>
<feBlend mode="normal" in="SourceGraphic" in2="effect1_dropShadow" result="shape"/>
</filter>
</defs>
</svg>
