<svg width="120" height="34" viewBox="0 0 120 34" fill="none" xmlns="http://www.w3.org/2000/svg">
<g clip-path="url(#clip0_1004_3654)">
<path d="M118.115 8.21533C117.508 8.21533 117.033 8.70919 117.033 9.29801V14.2935C115.893 13.2869 114.411 12.679 112.759 12.679C109.207 12.679 106.32 15.5662 106.32 19.1181C106.32 22.6702 109.207 25.5573 112.759 25.5573C116.311 25.5573 119.198 22.6702 119.198 19.1181V9.29801C119.198 8.70919 118.704 8.21533 118.115 8.21533ZM117.014 19.1181C117.014 21.4735 115.095 23.3919 112.74 23.3919C110.385 23.3919 108.466 21.4735 108.466 19.1181C108.466 16.7629 110.385 14.8444 112.74 14.8444C115.114 14.8634 117.014 16.7818 117.014 19.1181Z" fill="#B6A2D7"/>
<path d="M96.5242 19.1182C96.5242 15.5662 93.6371 12.6791 90.0852 12.6791C86.5331 12.6791 83.646 15.5662 83.646 19.1182C83.646 22.6702 86.5331 25.5574 90.0852 25.5574C91.7187 25.5574 93.2193 24.9494 94.3588 23.9428V24.4747C94.3588 25.0824 94.8528 25.5574 95.4416 25.5574C96.0495 25.5574 96.5242 25.0634 96.5242 24.4747V19.1182ZM90.0852 23.392C87.7298 23.392 85.8114 21.4735 85.8114 19.1182C85.8114 16.7629 87.7298 14.8445 90.0852 14.8445C92.4404 14.8445 94.3588 16.7629 94.3588 19.1182C94.3399 21.4735 92.4404 23.392 90.0852 23.392Z" fill="#B6A2D7"/>
<path d="M80.3169 12.6791C79.7091 12.6791 79.2343 13.1729 79.2343 13.7618V18.9662V19.1182C79.2343 21.4735 77.3157 23.392 74.9605 23.392C72.6051 23.392 70.6867 21.4735 70.6867 19.1182V18.9662V13.7618C70.6867 13.1539 70.1929 12.6791 69.604 12.6791C68.9962 12.6791 68.5213 13.1729 68.5213 13.7618V18.9662V19.1182C68.5213 22.2902 70.8387 24.9494 73.8778 25.4623V28.9383C73.8778 29.5461 74.3716 30.021 74.9605 30.021C75.5683 30.021 76.0432 29.5272 76.0432 28.9383V25.4623C79.0822 24.9494 81.3995 22.2902 81.3995 19.1182V18.9662V13.7618C81.3995 13.1729 80.9057 12.6791 80.3169 12.6791Z" fill="#B6A2D7"/>
<path d="M106.265 13.5907C106.265 13.5528 106.246 13.4958 106.227 13.4388C106.17 13.2868 106.094 13.1349 105.98 13.0209C105.885 12.9259 105.771 12.85 105.638 12.793C105.505 12.736 105.354 12.698 105.221 12.698C103.473 12.698 101.84 13.3818 100.624 14.6355C99.4272 15.851 98.7813 17.4466 98.7813 19.1561V24.5126C98.7813 25.1204 99.2753 25.5953 99.864 25.5953C100.453 25.5953 100.947 25.1013 100.947 24.5126V19.1561C100.947 16.8009 102.865 14.8823 105.221 14.8823C105.809 14.8823 106.303 14.3885 106.303 13.7997C106.284 13.7047 106.265 13.6477 106.265 13.5907Z" fill="#B6A2D7"/>
<path d="M50.0912 12.6791C49.4833 12.6791 49.0085 13.1729 49.0085 13.7618V24.4747C49.0085 25.0824 49.5023 25.5574 50.0912 25.5574C50.699 25.5574 51.1739 25.0634 51.1739 24.4747V13.7618C51.1739 13.1539 50.6799 12.6791 50.0912 12.6791Z" fill="#B6A2D7"/>
<path d="M46.1472 12.793C45.6153 12.5271 44.9506 12.736 44.6845 13.2869L40.2969 22.0433L35.9091 13.2869C35.6433 12.755 34.9785 12.5271 34.4466 12.793C33.9147 13.0589 33.6868 13.7238 33.9528 14.2555L39.3091 24.9684C39.4991 25.3293 39.8601 25.5763 40.2779 25.5763C40.6958 25.5763 41.0566 25.3484 41.2466 24.9684L46.6031 14.2555C46.9069 13.7047 46.698 13.0589 46.1472 12.793Z" fill="#B6A2D7"/>
<path d="M65.2028 8.21533C64.5949 8.21533 64.1201 8.70919 64.1201 9.29801V14.2935C62.9804 13.2869 61.4988 12.679 59.8463 12.679C56.2944 12.679 53.4072 15.5662 53.4072 19.1181C53.4072 22.6702 56.2944 25.5573 59.8463 25.5573C63.3982 25.5573 66.2855 22.6702 66.2855 19.1181V9.29801C66.2855 8.70919 65.7915 8.21533 65.2028 8.21533ZM64.1011 19.1181C64.1011 21.4735 62.1826 23.3919 59.8273 23.3919C57.472 23.3919 55.5536 21.4735 55.5536 19.1181C55.5536 16.7629 57.472 14.8444 59.8273 14.8444C62.2017 14.8634 64.1011 16.7818 64.1011 19.1181Z" fill="#B6A2D7"/>
<path d="M15.5155 5.40424C16.6362 5.40424 17.7189 5.5372 18.7635 5.80312C19.0295 5.87911 19.3144 5.70814 19.4284 5.46122C19.5613 5.13832 19.3714 4.77741 19.0295 4.70144C17.9087 4.41652 16.7311 4.28357 15.5155 4.28357C14.3189 4.28357 13.1792 4.43552 12.0585 4.70144C11.7166 4.77741 11.5456 5.13832 11.6596 5.46122C11.7546 5.72714 12.0395 5.87911 12.3244 5.80312C13.3501 5.5372 14.4138 5.40424 15.5155 5.40424Z" fill="#B6A2D7"/>
<path d="M22.5209 6.94261C22.4829 7.17054 22.5969 7.39846 22.7868 7.51243C26.6996 9.98172 29.2639 14.4074 29.1309 19.403C28.941 26.6588 22.9768 32.5471 15.7209 32.6611C8.10406 32.775 1.89289 26.6209 1.89289 19.042C1.89289 14.1795 4.45713 9.90573 8.29402 7.49345C8.48397 7.37948 8.59792 7.15154 8.55994 6.92361C8.50295 6.52472 8.04709 6.31578 7.70519 6.52472C3.35546 9.25992 0.506289 14.1795 0.772211 19.7449C1.11411 27.3047 7.24932 33.4399 14.8091 33.8007C23.2617 34.1996 30.2896 27.4187 30.2896 19.042C30.2896 13.7996 27.5353 9.18395 23.3945 6.56272C23.0526 6.31578 22.5969 6.54372 22.5209 6.94261Z" fill="#B6A2D7"/>
<path d="M18.565 10.8177C17.8433 10.6658 17.1025 10.5708 16.3808 10.5328C16.0958 10.5138 15.7919 10.5138 15.507 10.5138C14.6142 10.5138 13.7215 10.5898 12.8667 10.7417C11.0433 11.0646 9.23879 11.7105 7.64325 12.6602C6.59856 13.268 5.61084 14.0087 4.73711 14.8635C4.50918 15.0725 4.39521 15.3763 4.43319 15.6803L5.83878 26.963C8.13711 29.7552 11.6131 31.5406 15.4879 31.5406C19.3819 31.5406 22.8578 29.7552 25.1371 26.963L25.3461 25.2535C26.6757 24.5507 27.4925 23.1261 27.4925 21.5116C27.4925 20.296 27.0176 19.1563 26.2009 18.3774L26.5428 15.6803C26.5808 15.3763 26.4858 15.0914 26.2579 14.8825C25.0042 13.6669 23.5227 12.6792 21.9461 11.9384C20.9204 11.4255 19.7427 11.0456 18.565 10.8177ZM14.1584 24.5127C13.7405 24.7406 13.2656 24.8546 12.7338 24.8546C10.9483 24.8546 9.59968 23.4111 9.59968 21.4927C9.59968 19.5741 10.9483 18.1306 12.7338 18.1306C13.5315 18.1306 14.2344 18.4155 14.7662 18.8903C15.45 19.4982 15.8679 20.4289 15.8679 21.4927C15.8679 22.8412 15.1841 23.9619 14.1584 24.5127ZM24.9852 24.5127C24.5673 24.7406 24.0925 24.8546 23.5606 24.8546C21.7752 24.8546 20.4265 23.4111 20.4265 21.4927C20.4265 19.5741 21.7752 18.1306 23.5606 18.1306C24.3584 18.1306 25.0612 18.4155 25.593 18.8903C26.2768 19.4982 26.6947 20.4289 26.6947 21.4927C26.7136 22.8412 26.03 23.9619 24.9852 24.5127Z" fill="#B6A2D7"/>
<path d="M10.402 11.3685C10.0601 9.14614 9.69917 6.82883 9.39525 4.98635C8.52151 5.02435 7.70475 4.45451 7.45783 3.58077C7.17291 2.55507 7.81872 1.49139 8.86341 1.22546C9.85113 0.997527 10.8958 1.60535 11.1427 2.59307C11.3707 3.46681 10.9528 4.35954 10.174 4.75843L12.4913 10.7797C11.8076 10.9316 11.1048 11.1216 10.402 11.3685Z" fill="#B6A2D7"/>
<path d="M18.5679 10.7985L20.8852 4.77722C20.1064 4.37835 19.6885 3.4666 19.9164 2.59286C20.2014 1.56716 21.265 0.959338 22.3098 1.26325C23.2215 1.52917 23.8103 2.49789 23.6393 3.42862C23.4495 4.39733 22.5947 5.02416 21.6639 4.98616C21.379 6.84762 21.0182 9.14595 20.6572 11.3873C19.9925 11.1594 19.2896 10.9504 18.5679 10.7985Z" fill="#B6A2D7"/>
<path d="M14.1697 24.5126C13.7518 24.7405 13.2769 24.8545 12.7451 24.8545C10.9596 24.8545 9.61099 23.411 9.61099 21.4925C9.61099 19.574 10.9596 18.1305 12.7451 18.1305C13.5428 18.1305 14.2457 18.4154 14.7774 18.8902C15.4613 19.4981 15.8792 20.4288 15.8792 21.4925C15.8792 22.8411 15.1954 23.9618 14.1697 24.5126Z" fill="#B6A2D7"/>
<path d="M24.9965 24.5126C24.5787 24.7405 24.1037 24.8545 23.5718 24.8545C21.7864 24.8545 20.4379 23.411 20.4379 21.4925C20.4379 19.574 21.7864 18.1305 23.5718 18.1305C24.3696 18.1305 25.0725 18.4154 25.6044 18.8902C26.2882 19.4981 26.706 20.4288 26.706 21.4925C26.725 22.8411 26.0412 23.9618 24.9965 24.5126Z" fill="#B6A2D7"/>
<path d="M23.8335 20.2388C23.6246 19.9349 23.3397 19.7639 23.0167 19.7639C22.6938 19.7449 22.428 19.8969 22.2 20.2008C22.2 20.2008 22.2 20.2008 22.2 20.2198C21.991 20.5427 21.8581 20.9226 21.8581 21.3784C21.8391 21.8343 21.9721 22.2331 22.181 22.5561C22.4089 22.879 22.6559 23.0309 22.9788 23.05C23.3016 23.05 23.5865 22.898 23.8145 22.575C24.0424 22.2712 24.1754 21.8912 24.1754 21.4165C24.1373 20.9415 24.0615 20.5807 23.8335 20.2388ZM23.2067 21.2644C22.9978 21.2644 22.8078 21.0935 22.8078 20.8657C22.8078 20.6566 22.9788 20.4668 23.2067 20.4668C23.4156 20.4668 23.6056 20.6377 23.6056 20.8657C23.6056 21.0935 23.4346 21.2644 23.2067 21.2644Z" fill="#B6A2D7"/>
<path d="M12.996 20.2388C12.7871 19.9349 12.5022 19.7639 12.1793 19.7639C11.8564 19.7449 11.5904 19.8969 11.3625 20.2008C11.3625 20.2008 11.3625 20.2008 11.3625 20.2198C11.1536 20.5427 11.0206 20.9226 11.0206 21.3784C11.0016 21.8343 11.1346 22.2331 11.3435 22.5561C11.5714 22.879 11.8184 23.0309 12.1413 23.05C12.4642 23.05 12.7491 22.898 12.977 22.575C13.205 22.2712 13.3379 21.8912 13.3379 21.4165C13.2999 20.9415 13.224 20.5807 12.996 20.2388ZM12.3692 21.2644C12.1603 21.2644 11.9703 21.0935 11.9703 20.8657C11.9703 20.6566 12.1413 20.4668 12.3692 20.4668C12.5781 20.4668 12.7681 20.6377 12.7681 20.8657C12.7681 21.0935 12.5971 21.2644 12.3692 21.2644Z" fill="#B6A2D7"/>
</g>
<defs>
<clipPath id="clip0_1004_3654">
<rect width="119.68" height="34" fill="white" transform="translate(0.314041)"/>
</clipPath>
</defs>
</svg>
