<svg width="110" height="37" viewBox="0 0 110 37" fill="none" xmlns="http://www.w3.org/2000/svg">
<g clip-path="url(#clip0_1271_5538)">
<path d="M109.694 15.6317H0V37.0012H109.694V15.6317Z" fill="#B6A2D7" fill-opacity="0.5"/>
<path d="M7.3411 32.8827L3.8501 0H10.2253L12.0468 20.7479L13.8683 0H19.9396L21.6851 20.7479L23.4306 0H29.8818L26.3148 32.8827H18.498L16.8659 17.0352L15.3098 32.8827H7.3411Z" fill="#B6A2D7"/>
<path d="M31.7324 0H41.753C43.3469 0 44.5737 0.369937 45.4334 1.10981C46.3196 1.82452 46.9143 2.84667 47.2175 4.17624C47.5191 5.47515 47.6699 7.14399 47.6699 9.18277C47.6699 11.0446 47.4295 12.4992 46.9486 13.5465C46.4677 14.5938 45.6321 15.3227 44.442 15.7331C45.4303 15.9368 46.1395 16.4345 46.5698 17.2263C47.0218 18.0172 47.2479 19.0889 47.2479 20.4413L47.1765 32.8886H40.8013V20.0332C40.8013 19.1133 40.6244 18.5259 40.2705 18.2712C39.9167 18.0164 39.2717 17.8891 38.3356 17.8891V32.8886H31.7324V0ZM39.9291 12.1737C40.8403 12.1737 41.2955 11.1783 41.2947 9.18749C41.3077 8.53475 41.2686 7.88201 41.1778 7.23559C41.1045 6.80393 40.9665 6.50948 40.7639 6.35222C40.562 6.17374 40.2709 6.0845 39.8906 6.0845H38.3707V12.1737H39.9291Z" fill="#B6A2D7"/>
<path d="M55.8129 0H49.5137V32.8827H55.8129V0Z" fill="#B6A2D7"/>
<path d="M61.2223 32.8827V6.31566H57.3525V0H71.6193V6.31566H67.7495V32.8827H61.2223Z" fill="#B6A2D7"/>
<path d="M73.4595 32.8827V0H86.5127V6.35458H80.1001V12.7469H86.2473V18.9493H80.1001V26.4904H86.9301V32.8827H73.4595Z" fill="#B6A2D7"/>
<path d="M88.5283 0H98.5465C100.14 0 101.367 0.369937 102.227 1.10981C103.113 1.82452 103.707 2.84667 104.01 4.17624C104.314 5.47751 104.466 7.1491 104.466 9.19103C104.466 11.0529 104.225 12.5075 103.744 13.5548C103.264 14.6021 102.429 15.3294 101.241 15.7367C102.227 15.938 102.935 16.4345 103.366 17.2263C103.821 18.0172 104.048 19.0889 104.048 20.4413L103.972 32.8886H97.5972V20.0332C97.5972 19.1133 97.4203 18.5259 97.0664 18.2712C96.7126 18.0164 96.0672 17.8891 95.1304 17.8891V32.8886H88.5283V0ZM96.725 12.1737C97.6362 12.1737 98.0914 11.1783 98.0906 9.18749C98.1036 8.53475 98.0645 7.88201 97.9737 7.23559C97.8996 6.80393 97.7617 6.50948 97.5598 6.35222C97.3564 6.17414 97.0664 6.0845 96.6876 6.0845H95.1678V12.1737H96.725Z" fill="#B6A2D7"/>
</g>
<defs>
<clipPath id="clip0_1271_5538">
<rect width="109.694" height="37" fill="white"/>
</clipPath>
</defs>
</svg>
